<svg xmlns="http://www.w3.org/2000/svg" xmlns:xlink="http://www.w3.org/1999/xlink" width="436" height="185" viewBox="0 0 436 185">
    <defs>
        <path id="a" d="M42.588 24.444c-10.921 0-24.922-3.46-34.067-8.736-10.998-6.349-10.804-12.925.432-14.69 1.896-.297 3.981-.44 6.194-.44 10.92 0 24.924 3.458 34.07 8.74 10.999 6.346 10.803 12.92-.433 14.685-1.896.3-3.981.441-6.196.441z"/>
    </defs>
    <g fill="none" fill-rule="evenodd">
        <path fill="#DAD6C4" d="M97.513 117.843l-.561-.15-10.392-6a1.123 1.123 0 0 1-.411-1.536 1.134 1.134 0 0 1 1.536-.414l10.392 6c.54.312.723.999.414 1.539a1.13 1.13 0 0 1-.978.56zm20.787 12l-.561-.15-10.395-6a1.123 1.123 0 0 1-.411-1.536 1.134 1.134 0 0 1 1.536-.414l10.395 6c.537.312.72.999.411 1.539-.21.36-.588.56-.975.56zm20.784 12l-.561-.15-10.395-6a1.125 1.125 0 0 1 1.125-1.95l10.395 6a1.127 1.127 0 0 1-.564 2.1zm20.784 12l-.561-.15-10.392-6a1.126 1.126 0 0 1-.414-1.536 1.137 1.137 0 0 1 1.539-.414l10.392 6a1.127 1.127 0 0 1-.564 2.1zM180.513 164.843l-.561-.15-10.392-6a1.123 1.123 0 0 1-.411-1.536 1.134 1.134 0 0 1 1.536-.414l10.392 6c.54.312.723.999.414 1.539a1.13 1.13 0 0 1-.978.56zm20.787 12l-.561-.15-10.395-6a1.123 1.123 0 0 1-.411-1.536 1.134 1.134 0 0 1 1.536-.414l10.395 6c.537.312.72.999.411 1.539-.21.36-.588.56-.975.56zm20.784 12l-.561-.15-10.395-6a1.125 1.125 0 0 1 1.125-1.95l10.395 6a1.127 1.127 0 0 1-.564 2.1zm20.784 12l-.561-.15-10.392-6a1.126 1.126 0 0 1-.414-1.536 1.137 1.137 0 0 1 1.539-.414l10.392 6a1.127 1.127 0 0 1-.564 2.1zM189.16 59.509l-.561-.15-10.392-6a1.123 1.123 0 0 1-.411-1.536 1.13 1.13 0 0 1 1.536-.414l10.392 6a1.126 1.126 0 0 1-.564 2.1zm20.787 12l-.564-.15-10.392-6a1.123 1.123 0 0 1-.411-1.536 1.132 1.132 0 0 1 1.536-.414l10.392 6c.54.309.723.999.414 1.539-.21.36-.588.56-.975.56zm20.784 12l-.561-.15-10.395-6a1.126 1.126 0 0 1 1.125-1.95l10.395 6a1.125 1.125 0 1 1-.564 2.1zM254.16 97.509l-.561-.15-10.392-6a1.123 1.123 0 0 1-.411-1.536 1.13 1.13 0 0 1 1.536-.414l10.392 6a1.126 1.126 0 0 1-.564 2.1zm20.787 12l-.564-.15-10.392-6a1.123 1.123 0 0 1-.411-1.536 1.132 1.132 0 0 1 1.536-.414l10.392 6c.54.309.723.999.414 1.539-.21.36-.588.56-.975.56zm20.784 12l-.561-.15-10.395-6a1.126 1.126 0 0 1 1.125-1.95l10.395 6a1.125 1.125 0 1 1-.564 2.1z"/>
        <path fill="#DAD6C4" d="M247.694 101.268a1.127 1.127 0 0 1-.564-2.1l5.235-3.021a1.132 1.132 0 0 1 1.536.414 1.13 1.13 0 0 1-.41 1.539l-5.236 3.02-.56.148zM226.91 113.27a1.127 1.127 0 0 1-.564-2.1l10.392-6c.54-.3 1.227-.126 1.536.414.312.54.126 1.227-.41 1.536l-10.393 6-.56.15zm-20.784 12a1.127 1.127 0 0 1-.564-2.1l10.392-6a1.132 1.132 0 0 1 1.536.414c.312.54.126 1.227-.41 1.536l-10.393 6-.56.15z"/>
        <path fill="#DAD6C4" d="M207.694 124.268a1.127 1.127 0 0 1-.564-2.1l5.235-3.021a1.132 1.132 0 0 1 1.536.414 1.13 1.13 0 0 1-.41 1.539l-5.236 3.02-.56.148zM186.91 136.27a1.127 1.127 0 0 1-.564-2.1l10.392-6c.54-.3 1.227-.126 1.536.414.312.54.126 1.227-.41 1.536l-10.393 6-.56.15zm-20.784 12a1.127 1.127 0 0 1-.564-2.1l10.392-6a1.132 1.132 0 0 1 1.536.414c.312.54.126 1.227-.41 1.536l-10.393 6-.56.15zM42.694 131.268a1.127 1.127 0 0 1-.564-2.1l5.235-3.021a1.132 1.132 0 0 1 1.536.414 1.13 1.13 0 0 1-.41 1.539l-5.236 3.02-.56.148zM21.91 143.27a1.127 1.127 0 0 1-.564-2.1l10.392-6c.54-.3 1.227-.126 1.536.414.312.54.126 1.227-.41 1.536l-10.393 6-.56.15zm-20.784 12a1.127 1.127 0 0 1-.564-2.1l10.392-6a1.132 1.132 0 0 1 1.536.414c.312.54.126 1.227-.41 1.536l-10.393 6-.56.15z"/>
        <path fill="#DAD6C4" d="M166.832 59.71a1.125 1.125 0 0 1-.564-2.1l10.395-6a1.132 1.132 0 0 1 1.536.414 1.13 1.13 0 0 1-.411 1.539l-10.395 6-.561.147zm-20.781 12a1.13 1.13 0 0 1-.978-.561 1.128 1.128 0 0 1 .414-1.54l10.392-6c.54-.3 1.227-.122 1.536.415a1.13 1.13 0 0 1-.411 1.539l-10.392 6-.561.147zm-20.787 12c-.387 0-.765-.201-.975-.561a1.13 1.13 0 0 1 .411-1.54l10.392-6c.54-.3 1.227-.125 1.536.415.312.54.129 1.227-.411 1.539l-10.392 6-.561.147zm-20.784 12a1.127 1.127 0 0 1-.564-2.1l10.392-6a1.127 1.127 0 0 1 1.125 1.953l-10.392 6-.561.147zm-20.784 12a1.127 1.127 0 0 1-.564-2.1l10.392-6a1.127 1.127 0 0 1 1.125 1.953l-10.392 6-.561.147zm-20.784 12a1.127 1.127 0 0 1-.564-2.1l10.392-6c.54-.3 1.227-.126 1.536.414a1.13 1.13 0 0 1-.411 1.539l-10.392 6-.561.147zm-20.784 12a1.13 1.13 0 0 1-.978-.561 1.128 1.128 0 0 1 .414-1.54l10.389-6a1.134 1.134 0 0 1 1.539.415c.309.54.126 1.227-.414 1.539l-10.389 6-.561.147z"/>
        <path fill="#FFEFDD" d="M390.179 121.307c-10.168-5.582-9.987-11.369.402-12.92 1.75-.26 3.679-.386 5.725-.386 10.095 0 23.043 3.042 31.5 7.682 10.167 5.582 9.986 11.369-.401 12.919-1.75.26-3.677.386-5.722.386-10.096-.002-23.046-3.04-31.504-7.681z"/>
        <path fill="#E09D64" d="M400.89 14.252l-2.234.594v3.05l1.516 4.986 2.782 3.953 6.683-1.17 2.288-3.953-3.945-6.472-7.09-.988"/>
        <path fill="#FCCDA5" d="M422.577 55.482c-.655.383-3.316 1.82-3.263 2.764.323 2.11 2.592 5.08 2.592 5.08s-1.64 4.398 2.49 5.637c1.026.303 5.695-1.462 2.623-7.617-.957-1.266-3.791-3.956-4.442-5.864"/>
        <path fill="#080808" d="M426.108 116.803c-1.56.14-7.095.89-7.095.89s.4 6.156 1.885 7.144c1.477.988 5.21-.539 5.21-.539s7.482.85 9.184-1.487c.227-.894-.645-2.346-1.423-3.086-.784-.743-7.188-.775-7.761-2.922"/>
        <path fill="#FFC900" d="M424.848 90.33c.313-2.532-3.078-22.18-8.6-35.63-1.243-.983-11.592 11.046-11.592 11.046s7 19.28 10.116 25.791c.27 11.058 1.478 22.72 2.02 25.347 4.442 4.111 10.565-.948 10.565-.948s-2.824-23.076-2.509-25.606"/>
        <path fill="#080808" d="M382.882 105.423s-.675 4.114-.5 5.865c.177 1.75 4.74 9.102 9.046 10.246 4.304 1.143 4.77-2 4.778-3.041.006-2.348-4.847-6.328-5.16-9.52-1.184-.771-8.164-3.55-8.164-3.55"/>
        <path fill="#F3AC36" d="M390.575 87.522s-4.152 2.833-4.723 4.836c-.57 2.006-3.802 12.3-3.802 13.337 2.69 6.871 9.645 2.969 9.645 2.969s5.432-14.338 7.401-16.228c1.964-1.887 4.031-13.021 6.727-24.129 5.562-2.288 10.146-13.332 10.146-13.332l.17-3.31-24.444 7.592s-2.467 19.52-1.12 28.265"/>
        <path fill="#FA5932" d="M409.592 20.864s-.044 2.78-2.424 3.813c-2.375 1.034-7.705-1.905-7.705-1.905l4.21 37.135 10.312-5.206-.905-31.374-3.488-2.463"/>
        <path fill="#080808" d="M402.416 61.346l12.43-5.995 1.294-3.686-13.724 6.654v3.027"/>
        <path fill="#030303" d="M417.89 22.245c-.314-7.374-7.222-6.647-7.222-6.647l3.41 13.242.36 21.181s2.438 6.52 3.097 8.269c4.525.357 6.86-2.877 6.86-2.877s-3.676-12.492-5.563-14.828c.63-2.607-.824-15.572-.943-18.34"/>
        <path fill="#242424" d="M410.58 17.04l-2.871 1.708s2.99 6.29 3.976 11.776c.987 5.473 0 26.416 0 27.045 3.919-1.255 5.891-4.491 5.891-4.491s1.704-17.68.36-24.238c-1.348-6.566-7.356-11.8-7.356-11.8"/>
        <path fill="#030303" d="M398.468 16.095c0 .407-.18 2.653-.18 2.653l5.43 5.929s1.075-1.84.641-3.188c-.435-1.35-4.279-2.246-5.89-5.394"/>
        <path fill="#242424" d="M398.289 18.748s-2.667 2.952-7.257 6.138c.031-.965-.457 12.258-.457 12.258s1.704 4.16 1.704 10.899c0 6.741-.722 10.335-.722 10.335s3.322 4.046 7.787 4.046 8.771-3.146 8.771-3.146.849-20.222-.675-28.042c-1.525-7.819-9.151-12.488-9.151-12.488"/>
        <path fill="#FCCDA5" d="M409.95 3.736l-4.44-1.527-3.857.36-4.622 3.822v4.043l.449 2.788c.263 1.632 2.556 2.288 2.556 2.288s2.918 4.807 8.838 5.35c.897.08 2.288-.813 2.467-1.347.18-.541.672-8.271 0-10.07.359-.898-1.39-5.707-1.39-5.707"/>
        <path fill="#603913" d="M399.098 1.269c-4.335 2.218-2.92 7.82-2.92 7.82s.584 3.452 1.302 4.133c.283.262-.718-3.014.627-3.102 1.348-.092 1.348 2.154 2.11 1.797-.18-2.879 2.063-2.156 2.289-5.123 1.614-.223 4.26-.181 5.38-.852 1.124-.675 2.064-2.206 2.064-2.206s-3.23-6.378-10.852-2.467"/>
        <path fill="#F0C6B4" d="M399.004 68.382s.292-1.849 0-2.521c-.29-.681-4.375-2.534-4.375-2.534l-4.054 1.51s2.267 4.462 4.632 6.305c2.373 1.84 5.167 2.605 6.669 1.882 1.501-.719-2.872-4.642-2.872-4.642"/>
        <path fill="#030303" d="M387.328 28.318c-1.875 2.628-8.014 19.928-7.876 21.524.202 5.571 10.402 17.074 10.402 17.074s4.33 0 5.025-4.671c0 0-5.27-9.462-7.152-12.426 3.632-6.134 7.152-14.446 7.152-14.446s1.235-7.911-1.076-9.978c-2.31-2.068-4.934.765-6.475 2.923"/>
        <path fill="#25A4C4" d="M398.222 64.173c-5.789 1.013-7.132 5.596-7.132 5.596l3.969 7.283 8.007-4.314s-2.527-9.163-4.844-8.565"/>
        <path fill="#1F8BA6" d="M397.415 63.327s4.277 4.015 5.651 7.591c-.47-4.585-5.65-7.591-5.65-7.591M392.168 70.595c2.421 4.03 7.295 4.082 7.295 4.082s-5.278-1.333-7.295-4.082"/>
        <g transform="translate(346.336 121.628)">
            <mask id="b" fill="#fff">
                <use xlink:href="#a"/>
            </mask>
            <path fill="#FFEFDD" d="M-2.477 24.444h62.693V.58H-2.477z" mask="url(#b)"/>
        </g>
        <path fill="#FCCDA5" d="M382.298 37.642l-2.727-4.644-3.892-3.418-3.816 2.597s1.548 2.095 1.706 2.596c1.066 2.96-1.706 5.403-1.706 5.403l1.093 4.096 5.601 4.987 5.722-2.937-2.531-5.127.55-3.553"/>
        <path fill="#C2A091" d="M374.91 31.402s-.82.9-.866 1.58c.432 1.643 1.892 2.7 3.003 2.771 1.275 3.714 4.922 3.393 4.922 3.393s1.078-2.192.809-2.305c-.273-.11-7.868-5.44-7.868-5.44"/>
        <path fill="#FCCDA5" d="M412.117 49.49c-1.428.55-2.709 1.237-4.934 2.662-8.69 2.708-9.363 2.06-15.945 5.102-.688-2.259-2.02-5.764-3.163-10.205-.317-4.5-1.122-8.321-2.334-9.378-1.15-.953-3.993-.825-3.993-.825s2.269 14.85 2.66 17.429c.445 3.17 2.593 7.92 2.593 7.92s.38.95 1.583 1.397c3.666.06 18.66-7.734 18.66-7.734s2.496.142 3.478-.188c.978-.33 2.853-1.73 2.853-1.73s.469 1.315 1.434 1.11c.962-.205 1.612-3.278.901-4.527-.71-1.26-2.231-1.227-3.793-1.032"/>
        <path fill="#B01210" d="M405.496 58.572v.006c-.254-.104-.586-.073-.938.13l-10.878 6.296c-.621.355-1.176 1.137-1.361 1.926l-2.009 8.375c-.169.715-.008 1.252.342 1.465l3.005 2.074 2.19-4.274-.3-.138 11.017-6.37c.967-.56 1.653-2.05 1.36-2.945l-.44-1.32.75-.257.509-2.735-3.226-2.214-.021-.019"/>
        <path fill="#F02422" d="M408.953 61.156c-.187-.566-.74-.716-1.36-.35l-10.88 6.287c-.622.364-1.166 1.14-1.358 1.933l-2.008 8.37c-.3 1.237.387 1.93 1.355 1.375l14.894-8.615c.97-.562 1.658-2.047 1.366-2.946l-2.009-6.054"/>
        <path fill="#FFB700" d="M402.585 67.561l-.592.345c-.382.226-.693.756-.693 1.21v1.132c0 .443.31.624.693.4l.592-.335c.381-.226.692-.765.692-1.21v-1.134c0-.447-.31-.631-.692-.408"/>
        <path fill="#FF6E8F" d="M404.07 60.44c0 .206.17.374.38.374a.373.373 0 0 0 .377-.374v-3.358l-.757.372v2.986"/>
        <path fill="#F02422" d="M400.007 53.462l-.085.05c-2.444 1.415-4.432 4.878-4.432 7.703v4.19a.379.379 0 0 0 .757 0v-4.19c0-2.593 1.82-5.747 4.063-7.04l.085-.055c.782-.449 1.429-.716 2.038-.589l1.082-.292c-.974-.65-2.246-.504-3.508.223"/>
        <path fill="#FFF" d="M396.368 137.29l-11.43-1.796c.04 2.047.055 3.737.84 4.65 1.054 1.224 6.23.32 6.23.32s9.223 1.733 9.463-.092c.317-2.463-2.63-1.943-5.103-3.082"/>
        <path fill="#FCCDA5" d="M396.368 137.29c-.99-.449-3.762-1.838-4.631-3.115-4.459-12.618.317-23.552-1.637-27.88-1.07-1.663.177-8.313-.912-20.116-.27-1.483-12.508 3.445-12.508 3.445l6.688 20.042s-1.34 4.51-1.364 7.657c-.014 1.905 1.6 7.945 2.615 13.871.257 1.506.303 3.667.32 4.3 1.067 3.373 15.154 3.595 11.43 1.796"/>
        <path fill="#FFF" d="M353.718 119.493s-2.73.832-2.865 4.385c-.131 3.554.559 6.18 1.37 8.626 1.975 4.494 6.542 2.923 7.088 1.488.263-.694-.567-1.724-1.401-3.042l-4.192-11.457"/>
        <path fill="#FCCDA5" d="M363.54 104.747s-3.067 1.025-4.908 3.006c-1.844 1.984-4.914 11.74-4.914 11.74s-2.492 1.753-1.453 6.345c1.706 8.316 5.645 5.112 5.645 5.112s-.918-2.647-1.445-3.978c-.021-.418.014-.714.119-1.161 3.616-12.522 11.811-14.229 12.96-17.647 1.151-3.422 7.297-12.916 8.05-23.92l-14.054-4.407c-1.395 4.767 0 24.91 0 24.91"/>
        <path fill="#FA5932" d="M386.39 69.623c-1.906-.342-19.423 3.92-19.423 3.92s-2.363 2.97-3.97 6.294c-1.61 3.323-.364 9.056-.364 9.056s.159 3.098 7.456 4.556c7.3 1.458 18.557-5.833 19.1-7.27-.451-5.668-3.183-9.768-2.8-16.556"/>
        <path fill="#333" d="M368.278 71.965c-.523.604-1.005 1.164-1.311 1.577 12.491 7.788 19.423-3.919 19.423-3.919.008-.551 0-1.097-.017-1.64l-18.095 3.982"/>
        <path fill="#FCCDA5" d="M370.841 68.462c-.106.676-2.283 3.173-2.563 3.503 7.178 6.63 18.097-1.863 18.095-3.982-.025-.679-.106-2.266-.14-3.49l-15.392 3.969"/>
        <path fill="#FFEEB1" d="M381.958 37.416c-1.91 3.303-.342 7.057-1.51 8.223-1.814 1.8-4.902-3.692-8.585-5.463-2.043 2.661-5.574 6.522-5.574 6.522l1.981 14.884s2.023 3.462 2.571 6.88c8.456 4.03 15.392-3.97 15.392-3.97-.077-2.431-.02-5.615.705-6.827.474-.144 3.887-.82 3.887-5.126 0-4.101-7.91-8.814-7.91-15.123-1.299-.936-.617-.575-.957 0"/>
        <path fill="#FCCDA5" d="M385.232 23.36c-.454-.705-3.955-1.023-3.955-1.023l-5.527 2.457-2.61 6.574s1.953 4.454 4.387 3.815c.113 3.917 7.021 4.533 8.162 3.553 1.135-.977 1.25-4.305 1.25-4.305s.796-.569.819-1.024c.02-.455-1.158-2.94-1.158-2.94s.678-4.443-1.368-7.106"/>
        <path fill="#603913" d="M368.71 20.919c-12.468 4.286-2.917 17.955-2.577 18.498 1.979-.271 3.887-7.583 5.87-7.788 1.977-.204-.918-10.489-3.293-10.71"/>
        <path fill="#FF6E8F" d="M370.226 20.423c-1.508 0-2.73 1.323-2.73 2.95 0 1.63 1.222 2.954 2.73 2.954s2.73-1.324 2.73-2.954c0-1.627-1.222-2.95-2.73-2.95"/>
        <path fill="#603913" d="M370.16 22.065c-5.733 11.342 3.409 12.708 3.409 12.708s1.226-.616.817-3.417c1.569-1.23 1.909 1.844 4.298 1.573.518-.061 3.141-2.804 2.321-5.741 4.638-1.093 4.227-3.827 4.227-3.827s-7.298-9.568-15.073-1.296"/>
        <path fill="#FCCDA5" d="M369.273 45.252c-4.548-.547-5.912 9.654-5.912 9.654s-2.459 12.392-3.182 13.487c-1.547 5.469 2.09 15.852 1.724 19.86-.452 1.46-.496 6.105.094 6.562.593.456 3.272 4.01 4.728 3.644 1.455-.366.817-5.376.817-5.376s1.02-2.312.68-2.726c-.342-.42-.313-.462-2.041-3.196-1.731-2.733.544-11.937-.82-17.402 2.638-5.283 7.299-18.405 7.299-18.405s1.16-5.557-3.387-6.102"/>
        <path fill="#FFC900" d="M375.204 58.482c1.775 6.63 7.574 2.942 7.574 2.942s-5.049 2.39-7.574-2.942"/>
        <path fill="#FFEFDD" d="M359.766 171.63c-10.39-1.036-25.168-9.325-33.01-18.52-7.296-8.554-6.011-14.871 2.574-14.871.642 0 1.324.035 2.046.108 10.39 1.036 25.168 9.33 33.009 18.52 7.295 8.555 6.01 14.87-2.573 14.87a20.93 20.93 0 0 1-2.046-.107z"/>
        <path fill="#FCCDA5" d="M349.108 57.81l-5.253.89.091 3.835 2.753 5.373 5.145-.03 2.187-3.912-2.285-3.662-2.638-2.495"/>
        <path fill="#FFEFDD" d="M370.485 97.755s-3.4-.038-3.076 1.802c-.094 2.48 2.016 6.909 2.431 9.69.89.396 2.985 1.441 3.844 1.136.855-.3 1.793-3.856 1.03-5.969-.768-2.112-4.23-6.66-4.23-6.66"/>
        <path fill="#030303" d="M360.827 63.667c-.638-4.124-6.151-4.64-6.151-4.64s2.55 27.12 4.041 28.282c1.495 1.168 6.886 12.349 6.886 12.349s2.244.668 5.203-2.2c-.605-.758-7.51-17.868-7.51-17.868s-1.828-11.799-2.469-15.923"/>
        <path fill="#FFEFDD" d="M328.177 103.66l-3.401-1.213-.41 1.896-1.732 2.934s-.772 1.924-.417 3.125c.352 1.201 2.304 4.211 3.22 4.12.915-.095 1.163-3.458 1.163-3.458s1.692-.102 2.017-1.274c.33-1.17-.899-4.101-.899-4.101l.459-2.029"/>
        <path fill="#FFF" d="M334.619 133.739c-1.168.612-2.57.658-2.78 2.452-.228 1.968 3.326 4.866 3.326 4.866s4.775 9.511 8.033 7.274c1.993-1.368.215-3.737-1.42-5.975l-7.16-8.617"/>
        <path fill="#FCCDA5" d="M341.152 135.742l-3.864-4.652c-.793 1.003-1.554 1.86-2.32 2.44-.112.081-.112.081-.35.209.053 6.57 7.147 12.837 7.16 8.617-.11-.152-1.986-2.743-1.946-3.764.117-.982.598-1.933 1.32-2.85"/>
        <path fill="#894A0F" d="M347.235 103.006s3.589 16.68-1.451 19.356c-3.727 1.976-6.252 5.912-8.496 8.728 0 0-.711 5.116 3.864 4.652.709-2.38 11.89-7.947 12.708-11.37.99-4.17 6.544-18.65 6.169-28.153-.97-1.606-12.794 6.787-12.794 6.787"/>
        <path fill="#FFF" d="M361.778 165.831l-8.007-2.697c.55 2.423 1.159 4.6 2.027 5.67 4.39 5.408 8.46 2.225 9.135 1.44.607-1.919-.96-2.648-3.155-4.413"/>
        <path fill="#FCCDA5" d="M358.896 163.023c-.554-.674-1.021-1.742-1.418-3.069l-4.195.949c.16.746.356 1.682.488 2.231 4.379 8.327 9.33 3.978 8.007 2.697-1.028-.873-1.887-1.598-2.882-2.808"/>
        <path fill="#B9691B" d="M360.029 96.22c0-.513 0-1.493-.004-2.74l-19.572 1.839c-.475.806-1.13 2.097-1.991 4.54-1.641 9.77 8.183 31.304 8.089 33.305.32 4.851-.865 5.983.019 10.406.527 2.613 3.234 6.397 5.199 12.321.496 1.519 1.424 4.607 1.514 5.012 2.854 1.765 4.195-.949 4.195-.949-2.06-6.902-2.312-20.907-4.214-24.283 1.941-18.152-1.47-28.894-1.47-28.894s6.923-3.96 8.235-10.558"/>
        <path fill="#171717" d="M341.475 93.175c-.073.867-.507 1.202-1.022 2.144 7.184 8.8 19.572-1.839 19.572-1.839-.003-.633-.003-1.34-.003-2.089l-18.547 1.784"/>
        <path fill="#FFC900" d="M352.13 58.91s1.463 6.284-.789 7.074c-2.254.79-7.046-3.094-7.046-3.094l-2.726 1.815s.148 27.587-.094 28.47c5.063 9.16 18.547-1.784 18.547-1.784l-.014-12.137s2.506-1.068 2.686-4.89c.181-3.826-8.252-10.605-8.008-15.947-.304-.954-2.557.493-2.557.493"/>
        <path fill="#A62626" d="M350.094 83.896s9.49-3.385 9.188-4.287c-.3-.905-9.188 4.287-9.188 4.287"/>
        <path fill="#242424" d="M353.597 58.202c-2.608-1.218-3.046 3.002-2.477 3.646 10.669 13.91 5.318 28.914 5.318 28.914l6.137-2.722s.644-9.14.227-15.998c-.32-5.285-6.602-12.624-9.205-13.84"/>
        <path fill="#242424" d="M342.111 60.74s-.31 2.925-5.136 5.856c.033 1.34.286 13.93.943 15.14 2.9 7.194.959 9.223.959 9.223s6.613 5.586 13.805 1.268c2.344-9.194 1.506-21.958-9.025-32.239-.945-1.205-1.546.752-1.546.752"/>
        <path fill="#FFEFDD" d="M352.803 47.492l-5.908.722-2.605 5.079-.567 5.31s2.448 3.034 4.722 4.143c1.39.68 3.66.583 4.258-.575.602-1.157 1.216-2.107 1.216-2.107l1.597-1.498 1.257-4.546-.963-4.698-3.007-1.83"/>
        <path fill="#F5B400" d="M352.722 43.332c-3.028-2.475-7.086-.213-7.086-.213s-6.44.913-6.763 10.682c-.205 6.202 6.118 8.784 6.118 8.784s-1.061-8.442 2.626-12.259c1.54-1.598 3.739.38 3.739.38 4.164-2.95 4.356 2.21 3.9 4.154.552 1.849-1.337 5.204-1.337 5.204s2.936 1.439 3.522-6.64c.1-2.147-.832-6.985-4.72-10.092"/>
        <path fill="#D49C00" d="M350.282 48.81c.94.317-3.662-4.958-3.662-4.958s2.721 4.638 3.662 4.958"/>
        <path fill="#030303" d="M338.998 66.613c-5.668-1.431-6.471 8.383-6.471 8.383l-4.667 12.092s-3.783 15.145-3.666 15.563c2.085 3.585 5.976.759 5.976.759l4.088-14.38 7.53-15.024s2.878-5.964-2.79-7.393"/>
    </g>
</svg>
