<svg xmlns="http://www.w3.org/2000/svg" xmlns:xlink="http://www.w3.org/1999/xlink" width="469" height="536" viewBox="0 0 469 536">
    <defs>
        <path id="a" d="M46.644 26.772c-11.961 0-27.296-3.789-37.31-9.568C-2.714 10.25-2.5 3.048 9.805 1.114c2.076-.325 4.36-.48 6.783-.48 11.961 0 27.298 3.786 37.316 9.57 12.045 6.952 11.83 14.152-.475 16.085-2.076.328-4.36.483-6.786.483z"/>
    </defs>
    <g fill="none" fill-rule="evenodd">
        <path fill="#DAD6C4" d="M181.589 183.698l-.561-.147-10.392-6a1.13 1.13 0 0 1-.411-1.54 1.132 1.132 0 0 1 1.536-.413l10.392 6a1.127 1.127 0 0 1-.564 2.1zm20.784 12l-.561-.147-10.389-6a1.128 1.128 0 0 1-.414-1.54 1.136 1.136 0 0 1 1.539-.413l10.389 6c.54.312.723.999.414 1.539a1.13 1.13 0 0 1-.978.56zm20.787 12l-.561-.147-10.392-6a1.127 1.127 0 0 1-.411-1.54c.306-.54.996-.713 1.536-.413l10.392 6c.537.312.72.999.411 1.539-.207.36-.585.56-.975.56zm20.784 12l-.561-.147-10.392-6a1.127 1.127 0 0 1 1.125-1.953l10.392 6a1.127 1.127 0 0 1-.564 2.1zm20.784 12l-.561-.147-10.392-6a1.13 1.13 0 0 1-.411-1.54 1.132 1.132 0 0 1 1.536-.413l10.392 6a1.127 1.127 0 0 1-.564 2.1zm20.784 12l-.561-.147-10.389-6a1.128 1.128 0 0 1-.414-1.54 1.139 1.139 0 0 1 1.539-.413l10.389 6c.54.312.723.999.414 1.539a1.13 1.13 0 0 1-.978.56zm20.787 12l-.561-.147-10.392-6a1.124 1.124 0 0 1-.411-1.54 1.134 1.134 0 0 1 1.536-.413l10.392 6a1.125 1.125 0 1 1-.564 2.1zm20.784 12l-.561-.147-10.392-6a1.127 1.127 0 0 1 1.125-1.953l10.392 6a1.127 1.127 0 0 1-.564 2.1zm20.784 12l-.561-.147-10.392-6a1.128 1.128 0 0 1-.414-1.54 1.135 1.135 0 0 1 1.539-.413l10.392 6a1.127 1.127 0 0 1-.564 2.1zm10.68 6.168l-.561-.153-.291-.165a1.123 1.123 0 0 1-.408-1.536 1.123 1.123 0 0 1 1.536-.411l.291.168a1.125 1.125 0 1 1-.567 2.097zM127.589 435.698l-.561-.147-10.392-6a1.13 1.13 0 0 1-.411-1.54 1.132 1.132 0 0 1 1.536-.413l10.392 6a1.127 1.127 0 0 1-.564 2.1zm20.784 12l-.561-.147-10.389-6a1.128 1.128 0 0 1-.414-1.54 1.136 1.136 0 0 1 1.539-.413l10.389 6c.54.312.723.999.414 1.539a1.13 1.13 0 0 1-.978.56zm20.787 12l-.561-.147-10.392-6a1.127 1.127 0 0 1-.411-1.54c.306-.54.996-.713 1.536-.413l10.392 6c.537.312.72.999.411 1.539-.207.36-.585.56-.975.56zm20.784 12l-.561-.147-10.392-6a1.127 1.127 0 0 1 1.125-1.953l10.392 6a1.127 1.127 0 0 1-.564 2.1zm20.784 12l-.561-.147-10.392-6a1.13 1.13 0 0 1-.411-1.54 1.132 1.132 0 0 1 1.536-.413l10.392 6a1.127 1.127 0 0 1-.564 2.1zm20.784 12l-.561-.147-10.389-6a1.128 1.128 0 0 1-.414-1.54 1.139 1.139 0 0 1 1.539-.413l10.389 6c.54.312.723.999.414 1.539a1.13 1.13 0 0 1-.978.56zm20.787 12l-.561-.147-10.392-6a1.124 1.124 0 0 1-.411-1.54 1.134 1.134 0 0 1 1.536-.413l10.392 6a1.125 1.125 0 1 1-.564 2.1zm20.784 12l-.561-.147-10.392-6a1.127 1.127 0 0 1 1.125-1.953l10.392 6a1.127 1.127 0 0 1-.564 2.1zm20.784 12l-.561-.147-10.392-6a1.128 1.128 0 0 1-.414-1.54 1.135 1.135 0 0 1 1.539-.413l10.392 6a1.127 1.127 0 0 1-.564 2.1zm10.68 6.168l-.561-.153-.291-.165a1.123 1.123 0 0 1-.408-1.536 1.123 1.123 0 0 1 1.536-.411l.291.168a1.125 1.125 0 1 1-.567 2.097zM440.514 252.247l-.56-.147-10.393-6a1.13 1.13 0 0 1-.41-1.54 1.132 1.132 0 0 1 1.535-.413l10.392 6a1.127 1.127 0 0 1-.564 2.1zm20.784 12l-.56-.147-10.39-6a1.128 1.128 0 0 1-.414-1.54 1.136 1.136 0 0 1 1.54-.413l10.388 6c.54.312.723.999.414 1.539a1.13 1.13 0 0 1-.978.56zm20.787 12l-.56-.147-10.393-6a1.127 1.127 0 0 1-.41-1.54c.305-.54.995-.713 1.535-.413l10.392 6c.537.312.72.999.411 1.539-.207.36-.585.56-.975.56zm20.784 12l-.56-.147-10.393-6a1.127 1.127 0 0 1 1.125-1.953l10.392 6a1.127 1.127 0 0 1-.564 2.1zm20.784 12l-.56-.147-10.393-6a1.13 1.13 0 0 1-.41-1.54 1.132 1.132 0 0 1 1.535-.413l10.392 6a1.127 1.127 0 0 1-.564 2.1zm20.784 12l-.56-.147-10.39-6a1.128 1.128 0 0 1-.414-1.54 1.139 1.139 0 0 1 1.54-.413l10.388 6c.54.312.723.999.414 1.539a1.13 1.13 0 0 1-.978.56zm20.787 12l-.56-.147-10.393-6a1.124 1.124 0 0 1-.41-1.54 1.134 1.134 0 0 1 1.535-.413l10.392 6a1.125 1.125 0 1 1-.564 2.1zm20.784 12l-.56-.147-10.393-6a1.127 1.127 0 0 1 1.125-1.953l10.392 6a1.127 1.127 0 0 1-.564 2.1zm20.784 12l-.56-.147-10.393-6a1.128 1.128 0 0 1-.414-1.54 1.135 1.135 0 0 1 1.54-.413l10.391 6a1.127 1.127 0 0 1-.564 2.1zm10.68 6.168l-.56-.153-.292-.165a1.123 1.123 0 0 1-.408-1.536 1.123 1.123 0 0 1 1.536-.411l.291.168a1.125 1.125 0 1 1-.567 2.097z"/>
        <path fill="#DADADA" d="M191.696 164.247a1.127 1.127 0 0 1-.564-2.1l10.392-6a1.127 1.127 0 0 1 1.125 1.953l-10.392 6-.561.147zm-20.784 12a1.127 1.127 0 0 1-.564-2.1l10.392-6c.54-.3 1.227-.126 1.536.414a1.13 1.13 0 0 1-.411 1.539l-10.392 6-.561.147zm-20.784 12a1.13 1.13 0 0 1-.978-.561 1.128 1.128 0 0 1 .414-1.54l10.389-6a1.134 1.134 0 0 1 1.539.415c.309.54.126 1.227-.414 1.539l-10.389 6-.561.147zM126.832 202.247a1.125 1.125 0 0 1-.564-2.1l10.395-6a1.132 1.132 0 0 1 1.536.414 1.13 1.13 0 0 1-.411 1.539l-10.395 6-.561.147zm-20.781 12a1.13 1.13 0 0 1-.978-.561 1.128 1.128 0 0 1 .414-1.54l10.392-6c.54-.3 1.227-.122 1.536.415a1.13 1.13 0 0 1-.411 1.539l-10.392 6-.561.147zm-20.787 12c-.387 0-.765-.201-.975-.561a1.13 1.13 0 0 1 .411-1.54l10.392-6c.54-.3 1.227-.125 1.536.415.312.54.129 1.227-.411 1.539l-10.392 6-.561.147zm-20.784 12a1.127 1.127 0 0 1-.564-2.1l10.392-6a1.127 1.127 0 0 1 1.125 1.953l-10.392 6-.561.147zm-20.784 12a1.127 1.127 0 0 1-.564-2.1l10.392-6a1.127 1.127 0 0 1 1.125 1.953l-10.392 6-.561.147zm-20.784 12a1.127 1.127 0 0 1-.564-2.1l10.392-6c.54-.3 1.227-.126 1.536.414a1.13 1.13 0 0 1-.411 1.539l-10.392 6-.561.147zm-20.784 12a1.13 1.13 0 0 1-.978-.561 1.128 1.128 0 0 1 .414-1.54l10.389-6a1.134 1.134 0 0 1 1.539.415c.309.54.126 1.227-.414 1.539l-10.389 6-.561.147zM336.832 80.247a1.125 1.125 0 0 1-.564-2.1l10.395-6a1.132 1.132 0 0 1 1.536.414 1.13 1.13 0 0 1-.411 1.539l-10.395 6-.561.147zm-20.781 12a1.13 1.13 0 0 1-.978-.561 1.128 1.128 0 0 1 .414-1.54l10.392-6c.54-.3 1.227-.122 1.536.415a1.13 1.13 0 0 1-.411 1.539l-10.392 6-.561.147zm-20.787 12c-.387 0-.765-.201-.975-.561a1.13 1.13 0 0 1 .411-1.54l10.392-6c.54-.3 1.227-.125 1.536.415.312.54.129 1.227-.411 1.539l-10.392 6-.561.147zm-20.784 12a1.127 1.127 0 0 1-.564-2.1l10.392-6a1.127 1.127 0 0 1 1.125 1.953l-10.392 6-.561.147zm-20.784 12a1.127 1.127 0 0 1-.564-2.1l10.392-6a1.127 1.127 0 0 1 1.125 1.953l-10.392 6-.561.147zm-20.784 12a1.127 1.127 0 0 1-.564-2.1l10.392-6c.54-.3 1.227-.126 1.536.414a1.13 1.13 0 0 1-.411 1.539l-10.392 6-.561.147zm-20.784 12a1.13 1.13 0 0 1-.978-.561 1.128 1.128 0 0 1 .414-1.54l10.389-6a1.134 1.134 0 0 1 1.539.415c.309.54.126 1.227-.414 1.539l-10.389 6-.561.147zM482.832-4.753a1.125 1.125 0 0 1-.564-2.1l10.395-6a1.132 1.132 0 0 1 1.536.414 1.13 1.13 0 0 1-.411 1.539l-10.395 6-.561.147zm-20.781 12a1.13 1.13 0 0 1-.978-.561 1.128 1.128 0 0 1 .414-1.54l10.392-6c.54-.3 1.227-.122 1.536.415a1.13 1.13 0 0 1-.411 1.539l-10.392 6-.561.147zm-20.787 12c-.387 0-.765-.201-.975-.561a1.13 1.13 0 0 1 .411-1.54l10.392-6c.54-.3 1.227-.125 1.536.415.312.54.129 1.227-.411 1.539l-10.392 6-.561.147zm-20.784 12a1.127 1.127 0 0 1-.564-2.1l10.392-6a1.127 1.127 0 0 1 1.125 1.953l-10.392 6-.561.147zm-20.784 12a1.127 1.127 0 0 1-.564-2.1l10.392-6a1.127 1.127 0 0 1 1.125 1.953l-10.392 6-.561.147zm-20.784 12a1.127 1.127 0 0 1-.564-2.1l10.392-6c.54-.3 1.227-.126 1.536.414a1.13 1.13 0 0 1-.411 1.539l-10.392 6-.561.147zm-20.784 12a1.13 1.13 0 0 1-.978-.561 1.128 1.128 0 0 1 .414-1.54l10.389-6a1.134 1.134 0 0 1 1.539.415c.309.54.126 1.227-.414 1.539l-10.389 6-.561.147z"/>
        <path fill="#DAD6C4" d="M324.05 307.607c-.39 0-.769-.2-.976-.56a1.13 1.13 0 0 1 .411-1.54l.624-.36a1.133 1.133 0 0 1 1.54.414 1.125 1.125 0 0 1-.415 1.536l-.624.36-.56.15zm-20.785 12a1.126 1.126 0 0 1-.564-2.1l10.392-6a1.129 1.129 0 0 1 1.536.414 1.123 1.123 0 0 1-.41 1.536l-10.393 6-.56.15zm-20.784 12a1.126 1.126 0 0 1-.564-2.1l10.392-6a1.126 1.126 0 0 1 1.125 1.95l-10.392 6-.56.15zm-20.784 12a1.13 1.13 0 0 1-.978-.56 1.127 1.127 0 0 1 .414-1.54l10.39-6a1.124 1.124 0 1 1 1.125 1.95l-10.39 6-.56.15zm-20.787 12c-.387 0-.765-.2-.975-.56a1.129 1.129 0 0 1 .411-1.54l10.392-6a1.129 1.129 0 0 1 1.536.414 1.123 1.123 0 0 1-.41 1.536l-10.393 6-.56.15zm-20.784 12a1.126 1.126 0 0 1-.564-2.1l10.392-6a1.129 1.129 0 0 1 1.536.414 1.123 1.123 0 0 1-.41 1.536l-10.393 6-.56.15z"/>
        <path fill="#DAD6C4" d="M220.05 367.607c-.39 0-.769-.2-.976-.56a1.13 1.13 0 0 1 .411-1.54l.624-.36a1.133 1.133 0 0 1 1.54.414 1.125 1.125 0 0 1-.415 1.536l-.624.36-.56.15zm-20.785 12a1.126 1.126 0 0 1-.564-2.1l10.392-6a1.129 1.129 0 0 1 1.536.414 1.123 1.123 0 0 1-.41 1.536l-10.393 6-.56.15zm-20.784 12a1.126 1.126 0 0 1-.564-2.1l10.392-6a1.126 1.126 0 0 1 1.125 1.95l-10.392 6-.56.15zm-20.784 12a1.13 1.13 0 0 1-.978-.56 1.127 1.127 0 0 1 .414-1.54l10.39-6a1.124 1.124 0 1 1 1.125 1.95l-10.39 6-.56.15zm-20.787 12c-.387 0-.765-.2-.975-.56a1.129 1.129 0 0 1 .411-1.54l10.392-6a1.129 1.129 0 0 1 1.536.414 1.123 1.123 0 0 1-.41 1.536l-10.393 6-.56.15zm-20.784 12a1.126 1.126 0 0 1-.564-2.1l10.392-6a1.129 1.129 0 0 1 1.536.414 1.123 1.123 0 0 1-.41 1.536l-10.393 6-.56.15zM234.697 227.607a1.13 1.13 0 0 1-.978-.56 1.127 1.127 0 0 1 .414-1.54l10.39-6a1.124 1.124 0 1 1 1.125 1.95l-10.39 6-.56.15zm-20.787 12c-.387 0-.765-.2-.975-.56a1.129 1.129 0 0 1 .411-1.54l10.392-6a1.129 1.129 0 0 1 1.536.414 1.123 1.123 0 0 1-.41 1.536l-10.393 6-.56.15zm-20.784 12a1.126 1.126 0 0 1-.564-2.1l10.392-6a1.129 1.129 0 0 1 1.536.414 1.123 1.123 0 0 1-.41 1.536l-10.393 6-.56.15z"/>
        <path fill="#FA5932" d="M177.323 265.816c-2.649 0-5.16-.606-7.065-1.704-2.1-1.215-3.258-2.895-3.258-4.731 0-1.839 1.158-3.519 3.258-4.734 3.813-2.196 10.32-2.196 14.133 0 2.1 1.215 3.255 2.895 3.255 4.734 0 1.836-1.155 3.516-3.255 4.731-1.905 1.098-4.416 1.704-7.068 1.704z"/>
        <path fill="#FFEFDD" d="M94.815 309.86c-11.137-6.114-10.938-12.452.44-14.15 1.917-.285 4.03-.423 6.27-.423 11.057 0 25.238 3.332 34.5 8.413 11.136 6.114 10.938 12.452-.439 14.15-1.916.286-4.026.423-6.267.423-11.057-.003-25.24-3.33-34.504-8.413z"/>
        <path fill="#E09D64" d="M106.546 192.61l-2.447.65v3.34l1.66 5.462 3.048 4.329 7.32-1.282 2.505-4.329-4.321-7.088-7.765-1.082"/>
        <path fill="#FCCDA5" d="M130.299 237.766c-.717.419-3.632 1.993-3.575 3.027.354 2.311 2.84 5.565 2.84 5.565s-1.796 4.816 2.726 6.173c1.124.332 6.238-1.602 2.874-8.342-1.049-1.387-4.153-4.334-4.865-6.423"/>
        <path fill="#080808" d="M134.166 304.927c-1.709.153-7.77.974-7.77.974s.438 6.743 2.064 7.825c1.617 1.083 5.706-.59 5.706-.59s8.194.931 10.058-1.629c.25-.98-.706-2.57-1.557-3.38-.86-.814-7.873-.848-8.501-3.2"/>
        <path fill="#292929" d="M132.786 275.933c.343-2.773-3.371-24.292-9.419-39.022-1.361-1.078-12.697 12.096-12.697 12.096s7.668 21.117 11.08 28.248c.297 12.11 1.62 24.883 2.213 27.761 4.865 4.503 11.57-1.039 11.57-1.039s-3.092-25.273-2.747-28.044"/>
        <path fill="#080808" d="M86.823 292.464s-.74 4.505-.548 6.422c.194 1.918 5.192 9.97 9.908 11.223 4.714 1.252 5.224-2.192 5.233-3.331.007-2.572-5.308-6.93-5.65-10.427-1.298-.844-8.943-3.887-8.943-3.887"/>
        <path fill="#1E1D1D" d="M95.249 272.858s-4.547 3.102-5.173 5.297c-.624 2.196-4.164 13.471-4.164 14.606 2.946 7.526 10.563 3.252 10.563 3.252s5.95-15.703 8.106-17.774c2.152-2.066 4.415-14.261 7.368-26.427 6.092-2.505 11.112-14.602 11.112-14.602l.187-3.624-26.773 8.315s-2.701 21.379-1.226 30.957"/>
        <path fill="#FFF" d="M116.077 199.851s-.048 3.046-2.654 4.176c-2.602 1.133-8.44-2.087-8.44-2.087l4.612 40.672 11.294-5.701-.991-34.362-3.821-2.698"/>
        <path fill="#080808" d="M108.217 244.189l13.615-6.567 1.416-4.036-15.03 7.287v3.316"/>
        <path fill="#B01210" d="M125.164 201.364c-.342-8.077-7.909-7.28-7.909-7.28l3.734 14.503.395 23.198s2.67 7.141 3.392 9.056c4.956.392 7.514-3.15 7.514-3.15s-4.026-13.683-6.093-16.24c.69-2.856-.902-17.056-1.033-20.087"/>
        <path fill="#F02422" d="M117.16 195.662l-3.146 1.872s3.275 6.889 4.356 12.897c1.08 5.995 0 28.932 0 29.621 4.291-1.375 6.452-4.92 6.452-4.92s1.866-19.363.393-26.545c-1.476-7.191-8.056-12.925-8.056-12.925"/>
        <path fill="#B01210" d="M103.894 194.628c0 .446-.197 2.906-.197 2.906l5.946 6.493s1.178-2.016.703-3.492c-.477-1.478-4.687-2.46-6.452-5.907"/>
        <path fill="#F02422" d="M103.697 197.534s-2.92 3.233-7.948 6.722c.034-1.057-.5 13.426-.5 13.426s1.866 4.555 1.866 11.937c0 7.383-.79 11.318-.79 11.318s3.638 4.432 8.528 4.432c4.89 0 9.606-3.445 9.606-3.445s.93-22.149-.74-30.713-10.022-13.677-10.022-13.677"/>
        <path fill="#FCCDA5" d="M116.47 181.092l-4.863-1.673-4.226.394-5.06 4.187v4.427l.49 3.055c.288 1.787 2.8 2.505 2.8 2.505s3.196 5.265 9.68 5.86c.982.087 2.505-.89 2.702-1.476.196-.593.735-9.058 0-11.028.393-.984-1.524-6.251-1.524-6.251"/>
        <path fill="#292929" d="M104.584 178.39c-4.749 2.43-3.198 8.564-3.198 8.564s.64 3.782 1.425 4.528c.31.286-.785-3.302.688-3.398 1.475-.1 1.475 2.359 2.311 1.968-.199-3.153 2.259-2.362 2.506-5.61 1.767-.245 4.666-.2 5.892-.934 1.231-.74 2.261-2.416 2.261-2.416s-3.538-6.986-11.885-2.702"/>
        <path fill="#F0C6B4" d="M104.48 251.895s.32-2.025 0-2.762c-.317-.746-4.791-2.775-4.791-2.775l-4.44 1.654s2.483 4.887 5.073 6.905c2.599 2.016 5.66 2.853 7.304 2.062 1.644-.787-3.145-5.084-3.145-5.084"/>
        <path fill="#B01210" d="M91.693 208.015c-2.053 2.878-8.777 21.826-8.627 23.574.222 6.102 11.393 18.7 11.393 18.7s4.744 0 5.504-5.116c0 0-5.771-10.363-7.834-13.61 3.979-6.717 7.834-15.821 7.834-15.821s1.352-8.665-1.178-10.928c-2.531-2.265-5.404.837-7.092 3.201"/>
        <path fill="#25A4C4" d="M103.624 247.284c-6.34 1.11-7.81 6.13-7.81 6.13l4.346 7.976 8.77-4.725s-2.768-10.035-5.306-9.38"/>
        <path fill="#1F8BA6" d="M102.74 246.358s4.685 4.397 6.19 8.314c-.516-5.022-6.19-8.314-6.19-8.314M96.994 254.318c2.652 4.413 7.99 4.47 7.99 4.47s-5.781-1.46-7.99-4.47"/>
        <g transform="translate(46.796 310.212)">
            <mask id="b" fill="#fff">
                <use xlink:href="#a"/>
            </mask>
            <path fill="#FFEFDD" d="M-2.713 26.772H65.95V.634H-2.713z" mask="url(#b)"/>
        </g>
        <path fill="#FCCDA5" d="M86.184 218.226l-2.988-5.086-4.261-3.743-4.18 2.844s1.695 2.295 1.868 2.844c1.167 3.242-1.868 5.917-1.868 5.917l1.197 4.487 6.134 5.461 6.268-3.217-2.773-5.615.603-3.892"/>
        <path fill="#C2A091" d="M78.092 211.392s-.898.986-.948 1.732c.473 1.799 2.071 2.956 3.289 3.034 1.395 4.068 5.39 3.716 5.39 3.716s1.18-2.4.886-2.524c-.299-.121-8.617-5.958-8.617-5.958"/>
        <path fill="#FCCDA5" d="M118.842 231.204c-1.564.602-2.966 1.355-5.403 2.915-9.518 2.965-10.255 2.256-17.464 5.587-.753-2.473-2.213-6.312-3.465-11.177-.347-4.928-1.228-9.113-2.555-10.27-1.261-1.044-4.374-.904-4.374-.904s2.485 16.265 2.914 19.089c.487 3.473 2.84 8.674 2.84 8.674s.415 1.04 1.733 1.53c4.015.067 20.437-8.47 20.437-8.47s2.734.156 3.81-.206c1.07-.361 3.124-1.894 3.124-1.894s.514 1.439 1.571 1.215c1.053-.225 1.766-3.59.987-4.959-.779-1.38-2.444-1.343-4.155-1.13"/>
        <path fill="#361808" d="M111.59 241.15v.007c-.278-.114-.641-.08-1.027.142l-11.913 6.896c-.68.389-1.288 1.245-1.492 2.11l-2.2 9.172c-.184.783-.008 1.37.375 1.604l3.292 2.272 2.398-4.681-.329-.151 12.066-6.976c1.06-.613 1.811-2.247 1.49-3.226l-.483-1.446.823-.282.557-2.995-3.533-2.425-.023-.02"/>
        <path fill="#753413" d="M115.378 243.98c-.206-.62-.811-.784-1.49-.384l-11.917 6.887c-.68.398-1.277 1.25-1.487 2.117l-2.2 9.168c-.329 1.354.425 2.114 1.485 1.505l16.312-9.436c1.062-.615 1.816-2.242 1.496-3.226l-2.2-6.63"/>
        <path fill="#FFB700" d="M108.402 250.996l-.648.377c-.418.247-.759.828-.759 1.325v1.24c0 .485.34.684.759.44l.648-.37c.418-.246.759-.836.759-1.324v-1.242c0-.49-.34-.691-.759-.446"/>
        <path fill="#FF6E8F" d="M110.029 243.196c0 .226.187.41.415.41a.408.408 0 0 0 .414-.41v-3.677l-.83.407v3.27"/>
        <path fill="#F02422" d="M105.58 235.554l-.094.055c-2.677 1.549-4.854 5.342-4.854 8.436v4.59a.415.415 0 0 0 .83 0v-4.59c0-2.84 1.993-6.295 4.449-7.711l.093-.06c.857-.491 1.565-.784 2.232-.645l1.185-.32c-1.067-.712-2.46-.552-3.842.245"/>
        <path fill="#FFF" d="M101.594 327.365l-12.519-1.967c.044 2.242.06 4.093.92 5.093 1.154 1.34 6.823.35 6.823.35s10.102 1.899 10.365-.1c.347-2.698-2.88-2.129-5.59-3.376"/>
        <path fill="#FCCDA5" d="M101.594 327.365c-1.085-.492-4.12-2.013-5.073-3.411-4.883-13.82.347-25.795-1.793-30.536-1.171-1.821.194-9.104-.998-22.031-.297-1.625-13.7 3.772-13.7 3.772l7.326 21.952s-1.469 4.94-1.494 8.385c-.016 2.087 1.752 8.702 2.864 15.193.28 1.65.331 4.015.35 4.709 1.169 3.695 16.597 3.937 12.518 1.967"/>
        <path fill="#FFF" d="M54.882 307.874s-2.99.91-3.138 4.802c-.144 3.892.612 6.768 1.5 9.448 2.163 4.921 7.165 3.2 7.764 1.629.287-.76-.622-1.888-1.535-3.332l-4.59-12.547"/>
        <path fill="#FCCDA5" d="M65.64 291.723s-3.36 1.123-5.377 3.292c-2.019 2.174-5.38 12.859-5.38 12.859s-2.73 1.92-1.593 6.948c1.868 9.11 6.183 5.6 6.183 5.6s-1.005-2.9-1.583-4.357c-.023-.458.016-.783.13-1.272 3.96-13.715 12.937-15.584 14.195-19.327 1.26-3.748 7.992-14.147 8.816-26.198L65.64 264.44c-1.528 5.221 0 27.283 0 27.283"/>
        <path fill="#FFC900" d="M90.665 253.254c-2.088-.375-21.273 4.292-21.273 4.292s-2.588 3.254-4.349 6.894c-1.763 3.64-.397 9.919-.397 9.919s.174 3.393 8.165 4.99c7.996 1.597 20.325-6.388 20.92-7.962-.494-6.208-3.486-10.7-3.066-18.133"/>
        <path fill="#333" d="M70.829 255.819c-.574.661-1.101 1.274-1.437 1.727 13.681 8.53 21.273-4.292 21.273-4.292.01-.604 0-1.201-.018-1.796l-19.818 4.36"/>
        <path fill="#FCCDA5" d="M73.636 251.982c-.117.741-2.501 3.475-2.807 3.837 7.861 7.262 19.82-2.041 19.818-4.361-.028-.744-.117-2.483-.153-3.823l-16.858 4.347"/>
        <path fill="#292929" d="M85.812 217.98c-2.093 3.617-.375 7.728-1.654 9.005-1.987 1.972-5.37-4.043-9.403-5.983-2.238 2.915-6.105 7.143-6.105 7.143l2.17 16.302s2.215 3.792 2.816 7.535c9.261 4.413 16.858-4.347 16.858-4.347-.085-2.664-.023-6.15.772-7.478.518-.158 4.257-.899 4.257-5.615 0-4.491-8.663-9.653-8.663-16.563-1.423-1.025-.676-.629-1.048 0"/>
        <path fill="#FCCDA5" d="M89.397 202.586c-.497-.774-4.332-1.122-4.332-1.122l-6.053 2.691-2.86 7.2s2.14 4.879 4.806 4.178c.124 4.29 7.69 4.965 8.94 3.892 1.242-1.07 1.368-4.715 1.368-4.715s.872-.623.897-1.121c.023-.5-1.267-3.22-1.267-3.22s.742-4.866-1.499-7.783"/>
        <path fill="#603913" d="M71.302 199.91c-13.656 4.696-3.196 19.666-2.823 20.261 2.167-.297 4.257-8.305 6.429-8.53 2.165-.224-1.005-11.488-3.606-11.73"/>
        <path fill="#FF6E8F" d="M72.962 199.369c-1.651 0-2.99 1.448-2.99 3.23 0 1.785 1.339 3.236 2.99 3.236 1.651 0 2.99-1.451 2.99-3.236 0-1.782-1.339-3.23-2.99-3.23"/>
        <path fill="#603913" d="M72.889 201.167c-6.279 12.422 3.734 13.918 3.734 13.918s1.343-.675.896-3.743c1.717-1.348 2.09 2.02 4.707 1.723.566-.067 3.44-3.07 2.542-6.288 5.08-1.196 4.63-4.191 4.63-4.191s-7.994-10.48-16.51-1.42"/>
        <path fill="#FCCDA5" d="M71.918 226.562c-4.981-.6-6.475 10.573-6.475 10.573s-2.693 13.572-3.485 14.771c-1.695 5.99 2.288 17.362 1.889 21.753-.496 1.599-.544 6.685.102 7.186.65.499 3.584 4.391 5.178 3.99 1.594-.4.896-5.887.896-5.887s1.116-2.532.744-2.985c-.374-.46-.343-.506-2.236-3.501-1.896-2.993.596-13.074-.898-19.06 2.89-5.786 7.994-20.157 7.994-20.157s1.27-6.086-3.709-6.683"/>
        <path fill="#0C0C0C" d="M78.414 241.052c1.943 7.262 8.295 3.221 8.295 3.221s-5.53 2.618-8.295-3.221"/>
        <path fill="#FFF" d="M33.963 323.476c-1.279.67-2.814.72-3.044 2.686-.25 2.155 3.643 5.329 3.643 5.329s5.23 10.417 8.797 7.967c2.184-1.499.236-4.094-1.555-6.544l-7.84-9.438"/>
        <path fill="#DAD6C4" d="M429.05 246.607c-.39 0-.769-.2-.976-.56a1.13 1.13 0 0 1 .411-1.54l.624-.36a1.133 1.133 0 0 1 1.54.414 1.125 1.125 0 0 1-.415 1.536l-.624.36-.56.15zm-20.785 12a1.126 1.126 0 0 1-.564-2.1l10.392-6a1.129 1.129 0 0 1 1.536.414 1.123 1.123 0 0 1-.41 1.536l-10.393 6-.56.15zm-20.784 12a1.126 1.126 0 0 1-.564-2.1l10.392-6a1.126 1.126 0 0 1 1.125 1.95l-10.392 6-.56.15zm-20.784 12a1.13 1.13 0 0 1-.978-.56 1.127 1.127 0 0 1 .414-1.54l10.39-6a1.124 1.124 0 1 1 1.125 1.95l-10.39 6-.56.15zm-20.787 12c-.387 0-.765-.2-.975-.56a1.129 1.129 0 0 1 .411-1.54l10.392-6a1.129 1.129 0 0 1 1.536.414 1.123 1.123 0 0 1-.41 1.536l-10.393 6-.56.15zm-20.784 12a1.126 1.126 0 0 1-.564-2.1l10.392-6a1.129 1.129 0 0 1 1.536.414 1.123 1.123 0 0 1-.41 1.536l-10.393 6-.56.15zM11.589 282.698l-.561-.147-10.392-6a1.13 1.13 0 0 1-.411-1.54 1.132 1.132 0 0 1 1.536-.413l10.392 6a1.127 1.127 0 0 1-.564 2.1zm20.784 12l-.561-.147-10.389-6a1.128 1.128 0 0 1-.414-1.54 1.136 1.136 0 0 1 1.539-.413l10.389 6c.54.312.723.999.414 1.539a1.13 1.13 0 0 1-.978.56zm103.926 60l-.561-.147-10.392-6a1.124 1.124 0 0 1-.411-1.54 1.134 1.134 0 0 1 1.536-.413l10.392 6a1.125 1.125 0 1 1-.564 2.1zm20.784 12l-.561-.147-10.392-6a1.127 1.127 0 0 1 1.125-1.953l10.392 6a1.127 1.127 0 0 1-.564 2.1zm20.784 12l-.561-.147-10.392-6a1.128 1.128 0 0 1-.414-1.54 1.135 1.135 0 0 1 1.539-.413l10.392 6a1.127 1.127 0 0 1-.564 2.1zm10.68 6.168l-.561-.153-.291-.165a1.123 1.123 0 0 1-.408-1.536 1.123 1.123 0 0 1 1.536-.411l.291.168a1.125 1.125 0 1 1-.567 2.097z"/>
    </g>
</svg>
