<svg xmlns="http://www.w3.org/2000/svg" width="484" height="198" viewBox="0 0 484 198">
    <g fill="none" fill-rule="evenodd">
        <path fill="#DAD6C4" d="M165.383 180a.936.936 0 0 1-.814-.479.961.961 0 0 1 .345-1.303l8.675-5.09a.936.936 0 0 1 1.285.348.963.963 0 0 1-.346 1.306l-8.675 5.09-.47.128zm-16.424 9.333a.937.937 0 0 1-.814-.478.963.963 0 0 1 .345-1.303l8.678-5.09a.935.935 0 0 1 1.282.348.965.965 0 0 1-.343 1.306l-8.677 5.09-.471.127zm-17.594 9.334a.943.943 0 0 1-.817-.479.963.963 0 0 1 .346-1.303l8.677-5.09a.936.936 0 0 1 1.285.348.966.966 0 0 1-.346 1.306l-8.677 5.09-.468.128zM114.94 208a.937.937 0 0 1-.815-.478.962.962 0 0 1 .344-1.304l8.677-5.09a.938.938 0 0 1 1.285.349.965.965 0 0 1-.345 1.305l-8.678 5.09-.468.128zM235.383 140a.936.936 0 0 1-.814-.479.961.961 0 0 1 .345-1.303l8.675-5.09a.936.936 0 0 1 1.285.348.963.963 0 0 1-.346 1.306l-8.675 5.09-.47.128zm-16.424 9.333a.937.937 0 0 1-.814-.478.963.963 0 0 1 .345-1.303l8.678-5.09a.935.935 0 0 1 1.282.348.965.965 0 0 1-.343 1.306l-8.677 5.09-.471.127zm-17.594 9.334a.943.943 0 0 1-.817-.479.963.963 0 0 1 .346-1.303l8.677-5.09a.936.936 0 0 1 1.285.348.966.966 0 0 1-.346 1.306l-8.677 5.09-.468.128zM184.94 168a.937.937 0 0 1-.815-.478.962.962 0 0 1 .344-1.304l8.677-5.09a.938.938 0 0 1 1.285.349.965.965 0 0 1-.345 1.305l-8.678 5.09-.468.128zM166.383 104a.936.936 0 0 1-.814-.479.961.961 0 0 1 .345-1.303l8.675-5.09a.936.936 0 0 1 1.285.348.963.963 0 0 1-.346 1.306l-8.675 5.09-.47.128zm-16.424 9.333a.937.937 0 0 1-.814-.478.963.963 0 0 1 .345-1.303l8.678-5.09a.935.935 0 0 1 1.282.348.965.965 0 0 1-.343 1.306l-8.677 5.09-.471.127zm-17.594 9.334a.943.943 0 0 1-.817-.479.963.963 0 0 1 .346-1.303l8.677-5.09a.936.936 0 0 1 1.285.348.966.966 0 0 1-.346 1.306l-8.677 5.09-.468.128zM115.94 132a.937.937 0 0 1-.815-.478.962.962 0 0 1 .344-1.304l8.677-5.09a.938.938 0 0 1 1.285.349.965.965 0 0 1-.345 1.305l-8.678 5.09-.468.128zM96.383 143a.936.936 0 0 1-.814-.479.961.961 0 0 1 .345-1.303l8.675-5.09a.936.936 0 0 1 1.285.348.963.963 0 0 1-.346 1.306l-8.675 5.09-.47.128zm-16.424 9.333a.937.937 0 0 1-.814-.478.963.963 0 0 1 .345-1.303l8.678-5.09a.935.935 0 0 1 1.282.348.965.965 0 0 1-.343 1.306l-8.677 5.09-.471.127zm-17.594 9.334a.943.943 0 0 1-.817-.479.963.963 0 0 1 .346-1.303l8.677-5.09a.936.936 0 0 1 1.285.348.966.966 0 0 1-.346 1.306l-8.677 5.09-.468.128zM45.94 171a.937.937 0 0 1-.815-.478.962.962 0 0 1 .344-1.304l8.677-5.09a.938.938 0 0 1 1.285.349.965.965 0 0 1-.345 1.305l-8.678 5.09-.468.128z"/>
        <path fill="#000" fill-opacity=".147" d="M190.667 101.05l-.474-.128-8.719-5.127a.971.971 0 0 1-.347-1.315.939.939 0 0 1 1.292-.351l8.718 5.127c.454.266.61.853.348 1.312a.941.941 0 0 1-.818.482zm16.508 9.4l-.473-.128-8.722-5.127a.973.973 0 0 1-.345-1.315.936.936 0 0 1 1.289-.351l8.722 5.127a.97.97 0 0 1 .347 1.312.941.941 0 0 1-.818.482zm17.684 10.575l-.47-.128-8.722-5.128a.97.97 0 0 1-.347-1.312.936.936 0 0 1 1.291-.351l8.722 5.127a.97.97 0 0 1 .347 1.313.95.95 0 0 1-.82.479zm17.688 9.4l-.47-.128-8.723-5.129a.97.97 0 0 1-.347-1.313.94.94 0 0 1 1.291-.351l8.722 5.129a.97.97 0 0 1 .345 1.312.944.944 0 0 1-.818.48zM259.055 141l-.473-.128-8.72-5.128a.969.969 0 0 1-.347-1.313.937.937 0 0 1 1.291-.352l8.72 5.129c.453.264.609.854.347 1.313a.944.944 0 0 1-.818.479zM276.86 152.025l-.471-.128-8.722-5.128a.97.97 0 0 1-.347-1.312.936.936 0 0 1 1.291-.351l8.722 5.127a.97.97 0 0 1 .347 1.313.95.95 0 0 1-.82.479zm17.687 9.4l-.47-.128-8.723-5.129a.97.97 0 0 1-.347-1.313.94.94 0 0 1 1.291-.351l8.722 5.129a.97.97 0 0 1 .345 1.312.944.944 0 0 1-.818.48zM9.667 152.05l-.474-.128-8.719-5.127a.971.971 0 0 1-.347-1.315.939.939 0 0 1 1.292-.351l8.718 5.127c.454.266.61.853.348 1.312a.941.941 0 0 1-.818.482zm16.508 9.4l-.473-.128-8.722-5.127a.973.973 0 0 1-.345-1.315.936.936 0 0 1 1.289-.351l8.722 5.127a.97.97 0 0 1 .347 1.312.941.941 0 0 1-.818.482zm17.684 10.575l-.47-.128-8.722-5.128a.97.97 0 0 1-.347-1.312.936.936 0 0 1 1.291-.351l8.722 5.127a.97.97 0 0 1 .347 1.313.95.95 0 0 1-.82.479zm17.688 9.4l-.47-.128-8.723-5.129a.97.97 0 0 1-.347-1.313.94.94 0 0 1 1.291-.351l8.722 5.129a.97.97 0 0 1 .345 1.312.944.944 0 0 1-.818.48zM78.055 192l-.473-.128-8.72-5.128a.969.969 0 0 1-.347-1.313.937.937 0 0 1 1.291-.352l8.72 5.129c.453.264.609.854.347 1.313a.944.944 0 0 1-.818.479z"/>
        <path fill="#FFC900" d="M308.323 177.815c-2.649 0-5.16-.606-7.065-1.704-2.1-1.212-3.258-2.895-3.258-4.73 0-1.84 1.158-3.52 3.258-4.732 3.81-2.199 10.32-2.199 14.133 0 2.1 1.212 3.255 2.892 3.255 4.731 0 1.836-1.155 3.52-3.255 4.731-1.905 1.098-4.416 1.704-7.068 1.704z"/>
        <path fill="#E2BC91" d="M371.925 84.476v83.914l82.274-47.617V36.858l-82.274 47.617"/>
        <path fill="#FFEFDD" d="M283.313 61.271l27.432-.142v72.611l-27.432-16.196V61.27"/>
        <path fill="#F8D9B5" d="M300.297 107.786l-5.813-3.367v-2.595l5.813 3.375v2.587M303.653 105.795l-5.81-3.375v-2.58l5.81 3.367v2.588M294.484 92.816l-5.82-3.367V86.86l5.82 3.368v2.587M294.484 78.81l-5.82-3.375v-2.588l5.82 3.376v2.587M306.563 100.414l-5.817-3.371v-2.58l5.817 3.36v2.59M303.204 122.914l-5.813-3.375v-2.58l5.813 3.364v2.59M309.926 116.441l-5.82-3.367v-2.588l5.82 3.368v2.587M293.777 114.949l-5.82-3.368v-2.587l5.82 3.371v2.584M290.867 116.441l-5.817-3.367v-2.588l5.817 3.368v2.587M305.598 68.636l-5.817-3.367V62.68l5.817 3.368v2.587M307.506 73.545l-5.825-3.368v-2.59l5.825 3.367v2.591M300.746 69.435l-5.817-3.356v-2.591l5.817 3.363v2.584"/>
        <path fill="#C84525" d="M365.293 11.516l29.054-.146v2.126L312.062 61.13 283 59.145l82.293-47.629"/>
        <path fill="#A62F12" d="M283 59.145l29.062-.146v2.13L283 61.275v-2.13"/>
        <path fill="#E2BC91" d="M300.746 79.665c0 3.097 2.177 6.877 4.852 8.426 2.678 1.556 4.848.297 4.848-2.805 0-3.105-2.17-6.874-4.848-8.43-2.675-1.545-4.852-.288-4.852 2.809"/>
        <path fill="#3C2415" d="M304.592 80.246c0 1.564 1.08 3.45 2.427 4.215 1.332.78 2.42.154 2.42-1.395 0-1.564-1.088-3.442-2.42-4.215-1.346-.78-2.427-.15-2.427 1.395"/>
        <path fill="#BC3919" d="M446.444 30.165L424.265 3.45 402.08 4.485 394.329 0l-82.267 47.614 7.747 5.602 22.186-1.504 22.295 27.623 7.635 5.141 82.274-47.617v-2.217l-7.755-4.477"/>
        <path fill="#D25334" d="M446.444 30.165L424.265 3.45l-82.27 47.621 22.295 28.264 7.635 5.141 82.274-47.617v-2.217l-7.755-4.477"/>
        <path fill="#A62F12" d="M364.17 77.779L341.995 51.07l-22.186 1.035-7.747-4.492v2.216l7.747 4.485 22.186-1.031 22.175 26.711 7.755 4.481v-2.209l-7.755-4.488"/>
        <path fill="#FFEFDD" d="M364.17 79.995l-22.175-26.711-22.186 1.031-7.747-4.485v83.91l59.863 34.65V84.476l-7.755-4.481M399.913 128.325l-27.988-32.554v72.619l27.988 16.204v-56.269"/>
        <path fill="#F9DEBF" d="M380.293 113.119l-5.824-3.371v-2.592l5.824 3.375v2.588M382.234 117.75l-5.816-3.368v-2.587l5.816 3.367v2.588M398.121 133.08l-5.813-3.36v-2.588l5.813 3.36v2.588"/>
        <path fill="#ECC9A1" d="M395.656 128.227l-5.813-3.37v-2.58l5.813 3.363v2.587M391.332 129.079l-5.817-3.364v-2.591l5.817 3.364v2.59M379.324 138.386l-5.817-3.356v-2.584l5.817 3.357v2.583M381.875 143.156l-5.817-3.364v-2.587l5.817 3.367v2.584M396.068 140.595l-5.817-3.356v-2.595l5.817 3.367v2.584M393.157 142.211l-5.817-3.367v-2.591l5.817 3.37v2.588M394.235 158.183l-5.813-3.368v-2.588l5.813 3.364v2.591M396.696 162.956l-5.813-3.367V157l5.813 3.364v2.591M380.293 159.975l-5.824-3.36v-2.595l5.824 3.367v2.588M383.192 158.183l-5.813-3.368v-2.588l5.813 3.364v2.591M383.192 164.996l-5.813-3.364v-2.598l5.813 3.375v2.587M394.75 177.18l-5.808-3.364v-2.587l5.809 3.367v2.584M392.753 173.002l-5.82-3.36v-2.59l5.82 3.363v2.588M380.293 170.955l-5.824-3.375v-2.584l5.824 3.371v2.588M391.32 150.735l-5.809-3.371v-2.584l5.81 3.371v2.584M394.235 149.115l-5.813-3.371v-2.588l5.813 3.375v2.584"/>
        <path fill="#F8D9B5" d="M482.187 80.696l-82.274 46.74v57.158l82.274-47.618v-56.28"/>
        <path fill="#D25334" d="M483.272 79.804l-29.058-33.776-82.29 47.625 29.063 35.902 82.285-47.625v-2.126"/>
        <path fill="#A62F12" d="M400.987 127.436l-29.062-33.784v2.12l29.062 33.783v-2.119"/>
        <path fill="#CF7C00" d="M358.982 110.936v1.793l-34.093-19.736V73.12c0-5.895 2.24-9.903 5.783-11.46-2.637 1.95-4.238 5.58-4.238 10.572V92.1l32.548 18.836"/>
        <path fill="#F8D9B5" d="M358.982 92.865v18.071L326.434 92.1V72.233c0-4.992 1.6-8.622 4.238-10.572 3.008-1.327 6.95-.9 11.263 1.602 9.412 5.44 17.047 18.7 17.047 29.602"/>
        <path fill="#E2BC91" d="M324.889 92.993V73.129c0-10.898 7.635-15.319 17.046-9.867 9.412 5.442 17.047 18.702 17.047 29.603v19.864l1.287.739V93.603c0-11.7-8.226-25.98-18.334-31.83-10.103-5.846-18.33-1.092-18.33 10.612v19.86l1.284.747M358.982 155.209v5.7l-34.093-19.74V116.02c0-6.9 3.071-11.216 7.713-12.041-1.765 2.085-2.783 5.201-2.783 9.195v25.147l29.163 16.887"/>
        <path fill="#F8D9B5" d="M358.982 135.75v19.459l-29.163-16.887v-25.147c0-3.994 1.018-7.11 2.783-9.195 2.686-.495 5.892.184 9.333 2.179 9.412 5.445 17.047 18.697 17.047 29.591"/>
        <path fill="#754C29" d="M347.03 113.374c-5.645-3.266-10.208-.619-10.208 5.91v23.088l20.424 11.82v-23.08c0-6.537-4.578-14.476-10.216-17.738"/>
        <path fill="#E2BC91" d="M360.269 114.769L323.606 93.55v-1.305l36.663 21.222v1.3M383.237 127.418c0 3.1-2.17 4.353-4.852 2.808-2.678-1.552-4.848-5.321-4.848-8.426 0-3.105 2.17-4.361 4.848-2.813 2.682 1.56 4.852 5.33 4.852 8.43"/>
        <path fill="#3C2415" d="M382.234 125.19c0 1.553-1.088 2.171-2.431 1.403-1.34-.777-2.424-2.66-2.424-4.212 0-1.549 1.085-2.178 2.424-1.402 1.343.772 2.431 2.666 2.431 4.211"/>
        <path fill="#FFF" d="M358.29 91.234c0 9.866-6.906 13.864-15.42 8.932-8.52-4.927-15.426-16.923-15.426-26.782 0-9.863 6.905-13.868 15.427-8.925 8.513 4.923 15.419 16.916 15.419 26.775"/>
        <path fill="#F5B400" d="M356.367 90.124c0 8.632-6.045 12.124-13.496 7.811-7.46-4.316-13.5-14.809-13.5-23.438 0-8.628 6.04-12.127 13.5-7.814 7.451 4.316 13.496 14.812 13.496 23.44"/>
        <path fill="#FFC900" d="M347.524 85.001c0 2.951-2.061 4.136-4.601 2.666-2.54-1.477-4.601-5.047-4.601-7.987 0-2.948 2.061-4.14 4.6-2.674 2.54 1.481 4.602 5.055 4.602 7.995"/>
        <path fill="#3C2415" d="M344.737 83.389c0 1.162-.815 1.631-1.814 1.053-1.003-.584-1.818-1.987-1.818-3.153s.815-1.632 1.818-1.05c.999.581 1.814 1.991 1.814 3.15"/>
        <path fill="#FFEFDD" d="M343.215 69.203c-.165.63-.423.48-.588-.342l-.116-.633c-.157-.814-.632-1.688-1.043-1.92-.415-.248-.629.228-.464 1.05l1.623 8.4c.165.825.423.97.588.34l1.623-6.517c.165-.633-.041-1.353-.46-1.594-.411-.236-.883.087-1.044.717l-.12.499M342.627 95.34c.165-.641.423-.495.588.326l.12.638c.16.825.632 1.683 1.043 1.927.419.244.625-.236.46-1.053l-1.623-8.408c-.165-.814-.423-.964-.588-.33l-1.623 6.506c-.165.638.049 1.358.464 1.598.411.24.886-.083 1.043-.724l.116-.48M354.306 89.269c-.625-.555-.625-.855 0-.668l.486.128c.632.183 1.149-.064 1.149-.544 0-.476-.517-1.02-1.149-1.2l-6.438-1.841c-.632-.177-.632.127 0 .671l6.438 5.621c.632.551 1.149.604 1.149.124s-.517-1.32-1.149-1.871l-.486-.42M350.966 96.356c-.337-.84-.146-.941.4-.243l.437.55c.558.702 1.25 1.145 1.542.972.303-.172.082-.881-.472-1.59l-5.712-7.241c-.56-.713-.744-.6-.411.232l3.4 8.576c.333.844.842 1.388 1.141 1.227.295-.177.262-1.001-.071-1.849l-.254-.634M335.314 68.171c.34.836.154.945-.404.233l-.43-.544c-.561-.705-1.253-1.147-1.545-.979-.3.173-.086.889.475 1.598l5.712 7.249c.55.697.741.596.408-.24l-3.4-8.584c-.337-.84-.842-1.384-1.141-1.212-.292.177-.255.994.075 1.83l.25.65M334.66 86.614c.557-.068.744.255.407.709l-.254.348c-.325.458-.363 1.241-.067 1.748.288.517.8.559 1.137.105l3.404-4.635c.33-.454.138-.78-.415-.713l-5.712.63c-.554.064-.771.533-.475 1.043.291.502.987.866 1.544.81l.43-.045M351.186 78.071c-.557.056-.737-.258-.411-.712l.258-.356c.329-.45.366-1.234.067-1.744-.292-.51-.8-.559-1.14-.105l-3.397 4.642c-.33.45-.146.776.407.709l5.716-.63c.554-.067.77-.529.48-1.028-.293-.52-.996-.892-1.55-.825l-.43.05M331.461 75.349c.629.543.629.847 0 .671l-.49-.142c-.624-.177-1.14.07-1.14.547 0 .484.516 1.02 1.14 1.2l6.45 1.845c.628.176.628-.131 0-.675l-6.45-5.621c-.624-.544-1.14-.604-1.14-.113 0 .469.516 1.313 1.14 1.856l.49.432M353.37 93.615c-.523-.746-.43-.971.214-.495l.498.356c.643.473 1.294.567 1.451.225.157-.36-.243-1.038-.89-1.518l-6.58-4.842c-.644-.476-.748-.251-.221.495l5.368 7.647c.52.75 1.077 1.06 1.242.708.146-.352-.15-1.256-.677-2.006l-.404-.57M332.374 70.942c.524.743.423.972-.213.5l-.501-.368c-.644-.477-1.295-.57-1.448-.218-.157.357.247 1.039.879 1.515l6.587 4.845c.648.477.745.248.225-.498l-5.368-7.65c-.524-.743-1.081-1.066-1.238-.698-.154.349.146 1.252.673 1.999l.404.573M338.288 91.699c.385-.39.625-.132.535.558l-.064.537c-.086.697.154 1.594.54 1.995.384.401.77.157.856-.529l.898-7.114c.086-.694-.158-.945-.54-.555l-3.923 3.938a1.036 1.036 0 0 0 .007 1.432.977.977 0 0 0 1.4.034l.291-.296M332.303 81.27c.647.248.744.589.228.746l-.393.116c-.523.158-.808.728-.65 1.264.172.533.721.848 1.238.69l5.29-1.601c.515-.154.418-.484-.225-.742l-6.57-2.618c-.639-.263-1.032-.026-.87.514.16.525.819 1.177 1.462 1.428l.49.203M353.483 83.88c-.636-.251-.74-.593-.224-.746l.4-.12c.512-.154.797-.724.647-1.257a1.016 1.016 0 0 0-1.242-.697l-5.29 1.597c-.52.158-.415.5.225.747l6.573 2.621c.643.262 1.032.034.871-.506-.164-.533-.823-1.185-1.466-1.437l-.494-.202M338.647 67.549c.101.802-.142.776-.527-.042l-.314-.648c-.386-.814-1.018-1.515-1.403-1.553-.385-.034-.374.615.019 1.433l4.02 8.463c.397.822.637.844.536.05l-1.018-8.198c-.1-.799-.49-1.481-.875-1.515-.374-.03-.617.596-.516 1.395l.078.615M346.978 96.885c-.101-.803.142-.78.531.045l.303.645c.397.821 1.029 1.519 1.414 1.556.385.026.37-.618-.022-1.444l-4.025-8.452c-.393-.832-.636-.847-.532-.052l1.014 8.193c.109.806.498 1.489.883 1.519.378.034.606-.593.509-1.391l-.075-.619M347.39 72.694c-.393.386-.625.135-.54-.57l.068-.533c.079-.69-.16-1.586-.546-1.991-.385-.401-.77-.165-.857.532l-.898 7.1c-.086.704.161.948.54.57l3.923-3.946a1.027 1.027 0 0 0 0-1.428.981.981 0 0 0-1.403-.034l-.288.3M367.829 170.76l-7.762-4.496v-64.515l7.762 4.5v64.511"/>
        <path fill="#E2BC91" d="M367.829 170.76v-64.511l4.096-2.374v64.515l-4.096 2.37"/>
        <path fill="#BCBEC0" d="M367.829 106.249l-7.762-4.5 4.096-2.359 7.762 4.485-4.096 2.374"/>
        <path fill="#FFF" d="M367.829 106.249l-7.762-4.5V82.354l7.762 4.481v19.414"/>
        <path fill="#C2C8D2" d="M367.829 106.249V86.835l4.096-2.359v19.399l-4.096 2.374"/>
        <path fill="#A6AAAE" d="M367.829 86.846l-7.762-4.492 4.096-2.37 7.762 4.492-4.096 2.37"/>
        <path fill="#FFEFDD" d="M315.724 140.595l-7.755-4.489V71.595l7.755 4.489v64.511"/>
        <path fill="#E2BC91" d="M315.724 140.595V76.084l4.089-2.359v64.511l-4.089 2.359"/>
        <path fill="#BCBEC0" d="M315.724 76.084l-7.755-4.489 4.093-2.37 7.75 4.5-4.088 2.359"/>
        <path fill="#FFF" d="M315.724 76.084l-7.755-4.489V52.193l7.755 4.492v19.399"/>
        <path fill="#C2C8D2" d="M315.724 76.084V56.685l4.089-2.355v19.395l-4.089 2.359"/>
        <path fill="#A6AAAE" d="M315.724 56.689l-7.755-4.496 4.093-2.363 7.75 4.5-4.088 2.359"/>
        <path fill="#FFF" d="M314.108 55.358l-2.88-1.662.912-18.84 2.877 1.669-.909 18.833"/>
        <path fill="#C2C8D2" d="M314.108 55.358l.909-18.833 1.541-.892v18.314l-2.45 1.41"/>
        <path fill="#BCBEC0" d="M315.017 36.525l-2.877-1.669 1.534-.892 2.884 1.669-1.541.892"/>
        <path fill="#FFF" d="M365.835 85.294l-2.877-1.662.913-18.84 2.88 1.673-.916 18.829"/>
        <path fill="#C2C8D2" d="M365.835 85.294l.916-18.829 1.542-.885v18.3l-2.458 1.414"/>
        <path fill="#BCBEC0" d="M366.751 66.465l-2.88-1.672 1.541-.89 2.88 1.677-1.54.885"/>
        <path fill="#3C2415" d="M347.36 113.569l-.663-.386v34.897l.662.386V113.57"/>
        <path fill="#FFEFDD" d="M401.72 133.08l5.82-3.36v-2.588l-5.82 3.36v2.588M405.434 134.644l5.817-3.357v-2.59l-5.817 3.36v2.587M420.23 146.936l5.812-3.364v-2.59l-5.813 3.36v2.594M418.437 151.44l5.825-3.36v-2.591l-5.825 3.363v2.588M416.57 145.192l5.817-3.37v-2.584l-5.816 3.363v2.591M436.456 120.056l5.828-3.367V114.1l-5.828 3.36v2.595M439.947 121.755l5.816-3.364v-2.587l-5.816 3.36v2.591M438.585 126.094l5.813-3.353v-2.595l-5.813 3.364v2.584M435.678 139.815l5.81-3.364v-2.591l-5.81 3.367v2.588M431.683 151.44l5.813-3.36v-2.591l-5.813 3.363v2.588M429.861 155.79l5.817-3.367v-2.6l-5.817 3.376v2.591M424.262 132.056l5.805-3.36v-2.602l-5.805 3.375v2.587M456.948 136.838l5.817-3.368v-2.588l-5.817 3.36v2.596M465.87 106.485l5.817-3.364v-2.591l-5.817 3.371v2.584M471.687 139.039l5.817-3.368v-2.591l-5.817 3.371v2.588M468.776 137.205l5.817-3.364v-2.595l-5.817 3.371v2.588M409.658 173.933l5.817-3.372v-2.587l-5.817 3.375v2.584M403.201 169.425l5.813-3.36v-2.591l-5.813 3.364v2.587M412.564 168.911l5.817-3.363v-2.592l-5.817 3.36v2.595M407.54 157.001l5.821-3.364v-2.59l-5.82 3.363v2.591M456.353 127.579l5.814-3.36v-2.595l-5.814 3.367v2.588M454.042 142.012l5.809-3.367v-2.588l-5.81 3.368v2.587M451.932 146.936l5.813-3.364v-2.59l-5.813 3.36v2.594M471.687 119.426l5.817-3.367v-2.591l-5.817 3.356v2.602M470.291 109.222l5.817-3.367v-2.588l-5.817 3.368v2.587M451.932 108.765l5.813-3.36v-2.588l-5.813 3.36v2.588M453.35 119.464l5.816-3.364v-2.595l-5.816 3.371v2.588M471.687 96.836l5.817-3.364v-2.587l-5.817 3.364v2.587M441.05 151.44l5.817-3.36v-2.591l-5.817 3.363v2.588"/>
        <path fill="#FFF" d="M351.673 52.29l-3.947-4.538-3.804.045v-7.74l7.75 4.493v7.74"/>
        <path fill="#C2C8D2" d="M351.673 52.29v-7.74l4.096-2.374v7.748l-4.096 2.366"/>
        <path fill="#A6AAAE" d="M351.673 44.55l-7.751-4.492 4.096-2.367 7.75 4.485-4.095 2.374"/>
        <path fill="#C2C8D2" d="M351.897 22.245v-7.74l-2.39-1.384-1.586.915 1.586 6.81-6.02-3.48-1.585.923 7.605 5.336.804 18.956 1.586-.922v-16.65l3.146 1.822 1.17 2.513 1.587-.927v-2.763l-5.903-3.409"/>
        <path fill="#FFF" d="M350.31 23.156v-7.725l-2.39-1.395v7.74l-6.018-3.487v2.767l6.019 3.488V41.19l2.39 1.391V25.927l5.903 3.417v-2.775l-5.903-3.413"/>
    </g>
</svg>
