<svg xmlns="http://www.w3.org/2000/svg" xmlns:xlink="http://www.w3.org/1999/xlink" width="40" height="40" viewBox="0 0 40 40">
    <defs>
        <path id="a" d="M0 20C0 8.954 8.954 0 20 0s20 8.954 20 20-8.954 20-20 20S0 31.046 0 20z"/>
    </defs>
    <g fill="none" fill-rule="evenodd">
        <use fill="#F02422" xlink:href="#a"/>
        <path fill="#FFF" fill-rule="nonzero" d="M9 19.97s0 3.57.453 5.291a2.756 2.756 0 0 0 1.94 1.94c1.72.453 8.607.453 8.607.453s6.868 0 8.608-.472a2.757 2.757 0 0 0 1.939-1.939C31 23.54 31 19.952 31 19.952s0-3.57-.453-5.292a2.812 2.812 0 0 0-1.94-1.957C26.888 12.25 20 12.25 20 12.25s-6.886 0-8.608.471a2.757 2.757 0 0 0-1.939 1.94C8.982 16.38 9 19.97 9 19.97zm9.24 3.503V16.43l5.28 3.52-5.28 3.522z"/>
    </g>
</svg>
