<svg xmlns="http://www.w3.org/2000/svg" width="303" height="182" viewBox="0 0 303 182">
    <g fill="none" fill-rule="evenodd">
        <path fill="#DAD6C4" d="M147.383 124a.936.936 0 0 1-.814-.479.961.961 0 0 1 .345-1.303l8.675-5.09a.936.936 0 0 1 1.285.348.963.963 0 0 1-.346 1.306l-8.675 5.09-.47.128zm-16.424 9.333a.937.937 0 0 1-.814-.478.963.963 0 0 1 .345-1.303l8.678-5.09a.935.935 0 0 1 1.282.348.965.965 0 0 1-.343 1.306l-8.677 5.09-.471.127zm-17.594 9.334a.943.943 0 0 1-.817-.479.963.963 0 0 1 .346-1.303l8.677-5.09a.936.936 0 0 1 1.285.348.966.966 0 0 1-.346 1.306l-8.677 5.09-.468.128zM96.94 152a.937.937 0 0 1-.815-.478.962.962 0 0 1 .344-1.304l8.677-5.09a.938.938 0 0 1 1.285.349.965.965 0 0 1-.345 1.305l-8.678 5.09-.468.128zM87.383 84a.936.936 0 0 1-.814-.479.961.961 0 0 1 .345-1.303l8.675-5.09a.936.936 0 0 1 1.285.348.963.963 0 0 1-.346 1.306l-8.675 5.09-.47.128zm-16.424 9.333a.937.937 0 0 1-.814-.478.963.963 0 0 1 .345-1.303l8.678-5.09a.935.935 0 0 1 1.282.348.965.965 0 0 1-.343 1.306l-8.677 5.09-.471.127zm-17.594 9.334a.943.943 0 0 1-.817-.479.963.963 0 0 1 .346-1.303l8.677-5.09a.936.936 0 0 1 1.285.348.966.966 0 0 1-.346 1.306l-8.677 5.09-.468.128zM36.94 112a.937.937 0 0 1-.815-.478.962.962 0 0 1 .344-1.304l8.677-5.09a.938.938 0 0 1 1.285.349.965.965 0 0 1-.345 1.305l-8.678 5.09-.468.128zM78.383 163a.936.936 0 0 1-.814-.479.961.961 0 0 1 .345-1.303l8.675-5.09a.936.936 0 0 1 1.285.348.963.963 0 0 1-.346 1.306l-8.675 5.09-.47.128zm-16.424 9.333a.937.937 0 0 1-.814-.478.963.963 0 0 1 .345-1.303l8.678-5.09a.935.935 0 0 1 1.282.348.965.965 0 0 1-.343 1.306l-8.677 5.09-.471.127zm-17.594 9.334a.943.943 0 0 1-.817-.479.963.963 0 0 1 .346-1.303l8.677-5.09a.936.936 0 0 1 1.285.348.966.966 0 0 1-.346 1.306l-8.677 5.09-.468.128zM27.94 191a.937.937 0 0 1-.815-.478.962.962 0 0 1 .344-1.304l8.677-5.09a.938.938 0 0 1 1.285.349.965.965 0 0 1-.345 1.305l-8.678 5.09-.468.128z"/>
        <path fill="#000" fill-opacity=".147" d="M29.667 108.05l-.474-.128-8.719-5.127a.971.971 0 0 1-.347-1.315.939.939 0 0 1 1.292-.351l8.718 5.127c.454.266.61.853.348 1.312a.941.941 0 0 1-.818.482zm16.508 9.4l-.473-.128-8.722-5.127a.973.973 0 0 1-.345-1.315.936.936 0 0 1 1.289-.351l8.722 5.127a.97.97 0 0 1 .347 1.312.941.941 0 0 1-.818.482zm17.684 10.575l-.47-.128-8.722-5.128a.97.97 0 0 1-.347-1.312.936.936 0 0 1 1.291-.351l8.722 5.127a.97.97 0 0 1 .347 1.313.95.95 0 0 1-.82.479zm17.688 9.4l-.47-.128-8.723-5.129a.97.97 0 0 1-.347-1.313.94.94 0 0 1 1.291-.351l8.722 5.129a.97.97 0 0 1 .345 1.312.944.944 0 0 1-.818.48zM98.055 148l-.473-.128-8.72-5.128a.969.969 0 0 1-.347-1.313.937.937 0 0 1 1.291-.352l8.72 5.129c.453.264.609.854.347 1.313a.944.944 0 0 1-.818.479z"/>
        <path fill="#E2BC91" d="M195 107l55-32.167V27l-55 32.15V107"/>
        <path fill="#FF9800" d="M195 107l-11-5.786V53l11 5.782V107"/>
        <path fill="#F5B400" d="M193.994 59L250 26.764 240.006 21 184 53.246 193.994 59"/>
        <path fill="#C39D73" d="M196 59l55-31.775V25l-55 31.778V59"/>
        <path fill="#FF9800" d="M196 61l-13-8.525V50l13 8.521V61"/>
        <path fill="#C39D73" d="M196.364 58L252 25.751 238.633 18 183 50.249 196.364 58"/>
        <path fill="#FFEFDD" d="M245.38 29l-2.76-1.335V20l2.76 1.339V29"/>
        <path fill="#E2BC91" d="M245 29l4-2.83V18l-4 2.83V29"/>
        <path fill="#F8D9B5" d="M245.356 21L250 18.343 247.65 17 243 19.66l2.356 1.34"/>
        <path fill="#FFEFDD" d="M237.376 33l-2.752-1.35V24l2.752 1.33V33"/>
        <path fill="#E2BC91" d="M238 33l4-2.834V22l-4 2.82V33"/>
        <path fill="#F8D9B5" d="M237.35 26l4.65-2.657L239.646 22 235 24.663 237.35 26"/>
        <path fill="#FFEFDD" d="M229.374 38l-2.748-1.348V29l2.748 1.341V38"/>
        <path fill="#E2BC91" d="M230 38l4-2.834V27l-4 2.834V38"/>
        <path fill="#F8D9B5" d="M230.348 30L235 27.334 232.648 26 228 28.655 230.348 30"/>
        <path fill="#FFEFDD" d="M222.376 42l-2.752-1.342V33l2.752 1.338V42"/>
        <path fill="#E2BC91" d="M222 42l4-2.836V31l-4 2.83V42"/>
        <path fill="#F8D9B5" d="M222.35 34l4.65-2.652L224.65 30 220 32.662 222.35 34"/>
        <path fill="#FFEFDD" d="M214.378 47l-2.756-1.34V38l2.756 1.332V47"/>
        <path fill="#E2BC91" d="M215 48l4-2.833V37l-4 2.83V48"/>
        <path fill="#F8D9B5" d="M214.352 40L219 37.341 216.648 36 212 38.666 214.352 40"/>
        <path fill="#FFEFDD" d="M206.376 51l-2.752-1.338V42l2.752 1.331V51"/>
        <path fill="#E2BC91" d="M207 52l4-2.828V41l-4 2.825V52"/>
        <path fill="#F8D9B5" d="M206.352 44L211 41.347 208.652 40 204 42.667 206.352 44"/>
        <path fill="#FF9800" d="M198.378 55l-2.756-1.343V46l2.756 1.337V55"/>
        <path fill="#E2BC91" d="M199 57l4-2.83V46l-4 2.826V57"/>
        <path fill="#F8D9B5" d="M198.353 49L203 46.341 200.65 45 196 47.659 198.353 49"/>
        <path fill="#FFEFDD" d="M235.376 24l-2.752-1.344V15l2.752 1.338V24"/>
        <path fill="#E2BC91" d="M236 24l4-2.833V13l-4 2.825V24"/>
        <path fill="#F8D9B5" d="M235.35 16l4.65-2.658L237.647 12 233 14.658 235.35 16"/>
        <path fill="#FFEFDD" d="M227.378 28l-2.756-1.335V19l2.756 1.345V28"/>
        <path fill="#E2BC91" d="M228 28l4-2.827V17l-4 2.83V28"/>
        <path fill="#F8D9B5" d="M227.352 20L232 17.343 229.648 16 225 18.653 227.352 20"/>
        <path fill="#FFEFDD" d="M219.376 32l-2.752-1.341V23l2.752 1.344V32"/>
        <path fill="#E2BC91" d="M220 32l4-2.826V21l-4 2.83V32"/>
        <path fill="#F8D9B5" d="M219.35 25l4.65-2.659L221.647 21 217 23.652 219.35 25"/>
        <path fill="#FFEFDD" d="M212.378 37l-2.756-1.344V28l2.756 1.34V37"/>
        <path fill="#E2BC91" d="M212 37l4-2.833V26l-4 2.825V37"/>
        <path fill="#F8D9B5" d="M211.353 29L216 26.345 213.65 25 209 27.655 211.353 29"/>
        <path fill="#FFEFDD" d="M204.376 41l-2.752-1.344V32l2.752 1.34V41"/>
        <path fill="#E2BC91" d="M204 41l4-2.828V30l-4 2.828V41"/>
        <path fill="#F8D9B5" d="M203.35 33l4.65-2.657L205.65 29 201 31.657 203.35 33"/>
        <path fill="#FF9800" d="M196.38 46l-2.76-1.344V37l2.76 1.341V46"/>
        <path fill="#E2BC91" d="M196 46l4-2.83V35l-4 2.826V46"/>
        <path fill="#F8D9B5" d="M197.355 38L202 35.35 199.648 34 195 36.658 197.355 38"/>
        <path fill="#FF9800" d="M189.378 50l-2.756-1.345V41l2.756 1.331V50"/>
        <path fill="#CF7C00" d="M188 50l4-2.835V39l-4 2.825V50"/>
        <path fill="#F5B400" d="M189.353 42L194 39.34 191.65 38 187 40.663 189.353 42"/>
        <path fill="#FFEFDD" d="M163 108l-55-32.16V28l55 32.16V108"/>
        <path fill="#CF7C00" d="M163 108l11-5.785V54l-11 5.789V108"/>
        <path fill="#F8D9B5" d="M162.007 61L106 28.753 115.997 23 172 55.24 162.007 61"/>
        <path fill="#FFEFDD" d="M160 61l-55-31.77V27l55 31.77V61"/>
        <path fill="#CF7C00" d="M161 62l13-8.517V51l-13 8.514V62"/>
        <path fill="#F8D9B5" d="M160.64 58L105 25.754 118.364 18 174 50.246 160.64 58"/>
        <path fill="#F8D9B5" d="M164 58l-55-32.176V8l55 32.166V58"/>
        <path fill="#CF7C00" d="M164 58l8-4.74V36l-8 4.733V58"/>
        <path fill="#E2BC91" d="M165.535 40L109 7.884 117.465 3 174 35.12 165.535 40M119 28.624V30l-2.5-1.554-2.5-1.548v-9.524c0-.44.534-.427 1.11-.29v9.127l2.5 1.55 1.39.863"/>
        <path fill="#3C2415" d="M120 20.52V29l-1.429-.897L116 26.49V17c.684.162 1.429.503 1.429.503S120 19.526 120 20.52"/>
        <path fill="#CF7C00" d="M154 82.401V83l-7-3.816V67l.544.29V78.88l6.456 3.52"/>
        <path fill="#E2BC91" d="M154 70.724V83l-7-3.727V67l7 3.724"/>
        <path fill="#3C2415" d="M148.004 68.108c-.532-.254-.968-.047-.968.479v9.464l1.928.949v-9.474c0-.512-.428-1.157-.96-1.418M151.002 70.112c-.528-.261-.968-.05-.968.475v9.464l1.932.949v-9.47c0-.526-.432-1.157-.964-1.418"/>
        <path fill="#3C2415" d="M152 71.109c-.532-.258-.964-.041-.964.48v9.469l1.928.942v-9.471c0-.519-.432-1.16-.964-1.42"/>
        <path fill="#FF9800" d="M152.826 70.456v2.884l.348.204v-2.876l-.348-.212"/>
        <path fill="#CF7C00" d="M152.478 71.094l.692-.4.352.196-.696.416-.348-.212"/>
        <path fill="#CF7C00" d="M152.652 70.77v2.876l.696-.416v-2.876l-.696.416"/>
        <path fill="#FF9800" d="M146.826 66.456v2.88l.348.208v-2.88l-.348-.208"/>
        <path fill="#CF7C00" d="M146.48 67.102l.692-.412.348.208-.692.412-.348-.208"/>
        <path fill="#CF7C00" d="M146.654 66.766v2.88l.692-.412v-2.88l-.692.412"/>
        <path fill="#FF9800" d="M154 71l-8-3.704V67l8 3.701V71"/>
        <path fill="#CF7C00" d="M152.648 71.4l.704-.396V70.6l-.704.388v.412"/>
        <path fill="#E2BC91" d="M153.409 71L146 67.285l.588-.285L154 70.718l-.591.282"/>
        <path fill="#FF9800" d="M153 83l-7-3.68V79l7 3.674V83"/>
        <path fill="#CF7C00" d="M152.784 84.328l.432-.248v-.408l-.432.24v.416"/>
        <path fill="#F5B400" d="M152.647 83L146 79.195l.347-.195L153 82.805l-.353.195"/>
        <path fill="#CF7C00" d="M154 97.397V98l-7-3.913V85l.544.297v8.483L154 97.397"/>
        <path fill="#E2BC91" d="M154 87.577V96l-7-3.587V84l7 3.577"/>
        <path fill="#3C2415" d="M154 89.546V97l-7-3.55V86l7 3.546"/>
        <path fill="#F5B400" d="M154 92l-7-3.65V88l7 3.653V92M148.824 90l.008 4.81.344.19v-4.825l-.352-.175"/>
        <path fill="#F5B400" d="M150.824 87v7.823l.352.177v-7.83l-.352-.17M151.824 91v4.825l.352.175v-4.803l-.352-.197"/>
        <path fill="#FF9800" d="M152.826 88.458v2.884l.348.2v-2.868l-.348-.216"/>
        <path fill="#CF7C00" d="M152.478 89.094l.692-.404.352.208-.696.412-.348-.216"/>
        <path fill="#CF7C00" d="M152.652 88.772v2.868l.696-.412V88.36l-.696.412"/>
        <path fill="#FF9800" d="M146.826 84.464v2.872l.348.2v-2.88l-.348-.192"/>
        <path fill="#CF7C00" d="M146.48 85.114l.692-.42.348.2-.692.412-.348-.192"/>
        <path fill="#CF7C00" d="M146.654 84.766v2.88l.692-.412v-2.88l-.692.412"/>
        <path fill="#FF9800" d="M154 88l-8-3.701V84l8 3.704V88"/>
        <path fill="#CF7C00" d="M152.648 89.406l.704-.4v-.412l-.704.404v.408"/>
        <path fill="#E2BC91" d="M153.409 88L146 84.288l.588-.288L154 87.706l-.591.294"/>
        <path fill="#FF9800" d="M153 98l-7-3.68V94l7 3.69V98"/>
        <path fill="#CF7C00" d="M152.784 98.324l.432-.236v-.412l-.432.252v.396"/>
        <path fill="#E2BC91" d="M152.647 98L146 94.2l.347-.2L153 97.796l-.353.204"/>
        <path fill="#CF7C00" d="M142 76.408V77l-7-3.815V61l.54.296v11.596l6.46 3.516"/>
        <path fill="#E2BC91" d="M142 64.723V77l-7-3.723V61l7 3.723"/>
        <path fill="#3C2415" d="M137 62.11c-.532-.258-.964-.047-.964.472v9.475l1.928.943v-9.468c0-.52-.432-1.16-.964-1.422M139.998 63.112c-.532-.258-.96-.058-.96.465v9.48l1.924.943v-9.473c0-.526-.428-1.164-.964-1.415"/>
        <path fill="#3C2415" d="M141.002 64.11c-.536-.257-.968-.05-.968.472v9.481l1.932.937v-9.474c0-.516-.436-1.157-.964-1.415"/>
        <path fill="#FF9800" d="M142.824 65.458v2.876l.352.208v-2.88l-.352-.204"/>
        <path fill="#CF7C00" d="M142.476 64.106l.692-.416.356.212-.696.408-.352-.204"/>
        <path fill="#CF7C00" d="M142.652 63.764v2.88l.696-.42v-2.868l-.696.408"/>
        <path fill="#FF9800" d="M134.826 59.462v2.876l.348.2v-2.88l-.348-.196"/>
        <path fill="#CF7C00" d="M134.478 60.106l.692-.408.352.208-.696.396-.348-.196"/>
        <path fill="#CF7C00" d="M134.652 59.758v2.88l.696-.4v-2.876l-.696.396"/>
        <path fill="#FF9800" d="M142 65l-8-3.704V61l8 3.707V65"/>
        <path fill="#CF7C00" d="M142.65 64.402l.7-.396v-.408l-.7.4v.404"/>
        <path fill="#E2BC91" d="M142.413 65L135 61.29l.587-.29L143 64.71l-.587.29M142 78l-7-3.68V74l7 3.684V78"/>
        <path fill="#CF7C00" d="M142.784 77.326l.432-.252v-.4l-.432.248v.404"/>
        <path fill="#F5B400" d="M141.647 77L135 73.191l.353-.191L142 76.8l-.353.2"/>
        <path fill="#CF7C00" d="M142 90.387V91l-7-3.922V78l.54.3v8.484l6.46 3.603"/>
        <path fill="#E2BC91" d="M142 82.58V91l-7-3.577V79l7 3.58"/>
        <path fill="#3C2415" d="M143 82.543V90l-7-3.553V79l7 3.543"/>
        <path fill="#F5B400" d="M143 86l-7-3.65V82l7 3.656V86M136.824 83l.004 4.814.348.186v-4.821l-.352-.179"/>
        <path fill="#F5B400" d="M138.822 80v7.827l.356.173-.004-7.827-.352-.173M140.824 85v4.821l.352.179v-4.807l-.352-.193"/>
        <path fill="#FF9800" d="M142.824 82.456v2.884l.352.204v-2.88l-.352-.208"/>
        <path fill="#CF7C00" d="M142.476 82.102l.692-.412.356.212-.696.408-.352-.208M142.652 82.764v2.88l.696-.42v-2.868l-.696.408"/>
        <path fill="#FF9800" d="M134.826 78.458v2.884l.348.2v-2.88l-.348-.204"/>
        <path fill="#CF7C00" d="M134.478 78.104l.692-.412.352.2-.696.416-.348-.204M134.652 78.768v2.88l.696-.416v-2.88l-.696.416"/>
        <path fill="#FF9800" d="M142 82l-8-3.71V78l8 3.706V82"/>
        <path fill="#CF7C00" d="M142.65 82.4l.7-.392V81.6l-.7.396v.404"/>
        <path fill="#E2BC91" d="M142.413 82L135 78.288l.587-.288L143 81.712l-.587.288"/>
        <path fill="#FF9800" d="M142 91l-7-3.686V87l7 3.689V91"/>
        <path fill="#CF7C00" d="M142.784 92.32l.432-.232v-.408l-.432.244v.396"/>
        <path fill="#F5B400" d="M141.647 91L135 87.207l.353-.207L142 90.803l-.353.197"/>
        <path fill="#CF7C00" d="M132 69.408V70l-7-3.819V54l.547.306v11.583l6.453 3.52"/>
        <path fill="#E2BC91" d="M132 57.719V70l-7-3.729V54l7 3.719"/>
        <path fill="#3C2415" d="M126.998 56.108c-.532-.251-.964-.051-.964.471v9.481l1.932.94v-9.474c0-.516-.436-1.157-.968-1.418"/>
        <path fill="#3C2415" d="M127.996 56.111c-.528-.258-.964-.054-.964.475v9.468l1.936.946v-9.467c0-.526-.436-1.16-.972-1.422M131.002 58.113c-.536-.264-.968-.047-.968.468v9.476l1.932.943v-9.469c0-.519-.436-1.16-.964-1.418"/>
        <path fill="#FF9800" d="M130.824 58.46v2.876l.352.204v-2.884l-.352-.196"/>
        <path fill="#CF7C00" d="M130.476 59.106l.688-.408.36.208-.696.396-.352-.196"/>
        <path fill="#CF7C00" d="M130.652 58.756v2.884l.696-.404V58.36l-.696.396"/>
        <path fill="#FF9800" d="M123.824 54.46v2.876l.352.204v-2.876l-.352-.204"/>
        <path fill="#CF7C00" d="M123.48 55.1l.688-.404.352.204-.688.404-.352-.204"/>
        <path fill="#E2BC91" d="M123.656 54.764v2.876l.688-.404V54.36l-.688.404"/>
        <path fill="#FF9800" d="M131 58l-8-3.71V54l8 3.715V58"/>
        <path fill="#CF7C00" d="M130.652 59.396l.696-.392v-.4l-.696.4v.392"/>
        <path fill="#E2BC91" d="M130.415 58L123 54.29l.588-.29L131 57.71l-.585.29"/>
        <path fill="#FF9800" d="M132 71l-7-3.681V67l7 3.675V71"/>
        <path fill="#CF7C00" d="M130.78 71.33l.44-.26v-.4l-.44.244v.416"/>
        <path fill="#E2BC91" d="M131.64 71L125 67.197l.353-.197L132 70.803l-.36.197"/>
        <path fill="#CF7C00" d="M132 83.387V84l-7-3.914V71l.547.306v8.48L132 83.388"/>
        <path fill="#E2BC91" d="M132 75.583V84l-7-3.577V72l7 3.583"/>
        <path fill="#3C2415" d="M132 77.55V85l-7-3.55V74l7 3.55"/>
        <path fill="#F5B400" d="M132 79l-7-3.663V75l7 3.646V79M126.828 77v4.814l.344.186v-4.818l-.344-.182"/>
        <path fill="#F5B400" d="M127.824 74v7.827l.352.173v-7.834l-.352-.166M128.822 78v4.825l.356.175v-4.821l-.356-.179"/>
        <path fill="#FF9800" d="M130.824 75.454v2.888l.352.204v-2.88l-.352-.212"/>
        <path fill="#CF7C00" d="M130.476 76.096l.688-.404.36.212-.696.404-.352-.212"/>
        <path fill="#CF7C00" d="M130.652 75.762v2.88l.696-.412v-2.872l-.696.404"/>
        <path fill="#FF9800" d="M123.824 71.458v2.872l.352.212v-2.884l-.352-.2"/>
        <path fill="#CF7C00" d="M123.48 72.108l.688-.416.352.208-.688.408-.352-.2"/>
        <path fill="#E2BC91" d="M123.656 71.762v2.884l.688-.412v-2.88l-.688.408"/>
        <path fill="#FF9800" d="M131 77l-8-3.707V73l8 3.707V77"/>
        <path fill="#CF7C00" d="M130.652 76.4l.696-.392V75.6l-.696.396v.404"/>
        <path fill="#F5B400" d="M130.415 75L123 71.288l.588-.288L131 74.712l-.585.288"/>
        <path fill="#FF9800" d="M132 86l-7-3.689V82l7 3.682V86"/>
        <path fill="#CF7C00" d="M130.78 85.322l.44-.236v-.408l-.44.24v.404"/>
        <path fill="#F5B400" d="M131.64 84L125 80.207l.353-.207L132 83.806l-.36.194"/>
        <path fill="#CF7C00" d="M121 62.408V63l-7-3.822V47l.544.309v11.576L121 62.408"/>
        <path fill="#E2BC91" d="M121 50.72V63l-7-3.733V47l7 3.72"/>
        <path fill="#3C2415" d="M114.996 50.114c-.532-.262-.96-.058-.96.465v9.48l1.928.941v-9.478c0-.526-.436-1.147-.968-1.408M118 51.112c-.536-.261-.964-.05-.964.472v9.47l1.928.946v-9.467c0-.525-.432-1.163-.964-1.42"/>
        <path fill="#3C2415" d="M119.002 51.11c-.536-.255-.968-.052-.968.471v9.476l1.932.943v-9.476c0-.515-.428-1.157-.964-1.415"/>
        <path fill="#FF9800" d="M119.824 51.464v2.876l.352.196-.004-2.884-.348-.188"/>
        <path fill="#CF7C00" d="M119.48 52.112l.688-.412.352.208-.692.392-.348-.188"/>
        <path fill="#CF7C00" d="M119.654 51.754l.004 2.884.688-.404v-2.872l-.692.392"/>
        <path fill="#FF9800" d="M111.824 47.462v2.876l.352.2v-2.872l-.352-.204"/>
        <path fill="#CF7C00" d="M113.478 48.102l.692-.408.352.204-.692.408-.352-.204"/>
        <path fill="#CF7C00" d="M113.654 47.768v2.872l.692-.408V47.36l-.692.408"/>
        <path fill="#FF9800" d="M121 51l-8-3.706V47l8 3.715V51"/>
        <path fill="#CF7C00" d="M119.652 52.39l.696-.388v-.392l-.696.388v.392"/>
        <path fill="#E2BC91" d="M120.415 51L113 47.293l.588-.293L121 50.718l-.585.282"/>
        <path fill="#FF9800" d="M120 65l-7-3.687V61l7 3.68V65"/>
        <path fill="#CF7C00" d="M119.784 64.328l.432-.252v-.404l-.432.248v.408"/>
        <path fill="#E2BC91" d="M119.647 65L113 61.204l.35-.204 6.65 3.8-.353.2"/>
        <path fill="#CF7C00" d="M121 78.387V79l-7-3.911V66l.544.307v8.475L121 78.387"/>
        <path fill="#E2BC91" d="M121 69.58V78l-7-3.58V66l7 3.58"/>
        <path fill="#3C2415" d="M121 70.546V78l-7-3.553V67l7 3.546"/>
        <path fill="#F5B400" d="M121 74l-7-3.656V70l7 3.646V74"/>
        <path fill="#F5B400" d="M115.826 70v4.814l.348.186v-4.818l-.348-.182M117.822 69v7.83l.356.17v-7.823l-.356-.177M118.828 73v4.821l.344.179v-4.821l-.344-.179"/>
        <path fill="#FF9800" d="M119.824 69.46v2.88l.352.2-.004-2.876-.348-.204"/>
        <path fill="#CF7C00" d="M119.48 69.104l.688-.412.352.212-.692.404-.348-.204M119.654 69.764l.004 2.876.688-.412V69.36l-.692.404"/>
        <path fill="#FF9800" d="M111.824 65.462v2.86l.352.216v-2.884l-.352-.192"/>
        <path fill="#CF7C00" d="M113.478 65.114l.692-.42.352.208-.692.404-.352-.192M113.654 65.76v2.884l.692-.408v-2.88l-.692.404"/>
        <path fill="#FF9800" d="M121 70l-8-3.698V66l8 3.71V70"/>
        <path fill="#CF7C00" d="M119.652 69.396l.696-.396v-.396l-.696.392v.4"/>
        <path fill="#E2BC91" d="M120.415 69L113 65.288l.588-.288L121 68.715l-.585.285"/>
        <path fill="#FF9800" d="M120 79l-7-3.69V75l7 3.683V79"/>
        <path fill="#CF7C00" d="M119.784 78.322l.432-.244v-.4l-.432.24v.404"/>
        <path fill="#E2BC91" d="M119.647 79L113 75.198l.35-.198 6.65 3.806-.353.194M109.466 17v12.489l1.068.511-.008-12.499-1.06-.501"/>
        <path fill="#F5B400" d="M109 16.594l2.962-1.804 1.038.62-2.974 1.8-1.026-.616"/>
        <path fill="#E2BC91" d="M110.464 17.574L110.472 31l3.064-1.553V16l-3.072 1.574"/>
        <path fill="#FF9800" d="M117.464 21l.004 12.495 1.068.505V21.508L117.464 21"/>
        <path fill="#F5B400" d="M117 20.586l2.962-1.796 1.038.612-2.962 1.808-1.038-.624"/>
        <path fill="#E2BC91" d="M117.468 21.581V35l3.064-1.55-.004-13.45-3.06 1.581M126 32.624V34l-2.499-1.548-2.501-1.55V21.38c0-.446.538-.433 1.114-.296v9.13l2.499 1.55 1.387.86"/>
        <path fill="#3C2415" d="M126 24.53V33l-1.428-.894L122 30.493V21c.688.166 1.428.513 1.428.513S126 23.546 126 24.53"/>
        <path fill="#FF9800" d="M123.466 25v12.502l1.068.498V25.502L123.466 25"/>
        <path fill="#F5B400" d="M123 24.59l2.969-1.796 1.031.62-2.965 1.792L123 24.59"/>
        <path fill="#E2BC91" d="M123.47 24.568V38l3.06-1.55V23l-3.06 1.568M133 37.624V39l-2.5-1.548-2.5-1.55v-9.523c0-.446.537-.433 1.113-.29v9.124l2.5 1.551 1.387.86"/>
        <path fill="#3C2415" d="M133 29.515V38l-1.427-.895L129 35.492V26c.684.156 1.427.51 1.427.51S133 28.531 133 29.515"/>
        <path fill="#FFEFDD" d="M130.468 29v12.498l1.064.502V29.499L130.468 29"/>
        <path fill="#F5B400" d="M130 28.596l2.968-1.804 1.032.616-2.968 1.8-1.032-.612"/>
        <path fill="#E2BC91" d="M131.466 28.575V42l3.068-1.54-.008-13.46-3.06 1.575M141 41.627V43l-2.494-1.545L136 39.901v-9.52c0-.444.54-.437 1.116-.294v9.132l2.494 1.545 1.39.863"/>
        <path fill="#3C2415" d="M141 33.518V42l-1.431-.898L137 39.496V30c.685.159 1.431.507 1.431.507S141 32.534 141 33.517"/>
        <path fill="#FF9800" d="M138.464 33l.004 12.508 1.068.492-.004-12.495-1.068-.505"/>
        <path fill="#F5B400" d="M138 32.586l2.96-1.792 1.04.616-2.967 1.796-1.033-.62"/>
        <path fill="#E2BC91" d="M138.466 32.572L138.47 46l3.064-1.537V31l-3.068 1.572M147 45.621V47l-2.494-1.554L142 43.902v-9.525c0-.44.54-.43 1.113-.296v9.123l2.5 1.557 1.387.86"/>
        <path fill="#3C2415" d="M147 37.526V46l-1.427-.894-2.573-1.62V34c.688.166 1.433.51 1.433.51S147 36.54 147 37.526"/>
        <path fill="#FFEFDD" d="M144.464 37l.004 12.495 1.068.505V37.501L144.464 37"/>
        <path fill="#F5B400" d="M145 36.588l2.962-1.792 1.038.616-2.962 1.792-1.038-.616"/>
        <path fill="#E2BC91" d="M145.47 36.567V50l3.06-1.546V35l-3.06 1.567M154 49.62V51l-2.5-1.551L149 47.9v-9.523c0-.44.535-.433 1.109-.293v9.128l2.509 1.551 1.382.857"/>
        <path fill="#3C2415" d="M154 41.532V50l-1.42-.891-2.58-1.614V38c.69.162 1.43.514 1.43.514S154 40.53 154 41.532"/>
        <path fill="#FFEFDD" d="M152.466 41v12.498l1.068.502V41.498L152.466 41"/>
        <path fill="#F5B400" d="M151 40.594l2.965-1.8 1.035.62-2.965 1.792-1.035-.612"/>
        <path fill="#E2BC91" d="M153.468 40.568V54l3.064-1.55-.004-13.45-3.06 1.568"/>
        <path fill="#FFEFDD" d="M159 45l-53-30.96V13l53 30.96V45"/>
        <path fill="#CF7C00" d="M158.458 45.494l3.084-1.752v-1.236l-3.084 1.756v1.232"/>
        <path fill="#F8D9B5" d="M159.453 44L107 13.473 109.53 12 162 42.537 159.453 44"/>
        <path fill="#C49E74" d="M114.622 12l2.756-1.335V3l-2.756 1.342V12"/>
        <path fill="#FFEFDD" d="M114 12l-4-2.828V1l4 2.828V12"/>
        <path fill="#E2BC91" d="M114.647 4L110 1.347 112.353 0 117 2.657 114.647 4M109.466 4v11.497l1.068.503-.008-11.494-1.06-.506"/>
        <path fill="#FFEFDD" d="M109 3.586l2.962-1.792L113 2.41l-2.974 1.796-1.026-.62"/>
        <path fill="#E2BC91" d="M110.464 4.47l.008 11.53 3.064-1.437V3l-3.072 1.47"/>
        <path fill="#C49E74" d="M121.622 16l2.756-1.344V7l-2.756 1.338V16"/>
        <path fill="#E2BC91" d="M122 16l-4-2.832V5l4 2.828V16"/>
        <path fill="#E2BC91" d="M122.647 8L118 5.341 120.356 4 125 6.659 122.647 8"/>
        <path fill="#FF9800" d="M117.464 8v11.495l1.072.505-.008-11.498L117.464 8"/>
        <path fill="#FFEFDD" d="M117 7.59l2.965-1.796 1.035.612-2.969 1.8L117 7.59"/>
        <path fill="#E2BC91" d="M117.466 8.471L117.474 20l3.06-1.452L120.53 7l-3.064 1.471"/>
        <path fill="#C49E74" d="M129.62 20l2.76-1.341V11l-2.76 1.341V20"/>
        <path fill="#E2BC91" d="M129 20l-4-2.826V9l4 2.826V20"/>
        <path fill="#E2BC91" d="M129.646 12L125 9.347 127.35 8l4.65 2.657L129.646 12"/>
        <path fill="#FF9800" d="M123.464 12l.004 11.491 1.068.509-.008-11.501-1.064-.499"/>
        <path fill="#FFEFDD" d="M123 11.592l2.966-1.796 1.034.624-2.97 1.784-1.03-.612"/>
        <path fill="#E2BC91" d="M123.466 12.46l.008 11.54 3.06-1.456V11l-3.068 1.46"/>
        <path fill="#C49E74" d="M135.624 24l2.752-1.344V15l-2.752 1.331V24"/>
        <path fill="#E2BC91" d="M135.65 16L131 13.343 133.357 12 138 14.663 135.65 16"/>
        <path fill="#FFEFDD" d="M130.468 16v11.491l1.064.509V16.506L130.468 16M130 15.59l2.968-1.8 1.032.62-2.968 1.8-1.032-.62"/>
        <path fill="#E2BC91" d="M131.466 16.472V28l3.068-1.452L134.526 15l-3.06 1.472"/>
        <path fill="#C49E74" d="M142.62 28l2.76-1.338V19l-2.76 1.338V28"/>
        <path fill="#E2BC91" d="M143 28l-4-2.83V17l4 2.825V28"/>
        <path fill="#E2BC91" d="M142.644 20L138 17.35l2.353-1.35L145 18.661 142.644 20"/>
        <path fill="#FFEFDD" d="M138.464 20l.004 11.498 1.068.502-.004-11.491-1.068-.509M138 19.584l2.96-1.792 1.04.62-2.967 1.796-1.033-.624"/>
        <path fill="#E2BC91" d="M138.466 21.47L138.47 33l3.064-1.45V20l-3.068 1.47"/>
        <path fill="#C49E74" d="M150.622 32l2.756-1.334V23l-2.756 1.348V32"/>
        <path fill="#E2BC91" d="M150 32l-4-2.837V21l4 2.834V32"/>
        <path fill="#E2BC91" d="M150.647 24L146 21.351 148.353 20 153 22.655 150.647 24"/>
        <path fill="#FFEFDD" d="M144.464 25l.004 11.494 1.068.506V25.506L144.464 25M145 24.586l2.962-1.792 1.038.612-2.962 1.8-1.038-.62"/>
        <path fill="#E2BC91" d="M145.47 25.472V37l3.06-1.443V24l-3.06 1.472"/>
        <path fill="#CF7C00" d="M156.624 35l2.752-1.342V26l-2.752 1.338V35"/>
        <path fill="#E2BC91" d="M156.65 29L152 26.346 154.353 25 159 27.658 156.65 29"/>
        <path fill="#FFEFDD" d="M152.466 29v11.491l1.068.509V29.509L152.466 29M151 28.584l2.965-1.792 1.035.616-2.965 1.8-1.035-.624"/>
        <path fill="#E2BC91" d="M153.468 29.472V41l3.064-1.446L156.528 28l-3.06 1.472"/>
        <path fill="#FFEFDD" d="M178 124l-21-12.241V32l21 12.254V124"/>
        <path fill="#E2BC91" d="M178 124l21-12.241V32l-21 12.254V124"/>
        <path fill="#F5B400" d="M178.002 45L157 32.493 178.002 20 199 32.493 178.002 45"/>
        <path fill="#F8D9B5" d="M178 48l-24-13.69V32l24 13.684V48"/>
        <path fill="#C39D73" d="M177 48l24-13.69V32l-24 13.684V48"/>
        <path fill="#F8D9B5" d="M177.998 45L155 32.008 177.998 19 201 32.008 177.998 45"/>
        <path fill="#FF9800" d="M250 146l-55-31.928V88l55 31.925V146"/>
        <path fill="#F8D9B5" d="M250.858 120L195 87.83 247.478 58 303 89.974 250.858 120"/>
        <path fill="#E2BC91" d="M248.622 62l2.756-1.146V57l-2.756 1.149V62"/>
        <path fill="#F8D9B5" d="M249 62l-4-2.595V55l4 2.599V62"/>
        <path fill="#FFEFDD" d="M249.652 58L245 55.336 247.355 54 252 56.654 249.652 58"/>
        <path fill="#E2BC91" d="M257.62 67l2.76-1.147V62l-2.76 1.144V67"/>
        <path fill="#F8D9B5" d="M257 67l-4-2.595V60l4 2.595V67"/>
        <path fill="#FFEFDD" d="M257.65 63L253 60.347 255.353 59 260 61.663 257.65 63M289.936 91l-16.465 2.421L257 109.935v3.28l3.064 1.785L293 92.795 289.936 91"/>
        <path fill="#E2BC91" d="M292.072 96.326v-2.893l-16 2.395-15.998 16.384v3.256L250 121.398V148l51-30.402V91l-8.928 5.326"/>
        <path fill="#FFEFDD" d="M239 153l-55-32.155V73l55 32.159V153"/>
        <path fill="#E2BC91" d="M239 153l11-5.786V99l-11 5.792V153"/>
        <path fill="#9C703F" d="M240.006 105L184 72.76l9.99-5.76L250 99.237 240.006 105"/>
        <path fill="#FFEFDD" d="M238 105l-55-31.775V71l55 31.775V105"/>
        <path fill="#9C703F" d="M238 106l13-8.523V95l-13 8.52V106"/>
        <path fill="#C39D73" d="M238.639 103L183 70.751 196.365 63 252 95.245 238.639 103"/>
        <path fill="#E2BC91" d="M188.62 75l2.76-1.337V66l-2.76 1.35V75"/>
        <path fill="#FFEFDD" d="M190 75l-4-2.83V64l4 2.834V75"/>
        <path fill="#F8D9B5" d="M189.645 67L185 64.347 187.352 63 192 65.65 189.645 67"/>
        <path fill="#E2BC91" d="M196.624 79l2.752-1.344V70l-2.752 1.34V79"/>
        <path fill="#FFEFDD" d="M197 79l-3.997-2.825L193 68l4 2.828V79"/>
        <path fill="#F8D9B5" d="M196.65 71L192 68.343 194.356 67 199 69.657 196.65 71"/>
        <path fill="#E2BC91" d="M204.622 84l2.756-1.342V75l-2.756 1.339V84"/>
        <path fill="#FFEFDD" d="M205 85l-4-2.827V74l4 2.827V85"/>
        <path fill="#F8D9B5" d="M204.647 77L200 74.345 202.35 73l4.65 2.659L204.647 77"/>
        <path fill="#E2BC91" d="M212.622 88l2.756-1.342V79l-2.756 1.342V88"/>
        <path fill="#FFEFDD" d="M212 89l-4-2.83V78l4 2.83V89"/>
        <path fill="#F8D9B5" d="M212.647 80L208 77.343 210.35 76l4.65 2.657L212.647 80"/>
        <path fill="#E2BC91" d="M220.622 92l2.756-1.334V83l-2.756 1.351V92"/>
        <path fill="#FFEFDD" d="M220 93l-4-2.835V82l4 2.835V93"/>
        <path fill="#F8D9B5" d="M220.647 86L216 83.347 218.35 82l4.65 2.65-2.353 1.35"/>
        <path fill="#E2BC91" d="M228.622 97l2.756-1.344V88l-2.756 1.34V97"/>
        <path fill="#FFEFDD" d="M228 98l-4-2.83V87l4 2.825V98"/>
        <path fill="#F8D9B5" d="M228.648 90L224 87.345 226.352 86 231 88.655 228.648 90"/>
        <path fill="#E2BC91" d="M236.622 101l2.756-1.344V92l-2.756 1.334V101"/>
        <path fill="#FFEFDD" d="M236 102l-4-2.835V91l4 2.825V102"/>
        <path fill="#F8D9B5" d="M236.647 94L232 91.34l2.35-1.34 4.65 2.66-2.353 1.34"/>
        <path fill="#FFEFDD" d="M197 33l-21-12.586V13l21 12.579V33"/>
        <path fill="#CF7C00" d="M196.622 33l2.756-1.23V25l-2.756 1.24V33"/>
        <path fill="#E2BC91" d="M197.661 26L176 14.277 178.346 13 200 24.732 197.661 26"/>
        <path fill="#E2BC91" d="M178.626 16l2.748-1.335V7l-2.748 1.342V16"/>
        <path fill="#FFEFDD" d="M178.378 16l-2.756-1.335V7l2.756 1.342V16"/>
        <path fill="#E2BC91" d="M178.003 7.592L176 6l2.003-1.592L180 6l-1.997 1.592M192.622 24l2.756-1.344V15l-2.756 1.337V24"/>
        <path fill="#FFEFDD" d="M192.378 24l-2.756-1.344V15l2.756 1.337V24"/>
        <path fill="#E2BC91" d="M193 15.588L191 14l2-1.588L195 14l-2 1.588M187.622 21l2.756-1.334V12l-2.756 1.337V21"/>
        <path fill="#FFEFDD" d="M187.378 21l-2.756-1.334V12l2.756 1.337V21"/>
        <path fill="#E2BC91" d="M188 12.588L186 11l2-1.588L190 11l-2 1.588M182.62 18l2.76-1.344V9l-2.76 1.334V18"/>
        <path fill="#FFEFDD" d="M183.38 18l-2.76-1.344V9l2.76 1.334V18"/>
        <path fill="#E2BC91" d="M184 10.586l-2-1.584 2-1.588 2 1.588-2 1.584M180 43l20-10.928V25l-20 10.94V43"/>
        <path fill="#E2BC91" d="M181.382 44l-2.764-1.24V36l2.764 1.243V44"/>
        <path fill="#9C703F" d="M180.228 36L199 25.267 196.778 24 178 34.727 180.228 36"/>
        <path fill="#E2BC91" d="M162 32l17-9.81V15l-17 9.81V32"/>
        <path fill="#CF7C00" d="M161.38 32l-2.76-1.237V24l2.76 1.234V32"/>
        <path fill="#FFEFDD" d="M161.37 25L179 15.3l-2.373-1.3L159 23.704 161.37 25"/>
        <path fill="#F8D9B5" d="M163.374 24l-2.748-1.338V15l2.748 1.348V24"/>
        <path fill="#E2BC91" d="M163.62 24l2.76-1.338V15l-2.76 1.348V24"/>
        <path fill="#E2BC91" d="M163.996 16.592l2.004-1.6-2.004-1.584L162 14.992l1.996 1.6"/>
        <path fill="#F8D9B5" d="M169.378 21l-2.756-1.34V12l2.756 1.344V21"/>
        <path fill="#E2BC91" d="M168.624 21l2.752-1.34V12l-2.752 1.344V21"/>
        <path fill="#E2BC91" d="M169.001 14.59L171 12.994l-1.999-1.584L167 12.994l2.001 1.596"/>
        <path fill="#F8D9B5" d="M173.38 18l-2.76-1.338V9l2.76 1.335V18"/>
        <path fill="#E2BC91" d="M172.622 18l2.756-1.338V9l-2.756 1.335V18"/>
        <path fill="#E2BC91" d="M173.001 10.586L175 9.002l-1.999-1.588L171 9.002l2.001 1.584"/>
        <path fill="#F8D9B5" d="M178 45l-21-12.584V25l21 12.578V45"/>
        <path fill="#E2BC91" d="M178.618 45l2.764-1.248V37l-2.764 1.235V45M177.654 37L156 25.262 158.342 24 180 35.735 177.654 37"/>
        <path fill="#E2BC91" d="M158.626 26l2.748-1.348V17l-2.748 1.334V26"/>
        <path fill="#F8D9B5" d="M158.38 26l-2.76-1.348V17l2.76 1.334V26"/>
        <path fill="#E2BC91" d="M158.004 19.586L156 18.002l2.004-1.588L160 18.002l-1.996 1.584M178.622 37l2.756-1.335V28l-2.756 1.339V37"/>
        <path fill="#F8D9B5" d="M178.376 37l-2.752-1.335V28l2.752 1.339V37"/>
        <path fill="#E2BC91" d="M177.999 29.592L176 28.004l1.999-1.596L180 28.004l-2.001 1.588M172.622 34l2.756-1.341V25l-2.756 1.341V34"/>
        <path fill="#F8D9B5" d="M173.376 34l-2.752-1.341V25l2.752 1.341V34"/>
        <path fill="#E2BC91" d="M172.999 27.596L171 26.004l1.999-1.6 2.001 1.6-2.001 1.592M167.622 32l2.756-1.338V23l-2.756 1.351V32"/>
        <path fill="#F8D9B5" d="M169.376 32l-2.752-1.338V23l2.752 1.351V32"/>
        <path fill="#E2BC91" d="M167.999 24.598L166 22.994l1.999-1.592L170 22.994l-2.001 1.604"/>
        <path fill="#E2BC91" d="M163.624 29l2.752-1.335V20l-2.752 1.335V29"/>
        <path fill="#F8D9B5" d="M163.378 29l-2.756-1.335V20l2.756 1.335V29"/>
        <path fill="#E2BC91" d="M164.001 21.588L162 20.004l2.001-1.592L166 20.004l-1.999 1.584"/>
        <path fill="#FFEFDD" d="M183.378 34l-2.756-1.342V25l2.756 1.332V34"/>
        <path fill="#E2BC91" d="M182.624 34l2.752-1.342V25l-2.752 1.332V34"/>
        <path fill="#E2BC91" d="M182.001 27.59L184 26.01l-1.999-1.6-2.001 1.6 2.001 1.58"/>
        <path fill="#FFEFDD" d="M187.376 32l-2.752-1.342V23l2.752 1.338V32"/>
        <path fill="#E2BC91" d="M187.62 32l2.756-1.342.004-7.658-2.76 1.338V32"/>
        <path fill="#E2BC91" d="M187.997 24.592L190 23.004l-2.003-1.596L186 23.004l1.997 1.588"/>
        <path fill="#FFEFDD" d="M192.376 29l-2.752-1.34V20l2.752 1.35V29"/>
        <path fill="#E2BC91" d="M191.624 29l2.752-1.34V20l-2.752 1.35V29"/>
        <path fill="#E2BC91" d="M193 21.594l2-1.604-2-1.584-2 1.584 2 1.604M196.624 26l2.752-1.343V17l-2.752 1.336V26"/>
        <path fill="#FFEFDD" d="M196.376 26l-2.752-1.343V17l2.752 1.336V26"/>
        <path fill="#E2BC91" d="M197 19.594l-2-1.584 2-1.604 2 1.604-2 1.584"/>
        <path fill="#CF7C00" d="M168.596 61.608l.808-.46v-.756l-.808.468v.748"/>
        <path fill="#C39D73" d="M169.348 61.788L165 58.668l.655-.456L170 61.32l-.652.468"/>
        <path fill="#C39D73" d="M168 59.839V61l-2.001-1.306L164 58.385v-8.06c0-.38.43-.37.888-.255v7.73l2.001 1.312 1.111.727"/>
        <path fill="#3C2415" d="M170 52.648V59l-1.427-.67L166 57.121V50c.687.127 1.427.378 1.427.378s2.573 1.52 2.573 2.27"/>
        <path fill="#E2BC91" d="M211.5 112c-.544 2.51-5.5.653-5.5 5.108v16.598L217 140v-16.59c0-4.462-4.949-8.282-5.5-11.41"/>
        <path fill="#3C2415" d="M212 116.535c-2.21-1.25-4-.233-4 2.267v14.657l8 4.541v-14.657c0-2.513-1.794-5.551-4-6.808"/>
        <path fill="#CF7C00" d="M170 105.023V106l-4-2.572v-7.836c0-.967.406-1.548 1.021-1.592-.17.264-.257.642-.257 1.095v7.843l3.236 2.085"/>
        <path fill="#3C2415" d="M170 99.17V106l-4-2.08v-7.824c0-.452.109-.83.318-1.093.356-.023.768.075 1.206.304C168.9 96.008 170 97.74 170 99.17"/>
        <path fill="#E2BC91" d="M168 106.908l-4-3.064v-.752l4 3.056v.76"/>
        <path fill="#CF7C00" d="M168.596 106.616l.808-.464v-.768l-.808.472v.76"/>
        <path fill="#E2BC91" d="M169.336 106.758L165 103.702l.664-.46 4.336 3.044-.664.472"/>
        <path fill="#C39D73" d="M174 90.894V92l-13-7.164V67l1.014.555v16.72L174 90.894"/>
        <path fill="#E2BC91" d="M174 73.8V91l-12-6.807V67l12 6.8"/>
        <path fill="#E2BC91" d="M163.998 70.202c-.992-.47-1.804-.093-1.804.866v12.207L165.806 85V72.789c0-.952-.812-2.1-1.808-2.587M168 72.201c-.996-.47-1.808-.09-1.808.872v12.194L169.808 87V74.796c0-.954-.812-2.108-1.808-2.595M171.998 74.204c-1-.474-1.804-.096-1.804.859V87.27l3.612 1.73V76.793c0-.948-.812-2.112-1.808-2.589"/>
        <path fill="#CF7C00" d="M169.634 86.531V87l-3.268-1.538V76l.472.216v9l2.796 1.315"/>
        <path fill="#3C2415" d="M169.398 77.41V87l-2.796-1.402V76l2.796 1.41"/>
        <path fill="#FF9800" d="M172.67 74v4.67l.66.33v-4.677l-.66-.323"/>
        <path fill="#CF7C00" d="M172.022 75.194l1.3-.76.656.376-1.296.756-.66-.372"/>
        <path fill="#C39D73" d="M172.352 74.615V79l1.296-.625V74l-1.296.615"/>
        <path fill="#FF9800" d="M159.668 66l.004 4.667.66.333-.004-4.67-.66-.33"/>
        <path fill="#CF7C00" d="M159.024 67.19l1.296-.76.656.368-1.292.772-.66-.38"/>
        <path fill="#C39D73" d="M159.354 66.627l.004 4.373 1.288-.624V66l-1.292.627"/>
        <path fill="#FF9800" d="M172 74l-13-7.412V66l13 7.419V74"/>
        <path fill="#CF7C00" d="M172.344 75.74l1.312-.728v-.752l-1.312.732v.748"/>
        <path fill="#AD8355" d="M172.896 74L159 66.576l1.104-.576L174 73.43l-1.104.57"/>
        <path fill="#E2BC91" d="M172 92l-13-7.366V84l13 7.366V92"/>
        <path fill="#CF7C00" d="M172.596 93.608l.808-.46v-.756l-.808.46v.756"/>
        <path fill="#AD8355" d="M173.345 92L161 84.398l.652-.398L174 91.602l-.655.398"/>
        <path fill="#E2BC91" d="M221.014 116.072v-12.47l12.055 7.118v12.473l-12.055-7.121zM234 148.666v-38.5l-16.5-9.748v-7.874l-.932-.544-.568.328.568 8.644 2.223 1.31.363 38.35.572-.333v-37.46l.36.21v13.573l2.893 1.715.36 24.774.574-.33v-23.903l9.156 5.412.363 24.71.568-.334zM204.144 106.865l-11.693-6.996V87.621l11.693 6.999v12.245zM209 88.718l-.898-.537-.56.331.56 7.39L191.55 86l-.55.331.901 38.328.55-.329v-23.387l8.538 5.1.349 24.329.55-.325v-23.453l2.605 2.213.55-.331V95.153l.342.206.354 37.641.547-.328V95.899l2.161 1.955.553-.331v-8.805z"/>
        <path fill="#F8D9B5" d="M220.332 117.371v-12.105l11.763 6.908v12.105l-11.763-6.908zM233 149v-37.357l-16.092-9.457v-7.652L216 94v8.723l2.164 1.268v36.361l.912.528v-36.351l.351.2v13.18l2.822 1.651v23.204l.908.521v-23.19l8.938 5.252v23.125L233 149zM203.99 108.003l-12.06-7.042V88.63l12.06 7.039v12.335zM209 97.53v-7.793l-.933-.54v7.772L191 87v38.052l.93.547v-23.55l8.809 5.14v23.63l.926.534v-23.617l3.255 1.9V96.218l.357.204v37.03l.93.548V96.966L209 98.605V97.53z"/>
        <path fill="#CF7C00" d="M199 123.32v.68l-5-3.07v-8.4c0-.973.453-1.325.97-1.53-.248.244-.407.605-.407 1.185v8.4L199 123.32"/>
        <path fill="#3C2415" d="M200 115.45V123l-5-2.677v-8.226c0-.567.18-.921.458-1.16.572-.194 1.224-.258 1.551-.6l.18-.337.061.249h.007c.479 1.443 2.743 3.187 2.743 5.2"/>
        <path fill="#AC804F" d="M230 122l-5-3.22V115l5 3.227V122M200 104l-5-3.232V97l5 3.215V104"/>
        <path fill="#FFC900" d="M10.323 98.815c-2.649 0-5.16-.606-7.065-1.704C1.158 95.9 0 94.216 0 92.381c0-1.84 1.158-3.52 3.258-4.732 3.81-2.199 10.32-2.199 14.133 0 2.1 1.212 3.255 2.892 3.255 4.731 0 1.836-1.155 3.52-3.255 4.731-1.905 1.098-4.416 1.704-7.068 1.704z"/>
    </g>
</svg>
