<svg xmlns="http://www.w3.org/2000/svg" width="389" height="151" viewBox="0 0 389 151">
    <g fill="none" fill-rule="evenodd">
        <path fill="#000" d="M217.068 48.6c-.03.469 1.62 1.369 2.991 2.554a14.232 14.232 0 0 1 1.002-2.964c-.063.86 4.608 4.023 3.936 6.819 0 0 .501 3.192-1.371 4.683-.636-.276-.897-.4-1.347-.756-.333.543-.78.858-1.686 1.119-8.43-7.87-3.525-11.46-3.525-11.46v.006"/>
        <path fill="#894A0F" d="M217.347 47.407c.939-.183 1.521-1.257 1.17-3.273-.189-1.08 3.15-2.163 6.309-6.903 2.202-3.28 4.266-7.683 5.283-9.306 0-.003 1.023-2.553 6.411-2.86 1.047-.083 2.244.115 3.402.172l.156-.246c2.097-3.777 3.558-12.162 6.909-16.398.537-.507 1.32.255 2.16 1.617.552-1.152 1.17-2.205 1.86-3.096 2.007-1.848 7.305 13.617 7.305 13.617s.816 17.01-.519 17.952a75.556 75.556 0 0 0-3.465-.657c-.12 1.155-.303 1.947-.558 2.127-8.787-1.827-14.412-1.84-18.183-1.041-1.869 1.074-2.928 2.385-3.813 3.435-1.749 2.06-3.765 7.863-5.193 10.287-1.731 3.774-4.059 2.766-5.454 2.229-4.956-2.367-5.37-7.344-3.78-7.656M201.507 11.776c16.32 10.61 30.999 2.775 31.128 2.703l-1.026-3.984c-.027.015-17.322 9.504-29.34 0l-.762 1.28"/>
        <path fill="#603913" d="M203.544 10.885c.042 2.496-11.334 6.99-14.544-8.412 4.959 7.305 10.539 1.128 14.544 8.412"/>
        <path fill="#000" d="M305.577 106.705s1.878-.07 3.804-.402c-.168-.765-.279-1.422-.291-1.695l.039.045s1.362.675 2.922.948l.315-.147.111.207c.849.102 1.728.057 2.436-.288 0 0 3.666 4.152 2.865 6.114-.522.288-1.218.09-2.73-.294.156.876.015 1.56-.576 2.247-3.585.753-7.146-2.673-8.22-3.99-.453-.555-.669-2.01-.711-2.796l.036.05"/>
        <path fill="#894A0F" d="M304.26 66.064c.351-.831 1.644-.261 3.081.753.075-1.098.222-2.046.468-2.808.918-2.124 7.962 5 7.962 5s1.671 15.274-2.508 19.86c-1.083.583 2.052 14.638 1.65 16.504-3.792 4.476-8.331 1.95-9.222 1.389l-.114-.057-.036-.051c-.255-.315-1.617-2.298-1.68-6.486 2.109-11.694-1.446-28.338.399-34.104"/>
        <path fill="#B9691B" d="M335.361 79.38c-8.439.15-15.675 13.558-31.554 3.313-1.668-.963-38.463-33.888-43.332-36.477-4.863-2.592-10.794 3.795-10.794 3.795s-9.624-16.371-13.02-28.425c-5.379.312-11.025-.333-11.073-4.371-.168-9.222 11.496-19.473 23.958-16.776l.36.186c.3.06.603.135.888.219 3.168.98 23.325 18.453 35.868 25.842 3.939 2.418 16.101-.213 30.894 13.55 5.406 3.916 5.865-.341 15.537 6.358l2.268 32.787"/>
        <path fill="#FFF" d="M339.681 50.353c8.172-4.827 20.925-13.893 48.762 2.403-29.307-26.376-53.169-7.614-54.126-6.912-2.28 2.178 2.952 5.817 5.364 4.509"/>
        <path fill="#B9691B" d="M322.719 50.638v-.003l.009-.015a1.7 1.7 0 0 1 .804-.39l10.449-5.154c.471-.294 2.808-.585 4.668 1.125 2.91 2.49 2.163 5.889 2.163 5.889s5.781 4.263 9.09 8.748c3.297 4.485 2.403 5.874 2.214 6.98-.774 6.109 6.552 14.626 6.552 14.626s2.643 1.218 3.015 2.844c.786 3.393-.294 4.656-1.404 5.109l-7.239 3.51-.327.159-.033.009h-.003c-.888.348-1.794.192-1.794.192s-1.482.918-2.82.393c-1.332-.534-3.819-3.453-4.86-3.528-3.177-.22-7.176-1.221-8.775-2.238-2.07-1.308-4.683-.61-5.835-1.407-2.655-1.845-2.157-2.406-3.357-2.256l-3.51-30.903s-.198-2.622.993-3.69"/>
        <path fill="#B9691B" d="M325.236 85.23c-8.439.142-15.672 13.552-31.563 3.304-16.746-11.412-31.332-29.64-41.421-37.09-6.594-4.74-12.699 4.41-12.699 4.41s-14.19-24.152-14.19-35.393c0-11.247 7.344-13.143 11.988-11.724 3.168.972 26.646 16.413 39.18 23.799 6.315 3.723 9.675.987 27.24 11.622 8.961 5.577 1.935-2.472 19.194 8.283l2.271 32.79"/>
        <path fill="#3C2415" d="M325.647 85.216s-4.809-2.772-5.121-11.82c-2.196 10.182 5.121 11.82 5.121 11.82"/>
        <path fill="#FFADC0" d="M360.93 83.44c-1.227-1.068-2.889 1.329-5.097 2.538-2.391 1.32-5.001 1.098-6.3 2.12-1.647 1.33-1.152 3.664-.273 5.056 2.193 2.643 6.174 1.047 8.091-.612 1.596 0 7.692-4.107 3.579-9.102"/>
        <path fill="#000" d="M285.36 112.717c-.327-6.954 5.841-5.187 5.841-5.187-.024.099.084.348.375.834 2.526 5.33 1.602 8.355 1.992 9.258-.21.225-4.437 1.794-4.17 2.403-.348.393-1.584 1.43-3.555-.147a40.997 40.997 0 0 1-.471-7.158l-.012-.003"/>
        <path fill="#894A0F" d="M278.154 75.889c-3.957-11.598 7.854-20.103 7.854-20.103l17.1 20.202s1.167 5.616-3.585 6.15c.372 2.046 1.485 6.147 1.983 9.852-8.55 1.386-18.702-6.384-23.352-16.101"/>
        <path fill="#B9691B" d="M278.421 76.729c-3.087-8.268 7.587-20.943 7.587-20.943l12.633 3.489 4.467 16.713s-.078 1.233-.693 2.259c-1.011 2.45-2.694 3.069-4.155 3.05.363 2.044 1.236 5.122 2.598 9.01 1.788 5.09 4.344 8.034 4.491 12.048-.396 4.275-2.796 3.075-3.453 4.218-1.332 3.09-2.235 7.248-3.525 9.327l-.009.018-.126.195c-1.761 2.664-5.586 3.93-8.637 4.14-5.757-3.285-.981-13.11 1.602-12.723l.705.23c.999-1.622 1.866-3.296 1.647-6.341-.516-3.237-10.485-14.98-15.132-24.69"/>
        <path fill="#000" d="M245.256 96.94c.435-.64 1.668-1.656 1.668-1.656s.885-2.568 5.328 0c1.524 1.263 3.294 4.134 3.189 6.522-.051 1.04-2.859.402-2.859.402s-.081 2.589-1.23 2.445c-6.486-1.242-7.797-4.233-8.028-4.734-.387-.864-.462-1.866-.462-1.866s.462-1.338 2.394-1.113"/>
        <path fill="#894A0F" d="M245.877 31.093c2.148 6.56 2.937 15.558-.507 19.65-2.874-2.76-.879-11.493.507-19.65"/>
        <path fill="#B9691B" d="M229.713 50.866c-1.056-8.238-8.949-21.534-7.605-29.112.051-.303 1.338-9.516 7.812-14.73 2.649-.846 5.355 7.5 5.355 7.5s10.602 3.48 10.602 16.569c.585 37.794-5.613 30.093-4.281 39.24 1.326 9.144 10.509 22.245 10.656 24.95-.759 2.143-3.393 1.966-3.393 1.966-4.086.345-5.328 0-5.328 0s-.249-3.528-4.152-6.042c-1.116-.723-2.319-7.554-4.665-14.088-2.151-5.976-6.441-12.384-6.684-13.77-.495-2.904 2.73-4.24 1.683-12.483"/>
        <path fill="#000" d="M334.317 70.65c0 .529.507 1.255 1.131 1.618.627.363 1.131.225 1.131-.315 0-.534-.504-1.251-1.131-1.62-.624-.363-1.131-.222-1.131.318M351.018 90.19c-.111.558.105 1.266.489 1.58.381.313.771.106.894-.452.108-.57-.105-1.272-.492-1.584-.372-.31-.774-.108-.891.456"/>
        <path fill="#894A0F" d="M319.92 55.438c0 1.83 1.281 4.044 2.862 4.953 1.581.918 2.865.18 2.865-1.647 0-1.821-1.284-4.05-2.865-4.96-1.581-.911-2.862-.17-2.862 1.654"/>
        <path fill="#FFF" d="M320.733 54.193c.441-.282 1.05-.255 1.737.14 1.332.772 2.415 2.64 2.415 4.174 0 .723-.24 1.23-.618 1.509v.003l-.036.012-.132.072c-8.34 4.692-18.795 9.855 8.58 25.662-45.696-16.932-13.17-31.02-11.946-31.572"/>
        <path fill="#894A0F" d="M234.597 3.325c4.215-2.367 10.944.795 10.944.795s-9.051-8.571-12.906.402l1.962-1.197M336.579 57.586c6.792 6.387 9.336 12.243 9.336 12.243s1.38-5.634-9.336-12.243M340.812 52.09s-15.684 7.935-15.165 8.697c.51.759 15.165-8.697 15.165-8.697"/>
        <path fill="#DAD6C4" d="M36.513 55.843l-.561-.15-10.392-6a1.123 1.123 0 0 1-.411-1.536 1.134 1.134 0 0 1 1.536-.414l10.392 6c.54.312.723.999.414 1.539a1.13 1.13 0 0 1-.978.56zm20.787 12l-.561-.15-10.395-6a1.123 1.123 0 0 1-.411-1.536 1.134 1.134 0 0 1 1.536-.414l10.395 6c.537.312.72.999.411 1.539-.21.36-.588.56-.975.56zm20.784 12l-.561-.15-10.395-6a1.125 1.125 0 0 1 1.125-1.95l10.395 6a1.127 1.127 0 0 1-.564 2.1zm20.784 12l-.561-.15-10.392-6a1.126 1.126 0 0 1-.414-1.536 1.137 1.137 0 0 1 1.539-.414l10.392 6a1.127 1.127 0 0 1-.564 2.1zM120.16 105.509l-.561-.15-10.392-6a1.123 1.123 0 0 1-.411-1.536 1.13 1.13 0 0 1 1.536-.414l10.392 6a1.126 1.126 0 0 1-.564 2.1zm20.787 12l-.564-.15-10.392-6a1.123 1.123 0 0 1-.411-1.536 1.132 1.132 0 0 1 1.536-.414l10.392 6c.54.309.723.999.414 1.539-.21.36-.588.56-.975.56zm20.784 12l-.561-.15-10.395-6a1.126 1.126 0 0 1 1.125-1.95l10.395 6a1.125 1.125 0 1 1-.564 2.1z"/>
        <path fill="#DAD6C4" d="M18.694 53.268a1.127 1.127 0 0 1-.564-2.1l5.235-3.021a1.132 1.132 0 0 1 1.536.414 1.13 1.13 0 0 1-.41 1.539l-5.236 3.02-.56.148zM-2.09 65.27a1.127 1.127 0 0 1-.564-2.1l10.392-6c.54-.3 1.227-.126 1.536.414.312.54.126 1.227-.41 1.536l-10.393 6-.56.15zm-20.784 12a1.127 1.127 0 0 1-.564-2.1l10.392-6a1.132 1.132 0 0 1 1.536.414c.312.54.126 1.227-.41 1.536l-10.393 6-.56.15zM211.297 110.123a1.13 1.13 0 0 1-.978-.561 1.127 1.127 0 0 1 .414-1.54l10.389-6a1.124 1.124 0 1 1 1.125 1.95l-10.389 6-.561.15zm-20.787 12a1.125 1.125 0 0 1-.564-2.1l10.392-6a1.129 1.129 0 0 1 1.536.414 1.123 1.123 0 0 1-.411 1.536l-10.392 6-.561.15zm-20.784 12a1.126 1.126 0 0 1-.564-2.1l10.392-6a1.129 1.129 0 0 1 1.536.414 1.123 1.123 0 0 1-.411 1.536l-10.392 6-.561.15zM93.832 108.71a1.125 1.125 0 0 1-.564-2.1l10.395-6a1.132 1.132 0 0 1 1.536.414 1.13 1.13 0 0 1-.411 1.539l-10.395 6-.561.147zm-20.781 12a1.13 1.13 0 0 1-.978-.561 1.128 1.128 0 0 1 .414-1.54l10.392-6c.54-.3 1.227-.122 1.536.415a1.13 1.13 0 0 1-.411 1.539l-10.392 6-.561.147zm-20.787 12c-.387 0-.765-.201-.975-.561a1.13 1.13 0 0 1 .411-1.54l10.392-6c.54-.3 1.227-.125 1.536.415.312.54.129 1.227-.411 1.539l-10.392 6-.561.147zm-20.784 12a1.127 1.127 0 0 1-.564-2.1l10.392-6a1.127 1.127 0 0 1 1.125 1.953l-10.392 6-.561.147zm-20.784 12a1.127 1.127 0 0 1-.564-2.1l10.392-6a1.127 1.127 0 0 1 1.125 1.953l-10.392 6-.561.147zm-20.784 12a1.127 1.127 0 0 1-.564-2.1l10.392-6c.54-.3 1.227-.126 1.536.414a1.13 1.13 0 0 1-.411 1.539l-10.392 6-.561.147zm-20.784 12a1.13 1.13 0 0 1-.978-.561 1.128 1.128 0 0 1 .414-1.54l10.389-6a1.134 1.134 0 0 1 1.539.415c.309.54.126 1.227-.414 1.539l-10.389 6-.561.147z"/>
    </g>
</svg>
