<svg xmlns="http://www.w3.org/2000/svg" width="176" height="102" viewBox="0 0 176 102">
    <g fill="none" fill-rule="evenodd">
        <path fill="#DAD6C4" d="M107.01 90.033a.68.68 0 0 1-.59-.347.698.698 0 0 1 .25-.947l6.299-3.696a.68.68 0 0 1 .933.253.7.7 0 0 1-.251.948l-6.299 3.697-.342.092zM95.085 96.81a.68.68 0 0 1-.59-.348.7.7 0 0 1 .25-.946l6.301-3.696a.679.679 0 0 1 .931.253.7.7 0 0 1-.249.948l-6.3 3.696-.343.093zm-12.774 6.776a.685.685 0 0 1-.593-.347.7.7 0 0 1 .251-.946l6.3-3.697a.68.68 0 0 1 .933.254.701.701 0 0 1-.25.948l-6.301 3.696-.34.092zm-11.925 6.777a.68.68 0 0 1-.591-.347.699.699 0 0 1 .249-.947l6.3-3.696a.68.68 0 0 1 .934.254.7.7 0 0 1-.251.948l-6.3 3.696-.341.092zM63.446 60.99a.68.68 0 0 1-.59-.347.698.698 0 0 1 .25-.947L69.405 56a.68.68 0 0 1 .932.253.7.7 0 0 1-.25.948l-6.3 3.697-.34.092zm-11.925 6.777a.68.68 0 0 1-.591-.348.7.7 0 0 1 .251-.946l6.3-3.696a.679.679 0 0 1 .932.253.7.7 0 0 1-.25.948l-6.3 3.696-.342.093zm-12.774 6.776a.685.685 0 0 1-.593-.347.7.7 0 0 1 .25-.946l6.3-3.697a.68.68 0 0 1 .934.254.701.701 0 0 1-.251.948l-6.3 3.696-.34.092zM26.822 81.32a.68.68 0 0 1-.592-.347.699.699 0 0 1 .25-.946l6.3-3.696a.68.68 0 0 1 .933.253.7.7 0 0 1-.25.948l-6.301 3.696-.34.092z"/>
        <path fill="#000" fill-opacity=".147" d="M21.54 78.452l-.344-.093-6.33-3.722a.705.705 0 0 1-.252-.955.682.682 0 0 1 .937-.255l6.331 3.722c.329.194.442.62.252.953a.683.683 0 0 1-.594.35zm11.987 6.825l-.344-.093-6.333-3.722a.706.706 0 0 1-.25-.955.68.68 0 0 1 .935-.255l6.333 3.722c.33.194.441.62.253.953a.683.683 0 0 1-.594.35zm12.84 7.678l-.342-.093-6.333-3.722a.705.705 0 0 1-.252-.954.68.68 0 0 1 .938-.255l6.332 3.723c.33.192.44.62.252.953a.69.69 0 0 1-.596.348zm12.842 6.826l-.342-.094-6.333-3.723a.705.705 0 0 1-.252-.954.683.683 0 0 1 .938-.255l6.333 3.724c.327.192.44.62.25.953a.685.685 0 0 1-.594.349zm11.986 7.678l-.344-.093-6.33-3.724a.703.703 0 0 1-.253-.953.68.68 0 0 1 .938-.255l6.33 3.723c.33.192.443.62.253.954a.685.685 0 0 1-.594.348z"/>
        <path fill="#E2BC91" d="M141.584 77.69l39.934-23.356v-34.73l-39.934 23.344V77.69"/>
        <path fill="#FF9800" d="M141.584 77.69l-7.987-4.201V38.482l7.987 4.198v35.01"/>
        <path fill="#F5B400" d="M140.854 42.838l40.664-23.406-7.256-4.184-40.665 23.413 7.257 4.177"/>
        <path fill="#C39D73" d="M142.31 42.838l39.934-23.07v-1.616L142.31 41.225v1.613"/>
        <path fill="#FF9800" d="M142.31 44.29l-9.439-6.19v-1.796l9.44 6.187v1.8"/>
        <path fill="#C39D73" d="M142.574 42.112l40.396-23.415-9.705-5.628-40.394 23.415 9.703 5.628"/>
        <path fill="#FFEFDD" d="M178.164 21.056l-2.004-.97v-5.565l2.004.972v5.563M172.352 23.96l-1.998-.98v-5.554l1.998.966v5.568"/>
        <path fill="#E2BC91" d="M172.805 23.96l2.905-2.058v-5.928l-2.905 2.047v5.94"/>
        <path fill="#F8D9B5" d="M172.334 18.878l3.376-1.929-1.71-.975-3.373 1.933 1.707.97"/>
        <path fill="#FFEFDD" d="M166.542 27.59l-1.995-.978v-5.556l1.995.974v5.56"/>
        <path fill="#E2BC91" d="M166.997 27.59l2.904-2.057v-5.929l-2.904 2.058v5.929"/>
        <path fill="#F8D9B5" d="M167.25 21.782l3.377-1.935-1.707-.97-3.375 1.929 1.704.976"/>
        <path fill="#FFEFDD" d="M161.461 30.495l-1.998-.974v-5.56l1.998.971v5.563"/>
        <path fill="#E2BC91" d="M161.188 30.495l2.904-2.06v-5.927l-2.904 2.054v5.933"/>
        <path fill="#F8D9B5" d="M161.443 24.686l3.375-1.925-1.706-.979-3.376 1.933 1.707.971"/>
        <path fill="#FFEFDD" d="M155.654 34.125l-2.001-.972v-5.562l2.001.967v5.567"/>
        <path fill="#E2BC91" d="M156.106 34.851l2.904-2.056v-5.93l-2.904 2.054v5.932"/>
        <path fill="#F8D9B5" d="M155.635 29.043l3.375-1.93-1.707-.974-3.376 1.935 1.708.969"/>
        <path fill="#FFEFDD" d="M149.844 37.03l-1.998-.972v-5.563l1.998.967v5.568"/>
        <path fill="#E2BC91" d="M150.297 37.756l2.904-2.054V29.77l-2.904 2.05v5.937"/>
        <path fill="#F8D9B5" d="M149.826 31.947l3.375-1.926-1.705-.978-3.377 1.936 1.707.968"/>
        <path fill="#FF9800" d="M144.037 39.934l-2.001-.975v-5.56l2 .97v5.565"/>
        <path fill="#E2BC91" d="M144.488 41.386l2.905-2.055V33.4l-2.905 2.052v5.935"/>
        <path fill="#F8D9B5" d="M144.018 35.578l3.375-1.93-1.706-.975-3.377 1.93 1.708.975"/>
        <path fill="#FFEFDD" d="M170.9 17.426l-1.998-.976V10.89l1.998.971v5.564"/>
        <path fill="#E2BC91" d="M171.353 17.426l2.904-2.057v-5.93l-2.904 2.051v5.936"/>
        <path fill="#F8D9B5" d="M170.88 11.617l3.377-1.93-1.708-.974-3.374 1.93 1.706.974"/>
        <path fill="#FFEFDD" d="M165.093 20.33l-2.001-.97v-5.565l2 .977v5.558"/>
        <path fill="#E2BC91" d="M165.545 20.33l2.904-2.053v-5.934l-2.904 2.056v5.931"/>
        <path fill="#F8D9B5" d="M165.074 14.521l3.375-1.928-1.708-.976-3.375 1.927 1.708.977"/>
        <path fill="#FFEFDD" d="M159.283 23.234l-1.998-.973V16.7l1.998.976v5.558"/>
        <path fill="#E2BC91" d="M159.736 23.234l2.904-2.052v-5.934l-2.904 2.054v5.932"/>
        <path fill="#F8D9B5" d="M159.263 18.152l3.377-1.93-1.708-.974-3.374 1.925 1.705.979"/>
        <path fill="#FFEFDD" d="M154.202 26.865l-2.001-.976V20.33l2 .973v5.562"/>
        <path fill="#E2BC91" d="M153.927 26.865l2.905-2.057v-5.93l-2.905 2.051v5.936"/>
        <path fill="#F8D9B5" d="M153.457 21.056l3.375-1.928-1.706-.976-3.377 1.928 1.708.976"/>
        <path fill="#FFEFDD" d="M148.392 29.769l-1.998-.976v-5.559l1.998.974v5.561"/>
        <path fill="#E2BC91" d="M148.119 29.769l2.904-2.053v-5.934l-2.904 2.054v5.933"/>
        <path fill="#F8D9B5" d="M147.646 23.96l3.377-1.928-1.706-.976-3.376 1.929 1.705.975"/>
        <path fill="#FF9800" d="M142.586 33.4l-2.004-.977v-5.558l2.004.973V33.4"/>
        <path fill="#E2BC91" d="M142.31 33.4l2.905-2.055v-5.932l-2.905 2.052v5.934"/>
        <path fill="#F8D9B5" d="M143.294 27.59l3.373-1.924-1.708-.98-3.375 1.93 1.71.975"/>
        <path fill="#FF9800" d="M137.502 36.304l-2-.977V29.77l2 .967v5.568"/>
        <path fill="#CF7C00" d="M136.502 36.304l2.904-2.059v-5.928l-2.904 2.05v5.937"/>
        <path fill="#F5B400" d="M137.484 30.495l3.374-1.931-1.706-.973-3.376 1.933 1.708.971"/>
        <path fill="#FFEFDD" d="M118.35 78.416l-39.934-23.35V20.33l39.934 23.35v34.736"/>
        <path fill="#CF7C00" d="M118.35 78.416l7.987-4.2V39.207l-7.987 4.203v35.005"/>
        <path fill="#F8D9B5" d="M117.629 44.29L76.964 20.877l7.258-4.177 40.662 23.408-7.255 4.182"/>
        <path fill="#FFEFDD" d="M116.172 44.29L76.238 21.224v-1.62l39.934 23.067v1.62"/>
        <path fill="#CF7C00" d="M116.898 45.017l9.439-6.185V37.03l-9.44 6.181v1.806"/>
        <path fill="#F8D9B5" d="M116.636 42.112L76.238 18.7l9.703-5.63 40.396 23.413-9.701 5.63"/>
        <path fill="#F8D9B5" d="M119.076 42.112L79.142 18.75V5.809l39.934 23.355v12.948"/>
        <path fill="#CF7C00" d="M119.076 42.112l5.808-3.44V26.138l-5.808 3.436v12.537"/>
        <path fill="#E2BC91" d="M120.19 29.043L79.142 5.724l6.146-3.546L126.337 25.5l-6.147 3.544M86.403 20.783v1l-1.816-1.13-1.815-1.123v-6.915c0-.32.388-.31.807-.21v6.626l1.815 1.126 1.009.626"/>
        <path fill="#3C2415" d="M87.129 14.899v6.157l-1.038-.651-1.867-1.171v-6.89a6.605 6.605 0 0 1 1.038.365s1.867 1.469 1.867 2.19"/>
        <path fill="#CF7C00" d="M111.815 59.83v.434l-5.082-2.77v-8.847l.394.21v8.417l4.688 2.555"/>
        <path fill="#E2BC91" d="M111.815 51.35v8.914l-5.082-2.706v-8.911l5.082 2.703"/>
        <path fill="#3C2415" d="M107.462 49.452c-.387-.185-.703-.035-.703.347v6.871l1.4.69v-6.88c0-.371-.311-.839-.697-1.028M109.638 50.906c-.383-.19-.702-.036-.702.345v6.872l1.402.689v-6.876c0-.382-.313-.84-.7-1.03"/>
        <path fill="#3C2415" d="M110.363 51.63c-.386-.187-.7-.03-.7.35v6.874l1.4.684v-6.877c0-.376-.314-.842-.7-1.031"/>
        <path fill="#FF9800" d="M110.963 51.156v2.094l.252.148V51.31l-.252-.154"/>
        <path fill="#CF7C00" d="M110.71 51.62l.503-.291.255.142-.505.302-.253-.154"/>
        <path fill="#CF7C00" d="M110.836 51.384v2.088l.506-.302v-2.088l-.506.302"/>
        <path fill="#FF9800" d="M106.606 48.252v2.091l.253.151v-2.091l-.253-.151"/>
        <path fill="#CF7C00" d="M106.355 48.72l.503-.298.252.15-.502.3-.253-.151"/>
        <path fill="#CF7C00" d="M106.481 48.477v2.091l.503-.3v-2.09l-.503.299"/>
        <path fill="#FF9800" d="M111.815 51.551l-5.808-2.69v-.214l5.808 2.687v.217"/>
        <path fill="#CF7C00" d="M110.834 51.842l.51-.288v-.293l-.51.281v.3"/>
        <path fill="#E2BC91" d="M111.386 51.551l-5.38-2.697.427-.207 5.382 2.7-.429.204"/>
        <path fill="#FF9800" d="M111.09 60.264l-5.083-2.672v-.232l5.082 2.667v.237"/>
        <path fill="#CF7C00" d="M110.932 61.228l.314-.18v-.296l-.314.174v.302"/>
        <path fill="#F5B400" d="M110.833 60.264l-4.826-2.763.251-.141 4.831 2.763-.256.141"/>
        <path fill="#CF7C00" d="M111.815 70.717v.438l-5.082-2.841v-6.598l.394.216v6.16l4.688 2.625"/>
        <path fill="#E2BC91" d="M111.815 63.587v6.116l-5.082-2.604V60.99l5.082 2.597"/>
        <path fill="#3C2415" d="M111.815 65.017v5.412l-5.082-2.577v-5.41l5.082 2.575"/>
        <path fill="#F5B400" d="M111.815 66.799l-5.082-2.65v-.255l5.082 2.653v.252M108.057 65.347l.006 3.492.25.138v-3.503l-.256-.127"/>
        <path fill="#F5B400" d="M109.51 63.168v5.68l.255.129v-5.685l-.256-.124M110.235 66.073v3.503l.256.127v-3.488l-.256-.142"/>
        <path fill="#FF9800" d="M110.963 64.227v2.094l.252.145v-2.082l-.252-.157"/>
        <path fill="#CF7C00" d="M110.71 64.689l.503-.294.255.151-.505.3-.253-.157"/>
        <path fill="#CF7C00" d="M110.836 64.455v2.082l.506-.299v-2.082l-.506.299"/>
        <path fill="#FF9800" d="M106.606 61.327v2.085l.253.145v-2.09l-.253-.14"/>
        <path fill="#CF7C00" d="M106.355 61.799l.503-.305.252.145-.502.3-.253-.14"/>
        <path fill="#CF7C00" d="M106.481 61.546v2.091l.503-.299v-2.09l-.503.298"/>
        <path fill="#FF9800" d="M111.815 63.894l-5.808-2.687v-.217l5.808 2.69v.214"/>
        <path fill="#CF7C00" d="M110.834 64.915l.51-.29v-.3l-.51.294v.296"/>
        <path fill="#E2BC91" d="M111.386 63.894l-5.38-2.695.427-.209 5.382 2.691-.429.213"/>
        <path fill="#FF9800" d="M111.09 71.155l-5.083-2.672v-.232l5.082 2.678v.226"/>
        <path fill="#CF7C00" d="M110.932 71.39l.314-.171v-.3l-.314.184v.287"/>
        <path fill="#E2BC91" d="M110.833 71.155l-4.826-2.759.251-.145 4.831 2.756-.256.148"/>
        <path fill="#CF7C00" d="M103.102 55.478v.43l-5.082-2.77V44.29l.392.215v8.42l4.69 2.553"/>
        <path fill="#E2BC91" d="M103.102 46.993v8.915l-5.082-2.703V44.29l5.082 2.703"/>
        <path fill="#3C2415" d="M99.472 45.096c-.386-.187-.7-.034-.7.343v6.88l1.4.684V46.13c0-.377-.314-.843-.7-1.033M101.649 45.824c-.387-.187-.697-.042-.697.338v6.882l1.397.685v-6.877c0-.382-.311-.846-.7-1.028"/>
        <path fill="#3C2415" d="M102.378 46.549c-.39-.187-.703-.037-.703.343v6.883l1.403.68v-6.879c0-.374-.317-.84-.7-1.027"/>
        <path fill="#FF9800" d="M103.7 47.527v2.088l.256.151v-2.09l-.255-.149"/>
        <path fill="#CF7C00" d="M103.448 46.546l.502-.302.259.153-.506.297-.255-.148"/>
        <path fill="#CF7C00" d="M103.576 46.297v2.091l.505-.305v-2.082l-.505.296"/>
        <path fill="#FF9800" d="M97.893 43.174v2.088l.253.145v-2.091l-.253-.142"/>
        <path fill="#CF7C00" d="M97.64 43.641l.503-.296.256.151-.506.288-.252-.143"/>
        <path fill="#CF7C00" d="M97.767 43.389v2.09l.505-.29v-2.088l-.505.288"/>
        <path fill="#FF9800" d="M103.102 47.195l-5.808-2.69v-.215l5.808 2.692v.213"/>
        <path fill="#CF7C00" d="M103.574 46.76l.509-.287v-.296l-.509.29v.294"/>
        <path fill="#E2BC91" d="M103.402 47.195L98.02 44.5l.426-.21 5.382 2.693-.426.21M103.102 56.634L98.02 53.96v-.232l5.082 2.675v.23"/>
        <path fill="#CF7C00" d="M103.672 56.144l.313-.183v-.29l-.313.18v.293"/>
        <path fill="#F5B400" d="M102.846 55.908l-4.826-2.766.256-.139 4.826 2.759-.256.146"/>
        <path fill="#CF7C00" d="M103.102 65.627v.446l-5.082-2.848v-6.591l.392.217v6.16l4.69 2.616"/>
        <path fill="#E2BC91" d="M103.102 59.959v6.114l-5.082-2.597V57.36l5.082 2.599"/>
        <path fill="#3C2415" d="M103.828 59.932v5.415l-5.082-2.58V57.36l5.082 2.572"/>
        <path fill="#F5B400" d="M103.828 62.442l-5.082-2.65v-.254l5.082 2.655v.25M99.344 60.264l.003 3.495.253.135v-3.5l-.256-.13"/>
        <path fill="#F5B400" d="M100.795 58.086v5.683l.258.125-.003-5.682-.255-.126M102.248 61.716v3.5l.256.13v-3.49l-.256-.14"/>
        <path fill="#FF9800" d="M103.7 59.869v2.094l.256.148v-2.09l-.255-.152"/>
        <path fill="#CF7C00" d="M103.448 59.612l.502-.3.259.155-.506.296-.255-.151M103.576 60.093v2.09l.505-.304v-2.083l-.505.297"/>
        <path fill="#FF9800" d="M97.893 56.966v2.094l.253.145v-2.09l-.253-.149"/>
        <path fill="#CF7C00" d="M97.64 56.71l.503-.3.256.145-.506.302-.252-.148M97.767 57.191v2.091l.505-.302v-2.09l-.505.301"/>
        <path fill="#FF9800" d="M103.102 59.538l-5.808-2.693v-.211l5.808 2.69v.214"/>
        <path fill="#CF7C00" d="M103.574 59.828l.509-.284v-.296l-.509.287v.293"/>
        <path fill="#E2BC91" d="M103.402 59.538l-5.382-2.695.426-.21 5.382 2.696-.426.209"/>
        <path fill="#FF9800" d="M103.102 66.073l-5.082-2.677v-.228l5.082 2.679v.226"/>
        <path fill="#CF7C00" d="M103.672 67.031l.313-.168v-.297l-.313.177v.288"/>
        <path fill="#F5B400" d="M102.846 66.073l-4.826-2.755.256-.15 4.826 2.762-.256.143"/>
        <path fill="#CF7C00" d="M95.842 50.396v.43l-5.083-2.774v-8.844l.397.222v8.41l4.686 2.556"/>
        <path fill="#E2BC91" d="M95.842 41.908v8.917l-5.083-2.707v-8.91l5.083 2.7"/>
        <path fill="#3C2415" d="M92.21 40.738c-.387-.182-.7-.037-.7.343v6.883l1.403.683v-6.879c0-.374-.317-.84-.703-1.03"/>
        <path fill="#3C2415" d="M92.934 40.74c-.383-.186-.7-.039-.7.346v6.874l1.406.687v-6.874c0-.382-.316-.843-.706-1.032M95.117 42.194c-.39-.192-.703-.034-.703.34v6.88l1.403.685v-6.875c0-.377-.317-.842-.7-1.03"/>
        <path fill="#FF9800" d="M94.988 42.446v2.088l.255.149v-2.094l-.255-.143"/>
        <path fill="#CF7C00" d="M94.735 42.915l.5-.296.261.151-.505.288-.256-.143"/>
        <path fill="#CF7C00" d="M94.863 42.661v2.094l.505-.293v-2.088l-.505.287"/>
        <path fill="#FF9800" d="M89.905 39.542v2.088l.256.148V39.69l-.256-.148"/>
        <path fill="#CF7C00" d="M89.655 40.007l.5-.294.256.148-.5.294-.256-.148"/>
        <path fill="#E2BC91" d="M89.783 39.763v2.088l.5-.294V39.47l-.5.294"/>
        <path fill="#FF9800" d="M95.116 42.112l-5.81-2.693v-.211l5.81 2.697v.207"/>
        <path fill="#CF7C00" d="M94.863 43.126l.505-.285v-.29l-.505.29v.285"/>
        <path fill="#E2BC91" d="M94.691 42.112l-5.384-2.693.427-.211 5.382 2.693-.425.211"/>
        <path fill="#FF9800" d="M95.842 51.551l-5.083-2.673v-.231l5.083 2.668v.236"/>
        <path fill="#CF7C00" d="M94.956 51.79l.32-.188v-.29l-.32.177v.302"/>
        <path fill="#E2BC91" d="M95.58 51.551l-4.82-2.76.255-.144 4.827 2.76-.261.144"/>
        <path fill="#CF7C00" d="M95.842 60.545v.445l-5.083-2.841V51.55l.397.223v6.157l4.686 2.614"/>
        <path fill="#E2BC91" d="M95.842 54.879v6.111l-5.083-2.597v-6.116l5.083 2.602"/>
        <path fill="#3C2415" d="M95.842 56.307v5.41l-5.083-2.579V53.73l5.083 2.578"/>
        <path fill="#F5B400" d="M95.842 57.36l-5.083-2.66v-.245l5.083 2.648v.257M92.086 55.908v3.495l.25.135V56.04l-.25-.132"/>
        <path fill="#F5B400" d="M92.81 53.73v5.682l.255.126V53.85l-.255-.12M93.534 56.634v3.503l.259.127v-3.5l-.259-.13"/>
        <path fill="#FF9800" d="M94.988 54.785v2.097l.255.148V54.94l-.255-.154"/>
        <path fill="#CF7C00" d="M94.735 55.251l.5-.293.261.154-.505.293-.256-.154"/>
        <path fill="#CF7C00" d="M94.863 55.009v2.09l.505-.298v-2.086l-.505.294"/>
        <path fill="#FF9800" d="M89.905 51.884v2.085l.256.154v-2.094l-.256-.145"/>
        <path fill="#CF7C00" d="M89.655 52.356l.5-.302.256.15-.5.297-.256-.145"/>
        <path fill="#E2BC91" d="M89.783 52.104v2.094l.5-.299v-2.09l-.5.295"/>
        <path fill="#FF9800" d="M95.116 55.908l-5.81-2.692v-.213l5.81 2.692v.213"/>
        <path fill="#CF7C00" d="M94.863 55.472l.505-.285v-.296l-.505.288v.293"/>
        <path fill="#F5B400" d="M94.691 54.455l-5.384-2.695.427-.209 5.382 2.695-.425.21"/>
        <path fill="#FF9800" d="M95.842 62.442l-5.083-2.678v-.226l5.083 2.674v.23"/>
        <path fill="#CF7C00" d="M94.956 61.95l.32-.171v-.297l-.32.175v.293"/>
        <path fill="#F5B400" d="M95.58 60.99l-4.82-2.754.255-.15 4.827 2.763-.261.141"/>
        <path fill="#CF7C00" d="M87.855 45.313v.43l-5.083-2.776v-8.842l.395.225v8.405l4.688 2.558"/>
        <path fill="#E2BC91" d="M87.855 36.826v8.917l-5.083-2.71v-8.908l5.083 2.7"/>
        <path fill="#3C2415" d="M83.495 36.386c-.386-.19-.697-.042-.697.338v6.884l1.4.682V37.41c0-.382-.316-.833-.703-1.023M85.677 37.111c-.39-.19-.7-.037-.7.342v6.876l1.4.688v-6.874c0-.382-.314-.845-.7-1.032"/>
        <path fill="#3C2415" d="M86.404 37.109c-.39-.185-.703-.037-.703.343v6.88l1.403.685v-6.88c0-.375-.31-.84-.7-1.028"/>
        <path fill="#FF9800" d="M87 37.367v2.088l.257.142-.003-2.094-.253-.136"/>
        <path fill="#CF7C00" d="M86.751 37.837l.5-.299.255.151-.502.285-.253-.137"/>
        <path fill="#CF7C00" d="M86.877 37.577l.003 2.094.5-.293v-2.085l-.503.284"/>
        <path fill="#FF9800" d="M81.192 34.46v2.089l.256.145V34.61l-.256-.148"/>
        <path fill="#CF7C00" d="M82.393 34.926l.503-.297.255.148-.502.297-.256-.148"/>
        <path fill="#CF7C00" d="M82.521 34.683v2.085l.502-.296v-2.085l-.502.296"/>
        <path fill="#FF9800" d="M87.855 37.03l-5.809-2.691v-.214l5.809 2.698v.207"/>
        <path fill="#CF7C00" d="M86.876 38.039l.505-.282v-.284l-.505.281v.285"/>
        <path fill="#E2BC91" d="M87.43 37.03l-5.384-2.692.427-.213 5.382 2.7-.425.205"/>
        <path fill="#FF9800" d="M87.129 47.195l-5.083-2.677v-.228l5.083 2.673v.232"/>
        <path fill="#CF7C00" d="M86.972 46.707l.314-.183v-.294l-.314.18v.297"/>
        <path fill="#E2BC91" d="M86.872 47.195l-4.826-2.757.254-.148 4.829 2.76-.257.145"/>
        <path fill="#CF7C00" d="M87.855 56.915v.445l-5.083-2.84v-6.6l.395.223v6.154l4.688 2.618"/>
        <path fill="#E2BC91" d="M87.855 50.52v6.114l-5.083-2.6V47.92l5.083 2.6"/>
        <path fill="#3C2415" d="M87.855 51.222v5.412l-5.083-2.58v-5.407l5.083 2.575"/>
        <path fill="#F5B400" d="M87.855 53.73l-5.083-2.655v-.25l5.083 2.647v.257"/>
        <path fill="#F5B400" d="M84.098 50.825v3.496l.253.134v-3.498l-.253-.132M85.547 50.099v5.685l.259.124v-5.68l-.259-.129M86.278 53.003v3.5l.25.13v-3.5l-.25-.13"/>
        <path fill="#FF9800" d="M87 50.433v2.091l.257.145-.003-2.088-.253-.148"/>
        <path fill="#CF7C00" d="M86.751 50.175l.5-.3.255.154-.502.294-.253-.148M86.877 50.654l.003 2.088.5-.3V50.36l-.503.294"/>
        <path fill="#FF9800" d="M81.192 47.53v2.077l.256.157V47.67l-.256-.14"/>
        <path fill="#CF7C00" d="M82.393 47.277l.503-.304.255.15-.502.294-.256-.14M82.521 47.747v2.094l.502-.297v-2.09l-.502.293"/>
        <path fill="#FF9800" d="M87.855 50.825l-5.809-2.685v-.22l5.809 2.694v.211"/>
        <path fill="#CF7C00" d="M86.876 50.387l.505-.288v-.288l-.505.285v.29"/>
        <path fill="#E2BC91" d="M87.43 50.099l-5.384-2.695.427-.21 5.382 2.698-.425.207"/>
        <path fill="#FF9800" d="M87.129 57.36l-5.083-2.679v-.226l5.083 2.674v.23"/>
        <path fill="#CF7C00" d="M86.972 56.867l.314-.177v-.29l-.314.174v.293"/>
        <path fill="#E2BC91" d="M86.872 57.36l-4.826-2.761.254-.144 4.829 2.764-.257.14M79.48 12.343v9.068l.776.371-.006-9.075-.77-.364"/>
        <path fill="#F5B400" d="M79.142 12.048l2.15-1.31.754.45-2.159 1.308-.745-.448"/>
        <path fill="#E2BC91" d="M80.205 12.76l.006 9.748 2.224-1.127v-9.764l-2.23 1.143"/>
        <path fill="#FF9800" d="M85.287 15.248l.003 9.072.776.366v-9.07l-.779-.368"/>
        <path fill="#F5B400" d="M84.95 14.947l2.151-1.304.754.444-2.151 1.313-.754-.453"/>
        <path fill="#E2BC91" d="M85.29 15.67v9.743l2.225-1.126-.003-9.766-2.222 1.148M91.485 23.688v.998l-1.814-1.123-1.816-1.126v-6.913c0-.324.39-.315.809-.215v6.628l1.814 1.126 1.007.625"/>
        <path fill="#3C2415" d="M91.485 17.81v6.15l-1.037-.649-1.867-1.17v-6.893c.5.12 1.037.372 1.037.372s1.867 1.476 1.867 2.19"/>
        <path fill="#FF9800" d="M89.645 18.152v9.077l.776.362v-9.075l-.776-.364"/>
        <path fill="#F5B400" d="M89.307 17.854l2.156-1.304.748.45-2.153 1.301-.751-.447"/>
        <path fill="#E2BC91" d="M89.648 17.838v9.753l2.222-1.126V16.7l-2.222 1.138M96.568 27.318v.999l-1.816-1.124-1.815-1.126v-6.914c0-.324.39-.315.809-.21v6.624l1.815 1.127 1.007.624"/>
        <path fill="#3C2415" d="M96.568 21.43v6.16l-1.036-.649-1.869-1.171v-6.892c.497.113 1.037.37 1.037.37s1.868 1.468 1.868 2.182"/>
        <path fill="#FFEFDD" d="M94.73 21.056v9.075l.772.364v-9.077l-.773-.362"/>
        <path fill="#F5B400" d="M94.39 20.763l2.154-1.31.75.447-2.155 1.307-.75-.444"/>
        <path fill="#E2BC91" d="M95.454 20.747v9.748l2.227-1.118-.005-9.773-2.222 1.143M102.376 30.224v.997l-1.81-1.122-1.82-1.128v-6.913c0-.321.392-.317.81-.213v6.63l1.811 1.123 1.01.626"/>
        <path fill="#3C2415" d="M102.376 24.336v6.159l-1.039-.652-1.865-1.166v-6.895c.497.116 1.04.368 1.04.368s1.864 1.472 1.864 2.186"/>
        <path fill="#FF9800" d="M100.535 23.96l.003 9.082.775.357-.003-9.072-.775-.367"/>
        <path fill="#F5B400" d="M100.198 23.66l2.149-1.301.755.447-2.154 1.304-.75-.45"/>
        <path fill="#E2BC91" d="M100.536 23.65l.003 9.75 2.225-1.116v-9.776l-2.228 1.141M106.733 33.124v1.001l-1.811-1.128-1.82-1.121V24.96c0-.319.393-.312.809-.215v6.624l1.815 1.131 1.007.624"/>
        <path fill="#3C2415" d="M106.733 27.247v6.152l-1.036-.649-1.869-1.175v-6.889c.5.12 1.041.37 1.041.37s1.864 1.475 1.864 2.191"/>
        <path fill="#FFEFDD" d="M104.891 26.865l.003 9.072.776.367v-9.075l-.779-.364"/>
        <path fill="#F5B400" d="M105.28 26.566l2.151-1.302.754.448-2.151 1.3-.753-.446"/>
        <path fill="#E2BC91" d="M105.622 26.55v9.754l2.222-1.123v-9.768l-2.222 1.137M111.815 36.028v1.002L110 35.903l-1.815-1.123v-6.915c0-.319.388-.314.805-.213v6.628l1.822 1.126 1.003.622"/>
        <path fill="#3C2415" d="M111.815 30.155v6.149l-1.032-.647-1.872-1.172v-6.894a6.108 6.108 0 0 1 1.038.373s1.866 1.465 1.866 2.191"/>
        <path fill="#FFEFDD" d="M110.701 29.769v9.075l.776.364V30.13l-.776-.362"/>
        <path fill="#F5B400" d="M109.637 29.474l2.153-1.307.751.45-2.153 1.302-.751-.445"/>
        <path fill="#E2BC91" d="M111.429 29.455v9.753l2.225-1.126-.003-9.765-2.222 1.138"/>
        <path fill="#FFEFDD" d="M115.446 32.673L76.964 10.195v-.756l38.482 22.479v.755"/>
        <path fill="#CF7C00" d="M115.052 33.032l2.24-1.272v-.898l-2.24 1.275v.895"/>
        <path fill="#F8D9B5" d="M115.775 31.947L77.69 9.782l1.837-1.07 38.097 22.173-1.85 1.062"/>
        <path fill="#C49E74" d="M83.224 8.713l2.001-.97V2.178l-2.001.975v5.56"/>
        <path fill="#FFEFDD" d="M82.772 8.713l-2.904-2.054V.726l2.904 2.054v5.933"/>
        <path fill="#E2BC91" d="M83.242 2.904L79.868.978 81.576 0l3.374 1.929-1.708.975M79.48 2.904v8.348l.776.365-.006-8.345-.77-.368"/>
        <path fill="#FFEFDD" d="M79.142 2.604l2.15-1.301.754.447-2.159 1.304-.745-.45"/>
        <path fill="#E2BC91" d="M80.205 3.245l.006 8.372 2.224-1.043V2.178l-2.23 1.067"/>
        <path fill="#C49E74" d="M88.306 11.617l2.001-.976V5.083l-2 .97v5.564"/>
        <path fill="#E2BC91" d="M88.58 11.617l-2.903-2.056v-5.93l2.904 2.053v5.933"/>
        <path fill="#E2BC91" d="M89.05 5.809l-3.373-1.93 1.71-.975 3.372 1.93-1.708.975"/>
        <path fill="#FF9800" d="M85.287 5.809v8.345l.779.367-.006-8.348-.773-.364"/>
        <path fill="#FFEFDD" d="M84.95 5.51l2.153-1.303.752.444-2.156 1.307-.749-.447"/>
        <path fill="#E2BC91" d="M85.289 6.15l.006 8.371 2.221-1.054-.002-8.384-2.225 1.068"/>
        <path fill="#C49E74" d="M94.114 14.521l2.003-.973V7.987l-2.003.974v5.56"/>
        <path fill="#E2BC91" d="M93.663 14.521L90.76 12.47V6.535l2.904 2.052v5.934"/>
        <path fill="#E2BC91" d="M94.133 8.713l-3.374-1.927 1.707-.977 3.376 1.928-1.71.976"/>
        <path fill="#FF9800" d="M89.644 8.713l.003 8.343.775.37-.006-8.35-.772-.363"/>
        <path fill="#FFEFDD" d="M89.307 8.417l2.154-1.304.75.453-2.156 1.295-.748-.444"/>
        <path fill="#E2BC91" d="M89.645 9.046l.006 8.38 2.222-1.057V7.987l-2.228 1.06"/>
        <path fill="#C49E74" d="M98.473 17.426l1.998-.976V10.89l-1.998.966v5.569"/>
        <path fill="#E2BC91" d="M98.491 11.617l-3.375-1.929 1.711-.975 3.371 1.934-1.707.97"/>
        <path fill="#FFEFDD" d="M94.73 11.617v8.344l.772.369v-8.346l-.773-.367M94.39 11.32l2.154-1.307.75.45-2.155 1.307-.75-.45"/>
        <path fill="#E2BC91" d="M95.454 11.96v8.37l2.227-1.055-.005-8.384-2.222 1.069"/>
        <path fill="#C49E74" d="M103.552 20.33l2.004-.971v-5.564l-2.004.972v5.563"/>
        <path fill="#E2BC91" d="M103.828 20.33l-2.904-2.054v-5.933l2.904 2.052v5.935"/>
        <path fill="#E2BC91" d="M103.57 14.521l-3.372-1.924 1.708-.98 3.375 1.932-1.711.972"/>
        <path fill="#FFEFDD" d="M100.535 14.521l.003 8.349.775.364-.003-8.343-.775-.37M100.198 14.22l2.149-1.302.755.45-2.154 1.304-.75-.453"/>
        <path fill="#E2BC91" d="M100.536 15.588l.003 8.372 2.225-1.052V14.52l-2.228 1.067"/>
        <path fill="#C49E74" d="M109.363 23.234l2-.968V16.7l-2 .978v5.556"/>
        <path fill="#E2BC91" d="M108.91 23.234l-2.903-2.06v-5.926l2.904 2.057v5.93"/>
        <path fill="#E2BC91" d="M109.38 17.426l-3.373-1.923 1.708-.982 3.374 1.929-1.708.976"/>
        <path fill="#FFEFDD" d="M104.891 18.152l.003 8.346.776.367v-8.346l-.779-.367M105.28 17.851l2.151-1.3.754.443-2.151 1.307-.753-.45"/>
        <path fill="#E2BC91" d="M105.622 18.495v8.37l2.222-1.048v-8.391l-2.222 1.069"/>
        <path fill="#CF7C00" d="M113.72 25.413l1.999-.975v-5.56l-1.999.972v5.563"/>
        <path fill="#E2BC91" d="M113.74 21.056l-3.377-1.927 1.708-.977 3.375 1.93-1.706.974"/>
        <path fill="#FFEFDD" d="M110.701 21.056V29.4l.776.369v-8.343l-.776-.37M109.637 20.754l2.153-1.301.751.447-2.153 1.307-.751-.453"/>
        <path fill="#E2BC91" d="M111.429 21.4v8.369l2.225-1.05-.003-8.389-2.222 1.07"/>
        <path fill="#FFEFDD" d="M129.24 90.033l-15.247-8.888v-57.91l15.248 8.897v57.901"/>
        <path fill="#E2BC91" d="M129.24 90.033l15.248-8.888v-57.91l-15.247 8.897v57.901"/>
        <path fill="#F5B400" d="M129.242 32.673l-15.249-9.08 15.25-9.072 15.245 9.071-15.246 9.081"/>
        <path fill="#F8D9B5" d="M129.24 34.851l-17.425-9.94v-1.677l17.426 9.936v1.681"/>
        <path fill="#C39D73" d="M128.515 34.851l17.426-9.94v-1.677l-17.426 9.936v1.681"/>
        <path fill="#F8D9B5" d="M129.24 32.673L112.54 23.24l16.699-9.445 16.7 9.445-16.7 9.433"/>
        <path fill="#FF9800" d="M181.518 106.007l-39.934-23.182v-18.93l39.934 23.179v18.933"/>
        <path fill="#F8D9B5" d="M182.141 87.129L141.584 63.77l38.103-21.659L220 65.328l-37.859 21.8"/>
        <path fill="#FFEFDD" d="M173.531 111.09l-39.934-23.348V53.003l39.934 23.35v34.736"/>
        <path fill="#E2BC91" d="M173.531 111.09l7.987-4.202V71.881l-7.987 4.206v35.002"/>
        <path fill="#9C703F" d="M174.262 76.238l-40.665-23.41 7.254-4.181 40.667 23.406-7.256 4.185"/>
        <path fill="#FFEFDD" d="M172.805 76.238l-39.934-23.072v-1.615l39.934 23.071v1.616"/>
        <path fill="#9C703F" d="M172.805 76.964l9.44-6.189v-1.798l-9.44 6.186v1.8"/>
        <path fill="#C39D73" d="M173.27 74.785L132.87 51.371l9.704-5.628 40.395 23.412-9.7 5.63"/>
        <path fill="#E2BC91" d="M136.952 54.455l2.004-.97V47.92l-2.004.98v5.554"/>
        <path fill="#FFEFDD" d="M137.954 54.455l-2.904-2.054v-5.932l2.904 2.057v5.93"/>
        <path fill="#F8D9B5" d="M137.696 48.647l-3.373-1.927 1.708-.977 3.375 1.924-1.71.98"/>
        <path fill="#E2BC91" d="M142.763 57.36l1.998-.976v-5.559l-1.998.973v5.562"/>
        <path fill="#FFEFDD" d="M143.036 57.36l-2.902-2.051-.002-5.936 2.904 2.053v5.934"/>
        <path fill="#F8D9B5" d="M142.783 51.551l-3.377-1.929 1.71-.975 3.372 1.929-1.705.975"/>
        <path fill="#E2BC91" d="M148.57 60.99l2.001-.974v-5.56l-2 .971v5.563"/>
        <path fill="#FFEFDD" d="M148.845 61.716l-2.904-2.053V53.73l2.904 2.053v5.934"/>
        <path fill="#F8D9B5" d="M148.589 55.908l-3.374-1.928 1.705-.977 3.377 1.93-1.708.975"/>
        <path fill="#E2BC91" d="M154.379 63.894l2.001-.974v-5.56l-2.001.974v5.56"/>
        <path fill="#FFEFDD" d="M153.927 64.62l-2.904-2.054v-5.932l2.904 2.054v5.932"/>
        <path fill="#F8D9B5" d="M154.397 58.086l-3.374-1.929 1.706-.975 3.377 1.928-1.709.976"/>
        <path fill="#E2BC91" d="M160.188 66.799l2-.97v-5.565l-2 .981V66.8"/>
        <path fill="#FFEFDD" d="M159.736 67.525l-2.904-2.058v-5.929l2.904 2.058v5.929"/>
        <path fill="#F8D9B5" d="M160.206 62.442l-3.374-1.926 1.705-.978 3.377 1.924-1.708.98"/>
        <path fill="#E2BC91" d="M165.996 70.429l2.001-.976v-5.559l-2 .974v5.561"/>
        <path fill="#FFEFDD" d="M165.545 71.155l-2.905-2.054v-5.933l2.905 2.052v5.935"/>
        <path fill="#F8D9B5" d="M166.015 65.347l-3.375-1.928 1.708-.977 3.375 1.928-1.708.977"/>
        <path fill="#E2BC91" d="M171.805 73.333l2-.976V66.8l-2 .969v5.565"/>
        <path fill="#FFEFDD" d="M171.353 74.06L168.45 72v-5.927l2.904 2.05v5.936"/>
        <path fill="#F8D9B5" d="M171.823 68.25l-3.374-1.93 1.706-.973 3.376 1.93-1.708.974"/>
        <path fill="#FFEFDD" d="M143.036 23.96l-15.247-9.138V9.44l15.247 9.133v5.388"/>
        <path fill="#CF7C00" d="M142.762 23.96l2-.893v-4.915l-2 .9v4.908"/>
        <path fill="#E2BC91" d="M143.516 18.878l-15.727-8.512 1.703-.927 15.723 8.518-1.699.92"/>
        <path fill="#E2BC91" d="M129.695 11.617l1.996-.969V5.083l-1.996.974v5.56"/>
        <path fill="#FFEFDD" d="M129.515 11.617l-2-.969V5.083l2 .974v5.56"/>
        <path fill="#E2BC91" d="M129.243 5.512l-1.454-1.156 1.454-1.155 1.45 1.155-1.45 1.156M139.858 17.426l2-.976V10.89l-2 .971v5.564"/>
        <path fill="#FFEFDD" d="M139.68 17.426l-2-.976V10.89l2 .971v5.564"/>
        <path fill="#E2BC91" d="M140.132 11.318l-1.452-1.153 1.452-1.153 1.452 1.153-1.452 1.153M136.227 15.248l2.001-.969V8.713l-2 .97v5.565"/>
        <path fill="#FFEFDD" d="M136.05 15.248l-2.001-.969V8.713l2.001.97v5.565"/>
        <path fill="#E2BC91" d="M136.502 9.14l-1.452-1.153 1.452-1.153 1.452 1.153-1.452 1.153M132.595 13.07l2.004-.977V6.535l-2.004.968v5.566"/>
        <path fill="#FFEFDD" d="M133.147 13.07l-2.004-.977V6.535l2.004.968v5.566"/>
        <path fill="#E2BC91" d="M133.597 7.686l-1.452-1.15 1.452-1.153 1.453 1.153-1.453 1.15M130.693 31.221l14.522-7.934v-5.135l-14.522 7.943v5.126"/>
        <path fill="#E2BC91" d="M131.697 31.947l-2.007-.9V26.14l2.007.902v4.906"/>
        <path fill="#9C703F" d="M130.859 26.139l13.63-7.793-1.614-.92-13.634 7.788 1.618.925"/>
        <path fill="#E2BC91" d="M117.624 23.234l12.343-7.123v-5.22l-12.343 7.123v5.22"/>
        <path fill="#CF7C00" d="M117.174 23.234l-2.004-.898v-4.91l2.004.895v4.913"/>
        <path fill="#FFEFDD" d="M117.166 18.152l12.801-7.044-1.723-.943-12.798 7.046 1.72.94"/>
        <path fill="#F8D9B5" d="M118.621 17.426l-1.995-.972v-5.563l1.995.979v5.556"/>
        <path fill="#E2BC91" d="M118.8 17.426l2.004-.972v-5.563l-2.004.979v5.556"/>
        <path fill="#E2BC91" d="M119.073 12.047l1.455-1.162-1.455-1.15-1.45 1.15 1.45 1.162"/>
        <path fill="#F8D9B5" d="M122.98 15.248l-2-.974V8.713l2 .976v5.559"/>
        <path fill="#E2BC91" d="M122.433 15.248l1.998-.974V8.713l-1.998.976v5.559"/>
        <path fill="#E2BC91" d="M122.707 10.593l1.451-1.158-1.45-1.15-1.454 1.15 1.453 1.158"/>
        <path fill="#F8D9B5" d="M125.886 13.07l-2.003-.972V6.535l2.003.969v5.565"/>
        <path fill="#E2BC91" d="M125.336 13.07l2.001-.972V6.535l-2 .969v5.565"/>
        <path fill="#E2BC91" d="M125.612 7.686l1.45-1.15-1.45-1.153-1.454 1.153 1.454 1.15"/>
        <path fill="#F8D9B5" d="M129.24 32.673l-15.247-9.137v-5.384l15.248 9.132v5.39"/>
        <path fill="#E2BC91" d="M129.69 32.673l2.007-.906v-4.902l-2.007.897v4.911M128.99 26.865l-15.723-8.523 1.701-.916 15.725 8.52-1.703.919"/>
        <path fill="#E2BC91" d="M115.174 18.878l1.995-.979v-5.556l-1.995.97v5.565"/>
        <path fill="#F8D9B5" d="M114.995 18.878l-2.004-.979v-5.556l2.004.97v5.565"/>
        <path fill="#E2BC91" d="M114.723 14.22l-1.456-1.15 1.456-1.152 1.449 1.153-1.45 1.15M129.693 26.865l2-.97V20.33l-2 .972v5.563"/>
        <path fill="#F8D9B5" d="M129.514 26.865l-1.998-.97V20.33l1.998.972v5.563"/>
        <path fill="#E2BC91" d="M129.24 21.486l-1.451-1.153 1.45-1.159 1.454 1.159-1.453 1.153M125.336 24.686l2.001-.973v-5.561l-2 .974v5.56"/>
        <path fill="#F8D9B5" d="M125.884 24.686l-1.999-.973v-5.561l1.999.974v5.56"/>
        <path fill="#E2BC91" d="M125.61 20.037l-1.452-1.156 1.452-1.162 1.453 1.162-1.453 1.156M121.706 23.234l2-.97V16.7l-2 .98v5.554"/>
        <path fill="#F8D9B5" d="M122.98 23.234l-1.999-.97V16.7l1.998.98v5.554"/>
        <path fill="#E2BC91" d="M121.98 17.86l-1.452-1.165 1.451-1.156 1.453 1.156-1.453 1.165"/>
        <path fill="#E2BC91" d="M118.803 21.056l1.998-.97v-5.565l-1.998.97v5.565"/>
        <path fill="#F8D9B5" d="M118.624 21.056l-2-.97v-5.565l2 .97v5.565"/>
        <path fill="#E2BC91" d="M119.077 15.674l-1.453-1.15 1.453-1.156 1.451 1.156-1.451 1.15"/>
        <path fill="#FFEFDD" d="M133.146 24.686l-2.001-.974v-5.56l2 .967v5.567"/>
        <path fill="#E2BC91" d="M132.598 24.686l1.998-.974v-5.56l-1.998.967v5.567"/>
        <path fill="#E2BC91" d="M132.146 20.032l1.451-1.147-1.45-1.162-1.454 1.162 1.453 1.147"/>
        <path fill="#FFEFDD" d="M136.049 23.234l-1.999-.974V16.7l1.999.971v5.563"/>
        <path fill="#E2BC91" d="M136.226 23.234l2-.974.004-5.56-2.004.971v5.563"/>
        <path fill="#E2BC91" d="M136.5 17.856l1.454-1.153-1.454-1.16-1.45 1.16 1.45 1.153"/>
        <path fill="#FFEFDD" d="M139.679 21.056l-1.998-.973v-5.562l1.998.98v5.555"/>
        <path fill="#E2BC91" d="M139.133 21.056l1.998-.973v-5.562l-1.998.98v5.555"/>
        <path fill="#E2BC91" d="M140.132 15.679l1.452-1.165-1.452-1.15-1.452 1.15 1.452 1.165M142.763 18.878l1.998-.975v-5.56l-1.998.97v5.565"/>
        <path fill="#FFEFDD" d="M142.583 18.878l-1.998-.975v-5.56l1.998.97v5.565"/>
        <path fill="#E2BC91" d="M143.036 14.227l-1.452-1.15 1.452-1.165 1.452 1.165-1.452 1.15"/>
        <path fill="#CF7C00" d="M122.413 44.732l.587-.334v-.549l-.587.34v.543"/>
        <path fill="#C39D73" d="M122.96 44.863l-3.158-2.266.475-.33 3.155 2.256-.473.34"/>
        <path fill="#C39D73" d="M121.98 43.447v.843l-1.453-.948-1.451-.95V36.54c0-.276.313-.269.645-.186v5.613l1.453.953.806.527"/>
        <path fill="#3C2415" d="M123.432 38.226v4.612l-1.036-.486-1.868-.878v-5.17a8.706 8.706 0 0 1 1.037.274s1.867 1.103 1.867 1.648"/>
        <path fill="#E2BC91" d="M153.564 81.32c-.395 1.822-3.993.474-3.993 3.71v12.05l7.987 4.57V89.604c0-3.24-3.593-6.012-3.994-8.284"/>
        <path fill="#3C2415" d="M153.927 84.613c-1.604-.908-2.904-.17-2.904 1.646v10.642l5.809 3.297V89.556c0-1.825-1.303-4.03-2.905-4.943"/>
        <path fill="#CF7C00" d="M123.432 76.255v.709l-2.904-1.868v-5.69c0-.701.295-1.123.742-1.155-.124.191-.187.466-.187.795v5.695l2.35 1.514"/>
        <path fill="#3C2415" d="M123.432 72.005v4.959l-2.904-1.51v-5.682c0-.328.079-.602.231-.793.259-.017.558.054.876.22.998.51 1.797 1.768 1.797 2.806"/>
        <path fill="#E2BC91" d="M121.98 77.623l-2.904-2.225v-.546l2.904 2.22v.551"/>
        <path fill="#CF7C00" d="M122.413 77.411l.587-.337v-.558l-.587.343v.552"/>
        <path fill="#E2BC91" d="M122.95 77.514l-3.148-2.219.482-.334 3.148 2.21-.481.343"/>
        <path fill="#C39D73" d="M126.337 65.996v.803l-9.44-5.202v-12.95l.737.403v12.14l8.703 4.806"/>
        <path fill="#E2BC91" d="M126.337 53.584v12.489l-8.713-4.943V48.647l8.713 4.937"/>
        <path fill="#E2BC91" d="M119.074 50.972c-.72-.342-1.31-.068-1.31.628v8.864l2.623 1.252V52.85c0-.691-.59-1.524-1.313-1.878M121.98 52.423c-.723-.341-1.313-.065-1.313.633v8.854l2.626 1.258v-8.86c0-.693-.59-1.53-1.313-1.885M124.883 53.878c-.726-.345-1.31-.07-1.31.623v8.863l2.623 1.256v-8.863c0-.688-.59-1.533-1.313-1.88"/>
        <path fill="#CF7C00" d="M123.167 62.828v.34l-2.373-1.116v-6.87l.343.157v6.534l2.03.955"/>
        <path fill="#3C2415" d="M122.995 56.205v6.963l-2.03-1.018v-6.968l2.03 1.023"/>
        <path fill="#FF9800" d="M125.371 53.73v3.39l.48.24v-3.396l-.48-.235"/>
        <path fill="#CF7C00" d="M124.9 54.596l.944-.552.477.273-.941.55-.48-.27"/>
        <path fill="#C39D73" d="M125.14 54.176v3.184l.941-.454V53.73l-.94.447"/>
        <path fill="#FF9800" d="M115.93 47.92l.003 3.39.48.241-.003-3.39-.48-.24"/>
        <path fill="#CF7C00" d="M115.463 48.785l.941-.552.476.267-.938.56-.479-.275"/>
        <path fill="#C39D73" d="M115.703 48.376l.002 3.175.936-.453v-3.177l-.938.455"/>
        <path fill="#FF9800" d="M124.884 53.73l-9.438-5.383v-.426l9.438 5.386v.422"/>
        <path fill="#CF7C00" d="M125.134 54.993l.953-.529v-.546l-.953.532v.543"/>
        <path fill="#AD8355" d="M125.535 53.73l-10.09-5.391.802-.418 10.09 5.395-.802.413"/>
        <path fill="#E2BC91" d="M124.884 66.799l-9.438-5.349v-.46l9.438 5.348v.46"/>
        <path fill="#CF7C00" d="M125.317 67.966l.587-.334v-.549l-.587.334v.55"/>
        <path fill="#AD8355" d="M125.86 66.799l-8.962-5.52.473-.289 8.966 5.52-.476.289"/>
        <path fill="#E2BC91" d="M160.472 84.276v-9.053l8.753 5.168v9.056l-8.753-5.17zm9.429 23.666V79.99l-11.98-7.078v-5.718l-.677-.394-.412.237.412 6.277 1.614.95.264 27.847.415-.243V74.668l.261.152v9.856l2.1 1.245.262 17.988.417-.24V86.314l6.648 3.93.264 17.94.412-.242zM148.224 77.592l-8.49-5.08V63.62l8.49 5.082v8.891zm3.525-13.177l-.652-.39-.406.241.406 5.366-12.018-7.19-.4.24.655 27.83.4-.24v-16.98l6.199 3.703.253 17.665.399-.236v-17.03l1.892 1.608.399-.24v-9.674l.248.15.258 27.33.397-.239v-26.7l1.569 1.42.401-.24v-6.394z"/>
        <path fill="#F8D9B5" d="M159.977 85.22v-8.79l8.54 5.016v8.79l-8.54-5.016zm9.198 22.965V81.06l-11.684-6.867V68.64l-.66-.388v6.333l1.572.921v26.4l.662.384V75.895l.255.146v9.57l2.049 1.198v16.848l.66.378V87.197l6.489 3.814v16.79l.657.384zM148.112 78.418l-8.757-5.113v-8.954l8.757 5.11v8.957zm3.637-7.604v-5.659l-.677-.392v5.644l-12.392-7.239v27.629l.675.397V74.095l6.396 3.732v17.157l.673.388V78.225l2.363 1.378v-9.741l.259.147v26.887l.675.398v-26.89l2.028 1.19v-.78z"/>
        <path fill="#CF7C00" d="M144.488 89.54v.493l-3.63-2.229v-6.1c0-.706.329-.961.704-1.11-.18.177-.295.44-.295.86v6.1l3.221 1.985"/>
        <path fill="#3C2415" d="M145.215 83.825v5.482l-3.63-1.944v-5.972c0-.412.13-.67.332-.843.415-.14.888-.187 1.126-.435l.13-.245.045.18h.005c.348 1.049 1.992 2.315 1.992 3.777"/>
        <path fill="#AC804F" d="M166.997 88.58l-3.63-2.337v-2.745l3.63 2.343v2.74M145.215 75.512l-3.63-2.347v-2.736l3.63 2.334v2.749"/>
        <path fill="#FFC900" d="M7.495 71.747c-1.923 0-3.746-.44-5.13-1.237C.842 69.63 0 68.408 0 67.075c0-1.335.84-2.555 2.366-3.435 2.766-1.597 7.493-1.597 10.261 0 1.525.88 2.363 2.1 2.363 3.435 0 1.333-.838 2.555-2.363 3.435-1.383.797-3.206 1.237-5.132 1.237z"/>
    </g>
</svg>
