<svg xmlns="http://www.w3.org/2000/svg" width="186" height="106" viewBox="0 0 186 106">
    <g fill="none" fill-rule="evenodd">
        <path fill="#000" d="M71.243 32.439c-.02.312 1.08.913 1.996 1.704.254-1.147.669-1.978.669-1.978-.042.574 3.075 2.685 2.627 4.551 0 0 .334 2.13-.915 3.126-.425-.185-.599-.267-.9-.505-.222.363-.52.573-1.125.747-5.626-5.252-2.352-7.65-2.352-7.65v.005"/>
        <path fill="#894A0F" d="M71.429 31.642c.627-.122 1.015-.839.78-2.185-.125-.72 2.103-1.443 4.212-4.607 1.47-2.189 2.847-5.128 3.526-6.211 0-.002.683-1.704 4.279-1.909.699-.056 1.498.076 2.27.114l.105-.164c1.4-2.52 2.375-8.117 4.611-10.945.359-.338.881.17 1.442 1.08.368-.77.78-1.472 1.241-2.067 1.34-1.233 4.876 9.089 4.876 9.089s.545 11.353-.346 11.982a50.43 50.43 0 0 0-2.313-.438c-.08.77-.202 1.3-.372 1.42-5.865-1.22-9.62-1.228-12.137-.696-1.247.717-1.954 1.592-2.545 2.293-1.167 1.376-2.513 5.248-3.466 6.866-1.155 2.52-2.71 1.846-3.64 1.488-3.308-1.58-3.585-4.902-2.523-5.11M60.856 7.86c10.893 7.082 20.69 1.852 20.777 1.804l-.685-2.66c-.018.01-11.562 6.344-19.583 0l-.509.856"/>
        <path fill="#603913" d="M62.216 7.265c.028 1.666-7.565 4.666-9.708-5.615 3.31 4.876 7.035.753 9.708 5.615"/>
        <path fill="#000" d="M130.319 71.22s1.253-.045 2.539-.267c-.113-.511-.187-.95-.195-1.132l.026.03s.91.45 1.95.633l.211-.098.074.138c.567.068 1.153.038 1.626-.192 0 0 2.447 2.771 1.912 4.08-.348.193-.813.06-1.822-.196.104.585.01 1.042-.384 1.5-2.393.503-4.77-1.784-5.487-2.663-.302-.37-.446-1.342-.474-1.866l.024.034"/>
        <path fill="#894A0F" d="M129.44 44.095c.234-.555 1.097-.174 2.056.502.05-.733.148-1.365.312-1.874.613-1.418 5.315 3.338 5.315 3.338s1.115 10.194-1.674 13.256c-.723.388 1.37 9.77 1.101 11.015-2.531 2.987-5.56 1.301-6.155.927l-.076-.038-.024-.034c-.17-.21-1.08-1.534-1.122-4.33 1.408-7.805-.965-18.914.267-22.762"/>
        <path fill="#B9691B" d="M150.198 52.983c-5.632.1-10.462 9.049-21.06 2.21-1.114-.642-25.673-22.618-28.923-24.346-3.246-1.73-7.205 2.533-7.205 2.533s-6.423-10.927-8.69-18.972c-3.59.208-7.359-.223-7.39-2.918C76.816 5.335 84.601-1.507 92.92.293l.24.124c.2.04.403.09.593.146 2.115.655 15.569 12.317 23.94 17.249 2.63 1.613 10.747-.143 20.621 9.044 3.608 2.613 3.915-.228 10.37 4.243l1.514 21.884"/>
        <path fill="#FFF" d="M153.082 33.608c5.454-3.222 13.966-9.273 32.546 1.604-19.561-17.605-35.488-5.082-36.127-4.613-1.521 1.453 1.97 3.882 3.58 3.01"/>
        <path fill="#B9691B" d="M141.76 33.799v-.002l.006-.01c.148-.127.323-.22.537-.26l6.974-3.44c.314-.197 1.874-.391 3.116.75 1.942 1.662 1.444 3.93 1.444 3.93s3.858 2.846 6.067 5.84c2.2 2.993 1.604 3.92 1.477 4.66-.516 4.076 4.374 9.76 4.374 9.76s1.764.814 2.012 1.899c.525 2.265-.196 3.108-.937 3.41l-4.832 2.343-.218.106-.022.006h-.002c-.593.232-1.198.128-1.198.128s-.989.613-1.882.262c-.889-.356-2.549-2.304-3.244-2.354-2.12-.147-4.79-.815-5.857-1.494-1.381-.873-3.125-.407-3.894-.94-1.772-1.23-1.44-1.605-2.24-1.505l-2.344-20.627s-.132-1.75.663-2.462"/>
        <path fill="#B9691B" d="M143.44 56.888c-5.633.094-10.46 9.045-21.067 2.205-11.177-7.618-20.913-19.784-27.647-24.756-4.4-3.164-8.476 2.944-8.476 2.944s-9.47-16.121-9.47-23.624c0-7.507 4.9-8.773 8-7.826 2.115.65 17.786 10.955 26.152 15.885 4.215 2.485 6.457.659 18.181 7.757 5.981 3.723 1.292-1.65 12.811 5.529l1.516 21.886"/>
        <path fill="#3C2415" d="M143.715 56.878s-3.21-1.85-3.419-7.89c-1.465 6.797 3.419 7.89 3.419 7.89"/>
        <path fill="#FFADC0" d="M167.264 55.692c-.819-.712-1.928.888-3.402 1.694-1.595.882-3.338.733-4.205 1.416-1.099.887-.768 2.445-.182 3.374 1.464 1.764 4.121.699 5.4-.408 1.066 0 5.135-2.742 2.39-6.076"/>
        <path fill="#000" d="M116.825 75.234c-.219-4.642 3.898-3.462 3.898-3.462-.016.066.056.232.25.556 1.687 3.558 1.07 5.577 1.33 6.18-.14.15-2.961 1.197-2.783 1.603-.232.263-1.057.956-2.373-.098a27.364 27.364 0 0 1-.314-4.777l-.008-.002"/>
        <path fill="#894A0F" d="M112.015 50.653c-2.641-7.742 5.242-13.418 5.242-13.418l11.414 13.484s.779 3.748-2.393 4.104c.248 1.366.991 4.103 1.323 6.576-5.706.925-12.482-4.26-15.586-10.746"/>
        <path fill="#B9691B" d="M112.193 51.213c-2.06-5.518 5.064-13.978 5.064-13.978l8.432 2.328 2.982 11.156s-.052.823-.463 1.507c-.675 1.636-1.798 2.049-2.773 2.037.242 1.363.825 3.418 1.734 6.013 1.193 3.398 2.9 5.362 2.997 8.041-.264 2.854-1.866 2.053-2.304 2.816-.89 2.062-1.492 4.838-2.353 6.225l-.006.012-.084.13c-1.176 1.778-3.729 2.623-5.765 2.764-3.843-2.193-.655-8.75 1.07-8.492l.47.154c.667-1.084 1.245-2.2 1.1-4.233-.345-2.16-7-9.998-10.1-16.48"/>
        <path fill="#000" d="M90.057 64.703c.29-.426 1.113-1.105 1.113-1.105s.59-1.714 3.556 0c1.018.843 2.199 2.76 2.129 4.353-.034.695-1.908.268-1.908.268s-.054 1.728-.821 1.632c-4.33-.829-5.204-2.825-5.359-3.16-.258-.576-.308-1.245-.308-1.245s.308-.893 1.598-.743"/>
        <path fill="#894A0F" d="M90.471 20.753c1.434 4.38 1.96 10.384-.338 13.116-1.918-1.843-.587-7.672.338-13.116"/>
        <path fill="#B9691B" d="M79.683 33.95c-.705-5.498-5.974-14.372-5.076-19.43.034-.203.893-6.352 5.214-9.832 1.768-.565 3.574 5.006 3.574 5.006s7.076 2.323 7.076 11.059c.39 25.226-3.746 20.086-2.857 26.191.885 6.103 7.014 14.848 7.112 16.654-.506 1.43-2.264 1.311-2.264 1.311-2.728.23-3.557 0-3.557 0s-.166-2.354-2.77-4.032c-.746-.483-1.549-5.042-3.114-9.404-1.436-3.988-4.3-8.265-4.462-9.19-.33-1.939 1.822-2.83 1.124-8.332"/>
        <path fill="#000" d="M149.501 47.156c0 .353.339.837.755 1.08.419.242.755.15.755-.21 0-.357-.336-.836-.755-1.082-.416-.242-.755-.148-.755.212M160.649 60.198c-.074.372.07.845.326 1.055.254.208.515.07.597-.302.072-.38-.07-.85-.329-1.058-.248-.206-.516-.072-.594.305"/>
        <path fill="#894A0F" d="M139.892 37.002c0 1.222.855 2.7 1.91 3.306 1.055.613 1.913.12 1.913-1.1 0-1.215-.858-2.702-1.913-3.309-1.055-.609-1.91-.114-1.91 1.103"/>
        <path fill="#FFF" d="M140.435 36.171c.294-.188.7-.17 1.159.094.889.515 1.612 1.763 1.612 2.786 0 .482-.16.82-.413 1.007v.002l-.024.008-.088.048c-5.566 3.132-12.545 6.578 5.727 17.128-30.5-11.301-8.79-20.704-7.973-21.073"/>
        <path fill="#894A0F" d="M82.942 2.219c2.814-1.58 7.305.53 7.305.53s-6.041-5.72-8.614.269l1.31-.799M151.011 38.436c4.534 4.263 6.232 8.172 6.232 8.172s.92-3.76-6.232-8.172M153.837 34.768s-10.469 5.296-10.122 5.805c.34.506 10.122-5.805 10.122-5.805"/>
        <path fill="#DAD6C4" d="M6.56 70.423l-.374-.1-6.936-4.005a.75.75 0 0 1-.275-1.025.755.755 0 0 1 1.026-.277l6.936 4.005a.752.752 0 0 1-.377 1.402zm13.875 8.01l-.376-.101-6.937-4.005a.75.75 0 0 1-.274-1.025.756.756 0 0 1 1.025-.276l6.936 4.004c.36.207.483.667.277 1.028a.753.753 0 0 1-.651.374zm13.872 8.009l-.374-.1-6.938-4.005a.752.752 0 0 1 .75-1.302l6.939 4.005a.75.75 0 1 1-.376 1.402zM67.39 73.502a.754.754 0 0 1-.652-.374.752.752 0 0 1 .276-1.027l6.934-4.005a.75.75 0 1 1 .75 1.302l-6.933 4.004-.374.1zm-13.874 8.01a.75.75 0 0 1-.376-1.402l6.936-4.005a.754.754 0 0 1 1.025.277.75.75 0 0 1-.274 1.025l-6.936 4.005-.375.1zm-13.872 8.01a.752.752 0 0 1-.376-1.402l6.936-4.005a.754.754 0 0 1 1.025.276.75.75 0 0 1-.275 1.025l-6.936 4.005-.374.1zM23.988 97.56a.75.75 0 0 1-.377-1.403l6.938-4.004a.755.755 0 0 1 1.026.276.754.754 0 0 1-.275 1.027l-6.938 4.005-.374.098zm-13.87 8.009a.754.754 0 0 1-.654-.375.753.753 0 0 1 .277-1.027l6.936-4.005a.757.757 0 0 1 1.025.277.754.754 0 0 1-.274 1.027l-6.936 4.005-.375.098zm-13.875 8.01a.753.753 0 0 1-.651-.375.754.754 0 0 1 .274-1.028l6.937-4.004a.755.755 0 0 1 1.025.276.75.75 0 0 1-.275 1.027l-6.936 4.005-.374.098zm-13.873 8.009a.752.752 0 0 1-.376-1.402l6.936-4.005a.752.752 0 0 1 .75 1.304l-6.935 4.005-.375.098zm-13.872 8.01a.752.752 0 0 1-.376-1.402l6.936-4.005a.752.752 0 0 1 .75 1.304l-6.936 4.004-.374.098zm-13.873 8.009a.752.752 0 0 1-.376-1.402l6.936-4.005a.755.755 0 0 1 1.025.277.754.754 0 0 1-.274 1.027L-45 137.509l-.375.098zm-13.872 8.01a.754.754 0 0 1-.653-.375.753.753 0 0 1 .276-1.028l6.935-4.004a.757.757 0 0 1 1.027.276.753.753 0 0 1-.276 1.027l-6.935 4.005-.374.098z"/>
    </g>
</svg>
