<svg xmlns="http://www.w3.org/2000/svg" xmlns:xlink="http://www.w3.org/1999/xlink" width="163" height="167" viewBox="0 0 163 167">
    <defs>
        <linearGradient id="a" x1="30.771%" x2="50%" y1="50%" y2="63.204%">
            <stop offset="0%" stop-color="#FFF8D5"/>
            <stop offset="100%" stop-color="#FFEFAA"/>
        </linearGradient>
        <path id="b" d="M11.212.208H0v3.207c0 .836.55 1.66 1.643 2.284 2.185 1.262 5.741 1.262 7.931 0 1.095-.625 1.638-1.448 1.638-2.284V.208"/>
        <linearGradient id="c" x1="0%" x2="99.986%" y1="50%" y2="50%">
            <stop offset="0%" stop-color="#FFF"/>
            <stop offset="84.375%" stop-color="#D3C6A5"/>
            <stop offset="100%" stop-color="#E4DDCC"/>
        </linearGradient>
        <linearGradient id="e" x1="-14.496%" x2="95.25%" y1="49.997%" y2="49.997%">
            <stop offset="0%" stop-color="#D9CFAA"/>
            <stop offset="100%" stop-color="#C9B99C"/>
        </linearGradient>
        <path id="f" d="M4.66.209H.073v105.247c0 .413.225.823.673 1.14.895.624 2.346.624 3.243 0 .447-.317.671-.727.671-1.14V.209"/>
        <linearGradient id="g" x1="0%" x2="99.986%" y1="50%" y2="50%">
            <stop offset="0%" stop-color="#FFF"/>
            <stop offset="84.375%" stop-color="#D3C6A5"/>
            <stop offset="100%" stop-color="#E4DDCC"/>
        </linearGradient>
        <path id="i" d="M11.13 5.37c0 2.86-2.47 5.18-5.515 5.18-3.05 0-5.52-2.32-5.52-5.18 0-2.857 2.47-5.177 5.52-5.177 3.045 0 5.514 2.32 5.514 5.178"/>
        <radialGradient id="j" cx="34.555%" cy="32.909%" r="92.81%" fx="34.555%" fy="32.909%" gradientTransform="matrix(.93843 0 0 1 .021 0)">
            <stop offset="0%" stop-color="#FFF"/>
            <stop offset="100%" stop-color="#E2D9B2"/>
        </radialGradient>
    </defs>
    <g fill="none" fill-rule="evenodd">
        <path fill="#DAD6C4" d="M167.055 87.174l-.29-.078-5.364-3.122a.588.588 0 0 1-.214-.801.58.58 0 0 1 .794-.214l5.364 3.122a.587.587 0 0 1-.29 1.093zm10.156 5.726l-.291-.078-5.366-3.123a.59.59 0 0 1-.212-.801.579.579 0 0 1 .793-.214l5.366 3.123c.278.162.373.52.213.8a.58.58 0 0 1-.503.293zm10.879 6.44l-.29-.077-5.365-3.123a.588.588 0 0 1-.214-.8.579.579 0 0 1 .795-.214l5.365 3.123a.586.586 0 1 1-.291 1.091zm10.88 5.726l-.289-.078-5.365-3.124a.588.588 0 0 1-.214-.8.581.581 0 0 1 .794-.214l5.366 3.124c.277.161.373.52.212.8a.582.582 0 0 1-.503.292zm10.156 6.441l-.291-.078-5.364-3.124a.587.587 0 0 1-.214-.8.58.58 0 0 1 .795-.213l5.364 3.123a.587.587 0 0 1-.29 1.092zM184.523 23.896a.584.584 0 0 1-.286-1.085l5.302-3.098a.574.574 0 0 1 .785.212.585.585 0 0 1-.211.795l-5.302 3.098-.288.078zm-10.038 5.68a.573.573 0 0 1-.497-.29.585.585 0 0 1 .211-.794l5.304-3.098a.573.573 0 0 1 .784.212.586.586 0 0 1-.21.795l-5.304 3.098-.288.078zm-10.752 5.682a.577.577 0 0 1-.5-.292.585.585 0 0 1 .212-.793l5.303-3.098a.573.573 0 0 1 .785.212.586.586 0 0 1-.211.795l-5.303 3.098-.286.078zm-10.038 5.68a.573.573 0 0 1-.498-.29.584.584 0 0 1 .21-.794l5.303-3.098a.574.574 0 0 1 .786.212.586.586 0 0 1-.212.795l-5.303 3.098-.286.078zM142.582 47.197a.584.584 0 0 1-.286-1.085l5.301-3.099a.574.574 0 0 1 .785.213.585.585 0 0 1-.21.795l-5.303 3.098-.287.078zm-10.038 5.68a.573.573 0 0 1-.498-.29.585.585 0 0 1 .212-.794l5.303-3.098a.573.573 0 0 1 .784.212.586.586 0 0 1-.21.795l-5.303 3.098-.288.078zM121.79 58.56a.577.577 0 0 1-.499-.292.585.585 0 0 1 .211-.793l5.303-3.099a.573.573 0 0 1 .786.213.586.586 0 0 1-.212.794l-5.303 3.1-.286.077zm-10.038 5.68a.573.573 0 0 1-.497-.29.584.584 0 0 1 .21-.794l5.303-3.098a.574.574 0 0 1 .785.212.586.586 0 0 1-.211.795l-5.304 3.098-.286.078zM193.178 65.837a.584.584 0 0 1-.286-1.085l5.301-3.098a.574.574 0 0 1 .785.212.585.585 0 0 1-.21.795l-5.302 3.099-.288.077zm-10.038 5.681a.573.573 0 0 1-.498-.291.585.585 0 0 1 .212-.793l5.303-3.099a.573.573 0 0 1 .784.213.586.586 0 0 1-.21.794l-5.303 3.099-.288.077zM172.387 77.2a.577.577 0 0 1-.499-.291.585.585 0 0 1 .211-.793l5.304-3.099a.573.573 0 0 1 .785.212.586.586 0 0 1-.212.795l-5.303 3.099-.286.077zM162.35 82.88a.573.573 0 0 1-.497-.291.584.584 0 0 1 .21-.793l5.303-3.099a.574.574 0 0 1 .785.213.586.586 0 0 1-.21.794l-5.304 3.099-.287.077zM31.713 146.934a.625.625 0 0 1-.517-.25c-.164-.24-.067-.545.218-.684l.976-.473c.288-.139.653-.056.817.182.164.239.067.546-.22.684l-.976.474-.298.067zm-10.147 6.633a.578.578 0 0 1-.503-.3.62.62 0 0 1 .211-.826l5.355-3.217a.57.57 0 0 1 .79.222c.162.29.066.658-.21.825l-5.355 3.217-.288.08zm-10.856 5.897a.574.574 0 0 1-.502-.301.62.62 0 0 1 .212-.825l5.355-3.219a.572.572 0 0 1 .791.223.62.62 0 0 1-.212.825L11 159.385l-.289.079zM.58 166.097a.574.574 0 0 1-.502-.3.618.618 0 0 1 .212-.826l5.353-3.217a.573.573 0 0 1 .792.222c.16.29.065.658-.213.825L.87 166.02l-.289.078z"/>
        <path fill="#EEDD93" d="M161.26 107.542c-.063-.276-.14-.481-.352-.573-.923-.382-1.675.92-1.815 0-.082-.527 1.141-.51 2.166-.542v1.115zm-18.301-17.755c-.319-.07-.654-.141-1.022-.205h1.022v.205zm57.12 43.607v-1.958h-1.269v-1.097h-3.42v3.055h-.419v3.095c-2.36-.696-5.463-1.888-8.072-3.897v-8.954h-1.76v-4.322h-7.157v1.718c-.81.463-1.005 1.634-2.044 1.381-1.279-.311-2.2-1.723-3.185-2.49-.99-.776-2.488-.17-3.412-1.311-.679-.838.235-1.136.595-1.56h.14v-7.683h-3.987v5.757a5.232 5.232 0 0 1-.767-.369h.283v-10.176h-3.08v-5.854h-2.231V95.18h-3.073v3.548h-.29v2.621c-1.41-.352-2.92-.78-3.737-1.364-1.676-1.195-1.265-3.5-2.388-4.266-1.122-.755-4.548.497-5.46-.129-.908-.623.568-1.39 0-1.962-.568-.576-1.778-.88-1.819-1.445-.012-.162.132-.298.317-.426h1.632v-5.204h-.8v-2.858h-4.112v6.083a32.983 32.983 0 0 1-1.812-.35c-9.17-4.995-14.244-9.937-15.24-11.149-.77-.936.34-1.081.246-1.5h.006v-7.295h-4.003v6.124c-1.568-.696-11.224-5.974-12.418-7.842h.277v-10.02h-4.308v-2.754h-3.645v-.66h-4.801v9.86l-.352-.01c-1.506-.121-1.308-1.71-2.276-2.364-.634-.433-4.564-2.78-8.979-3.2v-5.697h-7.05v4.443h-2.635v3.32l-2.27.02v2.648h-4.63v7.327h.005c-.016.136.044.27.217.379.851.538 4.263-.35 5.33.207.187.095.338.195.478.298v4.107h.009c.04 1.212 4.81 1.89 6.72 4.432 2.174 2.896 5.076.763 6.096 1.324.717.39.708 1.029.912 1.448v7.654c-1.345.295-3.294.431-5.8-.12-1.908-.34-.058-.984-1.592-.917-1.537.066-3.495 1.062-4.663.723-1.166-.345-.539-1.329-1.478-.852-.939.478-.083 1.295-.91 2.228-.824.938-3.44 2.805-5.005 2.884-1.562.083-.992-.767-1.705-.196-.712.578-.226 1.64-1.507 1.786-1.279.152-3.496-2.012-4.634-1.124-1.138.883-.682 2.355-.682 2.355s-5.343 2.366-7.392 2.038c-.674-.108-1.346-.528-1.985-1.022v-2.571l-3.602-6.22v5.681h-3.622v10.15c-.358.018-.8-.097-1.366-.445-1.705-1.052-2.388 1.115-2.388 1.115s-1.11-.805-2.73-.527c-1.62.283-.255 1.1-4.091 1.443-3.502 1.033-.599 4.474-1.481 5.183-.88.705-1.54.493-2.046.652-.51.17-.567-1.116-2.5-1.445-.914-.15-3.214.238-5.5.562v-6.412h-5.649v3.755h-3.408v7.337h.003l-.003.01c-.078.4 2.568.967 4.007 2.64.207.24.406.494.598.752h-2.16v5.676H9.32v7.413c.082.594 1.84.785 2.585 2.025.746 1.245-.945 2.041 2.324 3.203 3.27 1.166 7.905-.853 11.232-.248 3.323.61 2.528 1.393 4.716 2.264 2.191.863 3.753-.133 6.283.34 1.72.324 5.636 3.212 9.241 5.448 1.707 1.058 3.849 1.569 4.72 2.345 2.7 2.407 2.018 2.473 4.576 3.26 2.472.76 3.36.266 5.313 1.101v2.27c-.023.169.136.29.655.334 4.266.826 8.873-1.737 15.13-2.16 6.251-.429 13.657 4.385 15.007 4.194 1.353-.192.767-1.161 1.251-1.901.812-1.253 11.487-3.082 11.487-3.082s10.944 2.539 14.098 1.055c.165-.126.226-.233.224-.34h.008v-6.357c.66-1.183 1.611-2.331 3.07-3.079 3.51-1.797 17.826-3.756 23.426-3.809 1.333.283 7.336 2.331 7.503.398v-1.974c2.167-.42 5.347-.826 6.029-.32 1.334 2.112 15.136 5.434 16.719 5.306 1.58-.12 1.001-.576 1.93-.847.93-.277 17.235 2.66 18.082 2.034.843-.63-.144-3.228 2.612-3.742.824-.062 2.299 1.07 3.303.331.147-.116.204-.22.203-.312h.006v-7.404h-.974z"/>
        <path fill="#EEDD93" d="M126.442 152.384l-1.283-.299v7.189c-.027.657 1.254.32 1.625.535.366.216-.396.833.912.955.654.065.888-.277.892-.682v-2.14c2.17.438 5.196.227 5.221-1.016h.004v-7.185l-7.37-.287v2.93M164.09 152.632l-15.63-1.18v8.005c-.005.585.655 1.178 1.13 1.491.364.249.867.172 1.4.113v2.031c.01.243.177.49.483.774.283.265.76.377 1.178.476V166h.005l.132.278c.567.711 3.68.485 4.707.297.459-.07.498-.148.489-.26v-.184c.024-.121.123-.284.479-.508 1.03-.639 3.369.177 4.967-.639.763-.39 1.029-.75 1.006-1.068v-7.962h-.243l-.104-3.32"/>
        <path fill="url(#a)" d="M176.846 138.216c.93-.274 17.233 2.654 18.08 2.026.843-.624-.144-3.212 2.612-3.726.824-.062 2.299 1.067 3.303.327 1.003-.74-1.88-1.096-1.828-1.513.053-.418 1.318-.43 1.03-.906-.283-.47-1.396-.247-1.475-.454-.08-.21.586-.503 0-.785-.594-.28-7.196-1.229-11.944-5.032-1.21-1.138 1.033-.777 0-1.828-1.039-1.053-3.78-.202-4.323-1.173-.537-.984 1.372-1.252 2.731-2.488.64-.583-1.597-1.57-3.04-2.862-1.625-1.447-2.563-3.166-3.33-3.15-1.447.034-1.447 1.876-2.726 1.567-1.279-.31-2.2-1.715-3.185-2.484-.989-.766-2.488-.169-3.412-1.307-.924-1.132 1.096-1.265.683-2.092-.413-.823-4.237-.864-5.346-2.282-1.105-1.421 2.219-2.207.342-2.555-4.818-1.587-3.283-4.238-4.205-4.633-.925-.403-1.68.963-1.82 0-.143-.968 3.765-.19 3.524-.982-.241-.792-2.405-1.511-2.844-2.29-.44-.777 1.123-.892.456-1.433-.668-.547-5.261-1.097-6.936-2.286-1.677-1.2-1.265-3.49-2.388-4.25-1.123-.76-4.548.488-5.46-.132-.908-.62.568-1.39 0-1.96-.568-.575-1.778-.872-1.819-1.434-.04-.567 1.792-.841.91-1.438-.88-.61-3.643-.84-5.684-1.312-9.17-4.977-14.245-9.901-15.241-11.108-.992-1.208 1.166-1.096-.226-1.96-1.388-.864-2.233-.185-3.412-.653-1.18-.467-11.998-6.321-12.622-8.036-.625-1.716 1.905-2.7-1.25-3.858-1.41-.35-2.689.352-3.755-.199-1.065-.545 1.961-.702.797-1.5-1.165-.798-7.447-1.406-8.074-.587-.623.818 1.906.996 1.82 1.699-.084.699-.767 1.159-2.274 1.046-1.507-.11-1.308-1.699-2.276-2.356-.963-.648-9.478-5.693-15.804-1.76-1.295.792 3.21.702 2.958 1.045-.258.342-3.285.264-2.958 1.046.326.772 4.617.694 3.98 1.111-.636.415-6.356.266-6.824 1.307-.47 1.039 6.097.48 5.458 1.174-.64.695-3.84-.472-4.661.455-.824.938 2.912 1.009 2.388 1.377-.526.367-5.146-.245-5.46.392-.313.637 4.833.98 3.982 1.5-.856.527-4.35-.768-5.914-.391-1.563.375-3.34 1.414-2.487 1.95.852.543 4.263-.342 5.331.207 1.063.545 1.192 1.29 2.272 1.435 1.08.149 1.947-.368 2.39-.067.439.302.498 1.27-.355 1.711-.853.439-3.618-.044-3.83 1.224-.21 1.266 4.769 1.914 6.73 4.507 2.173 2.886 5.075.764 6.095 1.32 1.024.557.555 1.624 1.363 1.827.815.205 1.497-.452 1.825 0 .323.45-.375 1.094.112 1.244.482.144 2.246-1.13 1.478.327-.768 1.448-3.966 1.068-3.866 2.09.1 1.022 2.116.695 2.388 1.372.27.68-.228 1.436-.228 1.436s-2.813 1.782-7.96.658c-1.908-.344-.058-.985-1.592-.914-1.537.062-3.495 1.058-4.662.713-1.166-.34-.54-1.322-1.478-.85-.94.475-.084 1.293-.91 2.223-.824.935-3.44 2.796-5.006 2.88-1.56.078-.992-.77-1.705-.2-.712.57-.225 1.637-1.507 1.777-1.278.15-3.495-2.009-4.634-1.124-1.137.88-.681 2.353-.681 2.353s-5.343 2.351-7.392 2.026c-2.044-.327-4.095-3.499-5.23-3.007-1.138.492.969 2.158-.909 2.746-1.875.59-2.986 2.5-3.07 3.465-.087.962 2.043 1.14 1.478 1.764-.568.616-1.137 1.629-2.844.587-1.705-1.046-2.388 1.111-2.388 1.111s-1.11-.802-2.73-.52c-1.62.273-.255 1.087-4.09 1.435-3.502 1.03-.599 4.457-1.482 5.164-.88.698-1.538.483-2.046.653-.51.161-.566-1.117-2.5-1.444-1.158-.194-4.564.488-7.322.796-1.849.205-3.472-.092-3.71.318-.597 1.028 1.28 1.129.683 1.697-.598.576-4.009 1.39-4.207 2.42-.077.397 2.568.967 4.007 2.632 2.31 2.664 3.725 6.773 2.476 7.235-2.034.753-3.386-.557-3.962.563-.575 1.115 1.922 1.518 1.108 1.955-.806.443-1.81-.401-2.832.223-1.026.633-2.26 3.22-2.181 3.815.082.592 1.84.782 2.585 2.018.745 1.237-.945 2.03 2.323 3.192 3.27 1.158 7.905-.851 11.232-.247 3.323.606 2.528 1.387 4.716 2.252 2.191.868 3.753-.128 6.283.342 1.719.323 5.635 3.193 9.24 5.43 1.707 1.053 3.849 1.558 4.72 2.331 2.7 2.406 2.018 2.468 4.576 3.253 2.56.785 3.41.211 5.517 1.179 2.103.958-1.637 2.327.451 2.512 4.266.819 8.873-1.727 15.129-2.158 6.251-.425 13.656 4.376 15.007 4.184 1.353-.185.767-1.157 1.251-1.897.812-1.244 11.487-3.068 11.487-3.068s10.943 2.534 14.097 1.042c1.068-.772-1.914-1.132-1.363-2.48.556-1.349 1.151-5.465 4.664-7.256 3.51-1.785 17.826-3.741 23.426-3.785 1.333.276 7.336 2.319 7.502.39-.65-.54-2.359-1.127-2.045-1.442.312-.31 7.049-1.599 8.074-.847 1.334 2.109 15.136 5.416 16.719 5.295 1.58-.123 1-.577 1.93-.85" transform="translate(0 -3)"/>
        <path fill="#FFEFAA" d="M134.473 150.146c-.265-1.992-8.214-1.6-7.978-.06.237 1.54 8.245 2.057 7.978.06M127.969 152.462c-.588-.535-2.784-.477-2.81.38-.027.852 1.217.413 1.576.693.356.284-.383 1.068.886 1.235 1.267.168.927-1.766.348-2.308M163.52 154.848c-.95-.359-1.72.28-2.717-.015-1-.295-.485-.765.029-1.046.514-.283.337.034 1.538.034 1.198 0 2.078-.94 1.569-1.448-1.368-1.371-13.93-1.98-15.016-1.321-1.081.654-.022 1.554.664 1.96.684.405 1.87-.19 2.782.152.914.34 1.962.493 1.336.895-.626.411-1.778-.238-2.347.23-.575.464-.458.804.112 1.277.57.465 1.911.39 2.025.792.117.407-1.28.701-.71 1.325.567.624 3.68.421 4.707.265 1.024-.154-.06-.28.968-.84 1.03-.56 3.369.153 4.967-.56 1.597-.718 1.046-1.337.094-1.7"/>
        <path fill="#CE4422" d="M109.181 96.86h-17.31v4.979c0 1.28.844 2.56 2.536 3.538 3.38 1.96 8.859 1.96 12.236 0 1.692-.979 2.538-2.258 2.538-3.538V96.86"/>
        <path fill="#FA5932" d="M106.644 100.725c-3.378 1.949-8.858 1.949-12.24 0-3.376-1.948-3.376-5.111 0-7.06 3.382-1.953 8.862-1.953 12.24 0 3.383 1.949 3.383 5.112 0 7.06"/>
        <g transform="translate(95.2 93.532)">
            <mask id="d" fill="#fff">
                <use xlink:href="#b"/>
            </mask>
            <path fill="url(#c)" d="M11.212.208H0v3.207c0 .836.55 1.66 1.643 2.284 2.185 1.262 5.741 1.262 7.931 0 1.095-.625 1.638-1.448 1.638-2.284V.208" mask="url(#d)"/>
        </g>
        <path fill="#FFF" d="M104.862 95.226c-2.21 1.292-5.797 1.292-8.002 0-2.213-1.305-2.213-3.416 0-4.709 2.205-1.306 5.793-1.306 8.002 0 2.208 1.293 2.208 3.404 0 4.709"/>
        <path fill="url(#e)" d="M9.986 0H0v2.582c0 .704.49 1.407 1.462 1.946 1.952 1.064 5.113 1.064 7.062 0 .975-.54 1.462-1.242 1.462-1.946V0" transform="translate(33.287 114.836)"/>
        <path fill="#FFF" d="M41.812 116.054c-1.95 1.038-5.111 1.038-7.064 0-1.948-1.04-1.948-2.725 0-3.77 1.953-1.036 5.114-1.036 7.064 0 1.948 1.045 1.948 2.73 0 3.77"/>
        <g transform="translate(35.95 8.983)">
            <mask id="h" fill="#fff">
                <use xlink:href="#f"/>
            </mask>
            <path fill="url(#g)" d="M4.66.209H.073v105.247c0 .413.225.823.673 1.14.895.624 2.346.624 3.243 0 .447-.317.671-.727.671-1.14V.209" mask="url(#h)"/>
        </g>
        <g transform="translate(31.955 .329)">
            <mask id="k" fill="#fff">
                <use xlink:href="#i"/>
            </mask>
            <path fill="url(#j)" d="M11.13 5.37c0 2.86-2.47 5.18-5.515 5.18-3.05 0-5.52-2.32-5.52-5.18 0-2.857 2.47-5.177 5.52-5.177 3.045 0 5.514 2.32 5.514 5.178" mask="url(#k)"/>
        </g>
        <path fill="#FFC900" d="M114.507 28.756c-24.632-20.064-49.265 20.064-73.897 0v25.032c24.632 20.062 49.265-20.064 73.897 0V28.756"/>
        <path fill="#D63A3A" d="M72.224 46.912c0-.235.683-.58.683-.585v1.207a54.914 54.914 0 0 1-.64-.068s-.043-.32-.043-.554"/>
        <path fill="#000" d="M72.04 47.45c.258.02.515.042.773.064v-1.167c-.34.142-.826.395-.826.544 0 .208.042.487.053.559zm.815.142l-.02.004-.854-.072-.02-.021a3.883 3.883 0 0 1-.061-.582c0-.265.852-.612.95-.655l.034-.001.016.022v1.259l-.022.032-.023.014z"/>
        <path fill="#D63A3A" d="M74.767 45.476v1.454c.75-.713.923-1.625.923-1.625-.076-.349-.155-.689-.23-1.038 0 0-.301.874-.693 1.21"/>
        <path fill="#000" d="M75.296 45.473v1.457a3.689 3.689 0 0 0 .865-1.647c-.073-.335-.141-.674-.211-1.016-.093.266-.342.901-.654 1.206zm-.068 1.457v-1.457l.03-.023c.374-.288.674-1.078.677-1.085l.036-.098c.086.355.173.705.257 1.056l-.004.018c-.008.034-.19.882-.958 1.556l-.038.033z"/>
        <path fill="#D63A3A" d="M67.24 48.76c0 1.26-.895 2.528-1.997 2.785-1.102.258-1.998-.6-1.998-1.859 0-1.262.896-2.45 1.998-2.706 1.102-.258 1.997.519 1.997 1.78"/>
        <path fill="#FFF" d="M60.582 57.145a67.658 67.658 0 0 0 4.336-2.892c1.44.287 2.88.508 4.319.684 0-.03-.726 1.297-4.319 2.281-3.49.874-4.336-.103-4.336-.073M65.242 47.182v-4.388c1.775-.51 3.551-1.151 5.326-1.855v6.692c-1.18.468-2.362.903-3.543 1.297-.01-1.27-.805-2.03-1.783-1.746"/>
        <path fill="#F5B400" d="M63.458 49.593c-1.18.287-2.36.512-3.54.65v4.018c0-.006-.082 1.72 1.04 2.417.327.18.96.33 1.695.172 2.138-.49 2.59-3.232 2.59-3.218V51.49c-.986.29-1.785-.584-1.785-1.896"/>
        <path fill="#D63A3A" d="M70.567 51.486v-3.89c-1.18.463-2.361.897-3.542 1.282 0 1.27-.797 2.566-1.783 2.846v2.074c0-.01.452 2.37 2.59 1.652a4.568 4.568 0 0 0 1.695-1.09c1.122-1.263 1.04-2.874 1.04-2.874M60.812 57.582l-.46-.408V51c.154-.022.307-.05.46-.074v6.657M62.13 57.582c-.143 0-.288 0-.432-.006v-6.57c.144-.026.289-.052.431-.081v6.657M63.473 56.685c-.152.08-.302.156-.456.231v-7.21c.154-.032.304-.072.456-.113v7.092M63.54 52.256v3.995c.246-.142.49-.287.741-.428v-3.395a3.529 3.529 0 0 1-.74-.172"/>
        <path fill="#D63A3A" d="M65.242 47.429v-4.493c-1.776.529-3.55.927-5.326 1.141v6.848c1.181-.14 2.362-.368 3.542-.658.014-1.305.807-2.547 1.784-2.838"/>
        <path fill="#000" d="M65.21 54.253l.065-.027V51.59l-.065.024v2.638"/>
        <path fill="#000" d="M65.175 57.11c-.315.14-2.927.975-4.316-.318-.582-.524-.876-1.311-.876-2.31v-10.98c1.73-.212 3.46-.612 5.192-1.135v4.492l.067-.015V42.27c-1.775.538-3.55.95-5.326 1.166v11.058c0 1.015.302 1.824.897 2.36 1.15 1.06 3.123.725 3.98.46.254-.074.411-.138.418-.138l.031-.011-.067-.055"/>
        <path fill="#000" d="M65.21 52.537l.065-.015v-.546l-.065.017v.544"/>
        <path fill="#000" d="M65.242 42.779v4.337l.067-.015v-4.267c1.73-.5 3.463-1.117 5.194-1.797V51.46c0 .947-.296 1.843-.877 2.648-1.388 1.949-4.004 2.67-4.317 2.72l-.067.088.03-.008c.007 0 .163-.035.419-.11.857-.242 2.832-1.046 3.982-2.653.593-.826.895-1.744.895-2.712V40.94c-1.775.7-3.55 1.33-5.326 1.84"/>
        <path fill="#000" d="M65.243 47.654c-1.1.273-1.998 1.476-1.998 2.732 0 1.258.897 2.096 1.998 1.816 1.101-.279 1.997-1.56 1.997-2.814 0-1.257-.896-2.013-1.997-1.734zm0 4.548c-1.1.28-1.998-.558-1.998-1.812 0-1.257.897-2.46 1.998-2.737 1.102-.276 1.997.477 1.997 1.73 0 1.254-.895 2.54-1.997 2.82z"/>
        <path fill="#25A4C4" d="M66.574 48.918c0 .901-.596 1.796-1.332 1.975-.736.18-1.331-.422-1.331-1.323 0-.903.595-1.76 1.331-1.94.736-.18 1.332.384 1.332 1.288"/>
        <path fill="#000" d="M65.243 48.294c-.734.18-1.332 1.039-1.332 1.939 0 .897.598 1.504 1.332 1.327.735-.179 1.33-1.072 1.33-1.97 0-.903-.595-1.473-1.33-1.296zm0 3.264c-.735.183-1.332-.424-1.332-1.323 0-.9.597-1.76 1.331-1.94.736-.179 1.332.389 1.332 1.288 0 .896-.596 1.794-1.332 1.975zM71.234 47.723c-1.11.409-2.22.795-3.329 1.141v-.066c1.11-.345 2.22-.729 3.329-1.139v.064M63.245 50.676c-1.11.247-2.219.439-3.329.562v-.066a30.156 30.156 0 0 0 3.33-.56v.064M62.405 56.196a4.54 4.54 0 0 1-1.823-.087l.033-.058c.01.004.865.249 1.84.08.95-.16 2.194-.772 2.716-2.543h.071c-.533 1.814-1.81 2.44-2.787 2.602l-.05.006M67.672 55.485l-.041.01c-.837.21-1.933.146-2.389-1.213l.061-.029c.446 1.331 1.511 1.396 2.33 1.191.834-.208 1.567-.71 1.575-.715l.029.04c-.007.005-.73.5-1.565.716"/>
        <path fill="#000" d="M60.615 56.241l-.065.01v-5.317l.065-.01v5.317M61.28 57.567l-.064.015v-6.646l.064-.011v6.642M61.946 57.57l-.065.012v-6.645l.065-.012v6.645"/>
        <path fill="#000" d="M61.947 57.572l-.067.01v-6.644l.067-.013v6.647M62.643 56.902l-.128.014V49.61l.128-.016v7.31M63.278 56.902l-.065.014v-7.303l.065-.02v7.309M63.943 56.234l-.065.017v-3.979l.065-.016v3.978M64.609 55.57l-.064.015v-3.31l.064-.019v3.315"/>
        <path fill="#FFF" d="M73.897 50.238c-.444.233-.888.461-1.332.687v-9.301c.444-.226.888-.456 1.332-.685v9.3"/>
        <path fill="#000" d="M71.9 51.59c.887-.215 1.775-.44 2.663-.663v-9.323c-.888.224-1.776.448-2.663.668v9.319zm2.609-.68c-.853.232-1.707.455-2.56.68l-.05-.022v-9.233l.05-.052c.853-.22 1.707-.447 2.56-.679l.054.024v9.23l-.054.053z"/>
        <path fill="#D63A3A" d="M71.266 45.041c0 .018 3.7-2.319 4.628-1.074-.116.363-.233.729-.351 1.092-1.687-1.113-4.309 1.213-4.309 1.206l.032-1.224"/>
        <path fill="#000" d="M73.16 45.044c.974-.415 1.781-.428 2.405-.02l.33-1.06c-.493-.664-1.752-.29-2.726.124-.92.395-1.746.898-1.906.994l-.029 1.183c.2-.173.998-.821 1.927-1.221zm2.362.054l-.034-.022c-.596-.39-1.373-.386-2.318 0-1.025.416-1.88 1.138-1.889 1.147l-.047.042c.01-.421.023-.841.034-1.264l.026-.013c.008-.004.892-.53 1.884-.933.966-.392 2.22-.74 2.705-.095l.011.01-.372 1.128z"/>
        <path fill="#D63A3A" d="M75.18 47.596s-.678 1.228-.067 1.332c-.008-.702.486-.893.486-.893l-.42-.439"/>
        <path fill="#000" d="M76.348 47.635c-.108.36-.447 1.552-.34 2.202l.217.383c.012-.713.174-1.166.314-1.427l.262-.36c-.15-.268-.302-.537-.453-.798zm-.095 2.617l-.02.007c-.166-.048-.274-.188-.316-.43-.134-.736.36-2.13.384-2.187l.035-.046h.032c.176.287.35.565.526.843v.06l-.035.05c-.023.015-.576.36-.565 1.62l-.02.063-.021.02z"/>
        <path fill="#D63A3A" d="M71.9 46.93v.804c0 .507 3.534.273 3.994.528v-.739c0-.268-3.994-.009-3.994-.593"/>
        <path fill="#000" d="M71.9 46.93v.761c0 .323 1.294.386 2.334.42.744.028 1.397.05 1.66.15v-.792c0-.109-.781-.137-1.47-.164-1.047-.037-2.216-.093-2.524-.375zm3.957 1.332h-.03c-.18-.1-.888-.12-1.636-.144-1.127-.031-2.291-.083-2.291-.382v-.77l.038-.036.039.016c0 .308 1.42.368 2.458.4.958.032 1.46.05 1.46.171v.709l-.026.03-.012.006z"/>
        <path fill="#F5B400" d="M75.228 51.842c-.888.362-1.774.723-2.663 1.08v-1.588c.89-.35 1.775-.71 2.663-1.075v1.583"/>
        <path fill="#000" d="M72.565 52.922c.888-.357 1.775-.722 2.663-1.09v-1.573c-.888.374-1.775.737-2.663 1.093v1.57zm2.625-1.046c-.863.354-1.724.704-2.588 1.046l-.037-.024v-1.54l.037-.051c.864-.34 1.725-.69 2.588-1.048l.038.025v1.538l-.038.054z"/>
        <path fill="#F5B400" d="M75.228 40.526c-.888.366-1.774.728-2.663 1.078v-1.586c.89-.35 1.775-.71 2.663-1.076v1.584"/>
        <path fill="#000" d="M72.565 42.27c.888-.351 1.775-.722 2.663-1.089v-1.574c-.888.372-1.775.736-2.663 1.094v1.57zm2.625-1.045c-.863.353-1.724.705-2.588 1.045l-.037-.027v-1.537l.037-.052c.864-.34 1.725-.694 2.588-1.047l.038.023v1.536l-.038.06z"/>
        <path fill="#D63A3A" d="M58.262 50.61c0-.232-.686-.286-.686-.287v1.204c.213-.112.428-.227.64-.345 0 0 .046-.34.046-.573"/>
        <path fill="#000" d="M58.006 50.34v1.17l.772-.325c.012-.078.055-.374.055-.58 0-.148-.488-.234-.827-.266zm-.044 1.25l-.021-.005-.022-.028v-1.263l.016-.025.034-.01c.098.01.95.064.95.33 0 .245-.057.6-.057.605l-.025.028c-.286.124-.57.244-.856.363l-.02.006z"/>
        <path fill="#D63A3A" d="M56.383 50.06v.863c-.75-.151-.922-.641-.922-.636l.23-.692s.3.415.692.464"/>
        <path fill="#000" d="M55.324 50.272c.03.066.229.457.865.598v-.797c-.313-.05-.56-.315-.654-.425l-.211.624zm.932.653l-.036-.006c-.77-.142-.953-.595-.96-.609l-.004-.01c.085-.235.171-.468.256-.707l.04.05c0 .003.301.375.676.417l.028.005v.86z"/>
        <path fill="#FFF" d="M55.922 55.58c.444.013.888 0 1.331-.024v-9.957c-.443.03-.887.033-1.331.022v9.959"/>
        <path fill="#000" d="M55.922 55.579c.445.012.888.006 1.331-.02V45.6c-.443.03-.886.037-1.331.022v9.958zm1.305-.025c-.426.029-.852.038-1.278.025l-.027-.038V45.66l.027-.041c.426.019.852.006 1.278-.02l.026.039v9.879l-.026.038z"/>
        <path fill="#D63A3A" d="M59.915 47.673c0 .103-3.732-.703-4.659 1.283.117.432.235.873.353 1.303 1.684-2.279 4.307-.931 4.307-.96v-1.626"/>
        <path fill="#000" d="M55.256 48.985l.33 1.274c.623-.872 1.43-1.298 2.403-1.353.93-.045 1.729.27 1.927.358l-.001-1.6c-.16-.018-.993-.103-1.918-.052-.981.068-2.25.241-2.74 1.373zm.371 1.274c-.125-.441-.247-.888-.37-1.329l.007-.023c.488-1.07 1.75-1.233 2.724-1.298.998-.047 1.89.05 1.899.05l.027.007.002 1.668-.047-.026a4.522 4.522 0 0 0-1.889-.338c-.944.049-1.723.445-2.32 1.245l-.033.044z"/>
        <path fill="#D63A3A" d="M55.972 52.256s.677 1.021.064 1.332c.01-.712-.485-.747-.485-.747l.421-.585"/>
        <path fill="#000" d="M55.349 52.813l.262.112c.14.09.303.274.315.627l.217-.252c.107-.355-.232-.856-.34-1.008-.152.176-.303.352-.454.52zm.547.775l-.018-.006-.02-.029c.003-.266-.095-.47-.284-.584l-.283-.097-.035-.017.002-.03.525-.555.033-.014.034.016c.021.025.517.606.384 1.013-.044.136-.148.234-.316.302h-.022z"/>
        <path fill="#D63A3A" d="M57.92 49.593v1.087c0 .738-2.945 1.813-3.33 2.242v-1.007c0-.29 3.33-1.467 3.33-2.322"/>
        <path fill="#000" d="M57.92 49.593c-.26.407-1.231.892-2.104 1.259-.576.246-1.225.488-1.225.603v.801c.22-.174.763-.378 1.383-.645.867-.366 1.945-.916 1.945-1.242v-.776zm-3.3 3.329l-.011-.001-.018-.037v-.983c0-.17.415-.341 1.215-.73.867-.417 2.051-1.111 2.051-1.542l.033-.036.03.032v1.067c0 .414-.97.994-1.91 1.458-.625.311-1.214.567-1.365.763l-.025.009z"/>
        <path fill="#F5B400" d="M55.922 57.546c.89.058 1.776.037 2.663-.046v-2.577c-.887.082-1.773.1-2.663.042v2.58"/>
        <path fill="#000" d="M55.922 57.474c.887.061 1.776.04 2.663-.04v-2.442c-.887.077-1.776.093-2.663.043v2.439zm2.626.033c-.862.08-1.725.099-2.591.043l-.035-.061v-2.466l.035-.055c.866.053 1.729.035 2.591-.049l.037.059v2.462l-.037.067z"/>
        <path fill="#F5B400" d="M55.922 46.895c.89.058 1.776.04 2.663-.05v-2.576c-.887.083-1.773.104-2.663.048v2.578"/>
        <path fill="#000" d="M55.922 46.83c.887.055 1.776.036 2.663-.046v-2.447c-.887.08-1.776.098-2.663.05v2.442zm2.626.023c-.862.084-1.725.099-2.591.048l-.035-.069v-2.458l.035-.06c.866.05 1.729.035 2.591-.047l.037.056v2.459l-.037.07z"/>
        <path fill="#D63A3A" d="M68.605 37.252c-1.495-.397-3.03.096-3.03.096s-1.536.167-3.03 1.183c-1.262-.057-2.629.892-2.629.892.053.221.109.442.163.663.17.133.338.265.507.395l.28.281c.283.061.565.122.847.177 2.575-.346 5.15-.919 7.723-1.618.282-.172.564-.346.846-.52l.28-.386c.168-.2.339-.397.51-.595.052-.24.106-.483.162-.725 0 0-1.367-.427-2.63.157"/>
        <path fill="#000" d="M61.693 40.939c2.59-.408 5.177-1.092 7.765-1.914l.835-.601.275-.453.51-.7.156-.824c-.143-.049-1.094-.337-2.09-.026a2.84 2.84 0 0 0-.508.215l-.016.01-.013-.006c-1.052-.331-2.125-.134-2.669.003-.225.056-.357.107-.358.107l-.005.003-.004.001c-.002 0-.137.018-.357.07a6.997 6.997 0 0 0-2.67 1.325l-.014.008h-.017c-.16-.008-.33 0-.504.03-.997.17-1.948.89-2.093 1.004l.157.753c.169.156.337.308.504.461l.28.329c.277.07.558.138.836.205zm7.723-1.865c-2.561.802-5.125 1.465-7.687 1.865a28.783 28.783 0 0 1-.85-.21l-.284-.328c-.17-.15-.34-.304-.51-.458-.055-.266-.11-.528-.169-.792l.02-.015c.01-.007 1.038-.824 2.125-1.004.172-.03.341-.04.5-.03 1.44-1.127 2.92-1.348 3.015-1.36.097-.034 1.574-.552 3.015-.117.157-.08.328-.152.501-.205 1.086-.333 2.114.026 2.124.03l.018.006c-.055.29-.11.579-.168.868l-.513.692-.279.453c-.286.201-.57.407-.858.605z"/>
        <path fill="#F5B400" d="M68.571 40.355c0-.244-1.788.089-3.994.573-2.207.49-3.995.908-3.995 1.145 0 .055.099.093.276.118.033.147.068.295.103.438l-.185.16c0 .238 1.684.209 3.758-.25 2.078-.456 3.76-1.13 3.76-1.365l-.14-.078c.032-.163.067-.325.1-.487.203-.108.317-.195.317-.254"/>
        <path fill="#000" d="M64.577 40.949c-2.353.52-3.995.934-3.995 1.131 0 .016.02.063.255.096l.02.002c.037.162.075.329.11.49l-.026.016c-.145.07-.162.113-.162.128 0 .19 1.542.209 3.756-.282 2.214-.493 3.755-1.165 3.755-1.353l-.12-.055-.025-.007.113-.542.021-.01c.272-.146.292-.209.292-.225 0-.2-1.64.08-3.994.61zm-.042 1.6c-1.822.405-3.76.515-3.76.22l.176-.171c-.031-.13-.06-.264-.093-.391-.187-.029-.276-.073-.276-.14 0-.286 2.057-.723 3.995-1.156 1.937-.411 3.994-.832 3.994-.542 0 .072-.1.159-.317.275l-.093.437.135.094c0 .29-1.938.986-3.761 1.374z"/>
        <path fill="#D63A3A" d="M67.905 40.349c0 .264-1.49 1.202-3.33 1.892-1.836.691-3.327.837-3.327.569 0-.27 1.491-.849 3.328-1.542 1.84-.69 3.33-1.192 3.33-.92"/>
        <path fill="#000" d="M64.574 41.31c-2.035.78-3.31 1.336-3.326 1.541.017.174 1.291.136 3.326-.644 2.036-.788 3.31-1.7 3.331-1.887-.021-.19-1.295.2-3.331.99zm.001.948c-1.336.518-3.327.911-3.327.518 0-.368 1.991-1.037 3.327-1.548 1.34-.474 3.33-1.23 3.33-.853 0 .387-1.99 1.416-3.33 1.883z"/>
        <path fill="#F5B400" d="M70.985 35.251c-.4-.458-1.25-.389-2.525.142l-.137-.137c-.478-.369-1.405-.095-2.747.727-1.346-.082-2.271.144-2.749.767l-.135.212c-1.277.147-2.126.5-2.524 1.153-.575.935.011 2.112.037 2.158l.253-.163c-.004-.01-.538-1.075-.058-1.856.328-.54 1.056-.846 2.163-.984-.258.84.123 1.798.143 1.846l.277-.132c-.006-.012-.53-1.32.05-2.076.395-.516 1.304-.717 2.543-.633 1.239-.765 2.145-1.055 2.542-.753.58.446.056 2.03.05 2.043l.274-.009c.02-.06.403-1.218.146-1.923 1.107-.448 1.834-.505 2.162-.129.48.548-.052 1.874-.058 1.89l.251.035c.026-.063.613-1.524.042-2.178"/>
        <path fill="#000" d="M70.77 37.36l.191.028c.093-.246.549-1.54.026-2.14-.393-.453-1.24-.387-2.508.15l-.022.008-.01-.017-.134-.137c-.248-.192-.63-.205-1.13-.048-.44.135-.977.406-1.598.79l-.009.005h-.013c-.621-.04-1.157-.009-1.595.093-.501.119-.883.338-1.133.668l-.132.209-.01.02-.022.002c-1.267.151-2.117.508-2.509 1.156-.52.86-.066 1.93.027 2.126l.191-.122c-.085-.184-.489-1.158-.04-1.9.336-.56 1.081-.877 2.206-1.02l.047-.006-.015.047c-.233.779.069 1.657.134 1.829l.209-.102c-.081-.221-.472-1.404.07-2.117.209-.275.547-.464 1.006-.573.437-.107.968-.13 1.58-.089.606-.38 1.138-.65 1.575-.785.461-.145.798-.139 1.007.022.543.422.153 1.813.071 2.075l.208-.007c.067-.209.369-1.245.133-1.9l-.016-.039.047-.02c1.127-.46 1.871-.518 2.21-.126.447.518.043 1.692-.042 1.92zm.156.108l-.313-.046.016-.037c.006-.013.526-1.295.06-1.822-.312-.356-1.01-.306-2.073.115.232.708-.14 1.828-.158 1.873l-.012.036-.34.014.015-.042c.004-.013.518-1.55-.045-1.974-.192-.146-.509-.149-.943-.016-.426.13-.947.388-1.548.753l-.008.006h-.013c-.6-.04-1.119-.013-1.548.084-.433.102-.75.271-.942.52-.56.724-.047 1.99-.041 2l.014.035-.343.162-.011-.025c-.017-.038-.392-.96-.158-1.795-1.063.14-1.76.432-2.074.94-.464.754.055 1.784.06 1.794l.016.031-.312.199-.016-.03c-.027-.051-.62-1.221-.037-2.16.4-.65 1.249-1.006 2.52-1.151l.128-.196c.26-.334.653-.558 1.168-.679.437-.1.972-.128 1.589-.09.614-.373 1.149-.632 1.586-.765.515-.16.908-.147 1.169.053l.127.125c1.27-.522 2.119-.581 2.52-.128.582.658-.011 2.117-.037 2.177l-.016.039z"/>
        <path fill="#F5B400" d="M65.642 38.155c0 1.464-.18 2.71-.398 2.781-.221.066-.401-1.072-.401-2.54s.18-2.712.4-2.78c.219-.068.399 1.066.399 2.539"/>
        <path fill="#000" d="M65.079 35.615c-.204.053-.428 1.206-.428 2.775 0 1.568.224 2.601.428 2.547.199-.052.423-1.206.423-2.777 0-1.568-.224-2.597-.423-2.545zm0 5.32c-.326.09-.502-1.244-.502-2.534 0-1.286.176-2.7.501-2.784.324-.085.497 1.235.499 2.524 0 1.289-.175 2.713-.499 2.793z"/>
        <path fill="#F5B400" d="M61.31 42.264c-.234.041-.477-.115-.728-.473l.217-.22c.205.293.397.422.54.374.155-.055.264-.323.295-.423l.063-.216.147.101c.08.06.328.18.513.06.172-.114.253-.415.288-.645l.076-.473.177.376c.09.184.23.404.4.362h.005c.22-.058.46-.526.526-.684l.108-.258.123.183c.157.239.319.307.477.206.239-.147.438-.624.438-.847l.267-.08c0 .319-.25.962-.627 1.2-.141.094-.398.187-.657-.09-.132.246-.367.614-.663.684-.175.038-.334-.032-.474-.208-.084.256-.209.436-.372.547-.236.154-.485.09-.634.02-.077.174-.218.407-.437.486l-.068.018"/>
        <path fill="#000" d="M60.582 41.815c.263.37.521.517.757.431.206-.077.34-.3.42-.474l.016-.036.03.013a.684.684 0 0 0 .428.053l.189-.076c.156-.104.278-.286.359-.538l.022-.07.035.047c.137.174.29.243.456.204l.007-.002c.273-.069.498-.41.638-.681l.025-.046.03.03c.149.159.312.215.488.164l.144-.068c.357-.23.595-.83.616-1.159l-.206.066c-.02.255-.221.72-.467.878-.177.115-.358.04-.525-.218l-.094-.145-.082.203c-.076.184-.322.673-.566.734-.197.045-.35-.184-.441-.39l-.137-.29-.056.367c-.04.252-.127.575-.316.702l-.119.05c-.173.04-.363-.055-.438-.106l-.11-.084-.05.166c0 .007-.115.397-.328.471-.155.058-.35-.07-.56-.367l-.165.171zm.761.448c-.24.043-.49-.115-.74-.471l-.02-.03.265-.26.02.026c.192.268.37.395.5.352.134-.048.237-.296.261-.382l.078-.262.181.128c.054.038.227.127.382.094l.09-.037c.157-.099.228-.378.265-.592.028-.191.06-.382.093-.575.071.154.144.304.216.456.117.242.248.362.363.34h.001c.192-.05.414-.448.493-.635l.132-.316.15.226c.147.216.291.282.434.191.216-.134.406-.578.406-.773v-.039l.33-.097v.037c0 .318-.256.966-.643 1.208l-.158.072c-.178.051-.344.005-.495-.135-.146.26-.37.565-.646.635h-.008c-.166.04-.32-.017-.456-.165-.085.226-.207.39-.362.49l-.205.083a.69.69 0 0 1-.418-.045c-.087.176-.227.384-.437.458l-.072.018z"/>
        <path fill="#F5B400" d="M69.197 39.827l-.063.017a.466.466 0 0 1-.46-.18c-.15.126-.4.302-.641.292-.16-.008-.284-.1-.37-.27-.14.218-.298.355-.471.407l-.008.004c-.291.085-.526-.097-.655-.235-.262.358-.518.415-.657.41-.379-.008-.63-.411-.63-.677l.268-.065c0 .181.2.473.437.476.161.004.321-.134.478-.41l.125-.218.105.162c.068.099.305.364.529.297h.002c.172-.05.312-.3.402-.498.058-.134.115-.265.174-.397l.076.353c.037.174.116.38.29.391.183.01.434-.213.512-.3l.143-.152.066.139c.033.068.155.237.32.203.145-.028.323-.21.518-.523l.216.08c-.238.386-.475.618-.706.694"/>
        <path fill="#000" d="M68.71 39.578l.017.021c.085.104.23.217.443.177.236-.048.481-.27.733-.663l-.167-.065c-.198.317-.382.493-.538.525-.224.044-.352-.213-.352-.216l-.052-.108-.109.116c-.073.08-.263.248-.435.3l-.12.018c-.188-.008-.276-.229-.315-.413l-.056-.267-.136.3c-.095.211-.247.475-.435.535-.251.073-.497-.2-.574-.312l-.08-.124-.094.167c-.169.295-.348.442-.525.44-.244-.006-.445-.28-.467-.476l-.206.05c.02.256.261.623.614.629l.147-.019c.173-.048.338-.173.488-.38l.028-.037.026.024c.114.125.35.316.637.235l.009-.006c.164-.05.317-.182.452-.39l.036-.053.023.044c.082.165.203.252.357.257l.188-.025a1.3 1.3 0 0 0 .434-.26l.03-.024zm.453.29l-.067.016a.485.485 0 0 1-.459-.154 1.338 1.338 0 0 1-.425.23l-.205.025a.432.432 0 0 1-.361-.215c-.135.178-.287.293-.455.34l-.008.003c-.276.074-.5-.06-.646-.194a.973.973 0 0 1-.493.337l-.16.017c-.385-.006-.642-.389-.642-.635v-.03l.33-.075v.029c0 .149.19.407.404.41.143.003.289-.115.434-.353l.153-.246.13.184c.079.109.301.314.49.264.12-.035.25-.186.366-.43l.217-.45.094.403c.034.148.108.328.262.336l.093-.014c.155-.044.327-.191.382-.244l.174-.17.08.157c.028.053.142.2.288.173.13-.025.298-.182.479-.457l.02-.03.265.095-.02.027c-.24.362-.48.579-.72.65z"/>
        <path fill="#F5B400" d="M64.917 39.607c-.227.151-.453.302-.68.448v-.896c.216.063.43.121.644.18l.036.268"/>
        <path fill="#000" d="M64.668 38.482v1.585c.272-.264.543-.53.818-.805l-.041-.458c-.26-.098-.52-.213-.777-.322zm-.091 1.791v-1.997c.315.138.629.269.944.394l.056.615c-.334.333-.669.658-1 .988z"/>
        <path fill="#F5B400" d="M65.64 39.633c.205-.154.413-.314.618-.474v.896c-.233-.044-.466-.09-.7-.138l.082-.284"/>
        <path fill="#000" d="M65.335 39.71c.271.046.542.086.814.129v-.795l-.724.428-.09.239zm.907.232c-.334-.049-.667-.1-1-.153l.121-.328c.291-.17.586-.343.88-.52v1z"/>
        <path fill="#F5B400" d="M65.07 39.317l-.276-.514c.299-.076.598-.156.896-.237l-.334.678-.286.073"/>
        <path fill="#000" d="M64.93 38.803l.245-.1.295-.955c-.262.117-.524.227-.787.332l.247.723zm.277-.003l-.325.142c-.1-.303-.204-.61-.305-.911.332-.134.666-.275 1-.421-.123.4-.246.799-.37 1.19z"/>
        <path fill="#D63A3A" d="M65.488 39.54c0 .136-.11.277-.245.314-.137.035-.246-.049-.246-.182 0-.136.109-.274.246-.312.136-.034.245.046.245.18"/>
        <path fill="#000" d="M65.244 38.445l-.512.63.512.363.508-.626-.508-.367zm0 1.138c-.372.099-.667-.111-.667-.469 0-.36.295-.721.667-.817.362-.092.664.12.664.469 0 .36-.302.727-.664.817z"/>
        <path fill="#F5B400" d="M67.592 39.04c-.241.126-.48.247-.72.367.057-.31.113-.622.167-.93.19.094.38.19.569.28l-.016.282"/>
        <path fill="#000" d="M67.516 39.043l-.184.797c.268-.103.534-.211.799-.317l.016-.234c-.21-.081-.42-.162-.631-.246zm-.276.899c.074-.331.153-.667.228-1 .258.1.513.2.772.297l-.023.316c-.326.132-.652.26-.977.387z"/>
        <path fill="#F5B400" d="M67.638 38.87c.221-.13.442-.261.663-.396-.054.31-.11.625-.167.935-.208-.084-.417-.17-.625-.256l.13-.282"/>
        <path fill="#000" d="M68.666 38.953c.214.074.429.147.641.218l.169-.79c-.226.115-.457.23-.685.342l-.125.23zm.69.323l-.785-.27.17-.314c.274-.138.553-.276.83-.416l-.214 1z"/>
        <path fill="#F5B400" d="M67.628 38.62l-.162-.577c.293-.035.587-.073.879-.11-.145.216-.29.435-.437.65l-.28.036"/>
        <path fill="#000" d="M68.16 38.508l.244-.04.395-.756c-.263.046-.523.09-.787.13l.147.666zm.252.05l-.324.052-.183-.837c.334-.048.667-.106 1-.163l-.493.948z"/>
        <path fill="#D63A3A" d="M68.147 38.91c-.025.142-.153.273-.288.289-.134.017-.22-.083-.195-.227a.365.365 0 0 1 .287-.287c.135-.019.221.085.196.225"/>
        <path fill="#000" d="M67.65 38.393l-.314.36.05.226.204.07a.479.479 0 0 0 .376-.374l-.05-.228-.206-.07-.06.016zm.004.74l-.08.017-.27-.092-.064-.292a.629.629 0 0 1 .41-.47l.08-.02.266.092.066.292a.646.646 0 0 1-.408.474z"/>
        <path fill="#F5B400" d="M69.55 39.25c-.243.056-.486.108-.73.156.146-.308.294-.616.44-.929.13.162.26.319.394.477l-.104.296"/>
        <path fill="#000" d="M69.333 39.174c.238-.045.476-.092.711-.138l.097-.243c-.13-.137-.258-.275-.387-.415l-.421.796zm.772-.065c-.288.058-.577.111-.868.167l.53-1c.155.17.311.338.47.504l-.132.329z"/>
        <path fill="#F5B400" d="M69.49 38.582l.044-.663c.26.052.522.108.781.161l-.576.553-.25-.051"/>
        <path fill="#000" d="M70.674 38.449l.233.058.555-.619c-.248-.058-.496-.118-.743-.175-.016.244-.03.488-.045.736zm.2.161l-.306-.072.054-.928c.314.079.632.152.946.224-.23.261-.463.519-.694.776z"/>
        <path fill="#D63A3A" d="M70.118 38.987c-.068.141-.219.237-.337.21-.117-.022-.16-.157-.093-.3.066-.14.217-.236.335-.212.117.026.161.16.095.302"/>
        <path fill="#000" d="M69.638 38.389l-.28.262-.028.254.152.142.156-.016.28-.26.03-.256-.15-.138-.16.012zm0 .74l-.203.019-.198-.184.038-.33.364-.342.204-.016.198.178-.038.334-.364.342z"/>
        <path fill="#F5B400" d="M62.893 40.034c.24-.003.48-.005.72-.01l-.169-.843c-.188.191-.378.387-.567.577l.016.276"/>
        <path fill="#000" d="M63.354 40.506c.264-.003.53-.005.799-.01l-.184-.788c-.212.186-.421.368-.632.55l.017.248zm.891.093c-.327.004-.651.008-.978.008l-.022-.331.768-.669c.076.33.155.662.232.992z"/>
        <path fill="#F5B400" d="M62.18 39.903c-.22-.014-.441-.035-.664-.055.057.282.113.567.168.85.208-.19.417-.383.627-.579l-.13-.216"/>
        <path fill="#000" d="M62.01 40.376c.055.265.112.528.168.794.214-.179.426-.362.64-.546l-.126-.193a58.317 58.317 0 0 1-.683-.055zm.12.897l-.216-1c.277.024.554.045.831.067l.169.262c-.261.228-.524.452-.785.671z"/>
        <path fill="#F5B400" d="M62.191 39.883c.055-.22.11-.44.161-.66-.291.117-.585.231-.877.34.145.141.29.287.437.429l.28-.11"/>
        <path fill="#000" d="M62.021 40.057c.133.15.264.303.395.447l.244-.109c.05-.228.098-.455.146-.684-.26.12-.523.234-.785.346zm.386.55c-.164-.188-.327-.37-.493-.557a52.13 52.13 0 0 0 1-.443l-.184.854-.323.146z"/>
        <path fill="#D63A3A" d="M61.672 39.7c.026.129.155.192.288.14.134-.053.22-.2.196-.33-.025-.127-.153-.186-.289-.135-.134.051-.22.197-.195.324"/>
        <path fill="#000" d="M62.992 39.723l-.062.016-.204.176-.052.252.376.18.206-.176.05-.254-.314-.194zm-.003.73c-.2.04-.372-.07-.41-.257l.064-.326.268-.23.08-.024c.198-.04.374.066.41.258l-.066.328-.268.228-.078.024z"/>
        <path fill="#F5B400" d="M60.936 40.73c.242-.064.484-.133.727-.205l-.438-.709-.392.667.103.247"/>
        <path fill="#000" d="M60.68 40.97l.095.204c.237-.058.476-.117.71-.18-.14-.205-.28-.414-.42-.622-.13.203-.257.4-.386.598zm.032.303l-.13-.28c.158-.24.313-.48.47-.72.177.258.354.522.53.78-.29.075-.582.149-.87.22z"/>
        <path fill="#F5B400" d="M60.33 40.51l-.047-.643c-.26.18-.519.358-.78.532.192.095.385.188.58.28l.247-.169"/>
        <path fill="#000" d="M60.023 40.892c.185.094.369.183.556.277l.23-.166-.042-.626c-.25.173-.498.346-.744.515zm.588.381a33.994 33.994 0 0 1-.695-.345c.315-.215.63-.43.946-.655l.054.783-.305.217z"/>
        <path fill="#D63A3A" d="M60.368 41.752l.334.052.095-.349-.336-.05-.093.347"/>
        <path fill="#000" d="M60.32 41.035l-.157.06-.154.218.03.238.28.126.158-.062.152-.218-.028-.238-.282-.124zm-.002.738l-.364-.164-.038-.312.2-.278.202-.08.366.164.038.31-.198.278-.206.082z"/>
        <path fill="#F5B400" d="M65.36 33.991v-.244l-.235.06v.247l-.247.062v.288l.247-.061v.472l.235-.064v-.471l.246-.067v-.29l-.246.068"/>
        <path fill="#000" d="M64.97 35.519l.215-.057v-.546l.31-.077v-.257l-.31.074v-.28l-.215.05v.284l-.312.072v.26l.312-.072v.549zm.295 0l-.378.094v-.549l-.31.076v-.41l.31-.077v-.28l.378-.092v.28l.312-.076v.41l-.312.078v.546z"/>
        <path fill="#25A4C4" d="M65.739 35.48c0 .272-.224.557-.495.63-.276.072-.498-.096-.498-.371 0-.273.222-.549.498-.622.271-.075.495.088.495.362"/>
        <path fill="#000" d="M65.078 35.688c-.243.064-.44.3-.44.535 0 .234.197.375.44.314.242-.06.437-.305.437-.539 0-.233-.195-.37-.437-.31zm0 .909c-.278.07-.501-.094-.501-.36 0-.265.223-.536.5-.607.275-.071.5.084.5.353 0 .264-.225.543-.5.614z"/>
        <path fill="#D63A3A" d="M57.966 42.662c-.35-.228-.714-.172-.714-.172s-.36-.048-.712.188c-.296-.086-.618.153-.618.153l.038.21.12.144.065.1.2.093c.606.019 1.211.01 1.818-.02l.199-.098.065-.103.12-.146.038-.212s-.322-.23-.62-.137"/>
        <path fill="#000" d="M56.34 42.897c.608.025 1.218.016 1.826-.03l.198-.143.063-.14.121-.207.037-.294c-.034-.035-.258-.244-.494-.223l-.118.029h-.006a.903.903 0 0 0-.628-.26l-.085.012h-.002l-.084-.004a.912.912 0 0 0-.628.273l-.003.006h-.005l-.117-.027c-.235-.01-.46.205-.493.24l.037.29.118.204.066.14.197.134zm1.816-.004a14.93 14.93 0 0 1-1.807.028l-.2-.136-.067-.148-.121-.21-.039-.314.004-.006c.002-.002.245-.253.502-.248l.116.03c.34-.331.687-.28.708-.275.025-.008.372-.066.711.245l.116-.027c.257-.019.5.229.501.229l.005.008-.041.319-.12.21-.064.149-.204.146z"/>
        <path fill="#F5B400" d="M58.585 43.459c0-.07-.595-.102-1.332-.095-.736.005-1.331.045-1.331.116l.091.05.035.138-.061.036c0 .069.563.143 1.253.135.692-.002 1.252-.083 1.252-.155l-.047-.032.036-.14.104-.053"/>
        <path fill="#000" d="M57.252 44.295c-.785.008-1.33.08-1.33.162l.083.064.007.004.038.222-.009.002-.054.044c0 .086.514.202 1.252.194.738-.01 1.252-.14 1.252-.222l-.042-.04h-.007l.038-.23.007-.002.098-.068c0-.09-.548-.142-1.333-.13zm-.014.718c-.607.008-1.254-.082-1.254-.218l.059-.066-.029-.184-.092-.086c0-.132.684-.18 1.329-.19.646-.008 1.334.024 1.334.154l-.107.094-.03.192.043.056c0 .134-.645.24-1.253.248z"/>
        <path fill="#D63A3A" d="M57.253 43.577c0 .05-.296.105-.665.109-.368.008-.666-.044-.666-.088 0-.048.298-.077.666-.081.369-.004.665.017.665.06"/>
        <path fill="#000" d="M56.588 44.297c-.407.01-.662.056-.666.106.004.044.259.13.666.122.407-.01.663-.1.665-.148-.002-.048-.258-.09-.665-.08zm0 .255c-.267.01-.666-.048-.666-.148 0-.104.4-.128.667-.136.266-.002.664.002.664.104 0 .106-.398.176-.664.18z"/>
        <path fill="#F5B400" d="M58.526 42.794c-.094-.146-.294-.194-.593-.151l-.033-.048c-.112-.123-.33-.123-.646-.006-.316-.111-.534-.102-.646.026l-.032.044c-.3-.032-.5.02-.595.163-.135.212.004.534.01.548l.059-.032c0-.003-.127-.293-.014-.468.078-.12.249-.166.51-.14-.061.198.028.455.033.47l.064-.017c0-.004-.123-.36.013-.519.093-.104.308-.104.598-.004.29-.11.504-.116.598-.012.136.156.013.514.012.518l.064.019c.005-.016.094-.277.034-.476.26-.03.431.01.509.13.113.174-.012.465-.014.47l.06.029c.005-.014.144-.334.01-.544"/>
        <path fill="#000" d="M58.476 43.853l.046.023c.02-.06.128-.378.004-.588-.092-.162-.29-.216-.59-.173h-.004l-.002-.003-.033-.048c-.057-.073-.148-.11-.266-.103a1.09 1.09 0 0 0-.376.096l-.001.003-.003-.003a1.11 1.11 0 0 0-.376-.084.308.308 0 0 0-.267.11l-.03.047-.002.006h-.006c-.298-.034-.497.024-.59.183-.123.215-.016.533.006.593l.046-.024c-.02-.059-.116-.347-.01-.531.08-.138.254-.19.52-.164h.01l-.003.014c-.055.204.014.465.031.517l.05-.016c-.02-.066-.113-.417.016-.582l.237-.093c.101 0 .226.027.37.085.144-.058.268-.091.372-.094l.237.084c.127.163.035.517.017.58l.048.012c.016-.048.086-.313.032-.51l-.004-.013h.011c.264-.04.44.01.52.145.105.183.009.474-.01.531zm.037.047l-.073-.04.002-.01c.003-.001.125-.325.014-.519-.073-.127-.237-.174-.487-.14.056.223-.033.512-.036.524l-.003.01-.081-.028.003-.006c.003-.006.121-.4-.01-.57l-.22-.08a1.034 1.034 0 0 0-.366.098h-.004a1.001 1.001 0 0 0-.364-.09l-.222.09c-.132.168-.012.564-.01.57l.004.008-.082.028-.002-.009c-.005-.01-.092-.3-.037-.523-.25-.026-.414.022-.49.153-.11.192.014.514.016.519l.003.007-.073.044-.004-.01c-.006-.014-.146-.38-.01-.622.096-.165.297-.228.594-.193l.031-.045c.06-.08.153-.117.274-.117.102 0 .23.03.374.085.144-.06.27-.091.373-.097a.309.309 0 0 1 .276.11l.03.046c.298-.044.498.012.592.175.136.239-.001.608-.009.623l-.003.009z"/>
        <path fill="#F5B400" d="M56.7 42.933c0 .357-.052.646-.113.65-.063 0-.112-.289-.112-.646 0-.357.05-.648.112-.648.061 0 .113.289.113.644"/>
        <path fill="#000" d="M56.772 42.288c-.074 0-.156.268-.156.65 0 .38.082.646.156.646.072 0 .152-.27.152-.65 0-.383-.08-.646-.152-.646zm-.002 1.314c-.12 0-.182-.343-.182-.663 0-.326.062-.669.182-.669.116-.004.182.342.182.664 0 .325-.066.666-.182.668z"/>
        <path fill="#F5B400" d="M55.483 43.793l-.198-.144.06-.043.148.115.078-.083.019-.045.04.03.14.042.078-.135.021-.109.048.1.11.11.146-.127.03-.052.031.052.132.078.119-.171h.074l-.173.24-.18-.063-.18.118-.129-.077-.102.105-.173-.028-.119.087h-.02"/>
        <path fill="#000" d="M55.279 43.312l.21.206.115-.132.004-.01.008.008.119.056.052-.012.1-.156.006-.018.01.018.125.112h.002l.176-.172.007-.016.007.016.134.1.041-.008.17-.334h-.056l-.129.258-.146-.134-.025-.052-.023.06-.156.2-.122-.17-.039-.116-.015.122-.086.214-.033.008-.122-.074-.03-.044-.014.06-.089.134-.156-.166-.045.042zm.194.24l-.211-.23-.006-.01.076-.078.005.014.144.164.075-.118.022-.084.05.06.11.064.026-.006.076-.19.026-.202.063.186.103.156.14-.186.039-.098.043.096.124.116.115-.244v-.01l.095-.004v.012l-.182.38-.048.004-.14-.1-.185.174h-.003l-.129-.106-.104.148-.059.014-.119-.056-.126.134h-.02z"/>
        <path fill="#F5B400" d="M57.698 43.783h-.018l-.124-.089-.176.032-.103-.104-.127.083h-.003l-.177-.116-.181.07-.172-.238h.075l.117.168.133-.085.032-.05.03.054.143.124h.003l.107-.114.05-.098.021.105.079.135.138-.047.04-.03.017.045.087.08.144-.108.057.04-.192.143"/>
        <path fill="#000" d="M57.566 43.354l.006.016.123.122.202-.196-.046-.048-.15.16-.097-.13-.013-.052-.03.038-.122.074-.033-.006-.085-.212-.016-.116-.039.112-.119.18-.157-.196-.023-.058-.026.054-.145.134-.129-.25h-.057l.17.326.04.01.134-.106.009-.014.007.014.175.168h.002l.126-.118.01-.018.005.022.1.148.05.01.121-.058.007-.01zm.142.182h-.019l-.131-.124-.122.056-.059-.012-.1-.142-.132.112h-.003l-.183-.17-.141.106-.047-.006-.183-.372v-.01l.094-.004v.012l.116.242.124-.122.042-.102.038.106.14.176.105-.16.063-.186.025.202.077.186.024.008.11-.072.05-.064.024.086.082.118.136-.16.007-.008.074.076-.005.008-.206.22z"/>
        <path fill="#F5B400" d="M56.684 42.984l-.192.077v-.25l.181.097.01.076"/>
        <path fill="#000" d="M56.618 42.98v.337l.258-.106-.012-.1-.246-.13zm-.03.382v-.426l.3.156.018.138-.318.132z"/>
        <path fill="#F5B400" d="M56.512 42.898l.174-.088v.252l-.197-.088.023-.076"/>
        <path fill="#000" d="M56.62 43.196l.264.12v-.336l-.236.118-.028.098zm.296.164l-.328-.148.042-.128.286-.148v.424z"/>
        <path fill="#F5B400" d="M56.54 43.02l-.078-.164.252-.004-.094.166-.08.002"/>
        <path fill="#000" d="M56.737 43.187h.104l.126-.224-.334.006.104.218zm.119.027h-.138l-.13-.27.424-.008-.156.278z"/>
        <path fill="#D63A3A" d="M56.656 42.934l-.068.07-.069-.07.07-.067.067.067"/>
        <path fill="#000" d="M56.706 43.17l-.118-.112.118-.122.116.118z"/>
        <path fill="#F5B400" d="M57.354 43.014l-.204.046.047-.248.16.124-.003.078"/>
        <path fill="#000" d="M57.346 42.98l-.062.33.272-.061.008-.102-.218-.166zm-.093.376l.078-.42.264.206-.008.134-.334.08z"/>
        <path fill="#F5B400" d="M57.178 42.87l.187-.06-.046.251-.177-.121.036-.07"/>
        <path fill="#000" d="M57.287 43.143l.238.17.062-.336-.254.078-.046.088zm.256.21l-.29-.201.062-.12.306-.096-.078.418z"/>
        <path fill="#F5B400" d="M57.174 43.015l-.044-.173.247.037-.124.15-.079-.014"/>
        <path fill="#000" d="M57.36 43.199l.101.018.164-.202-.326-.048.06.232zm.107.049l-.138-.022-.076-.29.418.058-.204.254z"/>
        <path fill="#D63A3A" d="M57.321 42.947l-.08.057-.055-.077.08-.059.055.079"/>
        <path fill="#000" d="M57.37 43.168h-.025l-.074-.044-.018-.088.116-.1h.022l.074.048.018.084z"/>
        <path fill="#F5B400" d="M58.007 43.058l-.204-.016.122-.228.11.165-.028.079"/>
        <path fill="#000" d="M57.327 43.28l.548.02.08-.096-.304-.23-.324.306zm.602.058l-.676-.026.412-.376.364.272-.1.13z"/>
        <path fill="#F5B400" d="M57.803 43.01l.012-.183.22.11-.162.107-.07-.034"/>
        <path fill="#000" d="M58.628 43.22l.09.042.218-.146-.292-.14-.016.244zm.077.082l-.12-.06.022-.306.372.186-.274.18z"/>
        <path fill="#D63A3A" d="M57.98 42.996l-.095.066-.027-.191.095-.062.027.187"/>
        <path fill="#000" d="M58.699 43.168l-.058-.01-.056-.068.012-.09.102-.064.058.01.056.066-.012.094z"/>
        <path fill="#F5B400" d="M55.823 43.016l.202.043-.046-.246-.16.126.004.077"/>
        <path fill="#000" d="M55.959 43.25l.274.058-.062-.328-.216.172.004.098zm.307.102l-.336-.074-.008-.132.266-.21.078.416z"/>
        <path fill="#F5B400" d="M55.998 42.867l-.188-.054.048.246.176-.124-.036-.068"/>
        <path fill="#000" d="M55.958 42.978l.064.334.236-.17-.046-.084-.254-.08zm.044.376l-.08-.418.31.094.062.118-.292.206z"/>
        <path fill="#F5B400" d="M56 43.02l.046-.18-.248.045.124.146.079-.012"/>
        <path fill="#000" d="M55.968 43.028l.164.194.102-.02.06-.232-.326.058zm.16.228l-.206-.248.418-.072-.076.294-.136.026z"/>
        <path fill="#D63A3A" d="M55.854 42.948l.08.056.056-.079-.081-.057-.055.08"/>
        <path fill="#000" d="M56.038 43.172l-.116-.092.018-.094.076-.05h.022l.116.096-.02.09-.074.05z"/>
        <path fill="#F5B400" d="M55.835 43.056l.204-.018-.123-.222-.11.17.029.07"/>
        <path fill="#000" d="M55.293 43.206l.038.096.278-.024-.164-.302-.152.23zm.015.136l-.052-.128.184-.278.206.374-.338.032z"/>
        <path fill="#F5B400" d="M56.04 43.01l-.014-.185-.221.114.165.107.07-.037"/>
        <path fill="#000" d="M55.296 43.119l.22.144.088-.044-.016-.246-.292.146zm.232.18l-.272-.173.368-.19.02.306-.116.058z"/>
        <path fill="#D63A3A" d="M55.861 42.992l.095.064.027-.184-.095-.056-.027.176"/>
        <path fill="#000" d="M55.368 43.174l-.102-.062-.01-.09.056-.07.056-.016.104.07.01.088-.056.07z"/>
        <path fill="#F5B400" d="M56.622 41.531v-.068h-.068v.068h-.068v.084l.068-.001v.132h.068v-.132l.068-.003v-.081l-.068.001"/>
        <path fill="#000" d="M56.72 42.028h.07v-.202l.106-.002v-.09h-.106v-.1h-.07v.1h-.104v.096h.104v.198zm.098.024l-.128.006v-.2h-.102v-.15h.102v-.104h.128v.104l.106-.002v.152h-.106v.194z"/>
        <path fill="#25A4C4" d="M56.728 42.269l-.139.141-.141-.136.141-.144.139.139"/>
        <path fill="#000" d="M56.813 41.658l-.198.408.198.384.196-.4-.196-.392zm-.001.846l-.224-.448.224-.452.224.436-.224.464z"/>
        <path fill="#D63A3A" d="M74.61 37.822c-.35-.181-.714.181-.714.181s-.36.168-.712.864c-.297.074-.619.754-.619.754l.04.349.12.165.065.121.199.017c.605-.437 1.211-.88 1.816-1.332l.2-.308.066-.217.12-.339.037-.403s-.322-.217-.618.148"/>
        <path fill="#000" d="M72.984 40.273c.61-.443 1.218-.893 1.827-1.348l.195-.305.066-.217.12-.344.036-.392c-.034-.017-.257-.14-.492.039l-.12.111-.002.007-.004-.002c-.247-.123-.499.017-.627.114l-.085.068h-.001l-.085.055c-.127.097-.38.324-.628.818l-.003.002h-.002l-.121.066c-.234.167-.457.617-.493.684l.04.34.118.164.065.123.196.017zm1.816-1.316c-.602.444-1.205.89-1.809 1.316l-.2-.012-.067-.127-.118-.158-.04-.36.003-.008c.003-.007.246-.516.5-.698l.119-.056c.338-.66.687-.847.708-.851.024-.029.37-.352.71-.184l.118-.116a.446.446 0 0 1 .5-.03h.004l-.04.417-.12.342-.065.219-.203.306z"/>
        <path fill="#F5B400" d="M74.563 39.122c0-.072-.596.046-1.333.257-.735.212-1.33.438-1.33.507l.09.021.033.126-.06.057c0 .073.563-.028 1.255-.226.69-.198 1.251-.423 1.251-.494l-.046-.02.034-.148.106-.08"/>
        <path fill="#000" d="M73.23 39.52c-.784.43-1.33.845-1.33.956l.083.028h.007l.038.266-.01.007-.051.093c0 .108.51-.044 1.25-.453.74-.41 1.252-.82 1.252-.926l-.042-.033h-.007l.038-.312.009-.005.096-.134c0-.108-.549.072-1.333.513zm-.011.934c-.607.34-1.254.603-1.254.43l.06-.124-.031-.216-.094-.054c0-.175.687-.642 1.331-1.008.646-.363 1.332-.664 1.332-.49l-.107.17-.03.264.044.051c0 .173-.642.632-1.251.977z"/>
        <path fill="#D63A3A" d="M74.563 39.288c0 .046-.595.23-1.334.406-.73.178-1.33.28-1.33.233 0-.045.6-.227 1.33-.402.739-.177 1.334-.285 1.334-.237"/>
        <path fill="#000" d="M73.228 39.331c-.81.29-1.322.528-1.328.577.006.045.517-.065 1.328-.35.815-.286 1.328-.534 1.335-.585-.007-.041-.52.077-1.335.358zm.001.252c-.533.195-1.33.439-1.33.333 0-.099.797-.416 1.33-.61.537-.191 1.334-.443 1.334-.34 0 .1-.797.428-1.334.617z"/>
        <path fill="#F5B400" d="M75.154 38.33c-.116-.087-.367-.07-.74.054l-.041-.025c-.14-.065-.412.002-.809.197-.395.019-.667.097-.81.238l-.038.046c-.376.078-.625.194-.742.344-.17.215.003.416.01.423l.076-.044c-.002-.003-.159-.185-.018-.366.096-.12.312-.22.636-.291-.074.176.038.348.042.359l.083-.037c-.003-.003-.158-.24.014-.411.116-.118.383-.189.747-.203.365-.182.632-.253.748-.2.172.08.017.399.015.403l.08-.007c.008-.011.12-.245.044-.38.326-.104.54-.12.636-.048.14.103-.015.369-.018.37l.076.008c.006-.015.18-.307.009-.43"/>
        <path fill="#000" d="M75.09 38.745l.058.004c.028-.05.161-.305.008-.42-.117-.086-.365-.067-.739.056l-.006.001-.003-.003-.04-.023c-.073-.033-.183-.032-.331.008a2.727 2.727 0 0 0-.469.19l-.004.002h-.004c-.183.007-.34.03-.468.065a.731.731 0 0 0-.332.172l-.04.045-.004.006h-.006c-.374.08-.622.194-.739.343-.152.198-.018.384.01.416l.054-.032c-.025-.034-.143-.203-.011-.372.099-.127.319-.23.65-.302l.013-.004-.005.01c-.07.162.022.324.038.353l.064-.028c-.024-.04-.14-.257.02-.42l.295-.144c.13-.035.286-.057.465-.065.178-.091.336-.153.464-.188l.295-.014c.161.073.044.354.022.407l.06-.005c.02-.041.11-.249.041-.374l-.006-.009.015-.003c.33-.109.548-.124.648-.049.132.097.014.33-.012.377zm.049.023l-.093-.007.003-.008c.003-.002.156-.26.02-.36-.092-.068-.299-.053-.61.044.067.137-.042.365-.047.373l-.003.007-.1.009.003-.01c.003-.003.154-.315-.012-.388l-.277.011a2.69 2.69 0 0 0-.454.183l-.005.002h-.003c-.175.007-.33.026-.455.061l-.277.135c-.165.162-.014.395-.014.397l.006.006-.102.046-.003-.005c-.004-.008-.115-.174-.046-.348-.312.068-.519.162-.61.28-.136.173.018.347.018.35l.004.005-.092.056-.003-.005c-.006-.007-.185-.208-.012-.424.116-.15.367-.266.741-.344l.038-.043a.758.758 0 0 1 .344-.175c.13-.033.285-.055.466-.065.182-.088.339-.15.468-.184.151-.04.266-.044.343-.01l.037.024c.375-.121.625-.137.742-.051.17.125-.005.418-.01.43l-.005.008z"/>
        <path fill="#F5B400" d="M73.343 38.899c0 .355-.05.664-.112.687-.062.026-.112-.245-.112-.6 0-.357.05-.666.112-.689.063-.025.112.245.112.602"/>
        <path fill="#000" d="M74.08 38.295c-.072.021-.154.307-.154.688 0 .379.082.624.154.605.072-.02.154-.306.154-.686 0-.38-.082-.625-.154-.607zm0 1.31c-.117.032-.183-.295-.183-.616s.066-.679.184-.711c.12-.032.182.295.182.615 0 .324-.062.682-.182.712z"/>
        <path fill="#F5B400" d="M72.793 40.01l-.198-.067.058-.064.148.056.08-.117.019-.056.038.017.141-.015.078-.166.02-.117.05.081.11.067.145-.184.029-.065.032.038.132.028.118-.213.075-.03-.172.307-.18.004-.18.186-.13-.025-.1.15-.176.04-.117.138-.02.008"/>
        <path fill="#000" d="M72.589 39.483l.21.084.115-.212.005-.013h.006l.12-.017.051-.043.1-.227.006-.028.01.015.125.04h.002l.176-.29.008-.02.007.011.133.026.042-.032.169-.46-.056.038-.13.347-.144-.043-.026-.051-.022.079-.157.308-.122-.111-.036-.094-.018.139-.086.282-.033.028-.12-.004-.031-.022-.014.071-.09.2-.154-.078-.046.077zm.194.124l-.212-.103-.006-.01.077-.133.006.009.142.083.075-.169.022-.113.05.036.11.004.028-.023.073-.253.028-.233.061.158.104.105.141-.28.037-.135.044.077.125.051.115-.33v-.012l.094-.06v.017l-.183.507-.048.04-.14-.025-.185.298h-.001l-.13-.03-.105.218-.058.054-.119.021-.123.218-.022.013z"/>
        <path fill="#F5B400" d="M75.006 38.955l-.017.007-.125-.044-.175.095-.101-.07-.13.126-.002.001-.178-.05-.18.137-.173-.172.074-.03.119.124.13-.132.035-.066.028.045.145.07.11-.151.049-.119.02.102.08.105.14-.092.038-.047.019.038.087.052.142-.158.06.022-.195.207"/>
        <path fill="#000" d="M74.876 38.57l.007.008.123.066.2-.298-.043-.022-.15.234-.098-.082-.014-.048-.03.054-.12.136-.034.01-.086-.162-.016-.114-.037.132-.122.242-.156-.112-.024-.048-.026.076-.145.204-.129-.18-.057.034.171.234.041-.012.134-.18.009-.016.005.01.177.072h.001l.126-.186.01-.02.007.016.098.102.052-.018.12-.12.006-.012zm.141.108l-.017.01-.133-.062-.12.12-.058.014-.104-.086-.13.176h-.003l-.185-.066-.14.178-.047.02-.183-.27V38.7l.094-.056v.016l.116.174.124-.186.043-.12.038.08.14.104.105-.214.062-.222.026.186.074.156.027-.01.11-.124.05-.088.022.072.084.076.136-.226.006-.016.074.04-.005.014-.206.322z"/>
        <path fill="#F5B400" d="M73.327 38.89l-.192.307v-.511l.183.053.01.152"/>
        <path fill="#000" d="M73.29 38.985v.338l.515-.204-.024-.096-.492-.038zm-.059.38v-.423l.6.044.032.128-.632.252z"/>
        <path fill="#F5B400" d="M73.155 38.97l.175-.155v.253l-.197-.016.022-.083"/>
        <path fill="#000" d="M73.927 39.297l.266.026v-.338l-.236.208-.03.104zm.296.069l-.326-.026.038-.146.288-.252v.424z"/>
        <path fill="#F5B400" d="M73.183 39.057l-.078-.133.253-.098-.094.2-.08.03"/>
        <path fill="#000" d="M74.047 39.289l.104-.036.124-.268-.332.126.104.178zm.116-.011l-.136.054-.13-.226.424-.164-.158.336z"/>
        <path fill="#D63A3A" d="M73.3 38.914l-.069.097-.069-.046.07-.093.068.042"/>
        <path fill="#000" d="M74.015 39.176l-.118-.072.118-.162.118.068z"/>
        <path fill="#F5B400" d="M74.66 38.956l-.2.119.046-.267.16.067-.005.081"/>
        <path fill="#000" d="M74.083 38.988l-.124.356.548-.162.012-.1-.436-.094zm-.186.402l.16-.448.524.112-.016.138-.668.198z"/>
        <path fill="#F5B400" d="M74.487 38.934l.186-.126-.046.267-.175-.062.035-.08"/>
        <path fill="#000" d="M74.599 39.26l.234.085.064-.358-.252.172-.046.102zm.256.13l-.292-.1.062-.142.308-.206-.078.448z"/>
        <path fill="#F5B400" d="M74.484 39.047l-.045-.16.248-.05-.126.195-.077.015"/>
        <path fill="#000" d="M74.67 39.257l.1-.024.166-.256-.33.066.064.214zm.105.009l-.134.026-.078-.266.416-.084-.204.324z"/>
        <path fill="#D63A3A" d="M74.63 38.93l-.08.085-.055-.059.08-.088.056.062"/>
        <path fill="#000" d="M74.679 39.184l-.022.004-.078-.018-.016-.082.116-.142.022-.004.076.02.016.08z"/>
        <path fill="#F5B400" d="M74.74 39.019l-.41.057.245-.269.22.13-.055.082"/>
        <path fill="#000" d="M74.6 39.346l.279-.074.036-.108-.15-.176-.164.358zm.303-.046l-.34.092.208-.45.182.214-.05.144z"/>
        <path fill="#F5B400" d="M75.112 39.03l.013-.188.22.038-.164.161-.07-.012"/>
        <path fill="#000" d="M75.27 39.225l.092.014.218-.214-.29-.046-.02.246zm.078.05l-.12-.017.024-.316.37.064-.274.27z"/>
        <path fill="#D63A3A" d="M75.289 38.95l-.095.066-.026-.086.094-.063.027.084"/>
        <path fill="#000" d="M75.34 39.186l-.058.008-.054-.05.012-.092.1-.104.06-.006.054.05-.01.094z"/>
        <path fill="#F5B400" d="M73.131 39.74l.204-.036-.048-.23-.16.19.004.076"/>
        <path fill="#000" d="M72.601 39.343l.276-.05-.062-.308-.218.262.004.096zm.308-.021l-.336.064-.008-.132.264-.312.08.38z"/>
        <path fill="#F5B400" d="M73.307 39.483l-.188.021.047.228.177-.195-.036-.054"/>
        <path fill="#000" d="M72.6 39.68l.063.302.238-.262-.05-.068-.252.028zm.043.347l-.078-.386.308-.034.062.094-.292.326z"/>
        <path fill="#F5B400" d="M73.308 39.682l.047-.194-.248.141.123.097.078-.044"/>
        <path fill="#000" d="M72.651 39.398l.328.26.2-.12.128-.512-.656.372zm.318.344l-.404-.328.828-.472-.152.652-.272.148z"/>
        <path fill="#D63A3A" d="M73.163 39.642l.082.028.055-.103-.083-.022-.054.097"/>
        <path fill="#000" d="M72.681 39.843l-.116-.054.018-.094.076-.078.024-.01.114.052-.016.096-.076.076z"/>
        <path fill="#F5B400" d="M72.478 39.745l.205-.102-.124-.174-.11.213.029.063"/>
        <path fill="#000" d="M72.602 39.28l.038.078.278-.138-.164-.23-.152.29zm.013.126l-.05-.108.184-.356.206.29-.34.174z"/>
        <path fill="#F5B400" d="M72.681 39.663l-.013-.176-.218.203.162.037.07-.064"/>
        <path fill="#000" d="M71.984 39.922l.436.05.18-.088-.036-.236-.58.274zm.464.091l-.548-.06.744-.346.04.296-.236.11z"/>
        <path fill="#D63A3A" d="M72.505 39.72l.096-.018.025-.208-.094.019-.027.207"/>
        <path fill="#000" d="M72.681 39.847l-.104-.022-.012-.088.058-.092.058-.038.102.022.01.086-.056.092z"/>
        <path fill="#F5B400" d="M73.266 38.19v-.068l-.07.023v.072l-.067.023v.083l.068-.028v.135l.069-.026v-.134l.068-.028v-.079l-.068.027"/>
        <path fill="#000" d="M74.03 38.072l.07-.034v-.2l.106-.034v-.098l-.106.04v-.1l-.07.024v.108l-.106.038v.092l.106-.036v.2zm.099-.012l-.128.048v-.198l-.104.04v-.148l.104-.044v-.1l.128-.048v.1l.104-.038v.15l-.104.036v.202z"/>
        <path fill="#25A4C4" d="M73.371 38.221l-.14.195-.14-.086.14-.194.14.085"/>
        <path fill="#000" d="M74.123 38.3l-.198.277.198.122.194-.274-.194-.124zm-.002.424l-.224-.136.224-.312.224.14-.224.308z"/>
        <path fill="#F02422" d="M114.507 28.693c-24.632-19.36-49.265 19.36-73.897 0V16.569c24.632 19.358 49.265-19.359 73.897 0v12.124M114.507 65.973c-24.632-19.36-49.265 19.362-73.897 0V53.851c24.632 19.36 49.265-19.362 73.897 0v12.122"/>
    </g>
</svg>
