<svg xmlns="http://www.w3.org/2000/svg" width="198" height="137" viewBox="0 0 198 137">
    <g fill="none" fill-rule="evenodd">
        <path fill="#DAD6C4" d="M79.815 66.17l.285.077 5.24 3.081c.272.16.365.513.208.79a.564.564 0 0 1-.776.211l-5.24-3.08a.582.582 0 0 1-.208-.79.566.566 0 0 1 .491-.289zm-9.92-5.649l.284.077 5.242 3.081c.27.16.364.513.207.79a.563.563 0 0 1-.775.212L69.612 61.6a.583.583 0 0 1-.209-.789.566.566 0 0 1 .492-.29zm-10.627-6.355l.283.077 5.24 3.082a.583.583 0 0 1 .21.789.562.562 0 0 1-.777.21l-5.24-3.08a.583.583 0 0 1-.21-.79.571.571 0 0 1 .494-.288zm-10.63-5.648l.283.077 5.242 3.082a.583.583 0 0 1 .209.789.565.565 0 0 1-.777.21l-5.241-3.081a.583.583 0 0 1-.207-.79.567.567 0 0 1 .491-.287zm-9.92-6.355l.285.077 5.24 3.081a.582.582 0 0 1 .208.79.563.563 0 0 1-.776.21l-5.24-3.081a.582.582 0 0 1-.208-.79.567.567 0 0 1 .491-.287zM35.947 113.644l.284.077 5.24 3.081c.272.16.366.513.209.79a.564.564 0 0 1-.777.212l-5.24-3.081a.582.582 0 0 1-.208-.789.566.566 0 0 1 .492-.29zm-9.92-5.648l.284.077 5.241 3.08c.271.16.365.513.207.79a.563.563 0 0 1-.774.212l-5.242-3.081a.583.583 0 0 1-.209-.789.566.566 0 0 1 .492-.29zm-10.628-6.355l.283.077 5.24 3.08a.583.583 0 0 1 .21.79.562.562 0 0 1-.776.21l-5.241-3.08a.583.583 0 0 1-.21-.79.571.571 0 0 1 .494-.287zM4.77 95.99l.284.078 5.241 3.082a.583.583 0 0 1 .21.789.565.565 0 0 1-.777.21L4.485 97.07a.583.583 0 0 1-.207-.79.567.567 0 0 1 .492-.287zm-9.92-6.354l.285.077 5.24 3.082a.582.582 0 0 1 .209.789.563.563 0 0 1-.776.21l-5.24-3.081a.582.582 0 0 1-.209-.789.567.567 0 0 1 .492-.288zM132.698 97.419l.284.077 5.24 3.08c.272.161.366.514.209.791a.564.564 0 0 1-.776.211l-5.24-3.08a.582.582 0 0 1-.209-.79.566.566 0 0 1 .492-.289zm-9.92-5.649l.284.077 5.241 3.081c.271.16.365.513.208.79a.563.563 0 0 1-.775.211l-5.242-3.08a.583.583 0 0 1-.208-.79.566.566 0 0 1 .491-.289zm-10.628-6.355l.283.077 5.241 3.082a.583.583 0 0 1 .209.788.562.562 0 0 1-.776.211l-5.241-3.08a.583.583 0 0 1-.209-.79.571.571 0 0 1 .493-.288zm-10.629-5.649l.283.077 5.241 3.082a.583.583 0 0 1 .21.79.565.565 0 0 1-.777.21l-5.241-3.081a.583.583 0 0 1-.208-.79.567.567 0 0 1 .492-.288zm-9.92-6.355l.284.078 5.24 3.081a.582.582 0 0 1 .209.79.563.563 0 0 1-.776.21l-5.24-3.081a.582.582 0 0 1-.209-.79.567.567 0 0 1 .492-.288zM175.66 122.418l.284.077 5.242 3.081c.27.16.365.513.207.79a.563.563 0 0 1-.774.211l-5.242-3.08a.583.583 0 0 1-.209-.79.566.566 0 0 1 .492-.289zm-10.627-6.355l.283.077 5.24 3.081a.583.583 0 0 1 .21.79.562.562 0 0 1-.777.21l-5.24-3.081a.583.583 0 0 1-.21-.789.571.571 0 0 1 .494-.288zm-10.63-5.649l.284.077 5.241 3.082a.583.583 0 0 1 .209.79.565.565 0 0 1-.776.21l-5.242-3.082a.583.583 0 0 1-.207-.789.567.567 0 0 1 .492-.288zm-9.635-6.278l5.24 3.082a.582.582 0 0 1 .208.79.563.563 0 0 1-.776.21l-5.24-3.082a.582.582 0 0 1-.208-.788.567.567 0 0 1 .491-.289l.285.077zM197.913 136.413l-1.16-.682-.284-.077a.567.567 0 0 0-.491.288.584.584 0 0 0-.048.471h1.983zm-11.08-7.037l-.284-.077a.567.567 0 0 0-.491.288.582.582 0 0 0 .208.789l5.24 3.082c.272.16.617.064.776-.211a.582.582 0 0 0-.209-.79l-5.24-3.081zM15.633 136.413l-3.369-1.981-.283-.077a.567.567 0 0 0-.492.288.583.583 0 0 0 .208.79l1.668.98h2.268zM2.061 128a.567.567 0 0 0-.492.288.582.582 0 0 0 .209.79l5.24 3.08c.272.161.617.066.776-.21a.582.582 0 0 0-.209-.79l-5.24-3.081-.284-.077z"/>
        <path fill="#D9945B" d="M79.102 15.097c.197 1.872-.088 3.411-.088 3.411l2.032 3.169 3.866 1.842 3.336-1.101.381-4.023-.963-3.045-4.6-1.234s-4.159-.891-3.964.981"/>
        <path fill="#ECF5F7" d="M91.33 16.316c1.837-.286 10.67 6.89 11.508 9.62.837 2.729-.902 16.342-3.197 18.798-1.824 1.948-4.819 1.596-4.819 1.596l-1.428-4.56 1.428-11.466-3.778-10.765s-1.551-2.938.286-3.223"/>
        <path fill="#BCBEC0" d="M96.441 41.567c3.317-.355 1.042 4.187 1.042 4.187s1.235-3.257-1.042-4.187M95.24 30.13s3.573-3.747 6.61-.439c-4.247-1.546-6.61.438-6.61.438"/>
        <path fill="#000" d="M93.349 98.036s2.75 2.86 5.02 3.8c2.226.92 2.05 2.404.565 3.224-2.049.838-4.74-1.357-8.018-2.312-1.536-.448-5.862-.318-6.868-1.554-.758-1.889.63-3.158.63-3.158h8.67"/>
        <path fill="#232323" d="M82.019 62.242s2.136 10.39 1.917 15.753c-.45 1.999-.759 2.968-1.108 4.913-.346 1.945.491 11.13 0 18.33 6.127 1.282 9.827-.732 10.404-2.753-2.818-6.85-1.341-22.036-1.341-22.036s4.223-15.18 3.184-26.984c0-1.466-13.056 12.777-13.056 12.777"/>
        <path fill="#000" d="M83.22 70.993s1.18-13.648 9.616-15.023c-1.574 3.53-2.901 5.039-6.279 7.978-.354 2.107-3.336 7.045-3.336 7.045"/>
        <path fill="#232323" d="M76.11 51.296s-1.307 1.492-2.123 4.521c-.816 3.026-.29 6.206-.716 8.858-.426 2.653-1.264 15.195-2.042 16.84-.78 1.643-2.04 3.928-2.889 7.807-.849 3.885-1.938 16.116-1.938 19.194-.157 4.718 2.054 5.144 2.054 5.144s.967-2.143 3.154-2.569c2.189-.43 3.474 1.556 4.214 1.283 1.091-.232-1.246-11.219 2.959-27.821l7.4-21.626s6.697-4.79 9.657-13.56c-.31-1.21-7.994-1.21-7.994-1.21l-11.737 3.14"/>
        <path fill="#000" d="M75.38 111.319s1.661 5.978-.415 6.426c-4.526.934-6.768-3.824-6.768-3.824l1.496-4.468h4.192l1.496 1.866"/>
        <path fill="#ECF5F7" d="M77.812 19.45s.13-2.7.997-2.534c2.008 4.046 7.886 5.304 7.886 5.304s1.116 3.765-3.16 2.056c-4.275-1.714-5.723-4.826-5.723-4.826"/>
        <path fill="#ECF5F7" d="M77.211 20.325l.862-.94s6.939 5.173 8.472 4.152c1.531-1.016.536-4.465.536-4.465l3.435-.36 4.122 19.478-1.506 10.264-7.86 2.708-3.552-18.49-4.509-12.347"/>
        <path fill="#BCBEC0" d="M78.413 19.313c2.563 5.933 8.413 4.701 8.413 4.701s-4.973.356-8.413-4.701"/>
        <path fill="#ECF5F7" d="M86.826 22.332s1.456-1.14.635-2.653c-.078-.886.816.027 1.396.71 1.477 2.566-1.906 4.332-1.906 4.332l-.125-2.389"/>
        <path fill="#BCBEC0" d="M86.826 24.12c2.673-.553 2.396-4.207 2.396-4.207s-.402 3.067-2.396 4.207"/>
        <path fill="#000" d="M86.225 23.502c3.103 1.883 3.222 10.834 3.222 10.834l.985-.052s-.372-8.854-3.378-11.228c-.312-.315-.548-.057-.829.446"/>
        <path fill="#000" d="M86.852 23.52s-.045 6.054 2.979 8.552l-.804.461c-2.441-1.78-2.802-8.657-2.802-8.657l.627-.357"/>
        <path fill="#FA5932" d="M78.06 46.904c-.444 1.184-1.508 4.081-2.05 5.152 5.21 5.134 19.967-.378 19.83-3.025-.14-2.647-.16-5.852-.624-4.913-.462.939-12.055 6.556-17.156 2.786"/>
        <path fill="#A62626" d="M88.63 51.162c6.67-.915 6.61-3.605 6.61-3.605s-1.304 2.438-6.61 3.605"/>
        <path fill="#A62626" d="M79.014 50.357c4.16 3.381 12.019-.397 12.019-.397s-8.346 2.707-12.019.397"/>
        <path fill="#FA5932" d="M85.106 50.561s-3.098 12.823-2.378 13.168c.72.346 3.107-1.069 3.445-1.99.336-.918-1.067-11.178-1.067-11.178"/>
        <path fill="#A62626" d="M83.822 61.378c.656-.057 3.503-2.973 3.603-4.498.096-1.526-2.754-6.92-2.754-6.92s-.253 5.02-.85 11.418"/>
        <path fill="#FA5932" d="M84.675 49.62s.279 4.676-.252 11.157c.583-.058 2.914-2.558 3.002-4.104.086-1.545-2.474-7.314-2.474-7.314l-.276.262"/>
        <path fill="#F0B380" d="M94.835 46.812c.755 2.907-.607 6.496 0 6.732.609.234 2.89-1.427 3.332-3.366.442-1.94-1.152-5.14-1.152-5.14l-1.277-1.087s-1.656-.044-.903 2.86"/>
        <path fill="#232323" d="M91.606 16.351c8.113 5.715 4.741 28.795 4.741 28.795s-1.206 2.066-4.913 3.012c-.135-1.716.58-12.865-2.054-22.212 3.521-1.429-1.352-8.455-1.352-8.455s1.808-1.45 3.578-1.14"/>
        <path fill="#FA5932" d="M89.831 17.032l1.654 1.936 2.196 5.9 1.06 8.093v7.351l-.082 6.644c.733-.35 1.575-1.16 1.575-1.16l.207-11.347-.395-5.475-.711-4.768-1.15-3.988-1.41-2.697-1.49-1.59-1.116-.224-.338 1.325"/>
        <path fill="#FFC900" d="M94.975 47.262l-.507.295c.023-.282 2.148-28.408-6.44-30.8l.126-.45c8.96 2.497 6.913 29.787 6.82 30.955"/>
        <path fill="#FFC900" d="M96.125 45.832s-.06.178-.227.303c-.17.129-.293.22-.293.22.025-.277 2.358-27.82-6.375-30.2l.131-.448c9.111 2.485 6.865 28.985 6.764 30.125"/>
        <path fill="#FFC900" d="M90.613 26.614c1.974 4.712 2.634 16 1.977 21.266-.298.1-.619.196-.97.278-.141-1.723.613-12.918-2.165-22.303 3.713-1.434-1.427-8.489-1.427-8.489s.218-.203.546-.439c.629-.448 5.942 7.303 2.04 9.687"/>
        <path fill="#232323" d="M71.708 24.626s4.643-4.005 5.485-4.713c4.763 1.964 5.463 7.838 10.007 6.895 0 0 2.765 9.127 1.841 22.636-4.581 1.92-12.146 1.503-13.358-2.32-.937-3.684-2.272-12.132-5.082-16.02.42-2.447 1.107-6.478 1.107-6.478"/>
        <path fill="#FA5932" d="M73.606 23.223s.723-.116 1.962.428c1.67.716 2.784 2.98 2.784 2.98s1.561 2.683 3.038 8.591l.965 6.415.824 8.876s1.218.172 1.83-.134c.173-7.351-1.252-15.157-1.252-15.157l-1.745-6.515-2.099-3.998-2.434-2.466-2.107-.527-1.766 1.507"/>
        <path fill="#F5B400" d="M76.61 20.521c.323-.275.572-.49.718-.608 4.71 1.933 5.402 7.712 9.894 6.784 0 0 2.734 8.979 1.822 22.27-.347.144-.711.273-1.087.392.4-7.814.477-13.22-1.504-21.411-4.335.31-5.708-6.49-9.843-7.427"/>
        <path fill="#F0B380" d="M90.375 7.416c1.578 5.28-.157 11.67-.313 12.398-.16.73-1.223 1.263-1.932 1.301-3.825-.344-6.662-3.368-6.662-3.368s-.788-.956-.868-1.76c-1.655-.036-2.287-1.913-2.287-1.913l-.5-2.602 1.526-3.749 3.31-2.526 4.024-.307s3.39 1.952 3.702 2.526"/>
        <path fill="#000" d="M78.659 13.904s-.115-2.67.924-2.69c1.036-.019 1.612 1.741 1.612 1.741s2.211-1.186 2.46-3.638c2.726-.08 6.416-1.01 6.76-2.297.349-1.286-5.013-7.755-10.832-2.516-3.344 3.131-.924 9.4-.924 9.4"/>
        <path fill="#F0B380" d="M74.72 51.254s3.054-.438 4.406.602c.578.448.349 1.405.349 1.405s3.553 2.06 2.26 4.064c-1.295 2.007-4.294.578-5.45.23-.883-.265-3.881-2.864-3.881-2.864l2.316-3.437"/>
        <path fill="#ECF5F7" d="M72.802 49.96s.812.233 1.97 1.284c.288 1.697-1.207 3.738-2.317 3.506L70.6 53.406l2.201-3.446"/>
        <path fill="#BCBEC0" d="M71.803 54.167c2.448-1.396 1.693-3.606 1.693-3.606s-.213 2.267-1.693 3.606"/>
        <path fill="#ECF5F7" d="M76.501 26c-5.967-8.458-15.756 14.29-16.496 15.642-1.366 5.292 3.923 11.83 7.059 12.784 3.134.956 4.523-.23 5.615-1.854 1.093-1.621 1.248-3.128.312-5.098-.937-1.97-4.74-4.44-4.74-4.44s6.538-7.897 7.867-9.596c1.326-1.701 1.436-6.86.383-7.438"/>
        <path fill="#BCBEC0" d="M68.197 43.314s-3.105-.987-5.408-.55c3.726-1.571 5.408.55 5.408.55"/>
        <path fill="#FFC900" d="M82.701 50.561c-.008-.204-.774-20.607-6.449-25.538-.9-.781-2.202-1.122-3.247-1.02l.555-.465c1.18-.11 2 .268 3 1.137 5.827 5.063 6.63 25.04 6.66 25.886h-.519"/>
        <path fill="#FFC900" d="M85.021 50.511l-.515.05c0-.27-.065-26.962-9.698-28.458l.465-.387c10.034 1.56 9.757 27.681 9.748 28.795"/>
        <path fill="#000" d="M97.042 7.895v.886c0 1.924-1.26 3.851-3.784 5.322-5.045 2.94-13.227 2.94-18.273 0-2.524-1.47-3.783-3.398-3.783-5.322v-.886h25.84"/>
        <path fill="#F5B400" d="M71.294 8.496a4.104 4.104 0 0 0-.07.433c.183 1.728 1.436 3.428 3.762 4.751 5.045 2.863 13.225 2.863 18.272 0 2.33-1.323 3.584-3.023 3.763-4.751a4.104 4.104 0 0 0-.071-.433h.092v.483c0 1.876-1.26 3.75-3.784 5.182-5.045 2.863-13.227 2.863-18.273 0-2.524-1.432-3.783-3.306-3.783-5.182v-.483h.092"/>
        <path fill="#000" d="M71.224 8.496c.18-1.745 1.434-3.454 3.763-4.785C80.03.832 88.21.832 93.257 3.71c2.331 1.331 3.586 3.04 3.763 4.785.21-2.032-1.047-4.1-3.763-5.652-5.046-2.88-13.226-2.88-18.27 0-2.714 1.551-3.97 3.62-3.763 5.652"/>
        <path fill="#232323" d="M71.202 8.497c.184 1.807 1.44 3.584 3.77 4.965 5.053 2.993 13.246 2.993 18.301 0 2.334-1.381 3.59-3.158 3.77-4.965-.177-1.812-1.435-3.587-3.77-4.97-5.055-2.99-13.248-2.99-18.302 0-2.332 1.383-3.588 3.158-3.77 4.97"/>
        <path fill="#000" d="M91.033 3.688v4.07c0 .957-.644 1.915-1.935 2.645-2.583 1.463-6.768 1.463-9.35 0-1.292-.73-1.936-1.688-1.936-2.646V3.688h13.22"/>
        <path fill="#232323" d="M79.749 6.75c2.58 1.526 6.766 1.526 9.348 0 2.581-1.527 2.581-4 0-5.523-2.582-1.526-6.768-1.526-9.348 0-2.582 1.524-2.582 3.996 0 5.523"/>
        <path fill="#FA5932" d="M79.749 8.3c2.58 1.552 6.766 1.552 9.349 0 1.29-.775 1.935-1.79 1.935-2.809v1.435c0 1.019-.644 2.036-1.935 2.81-2.583 1.55-6.768 1.55-9.35 0-1.292-.774-1.936-1.791-1.936-2.81V5.49c0 1.019.644 2.034 1.937 2.81"/>
        <path fill="#FA5932" d="M80.216 10.14s-.649.916-.394 3.764l-1.354-.41c-.276-2.515.577-4.397.577-4.397l1.171 1.043"/>
        <path fill="#FA5932" d="M78.204 8.496s-2.166 1.402-3.997 1.327c.171.364.397.827.478 1.069 2.624.132 4.33-1.566 4.33-1.566l-.811-.83"/>
        <path fill="#DAD6C4" d="M67.08 132.192a.571.571 0 0 0-.493.288.583.583 0 0 0 .208.788l5.241 3.082c.267.16.616.067.776-.211a.583.583 0 0 0-.208-.79l-5.241-3.08-.283-.077zm-10.63-5.65a.567.567 0 0 0-.491.289.583.583 0 0 0 .207.789l5.242 3.082a.565.565 0 0 0 .776-.211.583.583 0 0 0-.209-.79l-5.241-3.081-.283-.077zm-9.92-6.354a.567.567 0 0 0-.491.288.582.582 0 0 0 .209.789l5.24 3.082c.272.16.616.064.775-.211a.582.582 0 0 0-.208-.79l-5.24-3.081-.285-.077zM3.066 61.392c.194 0 .384.103.489.288a.577.577 0 0 1-.208.783l-5.213 3.059a.563.563 0 0 1-.772-.21.579.579 0 0 1 .208-.784l5.213-3.06.283-.076zm9.87-5.609c.194 0 .384.103.489.288a.579.579 0 0 1-.208.783l-5.215 3.059a.562.562 0 0 1-.77-.21.58.58 0 0 1 .206-.784l5.215-3.06.283-.076zm10.573-5.609c.194 0 .383.103.49.288a.579.579 0 0 1-.208.783l-5.214 3.06a.562.562 0 0 1-.772-.21.58.58 0 0 1 .208-.785l5.214-3.059.282-.077zm9.87-5.608c.194 0 .383.102.489.287a.578.578 0 0 1-.207.783l-5.214 3.06a.563.563 0 0 1-.773-.21.58.58 0 0 1 .208-.785l5.215-3.059.281-.076zM134.07 90.742c.195 0 .384.102.49.287a.577.577 0 0 1-.208.784l-5.213 3.059a.563.563 0 0 1-.772-.21.579.579 0 0 1 .208-.784l5.213-3.06.283-.076zm9.87-5.609c.195 0 .384.102.49.288a.579.579 0 0 1-.208.783l-5.215 3.059a.562.562 0 0 1-.77-.21.58.58 0 0 1 .206-.784l5.214-3.06.283-.076zm10.573-5.609c.194 0 .384.103.49.288a.579.579 0 0 1-.207.783l-5.214 3.06a.562.562 0 0 1-.772-.21.58.58 0 0 1 .207-.785l5.215-3.06.281-.076zm9.87-5.609c.194 0 .384.103.49.288a.578.578 0 0 1-.207.783l-5.215 3.06a.563.563 0 0 1-.772-.21.58.58 0 0 1 .208-.785l5.215-3.059.281-.077z"/>
        <path fill="#FA5932" d="M172.159 73.915c1.235 0 2.404-.284 3.291-.799.978-.568 1.517-1.357 1.517-2.218 0-.862-.54-1.65-1.517-2.219-1.774-1.03-4.808-1.03-6.58 0-.979.569-1.516 1.357-1.518 2.219.002.86.54 1.65 1.517 2.218.886.515 2.055.8 3.29.8z"/>
        <path fill="#DAD6C4" d="M15.085 125.092c.194 0 .383.102.489.287a.577.577 0 0 1-.208.783l-5.213 3.06a.563.563 0 0 1-.772-.21.579.579 0 0 1 .208-.785l5.213-3.059.283-.076zm9.87-5.61c.194 0 .383.103.489.288a.579.579 0 0 1-.208.783l-5.215 3.06a.562.562 0 0 1-.77-.21.58.58 0 0 1 .206-.785l5.214-3.059.283-.076zm10.572-5.608c.194 0 .384.103.49.288a.579.579 0 0 1-.207.783l-5.214 3.06a.562.562 0 0 1-.772-.21.58.58 0 0 1 .208-.785l5.214-3.06.281-.076zm9.87-5.609c.194 0 .384.103.49.288a.578.578 0 0 1-.207.783l-5.215 3.059a.563.563 0 0 1-.772-.21.58.58 0 0 1 .208-.784l5.215-3.06.281-.076z"/>
        <path fill="#FFC900" d="M52.572 106.967c1.235 0 2.404-.284 3.291-.799.978-.568 1.517-1.357 1.517-2.218 0-.863-.539-1.65-1.517-2.219-1.774-1.031-4.808-1.031-6.58 0-.979.568-1.516 1.356-1.518 2.219.002.86.54 1.65 1.517 2.218.886.515 2.055.8 3.29.8z"/>
        <path fill="#DAD6C4" d="M134.07 132.303c.195 0 .384.102.49.287a.577.577 0 0 1-.208.784l-5.213 3.059a.563.563 0 0 1-.772-.21.579.579 0 0 1 .208-.784l5.213-3.06.283-.076zm9.87-5.609c.195 0 .384.103.49.288a.579.579 0 0 1-.208.783l-5.215 3.059a.562.562 0 0 1-.77-.21.58.58 0 0 1 .206-.784l5.214-3.06.283-.076zm10.573-5.609c.194 0 .384.103.49.288a.579.579 0 0 1-.207.783l-5.214 3.06a.562.562 0 0 1-.772-.21.58.58 0 0 1 .207-.785l5.215-3.06.281-.076zm9.87-5.608c.194 0 .384.102.49.287a.578.578 0 0 1-.207.783l-5.215 3.06a.563.563 0 0 1-.772-.21.58.58 0 0 1 .208-.785l5.215-3.059.281-.076z"/>
    </g>
</svg>
