<svg xmlns="http://www.w3.org/2000/svg" xmlns:xlink="http://www.w3.org/1999/xlink" width="331" height="251" viewBox="0 0 331 251">
    <defs>
        <linearGradient id="a" x1="30.771%" x2="50%" y1="50%" y2="63.204%">
            <stop offset="0%" stop-color="#FFF8D5"/>
            <stop offset="100%" stop-color="#FFEFAA"/>
        </linearGradient>
        <path id="b" d="M16.842.313H0V5.13c0 1.255.825 2.492 2.467 3.43 3.283 1.896 8.625 1.896 11.915 0 1.644-.938 2.46-2.175 2.46-3.43V.313"/>
        <linearGradient id="c" x1="0%" x2="99.986%" y1="50%" y2="50%">
            <stop offset="0%" stop-color="#FFF"/>
            <stop offset="84.375%" stop-color="#D3C6A5"/>
            <stop offset="100%" stop-color="#E4DDCC"/>
        </linearGradient>
        <linearGradient id="e" x1="-14.496%" x2="95.25%" y1="49.997%" y2="49.997%">
            <stop offset="0%" stop-color="#D9CFAA"/>
            <stop offset="100%" stop-color="#C9B99C"/>
        </linearGradient>
        <path id="f" d="M7 .313H.11v158.091c0 .622.338 1.236 1.01 1.712 1.345.938 3.524.938 4.871 0 .673-.476 1.009-1.09 1.009-1.712V.314"/>
        <linearGradient id="g" x1="0%" x2="99.986%" y1="50%" y2="50%">
            <stop offset="0%" stop-color="#FFF"/>
            <stop offset="84.375%" stop-color="#D3C6A5"/>
            <stop offset="100%" stop-color="#E4DDCC"/>
        </linearGradient>
        <path id="i" d="M16.717 8.067c0 4.296-3.708 7.78-8.283 7.78-4.582 0-8.293-3.484-8.293-7.78C.141 3.775 3.852.291 8.434.291c4.575 0 8.283 3.484 8.283 7.776"/>
        <radialGradient id="j" cx="34.555%" cy="32.909%" r="92.81%" fx="34.555%" fy="32.909%" gradientTransform="matrix(.93843 0 0 1 .021 0)">
            <stop offset="0%" stop-color="#FFF"/>
            <stop offset="100%" stop-color="#E2D9B2"/>
        </radialGradient>
    </defs>
    <g fill="none" fill-rule="evenodd">
        <path fill="#DAD6C4" d="M250.932 130.45l-.437-.117-8.057-4.69a.884.884 0 0 1-.32-1.204.872.872 0 0 1 1.193-.321l8.057 4.69a.881.881 0 0 1-.436 1.642zm15.255 8.6l-.437-.117-8.06-4.69a.885.885 0 0 1-.319-1.204.87.87 0 0 1 1.191-.321l8.06 4.69c.42.244.561.781.321 1.201a.871.871 0 0 1-.756.441zm16.341 9.675l-.435-.117-8.059-4.691a.883.883 0 0 1-.32-1.201.87.87 0 0 1 1.193-.322l8.059 4.691c.418.242.56.782.32 1.201a.88.88 0 0 1-.758.439zm16.345 8.6l-.435-.117-8.06-4.692a.883.883 0 0 1-.321-1.202.873.873 0 0 1 1.193-.321l8.06 4.692c.417.242.56.781.319 1.201a.874.874 0 0 1-.756.439zM314.127 167l-.438-.117-8.057-4.692a.881.881 0 0 1-.32-1.201.87.87 0 0 1 1.193-.322l8.057 4.692a.881.881 0 0 1 .32 1.201.873.873 0 0 1-.755.439zM312.911 96.429l-.434-.117-8.04-4.676a.875.875 0 1 1 .87-1.522l8.04 4.676c.416.243.56.778.318 1.2a.869.869 0 0 1-.754.439zM328.129 105l-.434-.117-8.043-4.676a.884.884 0 0 1-.318-1.2.875.875 0 0 1 1.188-.322l8.044 4.676a.884.884 0 0 1 .318 1.2.869.869 0 0 1-.755.439zM277.17 35.4a.86.86 0 0 1-.746-.438.877.877 0 0 1 .317-1.191l7.964-4.655a.862.862 0 0 1 1.179.32.879.879 0 0 1-.317 1.193l-7.964 4.655-.432.116zm-15.077 8.533a.86.86 0 0 1-.747-.437.878.878 0 0 1 .317-1.192l7.966-4.654a.86.86 0 0 1 1.178.32.88.88 0 0 1-.315 1.193l-7.966 4.654-.433.116zm-16.152 8.534a.867.867 0 0 1-.75-.438.879.879 0 0 1 .318-1.191l7.966-4.655a.861.861 0 0 1 1.18.319.88.88 0 0 1-.318 1.194l-7.966 4.654-.43.117zM230.864 61a.86.86 0 0 1-.748-.437.878.878 0 0 1 .315-1.192l7.967-4.654a.863.863 0 0 1 1.18.319.88.88 0 0 1-.318 1.194l-7.966 4.654-.43.116zM214.17 70.4a.86.86 0 0 1-.746-.438.877.877 0 0 1 .317-1.191l7.964-4.655a.862.862 0 0 1 1.179.32.879.879 0 0 1-.317 1.193l-7.964 4.655-.432.116zm-15.077 8.533a.86.86 0 0 1-.747-.437.878.878 0 0 1 .317-1.192l7.966-4.654a.86.86 0 0 1 1.178.32.88.88 0 0 1-.315 1.193l-7.966 4.654-.433.116zm-16.152 8.534a.867.867 0 0 1-.75-.438.879.879 0 0 1 .318-1.191l7.966-4.655a.861.861 0 0 1 1.18.319.88.88 0 0 1-.318 1.194l-7.966 4.654-.43.117zM167.864 96a.86.86 0 0 1-.748-.437.878.878 0 0 1 .315-1.192l7.967-4.654a.863.863 0 0 1 1.18.319.88.88 0 0 1-.318 1.194l-7.966 4.654-.43.116zM290.17 98.4a.86.86 0 0 1-.746-.438.877.877 0 0 1 .317-1.191l7.964-4.655a.862.862 0 0 1 1.179.32.879.879 0 0 1-.317 1.193l-7.964 4.655-.432.116zm-15.077 8.533a.86.86 0 0 1-.747-.437.878.878 0 0 1 .317-1.192l7.966-4.654a.86.86 0 0 1 1.178.32.88.88 0 0 1-.315 1.193l-7.966 4.654-.433.116zm-16.152 8.534a.867.867 0 0 1-.75-.438.879.879 0 0 1 .318-1.191l7.966-4.655a.861.861 0 0 1 1.18.319.88.88 0 0 1-.318 1.194l-7.966 4.654-.43.117zM243.864 124a.86.86 0 0 1-.748-.437.878.878 0 0 1 .315-1.192l7.967-4.654a.863.863 0 0 1 1.18.319.88.88 0 0 1-.318 1.194l-7.966 4.654-.43.116zM47.636 220.214c-.31 0-.612-.134-.777-.375-.247-.36-.1-.819.328-1.027l1.466-.71c.433-.21.981-.085 1.227.272.247.36.1.821-.33 1.028l-1.466.712-.448.1zm-15.241 9.965a.868.868 0 0 1-.757-.452.931.931 0 0 1 .318-1.24l8.043-4.833a.857.857 0 0 1 1.188.334.929.929 0 0 1-.318 1.24l-8.043 4.832-.431.119zm-16.307 8.857a.862.862 0 0 1-.754-.452.93.93 0 0 1 .318-1.24l8.043-4.834a.86.86 0 0 1 1.189.334.93.93 0 0 1-.318 1.24l-8.044 4.833-.434.119zM.872 249a.862.862 0 0 1-.755-.452.928.928 0 0 1 .318-1.24l8.04-4.833a.86.86 0 0 1 1.192.334.93.93 0 0 1-.32 1.24l-8.041 4.833-.434.118zM341.636-2.786c-.31 0-.612-.134-.777-.375-.247-.36-.1-.819.328-1.027l1.466-.71c.433-.21.981-.085 1.227.272.247.36.1.821-.33 1.028l-1.466.712-.448.1zM326.395 7.18a.868.868 0 0 1-.757-.452.931.931 0 0 1 .318-1.24l8.043-4.833a.857.857 0 0 1 1.188.334.929.929 0 0 1-.318 1.24l-8.043 4.832-.431.119zm-16.307 8.857a.862.862 0 0 1-.754-.452.93.93 0 0 1 .318-1.24l8.043-4.834a.86.86 0 0 1 1.189.334.93.93 0 0 1-.318 1.24l-8.044 4.833-.434.119zM294.872 26a.862.862 0 0 1-.755-.452.928.928 0 0 1 .318-1.24l8.04-4.833a.86.86 0 0 1 1.192.334.93.93 0 0 1-.32 1.24l-8.041 4.833-.434.118z"/>
        <path fill="#DAD6C4" d="M322.426 162.45a.773.773 0 0 1-.674-.425c-.216-.404-.087-.92.286-1.156l2.794-1.759c.365-.225.846-.097 1.064.312.214.406.087.921-.286 1.158l-2.794 1.757-.39.113zm-16.231 10.35a.872.872 0 0 1-.755-.472c-.24-.45-.098-1.027.32-1.285l8.05-5.02c.412-.254.948-.103 1.19.344.241.452.1 1.026-.318 1.287l-8.05 5.02-.437.126zm-16.321 9.2c-.3 0-.593-.17-.758-.472-.24-.45-.097-1.027.32-1.285l8.05-5.02c.414-.254.948-.103 1.192.344.24.452.098 1.026-.32 1.287l-8.05 5.02-.434.126z"/>
        <path fill="#DAD6C4" d="M355.426 143.45a.773.773 0 0 1-.674-.425c-.216-.404-.087-.92.286-1.156l2.794-1.759c.365-.225.846-.097 1.064.312.214.406.087.921-.286 1.158l-2.794 1.757-.39.113zm-16.231 10.35a.872.872 0 0 1-.755-.472c-.24-.45-.098-1.027.32-1.285l8.05-5.02c.412-.254.948-.103 1.19.344.241.452.1 1.026-.318 1.287l-8.05 5.02-.437.126zm-16.321 9.2c-.3 0-.593-.17-.758-.472-.24-.45-.097-1.027.32-1.285l8.05-5.02c.414-.254.948-.103 1.192.344.24.452.098 1.026-.32 1.287l-8.05 5.02-.434.126z"/>
        <path fill="#EEDD93" d="M242.226 161.045c-.093-.416-.208-.723-.528-.862-1.386-.574-2.515 1.384-2.726 0-.123-.79 1.714-.764 3.254-.814v1.676zm-27.489-26.67a32.45 32.45 0 0 0-1.534-.308h1.534v.307zm85.8 65.5v-2.94h-1.906v-1.647h-5.137v4.588h-.63v4.649c-3.544-1.046-8.205-2.836-12.124-5.854v-13.45h-2.644v-6.492h-10.75v2.582c-1.217.695-1.51 2.454-3.071 2.074-1.92-.468-3.303-2.588-4.784-3.74-1.486-1.165-3.738-.254-5.126-1.97-1.019-1.259.353-1.706.894-2.343h.212v-11.54h-5.99v8.648a7.858 7.858 0 0 1-1.153-.555h.426V156.6h-4.627v-8.793h-3.351v-5.329h-4.616v5.329h-.434v3.938c-2.12-.53-4.386-1.173-5.615-2.05-2.518-1.795-1.899-5.256-3.587-6.408-1.686-1.134-6.831.748-8.2-.193-1.365-.936.852-2.088 0-2.947-.854-.866-2.671-1.323-2.733-2.17-.018-.244.198-.448.476-.641h2.452v-7.817h-1.203v-4.292h-6.176v9.137a49.543 49.543 0 0 1-2.721-.525c-13.774-7.503-21.397-14.927-22.894-16.747-1.155-1.407.512-1.625.371-2.254h.01V103.88h-6.013v9.198c-2.357-1.045-16.861-8.974-18.654-11.78h.417v-15.05h-6.472v-4.137h-5.476v-.99h-7.21v14.808l-.529-.014c-2.263-.182-1.965-2.568-3.419-3.552-.953-.65-6.856-4.176-13.487-4.805V79h-10.591v6.674h-3.956v4.988l-3.41.029v3.977h-6.954v11.007h.006c-.025.204.066.404.326.568 1.278.809 6.403-.525 8.007.311.28.143.507.293.717.448v6.169h.013c.06 1.82 7.225 2.84 10.096 6.658 3.264 4.35 7.623 1.145 9.156 1.988 1.076.586 1.062 1.545 1.37 2.175v11.498c-2.02.443-4.948.647-8.713-.18-2.866-.511-.087-1.48-2.39-1.38-2.31.1-5.251 1.596-7.005 1.087-1.752-.518-.81-1.995-2.22-1.28-1.41.719-.125 1.946-1.367 3.348-1.238 1.409-5.167 4.213-7.519 4.33-2.345.126-1.49-1.151-2.561-.292-1.07.868-.34 2.463-2.264 2.681-1.92.23-5.25-3.022-6.96-1.688-1.709 1.327-1.024 3.538-1.024 3.538s-8.026 3.554-11.103 3.06c-1.013-.16-2.023-.793-2.983-1.533v-3.863l-5.41-9.342v8.533h-5.44v15.247c-.537.025-1.202-.148-2.052-.67-2.562-1.58-3.588 1.674-3.588 1.674s-1.667-1.208-4.101-.79c-2.432.425-.383 1.652-6.145 2.167-5.259 1.552-.898 6.72-2.224 7.785-1.322 1.06-2.312.741-3.074.98-.766.254-.85-1.677-3.755-2.17-1.372-.225-4.827.356-8.26.843v-9.63H21.2v5.64h-5.12v11.02h.004l-.005.016c-.116.6 3.858 1.452 6.02 3.965.311.362.609.741.898 1.13h-3.244v8.525H14v11.135c.123.893 2.764 1.179 3.883 3.042 1.12 1.87-1.42 3.066 3.49 4.81 4.911 1.753 11.874-1.28 16.872-.372 4.99.916 3.797 2.093 7.084 3.402 3.291 1.295 5.637-.2 9.438.511 2.582.486 8.464 4.824 13.88 8.183 2.564 1.588 5.781 2.356 7.09 3.522 4.055 3.615 3.031 3.715 6.874 4.897 3.712 1.14 5.047.4 7.98 1.654v3.408c-.035.255.204.437.985.502 6.408 1.241 13.328-2.608 22.725-3.244 9.39-.643 20.514 6.587 22.543 6.3 2.032-.288 1.151-1.744 1.88-2.856 1.219-1.881 17.254-4.628 17.254-4.628s16.437 3.813 21.176 1.584c.248-.19.339-.35.337-.512h.01v-9.548c.993-1.777 2.421-3.502 4.612-4.624 5.273-2.7 26.777-5.642 35.189-5.722 2.002.425 11.02 3.502 11.27.598v-2.966c3.255-.629 8.032-1.24 9.055-.481 2.005 3.174 22.737 8.164 25.114 7.971 2.373-.18 1.504-.866 2.9-1.273 1.397-.415 25.888 3.997 27.16 3.057 1.267-.948-.216-4.85 3.924-5.622 1.237-.093 3.453 1.607 4.961.498.22-.175.307-.33.305-.468H302v-11.123h-1.463z"/>
        <path fill="#EEDD93" d="M189.928 228.402l-1.927-.45v10.798c-.042.988 1.883.48 2.44.803.55.325-.594 1.253 1.37 1.435.983.098 1.334-.416 1.34-1.023v-3.216c3.26.658 7.805.342 7.842-1.526H201v-10.792L189.928 224v4.402M246.477 228.774L223 227v12.026c-.007.878.984 1.769 1.697 2.239.548.374 1.304.258 2.103.17v3.051h.002c.014.364.265.736.724 1.162.425.398 1.142.566 1.77.716v2.488h.007l.198.418c.852 1.068 5.529.728 7.07.445.69-.106.75-.221.736-.388v-.279c.036-.182.185-.425.719-.762 1.548-.96 5.06.265 7.46-.96 1.147-.586 1.546-1.127 1.512-1.605v-11.959h-.365l-.156-4.988M257 245.68l.01.006c-.038 1.178 2.748 1.837 3.338 2.564.72.894-.797 2.626 2.162 2.746 1.892.083 2.54-1.154 2.484-2.477l.006-10.326-8-3.193v10.68"/>
        <path fill="url(#a)" d="M265.639 207.613c1.396-.412 25.886 3.987 27.158 3.043 1.267-.937-.216-4.824 3.924-5.597 1.237-.092 3.453 1.603 4.96.492 1.507-1.112-2.824-1.646-2.745-2.273.08-.628 1.98-.646 1.547-1.361-.425-.707-2.097-.371-2.216-.682-.12-.317.88-.756 0-1.18-.891-.42-10.81-1.844-17.94-7.557-1.818-1.71 1.55-1.168 0-2.746-1.56-1.583-5.678-.303-6.495-1.762-.805-1.478 2.061-1.881 4.104-3.738.96-.876-2.4-2.359-4.568-4.3-2.44-2.173-3.849-4.754-5.002-4.731-2.172.052-2.172 2.819-4.095 2.355-1.92-.467-3.302-2.577-4.783-3.732-1.486-1.15-3.738-.253-5.125-1.963-1.388-1.7 1.647-1.9 1.026-3.142-.621-1.236-6.365-1.297-8.03-3.428-1.66-2.135 3.332-3.315.514-3.838-7.238-2.384-4.932-6.366-6.317-6.96-1.39-.604-2.523 1.447-2.734 0-.214-1.453 5.655-.285 5.293-1.473-.362-1.191-3.612-2.271-4.272-3.44-.66-1.168 1.688-1.34.685-2.153-1.003-.821-7.903-1.648-10.418-3.434-2.519-1.802-1.9-5.242-3.588-6.385-1.685-1.141-6.83.734-8.2-.197-1.365-.93.853-2.087 0-2.943-.853-.865-2.67-1.311-2.732-2.156-.061-.851 2.69-1.263 1.367-2.16-1.322-.914-5.473-1.26-8.54-1.97-13.773-7.475-21.395-14.872-22.892-16.686-1.49-1.813 1.751-1.646-.34-2.943-2.085-1.297-3.354-.279-5.124-.98-1.774-.702-18.023-9.496-18.96-12.073-.94-2.576 2.862-4.055-1.879-5.793-2.118-.528-4.038.527-5.639-.3-1.6-.819 2.946-1.054 1.196-2.252-1.749-1.2-11.184-2.112-12.126-.883-.937 1.23 2.862 1.497 2.732 2.552-.125 1.05-1.151 1.74-3.415 1.57-2.263-.164-1.965-2.55-3.418-3.538-1.447-.973-14.238-8.551-23.74-2.644-1.944 1.19 4.823 1.055 4.443 1.571-.387.514-4.934.396-4.443 1.571.49 1.16 6.936 1.042 5.978 1.669-.955.623-9.547.398-10.25 1.963-.705 1.56 9.159.72 8.199 1.764-.963 1.043-5.767-.71-7.002.683-1.237 1.409 4.374 1.515 3.587 2.067-.79.553-7.73-.366-8.2.59-.471.957 7.259 1.473 5.98 2.254-1.285.79-6.533-1.155-8.883-.589-2.347.564-5.018 2.124-3.735 2.93 1.279.815 6.404-.514 8.007.31 1.597.82 1.79 1.938 3.412 2.156 1.622.224 2.926-.553 3.59-.1.66.453.748 1.907-.532 2.57-1.281.659-5.435-.066-5.753 1.838-.316 1.902 7.163 2.876 10.109 6.77 3.264 4.336 7.622 1.148 9.155 1.983 1.538.836.833 2.439 2.048 2.744 1.224.308 2.247-.679 2.74 0 .485.675-.563 1.644.17 1.868.722.218 3.373-1.695 2.22.492-1.154 2.175-5.958 1.605-5.808 3.14.15 1.535 3.178 1.044 3.587 2.06.405 1.021-.343 2.158-.343 2.158s-4.225 2.676-11.956.987c-2.867-.516-.087-1.478-2.391-1.372-2.309.093-5.25 1.59-7.004 1.07-1.752-.51-.81-1.985-2.22-1.276-1.41.713-.125 1.943-1.367 3.34-1.238 1.403-5.166 4.2-7.518 4.324-2.345.118-1.49-1.155-2.562-.299-1.069.856-.339 2.459-2.263 2.67-1.92.224-5.25-3.019-6.96-1.69-1.709 1.323-1.024 3.535-1.024 3.535s-8.026 3.532-11.103 3.043c-3.071-.492-6.151-5.255-7.857-4.517-1.708.74 1.456 3.242-1.365 4.125-2.816.887-4.486 3.756-4.61 5.205-.133 1.445 3.068 1.712 2.22 2.65-.854.925-1.71 2.447-4.273.882-2.561-1.571-3.587 1.669-3.587 1.669s-1.667-1.205-4.101-.781c-2.432.41-.382 1.632-6.144 2.155-5.26 1.546-.899 6.695-2.225 7.757-1.322 1.048-2.311.724-3.073.98-.767.242-.85-1.678-3.756-2.169-1.74-.292-6.856.734-10.998 1.196-2.778.307-5.216-.139-5.573.477-.896 1.544 1.922 1.696 1.026 2.55-.899.865-6.022 2.087-6.32 3.634-.116.597 3.858 1.453 6.02 3.955 3.468 4 5.595 10.172 3.719 10.868-3.055 1.13-5.087-.838-5.951.844-.864 1.675 2.887 2.28 1.663 2.937-1.21.665-2.719-.603-4.254.335-1.54.95-3.394 4.838-3.276 5.73.123.89 2.764 1.175 3.883 3.032 1.12 1.858-1.42 3.05 3.49 4.795 4.91 1.739 11.874-1.28 16.871-.371 4.991.91 3.797 2.083 7.084 3.382 3.292 1.304 5.637-.192 9.438.514 2.582.485 8.464 4.796 13.88 8.155 2.564 1.583 5.78 2.342 7.088 3.503 4.056 3.614 3.033 3.706 6.875 4.886 3.844 1.18 5.122.317 8.286 1.77 3.16 1.44-2.459 3.496.678 3.775 6.408 1.23 13.328-2.595 22.725-3.242 9.39-.639 20.513 6.572 22.542 6.285 2.032-.279 1.152-1.74 1.88-2.85 1.219-1.869 17.253-4.608 17.253-4.608s16.437 3.806 21.176 1.564c1.603-1.159-2.875-1.7-2.047-3.724.834-2.027 1.728-8.21 7.006-10.9 5.273-2.68 26.776-5.619 35.188-5.685 2.001.415 11.018 3.482 11.269.587-.979-.813-3.544-1.694-3.074-2.167.469-.466 10.59-2.402 12.13-1.272 2.003 3.167 22.735 8.134 25.112 7.953 2.373-.185 1.504-.867 2.9-1.277" transform="translate(0 -5)"/>
        <path fill="#FFEFAA" d="M201.99 225.04c-.397-2.993-12.337-2.405-11.982-.09.354 2.313 12.384 3.089 11.982.09M192.221 228.518c-.883-.803-4.182-.717-4.22.57-.04 1.281 1.827.622 2.367 1.042.534.426-.576 1.604 1.33 1.854 1.904.254 1.394-2.651.523-3.466M245.623 232.103c-1.427-.54-2.584.42-4.082-.024-1.503-.443-.729-1.149.043-1.57.772-.425.507.05 2.31.05 1.8 0 3.122-1.412 2.357-2.175-2.055-2.06-20.923-2.973-22.555-1.984-1.624.983-.032 2.334.997 2.943 1.028.61 2.809-.285 4.18.23 1.371.51 2.947.74 2.006 1.344-.94.618-2.671-.358-3.525.346-.864.697-.688 1.207.169 1.917.856.7 2.87.588 3.041 1.19.176.611-1.923 1.054-1.066 1.991.851.937 5.528.633 7.07.397 1.538-.23-.09-.42 1.454-1.26 1.548-.843 5.06.228 7.46-.843 2.4-1.077 1.57-2.008.141-2.552M264.31 234.245c-.585-.861-4.965-3.425-6.82-1.61-1.863 1.82 2.133 2.618 2.856 3.54.72.916-.798 2.701 2.162 2.821 2.971.133 2.885-3.08 1.802-4.75"/>
        <path fill="#CE4422" d="M164 145h-26v7.477c0 1.923 1.266 3.845 3.807 5.316 5.078 2.943 13.308 2.943 18.381 0 2.541-1.47 3.812-3.393 3.812-5.316V145"/>
        <path fill="#FA5932" d="M160.189 150.805c-5.075 2.927-13.306 2.927-18.385 0-5.072-2.927-5.072-7.678 0-10.605 5.08-2.933 13.31-2.933 18.385 0 5.081 2.927 5.081 7.678 0 10.605"/>
        <g transform="translate(143 140)">
            <mask id="d" fill="#fff">
                <use xlink:href="#b"/>
            </mask>
            <path fill="url(#c)" d="M16.842.313H0V5.13c0 1.255.825 2.492 2.467 3.43 3.283 1.896 8.625 1.896 11.915 0 1.644-.938 2.46-2.175 2.46-3.43V.313" mask="url(#d)"/>
        </g>
        <path fill="#FFF" d="M157.512 142.544c-3.318 1.941-8.707 1.941-12.02 0-3.323-1.96-3.323-5.13 0-7.072 3.313-1.963 8.702-1.963 12.02 0 3.317 1.941 3.317 5.112 0 7.072"/>
        <path fill="url(#e)" d="M15 0H0v3.878c0 1.058.736 2.113 2.196 2.924 2.933 1.597 7.68 1.597 10.608 0C14.268 5.992 15 4.936 15 3.878V0" transform="translate(50 172)"/>
        <path fill="#FFF" d="M62.805 173.83c-2.929 1.56-7.677 1.56-10.61 0-2.927-1.563-2.927-4.092 0-5.664 2.933-1.555 7.681-1.555 10.61 0 2.927 1.572 2.927 4.101 0 5.665"/>
        <g transform="translate(54 13)">
            <mask id="h" fill="#fff">
                <use xlink:href="#f"/>
            </mask>
            <path fill="url(#g)" d="M7 .313H.11v158.091c0 .622.338 1.236 1.01 1.712 1.345.938 3.524.938 4.871 0 .673-.476 1.009-1.09 1.009-1.712V.314" mask="url(#h)"/>
        </g>
        <g transform="translate(48)">
            <mask id="k" fill="#fff">
                <use xlink:href="#i"/>
            </mask>
            <path fill="url(#j)" d="M16.717 8.067c0 4.296-3.708 7.78-8.283 7.78-4.582 0-8.293-3.484-8.293-7.78C.141 3.775 3.852.291 8.434.291c4.575 0 8.283 3.484 8.283 7.776" mask="url(#k)"/>
        </g>
        <path fill="#FFC900" d="M172 42.7c-37-30.138-74 30.138-111 0v37.6c37 30.136 74-30.137 111 0V42.7"/>
        <path fill="#D63A3A" d="M108.487 69.972c0-.352 1.026-.872 1.026-.878v1.812c-.318-.032-.64-.066-.96-.102 0 0-.066-.48-.066-.832"/>
        <path fill="#000" d="M108.14 70.78c.258.03.515.063.773.097v-1.754c-.34.213-.826.594-.826.817 0 .314.043.732.053.84zm.816.214l-.02.006-.854-.109-.022-.031a8.663 8.663 0 0 1-.06-.874c0-.399.853-.92.95-.984l.034-.002.016.033v1.892l-.021.048-.023.02z"/>
        <path fill="#D63A3A" d="M112.307 67.816V70a5.03 5.03 0 0 0 1.386-2.441c-.114-.524-.232-1.035-.344-1.559 0 0-.454 1.312-1.042 1.816"/>
        <path fill="#000" d="M113.067 67.811V70c.638-1.023.836-2.258.866-2.475-.073-.502-.142-1.012-.212-1.525-.092.4-.341 1.353-.654 1.811zM113 70v-2.19l.03-.034c.374-.432.674-1.62.677-1.629l.036-.147.257 1.585-.004.028c-.008.05-.191 1.325-.958 2.337L113 70z"/>
        <path fill="#D63A3A" d="M101 72.75c0 1.891-1.343 3.795-2.999 4.181-1.656.388-3.001-.9-3.001-2.792 0-1.896 1.345-3.681 3.001-4.065 1.656-.387 2.999.78 2.999 2.675"/>
        <path fill="#FFF" d="M91 85.344A101.63 101.63 0 0 0 97.513 81c2.163.43 4.326.762 6.487 1.026 0-.044-1.09 1.949-6.487 3.428-5.242 1.311-6.513-.156-6.513-.11M98 70.378v-6.592c2.666-.766 5.334-1.728 8-2.786v10.053A102.28 102.28 0 0 1 100.678 73c-.016-1.908-1.21-3.048-2.678-2.622"/>
        <path fill="#F5B400" d="M95.32 74c-1.773.43-3.545.769-5.318.977v6.035c0-.01-.123 2.582 1.561 3.63.493.27 1.443.496 2.547.258 3.212-.737 3.89-4.854 3.89-4.833v-3.219c-1.48.436-2.68-.877-2.68-2.848"/>
        <path fill="#D63A3A" d="M105.998 76.843V71a97.388 97.388 0 0 1-5.32 1.925c0 1.907-1.198 3.855-2.678 4.276v3.115c0-.015.678 3.56 3.89 2.481a6.862 6.862 0 0 0 2.547-1.636c1.684-1.898 1.561-4.318 1.561-4.318M91.345 86l-.69-.612V76.11c.23-.032.46-.074.69-.111v10M93.324 86c-.214 0-.432 0-.648-.009v-9.87c.216-.038.434-.077.648-.121v10M95.342 84.652c-.228.12-.454.234-.684.348V74.17c.23-.05.456-.108.684-.17v10.652M95.444 78v6c.368-.212.736-.43 1.112-.643v-5.1A5.3 5.3 0 0 1 95.444 78"/>
        <path fill="#D63A3A" d="M98 70.749V64c-2.668.794-5.334 1.393-8 1.714V76a43.898 43.898 0 0 0 5.32-.987c.02-1.961 1.212-3.827 2.68-4.264"/>
        <path fill="#000" d="M97.951 81l.098-.042V77l-.098.036V81"/>
        <path fill="#000" d="M97.9 85.29c-.475.212-4.398 1.465-6.484-.477-.874-.787-1.315-1.97-1.315-3.471V64.85c2.599-.318 5.197-.92 7.798-1.704v6.748L98 69.87V63c-2.667.809-5.333 1.427-8 1.751v16.61c0 1.525.454 2.74 1.347 3.546 1.726 1.592 4.69 1.089 5.978.69.381-.111.618-.208.628-.208l.047-.016-.1-.082"/>
        <path fill="#000" d="M97.951 78.421l.098-.022v-.82l-.098.026v.816"/>
        <path fill="#000" d="M98 63.764v6.514l.1-.022v-6.41c2.599-.749 5.201-1.677 7.801-2.699v15.657c0 1.423-.443 2.768-1.316 3.977-2.085 2.927-6.014 4.012-6.484 4.085L98 85l.045-.013c.01 0 .245-.052.629-.165 1.287-.364 4.253-1.571 5.98-3.985.892-1.24 1.346-2.619 1.346-4.073V61c-2.666 1.05-5.334 1.999-8 2.764"/>
        <path fill="#000" d="M98.001 71.087C96.348 71.497 95 73.303 95 75.19c0 1.89 1.348 3.148 3.001 2.728 1.654-.42 2.999-2.345 2.999-4.228 0-1.887-1.345-3.024-2.999-2.604zm0 6.832c-1.653.42-3.001-.838-3.001-2.722 0-1.889 1.348-3.694 3.001-4.111 1.656-.415 2.999.716 2.999 2.598 0 1.884-1.343 3.816-2.999 4.235z"/>
        <path fill="#25A4C4" d="M100 72.986c0 1.354-.894 2.697-2 2.966-1.106.271-2-.634-2-1.987 0-1.356.894-2.644 2-2.915 1.106-.27 2 .578 2 1.936"/>
        <path fill="#000" d="M98.001 72.048C96.9 72.318 96 73.608 96 74.961c0 1.348.9 2.259 2.001 1.993 1.105-.269 1.999-1.61 1.999-2.96 0-1.355-.894-2.212-1.999-1.946zM98 76.951c-1.103.275-2-.637-2-1.988s.897-2.642 2-2.914c1.105-.267 2 .584 2 1.936 0 1.345-.895 2.694-2 2.966zM107 71.191a104.744 104.744 0 0 1-5 1.714v-.1a100.396 100.396 0 0 0 5-1.71v.096M95 75.627c-1.667.37-3.333.658-5 .844v-.1a45.297 45.297 0 0 0 5-.842v.098M93.738 83.918a6.82 6.82 0 0 1-2.738-.13l.05-.087a6.811 6.811 0 0 0 2.763.12c1.428-.242 3.296-1.16 4.08-3.821H98c-.8 2.726-2.72 3.665-4.187 3.91l-.075.008M101.65 82.85l-.062.014c-1.258.316-2.904.22-3.588-1.821l.092-.043c.668 1.999 2.27 2.096 3.498 1.788 1.254-.312 2.355-1.066 2.367-1.074l.043.059c-.01.01-1.096.752-2.35 1.077"/>
        <path fill="#000" d="M91.049 83.986l-.098.014v-7.986l.098-.014v7.986M92.048 85.977l-.096.023v-9.984l.096-.016v9.977M93.049 85.982l-.098.018v-9.982l.098-.018v9.982"/>
        <path fill="#000" d="M93.05 85.985l-.1.015v-9.98l.1-.02v9.985M94.096 84.978l-.192.022V74.024l.192-.024v10.978M95.049 84.978l-.098.022V74.03l.098-.03v10.978M96.049 83.974l-.098.026v-5.976l.098-.024v5.974M97.048 82.979l-.096.021v-4.973l.096-.027v4.979"/>
        <path fill="#FFF" d="M111 74.97c-.666.349-1.334.692-2 1.03V62.029c.666-.339 1.334-.684 2-1.029v13.97"/>
        <path fill="#000" d="M108 77c1.333-.324 2.667-.661 4-.996V62c-1.333.335-2.667.672-4 1.003V77zm3.919-1.021c-1.28.347-2.564.683-3.844 1.021l-.075-.033v-13.87l.075-.078c1.28-.33 2.564-.672 3.844-1.019l.081.036V75.9l-.081.078z"/>
        <path fill="#D63A3A" d="M107.048 67.162c0 .028 5.558-3.483 6.952-1.614-.174.547-.35 1.095-.528 1.642C110.939 65.517 107 69.01 107 69l.048-1.838"/>
        <path fill="#000" d="M109.894 67.166c1.463-.623 2.675-.642 3.611-.03.167-.53.33-1.062.495-1.591-.739-.998-2.63-.436-4.094.186-1.382.593-2.622 1.348-2.862 1.492L107 69c.301-.259 1.498-1.233 2.894-1.834zm3.547.082l-.05-.033c-.896-.587-2.064-.58-3.483 0-1.54.624-2.824 1.71-2.837 1.722L107 69c.016-.632.035-1.263.051-1.897l.039-.02c.012-.006 1.34-.797 2.83-1.401 1.452-.59 3.334-1.114 4.064-.143l.016.015c-.186.563-.373 1.126-.559 1.694z"/>
        <path fill="#D63A3A" d="M112.927 71s-1.018 1.844-.1 2c-.012-1.053.73-1.34.73-1.34l-.63-.66"/>
        <path fill="#000" d="M114.454 71.058c-.108.54-.447 2.332-.34 3.308l.217.576c.011-1.072.174-1.752.314-2.144l.262-.54c-.15-.404-.302-.808-.453-1.2zm-.095 3.931l-.02.011c-.166-.073-.274-.283-.316-.646-.134-1.106.36-3.198.384-3.285l.035-.069h.031c.176.432.35.849.527 1.266v.09l-.035.076c-.023.022-.576.54-.565 2.434l-.02.094-.021.03z"/>
        <path fill="#D63A3A" d="M108 70v1.206c0 .763 5.309.412 6 .794v-1.11c0-.402-6-.013-6-.89"/>
        <path fill="#000" d="M108 70v1.143c0 .485 1.944.58 3.506.631 1.118.042 2.098.074 2.494.226v-1.19c0-.165-1.173-.207-2.21-.247-1.571-.056-3.326-.14-3.79-.563zm5.944 2h-.046c-.27-.15-1.333-.181-2.457-.216-1.693-.047-3.441-.125-3.441-.574v-1.156l.058-.054.058.023c0 .464 2.134.553 3.692.602 1.44.048 2.192.074 2.192.257v1.064l-.037.046-.019.008z"/>
        <path fill="#F5B400" d="M113 77.378c-1.335.543-2.665 1.086-4 1.622v-2.386A302.446 302.446 0 0 0 113 75v2.378"/>
        <path fill="#000" d="M109 79a396.894 396.894 0 0 0 4-1.638V75a247.497 247.497 0 0 1-4 1.641V79zm3.943-1.571c-1.298.532-2.59 1.058-3.888 1.571l-.055-.036V76.65l.055-.076c1.297-.511 2.59-1.037 3.888-1.574l.057.038v2.31l-.057.08z"/>
        <path fill="#F5B400" d="M113 60.38c-1.335.55-2.665 1.094-4 1.62v-2.382A272.28 272.28 0 0 0 113 58v2.38"/>
        <path fill="#000" d="M109 63c1.333-.528 2.665-1.085 4-1.636V59a345.284 345.284 0 0 1-4 1.644V63zm3.943-1.57a330.63 330.63 0 0 1-3.888 1.57l-.055-.04V60.65l.055-.079c1.297-.511 2.59-1.042 3.888-1.572l.057.033v2.309l-.057.088z"/>
        <path fill="#D63A3A" d="M87.515 75.526c0-.348-1.03-.428-1.03-.43v1.808c.32-.168.642-.34.962-.518 0 0 .068-.51.068-.86"/>
        <path fill="#000" d="M87.086 75.12v1.76c.257-.162.515-.328.773-.489.012-.117.055-.562.055-.872 0-.222-.488-.35-.828-.398zM87.043 77l-.022-.008L87 76.95v-1.898l.016-.037.034-.015c.098.015.95.096.95.497 0 .367-.057.9-.057.908l-.025.042c-.286.186-.571.366-.856.545l-.02.008z"/>
        <path fill="#D63A3A" d="M84.692 74.7v1.298c-1.126-.228-1.384-.964-1.384-.956.112-.342.228-.692.344-1.04 0 0 .452.624 1.04.698"/>
        <path fill="#000" d="M83.067 75.02c.031.098.23.686.866.898V74.72c-.313-.074-.561-.472-.654-.638l-.212.938zM84 76l-.036-.01c-.77-.212-.953-.893-.96-.913L83 75.06c.085-.351.171-.701.256-1.06l.04.074c0 .006.301.564.676.627l.028.008V76z"/>
        <path fill="#FFF" d="M84 82.992c.667.02 1.333 0 2-.036V68c-.667.046-1.333.05-2 .034v14.958"/>
        <path fill="#000" d="M84 82.99c.668.02 1.334.01 2-.029V68c-.666.046-1.332.056-2 .034V82.99zm1.96-.036c-.64.042-1.28.057-1.92.038l-.04-.057V68.09l.04-.061c.64.028 1.28.01 1.92-.029l.04.057v14.84l-.04.057z"/>
        <path fill="#D63A3A" d="M89.998 71.116c0 .155-5.606-1.056-6.998 1.927.176.65.352 1.31.53 1.957C86.06 71.577 90 73.601 90 73.559l-.002-2.443"/>
        <path fill="#000" d="M83 73.086L83.494 75c.937-1.31 2.149-1.95 3.61-2.033 1.398-.067 2.597.407 2.896.538 0-.8 0-1.597-.002-2.404a18.984 18.984 0 0 0-2.88-.077c-1.475.103-3.38.362-4.118 2.062zM83.557 75c-.188-.663-.371-1.334-.557-1.996l.012-.035c.732-1.606 2.63-1.852 4.092-1.95 1.499-.07 2.839.075 2.851.075l.04.012c.003.83.003 1.67.005 2.505l-.071-.04c-.013-.009-1.298-.582-2.838-.507-1.417.073-2.588.669-3.483 1.87l-.051.066z"/>
        <path fill="#D63A3A" d="M84.075 78s1.016 1.534.096 2c.014-1.07-.728-1.122-.728-1.122.21-.292.422-.584.632-.878"/>
        <path fill="#000" d="M83.093 78.836l.262.168c.14.136.303.412.314.942l.218-.378c.106-.534-.233-1.286-.34-1.514-.152.264-.303.528-.454.782zM83.64 80l-.018-.01-.02-.042c.003-.4-.095-.707-.285-.877l-.282-.146L83 78.9l.002-.045.525-.835.033-.02.033.024c.022.037.517.91.384 1.52a.661.661 0 0 1-.315.454L83.64 80z"/>
        <path fill="#D63A3A" d="M87 74v1.633c0 1.108-4.422 2.723-5 3.367v-1.513c0-.434 5-2.203 5-3.487"/>
        <path fill="#000" d="M87 74c-.388.611-1.848 1.34-3.16 1.89-.865.37-1.84.733-1.84.906V78c.332-.262 1.146-.569 2.078-.969C85.38 76.481 87 75.655 87 75.165V74zm-4.955 5l-.018-.002-.027-.055v-1.476c0-.256.624-.514 1.826-1.097 1.301-.626 3.081-1.669 3.081-2.316l.048-.054.045.047v1.604c0 .622-1.456 1.492-2.868 2.189-.94.468-1.824.852-2.05 1.146l-.037.014z"/>
        <path fill="#F5B400" d="M84 85.945c1.336.088 2.668.056 4-.068v-3.872a25.198 25.198 0 0 1-4 .064v3.876"/>
        <path fill="#000" d="M84 85.837c1.332.092 2.668.06 4-.06V82.11c-1.332.116-2.668.14-4 .064v3.664zm3.945.05a24.54 24.54 0 0 1-3.892.064L84 85.86v-3.703l.053-.084c1.3.08 2.596.053 3.892-.073l.055.088v3.7l-.055.098z"/>
        <path fill="#F5B400" d="M84 69.947c1.336.088 2.668.06 4-.076v-3.868a25.682 25.682 0 0 1-4 .072v3.872"/>
        <path fill="#000" d="M84 69.848c1.332.084 2.668.056 4-.068v-3.676c-1.332.12-2.668.148-4 .076v3.668zm3.945.035c-1.296.127-2.592.15-3.892.073L84 69.853V66.16l.053-.092c1.3.076 2.596.053 3.892-.069l.055.084v3.692l-.055.107z"/>
        <path fill="#D63A3A" d="M103.05 55.462c-2.245-.596-4.551.144-4.551.144s-2.307.25-4.552 1.778c-1.894-.086-3.947 1.34-3.947 1.34.08.332.163.663.245.995.253.2.507.398.761.594l.421.422c.424.091.848.183 1.272.265 3.867-.519 7.735-1.38 11.6-2.43.424-.258.848-.519 1.271-.78l.42-.581c.253-.3.51-.596.765-.894.08-.36.161-.725.245-1.089 0 0-2.053-.641-3.95.236"/>
        <path fill="#000" d="M92.668 61c3.89-.613 7.777-1.64 11.664-2.874.417-.301.837-.604 1.255-.903l.413-.68c.256-.351.51-.704.765-1.05l.235-1.24c-.215-.073-1.643-.507-3.14-.039a4.267 4.267 0 0 0-.763.323l-.023.015-.02-.009c-1.58-.498-3.191-.2-4.008.005-.338.084-.537.16-.54.16l-.006.004-.007.003c-.002 0-.205.026-.536.106a10.51 10.51 0 0 0-4.01 1.988l-.021.013H93.9c-.24-.013-.496 0-.758.045-1.497.256-2.926 1.337-3.143 1.508l.235 1.13c.253.234.507.464.758.694l.42.493c.415.107.838.208 1.255.308zm11.601-2.8c-3.847 1.204-7.698 2.2-11.547 2.8a43.235 43.235 0 0 1-1.276-.315l-.427-.493c-.256-.225-.51-.456-.765-.687a93.608 93.608 0 0 0-.254-1.19l.03-.023c.015-.011 1.558-1.237 3.191-1.508.26-.044.513-.06.752-.044 2.162-1.694 4.384-2.026 4.528-2.045.146-.05 2.364-.827 4.529-.174.236-.122.492-.23.753-.309 1.631-.5 3.174.04 3.19.046l.027.009c-.083.434-.166.869-.252 1.303l-.772 1.04-.418.68c-.43.302-.857.611-1.289.91z"/>
        <path fill="#F5B400" d="M103 60.123c0-.366-2.686.134-6 .86-3.314.736-6 1.365-6 1.721 0 .083.148.14.414.177.05.22.102.443.155.658l-.278.241c0 .356 2.53.313 5.645-.375 3.12-.686 5.648-1.7 5.648-2.052l-.212-.117c.05-.245.103-.488.153-.73.304-.163.475-.295.475-.383"/>
        <path fill="#000" d="M97.001 61.015c-3.535.782-6.001 1.403-6.001 1.7 0 .023.03.094.383.144l.03.002c.055.244.113.495.166.737l-.04.023c-.218.106-.243.17-.243.193 0 .285 2.317.313 5.64-.424 3.327-.74 5.642-1.75 5.642-2.032l-.18-.083-.039-.01c.058-.267.115-.54.17-.814l.033-.015c.408-.22.438-.314.438-.339 0-.3-2.463.121-5.999.918zm-.064 2.404c-2.736.608-5.648.774-5.648.33l.265-.257c-.047-.195-.09-.396-.14-.588-.281-.042-.414-.108-.414-.21 0-.43 3.09-1.085 6-1.736 2.91-.618 6-1.25 6-.813 0 .107-.151.238-.476.413l-.14.656.204.14c0 .435-2.913 1.482-5.651 2.065z"/>
        <path fill="#D63A3A" d="M102 60.113c0 .397-2.238 1.807-5.001 2.842C94.24 63.995 92 64.214 92 63.81c0-.406 2.24-1.274 4.999-2.316 2.763-1.035 5.001-1.79 5.001-1.38"/>
        <path fill="#000" d="M96.995 61.557c-3.056 1.171-4.97 2.008-4.995 2.315.025.261 1.94.205 4.995-.967 3.059-1.184 4.973-2.553 5.005-2.834-.032-.284-1.946.301-5.005 1.486zm.003 1.425C94.99 63.76 92 64.351 92 63.76c0-.554 2.991-1.558 4.998-2.326 2.011-.712 5.002-1.847 5.002-1.281 0 .581-2.991 2.127-5.002 2.83z"/>
        <path fill="#F5B400" d="M106.626 52.457c-.6-.688-1.877-.585-3.793.213l-.206-.206c-.718-.554-2.11-.142-4.125 1.092-2.023-.123-3.412.216-4.13 1.151l-.203.32c-1.919.22-3.193.75-3.791 1.73-.863 1.406.017 3.173.056 3.243l.38-.245c-.007-.014-.81-1.614-.087-2.788.492-.812 1.586-1.27 3.249-1.477-.388 1.261.184 2.7.214 2.772l.417-.198c-.01-.018-.798-1.983.073-3.118.594-.776 1.96-1.077 3.822-.951 1.86-1.15 3.22-1.585 3.817-1.131.871.67.084 3.049.076 3.069l.412-.014c.03-.09.604-1.83.219-2.889 1.662-.672 2.755-.758 3.247-.193.721.823-.078 2.815-.087 2.84l.377.051c.04-.094.921-2.289.063-3.271"/>
        <path fill="#000" d="M106.302 55.625l.288.041c.14-.369.825-2.312.04-3.214-.592-.68-1.863-.582-3.769.224l-.033.014-.015-.025-.2-.207c-.373-.288-.947-.309-1.7-.073-.658.204-1.465.611-2.398 1.188l-.013.007h-.02c-.933-.06-1.738-.013-2.397.14-.752.179-1.326.508-1.7 1.003l-.199.313-.015.032-.033.003c-1.904.226-3.18.762-3.768 1.735-.783 1.294-.1 2.899.039 3.194l.288-.183c-.129-.277-.735-1.74-.061-2.853.506-.842 1.624-1.319 3.314-1.534l.07-.009-.022.071c-.35 1.17.103 2.489.201 2.747l.314-.153c-.122-.332-.709-2.109.105-3.18.314-.412.822-.696 1.511-.86.656-.161 1.455-.196 2.373-.134.911-.57 1.71-.975 2.366-1.179.693-.217 1.2-.208 1.513.032.816.634.23 2.725.107 3.119l.312-.012c.1-.314.554-1.87.2-2.855l-.023-.057.07-.03c1.692-.691 2.81-.778 3.319-.19.671.778.065 2.541-.064 2.885zm.235.161l-.47-.069.024-.055c.01-.02.791-1.945.09-2.737-.469-.535-1.518-.46-3.114.173.349 1.063-.211 2.745-.237 2.814l-.017.053-.51.022.02-.064c.007-.02.779-2.328-.066-2.965-.289-.219-.765-.223-1.417-.024-.64.194-1.422.584-2.325 1.132l-.013.009h-.019c-.9-.062-1.68-.02-2.324.126-.65.152-1.127.407-1.416.78-.842 1.088-.07 2.99-.062 3.005l.021.053-.514.243-.018-.037c-.025-.058-.588-1.444-.237-2.698-1.596.21-2.643.65-3.114 1.413-.698 1.132.081 2.68.09 2.695l.024.047-.47.298-.024-.044c-.04-.078-.93-1.835-.056-3.246.601-.975 1.877-1.51 3.785-1.729l.194-.294c.39-.502.98-.838 1.754-1.02.657-.15 1.46-.191 2.386-.136.922-.56 1.726-.949 2.383-1.148.773-.24 1.363-.22 1.756.08l.191.188c1.907-.785 3.182-.873 3.785-.192.875.988-.017 3.179-.056 3.27l-.024.057z"/>
        <path fill="#F5B400" d="M98.6 56.818c0 2.2-.27 4.071-.598 4.178-.332.1-.602-1.61-.602-3.814 0-2.206.27-4.076.602-4.178.328-.102.598 1.601.598 3.814"/>
        <path fill="#000" d="M97.502 53.003c-.203.08-.427 1.811-.427 4.169 0 2.355.224 3.907.427 3.825.2-.078.423-1.812.423-4.171 0-2.355-.224-3.9-.423-3.823zm0 7.99c-.326.135-.502-1.867-.502-3.805 0-1.93.176-4.056.502-4.182.324-.128.496 1.856.498 3.791 0 1.936-.174 4.075-.498 4.197z"/>
        <path fill="#F5B400" d="M92.093 62.99c-.35.062-.716-.172-1.093-.71l.326-.33c.307.44.596.634.81.562.233-.084.398-.485.443-.636l.095-.325.22.153c.12.088.494.27.772.088.258-.17.38-.621.433-.968l.113-.71.266.564c.134.278.345.608.6.545h.009c.332-.088.69-.79.79-1.028l.162-.387.186.275c.235.359.478.461.715.308.359-.22.658-.937.658-1.271L98 59c0 .478-.375 1.444-.942 1.803-.213.14-.598.28-.988-.137-.198.371-.55.923-.996 1.028-.262.058-.5-.047-.711-.313-.126.385-.314.655-.559.823-.355.232-.728.134-.952.03-.116.261-.328.61-.656.73l-.103.026"/>
        <path fill="#000" d="M91 62.316c.394.557.783.777 1.137.648.309-.116.51-.452.63-.712l.025-.054.044.02c.155.069.395.138.644.079l.283-.114c.236-.156.418-.43.54-.809l.033-.104.053.07c.205.262.434.366.684.306l.01-.002c.412-.104.75-.616.96-1.024l.037-.07.044.048c.225.237.47.321.735.244l.216-.1c.535-.347.894-1.247.925-1.742l-.31.099c-.03.383-.332 1.08-.701 1.318-.267.173-.538.062-.79-.326l-.14-.218-.124.304c-.113.277-.482 1.012-.85 1.103-.295.067-.524-.277-.663-.586l-.205-.435-.084.551c-.061.379-.191.863-.474 1.054l-.179.076c-.26.06-.545-.084-.659-.16l-.165-.126-.076.25c0 .01-.172.595-.491.707-.233.086-.527-.104-.841-.552l-.248.257zm1.143.674c-.36.064-.736-.174-1.113-.709l-.03-.043.4-.392.03.04c.287.402.555.592.75.527.202-.071.356-.444.393-.574l.117-.393.272.192c.08.058.34.192.573.141l.136-.055c.235-.148.343-.567.397-.889.043-.287.092-.574.14-.863.108.231.217.456.324.685.177.363.373.544.546.509h.002c.287-.074.622-.671.74-.953l.198-.475.227.34c.219.324.436.424.65.287.325-.201.61-.867.61-1.161v-.058L98 59v.056c0 .476-.383 1.45-.965 1.814l-.237.109c-.267.076-.517.007-.744-.204-.218.391-.555.85-.97.953h-.012c-.25.06-.48-.025-.685-.247-.128.34-.31.585-.544.736l-.308.125c-.24.055-.47 0-.628-.067-.13.263-.34.576-.657.687l-.107.028z"/>
        <path fill="#F5B400" d="M103.94 59.33l-.094.026c-.34.067-.569-.121-.692-.271-.225.19-.6.454-.963.439-.24-.012-.426-.15-.556-.406-.21.328-.447.534-.707.611l-.012.006c-.437.128-.79-.144-.983-.352-.394.538-.779.623-.987.617-.569-.014-.946-.619-.946-1.018l.402-.099c0 .273.3.712.657.716.241.006.482-.202.717-.617l.188-.326.158.243c.101.148.458.547.794.447h.004c.258-.077.468-.45.604-.75.086-.2.173-.396.261-.596l.114.532c.055.26.175.57.435.586.276.014.653-.32.77-.45l.215-.23.098.21c.05.103.233.356.483.304.216-.041.484-.316.776-.784l.324.12c-.356.58-.713.927-1.06 1.042"/>
        <path fill="#000" d="M103.21 58.956l.025.032c.128.156.346.326.664.266.355-.072.724-.406 1.101-.996l-.25-.098c-.297.476-.574.74-.809.788-.335.066-.528-.32-.528-.324l-.078-.162-.163.174c-.111.12-.396.372-.654.45l-.18.028c-.283-.012-.416-.344-.474-.62l-.084-.402-.203.45c-.143.318-.372.714-.655.804-.377.11-.746-.3-.861-.468l-.12-.186-.142.25c-.254.444-.522.664-.789.662-.366-.01-.668-.422-.702-.716l-.308.076c.03.384.392.936.922.944l.22-.028c.26-.072.508-.26.734-.57l.042-.056.038.036c.172.188.526.474.958.352l.013-.008c.247-.076.476-.274.679-.586l.054-.08.034.066c.124.248.306.378.537.386l.283-.038c.253-.078.494-.254.652-.39l.044-.036zm.68.435l-.102.025a.729.729 0 0 1-.688-.231 2.01 2.01 0 0 1-.639.344l-.308.04a.648.648 0 0 1-.543-.325c-.202.269-.431.44-.682.51l-.013.006c-.415.111-.751-.09-.97-.292-.227.27-.478.439-.742.507l-.239.025c-.58-.009-.964-.584-.964-.953v-.045l.494-.113v.043c0 .224.286.611.608.616.215.004.434-.173.653-.53l.229-.37.196.277c.118.163.452.471.735.396.18-.052.375-.28.55-.647.109-.224.218-.448.326-.674l.142.604c.05.222.162.493.393.505l.14-.021c.232-.066.49-.287.573-.366l.261-.256.122.237c.04.078.212.299.431.26.197-.038.448-.275.72-.687l.03-.045.397.142-.028.041c-.361.543-.724.87-1.082.977z"/>
        <path fill="#F5B400" d="M97.511 58.999c-.34.228-.68.454-1.022.674v-1.346c.326.094.646.182.968.27l.054.402"/>
        <path fill="#000" d="M97.09 57.31v2.38c.274-.396.545-.796.82-1.208l-.042-.688c-.26-.148-.52-.32-.777-.484zM97 60v-3c.316.208.63.404.945.592l.055.924c-.333.5-.668.988-1 1.484z"/>
        <path fill="#F5B400" d="M98.598 59.039c.308-.232.62-.472.928-.712v1.346c-.35-.066-.7-.136-1.052-.208l.124-.426"/>
        <path fill="#000" d="M98.093 58.769c.27.045.541.085.814.128v-.794l-.724.427-.09.239zM99 59c-.334-.048-.667-.1-1-.152l.12-.329c.292-.17.587-.343.88-.519v1z"/>
        <path fill="#F5B400" d="M97.741 58.564l-.414-.772c.448-.114.898-.234 1.346-.356-.168.336-.334.676-.502 1.018l-.43.11"/>
        <path fill="#000" d="M97.354 57.792l.244-.15c.099-.475.197-.961.296-1.434-.262.175-.524.34-.788.498l.248 1.086zm.276-.005l-.324.213L97 56.632c.332-.2.666-.413 1-.632-.122.6-.246 1.2-.37 1.787z"/>
        <path fill="#D63A3A" d="M98.369 58.9a.521.521 0 0 1-.368.471c-.206.052-.37-.074-.37-.274 0-.204.164-.412.37-.468.204-.052.368.068.368.27"/>
        <path fill="#000" d="M98.002 57.255l-.768.944.768.546.764-.94-.764-.55zm0 1.708c-.558.149-1.002-.166-1.002-.703 0-.542.444-1.084 1.002-1.227.545-.14.998.18.998.703 0 .542-.453 1.093-.998 1.227z"/>
        <path fill="#F5B400" d="M101.529 58.147c-.362.19-.722.372-1.082.552.086-.466.17-.934.252-1.398.284.142.57.286.854.422l-.024.424"/>
        <path fill="#000" d="M101.276 58.102c-.06.265-.123.532-.184.796.268-.103.535-.21.8-.316l.016-.235c-.21-.08-.421-.162-.632-.245zM101 59c.074-.33.153-.667.229-1 .258.1.513.2.771.297l-.023.317c-.326.131-.651.259-.977.386z"/>
        <path fill="#F5B400" d="M101.599 57.894c.332-.196.664-.394.996-.596-.082.466-.166.938-.252 1.404a92.505 92.505 0 0 1-.938-.384l.194-.424"/>
        <path fill="#000" d="M103.095 57.677c.214.074.429.147.641.218l.169-.79c-.226.116-.457.23-.685.343l-.125.23zm.69.323l-.785-.27.17-.314c.274-.138.553-.276.83-.416l-.214 1z"/>
        <path fill="#F5B400" d="M101.584 57.516c-.082-.286-.162-.576-.244-.866.44-.052.882-.11 1.32-.166-.218.326-.436.654-.656.978l-.42.054"/>
        <path fill="#000" d="M102.254 56.898l.245-.04c.132-.251.263-.503.394-.756-.262.046-.523.09-.786.13l.147.666zm.253.05l-.325.052-.182-.837c.334-.048.666-.106 1-.163l-.493.948z"/>
        <path fill="#D63A3A" d="M102.363 57.952c-.038.214-.23.41-.432.434-.202.026-.332-.124-.294-.34.038-.214.232-.406.432-.432.202-.028.332.128.294.338"/>
        <path fill="#000" d="M101.41 57.117l-.314.36.05.226.204.07a.479.479 0 0 0 .376-.374l-.05-.228-.206-.07-.06.016zm.004.741l-.08.016-.27-.092-.064-.292a.629.629 0 0 1 .41-.47l.08-.02.266.092.066.292a.646.646 0 0 1-.408.474z"/>
        <path fill="#F5B400" d="M104.47 58.463c-.364.084-.73.162-1.096.234.22-.462.442-.924.662-1.394.194.242.39.478.59.716l-.156.444"/>
        <path fill="#000" d="M104.096 57.898c.238-.045.476-.091.711-.138l.097-.243c-.13-.137-.258-.275-.387-.415l-.421.796zm.773-.065c-.289.058-.578.112-.869.167l.531-1c.154.17.31.338.469.504l-.131.329z"/>
        <path fill="#F5B400" d="M104.38 57.46c.022-.334.046-.664.066-.996.392.078.784.162 1.174.242l-.866.83-.374-.076"/>
        <path fill="#000" d="M106.106 56.839l.232.058.556-.619c-.248-.058-.496-.118-.743-.175-.016.244-.03.488-.045.736zm.2.161l-.306-.072.053-.928c.315.079.632.152.947.224-.23.26-.463.518-.694.776z"/>
        <path fill="#D63A3A" d="M105.323 58.068c-.102.212-.328.356-.506.316-.176-.034-.24-.236-.14-.45.1-.212.326-.356.504-.32.176.04.242.242.142.454"/>
        <path fill="#000" d="M104.401 57.113l-.28.262-.028.254.152.142.156-.016.28-.26.03-.256-.15-.138-.16.012zm.001.741l-.204.018-.198-.184.038-.33.364-.342.204-.016.198.178-.038.334-.364.342z"/>
        <path fill="#F5B400" d="M94.471 59.641c.362-.004.72-.008 1.082-.016-.084-.424-.168-.844-.254-1.266-.282.288-.568.582-.852.868l.024.414"/>
        <path fill="#000" d="M95.109 59.899l.799-.01c-.063-.264-.122-.527-.184-.788-.212.186-.421.368-.632.55l.017.248zm.891.093c-.327.004-.651.008-.979.008L95 59.669l.768-.669c.076.33.155.662.232.992z"/>
        <path fill="#F5B400" d="M93.401 59.445c-.332-.022-.664-.054-.998-.084.086.424.17.852.252 1.278.312-.286.626-.576.942-.87l-.196-.324"/>
        <path fill="#000" d="M93.096 60.103l.168.794c.214-.179.426-.362.64-.546l-.126-.193a58.317 58.317 0 0 1-.682-.055zm.12.897c-.072-.333-.143-.667-.216-1 .278.024.554.045.832.068l.168.261c-.261.228-.524.452-.785.671z"/>
        <path fill="#F5B400" d="M93.417 59.414c.082-.33.164-.662.242-.992-.438.176-.88.348-1.318.512.218.212.436.43.656.644l.42-.164"/>
        <path fill="#000" d="M93.107 59.45c.133.15.264.302.395.447l.245-.109c.05-.228.097-.455.146-.685-.261.12-.523.235-.786.347zm.386.55c-.163-.188-.327-.37-.493-.557.334-.143.668-.292 1-.443l-.184.854-.323.146z"/>
        <path fill="#D63A3A" d="M92.636 59.138c.04.194.234.29.434.21.2-.078.33-.298.294-.494-.038-.192-.23-.28-.434-.204-.202.078-.332.296-.294.488"/>
        <path fill="#000" d="M94.413 59.115l-.062.016-.204.176-.052.252.376.18.206-.176.05-.254-.314-.194zm-.003.731c-.2.04-.372-.07-.41-.258l.064-.326.268-.23.08-.024c.198-.04.374.066.41.258l-.066.328-.268.228-.078.024z"/>
        <path fill="#F5B400" d="M91.531 60.686c.364-.096.728-.2 1.092-.308l-.658-1.064-.588 1.002.154.37"/>
        <path fill="#000" d="M91.097 60.697l.095.204c.238-.058.477-.117.711-.18-.14-.205-.28-.414-.42-.622-.13.203-.257.4-.386.598zm.033.303l-.13-.28c.158-.24.313-.48.469-.72.178.258.354.522.531.78-.29.075-.582.149-.87.22z"/>
        <path fill="#F5B400" d="M90.621 60.356c-.024-.324-.048-.644-.07-.966-.39.27-.78.538-1.172.8.288.142.578.282.87.42l.372-.254"/>
        <path fill="#000" d="M90.107 60.619c.184.094.369.183.556.277l.23-.166-.043-.626c-.25.173-.497.346-.743.515zm.588.381a33.994 33.994 0 0 1-.695-.345c.314-.215.63-.43.945-.655.019.261.038.522.055.783l-.305.217z"/>
        <path fill="#D63A3A" d="M90.678 62.222l.502.078.142-.524-.504-.076-.14.522"/>
        <path fill="#000" d="M90.403 61.096l-.156.06-.154.218.03.238.28.126.158-.062.152-.218-.028-.238-.282-.124zm-.001.738l-.364-.164-.038-.312.2-.278.202-.08.366.164.038.31-.198.278-.206.082z"/>
        <path fill="#F5B400" d="M98.177 50.564v-.366l-.354.09v.37l-.37.094v.432l.37-.092v.71l.354-.096v-.708l.37-.1v-.436l-.37.102"/>
        <path fill="#000" d="M97.393 52.859l.215-.086v-.82l.31-.115v-.387l-.31.111v-.42l-.215.076v.426l-.312.108v.392l.312-.11v.825zm.295 0L97.31 53v-.824l-.31.113v-.615l.31-.116v-.421l.378-.137v.421l.312-.115v.615l-.312.118v.82z"/>
        <path fill="#25A4C4" d="M98.746 52.8c0 .41-.336.837-.744.947-.414.108-.748-.144-.748-.558 0-.41.334-.824.748-.934.408-.112.744.132.744.544"/>
        <path fill="#000" d="M97.501 53.076c-.243.063-.44.3-.44.535 0 .233.197.374.44.313.242-.06.437-.305.437-.538 0-.234-.195-.37-.437-.31zm0 .908c-.278.07-.501-.094-.501-.36 0-.265.223-.536.501-.607.275-.071.499.084.499.353 0 .264-.224.544-.499.614z"/>
        <path fill="#D63A3A" d="M87.07 63.588c-.526-.342-1.072-.258-1.072-.258s-.542-.072-1.07.282c-.445-.128-.928.23-.928.23l.057.316.18.216.098.15.3.14c.91.028 1.82.016 2.73-.03l.3-.148.098-.154.18-.22.057-.318s-.483-.346-.93-.206"/>
        <path fill="#000" d="M84.628 63.942c.913.037 1.829.023 2.743-.046l.297-.214.095-.21.182-.312.055-.441c-.052-.052-.387-.367-.742-.335l-.177.043h-.01a1.356 1.356 0 0 0-.942-.39l-.128.018h-.004l-.126-.006c-.192 0-.57.055-.942.41l-.006.009h-.007l-.176-.04c-.353-.015-.69.308-.74.36l.055.436.178.305.099.211.296.202zm2.727-.007c-.904.072-1.808.08-2.714.043l-.3-.205-.1-.222-.183-.314-.058-.473.006-.009c.003-.003.368-.38.753-.372l.175.043c.51-.496 1.032-.418 1.064-.412.038-.012.558-.098 1.068.369l.175-.04c.385-.03.75.343.751.343l.008.011-.062.48-.179.317-.097.222-.307.219z"/>
        <path fill="#F5B400" d="M88 64.785c0-.104-.894-.152-2.001-.142-1.105.008-1.999.068-1.999.174l.137.076.052.206-.092.054c0 .104.846.216 1.883.204 1.04-.004 1.88-.126 1.88-.234l-.07-.048.054-.21.156-.08"/>
        <path fill="#000" d="M85.997 66.027c-1.18.008-1.997.08-1.997.162l.125.064.01.004.058.222-.014.002-.081.044c0 .086.772.202 1.88.194 1.109-.01 1.88-.14 1.88-.222l-.062-.04h-.01l.056-.23.011-.002.147-.068c0-.09-.823-.142-2.003-.13zm-.02.718c-.912.008-1.884-.082-1.884-.218l.088-.066-.042-.184-.139-.086c0-.132 1.027-.18 1.996-.19.971-.008 2.004.024 2.004.154l-.16.094-.045.192.064.056c0 .134-.97.24-1.882.248z"/>
        <path fill="#D63A3A" d="M86 64.963c0 .074-.446.158-1 .164-.553.012-1-.066-1-.132 0-.072.447-.116 1-.122.554-.006 1 .026 1 .09"/>
        <path fill="#000" d="M85 66.03c-.611.01-.993.055-1 .105.007.044.389.13 1 .122.611-.01.997-.1 1-.148-.003-.048-.389-.09-1-.08zm.002.254c-.402.01-1.002-.048-1.002-.148 0-.104.6-.128 1.002-.136.4-.002.998.002.998.104 0 .106-.598.176-.998.18z"/>
        <path fill="#F5B400" d="M87.912 63.788c-.142-.22-.442-.292-.891-.228l-.05-.072c-.168-.184-.496-.184-.97-.008-.475-.168-.802-.154-.97.038l-.048.066c-.45-.048-.751.03-.895.246-.202.318.006.802.015.822l.089-.048c0-.004-.19-.44-.02-.702.116-.182.373-.25.764-.212-.09.298.043.684.05.708l.097-.026c0-.006-.185-.542.02-.78.14-.156.461-.156.898-.006.436-.164.757-.174.898-.018.205.234.02.772.018.778l.096.028c.008-.024.142-.416.051-.714.391-.046.648.014.764.194.17.262-.018.7-.02.706l.09.044c.008-.02.216-.502.014-.816"/>
        <path fill="#000" d="M87.836 64.917l.069.023c.03-.06.193-.378.007-.588-.138-.162-.437-.216-.886-.173h-.007l-.003-.003-.05-.048c-.085-.073-.222-.11-.399-.103a2.331 2.331 0 0 0-.565.096l-.002.003-.003-.003a2.403 2.403 0 0 0-.565-.084c-.177-.005-.312.036-.401.11l-.046.047-.003.006h-.01c-.446-.034-.745.024-.885.183-.184.215-.024.533.009.593l.07-.024c-.032-.059-.176-.347-.017-.531.12-.138.383-.19.782-.164h.014l-.003.014c-.082.204.022.465.047.517l.075-.016c-.031-.066-.17-.417.023-.582l.356-.093c.153 0 .34.027.557.085.216-.058.401-.091.558-.094l.355.084c.192.163.053.517.026.58l.073.012c.024-.048.13-.313.047-.51l-.005-.013h.016c.398-.04.662.01.78.145.159.183.015.474-.014.531zm.056.047l-.11-.04.003-.01c.004-.001.188-.325.022-.519-.11-.127-.356-.174-.733-.14.085.223-.048.512-.054.524l-.003.011-.123-.029.006-.006c.003-.006.182-.4-.016-.57l-.332-.08a2.196 2.196 0 0 0-.549.098h-.005a2.147 2.147 0 0 0-.547-.09l-.334.09c-.198.168-.018.564-.016.57l.007.008-.122.028-.004-.009c-.007-.01-.138-.3-.055-.523-.377-.026-.621.022-.735.153-.165.192.02.514.024.519l.003.007-.11.044-.005-.01c-.01-.014-.22-.38-.014-.622.144-.165.444-.228.89-.193l.047-.045c.09-.08.23-.117.413-.117.153 0 .344.03.561.085.216-.06.405-.091.56-.097.182-.008.32.033.414.11l.045.046c.449-.044.75.012.89.175.205.239-.002.608-.013.623l-.005.009z"/>
        <path fill="#F5B400" d="M85.169 63.996c0 .536-.078.97-.17.976-.094 0-.168-.434-.168-.97s.074-.974.168-.974c.092 0 .17.434.17.968"/>
        <path fill="#000" d="M85.184 63.026c-.074 0-.156.403-.156.977 0 .572.082.97.156.97.072 0 .152-.404.152-.976 0-.576-.08-.97-.152-.97zM85.182 65c-.12 0-.182-.515-.182-.995 0-.49.062-1.005.182-1.005.116-.006.182.513.182.997 0 .488-.066 1.001-.182 1.003z"/>
        <path fill="#F5B400" d="M83.341 65.287l-.298-.216.09-.064.222.172.118-.124.028-.068.06.044.212.064.116-.202.032-.164.072.15.164.166h.002l.218-.192.044-.078.048.078.198.118.178-.258h.112l-.26.362-.27-.096-.272.178-.192-.116-.154.158-.26-.042-.178.13h-.03"/>
        <path fill="#000" d="M83.034 64.376l.315.206.173-.132.006-.01.012.008.18.056.077-.012.15-.156.009-.018.014.018.19.112h.002l.265-.172.01-.016.01.016.202.1.062-.008.255-.334h-.084l-.194.258-.22-.134-.037-.052-.035.06-.234.2-.184-.17-.057-.116-.023.122-.13.214-.049.008-.183-.074-.045-.044-.02.06-.135.134-.234-.166-.068.042zm.291.24l-.317-.23-.008-.01.113-.078.008.014.216.164.114-.118.033-.084.076.06.164.064.04-.006.113-.19.039-.202.094.186.155.156.212-.186.057-.098.064.096.187.116.173-.244v-.01l.142-.004v.012l-.274.38-.072.004-.21-.1-.277.174h-.004l-.194-.106-.156.148-.089.014-.179-.056-.189.134h-.03z"/>
        <path fill="#F5B400" d="M86.668 65.273h-.028l-.186-.134-.264.048-.154-.156-.192.124h-.004l-.266-.174-.272.106-.258-.358h.112l.176.252.2-.128.048-.076.046.082.214.186h.004l.162-.17.074-.148.032.158.118.202.208-.07.06-.046.026.068.13.12.216-.162.086.06-.288.216"/>
        <path fill="#000" d="M86.47 64.418l.008.016.185.122.304-.196-.07-.048-.224.16-.146-.13-.02-.052-.046.038-.182.074-.05-.006-.127-.212-.025-.116-.057.112-.18.18-.236-.196-.035-.058-.039.054-.218.134-.193-.25h-.086l.257.326.06.01.2-.106.013-.014.01.014.264.168h.004l.189-.118.014-.018.008.022.15.148.077.01.18-.058.01-.01zm.213.182h-.028l-.198-.124-.183.056-.088-.012-.152-.142-.197.112h-.005l-.275-.17-.212.106-.07-.006-.275-.372v-.01l.142-.004v.012l.175.242.185-.122.063-.102.058.106.21.176.158-.16.094-.186.037.202.115.186.037.008.165-.072.076-.064.035.086.123.118.206-.16.01-.008.111.076-.008.008-.309.22z"/>
        <path fill="#F5B400" d="M85.144 64.072l-.288.116v-.376l.272.146.016.114"/>
        <path fill="#000" d="M85.03 64.045v.336l.258-.106-.012-.1-.246-.13zm-.03.381V64l.3.156.018.138-.318.132z"/>
        <path fill="#F5B400" d="M84.886 63.943l.262-.132v.378l-.296-.132.034-.114"/>
        <path fill="#000" d="M85.032 64.26l.264.12v-.336l-.236.118-.028.098zm.296.164L85 64.276l.042-.128.286-.148v.424z"/>
        <path fill="#F5B400" d="M84.927 64.126l-.116-.246.378-.006-.14.25-.122.002"/>
        <path fill="#000" d="M85.149 64.251h.104l.126-.224-.334.006.104.218zm.119.027h-.138l-.13-.27.424-.008-.156.278z"/>
        <path fill="#D63A3A" d="M85.103 63.997l-.102.106-.104-.106.104-.1.102.1"/>
        <path fill="#000" d="M85.118 64.234L85 64.122l.118-.122.116.118z"/>
        <path fill="#F5B400" d="M86.151 64.118l-.306.068.07-.372.24.186-.004.118"/>
        <path fill="#000" d="M86.093 64.045l-.062.33.272-.062.008-.102-.218-.166zM86 64.42l.078-.42.264.206-.008.134-.334.08z"/>
        <path fill="#F5B400" d="M85.886 63.902l.282-.09-.07.376-.266-.182.054-.104"/>
        <path fill="#000" d="M86.034 64.207l.238.17.062-.336-.254.078-.046.088zm.256.211l-.29-.202.062-.12.306-.096-.078.418z"/>
        <path fill="#F5B400" d="M85.881 64.119l-.066-.26.37.056-.186.226-.118-.022"/>
        <path fill="#000" d="M86.106 64.263l.102.018.164-.202-.326-.048.06.232zm.108.049l-.138-.022L86 64l.418.058-.204.254z"/>
        <path fill="#D63A3A" d="M86.102 64.016l-.12.086-.084-.116.122-.088.082.118"/>
        <path fill="#000" d="M86.116 64.232h-.024l-.074-.044L86 64.1l.116-.1h.022l.074.048.018.084z"/>
        <path fill="#F5B400" d="M87.132 64.183l-.306-.024.182-.342.166.248-.042.118"/>
        <path fill="#000" d="M86.074 64.344l.548.02.08-.096-.304-.23-.324.306zm.602.058L86 64.376l.412-.376.364.272-.1.13z"/>
        <path fill="#F5B400" d="M86.826 64.111l.018-.274.33.164-.244.162-.104-.052"/>
        <path fill="#000" d="M88.043 64.284l.09.042.218-.146-.292-.14-.016.244zm.077.082l-.12-.06.022-.306.372.186-.274.18z"/>
        <path fill="#D63A3A" d="M87.092 64.09l-.144.1-.04-.288.142-.092.042.28"/>
        <path fill="#000" d="M88.114 64.232l-.058-.01-.056-.068.012-.09.102-.064.058.01.056.066-.012.094z"/>
        <path fill="#F5B400" d="M83.851 64.121l.304.064-.07-.37-.24.19.006.116"/>
        <path fill="#000" d="M84.037 64.314l.274.058-.062-.328-.216.172.004.098zm.307.102l-.336-.074L84 64.21l.266-.21.078.416z"/>
        <path fill="#F5B400" d="M84.114 63.897l-.282-.082.072.37.264-.186-.054-.102"/>
        <path fill="#000" d="M84.036 64.042l.064.334.236-.17-.046-.084-.254-.08zm.044.376L84 64l.31.094.062.118-.292.206z"/>
        <path fill="#F5B400" d="M84.118 64.125l.068-.268-.372.066.186.22.118-.018"/>
        <path fill="#000" d="M84.046 64.092l.164.194.102-.02.06-.232-.326.058zm.16.228L84 64.072l.418-.072-.076.294-.136.026z"/>
        <path fill="#D63A3A" d="M83.898 64.018l.12.084.084-.118-.122-.086-.082.12"/>
        <path fill="#000" d="M84.116 64.236L84 64.144l.018-.094.076-.05h.022l.116.096-.02.09-.074.05z"/>
        <path fill="#F5B400" d="M83.869 64.18l.306-.026-.184-.334-.166.254.044.106"/>
        <path fill="#000" d="M83.037 64.27l.038.096.278-.024-.164-.302-.152.23zm.015.136L83 64.278l.184-.278.206.374-.338.032z"/>
        <path fill="#F5B400" d="M84.176 64.11l-.02-.276-.332.17.248.162.104-.056"/>
        <path fill="#000" d="M83.04 64.183l.22.144.088-.044-.016-.246-.292.146zm.232.181L83 64.19l.368-.19.02.306-.116.058z"/>
        <path fill="#D63A3A" d="M83.909 64.084l.142.096.04-.276-.142-.084-.04.264"/>
        <path fill="#000" d="M83.112 64.238l-.102-.062-.01-.09.056-.07.056-.016.104.07.01.088-.056.07z"/>
        <path fill="#F5B400" d="M85.051 61.89v-.102h-.102v.102h-.102v.126l.102-.002v.198h.102v-.198l.102-.004v-.122l-.102.002"/>
        <path fill="#000" d="M85.132 62.424h.07v-.202l.106-.002v-.09h-.106v-.1h-.07v.1h-.104v.096h.104v.198zm.098.024l-.128.006v-.2H85v-.15h.102V62h.128v.104l.106-.002v.152h-.106v.194z"/>
        <path fill="#25A4C4" d="M85.21 62.998l-.208.212-.212-.204.212-.216.208.208"/>
        <path fill="#000" d="M85.225 62.054l-.198.408.198.384.196-.4-.196-.392zm-.001.846L85 62.452l.224-.452.224.436-.224.464z"/>
        <path fill="#D63A3A" d="M112.07 56.319c-.526-.273-1.07.272-1.07.272s-.542.25-1.07 1.298c-.447.11-.93 1.132-.93 1.132l.059.524.18.247.098.183.3.025a219.9 219.9 0 0 0 2.727-2l.299-.463.1-.326.18-.509.057-.606s-.485-.326-.93.223"/>
        <path fill="#000" d="M109.63 60a265.01 265.01 0 0 0 2.743-2.024l.293-.458.1-.327.179-.516.055-.59c-.051-.025-.387-.21-.74.059l-.179.167-.004.011-.006-.004c-.371-.185-.749.026-.941.171l-.128.102H111l-.128.084c-.19.145-.572.487-.943 1.228l-.004.004h-.004l-.181.098c-.351.25-.687.927-.74 1.028l.06.51.176.246.098.186.295.025zm2.727-1.976c-.905.666-1.811 1.335-2.718 1.976l-.3-.018-.1-.19-.179-.238-.06-.542.006-.01c.003-.011.368-.776.75-1.049l.179-.085c.507-.991 1.032-1.271 1.064-1.278.036-.043.557-.528 1.066-.276l.177-.174a.67.67 0 0 1 .75-.046H113l-.06.627-.18.513-.099.33-.304.46z"/>
        <path fill="#F5B400" d="M112 58.27c0-.107-.894.07-2.001.387-1.105.318-1.999.658-1.999.762l.135.032.05.188-.09.086c0 .11.845-.042 1.885-.34 1.037-.296 1.88-.634 1.88-.742l-.07-.03.051-.222.159-.12"/>
        <path fill="#000" d="M109.999 58.869c-1.178.646-1.999 1.27-1.999 1.436l.125.042h.011l.057.399-.016.012-.076.139c0 .162.766-.066 1.879-.681 1.11-.616 1.879-1.231 1.879-1.39l-.063-.05h-.01l.056-.469.014-.007.144-.202c0-.162-.824.109-2.001.77zm-.018 1.403c-.912.51-1.882.905-1.882.646l.09-.186-.048-.325-.141-.081c0-.263 1.032-.964 2-1.514.97-.545 2-.998 2-.735l-.16.255-.045.395.066.078c0 .259-.965.948-1.88 1.467z"/>
        <path fill="#D63A3A" d="M112 58.52c0 .07-.894.346-2.003.61-1.097.268-1.997.42-1.997.35 0-.068.9-.34 1.997-.604 1.11-.266 2.003-.428 2.003-.356"/>
        <path fill="#000" d="M109.995 58.39c-1.218.29-1.985.527-1.995.577.01.045.777-.065 1.995-.35 1.225-.286 1.995-.534 2.005-.585-.01-.042-.78.076-2.005.358zm.002.252c-.8.194-1.997.438-1.997.332 0-.098 1.196-.415 1.997-.61.807-.19 2.003-.443 2.003-.34 0 .1-1.196.429-2.003.618z"/>
        <path fill="#F5B400" d="M112.888 57.081c-.175-.13-.55-.104-1.112.082l-.061-.038c-.211-.097-.619.003-1.214.296-.594.028-1.004.146-1.217.357l-.059.07c-.563.117-.937.292-1.114.517-.253.322.005.624.016.635l.113-.066c-.002-.005-.238-.278-.027-.55.145-.18.469-.33.956-.438-.111.264.056.524.063.54l.125-.055c-.005-.005-.238-.362.02-.618.175-.177.575-.284 1.124-.306.548-.272.949-.379 1.123-.3.258.12.025.6.023.606l.12-.01c.011-.017.179-.368.065-.572.49-.156.811-.18.956-.071.21.154-.023.553-.027.555l.113.013c.01-.022.27-.461.014-.647"/>
        <path fill="#000" d="M112.793 57.704l.087.007c.04-.074.241-.459.011-.631-.175-.13-.549-.101-1.11.084l-.008.002-.005-.005-.06-.035c-.11-.05-.275-.048-.498.013a4.096 4.096 0 0 0-.704.284l-.007.003h-.004c-.276.011-.51.047-.704.1-.224.06-.39.146-.5.257l-.059.068-.006.008h-.01c-.56.12-.934.293-1.109.516-.228.297-.027.577.014.625l.082-.048c-.037-.051-.214-.305-.016-.56.148-.19.478-.344.975-.453l.02-.006-.006.016c-.105.243.031.485.056.53l.096-.043c-.036-.06-.21-.385.03-.63l.444-.217c.196-.053.428-.086.697-.097.269-.138.506-.23.697-.283l.445-.02c.241.11.066.531.031.611l.092-.008c.03-.062.164-.374.061-.562l-.009-.013.023-.005c.494-.163.822-.187.973-.073.198.145.02.495-.019.565zm.073.036l-.14-.011.004-.013c.005-.003.235-.39.03-.54-.138-.102-.448-.08-.916.067.101.205-.063.548-.07.56l-.004.01-.151.013.004-.013c.005-.007.232-.474-.018-.584l-.416.017a4.04 4.04 0 0 0-.682.275l-.007.003h-.004c-.264.01-.495.039-.684.091l-.417.202c-.247.244-.02.593-.02.596l.009.01-.153.07-.005-.008c-.006-.013-.173-.263-.07-.523-.467.102-.778.243-.915.42-.205.26.027.522.027.525l.006.01-.14.083-.004-.008c-.009-.01-.276-.312-.018-.636.176-.227.552-.4 1.114-.517l.057-.065c.117-.114.288-.204.517-.263.194-.05.428-.082.7-.097.273-.132.509-.226.702-.277.228-.06.401-.066.516-.014l.056.034c.563-.181.938-.204 1.114-.076.257.188-.007.629-.016.648l-.006.01z"/>
        <path fill="#F5B400" d="M110.168 57.936c0 .534-.074.998-.168 1.032-.094.04-.168-.368-.168-.9 0-.538.074-1.002.168-1.036.094-.038.168.368.168.904"/>
        <path fill="#000" d="M111.183 57.029c-.072.032-.154.461-.154 1.033 0 .569.082.938.154.91.072-.031.154-.46.154-1.032 0-.571-.082-.938-.154-.911zm.001 1.968c-.118.048-.184-.444-.184-.926 0-.482.066-1.02.184-1.068.12-.048.182.444.182.924 0 .486-.062 1.025-.182 1.07z"/>
        <path fill="#F5B400" d="M109.342 59.606l-.298-.102.088-.096.222.084.12-.176.028-.084.058.026.212-.022.116-.25.032-.176.074.122.164.1.218-.276.044-.098.048.058.198.042.178-.32.112-.044-.258.46-.27.006-.272.28-.194-.038-.15.224-.264.06-.176.208-.03.012"/>
        <path fill="#000" d="M109.035 58.814l.316.125.173-.318.006-.02h.01l.18-.025.078-.065.15-.34.008-.042.014.022.19.061h.001l.266-.437.012-.029.01.016.2.039.063-.049.253-.69-.084.057-.193.52-.218-.063-.04-.078-.032.12-.237.462-.183-.167-.053-.141-.027.209-.13.424-.049.042-.18-.006-.048-.033-.02.106-.134.3-.232-.116-.07.116zm.292.186l-.319-.154-.008-.016.115-.2.008.013.214.125.113-.254.033-.17.076.055.165.006.04-.035.112-.38.04-.35.093.238.156.157.212-.42.056-.203.065.115.188.078.172-.496v-.019L111 57v.026l-.275.762-.072.06-.21-.038-.278.447h-.002l-.195-.045-.158.328-.086.08-.18.033-.184.328-.033.019z"/>
        <path fill="#F5B400" d="M112.666 58.021l-.026.01-.188-.066-.262.142-.152-.106-.194.19-.004.002-.268-.076-.27.206-.26-.258.112-.044.178.186.196-.198.052-.1.042.068.218.106.166-.228.072-.178.03.152.12.158.212-.138.056-.07.028.056.132.078.212-.236.09.032-.292.312"/>
        <path fill="#000" d="M112.471 57.294l.01.008.186.066.3-.298-.066-.022-.224.234-.148-.082-.02-.048-.046.054-.181.136-.05.01-.13-.162-.024-.114-.055.132-.183.242-.235-.112-.035-.048-.04.076-.217.204-.194-.18-.086.034.257.234.062-.012.201-.18.013-.016.008.01.266.072h.002l.189-.186.014-.02.01.016.149.102.078-.018.181-.12.008-.012zm.212.108l-.027.01-.2-.062-.18.12-.087.014-.156-.086-.196.176h-.004l-.277-.066-.21.178-.07.02-.276-.27v-.012l.142-.056v.016l.173.174.187-.186.064-.12.057.08.21.104.159-.214.092-.222.04.186.11.156.042-.01.164-.124.074-.088.035.072.126.076.204-.226.01-.016.111.04-.008.014-.309.322z"/>
        <path fill="#F5B400" d="M110.144 57.924l-.288.46v-.768l.274.08.014.228"/>
        <path fill="#000" d="M110.058 58.043v.338l.516-.204-.024-.096-.492-.038zm-.058.381V58l.6.044.032.128-.632.252z"/>
        <path fill="#F5B400" d="M109.886 58.042l.262-.232v.38l-.296-.024.034-.124"/>
        <path fill="#000" d="M111.03 58.355l.266.026v-.338l-.236.208-.03.104zm.296.069l-.326-.026.038-.146.288-.252v.424z"/>
        <path fill="#F5B400" d="M109.928 58.173l-.118-.2.38-.146-.14.3-.122.046"/>
        <path fill="#000" d="M111.15 58.347l.104-.036.124-.268-.332.126.104.178zm.116-.011l-.136.054-.13-.226.424-.164-.158.336z"/>
        <path fill="#D63A3A" d="M110.104 57.958l-.104.146-.104-.068.104-.14.104.062"/>
        <path fill="#000" d="M111.118 58.234l-.118-.072.118-.162.118.068z"/>
        <path fill="#F5B400" d="M112.147 58.022l-.302.178.07-.4.24.1-.008.122"/>
        <path fill="#000" d="M111.186 58.046l-.124.356.548-.162.012-.1-.436-.094zm-.186.402l.16-.448.524.112-.016.138-.668.198z"/>
        <path fill="#F5B400" d="M111.886 57.988l.28-.188-.07.4-.262-.092.052-.12"/>
        <path fill="#000" d="M112.036 58.319l.234.084.064-.358-.252.172-.046.102zm.256.129l-.292-.1.062-.142.308-.206-.078.448z"/>
        <path fill="#F5B400" d="M111.882 58.158l-.068-.24.372-.076-.188.294-.116.022"/>
        <path fill="#000" d="M112.107 58.315l.1-.024.166-.256-.33.066.064.214zm.105.009l-.134.026-.078-.266.416-.084-.204.324z"/>
        <path fill="#D63A3A" d="M112.102 57.982l-.122.128-.082-.088.12-.132.084.092"/>
        <path fill="#000" d="M112.116 58.242l-.022.004-.078-.018-.016-.082.116-.142.022-.004.076.02.016.08z"/>
        <path fill="#F5B400" d="M112.266 58.116l-.616.086.368-.404.332.194-.084.124"/>
        <path fill="#000" d="M112.038 58.404l.278-.074.036-.108-.15-.176-.164.358zm.302-.046l-.34.092.208-.45.182.214-.05.144z"/>
        <path fill="#F5B400" d="M112.825 58.132l.02-.282.33.058-.246.242-.104-.018"/>
        <path fill="#000" d="M113.042 58.283l.092.014.218-.214-.29-.046-.02.246zm.078.051l-.12-.018.024-.316.37.064-.274.27z"/>
        <path fill="#D63A3A" d="M113.091 58.014l-.142.098-.04-.13.142-.094.04.126"/>
        <path fill="#000" d="M113.112 58.244l-.058.008-.054-.05.012-.092.1-.104.06-.006.054.05-.01.094z"/>
        <path fill="#F5B400" d="M109.85 59.199l.306-.054-.072-.344-.24.284.006.114"/>
        <path fill="#000" d="M109.036 58.401l.276-.05-.062-.308-.218.262.004.096zm.308-.021l-.336.064-.008-.132.264-.312.08.38z"/>
        <path fill="#F5B400" d="M110.114 58.813l-.282.032.07.342.266-.292-.054-.082"/>
        <path fill="#000" d="M109.034 59.073l.064.302.238-.262-.05-.068-.252.028zm.044.347l-.078-.386.308-.034.062.094-.292.326z"/>
        <path fill="#F5B400" d="M110.116 59.113l.07-.292-.372.212.184.146.118-.066"/>
        <path fill="#000" d="M109.086 58.456l.328.26.2-.12.128-.512-.656.372zm.318.344l-.404-.328.828-.472-.152.652-.272.148z"/>
        <path fill="#D63A3A" d="M109.897 59.052l.124.042.082-.154-.124-.034-.082.146"/>
        <path fill="#000" d="M109.116 59.236l-.116-.054.018-.094.076-.078.024-.01.114.052-.016.096-.076.076z"/>
        <path fill="#F5B400" d="M108.868 59.207l.308-.154-.186-.26-.166.32.044.094"/>
        <path fill="#000" d="M109.037 58.338l.038.078.278-.138-.164-.23-.152.29zm.013.126l-.05-.108.184-.356.206.29-.34.174z"/>
        <path fill="#F5B400" d="M109.174 59.084l-.02-.264-.328.304.244.056.104-.096"/>
        <path fill="#000" d="M108.084 59.315l.436.05.18-.088-.036-.236-.58.274zm.464.091l-.548-.06.744-.346.04.296-.236.11z"/>
        <path fill="#D63A3A" d="M108.909 59.17l.144-.028.038-.312-.142.028-.04.312"/>
        <path fill="#000" d="M109.116 59.24l-.104-.022-.012-.088.058-.092.058-.038.102.022.01.086-.056.092z"/>
        <path fill="#F5B400" d="M110.052 56.871v-.102l-.104.034v.108l-.102.036v.124l.102-.042v.202l.104-.038v-.202l.102-.042v-.118l-.102.04"/>
        <path fill="#000" d="M111.133 56.462l.07-.034v-.2l.106-.034v-.098l-.106.04v-.1l-.07.024v.108l-.106.038v.092l.106-.036v.2zm.099-.012l-.128.048V56.3l-.104.04v-.148l.104-.044v-.1l.128-.048v.1l.104-.038v.15l-.104.036v.202z"/>
        <path fill="#25A4C4" d="M110.21 56.918l-.21.292-.21-.128.21-.292.21.128"/>
        <path fill="#000" d="M111.226 57.025l-.198.276.198.122.194-.274-.194-.124zm-.002.423l-.224-.136.224-.312.224.14-.224.308z"/>
        <path fill="#F02422" d="M172 42.605c-37-29.08-74 29.08-111 0v-18.21c37 29.077 74-29.08 111 0v18.21M172 98.604c-37-29.08-74 29.083-111 0V80.396c37 29.08 74-29.083 111 0v18.208"/>
    </g>
</svg>
