<svg xmlns="http://www.w3.org/2000/svg" width="400" height="228" viewBox="0 0 400 228">
    <g fill="none" fill-rule="evenodd">
        <path fill="#DAD6C4" d="M203.333 110.111l.474.128 8.719 5.127c.453.267.609.854.347 1.315a.939.939 0 0 1-1.292.351l-8.718-5.126a.969.969 0 0 1-.348-1.313.941.941 0 0 1 .818-.482zm-16.508-9.4l.473.128 8.722 5.127c.451.267.607.854.345 1.315a.936.936 0 0 1-1.289.351l-8.722-5.126a.97.97 0 0 1-.347-1.313.941.941 0 0 1 .818-.482zM169.14 90.136l.47.128 8.722 5.128a.97.97 0 0 1 .347 1.313.936.936 0 0 1-1.291.35l-8.722-5.127a.97.97 0 0 1-.347-1.312.95.95 0 0 1 .82-.48zm-17.688-9.4l.47.129 8.723 5.128a.97.97 0 0 1 .347 1.313.94.94 0 0 1-1.291.351l-8.722-5.128a.97.97 0 0 1-.345-1.313.944.944 0 0 1 .818-.48zm-16.508-10.575l.473.129 8.72 5.128c.453.264.609.854.347 1.313a.937.937 0 0 1-1.291.35l-8.72-5.127a.969.969 0 0 1-.347-1.313.944.944 0 0 1 .818-.48zM130.333 189.111l.474.128 8.719 5.127c.453.267.609.854.347 1.315a.939.939 0 0 1-1.292.351l-8.718-5.126a.969.969 0 0 1-.348-1.313.941.941 0 0 1 .818-.482zm-16.508-9.4l.473.128 8.722 5.127c.451.267.607.854.345 1.315a.936.936 0 0 1-1.289.351l-8.722-5.126a.97.97 0 0 1-.347-1.313.941.941 0 0 1 .818-.482zM96.14 169.136l.47.128 8.722 5.128a.97.97 0 0 1 .347 1.313.936.936 0 0 1-1.291.35l-8.722-5.127a.97.97 0 0 1-.347-1.312.95.95 0 0 1 .82-.48zm-17.688-9.4l.47.129 8.723 5.128a.97.97 0 0 1 .347 1.313.94.94 0 0 1-1.291.351l-8.722-5.128a.97.97 0 0 1-.345-1.313.944.944 0 0 1 .818-.48zm-16.508-10.575l.473.129 8.72 5.128c.453.264.609.854.347 1.313a.937.937 0 0 1-1.291.35l-8.72-5.127a.969.969 0 0 1-.347-1.313.944.944 0 0 1 .818-.48zM291.333 162.111l.474.128 8.719 5.127c.453.267.609.854.347 1.315a.939.939 0 0 1-1.292.351l-8.718-5.126a.969.969 0 0 1-.348-1.313.941.941 0 0 1 .818-.482zm-16.508-9.4l.473.128 8.722 5.127c.451.267.607.854.345 1.315a.936.936 0 0 1-1.289.351l-8.722-5.126a.97.97 0 0 1-.347-1.313.941.941 0 0 1 .818-.482zm-17.684-10.575l.47.128 8.722 5.128a.97.97 0 0 1 .347 1.313.936.936 0 0 1-1.291.35l-8.722-5.127a.97.97 0 0 1-.347-1.312.95.95 0 0 1 .82-.48zm-17.688-9.4l.47.129 8.723 5.128a.97.97 0 0 1 .347 1.313.94.94 0 0 1-1.291.351l-8.722-5.128a.97.97 0 0 1-.345-1.313.944.944 0 0 1 .818-.48zm-16.508-10.575l.473.129 8.72 5.128c.453.264.609.854.347 1.313a.937.937 0 0 1-1.291.35l-8.72-5.127a.969.969 0 0 1-.347-1.313.944.944 0 0 1 .818-.48zM362.825 203.711l.473.128 8.722 5.127c.451.267.607.854.345 1.315a.936.936 0 0 1-1.289.351l-8.722-5.126a.97.97 0 0 1-.347-1.313.941.941 0 0 1 .818-.482zm-17.684-10.575l.47.128 8.722 5.128a.97.97 0 0 1 .347 1.313.936.936 0 0 1-1.291.35l-8.722-5.127a.97.97 0 0 1-.347-1.312.95.95 0 0 1 .82-.48zm-17.688-9.4l.47.129 8.723 5.128a.97.97 0 0 1 .347 1.313.94.94 0 0 1-1.291.351l-8.722-5.128a.97.97 0 0 1-.345-1.313.944.944 0 0 1 .818-.48zm-16.035-10.446l8.72 5.128c.453.264.609.854.347 1.313a.937.937 0 0 1-1.291.35l-8.72-5.127a.969.969 0 0 1-.347-1.313.944.944 0 0 1 .818-.48l.473.129zM399.855 227l-1.931-1.135-.471-.129a.944.944 0 0 0-.818.48.972.972 0 0 0-.08.784h3.3zm-18.437-11.71l-.473-.129a.944.944 0 0 0-.818.48.969.969 0 0 0 .347 1.313l8.72 5.128a.937.937 0 0 0 1.29-.351.969.969 0 0 0-.346-1.313l-8.72-5.128zM96.53 227l-5.606-3.297-.471-.128a.944.944 0 0 0-.818.48.97.97 0 0 0 .345 1.312L92.756 227h3.775zm-22.585-14a.944.944 0 0 0-.818.48.969.969 0 0 0 .347 1.312l8.72 5.129a.937.937 0 0 0 1.29-.352.969.969 0 0 0-.346-1.313l-8.72-5.128-.473-.128zM43.333 138.95l.474.128 8.719 5.127c.453.267.609.854.347 1.315a.939.939 0 0 1-1.292.351l-8.718-5.127a.969.969 0 0 1-.348-1.312.941.941 0 0 1 .818-.482zm-16.508-9.4l.473.128 8.722 5.127c.451.267.607.854.345 1.315a.936.936 0 0 1-1.289.351l-8.722-5.127a.97.97 0 0 1-.347-1.312.941.941 0 0 1 .818-.482zM9.14 118.975l.47.128 8.722 5.128a.97.97 0 0 1 .347 1.312.936.936 0 0 1-1.291.351l-8.722-5.127a.97.97 0 0 1-.347-1.313.95.95 0 0 1 .82-.479zm-17.688-9.4l.47.128 8.723 5.129a.97.97 0 0 1 .347 1.313.94.94 0 0 1-1.291.351l-8.722-5.129a.97.97 0 0 1-.345-1.312.944.944 0 0 1 .818-.48zM-25.055 99l.473.128 8.72 5.128c.453.265.609.854.347 1.313a.937.937 0 0 1-1.291.352l-8.72-5.129a.969.969 0 0 1-.347-1.313.944.944 0 0 1 .818-.479z"/>
        <path fill="#D9945B" d="M202.147 25.122c.327 3.116-.147 5.677-.147 5.677l3.382 5.272 6.433 3.066 5.55-1.833.635-6.694-1.604-5.067-7.653-2.053s-6.92-1.483-6.596 1.632"/>
        <path fill="#ECF5F7" d="M222.494 27.151c3.058-.476 17.755 11.464 19.15 16.008 1.394 4.541-1.5 27.194-5.319 31.281-3.036 3.242-8.02 2.656-8.02 2.656l-2.375-7.59 2.376-19.078-6.288-17.913s-2.581-4.89.476-5.364"/>
        <path fill="#BCBEC0" d="M231 69.17c5.52-.591 1.733 6.967 1.733 6.967s2.056-5.42-1.733-6.967M229 50.137s5.946-6.234 11-.729c-7.067-2.573-11 .73-11 .73"/>
        <path fill="#000" d="M225.853 163.137s4.577 4.76 8.355 6.324c3.704 1.53 3.41 4 .94 5.365-3.41 1.394-7.888-2.258-13.343-3.847-2.556-.746-9.754-.529-11.428-2.586-1.262-3.143 1.048-5.256 1.048-5.256h14.428"/>
        <path fill="#232323" d="M207 103.575s3.555 17.29 3.19 26.213c-.748 3.327-1.262 4.94-1.843 8.176-.577 3.237.817 18.52 0 30.504 10.195 2.132 16.353-1.219 17.312-4.582-4.69-11.401-2.231-36.67-2.231-36.67s7.028-25.26 5.298-44.902c0-2.44-21.726 21.26-21.726 21.26"/>
        <path fill="#000" d="M209 118.137s1.963-22.711 16-25c-2.619 5.874-4.827 8.386-10.447 13.277-.59 3.506-5.553 11.723-5.553 11.723"/>
        <path fill="#232323" d="M197.166 85.36s-2.174 2.482-3.532 7.523c-1.358 5.035-.482 10.327-1.19 14.74-.71 4.414-2.103 25.285-3.4 28.025-1.295 2.732-3.393 6.534-4.806 12.99-1.413 6.464-3.225 26.817-3.225 31.94-.262 7.85 3.418 8.56 3.418 8.56s1.609-3.566 5.248-4.276c3.643-.714 5.781 2.59 7.013 2.135 1.816-.386-2.075-18.669 4.923-46.296 2.058-6.011 12.313-35.986 12.313-35.986S225.074 96.743 230 82.148c-.518-2.01-13.303-2.01-13.303-2.01l-19.53 5.222"/>
        <path fill="#000" d="M195.954 185.242s2.763 9.948-.693 10.693c-7.53 1.555-11.261-6.363-11.261-6.363l2.489-7.435h6.976l2.489 3.105"/>
        <path fill="#ECF5F7" d="M200 32.366s.217-4.494 1.66-4.216c3.34 6.731 13.122 8.825 13.122 8.825s1.856 6.266-5.26 3.422c-7.113-2.852-9.522-8.03-9.522-8.03"/>
        <path fill="#ECF5F7" d="M199 33.822l1.434-1.563s11.546 8.608 14.097 6.908c2.55-1.69.892-7.43.892-7.43l5.717-.6L228 63.551l-2.506 17.08-13.082 4.506-5.91-30.768L199 33.822"/>
        <path fill="#BCBEC0" d="M201 32.137c4.264 9.874 14 7.824 14 7.824s-8.276.593-14-7.824"/>
        <path fill="#ECF5F7" d="M215 37.162s2.422-1.898 1.056-4.415c-.13-1.474 1.359.044 2.323 1.18 2.457 4.272-3.171 7.21-3.171 7.21L215 37.162"/>
        <path fill="#BCBEC0" d="M215 40.137c4.447-.92 3.986-7 3.986-7s-.668 5.104-3.986 7"/>
        <path fill="#000" d="M214 39.11c5.164 3.132 5.36 18.027 5.36 18.027l1.64-.087s-.62-14.733-5.62-18.684c-.52-.523-.914-.095-1.38.744"/>
        <path fill="#000" d="M215.042 39.137S214.967 49.212 220 53.37c-.34.198-1.338.768-1.338.768C214.6 51.176 214 39.731 214 39.731l1.042-.594"/>
        <path fill="#FA5932" d="M200.413 78.05c-.74 1.972-2.51 6.793-3.413 8.574 8.67 8.544 33.227-.628 32.998-5.033-.23-4.405-.264-9.739-1.036-8.175-.77 1.561-20.06 10.909-28.55 4.635"/>
        <path fill="#A62626" d="M218 85.137c11.102-1.522 11-6 11-6s-2.169 4.058-11 6"/>
        <path fill="#A62626" d="M202 83.797c6.924 5.626 20-.66 20-.66s-13.887 4.504-20 .66"/>
        <path fill="#FA5932" d="M212.137 84.137s-5.155 21.338-3.956 21.912c1.196.575 5.17-1.779 5.733-3.313.558-1.526-1.777-18.599-1.777-18.599"/>
        <path fill="#A62626" d="M210 102.137c1.093-.096 5.83-4.948 5.996-7.485.16-2.54-4.582-11.515-4.582-11.515s-.421 8.354-1.414 19"/>
        <path fill="#FA5932" d="M211.42 82.572s.464 7.78-.42 18.565c.971-.097 4.85-4.256 4.996-6.83.144-2.57-4.116-12.17-4.116-12.17l-.46.435"/>
        <path fill="#F0B380" d="M228.326 77.897c1.257 4.84-1.008 10.811 0 11.204 1.014.39 4.812-2.375 5.545-5.602.736-3.228-1.916-8.554-1.916-8.554l-2.126-1.808s-2.755-.074-1.503 4.76"/>
        <path fill="#232323" d="M222.954 27.21c13.501 9.51 7.89 47.916 7.89 47.916s-2.008 3.437-8.177 5.011c-.224-2.855.967-21.408-3.417-36.962 5.859-2.377-2.25-14.069-2.25-14.069s3.009-2.412 5.954-1.896"/>
        <path fill="#FA5932" d="M220 28.342l2.753 3.222 3.653 9.819 1.763 13.465v12.234l-.135 11.055c1.22-.582 2.622-1.93 2.622-1.93L231 57.325l-.657-9.112-1.184-7.933-1.914-6.637-2.345-4.488-2.482-2.645-1.855-.374-.563 2.205"/>
        <path fill="#FFC900" d="M228.56 78.647l-.843.49c.038-.469 3.574-47.271-10.717-51.252l.21-.748c14.91 4.155 11.504 49.566 11.35 51.51"/>
        <path fill="#FFC900" d="M230.473 76.267s-.098.296-.377.505l-.488.365c.042-.46 3.924-46.295-10.608-50.255l.218-.745c15.162 4.136 11.424 48.234 11.255 50.13"/>
        <path fill="#FFC900" d="M221.301 44.287c3.285 7.842 4.383 26.625 3.29 35.39-.495.166-1.03.325-1.613.46-.236-2.866 1.02-21.495-3.604-37.112 6.18-2.387-2.374-14.127-2.374-14.127s.362-.337.909-.73c1.046-.746 9.888 12.152 3.392 16.119"/>
        <path fill="#232323" d="M189.843 40.98s7.725-6.666 9.127-7.843c7.925 3.268 9.091 13.043 16.651 11.474 0 0 4.601 15.187 3.065 37.667-7.624 3.194-20.212 2.5-22.23-3.862-1.559-6.13-3.78-20.187-8.456-26.658.698-4.072 1.843-10.778 1.843-10.778"/>
        <path fill="#FA5932" d="M193 38.644s1.204-.192 3.266.714c2.778 1.19 4.633 4.958 4.633 4.958s2.597 4.465 5.054 14.296l1.606 10.674 1.372 14.771s2.027.286 3.045-.223c.288-12.233-2.084-25.222-2.084-25.222l-2.904-10.842-3.492-6.652-4.05-4.104-3.506-.877-2.94 2.507"/>
        <path fill="#F5B400" d="M198 34.148c.537-.457.952-.814 1.195-1.01 7.836 3.214 8.989 12.831 16.464 11.287 0 0 4.55 14.942 3.03 37.059-.576.239-1.182.454-1.807.653.664-13.004.793-22-2.504-35.63-7.214.516-9.498-10.799-16.378-12.359"/>
        <path fill="#F0B380" d="M220.905 12.34c2.626 8.788-.261 19.42-.52 20.633-.266 1.212-2.036 2.101-3.215 2.164-6.366-.572-11.087-5.605-11.087-5.605s-1.312-1.59-1.445-2.927c-2.754-.061-3.805-3.185-3.805-3.185L200 19.09l2.542-6.239 5.508-4.202 6.694-.512s5.641 3.249 6.16 4.203"/>
        <path fill="#000" d="M201.408 23.137s-.19-4.442 1.538-4.476c1.724-.031 2.682 2.898 2.682 2.898s3.681-1.974 4.096-6.055c4.535-.133 10.675-1.68 11.25-3.822.579-2.14-8.344-12.904-18.028-4.187-5.565 5.21-1.538 15.642-1.538 15.642"/>
        <path fill="#F0B380" d="M194.855 85.29s5.082-.729 7.331 1.001c.962.747.58 2.338.58 2.338s5.913 3.429 3.763 6.764c-2.157 3.34-7.146.962-9.07.383-1.47-.442-6.459-4.767-6.459-4.767l3.855-5.72"/>
        <path fill="#ECF5F7" d="M191.663 83.137s1.352.387 3.277 2.137c.48 2.823-2.008 6.22-3.855 5.833L188 88.871l3.663-5.734"/>
        <path fill="#BCBEC0" d="M190 90.137c4.074-2.323 2.817-6 2.817-6s-.353 3.772-2.817 6"/>
        <path fill="#ECF5F7" d="M197.819 43.265c-9.93-14.075-26.22 23.78-27.451 26.03-2.274 8.805 6.528 19.685 11.746 21.273 5.216 1.591 7.527-.383 9.344-3.084 1.819-2.699 2.077-5.206.519-8.484-1.559-3.279-7.886-7.39-7.886-7.39s10.878-13.14 13.09-15.967c2.206-2.83 2.39-11.414.638-12.378"/>
        <path fill="#BCBEC0" d="M184 72.077s-5.166-1.642-9-.916c6.2-2.614 9 .916 9 .916"/>
        <path fill="#FFC900" d="M208.136 84.137c-.014-.34-1.289-34.292-10.732-42.498-1.499-1.299-3.664-1.866-5.404-1.696l.924-.774c1.964-.185 3.327.446 4.993 1.892C207.613 49.486 208.95 82.73 209 84.137h-.864"/>
        <path fill="#FFC900" d="M211.996 84.054l-.856.083c0-.448-.11-44.867-16.14-47.356l.775-.644c16.697 2.596 16.236 46.063 16.221 47.917"/>
        <path fill="#000" d="M232 13.137v1.476c0 3.201-2.098 6.408-6.297 8.855-8.396 4.892-22.01 4.892-30.408 0-4.2-2.447-6.295-5.654-6.295-8.855v-1.476h43"/>
        <path fill="#F5B400" d="M189.154 14.137c-.052.24-.092.48-.119.721.306 2.876 2.392 5.705 6.262 7.907 8.396 4.763 22.008 4.763 30.406 0 3.877-2.202 5.963-5.031 6.262-7.907a6.829 6.829 0 0 0-.119-.72H232v.804c0 3.122-2.098 6.24-6.297 8.623-8.396 4.763-22.01 4.763-30.408 0-4.2-2.383-6.295-5.501-6.295-8.623v-.805h.154"/>
        <path fill="#000" d="M189.037 14.137c.3-2.903 2.386-5.747 6.261-7.962 8.395-4.79 22.006-4.79 30.403 0 3.88 2.215 5.968 5.06 6.261 7.962.35-3.38-1.74-6.823-6.261-9.405-8.397-4.793-22.008-4.793-30.403 0-4.516 2.582-6.607 6.025-6.261 9.405"/>
        <path fill="#232323" d="M189 14.14c.306 3.006 2.396 5.963 6.272 8.262 8.41 4.98 22.044 4.98 30.456 0 3.884-2.299 5.973-5.256 6.272-8.262-.294-3.015-2.386-5.97-6.272-8.27-8.412-4.977-22.046-4.977-30.456 0-3.881 2.3-5.971 5.255-6.272 8.27"/>
        <path fill="#000" d="M222 6.137v6.771c0 1.595-1.072 3.189-3.22 4.404-4.297 2.434-11.263 2.434-15.557 0-2.151-1.215-3.223-2.81-3.223-4.404v-6.77h22"/>
        <path fill="#232323" d="M203.223 11.232c4.294 2.54 11.26 2.54 15.556 0 4.295-2.54 4.295-6.655 0-9.19-4.297-2.54-11.262-2.54-15.556 0-4.297 2.535-4.297 6.65 0 9.19"/>
        <path fill="#FA5932" d="M203.223 13.812c4.294 2.582 11.26 2.582 15.557 0 2.148-1.29 3.22-2.98 3.22-4.675v2.388c0 1.695-1.072 3.388-3.22 4.678-4.297 2.58-11.263 2.58-15.557 0-2.151-1.29-3.223-2.983-3.223-4.678V9.137c0 1.696 1.072 3.386 3.223 4.675"/>
        <path fill="#FA5932" d="M204 16.874s-1.08 1.524-.655 6.263l-2.254-.684c-.458-4.184.96-7.316.96-7.316L204 16.874"/>
        <path fill="#FA5932" d="M200.651 14.137s-3.604 2.334-6.651 2.21c.286.604.661 1.375.796 1.778 4.367.22 7.204-2.605 7.204-2.605l-1.349-1.383"/>
        <path fill="#DAD6C4" d="M182.14 219.975a.95.95 0 0 0-.82.48.97.97 0 0 0 .347 1.312l8.722 5.127a.936.936 0 0 0 1.291-.35.97.97 0 0 0-.347-1.313l-8.722-5.128-.47-.128zm-17.687-9.4a.944.944 0 0 0-.818.48.97.97 0 0 0 .345 1.312l8.722 5.13a.94.94 0 0 0 1.291-.352.97.97 0 0 0-.347-1.313l-8.722-5.129-.471-.128zM147.945 200a.944.944 0 0 0-.818.48.969.969 0 0 0 .347 1.312l8.72 5.129a.937.937 0 0 0 1.29-.352.969.969 0 0 0-.346-1.313l-8.72-5.128-.473-.128zM52.333 201.95l.474.128 8.719 5.127c.453.267.609.854.347 1.315a.939.939 0 0 1-1.292.351l-8.718-5.127a.969.969 0 0 1-.348-1.312.941.941 0 0 1 .818-.482zm-16.508-9.4l.473.128 8.722 5.127c.451.267.607.854.345 1.315a.936.936 0 0 1-1.289.351l-8.722-5.127a.97.97 0 0 1-.347-1.312.941.941 0 0 1 .818-.482zM18.14 181.975l.47.128 8.722 5.128a.97.97 0 0 1 .347 1.312.936.936 0 0 1-1.291.351l-8.722-5.127a.97.97 0 0 1-.347-1.313.95.95 0 0 1 .82-.479zm-17.688-9.4l.47.128 8.723 5.129a.97.97 0 0 1 .347 1.313.94.94 0 0 1-1.291.351l-8.722-5.129a.97.97 0 0 1-.345-1.312.944.944 0 0 1 .818-.48zM-16.055 162l.473.128 8.72 5.128c.453.265.609.854.347 1.313a.937.937 0 0 1-1.291.352l-8.72-5.129a.969.969 0 0 1-.347-1.313.944.944 0 0 1 .818-.479zM75.617 102.16c.324 0 .639.17.814.479a.961.961 0 0 1-.345 1.303l-8.675 5.09a.936.936 0 0 1-1.285-.348.963.963 0 0 1 .346-1.306l8.675-5.09.47-.128zm16.424-9.333c.323 0 .64.17.814.478a.963.963 0 0 1-.345 1.303l-8.678 5.09a.935.935 0 0 1-1.282-.348.965.965 0 0 1 .343-1.305l8.677-5.09.471-.128zm17.594-9.333c.323 0 .639.17.817.478a.963.963 0 0 1-.346 1.303l-8.677 5.091a.936.936 0 0 1-1.285-.349.966.966 0 0 1 .346-1.305l8.677-5.091.468-.127zm16.424-9.334c.324 0 .64.17.815.479a.962.962 0 0 1-.344 1.303l-8.677 5.09a.938.938 0 0 1-1.285-.348.965.965 0 0 1 .345-1.306l8.678-5.09.468-.128zM6.617 140.16c.324 0 .639.17.814.479a.961.961 0 0 1-.345 1.303l-8.675 5.09a.936.936 0 0 1-1.285-.348.963.963 0 0 1 .346-1.306l8.675-5.09.47-.128zm16.424-9.333c.323 0 .64.17.814.478a.963.963 0 0 1-.345 1.303l-8.678 5.09a.935.935 0 0 1-1.282-.348.965.965 0 0 1 .343-1.305l8.677-5.09.471-.128zm17.594-9.333c.323 0 .639.17.817.478a.963.963 0 0 1-.346 1.303l-8.677 5.091a.936.936 0 0 1-1.285-.349.966.966 0 0 1 .346-1.305l8.677-5.091.468-.127zm16.424-9.334c.324 0 .64.17.815.479a.962.962 0 0 1-.344 1.303l-8.677 5.09a.938.938 0 0 1-1.285-.348.965.965 0 0 1 .345-1.306l8.678-5.09.468-.128zM293.617 151c.324 0 .639.17.814.479a.961.961 0 0 1-.345 1.303l-8.675 5.09a.936.936 0 0 1-1.285-.348.963.963 0 0 1 .346-1.306l8.675-5.09.47-.128zm16.424-9.333c.323 0 .64.17.814.478a.963.963 0 0 1-.345 1.303l-8.678 5.09a.935.935 0 0 1-1.282-.348.965.965 0 0 1 .343-1.306l8.677-5.09.471-.127zm17.594-9.334c.323 0 .639.17.817.479a.963.963 0 0 1-.346 1.303l-8.677 5.09a.936.936 0 0 1-1.285-.348.966.966 0 0 1 .346-1.306l8.677-5.09.468-.128zM344.06 123c.324 0 .64.17.815.478a.962.962 0 0 1-.344 1.304l-8.677 5.09a.938.938 0 0 1-1.285-.349.965.965 0 0 1 .345-1.305l8.678-5.09.468-.128z"/>
        <path fill="#FA5932" d="M356.999 123c2.055 0 4-.473 5.477-1.33 1.627-.945 2.524-2.259 2.524-3.691 0-1.435-.897-2.746-2.524-3.692-2.953-1.716-8.002-1.716-10.952 0-1.627.946-2.522 2.257-2.524 3.692.002 1.432.897 2.746 2.524 3.691 1.474.857 3.42 1.33 5.475 1.33z"/>
        <path fill="#DAD6C4" d="M95.617 208.16c.324 0 .639.17.814.479a.961.961 0 0 1-.345 1.303l-8.675 5.09a.936.936 0 0 1-1.285-.348.963.963 0 0 1 .346-1.306l8.675-5.09.47-.128zm16.424-9.333c.323 0 .64.17.814.478a.963.963 0 0 1-.345 1.303l-8.678 5.09a.935.935 0 0 1-1.282-.348.965.965 0 0 1 .343-1.305l8.677-5.09.471-.128zm17.594-9.333c.323 0 .639.17.817.478a.963.963 0 0 1-.346 1.303l-8.677 5.091a.936.936 0 0 1-1.285-.349.966.966 0 0 1 .346-1.305l8.677-5.091.468-.127zm16.424-9.334c.324 0 .64.17.815.479a.962.962 0 0 1-.344 1.303l-8.677 5.09a.938.938 0 0 1-1.285-.348.965.965 0 0 1 .345-1.306l8.678-5.09.468-.128z"/>
        <path fill="#FFC900" d="M157.999 178c2.055 0 4-.473 5.477-1.33 1.627-.945 2.524-2.259 2.524-3.691 0-1.435-.897-2.746-2.524-3.692-2.953-1.716-8.002-1.716-10.952 0-1.627.946-2.522 2.257-2.524 3.692.002 1.432.897 2.746 2.524 3.691 1.474.857 3.42 1.33 5.475 1.33z"/>
        <path fill="#DAD6C4" d="M293.617 220.16c.324 0 .639.17.814.479a.961.961 0 0 1-.345 1.303l-8.675 5.09a.936.936 0 0 1-1.285-.348.963.963 0 0 1 .346-1.306l8.675-5.09.47-.128zm16.424-9.333c.323 0 .64.17.814.478a.963.963 0 0 1-.345 1.303l-8.678 5.09a.935.935 0 0 1-1.282-.348.965.965 0 0 1 .343-1.305l8.677-5.09.471-.128zm17.594-9.333c.323 0 .639.17.817.478a.963.963 0 0 1-.346 1.303l-8.677 5.091a.936.936 0 0 1-1.285-.349.966.966 0 0 1 .346-1.305l8.677-5.091.468-.127zm16.424-9.334c.324 0 .64.17.815.479a.962.962 0 0 1-.344 1.303l-8.677 5.09a.938.938 0 0 1-1.285-.348.965.965 0 0 1 .345-1.306l8.678-5.09.468-.128z"/>
    </g>
</svg>
