<svg xmlns="http://www.w3.org/2000/svg" xmlns:xlink="http://www.w3.org/1999/xlink" width="734" height="478" viewBox="0 0 734 478">
    <defs>
        <path id="a" d="M61.267 35.103c-15.711 0-35.853-4.968-49.008-12.546C-3.563 13.44-3.284 3.996 12.88 1.461c2.727-.426 5.727-.63 8.91-.63 15.711 0 35.856 4.965 49.014 12.549 15.822 9.114 15.54 18.555-.624 21.09-2.727.429-5.727.633-8.913.633z"/>
    </defs>
    <g fill="none" fill-rule="evenodd">
        <path fill="#000" d="M151.497 145.838c-.03.468 1.62 1.368 2.991 2.553.381-1.719 1.002-2.964 1.002-2.964-.063.861 4.608 4.023 3.936 6.819 0 0 .501 3.192-1.371 4.683-.636-.276-.897-.399-1.347-.756-.333.543-.78.858-1.686 1.119-8.43-7.869-3.525-11.46-3.525-11.46v.006"/>
        <path fill="#894A0F" d="M151.776 144.644c.939-.183 1.521-1.257 1.17-3.273-.189-1.08 3.15-2.163 6.309-6.903 2.202-3.279 4.266-7.683 5.283-9.306 0-.003 1.023-2.553 6.411-2.859 1.047-.084 2.244.114 3.402.171l.156-.246c2.097-3.777 3.558-12.162 6.909-16.398.537-.507 1.32.255 2.16 1.617.552-1.152 1.17-2.205 1.86-3.096 2.007-1.848 7.305 13.617 7.305 13.617s.816 17.01-.519 17.952a75.556 75.556 0 0 0-3.465-.657c-.12 1.155-.303 1.947-.558 2.127-8.787-1.827-14.412-1.839-18.183-1.041-1.869 1.074-2.928 2.385-3.813 3.435-1.749 2.061-3.765 7.863-5.193 10.287-1.731 3.774-4.059 2.766-5.454 2.229-4.956-2.367-5.37-7.344-3.78-7.656M135.936 109.013c16.32 10.611 30.999 2.775 31.128 2.703l-1.026-3.984c-.027.015-17.322 9.504-29.34 0l-.762 1.281"/>
        <path fill="#603913" d="M137.973 108.122c.042 2.496-11.334 6.99-14.544-8.412 4.959 7.305 10.539 1.128 14.544 8.412"/>
        <path fill="#000" d="M240.006 203.942s1.878-.069 3.804-.402c-.168-.765-.279-1.422-.291-1.695l.039.045s1.362.675 2.922.948l.315-.147.111.207c.849.102 1.728.057 2.436-.288 0 0 3.666 4.152 2.865 6.114-.522.288-1.218.09-2.73-.294.156.876.015 1.56-.576 2.247-3.585.753-7.146-2.673-8.22-3.99-.453-.555-.669-2.01-.711-2.796l.036.051"/>
        <path fill="#894A0F" d="M238.689 163.301c.351-.831 1.644-.261 3.081.753.075-1.098.222-2.046.468-2.808.918-2.124 7.962 5.001 7.962 5.001s1.671 15.273-2.508 19.86c-1.083.582 2.052 14.637 1.65 16.503-3.792 4.476-8.331 1.95-9.222 1.389l-.114-.057-.036-.051c-.255-.315-1.617-2.298-1.68-6.486 2.109-11.694-1.446-28.338.399-34.104"/>
        <path fill="#B9691B" d="M269.79 176.618c-8.439.15-15.675 13.557-31.554 3.312-1.668-.963-38.463-33.888-43.332-36.477-4.863-2.592-10.794 3.795-10.794 3.795s-9.624-16.371-13.02-28.425c-5.379.312-11.025-.333-11.073-4.371-.168-9.222 11.496-19.473 23.958-16.776l.36.186c.3.06.603.135.888.219 3.168.981 23.325 18.453 35.868 25.842 3.939 2.418 16.101-.213 30.894 13.551 5.406 3.915 5.865-.342 15.537 6.357l2.268 32.787"/>
        <path fill="#FFF" d="M274.11 147.59c8.172-4.827 20.925-13.893 48.762 2.403-29.307-26.376-53.169-7.614-54.126-6.912-2.28 2.178 2.952 5.817 5.364 4.509"/>
        <path fill="#B9691B" d="M257.148 147.875v-.003l.009-.015a1.7 1.7 0 0 1 .804-.39l10.449-5.154c.471-.294 2.808-.585 4.668 1.125 2.91 2.49 2.163 5.889 2.163 5.889s5.781 4.263 9.09 8.748c3.297 4.485 2.403 5.874 2.214 6.981-.774 6.108 6.552 14.625 6.552 14.625s2.643 1.218 3.015 2.844c.786 3.393-.294 4.656-1.404 5.109l-7.239 3.51-.327.159-.033.009h-.003c-.888.348-1.794.192-1.794.192s-1.482.918-2.82.393c-1.332-.534-3.819-3.453-4.86-3.528-3.177-.219-7.176-1.221-8.775-2.238-2.07-1.308-4.683-.609-5.835-1.407-2.655-1.845-2.157-2.406-3.357-2.256l-3.51-30.903s-.198-2.622.993-3.69"/>
        <path fill="#B9691B" d="M259.665 182.468c-8.439.141-15.672 13.551-31.563 3.303-16.746-11.412-31.332-29.64-41.421-37.089-6.594-4.74-12.699 4.41-12.699 4.41s-14.19-24.153-14.19-35.394c0-11.247 7.344-13.143 11.988-11.724 3.168.972 26.646 16.413 39.18 23.799 6.315 3.723 9.675.987 27.24 11.622 8.961 5.577 1.935-2.472 19.194 8.283l2.271 32.79"/>
        <path fill="#3C2415" d="M260.076 182.453s-4.809-2.772-5.121-11.82c-2.196 10.182 5.121 11.82 5.121 11.82"/>
        <path fill="#FFADC0" d="M295.359 180.677c-1.227-1.068-2.889 1.329-5.097 2.538-2.391 1.32-5.001 1.098-6.3 2.121-1.647 1.329-1.152 3.663-.273 5.055 2.193 2.643 6.174 1.047 8.091-.612 1.596 0 7.692-4.107 3.579-9.102"/>
        <path fill="#000" d="M219.789 209.954c-.327-6.954 5.841-5.187 5.841-5.187-.024.099.084.348.375.834 2.526 5.331 1.602 8.355 1.992 9.258-.21.225-4.437 1.794-4.17 2.403-.348.393-1.584 1.431-3.555-.147a40.997 40.997 0 0 1-.471-7.158l-.012-.003"/>
        <path fill="#894A0F" d="M212.583 173.126c-3.957-11.598 7.854-20.103 7.854-20.103l17.1 20.202s1.167 5.616-3.585 6.15c.372 2.046 1.485 6.147 1.983 9.852-8.55 1.386-18.702-6.384-23.352-16.101"/>
        <path fill="#B9691B" d="M212.85 173.966c-3.087-8.268 7.587-20.943 7.587-20.943l12.633 3.489 4.467 16.713s-.078 1.233-.693 2.259c-1.011 2.451-2.694 3.069-4.155 3.051.363 2.043 1.236 5.121 2.598 9.009 1.788 5.091 4.344 8.034 4.491 12.048-.396 4.275-2.796 3.075-3.453 4.218-1.332 3.09-2.235 7.248-3.525 9.327l-.009.018-.126.195c-1.761 2.664-5.586 3.93-8.637 4.14-5.757-3.285-.981-13.11 1.602-12.723l.705.231c.999-1.623 1.866-3.297 1.647-6.342-.516-3.237-10.485-14.979-15.132-24.69"/>
        <path fill="#000" d="M179.685 194.177c.435-.639 1.668-1.656 1.668-1.656s.885-2.568 5.328 0c1.524 1.263 3.294 4.134 3.189 6.522-.051 1.041-2.859.402-2.859.402s-.081 2.589-1.23 2.445c-6.486-1.242-7.797-4.233-8.028-4.734-.387-.864-.462-1.866-.462-1.866s.462-1.338 2.394-1.113"/>
        <path fill="#894A0F" d="M180.306 128.33c2.148 6.561 2.937 15.558-.507 19.65-2.874-2.76-.879-11.493.507-19.65"/>
        <path fill="#B9691B" d="M164.142 148.103c-1.056-8.238-8.949-21.534-7.605-29.112.051-.303 1.338-9.516 7.812-14.73 2.649-.846 5.355 7.5 5.355 7.5s10.602 3.48 10.602 16.569c.585 37.794-5.613 30.093-4.281 39.24 1.326 9.144 10.509 22.245 10.656 24.951-.759 2.142-3.393 1.965-3.393 1.965-4.086.345-5.328 0-5.328 0s-.249-3.528-4.152-6.042c-1.116-.723-2.319-7.554-4.665-14.088-2.151-5.976-6.441-12.384-6.684-13.77-.495-2.904 2.73-4.239 1.683-12.483"/>
        <path fill="#000" d="M268.746 167.888c0 .528.507 1.254 1.131 1.617.627.363 1.131.225 1.131-.315 0-.534-.504-1.251-1.131-1.62-.624-.363-1.131-.222-1.131.318M285.447 187.427c-.111.558.105 1.266.489 1.581.381.312.771.105.894-.453.108-.57-.105-1.272-.492-1.584-.372-.309-.774-.108-.891.456"/>
        <path fill="#894A0F" d="M254.349 152.675c0 1.83 1.281 4.044 2.862 4.953 1.581.918 2.865.18 2.865-1.647 0-1.821-1.284-4.05-2.865-4.959-1.581-.912-2.862-.171-2.862 1.653"/>
        <path fill="#FFF" d="M255.162 151.43c.441-.282 1.05-.255 1.737.141 1.332.771 2.415 2.64 2.415 4.173 0 .723-.24 1.23-.618 1.509v.003l-.036.012-.132.072c-8.34 4.692-18.795 9.855 8.58 25.662-45.696-16.932-13.17-31.02-11.946-31.572"/>
        <path fill="#894A0F" d="M169.026 100.562c4.215-2.367 10.944.795 10.944.795s-9.051-8.571-12.906.402l1.962-1.197M271.008 154.823c6.792 6.387 9.336 12.243 9.336 12.243s1.38-5.634-9.336-12.243M275.241 149.327s-15.684 7.935-15.165 8.697c.51.759 15.165-8.697 15.165-8.697"/>
        <path fill="#A62626" d="M12.693 361.979a2.056 2.056 0 0 1-2.055 2.055 2.053 2.053 0 1 1 2.055-2.055M13.452 357.392a2.05 2.05 0 0 1-2.052 2.052 2.052 2.052 0 0 1-2.049-2.052 2.06 2.06 0 0 1 2.049-2.061c1.137 0 2.052.927 2.052 2.061M102.108 362.051a2.049 2.049 0 0 1-2.055 2.046 2.046 2.046 0 0 1-2.052-2.046 2.053 2.053 0 0 1 4.107 0"/>
        <path fill="#A62626" d="M100.383 358.205a2.049 2.049 0 0 1-2.052 2.058 2.052 2.052 0 1 1 0-4.107c1.143 0 2.052.918 2.052 2.049"/>
        <path fill="#A62626" d="M99.573 364.445l-.072-5.001-.264 1.128v3.897a2.087 2.087 0 0 0-1.752 2.058c0 1.155.936 2.094 2.088 2.094a2.091 2.091 0 0 0 2.091-2.094c0-.99-.705-2.076-2.091-2.082M11.214 364.445l.075-5.001.267 1.128v3.897a2.09 2.09 0 1 1-2.433 2.058c0-.99.705-2.076 2.091-2.082"/>
        <path fill="#000" d="M11.133 356.156v3.006c0 6.528 4.323 13.071 12.96 18.057 17.265 9.966 45.261 9.966 62.529 0 8.631-4.986 12.951-11.529 12.951-18.057v-3.006h-88.44"/>
        <path fill="#D63A3A" d="M99.258 356.87c.102.504.183 1.002.243 1.506-.615 6.021-4.92 11.943-12.879 16.548-17.265 9.972-45.264 9.972-62.529 0-7.977-4.605-12.27-10.527-12.879-16.548.048-.504.135-1.002.237-1.506h-.318v1.686c0 6.528 4.323 13.062 12.96 18.048 17.265 9.966 45.261 9.966 62.529 0 8.631-4.986 12.951-11.52 12.951-18.048v-1.686h-.315"/>
        <path fill="#000" d="M99.501 357.662c-.612-6.027-4.911-11.946-12.879-16.551-17.265-9.966-45.264-9.966-62.529 0-7.98 4.605-12.273 10.524-12.879 16.551-.72-7.02 3.582-14.193 12.879-19.551 17.265-9.972 45.264-9.972 62.529 0 9.291 5.358 13.59 12.531 12.879 19.551"/>
        <path fill="#232323" d="M99.501 357.662c-.615 6.021-4.92 11.943-12.879 16.548-17.265 9.975-45.264 9.975-62.529 0-7.977-4.605-12.27-10.527-12.879-16.548.606-6.027 4.899-11.946 12.879-16.551 17.265-9.966 45.264-9.966 62.529 0 7.968 4.605 12.267 10.524 12.879 16.551"/>
        <path fill="#000" d="M33.24 342.11v13.893c0 3.273 2.154 6.534 6.471 9.03 8.646 4.986 22.644 4.986 31.284 0 4.323-2.496 6.486-5.757 6.486-9.03V342.11H33.24"/>
        <path fill="#232323" d="M70.995 351.14c-8.64 4.998-22.638 4.998-31.284 0-8.637-4.98-8.637-13.071 0-18.057 8.646-4.992 22.644-4.992 31.284 0 8.637 4.986 8.637 13.077 0 18.057"/>
        <path fill="#D63A3A" d="M70.995 358.046c-8.64 4.986-22.638 4.986-31.284 0-4.317-2.493-6.471-5.763-6.471-9.03v4.617c0 3.264 2.154 6.528 6.471 9.033 8.646 4.98 22.644 4.98 31.284 0 4.323-2.505 6.486-5.769 6.486-9.033v-4.617c0 3.267-2.163 6.537-6.486 9.03"/>
        <path fill="#D63A3A" d="M68.436 363.932s2.187 3.222 1.32 13.239l4.575-1.452c.93-8.841-1.944-15.456-1.944-15.456l-3.951 3.669M75.168 357.392s7.416 4.845 13.695 4.587c-.591 1.257-1.368 2.859-1.644 3.693-8.994.462-14.832-5.409-14.832-5.409l2.781-2.871M57.057 385.919v-2.595h-.792v2.571a2.09 2.09 0 0 0-1.752 2.055 2.088 2.088 0 0 0 4.176 0c0-.993-.696-1.827-1.632-2.031M62.079 385.625v-2.583h-.792v2.574a2.082 2.082 0 0 0-1.746 2.055c0 1.152.936 2.088 2.079 2.088a2.09 2.09 0 0 0 2.094-2.088 2.095 2.095 0 0 0-1.635-2.046M67.158 384.956v-2.592h-.789v2.574a2.087 2.087 0 0 0-1.755 2.052 2.09 2.09 0 1 0 4.182 0c0-.999-.702-1.827-1.638-2.034M72.297 383.93v-2.595h-.789v2.571a2.094 2.094 0 0 0-1.752 2.058c0 1.152.933 2.088 2.088 2.088a2.093 2.093 0 0 0 2.094-2.088 2.081 2.081 0 0 0-1.641-2.034M77.265 382.556v-2.592h-.786v2.574a2.086 2.086 0 0 0 .333 4.146 2.095 2.095 0 0 0 2.091-2.091 2.08 2.08 0 0 0-1.638-2.037M82.062 380.927v-2.601h-.789v2.577a2.086 2.086 0 0 0 .339 4.146 2.093 2.093 0 0 0 2.088-2.094c0-.996-.705-1.83-1.638-2.028M86.802 378.917v-2.595h-.786v2.58a2.074 2.074 0 0 0-1.749 2.052 2.084 2.084 0 0 0 4.167 0c0-1.002-.69-1.83-1.632-2.037M91.404 376.274v-3.915h-.786v3.897a2.094 2.094 0 0 0-1.755 2.058 2.087 2.087 0 1 0 4.176 0 2.086 2.086 0 0 0-1.635-2.04M95.583 372.692v-3.921h-.792v3.903a2.087 2.087 0 0 0 .336 4.146 2.091 2.091 0 0 0 2.091-2.094c0-.993-.705-1.827-1.635-2.034"/>
        <path fill="#D63A3A" d="M98.418 369.005v-4.908l-.789.993v3.9a2.085 2.085 0 0 0 .336 4.143 2.088 2.088 0 0 0 .453-4.128M11.961 367.991v-4.905l.783.987v3.903a2.079 2.079 0 0 1 1.755 2.052 2.088 2.088 0 1 1-2.538-2.037M50.946 385.919v-2.595h.795v2.571a2.084 2.084 0 0 1 1.752 2.055 2.092 2.092 0 0 1-2.088 2.091 2.09 2.09 0 0 1-2.091-2.091c0-.993.702-1.827 1.632-2.031M45.87 385.238v-2.595h.792v2.574a2.089 2.089 0 0 1 1.749 2.055 2.086 2.086 0 0 1-2.091 2.088 2.088 2.088 0 0 1-2.088-2.088c0-.993.705-1.827 1.638-2.034M40.737 384.206v-2.592h.789v2.574a2.093 2.093 0 0 1 1.752 2.061 2.089 2.089 0 1 1-4.179 0c0-.999.702-1.833 1.638-2.043M35.76 382.835v-2.583h.795v2.568a2.095 2.095 0 0 1 1.755 2.058 2.087 2.087 0 0 1-2.088 2.085 2.088 2.088 0 0 1-2.091-2.085c0-.996.702-1.83 1.629-2.043M30.972 381.206v-2.595h.783v2.577a2.08 2.08 0 0 1 1.752 2.055 2.089 2.089 0 0 1-4.179 0c0-1.002.705-1.83 1.644-2.037M26.232 379.196v-2.586h.783v2.574a2.074 2.074 0 0 1 1.755 2.052 2.088 2.088 0 0 1-2.091 2.088 2.084 2.084 0 0 1-2.088-2.088c0-1.002.702-1.827 1.641-2.04M21.627 377.846v-3.918h.789v3.897c.984.168 1.749 1.02 1.749 2.052a2.09 2.09 0 0 1-2.085 2.097 2.094 2.094 0 0 1-2.091-2.097c0-.996.705-1.827 1.638-2.031M17.451 375.122v-3.918h.792v3.9a2.08 2.08 0 0 1 1.746 2.055 2.085 2.085 0 0 1-2.091 2.082 2.086 2.086 0 0 1-2.088-2.082c0-.999.702-1.833 1.641-2.037"/>
        <path fill="#D63A3A" d="M14.046 371.591v-4.911l.789.996v3.897a2.086 2.086 0 0 1 1.761 2.052 2.098 2.098 0 0 1-2.097 2.094 2.087 2.087 0 0 1-2.088-2.094 2.1 2.1 0 0 1 1.635-2.034"/>
        <path fill="#939598" d="M12.876 431.465c.372-.231.558-.546.54-.87h.003v-.618h-.345l-.087-.087c-.744-.585-2.13-.726-3.108-.327l-.594.381-.285.033v.618h.006c.012.264.153.525.447.753.639.507 1.758.654 2.679.435l1.464 1.14.735-.303v-.654l-1.455-.501"/>
        <path fill="#BCBEC0" d="M9.453 430.694c.639.507 1.758.648 2.679.432l1.464 1.14.735-.3-1.455-1.149c.66-.423.756-1.08.111-1.584-.744-.579-2.13-.723-3.108-.318-.978.402-1.167 1.203-.426 1.779"/>
        <path fill="#CF7C00" d="M169.461 372.014c-3.327-2.577-6.438-4.314-7.23-4.734-2.43-1.512-29.415-17.637-51.975-4.905-15.747 8.889-10.533 18.345-16.527 21.732-1.737.987-4.152 1.518-6.792 2.109v-1.725l-15.504.258.006 13.737h.006c.006 8.271 11.832 14.22 11.832 14.22s16.626 11.094 37.035 5.13c8.913-3.492 8.196-8.529 12.531-11.064 5.88-3.45 22.257-.414 37.707-9.468 6.216-3.651 8.49-7.506 8.484-11.205v-14.085h-9.573"/>
        <path fill="#F5B400" d="M93.729 370.13c-4.413 2.487-13.128 2.064-19.203 7.197-10.395 11.763 8.751 21.405 8.751 21.405s16.626 11.082 37.035 5.127c8.913-3.504 8.196-8.538 12.531-11.067 5.88-3.45 22.257-.414 37.707-9.474 22.131-12.981-5.718-28.617-8.319-30.021-2.43-1.506-29.415-17.631-51.975-4.899-15.747 8.886-10.533 18.348-16.527 21.732"/>
        <path fill="#939598" d="M24.753 426.245c.378-.246.564-.558.543-.876h.006v-.621h-.342l-.093-.09c-.738-.579-2.127-.72-3.102-.321l-.597.384-.285.027v.621h.009c.009.261.147.525.444.75.636.507 1.752.66 2.679.435l1.461 1.143.738-.303v-.66l-1.461-.489"/>
        <path fill="#BCBEC0" d="M21.336 425.462c.636.51 1.752.654 2.679.435l1.461 1.146.738-.309-1.461-1.146c.663-.426.759-1.071.114-1.578-.738-.579-2.127-.723-3.102-.33-.978.405-1.173 1.203-.429 1.782"/>
        <path fill="#754C29" d="M100.818 388.772c5.586 3.177 14.391 3.24 19.662.15 5.271-3.096 5.013-8.172-.57-11.352-5.58-3.174-14.379-3.24-19.662-.144-5.271 3.087-5.016 8.169.57 11.346"/>
        <path fill="#603913" d="M112.356 389.666v-.618l-12.219-3.765-19.242 13.083-50.463 28.458 8.697 5.037 53.031-26.994-.06-2.055 20.256-13.146"/>
        <path fill="#3C2415" d="M39.129 431.861v-2.709l-1.107.828v2.709l1.107-.828"/>
        <path fill="#754C29" d="M112.356 389.048l-12.219-7.074-69.705 42.138 8.697 5.04 73.227-40.104"/>
        <path fill="#939598" d="M105.264 390.785v-.429l-8.655-4.464v.426l8.178 4.749.477-.282"/>
        <path fill="#BCBEC0" d="M105.264 390.356l-8.181-4.737-.474.273 8.178 4.743.477-.279"/>
        <path fill="#939598" d="M92.565 398.093v-.423l-8.658-4.47v.426l8.184 4.74.474-.273"/>
        <path fill="#BCBEC0" d="M92.565 397.67l-8.178-4.74-.48.27 8.184 4.737.474-.267"/>
        <path fill="#939598" d="M79.866 405.41v-.435l-8.655-4.464v.426l8.178 4.743.477-.27"/>
        <path fill="#BCBEC0" d="M79.866 404.975l-8.181-4.734-.474.27 8.178 4.74.477-.276"/>
        <path fill="#939598" d="M67.167 412.706v-.423l-8.661-4.464v.426l8.184 4.737.477-.276"/>
        <path fill="#BCBEC0" d="M67.167 412.283l-8.181-4.737-.48.273 8.184 4.737.477-.273"/>
        <path fill="#939598" d="M41.766 427.322v-.426l-8.649-4.464v.423l8.169 4.746.48-.279"/>
        <path fill="#BCBEC0" d="M41.766 426.896l-8.181-4.734-.468.27 8.169 4.74.48-.276"/>
        <path fill="#CF7C00" d="M120.408 383.852c-.18-1.395-1.227-2.79-3.138-3.882-4.062-2.304-10.44-2.355-14.274-.105-1.653.969-2.568 2.22-2.73 3.498-.186-1.563.705-3.162 2.73-4.347 3.834-2.241 10.212-2.19 14.274.105 2.301 1.302 3.351 3.045 3.138 4.731"/>
        <path fill="#1F1F1F" d="M120.408 383.852c-.165 1.293-1.08 2.544-2.73 3.507-3.831 2.244-10.218 2.196-14.271-.114-1.914-1.083-2.961-2.478-3.141-3.882.162-1.278 1.077-2.529 2.73-3.498 3.834-2.25 10.212-2.199 14.274.105 1.911 1.092 2.958 2.487 3.138 3.882"/>
        <path fill="#FF9800" d="M154.275 369.497l-20.136-11.658-4.356 2.502 20.124 11.673 4.368-2.517"/>
        <path fill="#939598" d="M18.987 428.789c.378-.246.558-.561.537-.876h.012v-.618h-.342l-.093-.093c-.741-.579-2.136-.726-3.105-.315l-.594.375-.285.033v.618h.009c.006.261.141.525.444.753.636.498 1.755.651 2.682.429l1.449 1.143.738-.309v-.648l-1.452-.492"/>
        <path fill="#BCBEC0" d="M15.57 428.009c.636.501 1.755.654 2.682.429l1.449 1.146.738-.303-1.452-1.146c.66-.438.756-1.086.114-1.584-.741-.582-2.136-.732-3.105-.327-.984.402-1.173 1.2-.426 1.785"/>
        <path fill="#CF7C00" d="M32.085 434.222l-8.421 5.466c-.651.42-1.776.462-2.511.081l-.024-.015c-.732-.375-.795-1.026-.147-1.449l8.43-5.457c.651-.423 1.782-.465 2.511-.084l.021.009c.732.387.798 1.029.141 1.449zm-16.986 2.037l-.027-.015c-.648-.423-.579-1.071.153-1.443l9.489-4.854c.729-.366 1.854-.336 2.505.093l.018.015c.654.426.588 1.071-.147 1.446l-9.486 4.842c-.735.375-1.86.342-2.505-.084zm13.344-10.425l-15.909 7.986a5.556 5.556 0 0 0-1.281.789h-1.068v2.853c0 .6.276 1.206.846 1.764l2.478 2.352 4.077 1.44c2.604.903 5.97.537 7.818-.849l12.618-9.48v-2.709l-9.579-4.146z"/>
        <path fill="#FFAD42" d="M15.225 432.98l9.489-4.842c.729-.378 1.854-.333 2.505.084l.018.018c.654.426.588 1.065-.147 1.443l-9.486 4.851c-.735.375-1.86.327-2.505-.09l-.027-.015c-.648-.423-.579-1.074.153-1.449zm14.187-1.95c.651-.42 1.782-.456 2.511-.087l.021.018c.732.375.798 1.023.141 1.446l-8.421 5.469c-.651.417-1.776.453-2.511.072l-.024-.009c-.732-.369-.795-1.026-.147-1.452l8.43-5.457zm-18.381 5.481l2.478 2.361 4.077 1.44c2.604.903 5.97.54 7.818-.852l12.618-9.48-9.027-5.232-16.461 7.254c-2.418 1.068-3.063 3.003-1.503 4.509z"/>
        <path fill="#939598" d="M32.16 440.84l-.639-.396c-.876-.36-2.058-.615-2.787-.228l-2.466-.732v.654l1.839.765.003.591c.03.393.336.765.942 1.014 1.017.42 2.394.297 3.072-.279l.381-.717v-.672h-.345"/>
        <path fill="#BCBEC0" d="M28.263 440.306c-.372.54-.093 1.188.789 1.548 1.017.414 2.394.294 3.072-.276.69-.57.42-1.377-.603-1.791-.876-.366-2.004-.3-2.736.093l-2.001-.825-.516.429 1.995.822"/>
        <path fill="#939598" d="M36.843 437.33l-.645-.39c-.876-.369-2.058-.609-2.796-.225l-2.46-.732v.654l1.845.759.003.594c.024.39.336.768.939 1.017 1.02.414 2.394.294 3.078-.279l.372-.72v-.678h-.336"/>
        <path fill="#BCBEC0" d="M32.94 436.805c-.375.54-.09 1.182.789 1.542 1.02.426 2.394.297 3.078-.27.678-.573.411-1.383-.609-1.791-.876-.36-2.004-.303-2.739.087l-2.004-.816-.513.426 1.998.822"/>
        <path fill="#939598" d="M54.468 420.02v-.429l-8.658-4.473v.432l8.184 4.737.474-.267"/>
        <path fill="#BCBEC0" d="M54.468 419.591l-8.184-4.74-.474.267 8.184 4.749.474-.276"/>
        <path fill="#3C2415" d="M39.129 429.152l-8.697-5.04-1.437.636 9.027 5.232 1.107-.828"/>
        <path fill="#603913" d="M150.12 368.732v-1.809l-16.056-7.71v1.821l14.676 8.499 1.38-.801"/>
        <path fill="#754C29" d="M150.12 366.923l-14.67-8.508-1.386.798 14.676 8.499 1.38-.789"/>
        <path fill="#FFF" d="M145.245 366.776l-.327-.189-106.626 62.085.333.195 106.62-62.091M143.775 365.93l-.327-.189-106.62 62.082.333.201 106.614-62.094M142.305 365.078l-.321-.189L35.358 426.98l.336.186 106.611-62.088M140.847 364.229l-.333-.192-106.626 62.091.333.189 106.626-62.088M139.374 363.383l-.327-.195-106.62 62.085.33.189 106.617-62.079M137.91 362.534l-.33-.201-106.623 62.094.336.186 106.617-62.079"/>
        <path fill="#939598" d="M41.235 434.024l-.636-.402c-.882-.36-2.064-.609-2.805-.228l-2.463-.726v.654l1.848.762v.588c.024.39.336.765.942 1.011 1.023.42 2.391.3 3.075-.27l.378-.723h.003v-.666h-.342"/>
        <path fill="#BCBEC0" d="M37.332 433.484c-.375.546-.084 1.188.789 1.548 1.023.423 2.391.288 3.075-.273.687-.57.42-1.374-.597-1.797-.882-.357-2.004-.291-2.742.096l-2.007-.822-.519.432 2.001.816"/>
        <path fill="#DADADA" d="M-8.168 458.247a1.125 1.125 0 0 1-.564-2.1l10.395-6a1.132 1.132 0 0 1 1.536.414 1.13 1.13 0 0 1-.411 1.539l-10.395 6-.561.147zm-20.781 12a1.13 1.13 0 0 1-.978-.561 1.128 1.128 0 0 1 .414-1.54l10.392-6c.54-.3 1.227-.122 1.536.415a1.13 1.13 0 0 1-.411 1.539l-10.392 6-.561.147zm-20.787 12c-.387 0-.765-.201-.975-.561a1.13 1.13 0 0 1 .411-1.54l10.392-6c.54-.3 1.227-.125 1.536.415.312.54.129 1.227-.411 1.539l-10.392 6-.561.147zm-20.784 12a1.127 1.127 0 0 1-.564-2.1l10.392-6a1.127 1.127 0 0 1 1.125 1.953l-10.392 6-.561.147zm-20.784 12a1.127 1.127 0 0 1-.564-2.1l10.392-6a1.127 1.127 0 0 1 1.125 1.953l-10.392 6-.561.147zm-20.784 12a1.127 1.127 0 0 1-.564-2.1l10.392-6c.54-.3 1.227-.126 1.536.414a1.13 1.13 0 0 1-.411 1.539l-10.392 6-.561.147zm-20.784 12a1.13 1.13 0 0 1-.978-.561 1.128 1.128 0 0 1 .414-1.54l10.389-6a1.134 1.134 0 0 1 1.539.415c.309.54.126 1.227-.414 1.539l-10.389 6-.561.147z"/>
        <path fill="#DAD6C4" d="M137.589 294.197l-.561-.147-10.392-6a1.13 1.13 0 0 1-.411-1.539 1.132 1.132 0 0 1 1.536-.414l10.392 6a1.127 1.127 0 0 1-.564 2.1zm20.784 12l-.561-.147-10.389-6a1.128 1.128 0 0 1-.414-1.539 1.136 1.136 0 0 1 1.539-.414l10.389 6c.54.312.723.999.414 1.539a1.13 1.13 0 0 1-.978.561zm20.787 12l-.561-.147-10.392-6a1.127 1.127 0 0 1-.411-1.539c.306-.54.996-.714 1.536-.414l10.392 6c.537.312.72.999.411 1.539-.207.36-.585.561-.975.561zm20.784 12l-.561-.147-10.392-6a1.127 1.127 0 0 1 1.125-1.953l10.392 6a1.127 1.127 0 0 1-.564 2.1zm20.784 12l-.561-.147-10.392-6a1.13 1.13 0 0 1-.411-1.539 1.132 1.132 0 0 1 1.536-.414l10.392 6a1.127 1.127 0 0 1-.564 2.1zm20.784 12l-.561-.147-10.389-6a1.128 1.128 0 0 1-.414-1.539 1.139 1.139 0 0 1 1.539-.414l10.389 6c.54.312.723.999.414 1.539a1.13 1.13 0 0 1-.978.561zm20.787 12l-.561-.147-10.392-6a1.124 1.124 0 0 1-.411-1.539 1.134 1.134 0 0 1 1.536-.414l10.392 6a1.125 1.125 0 1 1-.564 2.1zm20.784 12l-.561-.147-10.392-6a1.127 1.127 0 0 1 1.125-1.953l10.392 6a1.127 1.127 0 0 1-.564 2.1zm20.784 12l-.561-.147-10.392-6a1.128 1.128 0 0 1-.414-1.539 1.135 1.135 0 0 1 1.539-.414l10.392 6a1.127 1.127 0 0 1-.564 2.1zm10.68 6.168l-.561-.153-.291-.165a1.123 1.123 0 0 1-.408-1.536 1.123 1.123 0 0 1 1.536-.411l.291.168a1.125 1.125 0 1 1-.567 2.097zM139.761 264.08l-.561-.15-10.392-6a1.123 1.123 0 0 1-.411-1.536 1.134 1.134 0 0 1 1.536-.414l10.392 6c.54.312.723.999.414 1.539a1.13 1.13 0 0 1-.978.561zm20.787 12l-.561-.15-10.395-6a1.123 1.123 0 0 1-.411-1.536 1.134 1.134 0 0 1 1.536-.414l10.395 6c.537.312.72.999.411 1.539-.21.36-.588.561-.975.561zm20.784 12l-.561-.15-10.395-6a1.125 1.125 0 0 1 1.125-1.95l10.395 6a1.127 1.127 0 0 1-.564 2.1zm20.784 12l-.561-.15-10.392-6a1.126 1.126 0 0 1-.414-1.536 1.137 1.137 0 0 1 1.539-.414l10.392 6a1.127 1.127 0 0 1-.564 2.1zM176.937 437.636l-.561-.15-10.395-6a1.126 1.126 0 0 1-.411-1.539 1.133 1.133 0 0 1 1.536-.411l10.395 6a1.126 1.126 0 0 1-.564 2.1zm20.784 12l-.561-.15-10.395-6a1.129 1.129 0 0 1-.411-1.539 1.131 1.131 0 0 1 1.536-.411l10.395 6a1.126 1.126 0 0 1-.564 2.1zM210 456.725l-.561-.15-1.887-1.089a1.127 1.127 0 0 1-.414-1.539 1.134 1.134 0 0 1 1.539-.411l1.887 1.089a1.127 1.127 0 0 1-.564 2.1zM51.408 273.746l-.561-.15-10.392-6a1.123 1.123 0 0 1-.411-1.536 1.13 1.13 0 0 1 1.536-.414l10.392 6a1.126 1.126 0 0 1-.564 2.1zm20.787 12l-.564-.15-10.392-6a1.123 1.123 0 0 1-.411-1.536 1.132 1.132 0 0 1 1.536-.414l10.392 6c.54.309.723.999.414 1.539-.21.36-.588.561-.975.561zm20.784 12l-.561-.15-10.395-6a1.126 1.126 0 0 1 1.125-1.95l10.395 6a1.125 1.125 0 1 1-.564 2.1zM313.02 244.109c-.39 0-.768-.201-.975-.561a1.13 1.13 0 0 1 .411-1.539l.624-.36a1.133 1.133 0 0 1 1.539.414 1.125 1.125 0 0 1-.414 1.536l-.624.36-.561.15zm-20.784 12a1.126 1.126 0 0 1-.564-2.1l10.392-6a1.129 1.129 0 0 1 1.536.414 1.123 1.123 0 0 1-.411 1.536l-10.392 6-.561.15zm-20.784 12a1.126 1.126 0 0 1-.564-2.1l10.392-6a1.126 1.126 0 0 1 1.125 1.95l-10.392 6-.561.15zm-20.784 12a1.13 1.13 0 0 1-.978-.561 1.127 1.127 0 0 1 .414-1.539l10.389-6a1.124 1.124 0 1 1 1.125 1.95l-10.389 6-.561.15zm-20.787 12c-.387 0-.765-.201-.975-.561a1.129 1.129 0 0 1 .411-1.539l10.392-6a1.129 1.129 0 0 1 1.536.414 1.123 1.123 0 0 1-.411 1.536l-10.392 6-.561.15zm-20.784 12a1.126 1.126 0 0 1-.564-2.1l10.392-6a1.129 1.129 0 0 1 1.536.414 1.123 1.123 0 0 1-.411 1.536l-10.392 6-.561.15z"/>
        <path fill="#DAD6C4" d="M418.05 183.607c-.39 0-.769-.2-.976-.56a1.13 1.13 0 0 1 .411-1.54l.624-.36a1.133 1.133 0 0 1 1.54.414 1.125 1.125 0 0 1-.415 1.536l-.624.36-.56.15zm-20.785 12a1.126 1.126 0 0 1-.564-2.1l10.392-6a1.129 1.129 0 0 1 1.536.414 1.123 1.123 0 0 1-.41 1.536l-10.393 6-.56.15zm-20.784 12a1.126 1.126 0 0 1-.564-2.1l10.392-6a1.126 1.126 0 0 1 1.125 1.95l-10.392 6-.56.15zm-20.784 12a1.13 1.13 0 0 1-.978-.56 1.127 1.127 0 0 1 .414-1.54l10.39-6a1.124 1.124 0 1 1 1.125 1.95l-10.39 6-.56.15zm-20.787 12c-.387 0-.765-.2-.975-.56a1.129 1.129 0 0 1 .411-1.54l10.392-6a1.129 1.129 0 0 1 1.536.414 1.123 1.123 0 0 1-.41 1.536l-10.393 6-.56.15zm-20.784 12a1.126 1.126 0 0 1-.564-2.1l10.392-6a1.129 1.129 0 0 1 1.536.414 1.123 1.123 0 0 1-.41 1.536l-10.393 6-.56.15z"/>
        <path fill="#DAD6C4" d="M523.05 123.109c-.39 0-.769-.201-.976-.561a1.13 1.13 0 0 1 .411-1.539l.624-.36a1.133 1.133 0 0 1 1.54.414 1.125 1.125 0 0 1-.415 1.536l-.624.36-.56.15zm-20.785 12a1.126 1.126 0 0 1-.564-2.1l10.392-6a1.129 1.129 0 0 1 1.536.414 1.123 1.123 0 0 1-.41 1.536l-10.393 6-.56.15zm-20.784 12a1.126 1.126 0 0 1-.564-2.1l10.392-6a1.126 1.126 0 0 1 1.125 1.95l-10.392 6-.56.15zm-20.784 12a1.13 1.13 0 0 1-.978-.561 1.127 1.127 0 0 1 .414-1.539l10.39-6a1.124 1.124 0 1 1 1.125 1.95l-10.39 6-.56.15zm-20.787 12c-.387 0-.765-.201-.975-.561a1.129 1.129 0 0 1 .411-1.539l10.392-6a1.129 1.129 0 0 1 1.536.414 1.123 1.123 0 0 1-.41 1.536l-10.393 6-.56.15zm-20.784 12a1.126 1.126 0 0 1-.564-2.1l10.392-6a1.129 1.129 0 0 1 1.536.414 1.123 1.123 0 0 1-.41 1.536l-10.393 6-.56.15z"/>
        <path fill="#DAD6C4" d="M628.079 62.607c-.39 0-.768-.2-.975-.56a1.13 1.13 0 0 1 .41-1.54l.625-.36a1.133 1.133 0 0 1 1.539.414 1.125 1.125 0 0 1-.414 1.536l-.624.36-.561.15zm-20.784 12a1.126 1.126 0 0 1-.564-2.1l10.392-6a1.129 1.129 0 0 1 1.536.414 1.123 1.123 0 0 1-.411 1.536l-10.392 6-.561.15zm-20.784 12a1.126 1.126 0 0 1-.564-2.1l10.392-6a1.126 1.126 0 0 1 1.125 1.95l-10.392 6-.561.15zm-20.784 12a1.13 1.13 0 0 1-.978-.56 1.127 1.127 0 0 1 .414-1.54l10.389-6a1.124 1.124 0 1 1 1.125 1.95l-10.39 6-.56.15zm-20.787 12c-.387 0-.765-.2-.975-.56a1.129 1.129 0 0 1 .41-1.54l10.393-6a1.129 1.129 0 0 1 1.536.414 1.123 1.123 0 0 1-.411 1.536l-10.392 6-.561.15zm-20.784 12a1.126 1.126 0 0 1-.564-2.1l10.392-6a1.129 1.129 0 0 1 1.536.414 1.123 1.123 0 0 1-.411 1.536l-10.392 6-.561.15z"/>
        <path fill="#DAD6C4" d="M732.079 2.607c-.39 0-.768-.2-.975-.56a1.13 1.13 0 0 1 .41-1.54l.625-.36a1.133 1.133 0 0 1 1.539.414 1.125 1.125 0 0 1-.414 1.536l-.624.36-.561.15zm-20.784 12a1.126 1.126 0 0 1-.564-2.1l10.392-6a1.129 1.129 0 0 1 1.536.414 1.123 1.123 0 0 1-.411 1.536l-10.392 6-.561.15zm-20.784 12a1.126 1.126 0 0 1-.564-2.1l10.392-6a1.126 1.126 0 0 1 1.125 1.95l-10.392 6-.561.15zm-20.784 12a1.13 1.13 0 0 1-.978-.56 1.127 1.127 0 0 1 .414-1.54l10.389-6a1.124 1.124 0 1 1 1.125 1.95l-10.39 6-.56.15zm-20.787 12c-.387 0-.765-.2-.975-.56a1.129 1.129 0 0 1 .41-1.54l10.393-6a1.129 1.129 0 0 1 1.536.414 1.123 1.123 0 0 1-.411 1.536l-10.392 6-.561.15zm-20.784 12a1.126 1.126 0 0 1-.564-2.1l10.392-6a1.129 1.129 0 0 1 1.536.414 1.123 1.123 0 0 1-.411 1.536l-10.392 6-.561.15zM313.926 396.725a1.127 1.127 0 0 1-.564-2.1l.624-.36a1.129 1.129 0 0 1 1.536.414 1.124 1.124 0 0 1-.411 1.536l-.624.36-.561.15zm-20.784 12a1.127 1.127 0 0 1-.564-2.1l10.392-6a1.132 1.132 0 0 1 1.536.414 1.126 1.126 0 0 1-.411 1.536l-10.392 6-.561.15zm-20.784 12a1.13 1.13 0 0 1-.978-.561 1.13 1.13 0 0 1 .414-1.539l10.389-6a1.124 1.124 0 1 1 1.125 1.95l-10.389 6-.561.15zm-20.787 12a1.125 1.125 0 0 1-.564-2.1l10.392-6a1.129 1.129 0 0 1 1.536.414 1.12 1.12 0 0 1-.411 1.536l-10.392 6-.561.15zm-20.784 12c-.39 0-.768-.201-.975-.561a1.13 1.13 0 0 1 .411-1.539l10.392-6a1.129 1.129 0 0 1 1.536.414 1.123 1.123 0 0 1-.411 1.536l-10.392 6-.561.15zm-20.784 12a1.127 1.127 0 0 1-.564-2.1l10.392-6a1.132 1.132 0 0 1 1.536.414 1.123 1.123 0 0 1-.411 1.536l-10.392 6-.561.15zM170.94 234.077a1.127 1.127 0 0 1-.564-2.1l5.235-3.021a1.132 1.132 0 0 1 1.536.414 1.13 1.13 0 0 1-.411 1.539l-5.235 3.021-.561.147zm-20.784 12.003a1.127 1.127 0 0 1-.564-2.1l10.392-6c.54-.3 1.227-.126 1.536.414.312.54.126 1.227-.411 1.536l-10.392 6-.561.15zm-20.784 12a1.127 1.127 0 0 1-.564-2.1l10.392-6a1.132 1.132 0 0 1 1.536.414c.312.54.126 1.227-.411 1.536l-10.392 6-.561.15zM142.545 278.36a1.13 1.13 0 0 1-.978-.561 1.127 1.127 0 0 1 .414-1.539l10.389-6a1.124 1.124 0 1 1 1.125 1.95l-10.389 6-.561.15zm-20.787 12a1.125 1.125 0 0 1-.564-2.1l10.392-6a1.129 1.129 0 0 1 1.536.414 1.123 1.123 0 0 1-.411 1.536l-10.392 6-.561.15zm-20.784 12a1.126 1.126 0 0 1-.564-2.1l10.392-6a1.129 1.129 0 0 1 1.536.414 1.123 1.123 0 0 1-.411 1.536l-10.392 6-.561.15zM25.08 276.947a1.125 1.125 0 0 1-.564-2.1l10.395-6a1.132 1.132 0 0 1 1.536.414 1.13 1.13 0 0 1-.411 1.539l-10.395 6-.561.147zm-20.781 12a1.13 1.13 0 0 1-.978-.561 1.128 1.128 0 0 1 .414-1.539l10.392-6c.54-.3 1.227-.123 1.536.414a1.13 1.13 0 0 1-.411 1.539l-10.392 6-.561.147zm-20.787 12c-.387 0-.765-.201-.975-.561a1.13 1.13 0 0 1 .411-1.539l10.392-6c.54-.3 1.227-.126 1.536.414.312.54.129 1.227-.411 1.539l-10.392 6-.561.147zm-20.784 12a1.127 1.127 0 0 1-.564-2.1l10.392-6a1.127 1.127 0 0 1 1.125 1.953l-10.392 6-.561.147zm-20.784 12a1.127 1.127 0 0 1-.564-2.1l10.392-6a1.127 1.127 0 0 1 1.125 1.953l-10.392 6-.561.147zm-20.784 12a1.127 1.127 0 0 1-.564-2.1l10.392-6c.54-.3 1.227-.126 1.536.414a1.13 1.13 0 0 1-.411 1.539l-10.392 6-.561.147zm-20.784 12a1.13 1.13 0 0 1-.978-.561 1.128 1.128 0 0 1 .414-1.539l10.389-6a1.134 1.134 0 0 1 1.539.414c.309.54.126 1.227-.414 1.539l-10.389 6-.561.147z"/>
        <path fill="#FFC900" d="M189.876 228.611c-2.649 0-5.16-.606-7.065-1.704-2.1-1.212-3.258-2.895-3.258-4.731 0-1.839 1.158-3.519 3.258-4.731 3.81-2.199 10.32-2.199 14.133 0 2.1 1.212 3.255 2.892 3.255 4.731 0 1.836-1.155 3.519-3.255 4.731-1.905 1.098-4.416 1.704-7.068 1.704z"/>
        <path fill="#FA5932" d="M152.871 429.35c-2.649 0-5.16-.606-7.065-1.704-2.1-1.215-3.258-2.895-3.258-4.731 0-1.839 1.158-3.519 3.258-4.734 3.813-2.196 10.32-2.196 14.133 0 2.1 1.215 3.255 2.895 3.255 4.734 0 1.836-1.155 3.516-3.255 4.731-1.905 1.098-4.416 1.704-7.068 1.704z"/>
        <g>
            <path fill="#FFEFDD" d="M377.073 404.538c-14.628-8.016-14.367-16.326.579-18.552 2.517-.375 5.292-.555 8.235-.555 14.523 0 33.15 4.368 45.315 11.031 14.628 8.016 14.367 16.326-.576 18.552-2.517.375-5.289.555-8.232.555-14.523-.003-33.153-4.365-45.321-11.031z"/>
            <path fill="#E09D64" d="M392.481 250.803l-3.213.852v4.38l2.181 7.161 4.002 5.676 9.615-1.68 3.291-5.676-5.676-9.294-10.2-1.419"/>
            <path fill="#FCCDA5" d="M423.681 310.011c-.942.549-4.77 2.613-4.695 3.969.465 3.03 3.729 7.296 3.729 7.296s-2.358 6.315 3.582 8.094c1.476.435 8.193-2.1 3.774-10.938-1.377-1.818-5.454-5.682-6.39-8.421"/>
            <path fill="#080808" d="M428.76 398.07c-2.244.201-10.206 1.278-10.206 1.278s.576 8.841 2.712 10.26c2.124 1.419 7.494-.774 7.494-.774s10.764 1.221 13.212-2.136c.327-1.284-.927-3.369-2.046-4.431-1.128-1.068-10.341-1.113-11.166-4.197"/>
            <path fill="#FFC900" d="M426.948 360.054c.45-3.636-4.428-31.851-12.372-51.165-1.788-1.413-16.677 15.861-16.677 15.861s10.071 27.687 14.553 37.038c.39 15.879 2.127 32.625 2.907 36.399 6.39 5.904 15.198-1.362 15.198-1.362s-4.062-33.138-3.609-36.771"/>
            <path fill="#080808" d="M366.576 381.729s-.972 5.907-.72 8.421c.255 2.514 6.819 13.071 13.014 14.715 6.192 1.641 6.861-2.874 6.873-4.368.009-3.372-6.972-9.087-7.422-13.671-1.704-1.107-11.745-5.097-11.745-5.097"/>
            <path fill="#F3AC36" d="M377.643 356.022s-5.973 4.068-6.795 6.945c-.819 2.88-5.469 17.664-5.469 19.152 3.87 9.867 13.875 4.263 13.875 4.263s7.815-20.589 10.647-23.304c2.826-2.709 5.799-18.699 9.678-34.65 8.001-3.285 14.595-19.146 14.595-19.146l.246-4.752-35.166 10.902s-3.549 28.032-1.611 40.59"/>
            <path fill="#FA5932" d="M405 260.298s-.063 3.993-3.486 5.475c-3.417 1.485-11.085-2.736-11.085-2.736l6.057 53.328 14.835-7.476-1.302-45.054-5.019-3.537"/>
            <path fill="#080808" d="M394.677 318.432l17.883-8.61 1.86-5.292-19.743 9.555v4.347"/>
            <path fill="#030303" d="M416.937 262.281c-.45-10.59-10.389-9.546-10.389-9.546l4.905 19.017.519 30.417s3.507 9.363 4.455 11.874c6.51.513 9.87-4.131 9.87-4.131s-5.289-17.94-8.004-21.294c.906-3.744-1.185-22.362-1.356-26.337"/>
            <path fill="#242424" d="M406.422 254.805l-4.131 2.454s4.302 9.033 5.721 16.911c1.419 7.86 0 37.935 0 38.838 5.637-1.803 8.475-6.45 8.475-6.45s2.451-25.389.516-34.806c-1.938-9.429-10.581-16.947-10.581-16.947"/>
            <path fill="#030303" d="M388.998 253.449c0 .585-.258 3.81-.258 3.81l7.809 8.514s1.548-2.643.924-4.578c-.627-1.938-6.156-3.225-8.475-7.746"/>
            <path fill="#242424" d="M388.74 257.259s-3.837 4.239-10.44 8.814c.045-1.386-.657 17.604-.657 17.604s2.451 5.973 2.451 15.651c0 9.681-1.038 14.841-1.038 14.841s4.779 5.811 11.202 5.811 12.618-4.518 12.618-4.518 1.221-29.04-.972-40.269-13.164-17.934-13.164-17.934"/>
            <path fill="#FCCDA5" d="M405.516 235.701l-6.387-2.193-5.55.516-6.648 5.49v5.805s.267 1.65.645 4.005c.378 2.343 3.678 3.285 3.678 3.285s4.197 6.903 12.714 7.683c1.29.114 3.291-1.167 3.549-1.935.258-.777.966-11.877 0-14.46.516-1.29-2.001-8.196-2.001-8.196"/>
            <path fill="#603913" d="M389.904 232.158c-6.237 3.186-4.2 11.229-4.2 11.229s.84 4.959 1.872 5.937c.408.375-1.032-4.329.903-4.455 1.938-.132 1.938 3.093 3.036 2.58-.261-4.134 2.967-3.096 3.291-7.356 2.322-.321 6.129-.261 7.74-1.224 1.617-.969 2.97-3.168 2.97-3.168s-4.647-9.159-15.612-3.543"/>
            <path fill="#F0C6B4" d="M389.769 328.536s.42-2.655 0-3.621c-.417-.978-6.294-3.639-6.294-3.639l-5.832 2.169s3.261 6.408 6.663 9.054c3.414 2.643 7.434 3.741 9.594 2.703 2.16-1.032-4.131-6.666-4.131-6.666"/>
            <path fill="#030303" d="M372.972 271.002c-2.697 3.774-11.529 28.617-11.331 30.909.291 8.001 14.964 24.519 14.964 24.519s6.231 0 7.23-6.708c0 0-7.581-13.587-10.29-17.844 5.226-8.808 10.29-20.745 10.29-20.745s1.776-11.361-1.548-14.328c-3.324-2.97-7.098 1.098-9.315 4.197"/>
            <path fill="#25A4C4" d="M388.644 322.491c-8.328 1.455-10.26 8.037-10.26 8.037l5.709 10.458 11.52-6.195s-3.636-13.158-6.969-12.3"/>
            <path fill="#1F8BA6" d="M387.483 321.276s6.153 5.766 8.13 10.902c-.678-6.585-8.13-10.902-8.13-10.902M379.935 331.713c3.483 5.787 10.494 5.862 10.494 5.862s-7.593-1.914-10.494-5.862"/>
            <g transform="translate(314 405)">
                <mask id="b" fill="#fff">
                    <use xlink:href="#a"/>
                </mask>
                <path fill="#FFEFDD" d="M-3.563 35.103h90.189V.831H-3.563z" mask="url(#b)"/>
            </g>
            <path fill="#FCCDA5" d="M365.736 284.391l-3.924-6.669-5.598-4.908-5.49 3.729s2.226 3.009 2.454 3.729c1.533 4.251-2.454 7.758-2.454 7.758l1.572 5.883 8.058 7.161 8.232-4.218-3.642-7.362.792-5.103"/>
            <path fill="#C2A091" d="M355.107 275.43s-1.179 1.293-1.245 2.271c.621 2.358 2.721 3.876 4.32 3.978 1.833 5.334 7.08 4.872 7.08 4.872s1.551-3.147 1.164-3.309c-.393-.159-11.319-7.812-11.319-7.812"/>
            <path fill="#FCCDA5" d="M408.633 301.407c-2.055.789-3.897 1.776-7.098 3.822-12.501 3.888-13.47 2.958-22.938 7.326-.99-3.243-2.907-8.277-4.551-14.655-.456-6.462-1.614-11.949-3.357-13.467-1.656-1.368-5.745-1.185-5.745-1.185s3.264 21.327 3.828 25.029c.639 4.554 3.729 11.373 3.729 11.373s.546 1.365 2.277 2.007c5.274.087 26.844-11.106 26.844-11.106s3.591.204 5.004-.27c1.407-.474 4.104-2.484 4.104-2.484s.675 1.887 2.064 1.593c1.383-.294 2.319-4.707 1.296-6.501-1.023-1.809-3.21-1.761-5.457-1.482"/>
            <path fill="#B01210" d="M399.108 314.448v.009c-.366-.15-.843-.105-1.35.186l-15.648 9.042c-.894.51-1.692 1.632-1.959 2.766l-2.889 12.027c-.243 1.026-.012 1.797.492 2.103l4.323 2.979 3.15-6.138-.432-.198 15.849-9.147c1.392-.804 2.379-2.946 1.956-4.23l-.633-1.896 1.08-.369.732-3.927-4.641-3.18-.03-.027"/>
            <path fill="#F02422" d="M404.082 318.159c-.27-.813-1.065-1.029-1.956-.504l-15.654 9.03c-.894.522-1.677 1.638-1.953 2.775l-2.889 12.021c-.432 1.776.558 2.772 1.95 1.974l21.426-12.372c1.395-.807 2.385-2.94 1.965-4.23l-2.889-8.694"/>
            <path fill="#FFB700" d="M394.92 327.357l-.852.495c-.549.324-.996 1.086-.996 1.737v1.626c0 .636.447.897.996.576l.852-.483c.549-.324.996-1.098.996-1.737v-1.629c0-.642-.447-.906-.996-.585"/>
            <path fill="#FF6E8F" d="M397.056 317.13c0 .297.246.537.546.537.306 0 .543-.24.543-.537v-4.821l-1.089.534v4.287"/>
            <path fill="#F02422" d="M391.212 307.11l-.123.072c-3.516 2.031-6.375 7.005-6.375 11.061v6.018a.545.545 0 0 0 1.089 0v-6.018c0-3.723 2.619-8.253 5.844-10.11l.123-.078c1.125-.645 2.055-1.029 2.931-.846l1.557-.42c-1.401-.933-3.231-.723-5.046.321"/>
            <path fill="#FFF" d="M385.977 427.491l-16.443-2.58c.057 2.94.078 5.367 1.209 6.678 1.515 1.758 8.961.459 8.961.459s13.269 2.49 13.614-.132c.456-3.537-3.783-2.79-7.341-4.425"/>
            <path fill="#FCCDA5" d="M385.977 427.491c-1.425-.645-5.412-2.64-6.663-4.473-6.414-18.12.456-33.822-2.355-40.038-1.539-2.388.255-11.937-1.311-28.887-.39-2.13-17.994 4.947-17.994 4.947l9.621 28.782s-1.929 6.477-1.962 10.995c-.021 2.736 2.301 11.409 3.762 19.92.369 2.163.435 5.265.459 6.174 1.536 4.845 21.801 5.163 16.443 2.58"/>
            <path fill="#FFF" d="M324.621 401.934s-3.927 1.194-4.122 6.297c-.189 5.103.804 8.874 1.971 12.387 2.841 6.453 9.411 4.197 10.197 2.136.378-.996-.816-2.475-2.016-4.368l-6.03-16.452"/>
            <path fill="#FCCDA5" d="M338.751 380.757s-4.413 1.473-7.062 4.317c-2.652 2.85-7.068 16.86-7.068 16.86s-3.585 2.517-2.091 9.111c2.454 11.943 8.121 7.341 8.121 7.341s-1.32-3.801-2.079-5.712c-.03-.6.021-1.026.171-1.668 5.202-17.982 16.992-20.433 18.645-25.341 1.656-4.914 10.497-18.549 11.58-34.35l-20.217-6.33c-2.007 6.846 0 35.772 0 35.772"/>
            <path fill="#FA5932" d="M371.622 330.318c-2.742-.492-27.942 5.628-27.942 5.628s-3.399 4.266-5.712 9.039c-2.316 4.773-.522 13.005-.522 13.005s.228 4.449 10.725 6.543c10.503 2.094 26.697-8.376 27.477-10.44-.648-8.139-4.578-14.028-4.026-23.775"/>
            <path fill="#333" d="M345.567 333.681c-.753.867-1.446 1.671-1.887 2.265 17.97 11.184 27.942-5.628 27.942-5.628.012-.792 0-1.575-.024-2.355l-26.031 5.718"/>
            <path fill="#FCCDA5" d="M349.254 328.65c-.153.972-3.285 4.557-3.687 5.031 10.326 9.522 26.034-2.676 26.031-5.718-.036-.975-.153-3.255-.201-5.013l-22.143 5.7"/>
            <path fill="#FFEEB1" d="M365.247 284.067c-2.748 4.743-.492 10.134-2.172 11.808-2.61 2.586-7.053-5.301-12.351-7.845-2.94 3.822-8.019 9.366-8.019 9.366l2.85 21.375s2.91 4.971 3.699 9.879c12.165 5.787 22.143-5.7 22.143-5.7-.111-3.492-.03-8.064 1.014-9.804.681-.207 5.592-1.179 5.592-7.362 0-5.889-11.379-12.657-11.379-21.717-1.869-1.344-.888-.825-1.377 0"/>
            <path fill="#FCCDA5" d="M369.957 263.883c-.654-1.014-5.691-1.47-5.691-1.47l-7.95 3.528-3.756 9.441s2.811 6.396 6.312 5.478c.162 5.625 10.101 6.51 11.742 5.103 1.632-1.404 1.797-6.183 1.797-6.183s1.146-.816 1.179-1.47c.03-.654-1.665-4.221-1.665-4.221s.975-6.381-1.968-10.206"/>
            <path fill="#603913" d="M346.188 260.376c-17.937 6.156-4.197 25.785-3.708 26.565 2.847-.39 5.592-10.89 8.445-11.184 2.844-.294-1.32-15.063-4.737-15.381"/>
            <path fill="#FF6E8F" d="M348.369 259.665c-2.169 0-3.927 1.899-3.927 4.236 0 2.34 1.758 4.242 3.927 4.242s3.927-1.902 3.927-4.242c0-2.337-1.758-4.236-3.927-4.236"/>
            <path fill="#603913" d="M348.273 262.023c-8.247 16.287 4.905 18.249 4.905 18.249s1.764-.885 1.176-4.908c2.256-1.767 2.745 2.649 6.183 2.259.744-.087 4.518-4.026 3.339-8.244 6.672-1.569 6.081-5.496 6.081-5.496s-10.5-13.74-21.684-1.86"/>
            <path fill="#FCCDA5" d="M346.998 295.32c-6.543-.786-8.505 13.863-8.505 13.863s-3.537 17.796-4.578 19.368c-2.226 7.854 3.006 22.764 2.481 28.521-.651 2.097-.714 8.766.135 9.423.852.654 4.707 5.757 6.801 5.232 2.094-.525 1.176-7.719 1.176-7.719s1.467-3.321.978-3.915c-.492-.603-.45-.663-2.937-4.59-2.49-3.924.783-17.142-1.179-24.99 3.795-7.587 10.5-26.43 10.5-26.43s1.668-7.98-4.872-8.763"/>
            <path fill="#FFC900" d="M355.53 314.319c2.553 9.522 10.896 4.224 10.896 4.224s-7.263 3.432-10.896-4.224"/>
            <path fill="#FFEFDD" d="M333.321 476.805c-14.946-1.488-36.207-13.392-47.487-26.595-10.497-12.285-8.649-21.357 3.702-21.357.924 0 1.905.051 2.943.156 14.946 1.488 36.207 13.398 47.487 26.595 10.494 12.285 8.646 21.354-3.702 21.354-.924 0-1.905-.051-2.943-.153z"/>
            <path fill="#FCCDA5" d="M317.988 313.353l-7.557 1.278.132 5.508 3.96 7.716 7.401-.042 3.147-5.619-3.288-5.259-3.795-3.582"/>
            <path fill="#FFEFDD" d="M348.741 370.716s-4.89-.054-4.425 2.589c-.135 3.561 2.901 9.921 3.498 13.914 1.281.57 4.293 2.07 5.529 1.632 1.23-.432 2.58-5.538 1.482-8.571-1.104-3.033-6.084-9.564-6.084-9.564"/>
            <path fill="#030303" d="M334.848 321.765c-.918-5.922-8.85-6.663-8.85-6.663s3.669 38.946 5.814 40.614c2.151 1.677 9.906 17.733 9.906 17.733s3.228.96 7.485-3.159c-.87-1.089-10.803-25.659-10.803-25.659s-2.631-16.944-3.552-22.866"/>
            <path fill="#FFEFDD" d="M287.877 379.197l-4.893-1.743-.588 2.724-2.493 4.212s-1.11 2.763-.6 4.488c.507 1.725 3.315 6.048 4.632 5.916 1.317-.135 1.674-4.965 1.674-4.965s2.433-.147 2.901-1.83c.474-1.68-1.293-5.889-1.293-5.889l.66-2.913"/>
            <path fill="#FFF" d="M297.144 422.391c-1.68.879-3.696.945-3.999 3.522-.327 2.826 4.785 6.987 4.785 6.987s6.87 13.659 11.556 10.446c2.868-1.965.309-5.367-2.043-8.58l-10.299-12.375"/>
            <path fill="#FCCDA5" d="M306.543 425.268l-5.559-6.681c-1.14 1.44-2.235 2.67-3.336 3.504-.162.117-.162.117-.504.3.075 9.435 10.281 18.435 10.299 12.375-.159-.219-2.856-3.939-2.799-5.406.168-1.41.861-2.775 1.899-4.092"/>
            <path fill="#894A0F" d="M315.294 378.258s5.163 23.952-2.088 27.795c-5.361 2.838-8.994 8.49-12.222 12.534 0 0-1.023 7.347 5.559 6.681 1.02-3.417 17.106-11.412 18.282-16.329 1.425-5.988 9.414-26.781 8.874-40.428-1.395-2.307-18.405 9.747-18.405 9.747"/>
            <path fill="#FFF" d="M336.216 468.477l-11.52-3.873c.792 3.48 1.668 6.606 2.916 8.142 6.315 7.767 12.171 3.195 13.143 2.067.873-2.754-1.383-3.801-4.539-6.336"/>
            <path fill="#FCCDA5" d="M332.07 464.445c-.798-.969-1.47-2.502-2.04-4.407l-6.036 1.362c.231 1.071.513 2.415.702 3.204 6.3 11.958 13.422 5.712 11.52 3.873-1.479-1.254-2.715-2.295-4.146-4.032"/>
            <path fill="#B9691B" d="M333.699 368.511c0-.735 0-2.142-.006-3.933l-28.155 2.64c-.684 1.158-1.626 3.012-2.865 6.519-2.361 14.031 11.772 44.955 11.637 47.829.459 6.966-1.245 8.592.027 14.943.759 3.753 4.653 9.186 7.479 17.694.714 2.181 2.049 6.615 2.178 7.197 4.107 2.535 6.036-1.362 6.036-1.362-2.964-9.912-3.327-30.024-6.063-34.872 2.793-26.067-2.115-41.493-2.115-41.493s9.96-5.688 11.847-15.162"/>
            <path fill="#171717" d="M307.008 364.14c-.105 1.245-.729 1.725-1.47 3.078 10.335 12.639 28.155-2.64 28.155-2.64-.003-.909-.003-1.926-.003-3l-26.682 2.562"/>
            <path fill="#FFC900" d="M322.335 314.934s2.106 9.024-1.134 10.158c-3.243 1.134-10.137-4.443-10.137-4.443l-3.921 2.607s.213 39.615-.135 40.884c7.284 13.155 26.682-2.562 26.682-2.562l-.021-17.43s3.606-1.533 3.864-7.023c.261-5.493-11.871-15.228-11.52-22.899-.438-1.371-3.678.708-3.678.708"/>
            <path fill="#A62626" d="M319.407 350.814s13.653-4.86 13.218-6.156c-.432-1.299-13.218 6.156-13.218 6.156"/>
            <path fill="#242424" d="M324.447 313.917c-3.753-1.749-4.383 4.311-3.564 5.235 15.348 19.977 7.65 41.523 7.65 41.523l8.829-3.909s.927-13.125.327-22.974c-.462-7.59-9.498-18.129-13.242-19.875"/>
            <path fill="#242424" d="M307.923 317.562s-.447 4.2-7.389 8.409c.048 1.923.411 20.004 1.356 21.741 4.173 10.332 1.38 13.245 1.38 13.245s9.513 8.022 19.86 1.821c3.372-13.203 2.166-31.533-12.984-46.296-1.359-1.731-2.223 1.08-2.223 1.08"/>
            <path fill="#FFEFDD" d="M323.304 298.536l-8.499 1.038-3.747 7.293-.816 7.626s3.522 4.356 6.792 5.949c2.001.978 5.265.837 6.126-.825.867-1.662 1.749-3.027 1.749-3.027l2.298-2.151 1.809-6.528-1.386-6.747-4.326-2.628"/>
            <path fill="#F5B400" d="M323.187 292.563c-4.356-3.555-10.194-.306-10.194-.306s-9.264 1.311-9.729 15.339c-.294 8.907 8.802 12.615 8.802 12.615s-1.527-12.123 3.777-17.604c2.217-2.295 5.379.546 5.379.546 5.991-4.236 6.267 3.174 5.61 5.964.795 2.655-1.923 7.473-1.923 7.473s4.224 2.067 5.067-9.534c.144-3.084-1.197-10.032-6.789-14.493"/>
            <path fill="#D49C00" d="M319.677 300.429c1.353.456-5.268-7.119-5.268-7.119s3.915 6.66 5.268 7.119"/>
            <path fill="#030303" d="M303.444 325.995c-8.154-2.055-9.309 12.039-9.309 12.039l-6.714 17.364s-5.442 21.75-5.274 22.35c3 5.148 8.598 1.089 8.598 1.089l5.88-20.649 10.833-21.576s4.14-8.565-4.014-10.617"/>
        </g>
    </g>
</svg>
