<svg xmlns="http://www.w3.org/2000/svg" width="154" height="147" viewBox="0 0 154 147">
    <g fill="none" fill-rule="evenodd">
        <path fill="#000" fill-opacity=".15" d="M121.699 4.998l-.278-.073-5.142-2.909a.54.54 0 0 1-.205-.746.57.57 0 0 1 .762-.199l5.142 2.909c.266.15.358.484.204.744a.559.559 0 0 1-.483.274zm10.286 5.817l-.277-.073-5.143-2.908a.54.54 0 0 1-.205-.746.568.568 0 0 1 .762-.2l5.142 2.909c.266.15.358.484.204.745a.559.559 0 0 1-.483.273zm10.285 5.817l-.28-.072-5.142-2.909a.54.54 0 0 1-.203-.746.566.566 0 0 1 .76-.2l5.142 2.91a.54.54 0 0 1 .205.744.559.559 0 0 1-.482.273zm10.285 5.818l-.278-.073-5.142-2.909a.54.54 0 0 1-.205-.746.57.57 0 0 1 .761-.2l5.143 2.91a.54.54 0 0 1 .204.744.563.563 0 0 1-.483.274zm10.284 5.817l-.277-.073-5.143-2.909a.54.54 0 0 1-.205-.746.569.569 0 0 1 .762-.199l5.142 2.909c.266.15.358.484.204.744a.559.559 0 0 1-.483.274zM169.442 32l-.277-.073-1.46-.827a.536.536 0 0 1-.203-.745.562.562 0 0 1 .76-.198l1.46.826a.538.538 0 0 1 .203.745.56.56 0 0 1-.483.272zM103.916 5.08l-.288.07-5.338 2.853a.514.514 0 0 0-.213.73c.162.259.518.34.79.197l5.339-2.852a.515.515 0 0 0 .212-.732.595.595 0 0 0-.502-.267zM113.42 0l-.289.071-4.165 2.227a.514.514 0 0 0-.213.73c.162.258.518.341.791.197L113.71.998a.513.513 0 0 0 .213-.73.596.596 0 0 0-.502-.268z"/>
        <path fill="#DAD6C4" d="M52.125 116.14a.558.558 0 0 1-.484-.29.591.591 0 0 1 .204-.792l3.317-1.984a.556.556 0 0 1 .764.213.592.592 0 0 1-.206.792l-3.316 1.984-.279.077zm-10.313 6.172a.558.558 0 0 1-.484-.29.59.59 0 0 1 .206-.792l5.155-3.086a.555.555 0 0 1 .763.213.59.59 0 0 1-.205.792l-5.155 3.086-.28.077zm-10.314 6.172a.562.562 0 0 1-.484-.29.592.592 0 0 1 .205-.792l5.158-3.086a.554.554 0 0 1 .763.213.591.591 0 0 1-.204.792l-5.158 3.086-.28.077zm-10.312 6.172a.562.562 0 0 1-.485-.29.592.592 0 0 1 .205-.792l5.157-3.086a.556.556 0 0 1 .764.213.592.592 0 0 1-.206.792l-5.156 3.086-.279.077zm-10.314 6.172a.558.558 0 0 1-.484-.29.591.591 0 0 1 .204-.792l5.158-3.086a.556.556 0 0 1 .764.213.592.592 0 0 1-.206.792l-5.158 3.086-.278.077zM.559 147a.558.558 0 0 1-.484-.29.59.59 0 0 1 .206-.792l5.156-3.086a.553.553 0 0 1 .762.213.591.591 0 0 1-.204.792L.84 146.923l-.28.077z"/>
        <path fill="#000" fill-opacity=".15" d="M97.414 9.747a.562.562 0 0 1-.489-.288.58.58 0 0 1 .206-.784l1.022-.6a.565.565 0 0 1 .772.21.581.581 0 0 1-.208.786l-1.022.599-.28.077zm-10.426 6.127a.562.562 0 0 1-.489-.288.578.578 0 0 1 .208-.784l5.212-3.063a.565.565 0 0 1 .77.21.581.581 0 0 1-.206.786l-5.212 3.062-.283.077zM76.564 22a.562.562 0 0 1-.489-.288.58.58 0 0 1 .208-.784l5.212-3.063a.563.563 0 0 1 .77.21.581.581 0 0 1-.206.785l-5.212 3.063-.283.077z"/>
        <path fill="#FFC900" d="M71 29c-1.284 0-2.5-.284-3.422-.798C66.56 27.633 66 26.847 66 25.987c0-.86.56-1.647 1.578-2.216 1.845-1.028 5-1.028 6.844 0C75.441 24.34 76 25.126 76 25.987c-.001.86-.56 1.646-1.578 2.215-.922.514-2.137.798-3.421.798z"/>
        <path fill="#A62626" d="M59 58.499c0 .826-.67 1.501-1.501 1.501A1.5 1.5 0 1 1 59 58.499M60 55.503A1.5 1.5 0 1 1 58.499 54c.832 0 1.501.676 1.501 1.503M119 58.502c0 .83-.673 1.498-1.501 1.498A1.496 1.496 0 0 1 116 58.502c0-.828.67-1.502 1.499-1.502.828 0 1.501.674 1.501 1.502M118 55.497c0 .83-.664 1.503-1.5 1.503a1.5 1.5 0 1 1 0-3c.836 0 1.5.67 1.5 1.497"/>
        <path fill="#A62626" d="M117.499 59.27l-.052-3.27-.19.737v2.548c-.714.108-1.257.667-1.257 1.346 0 .755.672 1.369 1.499 1.369.831 0 1.501-.614 1.501-1.37 0-.646-.506-1.356-1.501-1.36M58.5 59.27l.054-3.27.191.737v2.548c.71.108 1.255.667 1.255 1.346 0 .755-.674 1.369-1.5 1.369-.829 0-1.5-.614-1.5-1.37 0-.646.506-1.356 1.5-1.36"/>
        <path fill="#000" d="M58 54v2.001c0 4.347 2.884 8.703 8.646 12.023 11.518 6.635 30.194 6.635 41.714 0C114.118 64.704 117 60.348 117 56V54H58"/>
        <path fill="#D63A3A" d="M116.79 55c.068.333.122.663.162.996-.41 3.984-3.282 7.901-8.592 10.948-11.518 6.597-30.196 6.597-41.714 0-5.322-3.047-8.186-6.964-8.592-10.948a9.54 9.54 0 0 1 .158-.996H58v1.115c0 4.319 2.884 8.642 8.646 11.94 11.518 6.593 30.194 6.593 41.714 0 5.758-3.298 8.64-7.621 8.64-11.94V55h-.21"/>
        <path fill="#000" d="M116.95 55c-.409-4.014-3.277-7.955-8.592-11.022-11.518-6.636-30.197-6.636-41.715 0-5.323 3.067-8.187 7.008-8.591 11.022-.48-4.675 2.39-9.451 8.591-13.02 11.518-6.64 30.197-6.64 41.715 0 6.198 3.569 9.066 8.345 8.592 13.02"/>
        <path fill="#232323" d="M117 54.999c-.411 4.01-3.288 7.953-8.607 11.02-11.537 6.642-30.249 6.642-41.786 0-5.331-3.067-8.2-7.01-8.607-11.02.405-4.014 3.274-7.955 8.607-11.022 11.537-6.636 30.249-6.636 41.786 0 5.325 3.067 8.198 7.008 8.607 11.022"/>
        <path fill="#000" d="M73 45v9.38c0 2.209 1.46 4.41 4.388 6.095 5.863 3.367 15.355 3.367 21.214 0C101.533 58.79 103 56.59 103 54.38V45H73"/>
        <path fill="#232323" d="M98.607 50.506c-5.859 3.325-15.351 3.325-21.214 0-5.857-3.314-5.857-8.697 0-12.015 5.863-3.321 15.355-3.321 21.214 0 5.857 3.318 5.857 8.701 0 12.015"/>
        <path fill="#D63A3A" d="M98.602 55.233c-5.859 3.442-15.351 3.442-21.214 0C74.461 53.513 73 51.255 73 49v3.187c0 2.253 1.46 4.506 4.388 6.235 5.863 3.437 15.355 3.437 21.214 0 2.931-1.73 4.398-3.982 4.398-6.235V49c0 2.255-1.467 4.512-4.398 6.233"/>
        <path fill="#D63A3A" d="M96 59.387s1.439 2.096.868 8.613l3.01-.945C100.49 61.304 98.6 57 98.6 57L96 59.387M100.857 55s4.95 3.5 9.143 3.314c-.395.908-.913 2.065-1.098 2.667-6.004.334-9.902-3.907-9.902-3.907L100.857 55M88.828 74.545V73h-.57v1.531c-.71.098-1.258.606-1.258 1.224 0 .686.67 1.245 1.5 1.245.832 0 1.5-.56 1.5-1.245 0-.592-.5-1.088-1.172-1.21M91.825 73.538V72h-.57v1.533c-.71.096-1.255.604-1.255 1.224 0 .686.673 1.243 1.495 1.243.832 0 1.505-.557 1.505-1.243 0-.597-.5-1.092-1.175-1.219M95.825 73.544V72h-.566v1.533c-.708.096-1.259.602-1.259 1.222 0 .69.674 1.245 1.5 1.245.829 0 1.5-.556 1.5-1.245 0-.595-.504-1.088-1.175-1.211M98.823 72.545V71h-.566v1.531c-.713.098-1.257.611-1.257 1.226 0 .686.67 1.243 1.498 1.243S100 74.443 100 73.757c0-.597-.504-1.088-1.177-1.212M102.824 71.543V70h-.564v1.532c-.715.097-1.26.607-1.26 1.223 0 .686.67 1.245 1.499 1.245.827 0 1.501-.559 1.501-1.245 0-.598-.502-1.089-1.176-1.212"/>
        <path fill="#D63A3A" d="M105.824 70.934V69h-.566v1.917A1.536 1.536 0 0 0 104 72.443c0 .859.672 1.557 1.501 1.557.827 0 1.499-.698 1.499-1.557 0-.741-.506-1.361-1.176-1.509M108.825 69.545V68h-.566v1.536c-.715.093-1.259.603-1.259 1.221 0 .684.67 1.243 1.501 1.243.832 0 1.499-.559 1.499-1.243 0-.596-.497-1.09-1.175-1.212M111.825 67.434V65h-.564v2.423c-.716.102-1.261.637-1.261 1.279 0 .716.672 1.298 1.502 1.298.828 0 1.498-.582 1.498-1.298 0-.623-.502-1.14-1.175-1.268M114.826 65.436V63h-.568v2.425c-.709.1-1.258.63-1.258 1.274 0 .72.672 1.301 1.499 1.301.83 0 1.501-.581 1.501-1.3 0-.618-.506-1.136-1.174-1.264"/>
        <path fill="#D63A3A" d="M116.825 63.259V60l-.566.66v2.589c-.716.112-1.259.675-1.259 1.363 0 .768.67 1.388 1.5 1.388.828 0 1.5-.62 1.5-1.388 0-.66-.502-1.212-1.175-1.353M58.177 62.26V59l.562.656v2.593c.716.106 1.261.674 1.261 1.364 0 .765-.67 1.387-1.5 1.387-.828 0-1.5-.622-1.5-1.387 0-.66.506-1.218 1.177-1.354M85.172 74.545V73h.57v1.531c.715.098 1.258.606 1.258 1.224C87 76.44 86.328 77 85.501 77 84.67 77 84 76.44 84 75.755c0-.592.504-1.088 1.172-1.21M81.176 73.545V72h.568v1.533c.711.098 1.256.607 1.256 1.224 0 .69-.672 1.243-1.501 1.243-.825 0-1.499-.554-1.499-1.243 0-.592.506-1.088 1.176-1.212M78.176 73.543V72h.566v1.532c.711.1 1.258.606 1.258 1.227 0 .684-.674 1.241-1.501 1.241-.827 0-1.499-.557-1.499-1.241 0-.595.504-1.091 1.176-1.216M74.17 72.54V71h.57v1.53c.71.099 1.26.609 1.26 1.227 0 .687-.672 1.243-1.499 1.243-.83 0-1.501-.556-1.501-1.243 0-.593.504-1.09 1.17-1.217M71.18 70.545V69h.562v1.535c.713.09 1.258.607 1.258 1.223 0 .685-.672 1.242-1.499 1.242-.827 0-1.501-.557-1.501-1.242 0-.596.506-1.09 1.18-1.213M68.178 69.54V68h.562v1.534c.715.092 1.26.602 1.26 1.222 0 .688-.672 1.244-1.501 1.244-.831 0-1.499-.556-1.499-1.244 0-.597.504-1.088 1.178-1.215M65.177 68.435V66h.567v2.422c.706.104 1.256.634 1.256 1.275 0 .72-.67 1.303-1.498 1.303-.83 0-1.502-.584-1.502-1.303 0-.62.506-1.135 1.177-1.262M62.178 66.437V64h.569v2.426c.71.1 1.253.633 1.253 1.279C64 68.42 63.33 69 62.499 69 61.672 69 61 68.42 61 67.705c0-.622.504-1.14 1.178-1.268"/>
        <path fill="#D63A3A" d="M60.172 64.26V61l.566.661v2.587c.716.11 1.262.673 1.262 1.362 0 .77-.68 1.39-1.503 1.39-.828 0-1.497-.62-1.497-1.39 0-.655.505-1.21 1.172-1.35"/>
        <path fill="#939598" d="M58.908 104.187c.28-.129.419-.305.405-.485h.003v-.345h-.26l-.064-.048c-.559-.327-1.599-.405-2.332-.183l-.446.213-.214.018v.345h.005c.009.147.114.292.335.42.48.282 1.319.364 2.01.242l1.099.636.551-.169v-.365l-1.092-.28"/>
        <path fill="#BCBEC0" d="M56.34 104.122c.479.283 1.319.362 2.01.241l1.098.637.552-.168-1.092-.641c.495-.236.567-.603.083-.885-.558-.323-1.598-.404-2.332-.177-.734.224-.876.671-.32.993"/>
        <path fill="#CF7C00" d="M163.594 64.81c-2.226-1.743-4.308-2.919-4.838-3.203-1.626-1.023-19.682-11.931-34.778-3.318-10.537 6.014-7.048 12.41-11.059 14.702-1.162.668-2.778 1.027-4.545 1.427V73.25L98 73.425l.004 9.293h.004c.004 5.595 7.917 9.62 7.917 9.62s11.125 7.505 24.782 3.47c5.964-2.362 5.484-5.77 8.385-7.484 3.934-2.334 14.893-.28 25.231-6.405 4.16-2.47 5.681-5.078 5.677-7.58v-9.53h-6.406"/>
        <path fill="#F5B400" d="M112.918 63.992c-2.952 1.682-8.784 1.396-12.849 4.869-6.956 7.958 5.856 14.481 5.856 14.481s11.125 7.497 24.78 3.469c5.965-2.371 5.485-5.777 8.386-7.488 3.934-2.334 14.893-.28 25.23-6.41 14.81-8.781-3.825-19.36-5.566-20.31-1.626-1.018-19.682-11.927-34.778-3.314-10.537 6.012-7.048 12.413-11.059 14.703"/>
        <path fill="#939598" d="M66.904 101.19c.283-.137.423-.31.407-.488h.005v-.346h-.257l-.07-.05c-.553-.324-1.596-.402-2.327-.18l-.448.214-.214.016v.346h.007c.007.145.11.293.333.418.477.283 1.314.368 2.01.243l1.096.637.554-.169v-.368l-1.096-.273"/>
        <path fill="#BCBEC0" d="M64.34 100.118c.477.284 1.314.365 2.01.242l1.096.64.554-.172-1.096-.64c.497-.238.57-.598.085-.88-.554-.324-1.596-.404-2.328-.185-.734.226-.88.672-.322.995"/>
        <path fill="#754C29" d="M117.98 76.338c3.815 2.177 9.83 2.22 13.43.102 3.6-2.121 3.425-5.6-.389-7.779-3.812-2.175-9.822-2.22-13.43-.099-3.601 2.116-3.427 5.598.389 7.776"/>
        <path fill="#603913" d="M126 76.917v-.411L117.797 74l-12.918 8.707L71 101.647 76.839 105l35.602-17.966-.04-1.368L126 76.917"/>
        <path fill="#3C2415" d="M76.369 104.532V103l-.738.468V105l.738-.468"/>
        <path fill="#754C29" d="M126 75.798L117.797 71 71 99.581 76.839 103 126 75.798"/>
        <path fill="#939598" d="M121 76.837v-.25L115 74v.247L120.67 77l.33-.163"/>
        <path fill="#BCBEC0" d="M121 76.833L115.329 74l-.329.163L120.67 77l.33-.167"/>
        <path fill="#939598" d="M113 81.841v-.245L107 79v.247L112.672 82l.328-.159"/>
        <path fill="#BCBEC0" d="M113 81.84L107.333 79l-.333.162L112.672 82l.328-.16"/>
        <path fill="#939598" d="M104 86.843v-.252L98 84v.247L103.67 87l.33-.157"/>
        <path fill="#BCBEC0" d="M104 86.835L98.329 84l-.329.162L103.67 87l.33-.165"/>
        <path fill="#939598" d="M96 91.84v-.246L90 89v.248L95.67 92l.33-.16"/>
        <path fill="#BCBEC0" d="M96 91.837L90.333 89l-.333.163L95.67 92l.33-.163"/>
        <path fill="#939598" d="M79 101.838v-.247L73 99v.246L78.667 102l.333-.162"/>
        <path fill="#BCBEC0" d="M79 101.835L73.325 99l-.325.162L78.667 102l.333-.165"/>
        <path fill="#CF7C00" d="M130.981 73c-.124-.86-.85-1.72-2.175-2.394-2.817-1.422-7.238-1.453-9.897-.065-1.146.597-1.78 1.37-1.892 2.157-.13-.964.488-1.95 1.892-2.68 2.659-1.383 7.08-1.352 9.897.064 1.595.803 2.323 1.878 2.175 2.918"/>
        <path fill="#1F1F1F" d="M131 72.657c-.106.838-.697 1.649-1.762 2.273-2.473 1.454-6.595 1.423-9.21-.074-1.236-.702-1.912-1.606-2.028-2.516.105-.828.695-1.639 1.762-2.267 2.475-1.458 6.591-1.425 9.213.068 1.233.708 1.909 1.612 2.025 2.516"/>
        <path fill="#FF9800" d="M154 63.402L140.846 56 138 57.589 151.146 65 154 63.402"/>
        <path fill="#939598" d="M63.909 103.192c.284-.138.42-.313.403-.49h.01v-.344h-.258l-.07-.052c-.557-.323-1.605-.405-2.333-.176l-.447.21-.214.018v.345h.007c.004.145.106.293.333.42.478.278 1.32.363 2.016.24l1.09.637.554-.172v-.362l-1.091-.274"/>
        <path fill="#BCBEC0" d="M61.343 102.122c.478.28 1.318.365 2.014.24l1.089.638.554-.169-1.09-.639c.495-.244.567-.605.085-.883-.557-.324-1.604-.408-2.332-.182-.74.224-.881.669-.32.995"/>
        <path fill="#CF7C00" d="M71.948 106.694l-5.748 3.71c-.444.285-1.212.314-1.714.055l-.016-.01c-.5-.254-.543-.696-.1-.983l5.753-3.705c.445-.287 1.217-.315 1.714-.057l.014.006c.5.263.545.699.097.984zm-11.594 1.383l-.018-.01c-.443-.288-.396-.728.104-.98l6.477-3.295c.497-.248 1.265-.228 1.71.063l.012.01c.446.29.401.727-.1.982l-6.475 3.287c-.502.254-1.27.232-1.71-.057zM69.462 101l-10.859 5.421c-.352.155-.632.34-.874.536H57v1.936c0 .408.188.819.577 1.198l1.692 1.596 2.783.978c1.777.613 4.074.364 5.336-.576L76 105.653v-1.839L69.462 101z"/>
        <path fill="#FFAD42" d="M60.441 105.639l6.476-3.317c.498-.259 1.266-.228 1.71.058l.012.012c.447.292.402.73-.1.988l-6.474 3.323c-.502.257-1.27.224-1.71-.061l-.018-.01c-.443-.29-.395-.736.104-.993zm9.683-1.336c.444-.288 1.216-.312 1.713-.06l.015.013c.5.257.544.7.096.99l-5.747 3.747c-.445.285-1.212.31-1.714.049l-.016-.006c-.5-.253-.543-.703-.1-.995l5.753-3.738zm-12.545 3.755l1.69 1.617 2.783.986c1.778.619 4.075.37 5.336-.583L76 103.584 69.84 100l-11.235 4.969c-1.65.732-2.091 2.057-1.026 3.089z"/>
        <path fill="#939598" d="M71.779 110.829l-.41-.242c-.562-.22-1.32-.376-1.787-.14L68 110v.4l1.18.467.001.361c.02.24.216.468.604.62.653.256 1.536.181 1.97-.17l.245-.439v-.41h-.221"/>
        <path fill="#BCBEC0" d="M69.28 110.822c-.24.354-.06.78.505 1.017.652.271 1.535.193 1.97-.182.442-.374.27-.904-.387-1.176-.561-.24-1.285-.197-1.754.06L68.33 110l-.331.282 1.28.54"/>
        <path fill="#939598" d="M74.785 108.824l-.414-.239c-.562-.225-1.32-.372-1.793-.137L71 108v.4l1.183.464.002.364c.016.238.216.47.602.622.655.253 1.536.18 1.974-.17l.239-.441v-.415h-.215"/>
        <path fill="#BCBEC0" d="M72.28 107.82c-.24.355-.057.777.507 1.014.654.28 1.535.195 1.973-.177.435-.377.264-.91-.39-1.178-.562-.236-1.285-.199-1.756.057L71.329 107l-.329.28 1.28.54"/>
        <path fill="#939598" d="M87 96.845v-.249L81 94v.25L86.672 97l.328-.155"/>
        <path fill="#BCBEC0" d="M87 96.835L81.328 94l-.328.16L86.672 97l.328-.165"/>
        <path fill="#3C2415" d="M77 103.436L70.993 100l-.993.434L76.235 104l.765-.564"/>
        <path fill="#603913" d="M151 62.457V61.23L140 56v1.235L150.055 63l.945-.543"/>
        <path fill="#754C29" d="M151 61.49L140.95 56l-.95.515L150.055 62l.945-.51"/>
        <path fill="#FFF" d="M148 61.127l-.22-.127L76 102.868l.224.132L148 61.127M147 60.127l-.22-.127L75 101.864l.224.136L147 60.127M146 60.127l-.216-.127L74 101.875l.226.125L146 60.127M145 59.13l-.224-.13L73 100.873l.224.127L145 59.13M144 59.132l-.22-.132L72 100.873l.222.127L144 59.132M143 58.136l-.222-.136L71 99.875l.226.125L143 58.136"/>
        <path fill="#939598" d="M77.781 106.83l-.407-.246c-.565-.22-1.322-.373-1.797-.14L74 106v.4l1.183.467v.36c.016.24.216.469.604.62.655.257 1.531.183 1.969-.166l.242-.443H78v-.408h-.219"/>
        <path fill="#BCBEC0" d="M75.281 105.82c-.24.359-.053.78.506 1.017.655.278 1.53.19 1.969-.18.44-.374.269-.902-.382-1.18-.565-.235-1.284-.191-1.756.063l-1.286-.54-.332.284 1.281.536"/>
    </g>
</svg>
