<svg xmlns="http://www.w3.org/2000/svg" width="586" height="507" viewBox="0 0 586 507">
    <g fill="none" fill-rule="evenodd">
        <path fill="#CF7C00" d="M338.616 109.998l2.151-4.629V91.812l-16.032 2.475v13.563l5.868 3.39 8.013-1.242"/>
        <path fill="#FF9800" d="M324.735 101.067l5.868 3.387 8.013-1.239 2.151-4.623v2.64l-2.151 4.632-8.013 1.239-5.868-3.387v-2.649M338.616 96.438l2.151-4.626-5.871-3.387-8.016 1.236-2.145 4.626 5.868 3.387 8.013-1.236"/>
        <path fill="#CF7C00" d="M336.579 90.942V73.407l1.119.171v17.538l-1.119-.174M330.024 89.901V72.363l1.122.174v17.532l-1.122-.168M326.775 92.835V75.294l1.125.18v17.541l-1.125-.18"/>
        <path fill="#FF9800" d="M335.121 95.325l1.317-.21.384-.816 1.128.174.681-1.446-1.128-.186.315-.681V74.616l-10.269 1.59v17.541l.957.552-.846.489 1.851 1.062.84-.486.954.558 1.293-.204.303.657 2.523-.39-.303-.66"/>
        <path fill="#F5B400" d="M335.121 77.787l1.317-.207.384-.822 1.128.174.681-1.452-1.128-.177.315-.687-.96-.552.84-.486-1.848-1.068-.834.486-.96-.555-1.206.195.003-.009-.309-.657-2.52.393.306.657.006.003-1.413.216-.36.774-1.11-.174-.678 1.455 1.116.174-.342.738.957.552-.846.486 1.851 1.065.84-.483.954.555 1.293-.201.303.648 2.523-.381-.303-.66"/>
        <path fill="#F5B400" d="M327.66 94.788V77.244l1.851 1.065V95.85l-1.851-1.062"/>
        <path fill="#CF7C00" d="M329.511 95.85V78.309l.84-.483v17.538l-.84.486M336.822 94.299V76.758l1.128.174v17.541l-1.128-.174M332.598 95.718V78.18l.303.648v17.547l-.303-.657"/>
        <path fill="#F5B400" d="M332.901 96.375V78.828l2.523-.381v17.538l-2.523.39M337.95 94.473V76.932l.681-1.452v17.547l-.681 1.446"/>
        <path fill="#CF7C00" d="M337.575 78.387l1.818-3.927v-1.119l-13.59 2.109v1.116l4.974 2.871 6.798-1.05"/>
        <path fill="#FF9800" d="M337.575 77.268l1.818-3.927-4.974-2.874-6.792 1.062-1.824 3.921 4.974 2.868 6.798-1.05"/>
        <path fill="#754C29" d="M337.491 77.067l1.758-3.792v-6.126l-13.134 2.043v6.12l4.809 2.769 6.567-1.014"/>
        <path fill="#F5F5F5" d="M337.944 71.4l-.057 3.759 1.164-2.487v-3.648l-1.107 2.376M329.949 72.825l-3.174-1.836v3.825l3.276 1.89-.102-3.879M336.579 72.396l-4.542.699.099 3.801 4.386-.678.057-3.822"/>
        <path fill="#8B5E3C" d="M337.491 70.95l1.758-3.801-4.809-2.772-6.57 1.026-1.755 3.789 4.809 2.778 6.567-1.02"/>
        <path fill="#CF7C00" d="M337.575 71.343l1.818-3.927V66.3l-13.59 2.103v1.116l4.974 2.877 6.798-1.053"/>
        <path fill="#FF9800" d="M337.575 70.215l1.818-3.915-4.974-2.877-6.792 1.05-1.824 3.93 4.974 2.871 6.798-1.059"/>
        <path fill="#CF7C00" d="M336.579 65.187V31.338l1.119.171v33.852l-1.119-.174M330.024 64.146V30.288l1.122.18V64.32l-1.122-.174M326.775 67.08V33.222l1.125.177V67.26l-1.125-.18"/>
        <path fill="#FF9800" d="M335.121 69.573l1.317-.204.384-.825 1.128.177.681-1.455-1.128-.177.315-.684V32.556l-10.269 1.578v33.858l.957.552-.846.48 1.851 1.071.84-.486.954.555 1.293-.198.303.657 2.523-.39-.303-.66"/>
        <path fill="#F5B400" d="M335.121 35.724l1.317-.21.384-.819 1.128.174.681-1.455-1.128-.174.315-.684-.96-.561.84-.486-1.848-1.062-.834.48-.96-.546-1.206.186.003-.003-.309-.669-2.52.393.306.66.006.006-1.413.216-.36.771-1.11-.165-.678 1.446 1.116.177-.342.735.957.558-.846.48 1.851 1.071.84-.489.954.558 1.293-.204.303.66 2.523-.39-.303-.654"/>
        <path fill="#F5B400" d="M327.66 69.024V35.172l1.851 1.071v33.852l-1.851-1.071"/>
        <path fill="#CF7C00" d="M329.511 70.095V36.243l.84-.489v33.855l-.84.486M336.822 68.544V34.695l1.128.174v33.852l-1.128-.177M332.598 69.966V36.108l.303.66v33.855l-.303-.657"/>
        <path fill="#F5B400" d="M332.901 70.623V36.768l2.523-.39v33.855l-2.523.39M337.95 68.721V34.869l.681-1.455v33.852l-.681 1.455"/>
        <path fill="#CF7C00" d="M337.575 37.011l1.818-3.93v-1.119l-13.59 2.103v1.122l4.974 2.871 6.798-1.047"/>
        <path fill="#FF9800" d="M337.575 35.889l1.818-3.927-4.974-2.871-6.792 1.056-1.824 3.918 4.974 2.877 6.798-1.053"/>
        <path fill="#CF7C00" d="M336.579 30.945V15.639l1.119.174v15.312l-1.119-.18M330.024 29.895v-15.3l1.122.177v15.306l-1.122-.183M326.775 32.835V17.532l1.125.174v15.309l-1.125-.18"/>
        <path fill="#FF9800" d="M335.121 35.331l1.317-.204.384-.822 1.128.171.681-1.455-1.128-.177.315-.684V16.854l-10.269 1.59v15.309l.957.552-.846.483 1.851 1.062.84-.483.954.555 1.293-.198.303.654 2.523-.387-.303-.66"/>
        <path fill="#F5B400" d="M335.121 20.025l1.317-.21.384-.816 1.128.177.681-1.455-1.128-.18.315-.687-.96-.552.84-.489-1.848-1.059-.834.48-.96-.549-1.206.186.003-.006-.309-.66-2.52.39.306.663.006.003-1.413.213-.36.777-1.11-.177-.678 1.458 1.116.171-.342.741.957.555-.846.48 1.851 1.065.84-.48.954.549 1.293-.195.303.651 2.523-.387-.303-.657"/>
        <path fill="#F5B400" d="M327.66 34.788V19.479l1.851 1.065V35.85l-1.851-1.062"/>
        <path fill="#CF7C00" d="M329.511 35.85V20.544l.84-.48v15.303l-.84.483M336.822 34.305V18.999l1.128.177v15.3l-1.128-.171M332.598 35.724V20.418l.303.651v15.309l-.303-.654"/>
        <path fill="#E2BC91" d="M332.901 36.378V21.069l2.523-.387v15.309l-2.523.387"/>
        <path fill="#F5B400" d="M337.95 34.476v-15.3l.681-1.455v15.3l-.681 1.455"/>
        <path fill="#CF7C00" d="M337.575 22.179l1.818-3.927V17.13l-13.59 2.1v1.125l4.974 2.871 6.798-1.047"/>
        <path fill="#FF9800" d="M337.575 21.063l1.818-3.933-4.974-2.868-6.792 1.05-1.824 3.918 4.974 2.877 6.798-1.044"/>
        <path fill="#E2BC91" d="M337.491 20.856l1.758-3.789v-6.12l-13.134 2.037v6.111l4.809 2.778 6.567-1.017"/>
        <path fill="#F5F5F5" d="M337.944 15.195l-.057 3.762 1.164-2.493v-3.648l-1.107 2.379M329.949 16.617l-3.174-1.839v3.825l3.276 1.89-.102-3.876M336.579 16.182l-4.542.705.099 3.795 4.386-.678.057-3.822"/>
        <path fill="#8B5E3C" d="M337.491 14.742l1.758-3.795-4.809-2.772-6.57 1.008-1.755 3.801 4.809 2.769 6.567-1.011"/>
        <path fill="#CF7C00" d="M337.575 15.129l1.818-3.921v-1.122l-13.59 2.106v1.113l4.974 2.877 6.798-1.053"/>
        <path fill="#FF9800" d="M337.575 14.007l1.818-3.921-4.974-2.877-6.792 1.059-1.824 3.924 4.974 2.871 6.798-1.056"/>
        <path fill="#E5A65E" d="M332.751 5.298a5.682 5.682 0 0 0-5.685 5.679c0 .843.555 1.686 1.662 2.328 2.22 1.275 5.82 1.275 8.037 0 1.116-.642 1.668-1.485 1.668-2.328a5.681 5.681 0 0 0-5.682-5.679"/>
        <path fill="#CF7C00" d="M333.675 5.589V3.804l.282.048v1.782l-.282-.045M332.031 5.325V3.543l.282.039V5.37l-.282-.045M331.215 6.063V4.278l.279.045v1.785l-.279-.045"/>
        <path fill="#FF9800" d="M333.309 6.69l.336-.057.093-.201.279.048.171-.372-.276-.045.078-.168V4.11l-2.577.402v1.779l.234.141-.21.123.465.27.213-.129.234.141.33-.054.078.165.633-.093-.081-.165"/>
        <path fill="#F5B400" d="M333.309 4.908l.336-.054.093-.204.279.045.171-.372-.276-.045.078-.168-.24-.141.207-.117-.462-.27-.216.126-.231-.138-.312.042-.072-.171-.633.102.078.168-.357.057-.087.192-.282-.042-.168.36.279.045-.081.189.234.135-.21.123.465.27.213-.123.234.138.33-.057.078.174.633-.102-.081-.162"/>
        <path fill="#F5B400" d="M331.437 6.555V4.77l.465.27v1.785l-.465-.27"/>
        <path fill="#CF7C00" d="M331.902 6.825V5.04l.213-.123v1.779l-.213.129M333.738 6.432V4.65l.279.045V6.48l-.279-.048M332.679 6.783V4.998l.078.174v1.776l-.078-.165"/>
        <path fill="#F5B400" d="M332.757 6.948V5.172l.633-.102v1.785l-.633.093M334.017 6.48V4.695l.171-.372v1.785l-.171.372"/>
        <path fill="#754C29" d="M330.051 2.997l.804 1.77c.069.198.237.39.51.546.738.429 1.938.429 2.673 0 .27-.156.444-.345.516-.543l.855-1.89-5.358.117"/>
        <path fill="#A97C50" d="M334.677 3.63c-1.089.636-2.859.636-3.948 0-1.089-.63-1.089-1.65 0-2.271 1.089-.639 2.859-.639 3.948 0 1.092.621 1.092 1.641 0 2.271"/>
        <path fill="#CF7C00" d="M349.164 116.088l2.145-4.629V97.902l-16.023 2.481v13.554l5.868 3.39 8.01-1.239"/>
        <path fill="#FF9800" d="M335.286 107.16l5.868 3.381 8.01-1.236 2.145-4.623v2.646l-2.145 4.626-8.01 1.236-5.868-3.384v-2.646M349.164 102.525l2.145-4.623-5.865-3.393-8.013 1.245-2.145 4.629 5.868 3.381 8.01-1.239"/>
        <path fill="#CF7C00" d="M347.127 97.038V79.494l1.119.171v17.541l-1.119-.168M340.572 95.991V78.447l1.125.174v17.544l-1.125-.174M337.323 98.928V81.381l1.125.186v17.538l-1.125-.177"/>
        <path fill="#FF9800" d="M345.672 101.412l1.32-.198.381-.825 1.125.177.681-1.455-1.128-.177.315-.69V80.706l-10.269 1.587v17.541l.957.555-.843.483 1.845 1.065.84-.48.957.549 1.293-.201.306.657 2.52-.384-.3-.666"/>
        <path fill="#F5B400" d="M345.672 83.868l1.32-.195.381-.828 1.125.186.681-1.458-1.128-.183.315-.684-.957-.552.837-.489-1.848-1.065-.84.486-.948-.549-1.212.183.003-.003-.309-.657-2.52.387.303.66.006.006-1.41.219-.357.771-1.104-.177-.687 1.455 1.116.177-.342.735.957.549-.843.489 1.845 1.068.84-.486.957.552 1.293-.201.306.66 2.52-.387-.3-.669"/>
        <path fill="#F5B400" d="M338.211 100.872V83.331l1.845 1.068v17.538l-1.845-1.065"/>
        <path fill="#CF7C00" d="M340.056 101.937V84.399l.84-.486v17.544l-.84.48M347.373 100.389V82.845l1.125.186v17.535l-1.125-.177M343.146 101.805V84.264l.306.66v17.538l-.306-.657"/>
        <path fill="#F5B400" d="M343.452 102.462V84.924l2.52-.387v17.541l-2.52.384M348.498 100.566V83.031l.681-1.458v17.538l-.681 1.455"/>
        <path fill="#CF7C00" d="M348.12 84.477l1.821-3.921v-1.122l-13.593 2.103v1.119l4.977 2.868 6.795-1.047"/>
        <path fill="#FF9800" d="M348.12 83.352l1.821-3.918-4.974-2.877-6.795 1.053-1.824 3.927 4.977 2.871 6.795-1.056"/>
        <path fill="#754C29" d="M348.039 83.157l1.761-3.792v-6.117l-13.14 2.031v6.117l4.809 2.781 6.57-1.02"/>
        <path fill="#F5F5F5" d="M348.495 77.49l-.057 3.768 1.161-2.493v-3.651l-1.104 2.376M340.503 78.918l-3.18-1.836v3.822l3.279 1.893-.099-3.879M347.127 78.48l-4.545.705.099 3.798 4.386-.678.06-3.825"/>
        <path fill="#8B5E3C" d="M348.039 77.043l1.761-3.795-4.809-2.778-6.57 1.017-1.761 3.792 4.809 2.781 6.57-1.017"/>
        <path fill="#CF7C00" d="M348.12 77.433l1.821-3.93v-1.116l-13.593 2.097v1.125l4.977 2.871 6.795-1.047"/>
        <path fill="#FF9800" d="M348.12 76.314l1.821-3.927-4.974-2.874-6.795 1.05-1.824 3.921 4.977 2.88 6.795-1.05"/>
        <path fill="#CF7C00" d="M347.127 71.28V37.428l1.119.177V71.46l-1.119-.18M340.572 70.233V36.378l1.125.186v33.849l-1.125-.18M337.323 73.176V39.312l1.125.183v33.849l-1.125-.168"/>
        <path fill="#FF9800" d="M345.672 75.66l1.32-.204.381-.816 1.125.174.681-1.455-1.128-.177.315-.693V38.637l-10.269 1.596v33.849l.957.549-.843.486 1.845 1.062.84-.48.957.552 1.293-.201.306.66 2.52-.387-.3-.663"/>
        <path fill="#F5B400" d="M345.672 41.808l1.32-.204.381-.822 1.125.171.681-1.452-1.128-.174.315-.69-.957-.555.837-.477-1.848-1.068-.84.48-.948-.552-1.212.195.003-.003-.309-.657-2.52.378.303.663.006.006-1.41.219-.357.771-1.104-.174-.687 1.449 1.116.183-.342.738.957.549-.843.483 1.845 1.065.84-.483.957.552 1.293-.201.306.66 2.52-.39-.3-.66"/>
        <path fill="#F5B400" d="M338.211 75.117V41.265l1.845 1.065v33.849l-1.845-1.062"/>
        <path fill="#CF7C00" d="M340.056 76.179V42.33l.84-.483v33.852l-.84.48M347.373 74.64V40.782l1.125.171v33.861l-1.125-.174M343.146 76.05V42.198l.306.66V76.71l-.306-.66"/>
        <path fill="#F5B400" d="M343.452 76.71V42.858l2.52-.39v33.855l-2.52.387M348.498 74.814V40.953l.681-1.452v33.858l-.681 1.455"/>
        <path fill="#CF7C00" d="M348.12 43.098l1.821-3.924v-1.119l-13.593 2.1v1.122l4.977 2.874 6.795-1.053"/>
        <path fill="#FF9800" d="M348.12 41.973l1.821-3.918-4.974-2.877-6.795 1.059-1.824 3.918 4.977 2.874 6.795-1.056"/>
        <path fill="#CF7C00" d="M347.127 37.032V21.729l1.119.18v15.306l-1.119-.183M340.572 35.991V20.682l1.125.177v15.309l-1.125-.177M337.323 38.931V23.625l1.125.171v15.315l-1.125-.18"/>
        <path fill="#E2BC91" d="M345.672 41.424l1.32-.21.381-.819 1.125.177.681-1.455-1.128-.18.315-.693V22.947l-10.269 1.584v15.306l.957.558-.843.477 1.845 1.068.84-.48.957.549 1.293-.201.306.66 2.52-.39-.3-.654"/>
        <path fill="#F5B400" d="M345.672 26.115l1.32-.207.381-.822 1.125.174.681-1.455-1.128-.174.315-.684-.957-.555.837-.483-1.848-1.068-.84.48-.948-.549-1.212.189.003-.006-.309-.654-2.52.381.303.666h.006l-1.41.225-.357.765-1.104-.168-.687 1.455 1.116.171-.342.735.957.555-.843.486 1.845 1.068.84-.492.957.552 1.293-.195.306.654 2.52-.381-.3-.663"/>
        <path fill="#F5B400" d="M338.211 40.872v-15.3l1.845 1.068v15.3l-1.845-1.068"/>
        <path fill="#CF7C00" d="M340.056 41.94v-15.3l.84-.492V41.46l-.84.48M347.373 40.395V25.086l1.125.174v15.312l-1.125-.177M343.146 41.808V26.505l.306.654v15.309l-.306-.66"/>
        <path fill="#E2BC91" d="M343.452 42.468V27.159l2.52-.381v15.3l-2.52.39M348.498 40.572V25.26l.681-1.455v15.312l-.681 1.455"/>
        <path fill="#CF7C00" d="M348.12 28.266l1.821-3.924v-1.119l-13.593 2.1v1.122l4.977 2.877 6.795-1.056"/>
        <path fill="#FF9800" d="M348.12 27.15l1.821-3.927-4.974-2.871-6.795 1.05-1.824 3.921 4.977 2.871 6.795-1.044"/>
        <path fill="#E2BC91" d="M348.039 26.943l1.761-3.789v-6.12l-13.14 2.034v6.12l4.809 2.778 6.57-1.023"/>
        <path fill="#F5F5F5" d="M348.495 21.279l-.057 3.765 1.161-2.493v-3.648l-1.104 2.376M340.503 22.71l-3.18-1.845v3.822l3.279 1.905-.099-3.882M347.127 22.272l-4.545.699.099 3.807 4.386-.684.06-3.822"/>
        <path fill="#8B5E3C" d="M348.039 20.829l1.761-3.795-4.809-2.772-6.57 1.017-1.761 3.789 4.809 2.778 6.57-1.017"/>
        <path fill="#CF7C00" d="M348.12 21.222l1.821-3.918v-1.128l-13.593 2.106v1.119l4.977 2.871 6.795-1.05"/>
        <path fill="#FF9800" d="M348.12 20.1l1.821-3.924-4.974-2.871-6.795 1.05-1.824 3.927 4.977 2.874 6.795-1.056"/>
        <path fill="#E5A65E" d="M343.302 11.388a5.683 5.683 0 0 0-5.685 5.682c0 .84.555 1.68 1.662 2.325 2.22 1.278 5.817 1.278 8.04 0 1.11-.645 1.665-1.485 1.665-2.325a5.688 5.688 0 0 0-5.682-5.682"/>
        <path fill="#CF7C00" d="M344.223 11.682V9.897l.279.042v1.785l-.279-.042M342.576 11.415V9.636l.285.042v1.782l-.285-.045M341.763 12.153v-1.785l.282.045v1.785l-.282-.045"/>
        <path fill="#FF9800" d="M343.857 12.783l.327-.054.102-.204.282.042.168-.366-.282-.042.084-.177v-1.788l-2.586.402v1.788l.246.141-.213.12.462.264.213-.117.24.132.321-.048.081.171.636-.102-.081-.162"/>
        <path fill="#F5B400" d="M343.857 10.995l.327-.051.102-.207.282.042.168-.36-.282-.045.084-.18-.24-.129.204-.126-.456-.267-.216.126-.237-.141-.306.045-.081-.162-.63.096.081.165v.003l-.354.048-.093.201-.279-.051-.168.366.279.045-.09.183.246.141-.213.117.462.273.213-.12.24.138.321-.051.081.168.636-.096-.081-.171"/>
        <path fill="#F5B400" d="M341.985 12.645v-1.791l.462.273v1.782l-.462-.264"/>
        <path fill="#CF7C00" d="M342.447 12.909v-1.782l.213-.12v1.785l-.213.117M344.286 12.525v-1.788l.282.042v1.788l-.282-.042M343.221 12.876v-1.782l.081.168v1.785l-.081-.171"/>
        <path fill="#F5B400" d="M343.302 13.047v-1.785l.636-.096v1.779l-.636.102M344.568 12.567v-1.788l.168-.36v1.782l-.168.366"/>
        <path fill="#754C29" d="M340.602 9.087l.798 1.764c.069.204.24.396.513.552.735.429 1.938.429 2.676 0l.51-.549.855-1.881-5.352.114"/>
        <path fill="#A97C50" d="M345.225 9.726c-1.086.624-2.859.624-3.945 0-1.092-.633-1.092-1.653 0-2.286 1.086-.621 2.859-.621 3.945 0 1.089.633 1.089 1.653 0 2.286"/>
        <path fill="#F8D9B5" d="M374.181 48.849L349.398 63.15l-48.849-28.203 24.777-14.304 48.855 28.206M310.218 126.333l2.145-4.635v-13.557l-16.023 2.478v13.56l5.862 3.39 8.016-1.236"/>
        <path fill="#BB8951" d="M296.34 117.399l5.862 3.39 8.016-1.239 2.145-4.629v2.649l-2.145 4.62-8.016 1.248-5.862-3.393v-2.646M310.218 112.767l2.145-4.626-5.865-3.387-8.016 1.236-2.142 4.629 5.862 3.387 8.016-1.239"/>
        <path fill="#CF7C00" d="M308.181 107.274V89.73l1.122.177v17.541l-1.122-.174M301.623 106.233V88.689l1.125.174v17.544l-1.125-.174M298.374 109.164V91.623l1.125.189v17.532l-1.125-.18"/>
        <path fill="#E2BC91" d="M306.726 111.657l1.317-.207.381-.819 1.128.174.681-1.458-1.131-.171.318-.69V90.948l-10.272 1.587v17.541l.957.552-.84.486 1.842 1.074.846-.492.951.549 1.293-.195.312.654 2.517-.39-.3-.657"/>
        <path fill="#F5B400" d="M306.726 94.116l1.317-.204.381-.822 1.128.183.681-1.461-1.131-.174.318-.69-.957-.549.84-.492-1.848-1.062-.837.483-.957-.555-1.212.189v-.003l-.297-.66-2.529.39.306.66.009.003-1.416.216-.357.777-1.101-.177-.69 1.455 1.116.18-.342.732.957.555-.84.483 1.842 1.071.846-.489.951.555 1.293-.204.312.66 2.517-.393-.3-.657"/>
        <path fill="#FFEFDD" d="M299.265 111.114V93.573l1.842 1.071v17.544l-1.842-1.074"/>
        <path fill="#CF7C00" d="M301.107 112.188V94.644l.846-.489v17.541l-.846.492M308.424 110.631V93.09l1.128.183v17.532l-1.128-.174M304.197 112.05V94.506l.312.66v17.538l-.312-.654"/>
        <path fill="#FFEFDD" d="M304.509 112.704V95.166l2.517-.393v17.541l-2.517.39"/>
        <path fill="#F5B400" d="M309.552 110.805V93.273l.681-1.461v17.535l-.681 1.458"/>
        <path fill="#BB8951" d="M309.177 94.716l1.815-3.918v-1.119l-13.593 2.097v1.116l4.98 2.874 6.798-1.05"/>
        <path fill="#FF9800" d="M309.177 93.597l1.815-3.918-4.971-2.88-6.795 1.056-1.827 3.921 4.98 2.874 6.798-1.053"/>
        <path fill="#E2BC91" d="M309.09 93.396l1.758-3.789v-6.123l-13.137 2.037v6.117l4.812 2.775 6.567-1.017"/>
        <path fill="#F5F5F5" d="M309.549 87.732l-.057 3.762 1.158-2.49v-3.645l-1.101 2.373M301.557 89.151l-3.183-1.83v3.822l3.279 1.896-.096-3.888M308.181 88.722l-4.542.705.096 3.798 4.386-.681.06-3.822"/>
        <path fill="#8B5E3C" d="M309.09 87.288l1.758-3.804-4.806-2.772-6.573 1.014-1.758 3.795 4.812 2.778 6.567-1.011"/>
        <path fill="#92612B" d="M309.177 87.675l1.815-3.927v-1.119l-13.593 2.106v1.116l4.98 2.871 6.798-1.047"/>
        <path fill="#BB8951" d="M309.177 86.55l1.815-3.921-4.971-2.874-6.795 1.053-1.827 3.927 4.98 2.871 6.798-1.056"/>
        <path fill="#CF7C00" d="M308.181 81.519V47.667l1.122.174v33.858l-1.122-.18M301.623 80.475V46.611l1.125.195v33.843l-1.125-.174"/>
        <path fill="#FFEFDD" d="M298.374 83.412V49.557l1.125.177v33.855l-1.125-.177"/>
        <path fill="#E2BC91" d="M306.726 85.899l1.317-.198.381-.825 1.128.18.681-1.458-1.131-.177.318-.69V48.882l-10.272 1.593v33.843l.957.558-.84.483 1.842 1.065.846-.483.951.552 1.293-.201.312.66 2.517-.39-.3-.663"/>
        <path fill="#F5B400" d="M306.726 52.05l1.317-.204.381-.822 1.128.174.681-1.455-1.131-.177.318-.684-.957-.555.84-.486-1.848-1.068-.837.489-.957-.552-1.212.186-.297-.663-2.529.378.306.672.009.003-1.416.219-.357.768-1.101-.168-.69 1.452 1.116.177-.342.741.957.546-.84.489 1.842 1.059.846-.48.951.555 1.293-.207.312.654 2.517-.381-.3-.66"/>
        <path fill="#FFEFDD" d="M299.265 85.359V51.51l1.842 1.059v33.855l-1.842-1.065"/>
        <path fill="#CF7C00" d="M301.107 86.424V52.569l.846-.48v33.852l-.846.483M308.424 84.876V51.021l1.128.177v33.858l-1.128-.18M304.197 86.292V52.437l.312.654v33.861l-.312-.66"/>
        <path fill="#FFEFDD" d="M304.509 86.952V53.091l2.517-.381v33.852l-2.517.39"/>
        <path fill="#F5B400" d="M309.552 85.056V51.198l.681-1.455v33.855l-.681 1.458"/>
        <path fill="#92612B" d="M309.177 53.34l1.815-3.924v-1.122l-13.593 2.103v1.116l4.98 2.877 6.798-1.05"/>
        <path fill="#BB8951" d="M309.177 52.215l1.815-3.921-4.971-2.874-6.795 1.056-1.827 3.921 4.98 2.877 6.798-1.059"/>
        <path fill="#CF7C00" d="M308.181 47.277V31.974l1.122.177v15.294l-1.122-.168M301.623 46.233V30.924l1.125.18V46.41l-1.125-.177"/>
        <path fill="#FFEFDD" d="M298.374 49.167V33.861l1.125.177v15.309l-1.125-.18"/>
        <path fill="#E2BC91" d="M306.726 51.663l1.317-.21.381-.819 1.128.18.681-1.458-1.131-.174.318-.696V33.18l-10.272 1.596v15.303l.957.555-.84.48 1.842 1.071.846-.489.951.558 1.293-.204.312.66 2.517-.39-.3-.657"/>
        <path fill="#F5B400" d="M306.726 36.351l1.317-.201.381-.822 1.128.174.681-1.452-1.131-.177.318-.693-.957-.549.84-.48-1.848-1.071-.837.483-.957-.552-1.212.192V31.2l-.297-.666-2.529.39.306.66.009.003-1.416.219-.357.777-1.101-.171-.69 1.449 1.116.177-.342.738.957.552-.84.486 1.842 1.068.846-.492.951.555 1.293-.198.312.651 2.517-.381-.3-.666"/>
        <path fill="#FFEFDD" d="M299.265 51.114v-15.3l1.842 1.068v15.303l-1.842-1.071"/>
        <path fill="#CF7C00" d="M301.107 52.185V36.882l.846-.492v15.306l-.846.489M308.424 50.634V35.328l1.128.174v15.312l-1.128-.18M304.197 52.05V36.747l.312.651V52.71l-.312-.66"/>
        <path fill="#FFEFDD" d="M304.509 52.71V37.398l2.517-.381V52.32l-2.517.39"/>
        <path fill="#F5B400" d="M309.552 50.814V35.502l.681-1.452v15.306l-.681 1.458"/>
        <path fill="#A08465" d="M309.177 38.502l1.815-3.918v-1.125l-13.593 2.106v1.122l4.98 2.871 6.798-1.056"/>
        <path fill="#FF9800" d="M309.177 37.386l1.815-3.927-4.971-2.862-6.795 1.047-1.827 3.921 4.98 2.877 6.798-1.056"/>
        <path fill="#E2BC91" d="M309.09 37.188l1.758-3.798v-6.111l-13.137 2.04v6.111l4.812 2.775 6.567-1.017"/>
        <path fill="#F5F5F5" d="M309.549 31.518l-.057 3.771 1.158-2.496v-3.642l-1.101 2.367M301.557 32.943l-3.183-1.833v3.825l3.279 1.89-.096-3.882M308.181 32.511l-4.542.702.096 3.804 4.386-.681.06-3.825"/>
        <path fill="#8B5E3C" d="M309.09 31.065l1.758-3.786-4.806-2.778-6.573 1.02-1.758 3.798 4.812 2.766 6.567-1.02"/>
        <path fill="#CF7C00" d="M309.177 31.461l1.815-3.918v-1.125l-13.593 2.106v1.119l4.98 2.868 6.798-1.05"/>
        <path fill="#FF9800" d="M309.177 30.342l1.815-3.924-4.971-2.874-6.795 1.053-1.827 3.927 4.98 2.871 6.798-1.053"/>
        <path fill="#E5A65E" d="M304.35 21.63a5.684 5.684 0 0 0-5.682 5.682c0 .84.555 1.68 1.668 2.322 2.22 1.278 5.814 1.278 8.028 0 1.113-.642 1.671-1.482 1.671-2.322a5.68 5.68 0 0 0-5.685-5.682"/>
        <path fill="#CF7C00" d="M305.274 21.927v-1.791l.285.045v1.785l-.285-.039M303.636 21.657v-1.788l.279.048v1.779l-.279-.039M302.817 22.395V20.61l.279.045v1.782l-.279-.042"/>
        <path fill="#FF9800" d="M304.911 23.025l.33-.057.099-.201.282.042.168-.366-.282-.048.078-.171v-1.785l-2.574.399v1.788l.237.141-.21.117.462.27.21-.123.24.135.327-.045.075.171.633-.105-.075-.162"/>
        <path fill="#F5B400" d="M304.911 21.237l.33-.045.099-.213.282.042.168-.363-.282-.045.078-.174-.24-.138.213-.12-.465-.267-.207.126-.243-.141-.3.045-.078-.165-.63.09.069.174-.351.051-.093.204-.273-.057-.171.369.276.045-.081.183.237.141-.21.12.462.27.21-.12.24.129.327-.045.075.174.633-.105-.075-.165M303.039 22.884v-1.785l.462.27v1.785l-.462-.27"/>
        <path fill="#CF7C00" d="M303.501 23.154v-1.785l.21-.12v1.782l-.21.123M305.34 22.767v-1.788l.282.042v1.788l-.282-.042M304.278 23.121v-1.788l.075.174v1.785l-.075-.171"/>
        <path fill="#F5B400" d="M304.353 23.292v-1.785l.633-.105v1.785l-.633.105M305.622 22.809v-1.788l.168-.363v1.785l-.168.366"/>
        <path fill="#754C29" d="M301.653 19.326l.798 1.767.51.555c.744.426 1.941.426 2.685 0l.507-.552.861-1.878-5.361.108"/>
        <path fill="#A97C50" d="M306.279 19.962c-1.095.627-2.859.627-3.954 0-1.08-.633-1.08-1.65 0-2.277 1.095-.63 2.859-.63 3.954 0 1.086.627 1.086 1.644 0 2.277"/>
        <path fill="#F8D9B5" d="M320.772 132.423l2.139-4.626v-13.563l-16.023 2.478v13.56l5.868 3.384 8.016-1.233"/>
        <path fill="#BB8951" d="M306.888 123.486l5.868 3.39 8.016-1.239 2.139-4.623v2.64l-2.139 4.638-8.016 1.233-5.868-3.39v-2.649M320.772 118.854l2.139-4.62-5.862-3.393-8.016 1.236-2.145 4.635 5.868 3.384 8.016-1.242"/>
        <path fill="#CF7C00" d="M318.723 113.361V95.82l1.131.18v17.547l-1.131-.186M312.168 112.317V94.773l1.131.18v17.538l-1.131-.174M308.925 115.26V97.716l1.125.171v17.55l-1.125-.177"/>
        <path fill="#E2BC91" d="M317.274 117.747l1.314-.207.387-.819 1.122.18.687-1.458-1.14-.18.321-.684V97.038l-10.269 1.59v17.535l.954.555-.837.486 1.851 1.068.837-.486.954.555 1.293-.207.306.66 2.517-.384-.297-.663"/>
        <path fill="#F5B400" d="M317.274 100.206l1.314-.201.387-.825 1.122.177.687-1.455-1.14-.18.321-.684-.957-.555.846-.483-1.851-1.068-.84.489-.957-.558-1.209.189H315l-.309-.663-2.523.384.309.666.006.003-1.413.222-.357.774-1.107-.177-.681 1.455 1.113.171-.342.741.954.552-.837.486 1.851 1.062.837-.48.954.549 1.293-.201.306.654 2.517-.381-.297-.663"/>
        <path fill="#FFEFDD" d="M309.813 117.204V99.666l1.851 1.062v17.544l-1.851-1.068"/>
        <path fill="#CF7C00" d="M311.664 118.272v-17.544l.837-.48v17.538l-.837.486M318.975 116.721V99.18l1.122.177v17.544l-1.122-.18M314.748 118.134v-17.538l.306.654v17.544l-.306-.66"/>
        <path fill="#FFEFDD" d="M315.054 118.794V101.25l2.517-.381v17.541l-2.517.384"/>
        <path fill="#F5B400" d="M320.097 116.901V99.357l.687-1.455v17.541l-.687 1.458"/>
        <path fill="#BB8951" d="M319.722 100.809l1.827-3.927v-1.119l-13.599 2.109v1.119l4.98 2.865 6.792-1.047"/>
        <path fill="#FF9800" d="M319.722 99.687l1.827-3.924-4.983-2.88-6.792 1.062-1.824 3.927 4.98 2.868 6.792-1.053"/>
        <path fill="#E2BC91" d="M319.638 99.492l1.761-3.801v-6.108l-13.14 2.028v6.111l4.806 2.787 6.573-1.017"/>
        <path fill="#F5F5F5" d="M320.097 93.816l-.057 3.768 1.155-2.493v-3.648l-1.098 2.373M312.102 95.247l-3.177-1.836v3.822l3.276 1.884-.099-3.87M318.723 94.812l-4.542.699.099 3.804 4.389-.675.054-3.828"/>
        <path fill="#8B5E3C" d="M319.638 93.372l1.761-3.789-4.809-2.781-6.564 1.014-1.767 3.795 4.806 2.778 6.573-1.017"/>
        <path fill="#92612B" d="M319.722 93.765l1.827-3.927v-1.122l-13.599 2.103v1.119l4.98 2.874 6.792-1.047"/>
        <path fill="#BB8951" d="M319.722 92.637l1.827-3.921-4.983-2.874-6.792 1.056-1.824 3.921 4.98 2.874 6.792-1.056"/>
        <path fill="#CF7C00" d="M318.723 87.612V53.754l1.131.18v33.858l-1.131-.18M312.168 86.562V52.71l1.131.174v33.852l-1.131-.174M308.925 89.508V55.644l1.125.183v33.855l-1.125-.174"/>
        <path fill="#E2BC91" d="M317.274 91.998l1.314-.204.387-.822 1.122.171.687-1.452-1.14-.177.321-.693V54.966l-10.269 1.596v33.849l.954.552-.837.48 1.851 1.074.837-.486.954.552 1.293-.204.306.663 2.517-.393-.297-.651"/>
        <path fill="#F5B400" d="M317.274 58.137l1.314-.204.387-.819 1.122.18.687-1.461-1.14-.171.321-.696-.957-.546.846-.486-1.851-1.065-.84.477-.957-.549-1.209.189.003-.003-.309-.663-2.523.39.309.663h.006l-1.413.219-.357.774-1.107-.174-.681 1.452 1.113.177-.342.741.954.549-.837.483 1.851 1.071.837-.486.954.552 1.293-.204.306.66 2.517-.39-.297-.66"/>
        <path fill="#FFEFDD" d="M309.813 91.443V57.594l1.851 1.071v33.852l-1.851-1.074"/>
        <path fill="#CF7C00" d="M311.664 92.517V58.665l.837-.486v33.852l-.837.486M318.975 90.972V57.114l1.122.18v33.849l-1.122-.171M314.748 92.379V58.527l.306.66v33.855l-.306-.663"/>
        <path fill="#FFEFDD" d="M315.054 93.042V59.187l2.517-.39v33.852l-2.517.393"/>
        <path fill="#F5B400" d="M320.097 91.143V57.294l.687-1.461v33.858l-.687 1.452"/>
        <path fill="#BB8951" d="M319.722 59.43l1.827-3.924v-1.119l-13.599 2.097v1.131l4.98 2.862 6.792-1.047"/>
        <path fill="#92612B" d="M319.722 58.308l1.827-3.921-4.983-2.877-6.792 1.05-1.824 3.924 4.98 2.877 6.792-1.053"/>
        <path fill="#CF7C00" d="M318.723 53.37V38.058l1.131.18v15.309l-1.131-.177M312.168 52.32V37.017l1.131.171v15.309l-1.131-.177M308.925 55.263V39.951l1.125.177v15.309l-1.125-.174"/>
        <path fill="#E2BC91" d="M317.274 57.75l1.314-.201.387-.825 1.122.177.687-1.455-1.14-.177.321-.69V39.276l-10.269 1.587v15.312l.954.543-.837.489 1.851 1.065.837-.477.954.543 1.293-.201.306.66 2.517-.387-.297-.66"/>
        <path fill="#F5B400" d="M317.274 42.447l1.314-.207.387-.819 1.122.171.687-1.452-1.14-.183.321-.681-.957-.552.846-.486-1.851-1.068-.84.486-.957-.552-1.209.186.003-.003-.309-.66-2.523.39.309.663h.006l-1.413.219-.357.774-1.107-.177-.681 1.455 1.113.177-.342.735.954.558-.837.483 1.851 1.065.837-.486.954.549 1.293-.195.306.657 2.517-.396-.297-.651"/>
        <path fill="#FFEFDD" d="M309.813 57.207V41.904l1.851 1.065v15.303l-1.851-1.065"/>
        <path fill="#CF7C00" d="M311.664 58.272V42.969l.837-.486v15.312l-.837.477M318.975 56.724V41.421l1.122.171v15.309l-1.122-.177M314.748 58.137v-15.3l.306.657v15.303l-.306-.66"/>
        <path fill="#FFEFDD" d="M315.054 58.797V43.494l2.517-.396V58.41l-2.517.387"/>
        <path fill="#F5B400" d="M320.097 56.901V41.592l.687-1.452v15.306l-.687 1.455"/>
        <path fill="#A08465" d="M319.722 44.598l1.827-3.921v-1.122l-13.599 2.1v1.122l4.98 2.874 6.792-1.053"/>
        <path fill="#FF9800" d="M319.722 43.482l1.827-3.927-4.983-2.871-6.792 1.044-1.824 3.927 4.98 2.871 6.792-1.044"/>
        <path fill="#E2BC91" d="M319.638 43.278l1.761-3.792v-6.117l-13.14 2.034v6.117l4.806 2.775 6.573-1.017"/>
        <path fill="#F5F5F5" d="M320.097 37.614l-.057 3.759 1.155-2.49v-3.648l-1.098 2.379M312.102 39.039l-3.177-1.839v3.825l3.276 1.893-.099-3.879M318.723 38.601l-4.542.708.099 3.792 4.389-.678.054-3.822"/>
        <path fill="#8B5E3C" d="M319.638 37.164l1.761-3.795-4.809-2.772-6.564 1.011-1.767 3.795 4.806 2.772 6.573-1.011"/>
        <path fill="#CF7C00" d="M319.722 37.554l1.827-3.924v-1.128l-13.599 2.109v1.119l4.98 2.871 6.792-1.047"/>
        <path fill="#FF9800" d="M319.722 36.432l1.827-3.93-4.983-2.862-6.792 1.047-1.824 3.924 4.98 2.868 6.792-1.047"/>
        <path fill="#E5A65E" d="M314.901 27.717a5.687 5.687 0 0 0-5.688 5.682c0 .837.558 1.677 1.668 2.325 2.217 1.281 5.814 1.281 8.037 0 1.113-.648 1.662-1.488 1.662-2.325a5.678 5.678 0 0 0-5.679-5.682"/>
        <path fill="#CF7C00" d="M315.825 28.011v-1.788l.279.051v1.782l-.279-.045M314.178 27.747v-1.785l.285.051v1.782l-.285-.048M313.365 28.488V26.7l.279.042v1.788l-.279-.042"/>
        <path fill="#FF9800" d="M315.456 29.109l.333-.045.099-.21.282.042.171-.363-.288-.045.081-.171v-1.785l-2.574.399v1.785l.24.135-.213.126.465.267.21-.12.237.141.33-.06.072.171.636-.102-.081-.165"/>
        <path fill="#F5B400" d="M315.456 27.327l.333-.051.099-.207.282.045.171-.363-.288-.051.081-.168-.24-.141.21-.117-.459-.273-.213.126-.24-.144-.303.051h.006l-.081-.162-.636.09.078.171h.003l-.354.054-.093.195-.276-.045-.171.363.276.042-.081.189.24.132-.213.129.465.267.21-.123.237.141.33-.057.072.171.636-.102-.081-.162"/>
        <path fill="#F5B400" d="M313.587 28.977v-1.785l.465.267v1.785l-.465-.267"/>
        <path fill="#CF7C00" d="M314.052 29.244v-1.785l.21-.123v1.788l-.21.12M315.888 28.854v-1.785l.282.045v1.782l-.282-.042M314.829 29.205V27.42l.072.171v1.785l-.072-.171"/>
        <path fill="#F5B400" d="M314.901 29.376v-1.785l.636-.102v1.785l-.636.102M316.17 28.896v-1.782l.171-.363v1.782l-.171.363"/>
        <path fill="#754C29" d="M312.201 25.419l.795 1.77c.069.198.243.387.516.546.741.426 1.938.426 2.679 0l.513-.543.858-1.887-5.361.114"/>
        <path fill="#A97C50" d="M316.824 26.049c-1.092.636-2.853.636-3.948 0-1.089-.627-1.089-1.647 0-2.277 1.095-.627 2.856-.627 3.948 0 1.089.63 1.089 1.65 0 2.277"/>
        <path fill="#CF7C00" d="M417.657 155.631l2.148-4.626v-13.56l-16.026 2.484v13.554l5.862 3.393 8.016-1.245"/>
        <path fill="#FF9800" d="M403.779 146.697l5.862 3.39 8.016-1.236 2.148-4.629v2.649l-2.148 4.629-8.016 1.233-5.862-3.387v-2.649M417.657 142.068l2.148-4.623-5.871-3.39-8.01 1.245-2.145 4.629 5.862 3.378 8.016-1.239"/>
        <path fill="#CF7C00" d="M415.617 136.581v-17.538l1.128.168v17.541l-1.128-.171M409.059 135.537v-17.544l1.122.174v17.541l-1.122-.171M405.81 138.468v-17.541l1.131.177v17.544l-1.131-.18"/>
        <path fill="#FF9800" d="M414.159 140.958l1.323-.204.387-.819 1.122.177.681-1.455-1.131-.18.315-.687v-17.541l-10.272 1.587v17.544l.96.555-.84.486 1.851 1.065.837-.486.954.552 1.29-.201.309.657 2.523-.384-.309-.666"/>
        <path fill="#F5B400" d="M414.159 123.417l1.323-.201.387-.825 1.122.18.681-1.458-1.131-.18.315-.684-.951-.552.84-.486-1.845-1.062-.84.48-.96-.552-1.215.189.006-.003-.309-.66-2.523.39.312.657.003.006-1.413.219-.357.771-1.11-.168-.684 1.449 1.119.177-.345.732.96.555-.84.486 1.851 1.068.837-.486.954.552 1.29-.198.309.654 2.523-.39-.309-.66"/>
        <path fill="#F5B400" d="M406.704 140.421v-17.544l1.851 1.068v17.541l-1.851-1.065"/>
        <path fill="#CF7C00" d="M408.555 141.486v-17.541l.837-.486V141l-.837.486M415.869 139.935v-17.544l1.122.18v17.541l-1.122-.177M411.636 141.351v-17.538l.309.654v17.541l-.309-.657"/>
        <path fill="#F5B400" d="M411.945 142.008v-17.541l2.523-.39v17.547l-2.523.384M416.991 140.112v-17.541l.681-1.458v17.544l-.681 1.455"/>
        <path fill="#CF7C00" d="M416.613 124.017l1.818-3.921v-1.122l-13.593 2.106v1.116l4.98 2.874 6.795-1.053"/>
        <path fill="#FF9800" d="M416.613 122.898l1.818-3.924-4.968-2.874-6.798 1.056-1.827 3.924 4.98 2.871 6.795-1.053"/>
        <path fill="#754C29" d="M416.532 122.697l1.755-3.792v-6.114l-13.134 2.031v6.12l4.803 2.775 6.576-1.02"/>
        <path fill="#F5F5F5" d="M416.985 117.033l-.054 3.765 1.155-2.493v-3.642l-1.101 2.37M408.993 118.461l-3.183-1.833v3.819l3.285 1.893-.102-3.879M415.617 118.029l-4.539.696.096 3.804 4.386-.678.057-3.822"/>
        <path fill="#8B5E3C" d="M416.532 116.586l1.755-3.795-4.803-2.778-6.573 1.02-1.758 3.789 4.803 2.781 6.576-1.017"/>
        <path fill="#CF7C00" d="M416.613 116.979l1.818-3.927v-1.122l-13.593 2.1v1.119l4.98 2.88 6.795-1.05"/>
        <path fill="#FF9800" d="M416.613 115.86l1.818-3.93-4.968-2.871-6.798 1.05-1.827 3.921 4.98 2.88 6.795-1.05"/>
        <path fill="#CF7C00" d="M415.617 110.82V76.974l1.128.174v33.858l-1.128-.186M409.059 109.776V75.921l1.122.183v33.849l-1.122-.177M405.81 112.716V78.861l1.131.177v33.855l-1.131-.177"/>
        <path fill="#FF9800" d="M414.159 115.206l1.323-.201.387-.825 1.122.177.681-1.452-1.131-.18.315-.69V78.18l-10.272 1.593v33.852l.96.555-.84.483 1.851 1.062.837-.48.954.555 1.29-.201.309.654 2.523-.39-.309-.657"/>
        <path fill="#F5B400" d="M414.159 81.354l1.323-.204.387-.819 1.122.171.681-1.455-1.131-.177.315-.69-.951-.552.84-.48-1.845-1.071-.84.489-.96-.555-1.215.192.006-.009-.309-.66-2.523.387.312.666.003.003-1.413.219-.357.771-1.11-.171-.684 1.452 1.119.177-.345.735.96.549-.84.492 1.851 1.062.837-.486.954.555 1.29-.207.309.666 2.523-.39-.309-.66"/>
        <path fill="#F5B400" d="M406.704 114.663V80.814l1.851 1.062v33.849l-1.851-1.062"/>
        <path fill="#CF7C00" d="M408.555 115.725V81.876l.837-.486v33.855l-.837.48M415.869 114.18V80.322l1.122.18v33.855l-1.122-.177M411.636 115.599V81.738l.309.666v33.849l-.309-.654"/>
        <path fill="#F5B400" d="M411.945 116.253V82.404l2.523-.39v33.849l-2.523.39M416.991 114.357V80.502l.681-1.455v33.858l-.681 1.452"/>
        <path fill="#CF7C00" d="M416.613 82.641l1.818-3.927v-1.116l-13.593 2.103v1.119l4.98 2.868 6.795-1.047"/>
        <path fill="#FF9800" d="M416.613 81.519l1.818-3.921-4.968-2.877-6.798 1.059-1.827 3.921 4.98 2.871 6.795-1.053"/>
        <path fill="#CF7C00" d="M415.617 76.581V61.278l1.128.168v15.312l-1.128-.177M409.059 75.534V60.225l1.122.18v15.309l-1.122-.18M405.81 78.474V63.171l1.131.168v15.309l-1.131-.174"/>
        <path fill="#E2BC91" d="M414.159 80.958l1.323-.201.387-.819 1.122.174.681-1.452-1.131-.18.315-.681V62.493l-10.272 1.581v15.309l.96.555-.84.486 1.851 1.068.837-.489.954.552 1.29-.201.309.66 2.523-.393-.309-.663"/>
        <path fill="#F5B400" d="M414.159 65.661l1.323-.213.387-.816 1.122.174.681-1.455-1.131-.174.315-.684-.951-.558.84-.489-1.845-1.059-.84.48-.96-.552-1.215.189.006-.003-.309-.66-2.523.384.312.666h.003l-1.413.222-.357.774-1.11-.177-.684 1.461 1.119.165-.345.738.96.558-.84.48 1.851 1.071.837-.492.954.558 1.29-.201.309.654 2.523-.381-.309-.66"/>
        <path fill="#F5B400" d="M406.704 80.424V65.112l1.851 1.071v15.309l-1.851-1.068"/>
        <path fill="#CF7C00" d="M408.555 81.492V66.183l.837-.492v15.312l-.837.489M415.869 79.938V64.632l1.122.174v15.306l-1.122-.174M411.636 81.354V66.048l.309.654v15.312l-.309-.66"/>
        <path fill="#E2BC91" d="M411.945 82.014V66.702l2.523-.381v15.3l-2.523.393"/>
        <path fill="#F5B400" d="M416.991 80.112V64.806l.681-1.455V78.66l-.681 1.452"/>
        <path fill="#CF7C00" d="M416.613 67.812l1.818-3.924v-1.119l-13.593 2.1v1.119l4.98 2.871 6.795-1.047"/>
        <path fill="#FF9800" d="M416.613 66.69l1.818-3.921-4.968-2.877-6.798 1.053-1.827 3.924 4.98 2.871 6.795-1.05"/>
        <path fill="#E2BC91" d="M416.532 66.492l1.755-3.795v-6.12l-13.134 2.037v6.114l4.803 2.784 6.576-1.02"/>
        <path fill="#F5F5F5" d="M416.985 60.825l-.054 3.762 1.155-2.493v-3.648l-1.101 2.379M408.993 62.25l-3.183-1.839v3.822l3.285 1.893-.102-3.876M415.617 61.815l-4.539.705.096 3.801 4.386-.678.057-3.828"/>
        <path fill="#8B5E3C" d="M416.532 60.381l1.755-3.804-4.803-2.772-6.573 1.017-1.758 3.792 4.803 2.781 6.576-1.014"/>
        <path fill="#CF7C00" d="M416.613 60.771l1.818-3.93v-1.119l-13.593 2.103v1.119l4.98 2.871 6.795-1.044"/>
        <path fill="#FF9800" d="M416.613 59.643l1.818-3.921-4.968-2.874-6.798 1.053-1.827 3.924 4.98 2.874 6.795-1.056"/>
        <path fill="#E5A65E" d="M411.792 50.931a5.682 5.682 0 0 0-5.682 5.682c0 .84.555 1.68 1.662 2.325 2.22 1.281 5.814 1.281 8.037 0 1.11-.645 1.668-1.485 1.668-2.325a5.685 5.685 0 0 0-5.685-5.682"/>
        <path fill="#CF7C00" d="M412.71 51.228V49.44l.288.042v1.788l-.288-.042M411.072 50.967v-1.791l.279.045v1.788l-.279-.042M410.256 51.696V49.92l.282.036v1.785l-.282-.045"/>
        <path fill="#FF9800" d="M412.35 52.323l.333-.051.096-.207.279.045.171-.357-.282-.057.081-.168v-1.785l-2.577.399v1.788l.237.135-.21.123.465.267.21-.12.24.138.315-.045.087.162.633-.102-.078-.165"/>
        <path fill="#F5B400" d="M412.35 50.541l.333-.051.096-.21.279.042.171-.357-.282-.045.081-.177-.237-.138.207-.123-.465-.264-.21.12-.24-.138-.3.045-.081-.165-.63.096.081.165-.357.057-.096.198-.27-.048-.174.372.282.036-.087.186.237.138-.21.12.465.273.21-.12.24.135.315-.048.087.168.633-.105-.078-.162M410.478 52.188V50.4l.465.273v1.782l-.465-.267"/>
        <path fill="#CF7C00" d="M410.943 52.455v-1.782l.21-.12v1.782l-.21.12M412.779 52.065V50.28l.279.042v1.788l-.279-.045M411.708 52.428V50.64l.087.168v1.782l-.087-.162"/>
        <path fill="#F5B400" d="M411.795 52.59v-1.782l.633-.105v1.785l-.633.102M413.058 52.11v-1.788l.171-.357v1.788l-.171.357"/>
        <path fill="#754C29" d="M409.095 48.63l.795 1.767c.066.201.243.393.519.549.738.432 1.938.432 2.673 0 .276-.156.441-.345.519-.546l.843-1.881-5.349.111"/>
        <path fill="#A97C50" d="M413.715 49.269c-1.089.627-2.859.627-3.942 0-1.092-.63-1.092-1.65 0-2.28 1.083-.624 2.853-.624 3.942 0 1.095.63 1.095 1.65 0 2.28"/>
        <path fill="#F8D9B5" d="M428.205 161.724l2.148-4.629v-13.563l-16.032 2.481v13.557l5.871 3.387 8.013-1.233"/>
        <path fill="#BB8951" d="M414.321 152.79l5.871 3.39 8.013-1.245 2.148-4.623v2.646l-2.148 4.632-8.013 1.236-5.871-3.387v-2.649M428.205 148.164l2.148-4.632-5.868-3.381-8.013 1.239-2.151 4.623 5.871 3.384 8.013-1.233"/>
        <path fill="#CF7C00" d="M426.168 142.668v-17.541l1.125.177v17.538l-1.125-.174M419.61 141.624v-17.547l1.125.177v17.541l-1.125-.171M416.367 144.558V127.02l1.122.177v17.544l-1.122-.183"/>
        <path fill="#BB8E5C" d="M424.707 147.051l1.323-.201.384-.822 1.122.174.684-1.455-1.131-.183.321-.684v-17.538l-10.275 1.584v17.544l.957.558-.84.48 1.848 1.065.84-.483.954.555 1.293-.207.303.657 2.523-.387-.306-.657"/>
        <path fill="#F5B400" d="M424.707 129.507l1.323-.198.384-.828 1.122.18.684-1.458-1.131-.171.321-.69-.963-.555.846-.483-1.851-1.071-.837.489-.957-.552-1.215.183h.006l-.306-.66-2.523.384.306.663.009.003-1.416.222-.357.777-1.107-.177-.678 1.455 1.11.177-.342.729.957.555-.84.483 1.848 1.071.84-.486.954.552 1.293-.204.303.666 2.523-.39-.306-.666M417.252 146.508v-17.544l1.848 1.071v17.538l-1.848-1.065"/>
        <path fill="#CF7C00" d="M419.1 147.573v-17.538l.84-.486v17.541l-.84.483M426.414 146.028v-17.547l1.122.18v17.541l-1.122-.174M422.187 147.438v-17.541l.303.666v17.532l-.303-.657"/>
        <path fill="#F8D9B5" d="M422.49 148.095v-17.532l2.523-.39v17.535l-2.523.387"/>
        <path fill="#E2BC91" d="M427.536 146.202v-17.541l.684-1.458v17.544l-.684 1.455"/>
        <path fill="#BB8951" d="M427.164 130.107l1.815-3.924v-1.116l-13.59 2.1v1.125l4.977 2.868 6.798-1.053"/>
        <path fill="#FF9800" d="M427.164 128.991l1.815-3.924-4.971-2.877-6.795 1.056-1.824 3.921 4.977 2.877 6.798-1.053"/>
        <path fill="#B1752E" d="M427.077 128.793l1.758-3.795v-6.114l-13.137 2.031v6.12l4.806 2.775 6.573-1.017"/>
        <path fill="#E2BC91" d="M427.533 123.129l-.057 3.759 1.161-2.493v-3.648l-1.104 2.382"/>
        <path fill="#F5F5F5" d="M419.541 124.551l-3.174-1.839v3.825l3.273 1.893-.099-3.879"/>
        <path fill="#F8D9B5" d="M426.168 124.116l-4.545.705.099 3.795 4.386-.678.06-3.822"/>
        <path fill="#8B5E3C" d="M427.077 122.676l1.758-3.792-4.806-2.781-6.567 1.017-1.764 3.795 4.806 2.778 6.573-1.017"/>
        <path fill="#BB8951" d="M427.164 123.066l1.815-3.927v-1.116l-13.59 2.1v1.119l4.977 2.874 6.798-1.05"/>
        <path fill="#BD8C54" d="M427.164 121.941l1.815-3.918-4.971-2.877-6.795 1.056-1.824 3.921 4.977 2.871 6.798-1.053"/>
        <path fill="#CF7C00" d="M426.168 116.913V83.058l1.125.177v33.858l-1.125-.18M419.61 115.869V82.014l1.125.174v33.855l-1.125-.174M416.367 118.806V84.945l1.122.183v33.855l-1.122-.177"/>
        <path fill="#BB8E5C" d="M424.707 121.299l1.323-.207.384-.816 1.122.171.684-1.458-1.131-.177.321-.687V84.279l-10.275 1.584v33.849l.957.555-.84.489 1.848 1.062.84-.48.954.546 1.293-.201.303.66 2.523-.39-.306-.654"/>
        <path fill="#F5B400" d="M424.707 87.438l1.323-.201.384-.819 1.122.174.684-1.458-1.131-.177.321-.678-.963-.555.846-.489-1.851-1.062-.837.483-.957-.549-1.215.183.006-.003-.306-.666-2.523.393.306.66.009.006-1.416.216-.357.777-1.107-.174-.678 1.446 1.11.183-.342.735.957.549-.84.495 1.848 1.056.84-.477.954.546 1.293-.198.303.66 2.523-.396-.306-.66M417.252 120.756V86.907l1.848 1.056v33.855l-1.848-1.062"/>
        <path fill="#CF7C00" d="M419.1 121.818V87.963l.84-.477v33.852l-.84.48M426.414 120.276V86.412l1.122.18v33.855l-1.122-.171M422.187 121.683V87.834l.303.66v33.849l-.303-.66"/>
        <path fill="#F8D9B5" d="M422.49 122.343V88.494l2.523-.396v33.855l-2.523.39"/>
        <path fill="#E2BC91" d="M427.536 120.447V86.592l.684-1.458v33.855l-.684 1.458"/>
        <path fill="#BB8A52" d="M427.164 88.734l1.815-3.924v-1.122l-13.59 2.106v1.119l4.977 2.874 6.798-1.053"/>
        <path fill="#BD8C54" d="M427.164 87.612l1.815-3.924-4.971-2.874-6.795 1.056-1.824 3.924 4.977 2.871 6.798-1.053"/>
        <path fill="#CF7C00" d="M426.168 82.668V67.365l1.125.177v15.3l-1.125-.174M419.61 81.621v-15.3l1.125.171v15.309l-1.125-.18M416.367 84.567V69.255l1.122.18v15.309l-1.122-.177"/>
        <path fill="#BB8E5C" d="M424.707 87.057l1.323-.21.384-.816 1.122.177.684-1.458-1.131-.177.321-.687V68.577l-10.275 1.59v15.306l.957.552-.84.486 1.848 1.065.84-.483.954.552 1.293-.207.303.66 2.523-.387-.306-.654"/>
        <path fill="#F5B400" d="M424.707 71.748l1.323-.204.384-.828 1.122.18.684-1.458-1.131-.177.321-.684-.963-.546.846-.489-1.851-1.074-.837.489-.957-.549-1.215.183.006-.003-.306-.657-2.523.39.306.657.009.003-1.416.222-.357.771-1.107-.174-.678 1.455 1.11.18-.342.732.957.549-.84.489 1.848 1.065.84-.483.954.552 1.293-.198.303.657 2.523-.39-.306-.66M417.252 86.511V71.205l1.848 1.065v15.306l-1.848-1.065"/>
        <path fill="#CF7C00" d="M419.1 87.576V72.27l.84-.483v15.306l-.84.483"/>
        <path fill="#E5A65E" d="M426.414 86.031V70.716l1.122.18v15.312l-1.122-.177"/>
        <path fill="#CF7C00" d="M422.187 87.438V72.141l.303.657v15.3l-.303-.66"/>
        <path fill="#F8D9B5" d="M422.49 88.098v-15.3l2.523-.39v15.303l-2.523.387"/>
        <path fill="#E2BC91" d="M427.536 86.208V70.896l.684-1.458V84.75l-.684 1.458"/>
        <path fill="#BB8951" d="M427.164 73.902l1.815-3.924v-1.122l-13.59 2.1v1.125l4.977 2.871 6.798-1.05"/>
        <path fill="#FF9800" d="M427.164 72.78l1.815-3.924-4.971-2.871-6.795 1.05-1.824 3.921 4.977 2.874 6.798-1.05"/>
        <path fill="#E2BC91" d="M427.077 72.579l1.758-3.786v-6.117l-13.137 2.028v6.111l4.806 2.781 6.573-1.017"/>
        <path fill="#F5F5F5" d="M427.533 66.915l-.057 3.762 1.161-2.49v-3.648l-1.104 2.376M419.541 68.34l-3.174-1.83v3.816l3.273 1.896-.099-3.882M426.168 67.911l-4.545.693.099 3.807 4.386-.687.06-3.813"/>
        <path fill="#8B5E3C" d="M427.077 66.462l1.758-3.786-4.806-2.781-6.567 1.02-1.764 3.789 4.806 2.772 6.573-1.014"/>
        <path fill="#CF7C00" d="M427.164 66.858l1.815-3.924v-1.122l-13.59 2.1v1.122l4.977 2.877 6.798-1.053"/>
        <path fill="#FF9800" d="M427.164 65.742l1.815-3.93-4.971-2.871-6.795 1.047-1.824 3.924 4.977 2.874 6.798-1.044"/>
        <path fill="#E5A65E" d="M422.337 57.021a5.679 5.679 0 0 0-5.682 5.676c0 .849.555 1.686 1.665 2.328 2.223 1.281 5.814 1.281 8.037 0 1.104-.642 1.665-1.479 1.665-2.328a5.68 5.68 0 0 0-5.685-5.676"/>
        <path fill="#CF7C00" d="M423.264 57.312v-1.785l.285.048v1.779l-.285-.042M421.62 57.054v-1.788l.282.051v1.779l-.282-.042M420.807 57.795v-1.788l.276.045v1.779l-.276-.036"/>
        <path fill="#FF9800" d="M422.898 58.413l.33-.054.099-.201.279.036.171-.357-.279-.042.072-.177v-1.785l-2.577.393v1.788l.243.144-.204.126.459.261.21-.117.237.135.33-.054.069.168.636-.102-.075-.162"/>
        <path fill="#F5B400" d="M422.898 56.625l.33-.048.099-.201.279.039.171-.36-.279-.048.072-.174-.237-.138.216-.12-.465-.27-.213.129-.24-.144-.303.045-.075-.165-.633.096.072.171h.006l-.36.051-.084.195-.276-.042-.171.366.276.045-.09.174.243.15-.204.117.459.27.21-.123.237.141.33-.057.069.171.636-.099-.075-.171M421.032 58.284v-1.791l.459.27v1.782l-.459-.261"/>
        <path fill="#CF7C00" d="M421.491 58.545v-1.782l.21-.123v1.788l-.21.117M423.327 58.158v-1.782l.279.039v1.779l-.279-.036M422.268 58.509v-1.785l.069.171v1.782l-.069-.168"/>
        <path fill="#F5B400" d="M422.337 58.677v-1.782l.636-.099v1.779l-.636.102M423.606 58.194v-1.779l.171-.36v1.782l-.171.357"/>
        <path fill="#754C29" d="M419.64 54.72l.795 1.764c.069.204.246.396.516.555.738.429 1.944.429 2.676 0l.519-.546.852-1.884-5.358.111"/>
        <path fill="#A97C50" d="M424.266 55.356c-1.089.627-2.856.627-3.948 0-1.095-.627-1.095-1.647 0-2.277 1.092-.63 2.859-.63 3.948 0 1.083.63 1.083 1.65 0 2.277"/>
        <path fill="#E2BC91" d="M420.192 162.957V75.402l-24.78 14.304v87.564l24.78-14.313"/>
        <path fill="#FFF" d="M395.598 106.17l24.564-14.187v-9.87l-24.564 14.178v9.879"/>
        <path fill="#E5A65E" d="M397.902 94.968l22.26-12.855v-1.581l-22.26 12.858v1.578M397.902 106.419l22.26-12.861v-1.575l-22.26 12.855v1.581"/>
        <path fill="#E2BC91" d="M358.731 127.485V79.578l-24.783 14.31v47.907l24.783-14.31"/>
        <path fill="#BB8951" d="M333.948 103.227v-1.035l23.427-13.521v1.032l-23.427 13.524M399.672 151.251v-2.886l20.52-11.832v2.886l-20.52 11.832M399.672 159.153v-2.889l20.52-11.829v2.88l-20.52 11.838M399.672 167.046v-2.889l20.52-11.838v2.892l-20.52 11.835"/>
        <path fill="#B1752E" d="M384.888 132.627v-1.029l-21.039-12.141v1.029l21.039 12.141M384.888 139.074v-1.032l-21.039-12.144v1.041l21.039 12.135"/>
        <path fill="#F8D9B5" d="M384.888 138.042v-5.415l-21.039-12.141v5.412l21.039 12.144"/>
        <path fill="#B1752E" d="M333.948 103.227v-1.035l-15.567-8.988v1.029l15.567 8.994M333.948 109.674v-1.035l-15.567-8.988v1.026l15.567 8.997"/>
        <path fill="#BB8951" d="M333.948 109.674v-1.035l23.427-13.53v1.035l-23.427 13.53"/>
        <path fill="#F8D9B5" d="M333.948 108.639v-5.412l-15.567-8.994v5.418l15.567 8.988"/>
        <path fill="#FFEFDD" d="M333.948 102.192v-.228c0-9.534 6.699-13.398 14.955-8.637 8.253 4.767 14.946 16.365 14.946 25.896v.234l15.567 8.982V80.484l-61.029-35.235v47.958l15.561 8.985M379.416 168.045v-32.127l-15.567-8.979v32.115l15.567 8.991"/>
        <path fill="#E2BC91" d="M379.416 145.719v-2.88l-15.567-8.988v2.892l15.567 8.976M379.416 153.762v-2.889l-15.567-8.985v2.886l15.567 8.988M379.416 161.223v-2.886l-15.567-8.988v2.898l15.567 8.976"/>
        <path fill="#BB8951" d="M399.156 136.362v-1.032l21.036-12.138v1.032l-21.036 12.138M399.156 142.809v-1.035l21.036-12.141v1.035l-21.036 12.141"/>
        <path fill="#F8D9B5" d="M399.156 141.774v-5.412l21.036-12.138v5.409l-21.036 12.141"/>
        <path fill="#FFEFDD" d="M333.948 141.795v-32.121l-15.561-8.985v32.121l15.561 8.985"/>
        <path fill="#E2BC91" d="M333.948 119.478v-2.892l-15.561-8.985v2.892l15.561 8.985M333.948 127.512v-2.886l-15.561-8.982v2.883l15.561 8.985M333.948 134.976v-2.886l-15.561-8.985v2.892l15.561 8.979"/>
        <path fill="#F8D9B5" d="M333.948 102.192v-.228c0-9.534 6.699-13.398 14.955-8.637 8.253 4.767 14.946 16.365 14.946 25.896v.234l7.698 4.446v-.237c0-3.525-.603-7.296-1.788-11.205-1.137-3.777-2.766-7.515-4.845-11.118-2.082-3.588-4.497-6.873-7.2-9.747-2.796-2.985-5.763-5.385-8.811-7.152-3.054-1.761-6.021-2.778-8.82-3.03-2.691-.237-5.115.252-7.191 1.44-2.082 1.206-3.711 3.057-4.848 5.517-1.188 2.547-1.788 5.622-1.788 9.153v.222l7.692 4.446"/>
        <path fill="#FFF" d="M379.416 96.822l-61.029-35.238v-9.873l61.029 35.235v9.876"/>
        <path fill="#E5A65E" d="M379.416 86.937l-61.029-35.241v-1.575l61.029 35.238v1.578M379.416 98.34l-61.029-35.226v-1.575l61.029 35.226v1.575"/>
        <path fill="#F8D9B5" d="M420.192 75.402l-24.78 14.304-77.025-44.457 24.78-14.304 77.025 44.457M389.292 171.981l2.145-4.623v-13.563l-16.02 2.475v13.566l5.862 3.387 8.013-1.242"/>
        <path fill="#BB8951" d="M375.417 163.056l5.862 3.381 8.013-1.242 2.145-4.626v2.649l-2.145 4.632-8.013 1.239-5.862-3.393v-2.64M389.292 158.421l2.145-4.626-5.862-3.381-8.016 1.23-2.142 4.626 5.862 3.393 8.013-1.242"/>
        <path fill="#CF7C00" d="M387.252 152.931v-17.544l1.125.177v17.541l-1.125-.174M380.697 151.878v-17.544l1.125.186v17.535l-1.125-.177M377.445 154.821v-17.538l1.131.168v17.541l-1.131-.171"/>
        <path fill="#E2BC91" d="M385.8 157.314l1.317-.21.378-.819 1.134.171.681-1.449-1.134-.18.315-.681v-17.541l-10.266 1.587v17.535l.957.555-.84.492 1.848 1.056.837-.489.96.564 1.287-.204.306.654 2.52-.384-.3-.657"/>
        <path fill="#F5B400" d="M385.8 139.77l1.317-.207.378-.819 1.134.174.681-1.455-1.134-.174.315-.684-.951-.555.837-.486-1.845-1.068-.84.483-.957-.549-1.209.186.003-.003-.309-.66-2.523.381.309.666v.006l-1.407.213-.363.777-1.098-.171-.693 1.458 1.122.165-.342.744.957.549-.84.48 1.848 1.074.837-.483.96.555 1.287-.204.306.651 2.52-.384-.3-.66"/>
        <path fill="#FFEFDD" d="M378.342 156.774v-17.553l1.848 1.074v17.535l-1.848-1.056"/>
        <path fill="#CF7C00" d="M380.19 157.83v-17.535l.837-.483v17.529l-.837.489M387.495 156.285v-17.541l1.134.174v17.538l-1.134-.171M383.274 157.701v-17.538l.306.651v17.541l-.306-.654"/>
        <path fill="#FFEFDD" d="M383.58 158.355v-17.541l2.52-.384v17.541l-2.52.384"/>
        <path fill="#F5B400" d="M388.629 156.456v-17.538l.681-1.455v17.544l-.681 1.449"/>
        <path fill="#C79965" d="M388.251 140.37l1.815-3.927v-1.116l-13.593 2.103v1.125l4.98 2.871 6.798-1.056"/>
        <path fill="#FF9800" d="M388.251 139.254l1.815-3.927-4.971-2.874-6.795 1.05-1.827 3.927 4.98 2.874 6.798-1.05"/>
        <path fill="#E2BC91" d="M388.164 139.053l1.764-3.795v-6.111l-13.14 2.028v6.117l4.806 2.778 6.57-1.017"/>
        <path fill="#F5F5F5" d="M388.626 133.38l-.057 3.765 1.155-2.49v-3.636l-1.098 2.361M380.631 134.814l-3.186-1.839v3.825l3.282 1.893-.096-3.879M387.252 134.379l-4.539.699.093 3.804 4.389-.678.057-3.825"/>
        <path fill="#8B5E3C" d="M388.164 132.933l1.764-3.786-4.812-2.781-6.57 1.017-1.758 3.792 4.806 2.778 6.57-1.02"/>
        <path fill="#C79965" d="M388.251 133.323l1.815-3.918v-1.122l-13.593 2.103v1.116l4.98 2.877 6.798-1.056"/>
        <path fill="#BB8951" d="M388.251 132.201l1.815-3.918-4.971-2.874-6.795 1.05-1.827 3.927 4.98 2.871 6.798-1.056"/>
        <path fill="#CF7C00" d="M387.252 127.176V93.318l1.125.177v33.849l-1.125-.168M380.697 126.129V92.274l1.125.174v33.855l-1.125-.174M377.445 129.066V95.211l1.131.177v33.858l-1.131-.18"/>
        <path fill="#E2BC91" d="M385.8 131.553l1.317-.201.378-.822 1.134.177.681-1.455-1.134-.177.315-.684V94.536l-10.266 1.584v33.852l.957.555-.84.492 1.848 1.059.837-.48.96.552 1.287-.207.306.663 2.52-.39-.3-.663"/>
        <path fill="#F5B400" d="M385.8 97.71l1.317-.21.378-.822 1.134.177.681-1.455-1.134-.177.315-.687-.951-.558.837-.483-1.845-1.062-.84.483-.957-.552-1.209.189.003-.009-.309-.657-2.523.387.309.663-1.407.219-.363.774-1.098-.174-.693 1.455 1.122.177-.342.732.957.558-.84.48 1.848 1.071.837-.489.96.555 1.287-.201.306.654 2.52-.39-.3-.648"/>
        <path fill="#FFEFDD" d="M378.342 131.019V97.158l1.848 1.071v33.849l-1.848-1.059"/>
        <path fill="#CF7C00" d="M380.19 132.078V98.229l.837-.489v33.858l-.837.48M387.495 130.53V96.678l1.134.177v33.852l-1.134-.177M383.274 131.943V98.094l.306.654v33.858l-.306-.663"/>
        <path fill="#FFEFDD" d="M383.58 132.606V98.748l2.52-.39v33.858l-2.52.39"/>
        <path fill="#F5B400" d="M388.629 130.707V96.855l.681-1.455v33.852l-.681 1.455"/>
        <path fill="#92612B" d="M388.251 98.991l1.815-3.921v-1.119l-13.593 2.1v1.125l4.98 2.871 6.798-1.056"/>
        <path fill="#E2BC91" d="M388.251 97.875l1.815-3.924-4.971-2.877-6.795 1.05-1.827 3.927 4.98 2.877 6.798-1.053"/>
        <path fill="#CF7C00" d="M387.252 92.934V77.625l1.125.18v15.303l-1.125-.174M380.697 91.881V76.575l1.125.18v15.312l-1.125-.186M377.445 94.821V79.518l1.131.177v15.3l-1.131-.174"/>
        <path fill="#E2BC91" d="M385.8 97.317l1.317-.204.378-.822 1.134.171.681-1.455-1.134-.174.315-.687V78.84l-10.266 1.59v15.309l.957.546-.84.483 1.848 1.068.837-.483.96.552 1.287-.195.306.648 2.52-.387-.3-.654"/>
        <path fill="#F5B400" d="M385.8 82.014l1.317-.213.378-.819 1.134.177.681-1.455-1.134-.177.315-.687-.951-.555.837-.48-1.845-1.071-.84.486-.957-.549-1.209.183.003-.003-.309-.663-2.523.387.309.669-1.407.216-.363.777-1.098-.174-.693 1.455 1.122.171-.342.741.957.552-.84.477 1.848 1.071.837-.48.96.546 1.287-.198.306.657 2.52-.387-.3-.654"/>
        <path fill="#FFEFDD" d="M378.342 96.768V81.459l1.848 1.071v15.306l-1.848-1.068"/>
        <path fill="#CF7C00" d="M380.19 97.836V82.53l.837-.48v15.303l-.837.483M387.495 96.291V80.982l1.134.177v15.303l-1.134-.171M383.274 97.71V82.398l.306.657v15.303l-.306-.648"/>
        <path fill="#FFEFDD" d="M383.58 98.358V83.055l2.52-.387v15.303l-2.52.387"/>
        <path fill="#F5B400" d="M388.629 96.462V81.159l.681-1.455v15.303l-.681 1.455"/>
        <path fill="#CF7C00" d="M388.251 84.165l1.815-3.927v-1.122l-13.593 2.103v1.122l4.98 2.871 6.798-1.047"/>
        <path fill="#FF9800" d="M388.251 83.043l1.815-3.927-4.971-2.871-6.795 1.047-1.827 3.927 4.98 2.868 6.798-1.044"/>
        <path fill="#E2BC91" d="M388.164 82.842l1.764-3.795V72.93l-13.14 2.037v6.111l4.806 2.781 6.57-1.017"/>
        <path fill="#F5F5F5" d="M388.626 77.175l-.057 3.762 1.155-2.49v-3.645l-1.098 2.373M380.631 78.6l-3.186-1.836v3.825l3.282 1.887-.096-3.876M387.252 78.171l-4.539.699.093 3.798 4.389-.678.057-3.819"/>
        <path fill="#8B5E3C" d="M388.164 76.728l1.764-3.798-4.812-2.772-6.57 1.011-1.758 3.798 4.806 2.775 6.57-1.014"/>
        <path fill="#CF7C00" d="M388.251 77.112l1.815-3.918v-1.125l-13.593 2.109v1.116l4.98 2.877 6.798-1.059"/>
        <path fill="#FF9800" d="M388.251 75.993l1.815-3.924-4.971-2.871-6.795 1.056-1.827 3.924 4.98 2.877 6.798-1.062"/>
        <path fill="#E5A65E" d="M383.427 67.281a5.682 5.682 0 0 0-5.685 5.679c0 .846.558 1.683 1.662 2.322 2.223 1.284 5.82 1.284 8.04 0 1.113-.639 1.665-1.476 1.665-2.322a5.678 5.678 0 0 0-5.682-5.679"/>
        <path fill="#CF7C00" d="M384.345 67.575v-1.782l.291.045v1.785l-.291-.048M382.707 67.314v-1.785l.279.039v1.788l-.279-.042M381.894 68.046v-1.785l.279.051v1.782l-.279-.048"/>
        <path fill="#FF9800" d="M383.985 68.676l.33-.051.096-.207.282.045.168-.369-.279-.042.081-.171v-1.785l-2.577.396v1.788l.24.138-.213.123.462.261.213-.12.24.138.324-.048.075.162.633-.096-.075-.162"/>
        <path fill="#F5B400" d="M383.985 66.888l.33-.048.096-.204.282.045.168-.366-.279-.051.081-.168-.24-.144.213-.114-.468-.273-.207.123-.243-.138-.306.042h.006l-.078-.162-.633.099.075.162h.006l-.357.057-.087.189-.282-.033-.168.357.276.051-.084.18.24.144-.213.12.462.267.213-.123.24.141.324-.057.075.165.633-.093-.075-.168"/>
        <path fill="#F5B400" d="M382.113 68.541v-1.785l.462.267v1.779l-.462-.261"/>
        <path fill="#CF7C00" d="M382.575 68.802v-1.779l.213-.123v1.782l-.213.12M384.411 68.418v-1.782l.282.045v1.782l-.282-.045M383.352 68.772v-1.788l.075.165v1.785l-.075-.162"/>
        <path fill="#F5B400" d="M383.427 68.934v-1.785l.633-.093v1.782l-.633.096M384.693 68.463v-1.782l.168-.366v1.779l-.168.369"/>
        <path fill="#754C29" d="M380.73 64.983l.789 1.767c.075.204.252.393.525.552.738.42 1.935.42 2.676 0l.513-.546.855-1.887-5.358.114"/>
        <path fill="#A97C50" d="M385.353 65.613c-1.092.636-2.85.636-3.945 0-1.098-.63-1.098-1.647 0-2.277 1.095-.633 2.853-.633 3.945 0 1.089.63 1.089 1.647 0 2.277"/>
        <path fill="#F8D9B5" d="M399.837 178.074l2.145-4.629v-13.56l-16.02 2.475v13.569l5.865 3.384 8.01-1.239"/>
        <path fill="#BB8951" d="M385.962 169.143l5.865 3.39 8.01-1.242 2.145-4.623v2.64l-2.145 4.629-8.01 1.242-5.865-3.387v-2.649M399.837 164.511l2.145-4.626-5.862-3.39-8.016 1.239-2.142 4.626 5.865 3.387 8.01-1.236"/>
        <path fill="#CF7C00" d="M397.8 159.021v-17.544l1.128.174v17.544l-1.128-.174M391.245 157.977v-17.544l1.125.174v17.544l-1.125-.174M387.996 160.908v-17.541l1.125.183v17.538l-1.125-.18"/>
        <path fill="#E2BC91" d="M396.342 163.398l1.329-.207.378-.816 1.122.18.678-1.458-1.128-.183.321-.684v-17.535l-10.272 1.587v17.538l.96.549-.84.489 1.842 1.071.843-.489.954.552 1.287-.198.312.657 2.526-.396-.312-.657"/>
        <path fill="#F5B400" d="M396.342 145.86l1.329-.207.378-.819 1.122.18.678-1.455-1.128-.186.321-.678-.96-.558.846-.486-1.848-1.062-.843.48-.951-.552-1.218.189.003-.006-.3-.657-2.526.39.309.66.003.003-1.413.219-.357.771-1.107-.174-.684 1.455 1.116.183-.342.732.96.552-.84.486 1.842 1.068.843-.489.954.555 1.287-.204.312.66 2.526-.39-.312-.66"/>
        <path fill="#FFEFDD" d="M388.89 162.858V145.32l1.842 1.068v17.541l-1.842-1.071"/>
        <path fill="#CF7C00" d="M390.732 163.929v-17.541l.843-.489v17.541l-.843.489"/>
        <path fill="#BB8951" d="M398.049 162.375v-17.541l1.122.18v17.541l-1.122-.18"/>
        <path fill="#CF7C00" d="M393.816 163.794V146.25l.312.66v17.541l-.312-.657"/>
        <path fill="#FFEFDD" d="M394.128 164.451V146.91l2.526-.39v17.535l-2.526.396"/>
        <path fill="#BB8951" d="M399.171 162.555v-17.541l.678-1.455v17.538l-.678 1.458"/>
        <path fill="#C79965" d="M398.799 146.46l1.815-3.924v-1.119l-13.587 2.103v1.119l4.974 2.874 6.798-1.053"/>
        <path fill="#FF9800" d="M398.799 145.341l1.815-3.924-4.971-2.874-6.798 1.056-1.818 3.921 4.974 2.874 6.798-1.053"/>
        <path fill="#E2BC91" d="M398.712 145.137l1.761-3.789v-6.117l-13.143 2.034v6.117l4.818 2.775 6.564-1.02"/>
        <path fill="#F5F5F5" d="M399.171 139.476l-.054 3.756 1.155-2.484v-3.645l-1.101 2.373M391.176 140.901l-3.18-1.839v3.825l3.282 1.893-.102-3.879M397.8 140.466l-4.536.705.093 3.795 4.392-.675.051-3.825"/>
        <path fill="#8B5E3C" d="M398.712 139.023l1.761-3.792-4.809-2.775-6.573 1.017-1.761 3.792 4.818 2.778 6.564-1.02"/>
        <path fill="#92612B" d="M398.799 139.419l1.815-3.93v-1.113l-13.587 2.097v1.122l4.974 2.871 6.798-1.047"/>
        <path fill="#E2BC91" d="M398.799 138.291l1.815-3.915-4.971-2.877-6.798 1.047-1.818 3.927 4.974 2.871 6.798-1.053"/>
        <path fill="#CF7C00" d="M397.8 133.263V99.414l1.128.177v33.849l-1.128-.177M391.245 132.219V98.358l1.125.183v33.849l-1.125-.171M387.996 135.159v-33.855l1.125.174v33.852l-1.125-.171"/>
        <path fill="#E2BC91" d="M396.342 137.646l1.329-.201.378-.831 1.122.186.678-1.455-1.128-.18.321-.69v-33.849l-10.272 1.59v33.852l.96.546-.84.489 1.842 1.065.843-.483.954.552 1.287-.195.312.654 2.526-.39-.312-.66"/>
        <path fill="#F5B400" d="M396.342 103.791l1.329-.201.378-.825 1.122.18.678-1.458-1.128-.174.321-.687-.96-.561.846-.474-1.848-1.071-.843.48-.951-.546-1.218.186h.003l-.3-.666-2.526.384.309.663.003.012-1.413.213-.357.771-1.107-.168-.684 1.455 1.116.174-.342.738.96.549-.84.483 1.842 1.065.843-.48.954.552 1.287-.201.312.654 2.526-.384-.312-.663"/>
        <path fill="#FFEFDD" d="M388.89 137.103v-33.855l1.842 1.065v33.855l-1.842-1.065"/>
        <path fill="#CF7C00" d="M390.732 138.168v-33.855l.843-.48v33.852l-.843.483"/>
        <path fill="#BB8951" d="M398.049 136.614v-33.849l1.122.18V136.8l-1.122-.186"/>
        <path fill="#CF7C00" d="M393.816 138.042v-33.858l.312.654v33.858l-.312-.654"/>
        <path fill="#FFEFDD" d="M394.128 138.696v-33.858l2.526-.384v33.852l-2.526.39"/>
        <path fill="#BB8951" d="M399.171 136.8v-33.855l.678-1.458v33.858l-.678 1.455"/>
        <path fill="#BB8951" d="M398.799 105.081l1.815-3.921v-1.122l-13.587 2.103v1.116l4.974 2.874 6.798-1.05"/>
        <path fill="#92612B" d="M398.799 103.959l1.815-3.921-4.971-2.874-6.798 1.056-1.818 3.921 4.974 2.871 6.798-1.053"/>
        <path fill="#CF7C00" d="M397.8 99.018v-15.3l1.128.174v15.303l-1.128-.177M391.245 97.974V82.668l1.125.174v15.312l-1.125-.18M387.996 100.914V85.611l1.125.171v15.303l-1.125-.171"/>
        <path fill="#E2BC91" d="M396.342 103.407l1.329-.21.378-.813 1.122.171.678-1.452-1.128-.177.321-.696v-15.3l-10.272 1.59v15.303l.96.558-.84.483 1.842 1.062.843-.489.954.561 1.287-.201.312.657 2.526-.39-.312-.657"/>
        <path fill="#F5B400" d="M396.342 88.095l1.329-.204.378-.819 1.122.174.678-1.449-1.128-.18.321-.687-.96-.555.846-.483-1.848-1.068-.843.486-.951-.555-1.218.192.003-.003-.3-.669-2.526.393.309.663h.003l-1.413.222-.357.771-1.107-.171-.684 1.458 1.116.171-.342.738.96.549-.84.483 1.842 1.065.843-.48.954.558 1.287-.204.312.654 2.526-.39-.312-.66"/>
        <path fill="#FFEFDD" d="M388.89 102.864V87.552l1.842 1.065v15.309l-1.842-1.062"/>
        <path fill="#CF7C00" d="M390.732 103.926V88.617l.843-.48v15.3l-.843.489"/>
        <path fill="#BB8951" d="M398.049 102.384V87.072l1.122.174v15.309l-1.122-.171"/>
        <path fill="#CF7C00" d="M393.816 103.797V88.491l.312.654v15.309l-.312-.657"/>
        <path fill="#FFEFDD" d="M394.128 104.454V89.145l2.526-.39v15.309l-2.526.39"/>
        <path fill="#BB8951" d="M399.171 102.555V87.246l.678-1.449v15.306l-.678 1.452"/>
        <path fill="#CF7C00" d="M398.799 90.252l1.815-3.93V85.2l-13.587 2.109v1.122l4.974 2.871 6.798-1.05"/>
        <path fill="#FF9800" d="M398.799 89.133l1.815-3.933-4.971-2.868-6.798 1.053-1.818 3.924 4.974 2.874 6.798-1.05"/>
        <path fill="#E2BC91" d="M398.712 88.935l1.761-3.801v-6.111L387.33 81.06v6.111l4.818 2.778 6.564-1.014"/>
        <path fill="#F5F5F5" d="M399.171 83.265l-.054 3.768 1.155-2.496v-3.642l-1.101 2.37M391.176 84.687l-3.18-1.836v3.828l3.282 1.89-.102-3.882M397.8 84.258l-4.536.699.093 3.798 4.392-.678.051-3.819"/>
        <path fill="#8B5E3C" d="M398.712 82.815l1.761-3.792-4.809-2.778-6.573 1.02-1.761 3.795 4.818 2.769 6.564-1.014"/>
        <path fill="#CF7C00" d="M398.799 83.205l1.815-3.924v-1.119l-13.587 2.103v1.116l4.974 2.877 6.798-1.053"/>
        <path fill="#FF9800" d="M398.799 82.083l1.815-3.921-4.971-2.871-6.798 1.05-1.818 3.924 4.974 2.877 6.798-1.059"/>
        <path fill="#E5A65E" d="M393.972 73.368a5.68 5.68 0 0 0-5.679 5.688c0 .84.549 1.677 1.665 2.319 2.22 1.281 5.811 1.281 8.031 0 1.11-.642 1.668-1.479 1.668-2.319a5.684 5.684 0 0 0-5.685-5.688"/>
        <path fill="#CF7C00" d="M394.899 73.665V71.88l.282.045v1.785l-.282-.045M393.252 73.401v-1.782l.285.036v1.785l-.285-.039M392.433 74.136v-1.785l.285.048v1.785l-.285-.048"/>
        <path fill="#FF9800" d="M394.533 74.769l.333-.057.096-.201.282.042.168-.369-.282-.045.081-.168V72.18l-2.577.402v1.788l.237.138-.21.12.459.27.216-.126.237.138.33-.048.072.162.636-.093-.078-.162"/>
        <path fill="#F5B400" d="M394.533 72.981l.333-.054.096-.207.282.045.168-.363-.282-.039.081-.183-.243-.135.213-.12-.462-.27-.213.129-.24-.141-.306.045h.006l-.078-.162-.636.093.078.168-.351.051-.09.201-.279-.048-.177.36.279.048-.078.183.237.138-.21.126.459.267.216-.123.237.135.33-.045.072.165.636-.099-.078-.165M392.661 74.628v-1.782l.459.267v1.785l-.459-.27"/>
        <path fill="#CF7C00" d="M393.12 74.898v-1.785l.216-.123v1.782l-.216.126M394.962 74.511V72.72l.282.045v1.788l-.282-.042M393.903 74.862V73.08l.072.165v1.779l-.072-.162"/>
        <path fill="#F5B400" d="M393.975 75.024v-1.779l.636-.099v1.785l-.636.093M395.244 74.553v-1.788l.168-.363v1.782l-.168.369"/>
        <path fill="#754C29" d="M391.278 71.07l.792 1.764.516.552c.741.432 1.941.432 2.679 0 .273-.153.441-.345.513-.546l.855-1.884-5.355.114"/>
        <path fill="#A97C50" d="M395.901 71.703c-1.095.633-2.859.633-3.948 0-1.092-.63-1.092-1.65 0-2.274 1.089-.63 2.853-.63 3.948 0 1.086.624 1.086 1.644 0 2.274"/>
        <path fill="#E5A65E" d="M356.991 60.504l-9.513-5.49-1.092.627 1.092 1.272v7.578c0 4.671 4.647 9.552 4.848 9.762l.261.264.261.036c.087.006 1.002.102 2.01-.162l.066.144 1.02-.591v-.003c.954-.561 1.758-1.614 1.758-3.549v-9.477l-.711-.411"/>
        <path fill="#754C29" d="M355.905 61.134l-8.814-5.082-.705-.411v9.483c0 4.668 4.653 9.552 4.851 9.756l.258.273.264.027c.198.027 4.851.513 4.851-4.155v-9.477l-.705-.414"/>
        <path fill="#FFF" d="M347.091 56.862v8.67c0 4.164 4.404 8.742 4.404 8.742s4.41.516 4.41-3.657v-8.664l-8.814-5.091"/>
        <path fill="#BB8951" d="M344.031 138.618l11.397-25.941-2.283-1.317-11.397 6.573v19.368l2.283 1.317"/>
        <path fill="#F8D9B5" d="M355.428 132.042v-19.365l-11.397 6.585v19.356l11.397-6.576"/>
        <path fill="#C3935E" d="M347.43 136.656l-2.082 1.203v-12.846l1.038-2.856 1.044 1.653v12.846"/>
        <path fill="#754C29" d="M347.43 126.621l-2.082 1.203v-2.811l1.038-2.856 1.044 1.653v2.811"/>
        <path fill="#C3935E" d="M350.889 134.655l-2.088 1.203v-12.84l1.041-2.859 1.047 1.653v12.843M354.342 132.663l-2.088 1.206V121.02l1.047-2.853 1.041 1.653v12.843"/>
        <path fill="#754C29" d="M350.889 124.626l-2.088 1.203v-2.811l1.041-2.859 1.047 1.653v2.814M354.342 122.631l-2.088 1.203v-2.814l1.047-2.853 1.041 1.653v2.811"/>
        <path fill="#000" fill-opacity=".15" d="M276.591 201.372l-.561-.15-10.392-6a1.127 1.127 0 0 1-.414-1.539 1.138 1.138 0 0 1 1.539-.411l10.392 6a1.125 1.125 0 1 1-.564 2.1zm20.787 12l-.561-.15-10.392-6a1.125 1.125 0 0 1-.414-1.539 1.134 1.134 0 0 1 1.539-.411l10.392 6a1.125 1.125 0 1 1-.564 2.1zm20.784 12l-.564-.15-10.392-6a1.126 1.126 0 0 1-.411-1.539 1.132 1.132 0 0 1 1.536-.411l10.392 6a1.124 1.124 0 0 1-.561 2.1zm20.784 12l-.561-.15-10.392-6a1.127 1.127 0 0 1-.414-1.539 1.138 1.138 0 0 1 1.539-.411l10.392 6a1.124 1.124 0 0 1-.564 2.1zm20.784 12l-.561-.15-10.392-6a1.127 1.127 0 0 1-.414-1.539 1.137 1.137 0 0 1 1.539-.411l10.392 6a1.125 1.125 0 1 1-.564 2.1zm13.344 7.701l-.561-.15-2.949-1.707a1.118 1.118 0 0 1-.411-1.536 1.122 1.122 0 0 1 1.536-.408l2.949 1.704c.54.312.723.999.411 1.536-.21.36-.588.561-.975.561zM587.967 51.132l-.561-.15-10.392-6a1.127 1.127 0 0 1-.414-1.539 1.138 1.138 0 0 1 1.539-.411l10.392 6a1.125 1.125 0 1 1-.564 2.1zm20.787 11.997l-.564-.15-10.389-6a1.125 1.125 0 0 1-.414-1.539 1.137 1.137 0 0 1 1.539-.411l10.389 6a1.125 1.125 0 1 1-.561 2.1zM463.845 122.796l-.561-.15-10.392-6a1.128 1.128 0 0 1-.414-1.539 1.14 1.14 0 0 1 1.539-.414l10.392 6a1.128 1.128 0 0 1-.564 2.103zm20.787 12l-.564-.15-10.389-6a1.125 1.125 0 0 1-.414-1.539 1.142 1.142 0 0 1 1.539-.414l10.389 6a1.126 1.126 0 0 1-.561 2.103zm20.784 12l-.564-.15-10.392-6a1.127 1.127 0 0 1-.411-1.539 1.135 1.135 0 0 1 1.536-.414l10.392 6c.54.312.723 1.002.414 1.539-.21.36-.588.564-.975.564zm20.784 11.997l-.561-.15-10.392-5.997a1.128 1.128 0 0 1-.414-1.539 1.14 1.14 0 0 1 1.539-.414l10.392 5.997c.54.312.723 1.002.414 1.539a1.14 1.14 0 0 1-.978.564zm20.787 12l-.561-.15-10.395-6a1.125 1.125 0 0 1-.414-1.539 1.143 1.143 0 0 1 1.539-.414l10.395 6a1.128 1.128 0 0 1-.564 2.103zm15.78 9.111l-.564-.15-5.388-3.111a1.128 1.128 0 0 1-.411-1.539 1.138 1.138 0 0 1 1.536-.414l5.388 3.114c.54.312.726.999.414 1.536-.21.36-.588.564-.975.564zM356.058 279.726l-.561-.15-10.392-6a1.124 1.124 0 0 1-.414-1.536 1.136 1.136 0 0 1 1.539-.414l10.392 6c.54.312.723.999.414 1.539-.213.36-.591.561-.978.561zm18.504 10.683l-.561-.15-8.109-4.683a1.124 1.124 0 1 1 1.125-1.95l8.109 4.683a1.124 1.124 0 0 1-.564 2.1z"/>
        <path fill="#DAD6C4" d="M315.05 325.105a1.127 1.127 0 0 1-.564-2.103l6.683-3.858a1.143 1.143 0 0 1 1.54.414c.308.54.125 1.227-.415 1.539l-6.684 3.858-.56.15zm-20.785 12a1.125 1.125 0 0 1-.561-2.103l10.39-6a1.14 1.14 0 0 1 1.538.414c.312.54.126 1.227-.414 1.539l-10.389 6-.564.15zm-20.787 12c-.384 0-.762-.204-.975-.564a1.128 1.128 0 0 1 .414-1.539l10.395-6a1.14 1.14 0 0 1 1.536.414c.312.54.126 1.227-.41 1.539l-10.396 6-.564.15zm-20.78 12a1.14 1.14 0 0 1-.979-.564 1.128 1.128 0 0 1 .414-1.539l10.392-6a1.143 1.143 0 0 1 1.54.414c.308.54.125 1.227-.415 1.539l-10.392 6-.56.15zm-20.788 12a1.127 1.127 0 0 1-.564-2.103l10.395-6a1.142 1.142 0 0 1 1.54.414c.308.54.125 1.227-.415 1.539l-10.395 6-.56.15zm-20.784 12a1.125 1.125 0 0 1-.561-2.103l10.392-6a1.135 1.135 0 0 1 1.536.414c.312.54.126 1.227-.41 1.539l-10.393 6-.564.15z"/>
        <path fill="#DAD6C4" d="M212.05 384.105a1.127 1.127 0 0 1-.564-2.103l6.683-3.858a1.143 1.143 0 0 1 1.54.414c.308.54.125 1.227-.415 1.539l-6.684 3.858-.56.15zm-20.785 12a1.125 1.125 0 0 1-.561-2.103l10.39-6a1.14 1.14 0 0 1 1.538.414c.312.54.126 1.227-.414 1.539l-10.389 6-.564.15zm-20.787 12c-.384 0-.762-.204-.975-.564a1.128 1.128 0 0 1 .414-1.539l10.395-6a1.14 1.14 0 0 1 1.536.414c.312.54.126 1.227-.41 1.539l-10.396 6-.564.15zm-20.78 12a1.14 1.14 0 0 1-.979-.564 1.128 1.128 0 0 1 .414-1.539l10.392-6a1.143 1.143 0 0 1 1.54.414c.308.54.125 1.227-.415 1.539l-10.392 6-.56.15zm-20.788 12a1.127 1.127 0 0 1-.564-2.103l10.395-6a1.142 1.142 0 0 1 1.54.414c.308.54.125 1.227-.415 1.539l-10.395 6-.56.15zm-20.784 12a1.125 1.125 0 0 1-.561-2.103l10.392-6a1.135 1.135 0 0 1 1.536.414c.312.54.126 1.227-.41 1.539l-10.393 6-.564.15z"/>
        <path fill="#DAD6C4" d="M105.05 446.105a1.127 1.127 0 0 1-.564-2.103l6.683-3.858a1.143 1.143 0 0 1 1.54.414c.308.54.125 1.227-.415 1.539l-6.684 3.858-.56.15zm-20.785 12a1.125 1.125 0 0 1-.561-2.103l10.39-6a1.14 1.14 0 0 1 1.538.414c.312.54.126 1.227-.414 1.539l-10.389 6-.564.15zm-20.787 12c-.384 0-.762-.204-.975-.564a1.128 1.128 0 0 1 .414-1.539l10.395-6a1.14 1.14 0 0 1 1.536.414c.312.54.126 1.227-.41 1.539l-10.396 6-.564.15zm-20.78 12a1.14 1.14 0 0 1-.979-.564 1.128 1.128 0 0 1 .414-1.539l10.392-6a1.143 1.143 0 0 1 1.54.414c.308.54.125 1.227-.415 1.539l-10.392 6-.56.15zm-20.788 12a1.127 1.127 0 0 1-.564-2.103l10.395-6a1.142 1.142 0 0 1 1.54.414c.308.54.125 1.227-.415 1.539l-10.395 6-.56.15zm-20.784 12a1.125 1.125 0 0 1-.561-2.103l10.392-6a1.135 1.135 0 0 1 1.536.414c.312.54.126 1.227-.41 1.539l-10.393 6-.564.15z"/>
        <path fill="#000" fill-opacity=".15" d="M557.376 56.796a1.128 1.128 0 0 1-.564-2.103l10.392-6a1.141 1.141 0 0 1 1.539.414c.312.54.126 1.227-.414 1.539l-10.392 6-.561.15zm-20.784 12a1.126 1.126 0 0 1-.561-2.103l10.392-6a1.138 1.138 0 0 1 1.536.414c.312.54.126 1.227-.411 1.539l-10.392 6-.564.15zm-20.787 12c-.384 0-.762-.204-.975-.564a1.129 1.129 0 0 1 .414-1.539l10.395-6a1.143 1.143 0 0 1 1.539.414c.309.54.126 1.227-.414 1.539l-10.395 6-.564.15zm-20.781 12a1.128 1.128 0 0 1-.564-2.103l10.392-6a1.14 1.14 0 0 1 1.539.414c.309.54.126 1.227-.414 1.539l-10.392 6-.561.15zm-20.787 12a1.126 1.126 0 0 1-.561-2.103l10.392-6a1.142 1.142 0 0 1 1.539.414c.312.54.126 1.227-.414 1.539l-10.392 6-.564.15zm-20.784 12c-.387 0-.765-.204-.975-.564a1.129 1.129 0 0 1 .414-1.539l10.392-6a1.14 1.14 0 0 1 1.536.414c.312.54.126 1.227-.411 1.539l-10.392 6-.564.15zM603.192 158.409a1.124 1.124 0 0 1-.561-2.1l10.101-5.832a1.139 1.139 0 0 1 1.539.414c.309.54.126 1.227-.414 1.539l-10.101 5.829-.564.15zm-20.781 12a1.14 1.14 0 0 1-.978-.564 1.127 1.127 0 0 1 .414-1.536l10.392-6a1.137 1.137 0 0 1 1.539.411c.309.54.126 1.227-.414 1.539l-10.392 6-.561.15zm-20.787 12c-.387 0-.765-.204-.975-.564a1.123 1.123 0 0 1 .411-1.536l10.395-6a1.138 1.138 0 0 1 1.539.411c.312.54.126 1.227-.414 1.539l-10.395 6-.561.15zm-20.784 12a1.124 1.124 0 0 1-.561-2.1l10.392-6a1.133 1.133 0 0 1 1.536.411c.312.54.126 1.227-.411 1.539l-10.392 6-.564.15zm-20.784 12a1.124 1.124 0 0 1-.564-2.1l10.395-6a1.14 1.14 0 0 1 1.539.411c.309.54.126 1.227-.414 1.539l-10.395 6-.561.15zm-20.784 12c-.387 0-.765-.204-.975-.564a1.123 1.123 0 0 1 .411-1.536l10.392-6a1.136 1.136 0 0 1 1.539.411c.309.54.126 1.227-.414 1.539l-10.392 6-.561.15zm-20.784 12c-.387 0-.765-.204-.975-.564a1.122 1.122 0 0 1 .414-1.536l10.389-6a1.14 1.14 0 0 1 1.539.411c.312.54.126 1.227-.414 1.539l-10.389 6-.564.15zm-20.787 12a1.124 1.124 0 0 1-.561-2.1l10.392-6a1.136 1.136 0 0 1 1.536.411c.312.54.126 1.227-.411 1.539l-10.392 6-.564.15zm-20.781 12a1.124 1.124 0 0 1-.564-2.1l10.392-6a1.14 1.14 0 0 1 1.539.411c.309.54.126 1.227-.414 1.539l-10.392 6-.561.15zm-20.787 12c-.387 0-.765-.204-.975-.564a1.123 1.123 0 0 1 .411-1.536l10.392-6a1.14 1.14 0 0 1 1.539.411c.309.54.126 1.227-.414 1.539l-10.392 6-.561.15zm-20.784 12c-.387 0-.765-.204-.975-.564a1.122 1.122 0 0 1 .414-1.536l10.392-6a1.136 1.136 0 0 1 1.536.411c.312.54.126 1.227-.411 1.539l-10.392 6-.564.15zm-20.787 12a1.124 1.124 0 0 1-.561-2.1l10.392-6a1.136 1.136 0 0 1 1.539.411 1.13 1.13 0 0 1-.414 1.539l-10.392 6-.564.15zM731.755 160.077a1.124 1.124 0 0 1-.561-2.1l10.101-5.832a1.139 1.139 0 0 1 1.539.414c.309.54.126 1.227-.414 1.54l-10.101 5.828-.564.15zm-20.781 12a1.14 1.14 0 0 1-.978-.564 1.127 1.127 0 0 1 .414-1.536l10.392-6a1.137 1.137 0 0 1 1.539.411c.309.54.126 1.227-.414 1.54l-10.392 6-.561.15zm-20.787 12c-.387 0-.765-.204-.975-.564a1.123 1.123 0 0 1 .411-1.536l10.395-6a1.138 1.138 0 0 1 1.539.411c.312.54.126 1.227-.414 1.54l-10.395 6-.561.15zm-20.784 12a1.124 1.124 0 0 1-.561-2.1l10.392-6a1.133 1.133 0 0 1 1.536.411c.312.54.126 1.227-.411 1.54l-10.392 6-.564.15zm-20.784 12a1.124 1.124 0 0 1-.564-2.1l10.395-6a1.14 1.14 0 0 1 1.539.411c.309.54.126 1.227-.414 1.54l-10.395 6-.561.15zm-20.784 12c-.387 0-.765-.204-.975-.564a1.123 1.123 0 0 1 .411-1.536l10.392-6a1.136 1.136 0 0 1 1.539.411c.309.54.126 1.227-.414 1.54l-10.392 6-.561.15zm-20.784 12c-.387 0-.765-.204-.975-.564a1.122 1.122 0 0 1 .414-1.536l10.389-6a1.14 1.14 0 0 1 1.539.411c.312.54.126 1.227-.414 1.54l-10.389 6-.564.15zm-20.787 12a1.124 1.124 0 0 1-.561-2.1l10.392-6a1.136 1.136 0 0 1 1.536.411c.312.54.126 1.227-.411 1.54l-10.392 6-.564.15zm-20.781 12a1.124 1.124 0 0 1-.564-2.1l10.392-6a1.14 1.14 0 0 1 1.539.411c.309.54.126 1.227-.414 1.54l-10.392 6-.561.15zm-20.787 12c-.387 0-.765-.204-.975-.564a1.123 1.123 0 0 1 .411-1.536l10.392-6a1.14 1.14 0 0 1 1.539.411c.309.54.126 1.227-.414 1.54l-10.392 6-.561.15zm-20.784 12c-.387 0-.765-.204-.975-.564a1.122 1.122 0 0 1 .414-1.536l10.392-6a1.136 1.136 0 0 1 1.536.411c.312.54.126 1.227-.411 1.54l-10.392 6-.564.15zm-20.787 12a1.124 1.124 0 0 1-.561-2.1l10.392-6a1.136 1.136 0 0 1 1.539.411 1.13 1.13 0 0 1-.414 1.54l-10.392 6-.564.15zM307.77 171.369a1.125 1.125 0 0 1-.564-2.1l2.037-1.176a1.138 1.138 0 0 1 1.539.414c.309.54.126 1.227-.414 1.539l-2.037 1.173-.561.15zm-20.787 12.003a1.125 1.125 0 0 1-.561-2.1l10.392-6a1.137 1.137 0 0 1 1.536.411c.312.54.126 1.227-.411 1.539l-10.392 6-.564.15zm-20.784 12a1.125 1.125 0 0 1-.561-2.1l10.392-6a1.133 1.133 0 0 1 1.536.411c.312.54.126 1.227-.411 1.539l-10.392 6-.564.15z"/>
        <path fill="#FFC900" d="M325.149 164.613c-2.652 0-5.163-.606-7.068-1.704-2.1-1.215-3.258-2.895-3.258-4.731 0-1.839 1.158-3.519 3.258-4.734 3.81-2.196 10.326-2.196 14.133 0 2.103 1.215 3.255 2.895 3.258 4.734-.003 1.836-1.155 3.516-3.258 4.731-1.905 1.098-4.413 1.704-7.065 1.704z"/>
        <path fill="#E2BC91" d="M402.065 282.187v67.131l65.982-38.094v-67.131l-65.982 38.094"/>
        <path fill="#FFEFDD" d="M331 263.623l22-.114v58.089l-22-12.957v-45.018"/>
        <path fill="#F8D9B5" d="M344.621 300.835l-4.662-2.694v-2.076l4.662 2.7v2.07M347.312 299.242l-4.659-2.7v-2.064l4.659 2.694v2.07M339.959 288.859l-4.668-2.694v-2.07l4.668 2.694v2.07M339.959 277.654l-4.668-2.7v-2.07l4.668 2.7v2.07M349.646 294.937l-4.665-2.697v-2.064l4.665 2.688v2.073M346.952 312.937l-4.662-2.7v-2.064l4.662 2.691v2.073M352.343 307.759l-4.668-2.694v-2.07l4.668 2.694v2.07M339.392 306.565l-4.668-2.694v-2.07l4.668 2.697v2.067M337.058 307.759l-4.665-2.694v-2.07l4.665 2.694v2.07M348.872 269.515l-4.665-2.694v-2.07l4.665 2.694v2.07M350.402 273.442l-4.671-2.694v-2.073l4.671 2.694v2.073M344.981 270.154l-4.665-2.685v-2.073l4.665 2.691v2.067"/>
        <path fill="#C84525" d="M396.746 223.819l23.301-.117v1.701l-65.991 38.106-23.307-1.587 65.997-38.103"/>
        <path fill="#A62F12" d="M330.749 261.922l23.307-.117v1.704l-23.307.117v-1.704"/>
        <path fill="#E2BC91" d="M344.981 278.338c0 2.478 1.746 5.502 3.891 6.741 2.148 1.245 3.888.237 3.888-2.244 0-2.484-1.74-5.499-3.888-6.744-2.145-1.236-3.891-.231-3.891 2.247"/>
        <path fill="#3C2415" d="M348.065 278.803c0 1.251.867 2.76 1.947 3.372 1.068.624 1.941.123 1.941-1.116 0-1.251-.873-2.754-1.941-3.372-1.08-.624-1.947-.12-1.947 1.116"/>
        <path fill="#BC3919" d="M461.828 238.738l-17.787-21.372-17.793.828-6.216-3.588-65.976 38.091 6.213 4.482 17.793-1.203 17.88 22.098 6.123 4.113 65.982-38.094v-1.773l-6.219-3.582"/>
        <path fill="#D25334" d="M461.828 238.738l-17.787-21.372-65.979 38.097 17.88 22.611 6.123 4.113 65.982-38.094v-1.773l-6.219-3.582"/>
        <path fill="#A62F12" d="M395.846 276.829l-17.784-21.366-17.793.828-6.213-3.594v1.773l6.213 3.588 17.793-.825 17.784 21.369 6.219 3.585v-1.767l-6.219-3.591"/>
        <path fill="#FFEFDD" d="M395.846 278.602l-17.784-21.369-17.793.825-6.213-3.588v67.128l48.009 27.72v-67.131l-6.219-3.585M424.511 317.266l-22.446-26.043v58.095l22.446 12.963v-45.015"/>
        <path fill="#F9DEBF" d="M408.776 305.101l-4.671-2.697v-2.073l4.671 2.7v2.07M410.333 308.806l-4.665-2.694v-2.07l4.665 2.694v2.07M423.074 321.07l-4.662-2.688v-2.07l4.662 2.688v2.07"/>
        <path fill="#ECC9A1" d="M421.097 317.188l-4.662-2.697v-2.064l4.662 2.691v2.07M417.629 317.869l-4.665-2.691v-2.073l4.665 2.691v2.073M407.999 325.315l-4.665-2.685v-2.067l4.665 2.685v2.067M410.045 329.131l-4.665-2.691v-2.07l4.665 2.694v2.067M421.427 327.082l-4.665-2.685v-2.076l4.665 2.694v2.067M419.093 328.375l-4.665-2.694v-2.073l4.665 2.697v2.07M419.957 341.152l-4.662-2.694v-2.07l4.662 2.691v2.073M421.931 344.971l-4.662-2.694v-2.07l4.662 2.691v2.073M408.776 342.586l-4.671-2.688v-2.076l4.671 2.694v2.07M411.101 341.152l-4.662-2.694v-2.07l4.662 2.691v2.073M411.101 346.603l-4.662-2.691v-2.079l4.662 2.7v2.07M420.371 356.35l-4.659-2.691v-2.07l4.659 2.694v2.067M418.769 353.008l-4.668-2.688v-2.073l4.668 2.691v2.07M408.776 351.37l-4.671-2.7v-2.067l4.671 2.697v2.07M417.62 335.194l-4.659-2.697v-2.067l4.659 2.697v2.067M419.957 333.898l-4.662-2.697v-2.07l4.662 2.7v2.067"/>
        <path fill="#F8D9B5" d="M490.493 279.163l-65.982 37.392v45.726l65.982-38.094v-45.024"/>
        <path fill="#D25334" d="M491.363 278.449l-23.304-27.021-65.994 38.1 23.307 28.722 65.991-38.1v-1.701"/>
        <path fill="#A62F12" d="M425.372 316.555l-23.307-27.027v1.695l23.307 27.027v-1.695"/>
        <path fill="#CF7C00" d="M391.685 303.355v1.434L364.343 289v-15.897c0-4.716 1.797-7.923 4.638-9.168-2.115 1.56-3.399 4.464-3.399 8.457v15.894l26.103 15.069"/>
        <path fill="#F8D9B5" d="M391.685 288.898v14.457l-26.103-15.069v-15.894c0-3.993 1.284-6.897 3.399-8.457 2.412-1.062 5.574-.72 9.033 1.281 7.548 4.353 13.671 14.961 13.671 23.682"/>
        <path fill="#E2BC91" d="M364.343 289v-15.891c0-8.718 6.123-12.255 13.671-7.893 7.548 4.353 13.671 14.961 13.671 23.682v15.891l1.032.591v-15.891c0-9.36-6.597-20.784-14.703-25.464-8.103-4.677-14.7-.873-14.7 8.49v15.888l1.029.597M391.685 338.773v4.56l-27.342-15.792v-20.118c0-5.52 2.463-8.973 6.186-9.633-1.416 1.668-2.232 4.161-2.232 7.356v20.118l23.388 13.509"/>
        <path fill="#F8D9B5" d="M391.685 323.206v15.567l-23.388-13.509v-20.118c0-3.195.816-5.688 2.232-7.356 2.154-.396 4.725.147 7.485 1.743 7.548 4.356 13.671 14.958 13.671 23.673"/>
        <path fill="#754C29" d="M382.1 305.305c-4.527-2.613-8.187-.495-8.187 4.728v18.471l16.38 9.456v-18.465c0-5.229-3.672-11.58-8.193-14.19"/>
        <path fill="#E2BC91" d="M392.717 306.421l-29.403-16.974v-1.044l29.403 16.977v1.041M411.137 316.54c0 2.481-1.74 3.483-3.891 2.247-2.148-1.242-3.888-4.257-3.888-6.741s1.74-3.489 3.888-2.25c2.151 1.248 3.891 4.263 3.891 6.744"/>
        <path fill="#3C2415" d="M410.333 314.758c0 1.242-.873 1.737-1.95 1.122-1.074-.621-1.944-2.127-1.944-3.369 0-1.239.87-1.743 1.944-1.122 1.077.618 1.95 2.133 1.95 3.369"/>
        <path fill="#FFF" d="M391.13 287.593c0 7.893-5.538 11.091-12.366 7.146-6.834-3.942-12.372-13.539-12.372-21.426 0-7.89 5.538-11.094 12.372-7.14 6.828 3.939 12.366 13.533 12.366 21.42"/>
        <path fill="#F5B400" d="M389.588 286.705c0 6.906-4.848 9.699-10.824 6.249-5.982-3.453-10.827-11.847-10.827-18.75 0-6.903 4.845-9.702 10.827-6.252 5.976 3.453 10.824 11.85 10.824 18.753"/>
        <path fill="#FFC900" d="M382.496 282.607c0 2.361-1.653 3.309-3.69 2.133-2.037-1.182-3.69-4.038-3.69-6.39 0-2.358 1.653-3.312 3.69-2.139 2.037 1.185 3.69 4.044 3.69 6.396"/>
        <path fill="#3C2415" d="M380.261 281.317c0 .93-.654 1.305-1.455.843-.804-.468-1.458-1.59-1.458-2.523s.654-1.305 1.458-.84c.801.465 1.455 1.593 1.455 2.52"/>
        <path fill="#FFEFDD" d="M379.04 269.968c-.132.504-.339.384-.471-.273l-.093-.507c-.126-.651-.507-1.35-.837-1.536-.333-.198-.504.183-.372.84l1.302 6.72c.132.66.339.777.471.273l1.302-5.214c.132-.507-.033-1.083-.369-1.275-.33-.189-.708.069-.837.573l-.096.399M378.569 290.878c.132-.513.339-.396.471.261l.096.51c.129.66.507 1.347.837 1.542.336.195.501-.189.369-.843l-1.302-6.726c-.132-.651-.339-.771-.471-.264l-1.302 5.205c-.132.51.039 1.086.372 1.278.33.192.711-.066.837-.579l.093-.384M387.935 286.021c-.501-.444-.501-.684 0-.534l.39.102c.507.147.921-.051.921-.435 0-.381-.414-.816-.921-.96l-5.163-1.473c-.507-.141-.507.102 0 .537l5.163 4.497c.507.441.921.483.921.099s-.414-1.056-.921-1.497l-.39-.336M385.256 291.691c-.27-.672-.117-.753.321-.195l.351.441c.447.561 1.002.915 1.236.777.243-.138.066-.705-.378-1.272l-4.581-5.793c-.45-.57-.597-.48-.33.186l2.727 6.861c.267.675.675 1.11.915.981.237-.141.21-.801-.057-1.479l-.204-.507M372.704 269.143c.273.669.123.756-.324.186l-.345-.435c-.45-.564-1.005-.918-1.239-.783-.24.138-.069.711.381 1.278l4.581 5.799c.441.558.594.477.327-.192l-2.727-6.867c-.27-.672-.675-1.107-.915-.969-.234.141-.204.795.06 1.464l.201.519M372.179 283.897c.447-.054.597.204.327.567l-.204.279c-.261.366-.291.993-.054 1.398.231.414.642.447.912.084l2.73-3.708c.264-.363.111-.624-.333-.57l-4.581.504c-.444.051-.618.426-.381.834.234.402.792.693 1.239.648l.345-.036M385.433 277.063c-.447.045-.591-.207-.33-.57l.207-.285c.264-.36.294-.987.054-1.395-.234-.408-.642-.447-.915-.084l-2.724 3.714c-.264.36-.117.621.327.567l4.584-.504c.444-.054.618-.423.384-.822-.234-.417-.798-.714-1.242-.66l-.345.039M369.614 274.885c.504.435.504.678 0 .537l-.393-.114c-.501-.141-.915.057-.915.438 0 .387.414.816.915.96l5.172 1.476c.504.141.504-.105 0-.54l-5.172-4.497c-.501-.435-.915-.483-.915-.09 0 .375.414 1.05.915 1.485l.393.345M387.185 289.498c-.42-.597-.345-.777.171-.396l.399.285c.516.378 1.038.453 1.164.18.126-.288-.195-.831-.714-1.215l-5.277-3.873c-.516-.381-.6-.201-.177.396l4.305 6.117c.417.6.864.849.996.567.117-.282-.12-1.005-.543-1.605l-.324-.456M370.346 271.36c.42.594.339.777-.171.399l-.402-.294c-.516-.381-1.038-.456-1.161-.174-.126.285.198.831.705 1.212l5.283 3.876c.519.381.597.198.18-.399l-4.305-6.12c-.42-.594-.867-.852-.993-.558-.123.279.117 1.002.54 1.599l.324.459M375.089 287.965c.309-.312.501-.105.429.447l-.051.429c-.069.558.123 1.275.432 1.596.309.321.618.126.687-.423l.72-5.691c.069-.555-.126-.756-.432-.444l-3.147 3.15a.827.827 0 0 0 .006 1.146.785.785 0 0 0 1.122.027l.234-.237M370.289 279.622c.519.198.597.471.183.597l-.315.093c-.42.126-.648.582-.522 1.011.138.426.579.678.993.552l4.242-1.281c.414-.123.336-.387-.18-.594l-5.268-2.094c-.513-.21-.828-.021-.699.411.129.42.657.942 1.173 1.143l.393.162M387.275 281.71c-.51-.201-.594-.474-.18-.597l.321-.096c.411-.123.639-.579.519-1.005a.815.815 0 0 0-.996-.558l-4.242 1.278c-.417.126-.333.399.18.597l5.271 2.097c.516.21.828.027.699-.405-.132-.426-.66-.948-1.176-1.149l-.396-.162M375.377 268.645c.081.642-.114.621-.423-.033l-.252-.519c-.309-.651-.816-1.212-1.125-1.242-.309-.027-.3.492.015 1.146l3.225 6.771c.318.657.51.675.429.039l-.816-6.558c-.081-.639-.393-1.185-.702-1.212-.3-.024-.495.477-.414 1.116l.063.492M382.058 292.114c-.081-.642.114-.624.426.036l.243.516c.318.657.825 1.215 1.134 1.245.309.021.297-.495-.018-1.155l-3.228-6.762c-.315-.666-.51-.678-.426-.042l.813 6.555c.087.645.399 1.191.708 1.215.303.027.486-.474.408-1.113l-.06-.495M382.388 272.761c-.315.309-.501.108-.432-.456l.054-.426c.063-.552-.129-1.269-.438-1.593-.309-.321-.618-.132-.687.426l-.72 5.679c-.069.564.129.759.432.456l3.147-3.156a.82.82 0 0 0 0-1.143.788.788 0 0 0-1.125-.027l-.231.24M398.78 351.214l-6.225-3.597v-51.612l6.225 3.6v51.609"/>
        <path fill="#E2BC91" d="M398.78 351.214v-51.609l3.285-1.899v51.612l-3.285 1.896"/>
        <path fill="#BCBEC0" d="M398.78 299.605l-6.225-3.6 3.285-1.887 6.225 3.588-3.285 1.899"/>
        <path fill="#FFF" d="M398.78 299.605l-6.225-3.6v-15.516l6.225 3.585v15.531"/>
        <path fill="#C2C8D2" d="M398.78 299.605v-15.531l3.285-1.887v15.519l-3.285 1.899"/>
        <path fill="#A6AAAE" d="M398.78 284.083l-6.225-3.594 3.285-1.896 6.225 3.594-3.285 1.896"/>
        <path fill="#FFEFDD" d="M356.993 327.082l-6.219-3.591v-51.609l6.219 3.591v51.609"/>
        <path fill="#E2BC91" d="M356.993 327.082v-51.609l3.279-1.887v51.609l-3.279 1.887"/>
        <path fill="#BCBEC0" d="M356.993 275.473l-6.219-3.591 3.282-1.896 6.216 3.6-3.279 1.887"/>
        <path fill="#FFF" d="M356.993 275.473l-6.219-3.591V256.36l6.219 3.594v15.519"/>
        <path fill="#C2C8D2" d="M356.993 275.473v-15.519l3.279-1.884v15.516l-3.279 1.887"/>
        <path fill="#A6AAAE" d="M356.993 259.957l-6.219-3.597 3.282-1.89 6.216 3.6-3.279 1.887"/>
        <path fill="#FFF" d="M355.697 258.892l-2.31-1.329.732-15.072 2.307 1.335-.729 15.066"/>
        <path fill="#C2C8D2" d="M355.697 258.892l.729-15.066 1.236-.714v14.652l-1.965 1.128"/>
        <path fill="#BCBEC0" d="M356.426 243.826l-2.307-1.335 1.23-.714 2.313 1.335-1.236.714"/>
        <path fill="#FFF" d="M397.181 282.841l-2.307-1.329.732-15.072 2.31 1.338-.735 15.063"/>
        <path fill="#C2C8D2" d="M397.181 282.841l.735-15.063 1.236-.708v14.64l-1.971 1.131"/>
        <path fill="#BCBEC0" d="M397.916 267.778l-2.31-1.338 1.236-.711 2.31 1.341-1.236.708"/>
        <path fill="#3C2415" d="M382.364 305.461l-.531-.309v27.918l.531.309v-27.918"/>
        <path fill="#FFEFDD" d="M425.96 321.07l4.668-2.688v-2.07L425.96 319v2.07M428.939 322.321l4.665-2.685v-2.073l-4.665 2.688v2.07M440.804 332.155l4.662-2.691v-2.073l-4.662 2.688v2.076M439.367 335.758l4.671-2.688v-2.073l-4.671 2.691v2.07M437.87 330.76l4.665-2.697v-2.067l-4.665 2.691v2.073M453.818 310.651l4.674-2.694v-2.07l-4.674 2.688v2.076M456.617 312.01l4.665-2.691v-2.07l-4.665 2.688v2.073M455.525 315.481l4.662-2.682v-2.076l-4.662 2.691v2.067M453.194 326.458l4.659-2.691v-2.073l-4.659 2.694v2.07M449.99 335.758l4.662-2.688v-2.073l-4.662 2.691v2.07M448.529 339.238l4.665-2.694v-2.079l-4.665 2.7v2.073M444.038 320.251l4.656-2.688v-2.082l-4.656 2.7v2.07M470.252 324.076l4.665-2.694v-2.07L470.252 322v2.076M477.407 299.794l4.665-2.691v-2.073l-4.665 2.697v2.067M482.072 325.837l4.665-2.694v-2.073l-4.665 2.697v2.07M479.738 324.37l4.665-2.691v-2.076l-4.665 2.697v2.07M432.326 353.752l4.665-2.697v-2.07l-4.665 2.7v2.067M427.148 350.146l4.662-2.688v-2.073l-4.662 2.691v2.07M434.657 349.735l4.665-2.691v-2.073l-4.665 2.688v2.076M430.628 340.207l4.668-2.691v-2.073l-4.668 2.691v2.073M469.775 316.669l4.662-2.688v-2.076l-4.662 2.694v2.07M467.921 328.216l4.659-2.694v-2.07l-4.659 2.694v2.07M466.229 332.155l4.662-2.691v-2.073l-4.662 2.688v2.076M482.072 310.147l4.665-2.694v-2.073l-4.665 2.685v2.082M480.953 301.984l4.665-2.694v-2.07l-4.665 2.694v2.07M466.229 301.618l4.662-2.688v-2.07l-4.662 2.688v2.07M467.366 310.177l4.665-2.691v-2.076l-4.665 2.697v2.07M482.072 292.075l4.665-2.691v-2.07l-4.665 2.691v2.07M457.502 335.758l4.665-2.688v-2.073l-4.665 2.691v2.07"/>
        <path fill="#FFF" d="M385.823 256.438l-3.165-3.63-3.051.036v-6.192l6.216 3.594v6.192"/>
        <path fill="#C2C8D2" d="M385.823 256.438v-6.192l3.285-1.899v6.198l-3.285 1.893"/>
        <path fill="#A6AAAE" d="M385.823 250.246l-6.216-3.594 3.285-1.893 6.216 3.588-3.285 1.899"/>
        <path fill="#C2C8D2" d="M386.003 232.402v-6.192l-1.917-1.107-1.272.732 1.272 5.448-4.827-2.784-1.272.738 6.099 4.269.645 15.165 1.272-.738v-13.32l2.523 1.458.939 2.01 1.272-.741v-2.211l-4.734-2.727"/>
        <path fill="#FFF" d="M384.731 233.131v-6.18l-1.917-1.116v6.192l-4.827-2.79v2.214l4.827 2.79v13.317l1.917 1.113v-13.323l4.734 2.733v-2.22l-4.734-2.73"/>
    </g>
</svg>
