<svg xmlns="http://www.w3.org/2000/svg" xmlns:xlink="http://www.w3.org/1999/xlink" width="122" height="56" viewBox="0 0 122 56">
    <defs>
        <path id="a" d="M19.03 35.806L.176 24.26 39.115.4 57.97 11.944z"/>
    </defs>
    <g fill="none" fill-rule="evenodd">
        <g transform="translate(0 11.465)">
            <mask id="b" fill="#fff">
                <use xlink:href="#a"/>
            </mask>
            <path fill="#952828" d="M.175 35.806H57.97V.399H.175z" mask="url(#b)"/>
        </g>
        <path fill="#FA5932" d="M19.81 45.223C6.114 41.3.74 32.369.594 32.18L38.41 8.917s3.429 4.362 9.335 7.996c5.93 3.649 9.3 3.492 9.335 3.49l.544 1.556c-.148.01-37.814 23.264-37.814 23.264"/>
        <path fill="#CD310C" d="M9.803 41.473C3.63 37.55.144 32.95 0 32.757l.54-.909-.27.454.268-.455c.035.044 3.406 4.474 9.265 8.198 5.884 3.741 9.228 3.582 9.262 3.579l.539 1.596c-.146.008-3.632.175-9.801-3.747"/>
        <path fill="#FFB537" d="M7.97 36.306c-1.517 0-2.994-.84-3.81-2.345-1.22-2.247-.505-5.125 1.6-6.43l35.157-21.8c2.102-1.303 4.795-.538 6.011 1.708 1.222 2.248.507 5.126-1.596 6.429L10.175 35.67a4.18 4.18 0 0 1-2.205.636"/>
        <path fill="#EC8713" d="M8.151 36.306c-1.51 0-2.98-.847-3.792-2.363-1.215-2.264 3.396 1.8 5.489.485l36.06-22.264c2.091-1.314.56-6.228 1.023-4.946 1.216 2.265.504 5.165-1.589 6.478L10.347 35.665a4.124 4.124 0 0 1-2.196.64"/>
        <path fill="#FFF" d="M30.814 18.79c0-.113-.098-.205-.22-.205-.12 0-.22.092-.22.205 0 .113.1.205.22.205.122 0 .22-.092.22-.205M32.376 17.943c-.101 0-.185.093-.185.21 0 .116.084.21.185.21.103 0 .185-.094.185-.21 0-.117-.082-.21-.185-.21M33.564 17.454c-.133 0-.242.027-.242.061 0 .035.109.063.242.063.134 0 .243-.028.243-.063 0-.034-.109-.06-.243-.06M35.347 16.755c-.064 0-.116.055-.116.124 0 .068.052.124.116.124.063 0 .115-.056.115-.124 0-.069-.052-.124-.115-.124M37.128 15.395c-.1 0-.184.094-.184.21 0 .117.084.21.184.21.103 0 .185-.093.185-.21 0-.116-.082-.21-.185-.21M38.318 14.77c-.154 0-.278.088-.278.198 0 .109.124.198.278.198.153 0 .276-.089.276-.198 0-.11-.123-.198-.276-.198M42.477 11.66c-.093 0-.168.055-.168.124 0 .068.075.123.168.123.09 0 .164-.055.164-.123 0-.07-.075-.124-.164-.124M44.852 11.722l-.093.061.093.062.092-.062-.092-.061M44.258 11.66c-.065 0-.116.055-.116.124 0 .068.05.123.116.123.064 0 .115-.055.115-.123 0-.07-.051-.124-.115-.124M27.623 21.789c-.12 0-.218.083-.218.185 0 .103.098.186.218.186.122 0 .22-.083.22-.186 0-.102-.098-.185-.22-.185"/>
        <path fill="#FFF" d="M46.738 7.443c-1.21-2.25-3.892-3.016-5.985-1.711L5.749 27.572c-1.47.917-2.259 2.609-2.18 4.316 2.392 1.968 5.357-1.625 5.718-.955.374.694.819.286 1.334-.355l-.007.082c0 .233.175.42.39.42.216 0 .39-.187.39-.42 0-.231-.174-.42-.39-.42l-.14.029c.55-.71 1.18-1.526 1.887-1.526.75 0 4.757-1.46 7.542-3.142.274-.164.538-.336.79-.511.075.11.195.183.33.183.226 0 .408-.197.408-.439a.452.452 0 0 0-.062-.233c.956-.728 1.84-1.542 2.83-2.43a.577.577 0 0 0-.05.234c0 .252.159.456.355.456.195 0 .354-.204.354-.456s-.16-.456-.354-.456l-.065.008c1.044-.934 2.215-1.95 3.718-3.041 3.771-2.739 5.555-1.722 7.042-3.834 1.09-1.546 1.933-1.456 3.284-1.84.001.27.16.488.356.488.197 0 .355-.22.355-.493l-.039-.22c.322-.122.67-.28 1.052-.492l.052-.028c.036.141.16.246.312.246.178 0 .32-.146.32-.328l-.073-.21c1.321-.659 3.023-1.344 4.227-2.131.019.104.127.186.263.186.15 0 .271-.098.271-.22 0-.097-.08-.176-.188-.205.945-.697 1.451-1.478.957-2.392"/>
        <path fill="#FFF" d="M26.435 21.861c-.077 0-.138.051-.138.113 0 .064.061.114.138.114.077 0 .14-.05.14-.114 0-.062-.063-.113-.14-.113M28.812 19.878c-.095 0-.173.083-.173.186s.078.186.173.186c.095 0 .173-.083.173-.186s-.078-.186-.173-.186M19.306 26.946c-.064 0-.115.056-.115.124s.051.124.115.124c.065 0 .116-.056.116-.124s-.051-.124-.116-.124M16.636 28.025c-.33 0-.596.286-.596.638 0 .35.266.636.596.636.328 0 .592-.285.592-.636 0-.352-.264-.638-.592-.638M14.555 28.832c-.076 0-.14.066-.14.149 0 .082.064.149.14.149.076 0 .138-.067.138-.15 0-.082-.062-.148-.138-.148M12.18 30.081c-.092 0-.163.078-.163.174 0 .095.071.173.162.173.089 0 .16-.078.16-.173 0-.096-.071-.174-.16-.174M8.02 32.498c-.157 0-.283.137-.283.305 0 .167.126.304.284.304.157 0 .282-.137.282-.304 0-.168-.125-.305-.282-.305M9.801 32.617c-.095 0-.172.083-.172.185 0 .103.077.186.172.186.096 0 .174-.083.174-.186 0-.102-.078-.185-.174-.185M13.366 30.081c-.09 0-.161.078-.161.174 0 .095.072.173.161.173.09 0 .162-.078.162-.173 0-.096-.073-.174-.162-.174M24.06 24.262c-.134 0-.242.117-.242.26 0 .143.108.26.242.26s.241-.117.241-.26c0-.143-.107-.26-.241-.26M31.188 19.791c-.14 0-.255.122-.255.272 0 .15.115.273.255.273s.255-.122.255-.273c0-.15-.114-.272-.255-.272"/>
        <path fill="#FFB537" d="M11.533 40.127c-1.517 0-2.992-.84-3.81-2.344-1.218-2.248-.503-5.126 1.599-6.429L44.478 9.552c2.103-1.302 4.796-.537 6.015 1.708 1.222 2.248.505 5.126-1.598 6.43L13.737 39.491a4.174 4.174 0 0 1-2.204.636"/>
        <path fill="#EC8713" d="M11.716 40.127c-1.51 0-2.979-.846-3.793-2.362-1.213-2.265 3.396 1.799 5.488.486l36.06-22.266c2.093-1.313.56-6.228 1.025-4.945 1.216 2.264.503 5.165-1.591 6.478L13.909 39.486a4.118 4.118 0 0 1-2.193.641"/>
        <path fill="#FFF" d="M34.377 22.611c0-.113-.097-.204-.218-.204-.122 0-.219.091-.219.204 0 .113.097.205.219.205.12 0 .218-.092.218-.205M35.94 21.765c-.102 0-.184.093-.184.21 0 .116.082.21.183.21.104 0 .186-.094.186-.21 0-.117-.082-.21-.186-.21M37.13 21.275c-.136 0-.244.028-.244.062s.108.063.243.063c.134 0 .242-.029.242-.063s-.108-.062-.242-.062M38.911 19.94c-.064 0-.115.055-.115.123s.05.125.115.125c.064 0 .115-.057.115-.125s-.051-.123-.115-.123M40.694 19.217c-.103 0-.186.093-.186.21 0 .116.083.21.186.21.1 0 .184-.094.184-.21 0-.117-.083-.21-.184-.21M41.88 17.955c-.152 0-.276.088-.276.197 0 .11.124.199.277.199.153 0 .277-.089.277-.199 0-.11-.124-.197-.277-.197M46.04 15.481c-.092 0-.165.056-.165.124 0 .069.073.124.165.124.092 0 .164-.055.164-.124 0-.068-.072-.124-.164-.124M48.415 14.907l-.092.061.092.062.094-.062-.094-.061M47.823 15.481c-.065 0-.117.056-.117.124a.12.12 0 0 0 .117.124c.062 0 .115-.055.115-.124 0-.068-.053-.124-.115-.124M31.187 25.61c-.121 0-.219.084-.219.186 0 .103.098.186.22.186.121 0 .22-.083.22-.186 0-.102-.099-.186-.22-.186"/>
        <path fill="#FFF" d="M50.303 11.265c-1.214-2.25-3.894-3.016-5.989-1.712L9.312 31.394c-1.468.916-2.257 2.61-2.178 4.315 2.39 1.97 5.357-1.625 5.72-.954.373.693.816.285 1.331-.357l-.005.083c0 .233.171.421.389.421.216 0 .39-.188.39-.421 0-.231-.174-.42-.39-.42l-.142.03c.553-.71 1.18-1.527 1.892-1.527.744 0 4.753-1.461 7.539-3.142.272-.164.535-.335.79-.512.074.111.194.184.33.184.225 0 .407-.196.407-.438a.44.44 0 0 0-.064-.234c.958-.728 1.844-1.542 2.836-2.432a.55.55 0 0 0-.054.236c0 .253.159.457.354.457.196 0 .356-.204.356-.457 0-.252-.16-.456-.356-.456l-.065.008c1.045-.933 2.216-1.949 3.72-3.04 3.768-2.74 5.553-1.723 7.042-3.836 1.089-1.546 1.93-1.456 3.282-1.84 0 .27.16.49.355.49.196 0 .358-.221.358-.494l-.04-.218a8.21 8.21 0 0 0 1.051-.495l.051-.027a.326.326 0 0 0 .312.248.327.327 0 0 0 .323-.33l-.077-.21c1.324-.659 3.024-1.344 4.229-2.131.02.104.128.185.263.185.15 0 .272-.097.272-.218 0-.097-.08-.177-.189-.206.943-.698 1.453-1.477.959-2.391"/>
        <path fill="#FFF" d="M30.001 25.683c-.077 0-.14.05-.14.112 0 .063.063.114.14.114.076 0 .137-.05.137-.114 0-.062-.061-.112-.137-.112M32.375 23.7c-.095 0-.172.083-.172.185 0 .103.077.186.172.186.097 0 .174-.083.174-.186 0-.102-.077-.186-.174-.186M22.87 30.768c-.062 0-.114.056-.114.124s.052.124.114.124c.066 0 .117-.056.117-.124s-.051-.124-.117-.124M20.2 31.847c-.33 0-.596.285-.596.637 0 .35.265.637.596.637.328 0 .592-.286.592-.637 0-.352-.264-.637-.592-.637M18.12 32.654c-.078 0-.14.067-.14.148 0 .083.062.149.14.149.076 0 .138-.066.138-.149 0-.081-.062-.148-.139-.148M15.742 33.903c-.088 0-.161.078-.161.173 0 .096.073.174.161.174.09 0 .162-.078.162-.174 0-.095-.073-.173-.162-.173M11.583 36.32c-.155 0-.283.136-.283.304 0 .168.128.304.283.304.158 0 .285-.136.285-.304 0-.168-.127-.304-.285-.304M13.367 35.802c-.097 0-.173.083-.173.185 0 .103.076.185.173.185.095 0 .172-.082.172-.185 0-.102-.077-.185-.172-.185M16.932 33.903c-.09 0-.163.078-.163.173 0 .096.073.174.163.174.089 0 .16-.078.16-.174 0-.095-.071-.173-.16-.173M27.624 28.084c-.134 0-.242.117-.242.26 0 .143.108.26.242.26s.242-.117.242-.26c0-.143-.108-.26-.242-.26M34.158 23.613c-.14 0-.253.121-.253.272 0 .15.113.272.253.272s.254-.121.254-.272c0-.15-.114-.272-.254-.272"/>
        <path fill="#FFB537" d="M16.88 43.949c-1.518 0-2.995-.839-3.81-2.343-1.219-2.248-.504-5.125 1.6-6.43l35.155-21.802c2.104-1.302 4.798-.538 6.016 1.708 1.219 2.248.505 5.126-1.599 6.43L19.084 43.314a4.167 4.167 0 0 1-2.203.635"/>
        <path fill="#EC8713" d="M17.063 43.949c-1.51 0-2.981-.845-3.794-2.361-1.212-2.265 3.396 1.8 5.49.485l36.059-22.267c2.093-1.312.562-6.228 1.025-4.945 1.214 2.265.504 5.165-1.59 6.48L19.257 43.308a4.11 4.11 0 0 1-2.194.64"/>
        <path fill="#FFF" d="M39.723 25.796c0-.113-.097-.204-.218-.204-.122 0-.218.09-.218.204 0 .113.096.205.218.205.12 0 .218-.092.218-.205M40.694 24.949c-.104 0-.186.093-.186.21 0 .116.082.21.186.21.1 0 .184-.094.184-.21 0-.117-.083-.21-.184-.21M42.476 25.097c-.135 0-.243.028-.243.062s.108.062.243.062c.133 0 .241-.028.241-.062s-.108-.062-.241-.062M44.257 23.762c-.064 0-.115.055-.115.123s.051.124.115.124.116-.056.116-.124-.052-.123-.116-.123M45.446 23.038c-.103 0-.185.093-.185.21 0 .116.082.21.185.21.102 0 .184-.094.184-.21 0-.117-.082-.21-.184-.21M47.227 21.777c-.153 0-.277.088-.277.197 0 .11.124.198.277.198.155 0 .278-.088.278-.198 0-.11-.123-.197-.278-.197M51.386 19.303c-.09 0-.166.056-.166.125 0 .067.075.123.166.123.091 0 .166-.056.166-.123 0-.07-.075-.125-.166-.125M53.763 18.728l-.093.062.093.062.092-.062-.092-.062M52.574 19.303c-.064 0-.116.056-.116.125 0 .067.052.123.116.123.063 0 .116-.056.116-.123 0-.07-.053-.125-.116-.125M36.534 28.795c-.12 0-.218.084-.218.187 0 .102.098.185.218.185.122 0 .22-.083.22-.185 0-.103-.098-.187-.22-.187"/>
        <path fill="#FFF" d="M55.65 15.086c-1.213-2.25-3.894-3.015-5.988-1.711L14.66 35.215c-1.47.916-2.259 2.61-2.18 4.316 2.39 1.969 5.357-1.625 5.718-.954.374.693.818.285 1.335-.357l-.008.084c0 .232.174.42.39.42.216 0 .39-.188.39-.42 0-.232-.174-.421-.39-.421l-.142.03c.553-.71 1.182-1.527 1.892-1.527.745 0 4.754-1.462 7.538-3.142.273-.164.537-.335.792-.512.074.11.192.183.328.183.226 0 .408-.195.408-.438a.462.462 0 0 0-.063-.233c.958-.73 1.842-1.542 2.834-2.43a.531.531 0 0 0-.055.233c0 .253.16.458.357.458.195 0 .353-.205.353-.458 0-.252-.158-.456-.353-.456l-.066.009c1.044-.934 2.217-1.95 3.719-3.04 3.77-2.74 5.555-1.723 7.042-3.836 1.09-1.546 1.932-1.456 3.283-1.84 0 .27.159.49.356.49.197 0 .356-.222.356-.494l-.038-.22c.32-.122.67-.28 1.05-.494l.053-.026c.036.142.16.246.31.246.18 0 .324-.146.324-.329l-.076-.208c1.32-.66 3.022-1.345 4.227-2.132.02.104.127.185.264.185.15 0 .271-.097.271-.218 0-.097-.08-.177-.19-.206.944-.697 1.453-1.477.96-2.392"/>
        <path fill="#FFF" d="M34.753 29.505c-.078 0-.14.05-.14.113s.062.113.14.113c.076 0 .138-.05.138-.113s-.062-.113-.138-.113M37.722 27.521c-.095 0-.173.083-.173.186s.078.186.173.186c.095 0 .174-.083.174-.186s-.079-.186-.174-.186M28.217 33.952c-.064 0-.115.057-.115.124 0 .069.051.124.115.124.065 0 .117-.055.117-.124 0-.067-.052-.124-.117-.124M25.546 35.669c-.328 0-.596.286-.596.637 0 .35.268.637.596.637.326 0 .593-.287.593-.637 0-.351-.267-.637-.593-.637M22.871 36.476c-.076 0-.139.067-.139.148 0 .082.063.149.14.149.075 0 .138-.067.138-.149 0-.081-.063-.148-.139-.148M20.496 37.724c-.09 0-.163.078-.163.174 0 .096.073.174.163.174.088 0 .16-.078.16-.174 0-.096-.072-.174-.16-.174M16.932 40.142c-.158 0-.285.136-.285.304 0 .168.127.304.285.304.155 0 .282-.136.282-.304 0-.168-.127-.304-.282-.304M18.118 39.623c-.097 0-.172.083-.172.186 0 .102.075.186.172.186.096 0 .174-.084.174-.186 0-.103-.078-.186-.174-.186M22.278 37.724c-.09 0-.162.078-.162.174 0 .096.072.174.162.174.088 0 .16-.078.16-.174 0-.096-.072-.174-.16-.174M32.97 31.905c-.132 0-.242.117-.242.26 0 .144.11.26.243.26.134 0 .241-.116.241-.26 0-.143-.107-.26-.241-.26M39.505 27.435c-.141 0-.253.121-.253.273 0 .15.112.271.253.271.139 0 .253-.121.253-.271 0-.152-.114-.273-.253-.273"/>
        <path fill="#FFB537" d="M10.942 31.21c-1.52 0-2.996-.84-3.812-2.344-1.22-2.247-.504-5.125 1.597-6.428L43.887.636C45.989-.667 48.683.097 49.9 2.344c1.22 2.247.505 5.126-1.598 6.429L13.145 30.575a4.165 4.165 0 0 1-2.203.635"/>
        <path fill="#EC8713" d="M11.124 31.21c-1.513 0-2.982-.846-3.794-2.362-1.216-2.264 3.395 1.8 5.487.486l36.06-22.267c2.094-1.312.56-6.227 1.026-4.945 1.213 2.264.502 5.165-1.59 6.479L13.316 30.57c-.693.434-1.45.64-2.193.64"/>
        <path fill="#FFF" d="M34.377 13.057c0-.112-.097-.204-.218-.204-.122 0-.22.092-.22.204 0 .114.098.205.22.205.12 0 .218-.091.218-.205M35.346 12.21c-.101 0-.184.094-.184.21 0 .116.083.21.184.21.103 0 .185-.094.185-.21 0-.116-.082-.21-.185-.21M37.129 12.358c-.134 0-.243.028-.243.063 0 .033.109.061.243.061s.242-.028.242-.061c0-.035-.108-.063-.242-.063M38.91 11.023c-.064 0-.115.055-.115.123 0 .069.051.124.116.124.063 0 .115-.055.115-.124 0-.068-.052-.123-.115-.123M40.099 10.299c-.102 0-.184.094-.184.21 0 .116.082.211.184.211s.184-.095.184-.21c0-.117-.082-.211-.184-.211M41.881 9.038c-.154 0-.278.088-.278.197 0 .11.124.198.278.198.153 0 .278-.088.278-.198 0-.109-.125-.197-.278-.197M46.04 6.564c-.092 0-.166.056-.166.124s.074.123.165.123c.092 0 .166-.055.166-.123s-.074-.124-.166-.124M48.416 5.99l-.092.062.092.06.092-.06-.092-.063M47.228 6.564c-.064 0-.116.056-.116.124s.052.123.116.123c.063 0 .115-.055.115-.123s-.052-.124-.115-.124M30.593 16.056c-.12 0-.218.084-.218.186 0 .103.098.186.218.186.122 0 .22-.083.22-.186 0-.102-.098-.186-.22-.186"/>
        <path fill="#FFF" d="M50.304 2.348C49.092.098 46.409-.67 44.316.637L9.312 22.477c-1.467.915-2.257 2.61-2.178 4.316 2.393 1.967 5.357-1.626 5.719-.955.375.693.817.285 1.332-.357l-.007.084c0 .23.175.419.392.419.215 0 .39-.188.39-.42 0-.231-.175-.42-.39-.42l-.14.03c.548-.71 1.178-1.527 1.89-1.527.744 0 4.753-1.461 7.538-3.142.273-.164.534-.334.79-.51a.4.4 0 0 0 .331.182c.226 0 .406-.196.406-.439a.46.46 0 0 0-.062-.234c.956-.728 1.842-1.54 2.831-2.429a.557.557 0 0 0-.052.234c0 .253.159.457.356.457.196 0 .354-.204.354-.457 0-.252-.158-.456-.354-.456l-.065.008c1.044-.933 2.216-1.949 3.718-3.04 3.77-2.74 5.554-1.723 7.044-3.836 1.089-1.546 1.929-1.455 3.282-1.839 0 .27.159.488.355.488.197 0 .355-.22.355-.493l-.036-.219c.32-.122.669-.28 1.05-.492l.053-.028a.32.32 0 0 0 .31.246.326.326 0 0 0 .323-.329l-.076-.209c1.323-.66 3.021-1.343 4.227-2.132.021.104.129.186.264.186.15 0 .273-.098.273-.22 0-.096-.082-.176-.19-.205.944-.698 1.451-1.478.959-2.391"/>
        <path fill="#FFF" d="M29.407 16.766c-.077 0-.14.05-.14.113 0 .062.063.113.14.113.076 0 .137-.05.137-.113 0-.062-.061-.113-.137-.113M31.783 14.782c-.097 0-.174.083-.174.186 0 .102.077.186.174.186.095 0 .172-.084.172-.186 0-.103-.077-.186-.172-.186M22.872 21.214c-.065 0-.116.056-.116.124s.051.123.116.123c.063 0 .115-.055.115-.123s-.052-.124-.115-.124M20.197 22.93c-.327 0-.593.286-.593.637 0 .352.266.637.593.637.33 0 .595-.285.595-.637 0-.351-.266-.637-.595-.637M17.526 23.737c-.078 0-.14.067-.14.148 0 .083.062.149.14.149.075 0 .137-.066.137-.149 0-.081-.062-.148-.137-.148M15.148 24.986c-.089 0-.161.077-.161.173 0 .096.072.174.16.174.09 0 .163-.078.163-.174 0-.096-.072-.173-.162-.173M11.583 27.403c-.156 0-.283.136-.283.305 0 .167.127.303.283.303.158 0 .285-.136.285-.303 0-.169-.127-.305-.285-.305M12.773 26.884c-.097 0-.173.084-.173.186 0 .103.076.186.173.186.096 0 .172-.083.172-.186 0-.102-.076-.186-.172-.186M16.93 24.986c-.089 0-.16.077-.16.173 0 .096.071.174.16.174.09 0 .162-.078.162-.174 0-.096-.072-.173-.161-.173M27.623 19.167c-.134 0-.241.116-.241.26 0 .144.107.26.241.26s.243-.116.243-.26c0-.144-.11-.26-.243-.26M34.16 14.696c-.141 0-.255.121-.255.272 0 .15.114.272.255.272.139 0 .252-.122.252-.272 0-.15-.113-.272-.252-.272"/>
        <path fill="#FFB537" d="M16.881 36.306c-1.518 0-2.994-.84-3.812-2.345-1.217-2.246-.504-5.124 1.6-6.428L49.826 5.73c2.103-1.304 4.797-.537 6.015 1.709 1.219 2.246.505 5.124-1.598 6.428L19.085 35.672a4.179 4.179 0 0 1-2.204.634"/>
        <path fill="#EC8713" d="M17.064 36.306c-1.511 0-2.98-.846-3.795-2.363-1.211-2.264 3.397 1.8 5.489.487l36.06-22.267c2.092-1.313.56-6.227 1.026-4.945 1.213 2.264.502 5.164-1.591 6.478l-34.996 21.97a4.122 4.122 0 0 1-2.193.64"/>
        <path fill="#FFF" d="M40.319 18.153c0-.113-.1-.205-.22-.205s-.22.092-.22.205c0 .113.1.205.22.205s.22-.092.22-.205M41.288 17.305c-.103 0-.185.095-.185.211 0 .117.082.21.185.21.102 0 .183-.093.183-.21 0-.116-.081-.21-.183-.21M43.07 17.454c-.135 0-.242.028-.242.063 0 .033.107.06.241.06.135 0 .242-.027.242-.06 0-.035-.107-.063-.242-.063M44.259 16.118c-.066 0-.117.055-.117.124a.12.12 0 0 0 .117.124c.062 0 .114-.056.114-.124 0-.07-.052-.124-.114-.124M46.04 14.758c-.103 0-.185.095-.185.21 0 .117.082.21.185.21.101 0 .184-.093.184-.21 0-.115-.083-.21-.184-.21M47.821 14.133c-.152 0-.276.089-.276.198 0 .11.124.198.276.198.153 0 .278-.089.278-.198 0-.11-.125-.198-.278-.198M51.98 11.66c-.092 0-.165.056-.165.123 0 .07.073.124.165.124.091 0 .166-.055.166-.124 0-.067-.075-.123-.166-.123M54.358 11.084l-.094.062.094.063.09-.063-.09-.062M53.169 11.66c-.065 0-.116.056-.116.123 0 .07.051.124.116.124.063 0 .115-.055.115-.124 0-.067-.052-.123-.115-.123M36.535 21.152c-.121 0-.22.083-.22.185 0 .103.099.186.22.186.12 0 .22-.083.22-.186 0-.102-.1-.185-.22-.185"/>
        <path fill="#FFF" d="M55.65 7.444c-1.212-2.25-3.894-3.018-5.988-1.712l-35.001 21.84c-1.47.916-2.259 2.61-2.18 4.316 2.393 1.968 5.358-1.626 5.72-.955.372.694.816.286 1.332-.356l-.01.083c0 .232.178.42.393.42.215 0 .39-.188.39-.42 0-.232-.175-.42-.39-.42l-.141.03c.552-.71 1.18-1.528 1.89-1.528.747 0 4.754-1.46 7.54-3.14.273-.166.534-.336.789-.513.074.11.195.183.33.183.225 0 .41-.196.41-.438a.473.473 0 0 0-.064-.234c.957-.728 1.841-1.54 2.832-2.43a.551.551 0 0 0-.052.235c0 .252.159.456.354.456.196 0 .355-.204.355-.456s-.159-.456-.355-.456l-.064.007c1.044-.933 2.216-1.948 3.717-3.04 3.77-2.74 5.557-1.722 7.044-3.835 1.088-1.547 1.929-1.456 3.28-1.84.002.27.16.489.357.489.198 0 .358-.221.358-.493l-.04-.22c.32-.122.67-.28 1.052-.492l.05-.028a.327.327 0 0 0 .312.247.326.326 0 0 0 .322-.33l-.075-.209c1.322-.658 3.023-1.343 4.227-2.132.02.106.129.187.263.187.15 0 .273-.099.273-.219 0-.098-.081-.178-.19-.206.945-.697 1.453-1.478.96-2.391"/>
        <path fill="#FFF" d="M35.347 21.861c-.077 0-.139.051-.139.113 0 .063.062.114.139.114.076 0 .138-.051.138-.114 0-.062-.062-.113-.138-.113M37.722 19.878c-.094 0-.172.082-.172.186 0 .102.078.186.172.186.097 0 .174-.084.174-.186 0-.104-.077-.186-.174-.186M28.812 26.31c-.063 0-.115.055-.115.123 0 .069.052.124.115.124.064 0 .115-.055.115-.124 0-.068-.051-.124-.115-.124M26.14 28.025c-.33 0-.595.286-.595.637 0 .352.265.637.595.637.33 0 .593-.285.593-.637 0-.351-.263-.637-.593-.637M23.465 28.832c-.076 0-.138.066-.138.149 0 .081.062.149.138.149.076 0 .138-.068.138-.15 0-.082-.062-.148-.138-.148M21.09 30.081c-.09 0-.162.078-.162.174 0 .096.072.173.161.173.09 0 .162-.077.162-.173 0-.096-.072-.174-.162-.174M16.932 32.498c-.157 0-.285.137-.285.305 0 .167.128.304.285.304.156 0 .282-.137.282-.304 0-.168-.126-.305-.282-.305M18.713 31.98c-.095 0-.173.082-.173.186 0 .102.078.186.173.186.095 0 .173-.084.173-.186 0-.104-.078-.186-.173-.186M22.871 30.081c-.09 0-.162.078-.162.174 0 .096.072.173.162.173.09 0 .162-.077.162-.173 0-.096-.073-.174-.162-.174M32.97 24.263c-.134 0-.242.115-.242.259 0 .144.108.26.243.26.133 0 .241-.116.241-.26 0-.144-.108-.26-.241-.26M40.099 19.791c-.14 0-.255.122-.255.273 0 .15.115.272.255.272s.255-.122.255-.272c0-.15-.116-.273-.255-.273"/>
        <path fill="#EC8713" d="M50.792 40.764c-1.749 0-3.496-.404-4.83-1.212-2.669-1.617-2.669-4.238 0-5.856 1.334-.808 3.081-1.212 4.83-1.212s3.497.404 4.83 1.212c2.669 1.618 2.669 4.24 0 5.856-1.333.808-3.081 1.212-4.83 1.212"/>
        <path fill="#FFC900" d="M60 29.3c0 5.275-3.99 9.553-8.912 9.553-4.92 0-8.91-4.278-8.91-9.554H60"/>
        <path fill="#E0D7B4" d="M57.389 33.446c-3.477 2.114-9.123 2.114-12.602 0-3.478-2.112-3.478-5.543 0-7.658 3.48-2.112 9.125-2.112 12.602 0 3.481 2.115 3.481 5.546 0 7.658"/>
        <path fill="#BDB497" d="M58.684 29.936c-.283-.942-1.023-1.843-2.223-2.57-3.133-1.895-8.21-1.895-11.34 0-1.2.725-1.94 1.627-2.22 2.567-.454-1.516.287-3.138 2.22-4.307 3.13-1.896 8.207-1.896 11.34 0 1.933 1.171 2.674 2.792 2.223 4.31"/>
        <path fill="#603913" d="M58.812 30.258c-.122.415-.33.826-.622 1.215-.394.522-.937 1.013-1.634 1.445-3.187 1.969-8.346 1.969-11.528 0-.697-.432-1.24-.923-1.633-1.445a3.76 3.76 0 0 1-.623-1.22c.284-.974 1.036-1.91 2.256-2.663 3.182-1.967 8.341-1.967 11.525 0 1.22.755 1.972 1.69 2.259 2.668"/>
        <path fill="#754C29" d="M55.114 29.082a.34.34 0 0 1-.326 0c-.09-.056-.09-.146 0-.202a.337.337 0 0 1 .326 0c.09.056.09.146 0 .202M52.698 27.864a1.408 1.408 0 0 1-.84 0c-.233-.087-.233-.227 0-.313.232-.086.607-.086.84 0 .231.086.231.226 0 .313M53.885 30.41a1.4 1.4 0 0 1-.84 0c-.232-.086-.232-.225 0-.312a1.41 1.41 0 0 1 .84 0c.233.087.233.226 0 .313M56.905 30.998a.357.357 0 0 1-.345 0c-.095-.06-.095-.153 0-.213a.36.36 0 0 1 .345 0c.096.06.096.154 0 .213M46.757 29.795a1.237 1.237 0 0 1-.84 0c-.232-.098-.232-.256 0-.355.232-.098.608-.098.84 0 .232.099.232.257 0 .355M49.22 32.296a.443.443 0 0 1-.422 0c-.114-.072-.114-.189 0-.26a.44.44 0 0 1 .422 0c.116.071.116.188 0 .26M50.341 29.707a.3.3 0 0 1-.287 0c-.08-.05-.08-.13 0-.178.08-.05.208-.05.287 0 .08.049.08.129 0 .178M46.756 31.669a1.549 1.549 0 0 1-.839 0c-.233-.078-.233-.204 0-.28.232-.078.608-.078.839 0 .233.076.233.202 0 .28M49.727 27.887c-.233.098-.61.098-.841 0-.23-.1-.23-.26 0-.36.231-.099.608-.099.84 0 .233.1.233.26 0 .36M53.204 32.934c-.347.25-.912.25-1.26 0-.348-.248-.348-.652 0-.9.348-.25.913-.25 1.26 0 .348.248.348.652 0 .9M57.45 29.151a1.29 1.29 0 0 1-.84 0c-.232-.094-.232-.246 0-.34.23-.094.609-.094.84 0 .232.094.232.246 0 .34"/>
        <path fill="#DAD6C4" d="M79.873 31.35l-.287-.08-5.298-3.162a.604.604 0 0 1-.21-.812.566.566 0 0 1 .784-.217l5.297 3.164c.276.164.37.527.212.81a.57.57 0 0 1-.498.297zm10.03 5.8l-.287-.08-5.3-3.162a.605.605 0 0 1-.209-.812.564.564 0 0 1 .783-.217l5.3 3.164a.604.604 0 0 1 .211.81.57.57 0 0 1-.497.297zm10.746 6.525l-.286-.08-5.3-3.163a.604.604 0 0 1-.21-.81.564.564 0 0 1 .784-.216l5.3 3.163a.604.604 0 0 1 .21.81.576.576 0 0 1-.498.296zm10.747 5.8l-.286-.08-5.3-3.164a.604.604 0 0 1-.211-.81.566.566 0 0 1 .785-.216l5.3 3.164a.604.604 0 0 1 .209.81.572.572 0 0 1-.497.296zM121.426 56l-.288-.08-5.298-3.163a.603.603 0 0 1-.21-.81.565.565 0 0 1 .784-.217l5.298 3.164c.275.163.37.527.21.81a.572.572 0 0 1-.496.296z"/>
        <path fill="#FFC900" d="M76.5 32c-1.412 0-2.748-.333-3.764-.932-1.12-.662-1.736-1.581-1.736-2.584 0-1.002.617-1.921 1.736-2.583 2.03-1.201 5.499-1.201 7.528 0 1.12.662 1.736 1.58 1.736 2.583 0 1.003-.617 1.922-1.736 2.584-1.014.6-2.35.932-3.763.932z"/>
    </g>
</svg>
