<svg xmlns="http://www.w3.org/2000/svg" width="198" height="153" viewBox="0 0 198 153">
    <g fill="none" fill-rule="evenodd">
        <path fill="#E2BC91" d="M90 107l55-32.167V27L90 59.15V107"/>
        <path fill="#FF9800" d="M90 107l-11-5.786V53l11 5.782V107"/>
        <path fill="#F5B400" d="M88.994 59L145 26.764 135.006 21 79 53.246 88.994 59"/>
        <path fill="#C39D73" d="M91 59l55-31.775V25L91 56.778V59"/>
        <path fill="#FF9800" d="M91 61l-13-8.525V50l13 8.521V61"/>
        <path fill="#C39D73" d="M91.364 58L147 25.751 133.633 18 78 50.249 91.364 58"/>
        <path fill="#FFEFDD" d="M140.38 29l-2.76-1.335V20l2.76 1.339V29"/>
        <path fill="#E2BC91" d="M140 29l4-2.83V18l-4 2.83V29"/>
        <path fill="#F8D9B5" d="M140.356 21L145 18.343 142.65 17 138 19.66l2.356 1.34"/>
        <path fill="#FFEFDD" d="M132.376 33l-2.752-1.35V24l2.752 1.33V33"/>
        <path fill="#E2BC91" d="M133 33l4-2.834V22l-4 2.82V33"/>
        <path fill="#F8D9B5" d="M132.35 26l4.65-2.657L134.646 22 130 24.663 132.35 26"/>
        <path fill="#FFEFDD" d="M124.374 38l-2.748-1.348V29l2.748 1.341V38"/>
        <path fill="#E2BC91" d="M125 38l4-2.834V27l-4 2.834V38"/>
        <path fill="#F8D9B5" d="M125.348 30L130 27.334 127.648 26 123 28.655 125.348 30"/>
        <path fill="#FFEFDD" d="M117.376 42l-2.752-1.342V33l2.752 1.338V42"/>
        <path fill="#E2BC91" d="M117 42l4-2.836V31l-4 2.83V42"/>
        <path fill="#F8D9B5" d="M117.35 34l4.65-2.652L119.65 30 115 32.662 117.35 34"/>
        <path fill="#FFEFDD" d="M109.378 47l-2.756-1.34V38l2.756 1.332V47"/>
        <path fill="#E2BC91" d="M110 48l4-2.833V37l-4 2.83V48"/>
        <path fill="#F8D9B5" d="M109.352 40L114 37.341 111.648 36 107 38.666 109.352 40"/>
        <path fill="#FFEFDD" d="M101.376 51l-2.752-1.338V42l2.752 1.331V51"/>
        <path fill="#E2BC91" d="M102 52l4-2.828V41l-4 2.825V52"/>
        <path fill="#F8D9B5" d="M101.352 44L106 41.347 103.652 40 99 42.667 101.352 44"/>
        <path fill="#FF9800" d="M93.378 55l-2.756-1.343V46l2.756 1.337V55"/>
        <path fill="#E2BC91" d="M94 57l4-2.83V46l-4 2.826V57"/>
        <path fill="#F8D9B5" d="M93.353 49L98 46.341 95.65 45 91 47.659 93.353 49"/>
        <path fill="#FFEFDD" d="M130.376 24l-2.752-1.344V15l2.752 1.338V24"/>
        <path fill="#E2BC91" d="M131 24l4-2.833V13l-4 2.825V24"/>
        <path fill="#F8D9B5" d="M130.35 16l4.65-2.658L132.647 12 128 14.658 130.35 16"/>
        <path fill="#FFEFDD" d="M122.378 28l-2.756-1.335V19l2.756 1.345V28"/>
        <path fill="#E2BC91" d="M123 28l4-2.827V17l-4 2.83V28"/>
        <path fill="#F8D9B5" d="M122.352 20L127 17.343 124.648 16 120 18.653 122.352 20"/>
        <path fill="#FFEFDD" d="M114.376 32l-2.752-1.341V23l2.752 1.344V32"/>
        <path fill="#E2BC91" d="M115 32l4-2.826V21l-4 2.83V32"/>
        <path fill="#F8D9B5" d="M114.35 25l4.65-2.659L116.647 21 112 23.652 114.35 25"/>
        <path fill="#FFEFDD" d="M107.378 37l-2.756-1.344V28l2.756 1.34V37"/>
        <path fill="#E2BC91" d="M107 37l4-2.833V26l-4 2.825V37"/>
        <path fill="#F8D9B5" d="M106.353 29L111 26.345 108.65 25 104 27.655 106.353 29"/>
        <path fill="#FFEFDD" d="M99.376 41l-2.752-1.344V32l2.752 1.34V41"/>
        <path fill="#E2BC91" d="M99 41l4-2.828V30l-4 2.828V41"/>
        <path fill="#F8D9B5" d="M98.35 33l4.65-2.657L100.65 29 96 31.657 98.35 33"/>
        <path fill="#FF9800" d="M91.38 46l-2.76-1.344V37l2.76 1.341V46"/>
        <path fill="#E2BC91" d="M91 46l4-2.83V35l-4 2.826V46"/>
        <path fill="#F8D9B5" d="M92.355 38L97 35.35 94.648 34 90 36.658 92.355 38"/>
        <path fill="#FF9800" d="M84.378 50l-2.756-1.345V41l2.756 1.331V50"/>
        <path fill="#CF7C00" d="M83 50l4-2.835V39l-4 2.825V50"/>
        <path fill="#F5B400" d="M84.353 42L89 39.34 86.65 38 82 40.663 84.353 42"/>
        <path fill="#FFEFDD" d="M58 108L3 75.84V28l55 32.16V108"/>
        <path fill="#CF7C00" d="M58 108l11-5.785V54l-11 5.789V108"/>
        <path fill="#F8D9B5" d="M57.007 61L1 28.753 10.997 23 67 55.24 57.007 61"/>
        <path fill="#FFEFDD" d="M55 61L0 29.23V27l55 31.77V61"/>
        <path fill="#CF7C00" d="M56 62l13-8.517V51l-13 8.514V62"/>
        <path fill="#F8D9B5" d="M55.64 58L0 25.754 13.364 18 69 50.246 55.64 58"/>
        <path fill="#F8D9B5" d="M59 58L4 25.824V8l55 32.166V58"/>
        <path fill="#CF7C00" d="M59 58l8-4.74V36l-8 4.733V58"/>
        <path fill="#E2BC91" d="M60.535 40L4 7.884 12.465 3 69 35.12 60.535 40M14 28.624V30l-2.5-1.554L9 26.898v-9.524c0-.44.534-.427 1.11-.29v9.127l2.5 1.55 1.39.863"/>
        <path fill="#3C2415" d="M15 20.52V29l-1.429-.897L11 26.49V17c.684.162 1.429.503 1.429.503S15 19.526 15 20.52"/>
        <path fill="#CF7C00" d="M49 82.401V83l-7-3.816V67l.544.29V78.88L49 82.401"/>
        <path fill="#E2BC91" d="M49 70.724V83l-7-3.727V67l7 3.724"/>
        <path fill="#3C2415" d="M43.004 68.108c-.532-.254-.968-.047-.968.479v9.464l1.928.949v-9.474c0-.512-.428-1.157-.96-1.418M46.002 70.112c-.528-.261-.968-.05-.968.475v9.464l1.932.949v-9.47c0-.526-.432-1.157-.964-1.418"/>
        <path fill="#3C2415" d="M47 71.109c-.532-.258-.964-.041-.964.48v9.469l1.928.942v-9.471c0-.519-.432-1.16-.964-1.42"/>
        <path fill="#FF9800" d="M47.826 70.456v2.884l.348.204v-2.876l-.348-.212"/>
        <path fill="#CF7C00" d="M47.478 71.094l.692-.4.352.196-.696.416-.348-.212"/>
        <path fill="#CF7C00" d="M47.652 70.77v2.876l.696-.416v-2.876l-.696.416"/>
        <path fill="#FF9800" d="M41.826 66.456v2.88l.348.208v-2.88l-.348-.208"/>
        <path fill="#CF7C00" d="M41.48 67.102l.692-.412.348.208-.692.412-.348-.208"/>
        <path fill="#CF7C00" d="M41.654 66.766v2.88l.692-.412v-2.88l-.692.412"/>
        <path fill="#FF9800" d="M49 71l-8-3.704V67l8 3.701V71"/>
        <path fill="#CF7C00" d="M47.648 71.4l.704-.396V70.6l-.704.388v.412"/>
        <path fill="#E2BC91" d="M48.409 71L41 67.285l.588-.285L49 70.718l-.591.282"/>
        <path fill="#FF9800" d="M48 83l-7-3.68V79l7 3.674V83"/>
        <path fill="#CF7C00" d="M47.784 84.328l.432-.248v-.408l-.432.24v.416"/>
        <path fill="#F5B400" d="M47.647 83L41 79.195l.347-.195L48 82.805l-.353.195"/>
        <path fill="#CF7C00" d="M49 97.397V98l-7-3.913V85l.544.297v8.483L49 97.397"/>
        <path fill="#E2BC91" d="M49 87.577V96l-7-3.587V84l7 3.577"/>
        <path fill="#3C2415" d="M49 89.546V97l-7-3.55V86l7 3.546"/>
        <path fill="#F5B400" d="M49 92l-7-3.65V88l7 3.653V92M43.824 90l.008 4.81.344.19v-4.825L43.824 90"/>
        <path fill="#F5B400" d="M45.824 87v7.823l.352.177v-7.83l-.352-.17M46.824 91v4.825l.352.175v-4.803L46.824 91"/>
        <path fill="#FF9800" d="M47.826 88.458v2.884l.348.2v-2.868l-.348-.216"/>
        <path fill="#CF7C00" d="M47.478 89.094l.692-.404.352.208-.696.412-.348-.216"/>
        <path fill="#CF7C00" d="M47.652 88.772v2.868l.696-.412V88.36l-.696.412"/>
        <path fill="#FF9800" d="M41.826 84.464v2.872l.348.2v-2.88l-.348-.192"/>
        <path fill="#CF7C00" d="M41.48 85.114l.692-.42.348.2-.692.412-.348-.192"/>
        <path fill="#CF7C00" d="M41.654 84.766v2.88l.692-.412v-2.88l-.692.412"/>
        <path fill="#FF9800" d="M49 88l-8-3.701V84l8 3.704V88"/>
        <path fill="#CF7C00" d="M47.648 89.406l.704-.4v-.412l-.704.404v.408"/>
        <path fill="#E2BC91" d="M48.409 88L41 84.288l.588-.288L49 87.706l-.591.294"/>
        <path fill="#FF9800" d="M48 98l-7-3.68V94l7 3.69V98"/>
        <path fill="#CF7C00" d="M47.784 98.324l.432-.236v-.412l-.432.252v.396"/>
        <path fill="#E2BC91" d="M47.647 98L41 94.2l.347-.2L48 97.796l-.353.204"/>
        <path fill="#CF7C00" d="M37 76.408V77l-7-3.815V61l.54.296v11.596L37 76.408"/>
        <path fill="#E2BC91" d="M37 64.723V77l-7-3.723V61l7 3.723"/>
        <path fill="#3C2415" d="M32 62.11c-.532-.258-.964-.047-.964.472v9.475l1.928.943v-9.468c0-.52-.432-1.16-.964-1.422M34.998 63.112c-.532-.258-.96-.058-.96.465v9.48l1.924.943v-9.473c0-.526-.428-1.164-.964-1.415"/>
        <path fill="#3C2415" d="M36.002 64.11c-.536-.257-.968-.05-.968.472v9.481l1.932.937v-9.474c0-.516-.436-1.157-.964-1.415"/>
        <path fill="#FF9800" d="M37.824 65.458v2.876l.352.208v-2.88l-.352-.204"/>
        <path fill="#CF7C00" d="M37.476 64.106l.692-.416.356.212-.696.408-.352-.204"/>
        <path fill="#CF7C00" d="M37.652 63.764v2.88l.696-.42v-2.868l-.696.408"/>
        <path fill="#FF9800" d="M29.826 59.462v2.876l.348.2v-2.88l-.348-.196"/>
        <path fill="#CF7C00" d="M29.478 60.106l.692-.408.352.208-.696.396-.348-.196"/>
        <path fill="#CF7C00" d="M29.652 59.758v2.88l.696-.4v-2.876l-.696.396"/>
        <path fill="#FF9800" d="M37 65l-8-3.704V61l8 3.707V65"/>
        <path fill="#CF7C00" d="M37.65 64.402l.7-.396v-.408l-.7.4v.404"/>
        <path fill="#E2BC91" d="M37.413 65L30 61.29l.587-.29L38 64.71l-.587.29M37 78l-7-3.68V74l7 3.684V78"/>
        <path fill="#CF7C00" d="M37.784 77.326l.432-.252v-.4l-.432.248v.404"/>
        <path fill="#F5B400" d="M36.647 77L30 73.191l.353-.191L37 76.8l-.353.2"/>
        <path fill="#CF7C00" d="M37 90.387V91l-7-3.922V78l.54.3v8.484L37 90.387"/>
        <path fill="#E2BC91" d="M37 82.58V91l-7-3.577V79l7 3.58"/>
        <path fill="#3C2415" d="M38 82.543V90l-7-3.553V79l7 3.543"/>
        <path fill="#F5B400" d="M38 86l-7-3.65V82l7 3.656V86M31.824 83l.004 4.814.348.186v-4.821L31.824 83"/>
        <path fill="#F5B400" d="M33.822 80v7.827l.356.173-.004-7.827-.352-.173M35.824 85v4.821l.352.179v-4.807L35.824 85"/>
        <path fill="#FF9800" d="M37.824 82.456v2.884l.352.204v-2.88l-.352-.208"/>
        <path fill="#CF7C00" d="M37.476 82.102l.692-.412.356.212-.696.408-.352-.208M37.652 82.764v2.88l.696-.42v-2.868l-.696.408"/>
        <path fill="#FF9800" d="M29.826 78.458v2.884l.348.2v-2.88l-.348-.204"/>
        <path fill="#CF7C00" d="M29.478 78.104l.692-.412.352.2-.696.416-.348-.204M29.652 78.768v2.88l.696-.416v-2.88l-.696.416"/>
        <path fill="#FF9800" d="M37 82l-8-3.71V78l8 3.706V82"/>
        <path fill="#CF7C00" d="M37.65 82.4l.7-.392V81.6l-.7.396v.404"/>
        <path fill="#E2BC91" d="M37.413 82L30 78.288l.587-.288L38 81.712l-.587.288"/>
        <path fill="#FF9800" d="M37 91l-7-3.686V87l7 3.689V91"/>
        <path fill="#CF7C00" d="M37.784 92.32l.432-.232v-.408l-.432.244v.396"/>
        <path fill="#F5B400" d="M36.647 91L30 87.207l.353-.207L37 90.803l-.353.197"/>
        <path fill="#CF7C00" d="M27 69.408V70l-7-3.819V54l.547.306v11.583L27 69.409"/>
        <path fill="#E2BC91" d="M27 57.719V70l-7-3.729V54l7 3.719"/>
        <path fill="#3C2415" d="M21.998 56.108c-.532-.251-.964-.051-.964.471v9.481l1.932.94v-9.474c0-.516-.436-1.157-.968-1.418"/>
        <path fill="#3C2415" d="M22.996 56.111c-.528-.258-.964-.054-.964.475v9.468l1.936.946v-9.467c0-.526-.436-1.16-.972-1.422M26.002 58.113c-.536-.264-.968-.047-.968.468v9.476l1.932.943v-9.469c0-.519-.436-1.16-.964-1.418"/>
        <path fill="#FF9800" d="M25.824 58.46v2.876l.352.204v-2.884l-.352-.196"/>
        <path fill="#CF7C00" d="M25.476 59.106l.688-.408.36.208-.696.396-.352-.196"/>
        <path fill="#CF7C00" d="M25.652 58.756v2.884l.696-.404V58.36l-.696.396"/>
        <path fill="#FF9800" d="M18.824 54.46v2.876l.352.204v-2.876l-.352-.204"/>
        <path fill="#CF7C00" d="M18.48 55.1l.688-.404.352.204-.688.404-.352-.204"/>
        <path fill="#E2BC91" d="M18.656 54.764v2.876l.688-.404V54.36l-.688.404"/>
        <path fill="#FF9800" d="M26 58l-8-3.71V54l8 3.715V58"/>
        <path fill="#CF7C00" d="M25.652 59.396l.696-.392v-.4l-.696.4v.392"/>
        <path fill="#E2BC91" d="M25.415 58L18 54.29l.588-.29L26 57.71l-.585.29"/>
        <path fill="#FF9800" d="M27 71l-7-3.681V67l7 3.675V71"/>
        <path fill="#CF7C00" d="M25.78 71.33l.44-.26v-.4l-.44.244v.416"/>
        <path fill="#E2BC91" d="M26.64 71L20 67.197l.353-.197L27 70.803l-.36.197"/>
        <path fill="#CF7C00" d="M27 83.387V84l-7-3.914V71l.547.306v8.48L27 83.388"/>
        <path fill="#E2BC91" d="M27 75.583V84l-7-3.577V72l7 3.583"/>
        <path fill="#3C2415" d="M27 77.55V85l-7-3.55V74l7 3.55"/>
        <path fill="#F5B400" d="M27 79l-7-3.663V75l7 3.646V79M21.828 77v4.814l.344.186v-4.818L21.828 77"/>
        <path fill="#F5B400" d="M22.824 74v7.827l.352.173v-7.834L22.824 74M23.822 78v4.825l.356.175v-4.821L23.822 78"/>
        <path fill="#FF9800" d="M25.824 75.454v2.888l.352.204v-2.88l-.352-.212"/>
        <path fill="#CF7C00" d="M25.476 76.096l.688-.404.36.212-.696.404-.352-.212"/>
        <path fill="#CF7C00" d="M25.652 75.762v2.88l.696-.412v-2.872l-.696.404"/>
        <path fill="#FF9800" d="M18.824 71.458v2.872l.352.212v-2.884l-.352-.2"/>
        <path fill="#CF7C00" d="M18.48 72.108l.688-.416.352.208-.688.408-.352-.2"/>
        <path fill="#E2BC91" d="M18.656 71.762v2.884l.688-.412v-2.88l-.688.408"/>
        <path fill="#FF9800" d="M26 77l-8-3.707V73l8 3.707V77"/>
        <path fill="#CF7C00" d="M25.652 76.4l.696-.392V75.6l-.696.396v.404"/>
        <path fill="#F5B400" d="M25.415 75L18 71.288l.588-.288L26 74.712l-.585.288"/>
        <path fill="#FF9800" d="M27 86l-7-3.689V82l7 3.682V86"/>
        <path fill="#CF7C00" d="M25.78 85.322l.44-.236v-.408l-.44.24v.404"/>
        <path fill="#F5B400" d="M26.64 84L20 80.207l.353-.207L27 83.806l-.36.194"/>
        <path fill="#CF7C00" d="M16 62.408V63l-7-3.822V47l.544.309v11.576L16 62.408"/>
        <path fill="#E2BC91" d="M16 50.72V63l-7-3.733V47l7 3.72"/>
        <path fill="#3C2415" d="M9.996 50.114c-.532-.262-.96-.058-.96.465v9.48l1.928.941v-9.478c0-.526-.436-1.147-.968-1.408M13 51.112c-.536-.261-.964-.05-.964.472v9.47l1.928.946v-9.467c0-.525-.432-1.163-.964-1.42"/>
        <path fill="#3C2415" d="M14.002 51.11c-.536-.255-.968-.052-.968.471v9.476l1.932.943v-9.476c0-.515-.428-1.157-.964-1.415"/>
        <path fill="#FF9800" d="M14.824 51.464v2.876l.352.196-.004-2.884-.348-.188"/>
        <path fill="#CF7C00" d="M14.48 52.112l.688-.412.352.208-.692.392-.348-.188"/>
        <path fill="#CF7C00" d="M14.654 51.754l.004 2.884.688-.404v-2.872l-.692.392"/>
        <path fill="#FF9800" d="M6.824 47.462v2.876l.352.2v-2.872l-.352-.204"/>
        <path fill="#CF7C00" d="M8.478 48.102l.692-.408.352.204-.692.408-.352-.204"/>
        <path fill="#CF7C00" d="M8.654 47.768v2.872l.692-.408V47.36l-.692.408"/>
        <path fill="#FF9800" d="M16 51l-8-3.706V47l8 3.715V51"/>
        <path fill="#CF7C00" d="M14.652 52.39l.696-.388v-.392l-.696.388v.392"/>
        <path fill="#E2BC91" d="M15.415 51L8 47.293 8.588 47 16 50.718l-.585.282"/>
        <path fill="#FF9800" d="M15 65l-7-3.687V61l7 3.68V65"/>
        <path fill="#CF7C00" d="M14.784 64.328l.432-.252v-.404l-.432.248v.408"/>
        <path fill="#E2BC91" d="M14.647 65L8 61.204 8.35 61 15 64.8l-.353.2"/>
        <path fill="#CF7C00" d="M16 78.387V79l-7-3.911V66l.544.307v8.475L16 78.387"/>
        <path fill="#E2BC91" d="M16 69.58V78l-7-3.58V66l7 3.58"/>
        <path fill="#3C2415" d="M16 70.546V78l-7-3.553V67l7 3.546"/>
        <path fill="#F5B400" d="M16 74l-7-3.656V70l7 3.646V74"/>
        <path fill="#F5B400" d="M10.826 70v4.814l.348.186v-4.818L10.826 70M12.822 69v7.83l.356.17v-7.823L12.822 69M13.828 73v4.821l.344.179v-4.821L13.828 73"/>
        <path fill="#FF9800" d="M14.824 69.46v2.88l.352.2-.004-2.876-.348-.204"/>
        <path fill="#CF7C00" d="M14.48 69.104l.688-.412.352.212-.692.404-.348-.204M14.654 69.764l.004 2.876.688-.412V69.36l-.692.404"/>
        <path fill="#FF9800" d="M6.824 65.462v2.86l.352.216v-2.884l-.352-.192"/>
        <path fill="#CF7C00" d="M8.478 65.114l.692-.42.352.208-.692.404-.352-.192M8.654 65.76v2.884l.692-.408v-2.88l-.692.404"/>
        <path fill="#FF9800" d="M16 70l-8-3.698V66l8 3.71V70"/>
        <path fill="#CF7C00" d="M14.652 69.396l.696-.396v-.396l-.696.392v.4"/>
        <path fill="#E2BC91" d="M15.415 69L8 65.288 8.588 65 16 68.715l-.585.285"/>
        <path fill="#FF9800" d="M15 79l-7-3.69V75l7 3.683V79"/>
        <path fill="#CF7C00" d="M14.784 78.322l.432-.244v-.4l-.432.24v.404"/>
        <path fill="#E2BC91" d="M14.647 79L8 75.198 8.35 75 15 78.806l-.353.194M4.466 17v12.489L5.534 30l-.008-12.499L4.466 17"/>
        <path fill="#F5B400" d="M4 16.594l2.962-1.804L8 15.41l-2.974 1.8L4 16.594"/>
        <path fill="#E2BC91" d="M5.464 17.574L5.472 31l3.064-1.553V16l-3.072 1.574"/>
        <path fill="#FF9800" d="M12.464 21l.004 12.495 1.068.505V21.508L12.464 21"/>
        <path fill="#F5B400" d="M12 20.586l2.962-1.796 1.038.612-2.962 1.808L12 20.586"/>
        <path fill="#E2BC91" d="M12.468 21.581V35l3.064-1.55L15.528 20l-3.06 1.581M21 32.624V34l-2.499-1.548L16 30.902V21.38c0-.446.538-.433 1.114-.296v9.13l2.499 1.55 1.387.86"/>
        <path fill="#3C2415" d="M21 24.53V33l-1.428-.894L17 30.493V21c.688.166 1.428.513 1.428.513S21 23.546 21 24.53"/>
        <path fill="#FF9800" d="M18.466 25v12.502l1.068.498V25.502L18.466 25"/>
        <path fill="#F5B400" d="M18 24.59l2.969-1.796 1.031.62-2.965 1.792L18 24.59"/>
        <path fill="#E2BC91" d="M18.47 24.568V38l3.06-1.55V23l-3.06 1.568M28 37.624V39l-2.5-1.548-2.5-1.55v-9.523c0-.446.537-.433 1.113-.29v9.124l2.5 1.551 1.387.86"/>
        <path fill="#3C2415" d="M28 29.515V38l-1.427-.895L24 35.492V26c.684.156 1.427.51 1.427.51S28 28.531 28 29.515"/>
        <path fill="#FFEFDD" d="M25.468 29v12.498l1.064.502V29.499L25.468 29"/>
        <path fill="#F5B400" d="M25 28.596l2.968-1.804 1.032.616-2.968 1.8L25 28.596"/>
        <path fill="#E2BC91" d="M26.466 28.575V42l3.068-1.54L29.526 27l-3.06 1.575M36 41.627V43l-2.494-1.545L31 39.901v-9.52c0-.444.54-.437 1.116-.294v9.132l2.494 1.545 1.39.863"/>
        <path fill="#3C2415" d="M36 33.518V42l-1.431-.898L32 39.496V30c.685.159 1.431.507 1.431.507S36 32.534 36 33.517"/>
        <path fill="#FF9800" d="M33.464 33l.004 12.508 1.068.492-.004-12.495L33.464 33"/>
        <path fill="#F5B400" d="M33 32.586l2.96-1.792 1.04.616-2.967 1.796-1.033-.62"/>
        <path fill="#E2BC91" d="M33.466 32.572L33.47 46l3.064-1.537V31l-3.068 1.572M42 45.621V47l-2.494-1.554L37 43.902v-9.525c0-.44.54-.43 1.113-.296v9.123l2.5 1.557 1.387.86"/>
        <path fill="#3C2415" d="M42 37.526V46l-1.427-.894L38 43.486V34c.688.166 1.433.51 1.433.51S42 36.54 42 37.526"/>
        <path fill="#FFEFDD" d="M39.464 37l.004 12.495 1.068.505V37.501L39.464 37"/>
        <path fill="#F5B400" d="M40 36.588l2.962-1.792 1.038.616-2.962 1.792L40 36.588"/>
        <path fill="#E2BC91" d="M40.47 36.567V50l3.06-1.546V35l-3.06 1.567M49 49.62V51l-2.5-1.551L44 47.9v-9.523c0-.44.535-.433 1.109-.293v9.128l2.509 1.551 1.382.857"/>
        <path fill="#3C2415" d="M49 41.532V50l-1.42-.891L45 47.495V38c.69.162 1.43.514 1.43.514S49 40.53 49 41.532"/>
        <path fill="#FFEFDD" d="M47.466 41v12.498l1.068.502V41.498L47.466 41"/>
        <path fill="#F5B400" d="M46 40.594l2.965-1.8 1.035.62-2.965 1.792L46 40.594"/>
        <path fill="#E2BC91" d="M48.468 40.568V54l3.064-1.55L51.528 39l-3.06 1.568"/>
        <path fill="#FFEFDD" d="M54 45L1 14.04V13l53 30.96V45"/>
        <path fill="#CF7C00" d="M53.458 45.494l3.084-1.752v-1.236l-3.084 1.756v1.232"/>
        <path fill="#F8D9B5" d="M54.453 44L2 13.473 4.53 12 57 42.537 54.453 44"/>
        <path fill="#C49E74" d="M9.622 12l2.756-1.335V3L9.622 4.342V12"/>
        <path fill="#FFEFDD" d="M9 12L5 9.172V1l4 2.828V12"/>
        <path fill="#E2BC91" d="M9.647 4L5 1.347 7.353 0 12 2.657 9.647 4M4.466 4v11.497L5.534 16 5.526 4.506 4.466 4"/>
        <path fill="#FFEFDD" d="M4 3.586l2.962-1.792L8 2.41 5.026 4.206 4 3.586"/>
        <path fill="#E2BC91" d="M5.464 4.47L5.472 16l3.064-1.437V3L5.464 4.47"/>
        <path fill="#C49E74" d="M16.622 16l2.756-1.344V7l-2.756 1.338V16"/>
        <path fill="#E2BC91" d="M17 16l-4-2.832V5l4 2.828V16"/>
        <path fill="#E2BC91" d="M17.647 8L13 5.341 15.356 4 20 6.659 17.647 8"/>
        <path fill="#FF9800" d="M12.464 8v11.495l1.072.505-.008-11.498L12.464 8"/>
        <path fill="#FFEFDD" d="M12 7.59l2.965-1.796L16 6.406l-2.969 1.8L12 7.59"/>
        <path fill="#E2BC91" d="M12.466 8.471L12.474 20l3.06-1.452L15.53 7l-3.064 1.471"/>
        <path fill="#C49E74" d="M24.62 20l2.76-1.341V11l-2.76 1.341V20"/>
        <path fill="#E2BC91" d="M24 20l-4-2.826V9l4 2.826V20"/>
        <path fill="#E2BC91" d="M24.646 12L20 9.347 22.35 8 27 10.657 24.646 12"/>
        <path fill="#FF9800" d="M18.464 12l.004 11.491 1.068.509-.008-11.501L18.464 12"/>
        <path fill="#FFEFDD" d="M18 11.592l2.966-1.796L22 10.42l-2.97 1.784-1.03-.612"/>
        <path fill="#E2BC91" d="M18.466 12.46L18.474 24l3.06-1.456V11l-3.068 1.46"/>
        <path fill="#C49E74" d="M30.624 24l2.752-1.344V15l-2.752 1.331V24"/>
        <path fill="#E2BC91" d="M30.65 16L26 13.343 28.357 12 33 14.663 30.65 16"/>
        <path fill="#FFEFDD" d="M25.468 16v11.491l1.064.509V16.506L25.468 16M25 15.59l2.968-1.8 1.032.62-2.968 1.8L25 15.59"/>
        <path fill="#E2BC91" d="M26.466 16.472V28l3.068-1.452L29.526 15l-3.06 1.472"/>
        <path fill="#C49E74" d="M37.62 28l2.76-1.338V19l-2.76 1.338V28"/>
        <path fill="#E2BC91" d="M38 28l-4-2.83V17l4 2.825V28"/>
        <path fill="#E2BC91" d="M37.644 20L33 17.35 35.353 16 40 18.661 37.644 20"/>
        <path fill="#FFEFDD" d="M33.464 20l.004 11.498 1.068.502-.004-11.491L33.464 20M33 19.584l2.96-1.792 1.04.62-2.967 1.796L33 19.584"/>
        <path fill="#E2BC91" d="M33.466 21.47L33.47 33l3.064-1.45V20l-3.068 1.47"/>
        <path fill="#C49E74" d="M45.622 32l2.756-1.334V23l-2.756 1.348V32"/>
        <path fill="#E2BC91" d="M45 32l-4-2.837V21l4 2.834V32"/>
        <path fill="#E2BC91" d="M45.647 24L41 21.351 43.353 20 48 22.655 45.647 24"/>
        <path fill="#FFEFDD" d="M39.464 25l.004 11.494 1.068.506V25.506L39.464 25M40 24.586l2.962-1.792 1.038.612-2.962 1.8-1.038-.62"/>
        <path fill="#E2BC91" d="M40.47 25.472V37l3.06-1.443V24l-3.06 1.472"/>
        <path fill="#CF7C00" d="M51.624 35l2.752-1.342V26l-2.752 1.338V35"/>
        <path fill="#E2BC91" d="M51.65 29L47 26.346 49.353 25 54 27.658 51.65 29"/>
        <path fill="#FFEFDD" d="M47.466 29v11.491l1.068.509V29.509L47.466 29M46 28.584l2.965-1.792 1.035.616-2.965 1.8L46 28.584"/>
        <path fill="#E2BC91" d="M48.468 29.472V41l3.064-1.446L51.528 28l-3.06 1.472"/>
        <path fill="#FFEFDD" d="M73 124l-21-12.241V32l21 12.254V124"/>
        <path fill="#E2BC91" d="M73 124l21-12.241V32L73 44.254V124"/>
        <path fill="#F5B400" d="M73.002 45L52 32.493 73.002 20 94 32.493 73.002 45"/>
        <path fill="#F8D9B5" d="M73 48L49 34.31V32l24 13.684V48"/>
        <path fill="#C39D73" d="M72 48l24-13.69V32L72 45.684V48"/>
        <path fill="#F8D9B5" d="M72.998 45L50 32.008 72.998 19 96 32.008 72.998 45"/>
        <path fill="#FF9800" d="M145 146l-55-31.928V88l55 31.925V146"/>
        <path fill="#F8D9B5" d="M145.858 120L90 87.83 142.478 58 198 89.974 145.858 120"/>
        <path fill="#E2BC91" d="M143.622 62l2.756-1.146V57l-2.756 1.149V62"/>
        <path fill="#F8D9B5" d="M144 62l-4-2.595V55l4 2.599V62"/>
        <path fill="#FFEFDD" d="M144.652 58L140 55.336 142.355 54 147 56.654 144.652 58"/>
        <path fill="#E2BC91" d="M152.62 67l2.76-1.147V62l-2.76 1.144V67"/>
        <path fill="#F8D9B5" d="M152 67l-4-2.595V60l4 2.595V67"/>
        <path fill="#FFEFDD" d="M152.65 63L148 60.347 150.353 59 155 61.663 152.65 63M184.936 91l-16.465 2.421L152 109.935v3.28l3.064 1.785L188 92.795 184.936 91"/>
        <path fill="#E2BC91" d="M187.072 96.326v-2.893l-16 2.395-15.998 16.384v3.256L145 121.398V148l51-30.402V91l-8.928 5.326"/>
        <path fill="#FFEFDD" d="M134 153l-55-32.155V73l55 32.159V153"/>
        <path fill="#E2BC91" d="M134 153l11-5.786V99l-11 5.792V153"/>
        <path fill="#9C703F" d="M135.006 105L79 72.76 88.99 67 145 99.237 135.006 105"/>
        <path fill="#FFEFDD" d="M133 105L78 73.225V71l55 31.775V105"/>
        <path fill="#9C703F" d="M133 106l13-8.523V95l-13 8.52V106"/>
        <path fill="#C39D73" d="M133.639 103L78 70.751 91.365 63 147 95.245 133.639 103"/>
        <path fill="#E2BC91" d="M83.62 75l2.76-1.337V66l-2.76 1.35V75"/>
        <path fill="#FFEFDD" d="M85 75l-4-2.83V64l4 2.834V75"/>
        <path fill="#F8D9B5" d="M84.645 67L80 64.347 82.352 63 87 65.65 84.645 67"/>
        <path fill="#E2BC91" d="M91.624 79l2.752-1.344V70l-2.752 1.34V79"/>
        <path fill="#FFEFDD" d="M92 79l-3.997-2.825L88 68l4 2.828V79"/>
        <path fill="#F8D9B5" d="M91.65 71L87 68.343 89.356 67 94 69.657 91.65 71"/>
        <path fill="#E2BC91" d="M99.622 84l2.756-1.342V75l-2.756 1.339V84"/>
        <path fill="#FFEFDD" d="M100 85l-4-2.827V74l4 2.827V85"/>
        <path fill="#F8D9B5" d="M99.647 77L95 74.345 97.35 73l4.65 2.659L99.647 77"/>
        <path fill="#E2BC91" d="M107.622 88l2.756-1.342V79l-2.756 1.342V88"/>
        <path fill="#FFEFDD" d="M107 89l-4-2.83V78l4 2.83V89"/>
        <path fill="#F8D9B5" d="M107.647 80L103 77.343 105.35 76l4.65 2.657L107.647 80"/>
        <path fill="#E2BC91" d="M115.622 92l2.756-1.334V83l-2.756 1.351V92"/>
        <path fill="#FFEFDD" d="M115 93l-4-2.835V82l4 2.835V93"/>
        <path fill="#F8D9B5" d="M115.647 86L111 83.347 113.35 82l4.65 2.65-2.353 1.35"/>
        <path fill="#E2BC91" d="M123.622 97l2.756-1.344V88l-2.756 1.34V97"/>
        <path fill="#FFEFDD" d="M123 98l-4-2.83V87l4 2.825V98"/>
        <path fill="#F8D9B5" d="M123.648 90L119 87.345 121.352 86 126 88.655 123.648 90"/>
        <path fill="#E2BC91" d="M131.622 101l2.756-1.344V92l-2.756 1.334V101"/>
        <path fill="#FFEFDD" d="M131 102l-4-2.835V91l4 2.825V102"/>
        <path fill="#F8D9B5" d="M131.647 94L127 91.34l2.35-1.34 4.65 2.66-2.353 1.34"/>
        <path fill="#FFEFDD" d="M92 33L71 20.414V13l21 12.579V33"/>
        <path fill="#CF7C00" d="M91.622 33l2.756-1.23V25l-2.756 1.24V33"/>
        <path fill="#E2BC91" d="M92.661 26L71 14.277 73.346 13 95 24.732 92.661 26"/>
        <path fill="#E2BC91" d="M73.626 16l2.748-1.335V7l-2.748 1.342V16"/>
        <path fill="#FFEFDD" d="M73.378 16l-2.756-1.335V7l2.756 1.342V16"/>
        <path fill="#E2BC91" d="M73.003 7.592L71 6l2.003-1.592L75 6l-1.997 1.592M87.622 24l2.756-1.344V15l-2.756 1.337V24"/>
        <path fill="#FFEFDD" d="M87.378 24l-2.756-1.344V15l2.756 1.337V24"/>
        <path fill="#E2BC91" d="M88 15.588L86 14l2-1.588L90 14l-2 1.588M82.622 21l2.756-1.334V12l-2.756 1.337V21"/>
        <path fill="#FFEFDD" d="M82.378 21l-2.756-1.334V12l2.756 1.337V21"/>
        <path fill="#E2BC91" d="M83 12.588L81 11l2-1.588L85 11l-2 1.588M77.62 18l2.76-1.344V9l-2.76 1.334V18"/>
        <path fill="#FFEFDD" d="M78.38 18l-2.76-1.344V9l2.76 1.334V18"/>
        <path fill="#E2BC91" d="M79 10.586l-2-1.584 2-1.588 2 1.588-2 1.584M75 43l20-10.928V25L75 35.94V43"/>
        <path fill="#E2BC91" d="M76.382 44l-2.764-1.24V36l2.764 1.243V44"/>
        <path fill="#9C703F" d="M75.228 36L94 25.267 91.778 24 73 34.727 75.228 36"/>
        <path fill="#E2BC91" d="M57 32l17-9.81V15l-17 9.81V32"/>
        <path fill="#CF7C00" d="M56.38 32l-2.76-1.237V24l2.76 1.234V32"/>
        <path fill="#FFEFDD" d="M56.37 25L74 15.3 71.627 14 54 23.704 56.37 25"/>
        <path fill="#F8D9B5" d="M58.374 24l-2.748-1.338V15l2.748 1.348V24"/>
        <path fill="#E2BC91" d="M58.62 24l2.76-1.338V15l-2.76 1.348V24"/>
        <path fill="#E2BC91" d="M58.996 16.592l2.004-1.6-2.004-1.584L57 14.992l1.996 1.6"/>
        <path fill="#F8D9B5" d="M64.378 21l-2.756-1.34V12l2.756 1.344V21"/>
        <path fill="#E2BC91" d="M63.624 21l2.752-1.34V12l-2.752 1.344V21"/>
        <path fill="#E2BC91" d="M64.001 14.59L66 12.994l-1.999-1.584L62 12.994l2.001 1.596"/>
        <path fill="#F8D9B5" d="M68.38 18l-2.76-1.338V9l2.76 1.335V18"/>
        <path fill="#E2BC91" d="M67.622 18l2.756-1.338V9l-2.756 1.335V18"/>
        <path fill="#E2BC91" d="M68.001 10.586L70 9.002l-1.999-1.588L66 9.002l2.001 1.584"/>
        <path fill="#F8D9B5" d="M73 45L52 32.416V25l21 12.578V45"/>
        <path fill="#E2BC91" d="M73.618 45l2.764-1.248V37l-2.764 1.235V45M72.654 37L51 25.262 53.342 24 75 35.735 72.654 37"/>
        <path fill="#E2BC91" d="M53.626 26l2.748-1.348V17l-2.748 1.334V26"/>
        <path fill="#F8D9B5" d="M53.38 26l-2.76-1.348V17l2.76 1.334V26"/>
        <path fill="#E2BC91" d="M53.004 19.586L51 18.002l2.004-1.588L55 18.002l-1.996 1.584M73.622 37l2.756-1.335V28l-2.756 1.339V37"/>
        <path fill="#F8D9B5" d="M73.376 37l-2.752-1.335V28l2.752 1.339V37"/>
        <path fill="#E2BC91" d="M72.999 29.592L71 28.004l1.999-1.596L75 28.004l-2.001 1.588M67.622 34l2.756-1.341V25l-2.756 1.341V34"/>
        <path fill="#F8D9B5" d="M68.376 34l-2.752-1.341V25l2.752 1.341V34"/>
        <path fill="#E2BC91" d="M67.999 27.596L66 26.004l1.999-1.6 2.001 1.6-2.001 1.592M62.622 32l2.756-1.338V23l-2.756 1.351V32"/>
        <path fill="#F8D9B5" d="M64.376 32l-2.752-1.338V23l2.752 1.351V32"/>
        <path fill="#E2BC91" d="M62.999 24.598L61 22.994l1.999-1.592L65 22.994l-2.001 1.604"/>
        <path fill="#E2BC91" d="M58.624 29l2.752-1.335V20l-2.752 1.335V29"/>
        <path fill="#F8D9B5" d="M58.378 29l-2.756-1.335V20l2.756 1.335V29"/>
        <path fill="#E2BC91" d="M59.001 21.588L57 20.004l2.001-1.592L61 20.004l-1.999 1.584"/>
        <path fill="#FFEFDD" d="M78.378 34l-2.756-1.342V25l2.756 1.332V34"/>
        <path fill="#E2BC91" d="M77.624 34l2.752-1.342V25l-2.752 1.332V34"/>
        <path fill="#E2BC91" d="M77.001 27.59L79 26.01l-1.999-1.6L75 26.01l2.001 1.58"/>
        <path fill="#FFEFDD" d="M82.376 32l-2.752-1.342V23l2.752 1.338V32"/>
        <path fill="#E2BC91" d="M82.62 32l2.756-1.342L85.38 23l-2.76 1.338V32"/>
        <path fill="#E2BC91" d="M82.997 24.592L85 23.004l-2.003-1.596L81 23.004l1.997 1.588"/>
        <path fill="#FFEFDD" d="M87.376 29l-2.752-1.34V20l2.752 1.35V29"/>
        <path fill="#E2BC91" d="M86.624 29l2.752-1.34V20l-2.752 1.35V29"/>
        <path fill="#E2BC91" d="M88 21.594l2-1.604-2-1.584-2 1.584 2 1.604M91.624 26l2.752-1.343V17l-2.752 1.336V26"/>
        <path fill="#FFEFDD" d="M91.376 26l-2.752-1.343V17l2.752 1.336V26"/>
        <path fill="#E2BC91" d="M92 19.594l-2-1.584 2-1.604 2 1.604-2 1.584"/>
        <path fill="#CF7C00" d="M63.596 61.608l.808-.46v-.756l-.808.468v.748"/>
        <path fill="#C39D73" d="M64.348 61.788L60 58.668l.655-.456L65 61.32l-.652.468"/>
        <path fill="#C39D73" d="M63 59.839V61l-2.001-1.306L59 58.385v-8.06c0-.38.43-.37.888-.255v7.73l2.001 1.312L63 59.84"/>
        <path fill="#3C2415" d="M65 52.648V59l-1.427-.67L61 57.121V50c.687.127 1.427.378 1.427.378S65 51.898 65 52.648"/>
        <path fill="#E2BC91" d="M106.5 112c-.544 2.51-5.5.653-5.5 5.108v16.598L112 140v-16.59c0-4.462-4.949-8.282-5.5-11.41"/>
        <path fill="#3C2415" d="M107 116.535c-2.21-1.25-4-.233-4 2.267v14.657l8 4.541v-14.657c0-2.513-1.794-5.551-4-6.808"/>
        <path fill="#CF7C00" d="M65 105.023V106l-4-2.572v-7.836c0-.967.406-1.548 1.021-1.592-.17.264-.257.642-.257 1.095v7.843L65 105.023"/>
        <path fill="#3C2415" d="M65 99.17V106l-4-2.08v-7.824c0-.452.109-.83.318-1.093.356-.023.768.075 1.206.304C63.9 96.008 65 97.74 65 99.17"/>
        <path fill="#E2BC91" d="M63 106.908l-4-3.064v-.752l4 3.056v.76"/>
        <path fill="#CF7C00" d="M63.596 106.616l.808-.464v-.768l-.808.472v.76"/>
        <path fill="#E2BC91" d="M64.336 106.758L60 103.702l.664-.46L65 106.286l-.664.472"/>
        <path fill="#C39D73" d="M69 90.894V92l-13-7.164V67l1.014.555v16.72L69 90.894"/>
        <path fill="#E2BC91" d="M69 73.8V91l-12-6.807V67l12 6.8"/>
        <path fill="#E2BC91" d="M58.998 70.202c-.992-.47-1.804-.093-1.804.866v12.207L60.806 85V72.789c0-.952-.812-2.1-1.808-2.587M63 72.201c-.996-.47-1.808-.09-1.808.872v12.194L64.808 87V74.796c0-.954-.812-2.108-1.808-2.595M66.998 74.204c-1-.474-1.804-.096-1.804.859V87.27L68.806 89V76.793c0-.948-.812-2.112-1.808-2.589"/>
        <path fill="#CF7C00" d="M64.634 86.531V87l-3.268-1.538V76l.472.216v9l2.796 1.315"/>
        <path fill="#3C2415" d="M64.398 77.41V87l-2.796-1.402V76l2.796 1.41"/>
        <path fill="#FF9800" d="M67.67 74v4.67l.66.33v-4.677L67.67 74"/>
        <path fill="#CF7C00" d="M67.022 75.194l1.3-.76.656.376-1.296.756-.66-.372"/>
        <path fill="#C39D73" d="M67.352 74.615V79l1.296-.625V74l-1.296.615"/>
        <path fill="#FF9800" d="M54.668 66l.004 4.667.66.333-.004-4.67-.66-.33"/>
        <path fill="#CF7C00" d="M54.024 67.19l1.296-.76.656.368-1.292.772-.66-.38"/>
        <path fill="#C39D73" d="M54.354 66.627L54.358 71l1.288-.624V66l-1.292.627"/>
        <path fill="#FF9800" d="M67 74l-13-7.412V66l13 7.419V74"/>
        <path fill="#CF7C00" d="M67.344 75.74l1.312-.728v-.752l-1.312.732v.748"/>
        <path fill="#AD8355" d="M67.896 74L54 66.576 55.104 66 69 73.43l-1.104.57"/>
        <path fill="#E2BC91" d="M67 92l-13-7.366V84l13 7.366V92"/>
        <path fill="#CF7C00" d="M67.596 93.608l.808-.46v-.756l-.808.46v.756"/>
        <path fill="#AD8355" d="M68.345 92L56 84.398l.652-.398L69 91.602l-.655.398"/>
        <path fill="#E2BC91" d="M116.014 116.072v-12.47l12.055 7.118v12.473l-12.055-7.121zM129 148.666v-38.5l-16.5-9.748v-7.874l-.932-.544-.568.328.568 8.644 2.223 1.31.363 38.35.572-.333v-37.46l.36.21v13.573l2.893 1.715.36 24.774.574-.33v-23.903l9.156 5.412.363 24.71.568-.334zM99.144 106.865L87.451 99.87V87.621l11.693 6.999v12.245zM104 88.718l-.898-.537-.56.331.56 7.39L86.55 86l-.55.331.901 38.328.55-.329v-23.387l8.538 5.1.349 24.329.55-.325v-23.453l2.605 2.213.55-.331V95.153l.342.206.354 37.641.547-.328V95.899l2.161 1.955.553-.331v-8.805z"/>
        <path fill="#F8D9B5" d="M115.332 117.371v-12.105l11.763 6.908v12.105l-11.763-6.908zM128 149v-37.357l-16.092-9.457v-7.652L111 94v8.723l2.164 1.268v36.361l.912.528v-36.351l.351.2v13.18l2.822 1.651v23.204l.908.521v-23.19l8.938 5.252v23.125L128 149zM98.99 108.003l-12.06-7.042V88.63l12.06 7.039v12.335zM104 97.53v-7.793l-.933-.54v7.772L86 87v38.052l.93.547v-23.55l8.809 5.14v23.63l.926.534v-23.617l3.255 1.9V96.218l.357.204v37.03l.93.548V96.966L104 98.605V97.53z"/>
        <path fill="#CF7C00" d="M94 123.32v.68l-5-3.07v-8.4c0-.973.453-1.325.97-1.53-.248.244-.407.605-.407 1.185v8.4L94 123.32"/>
        <path fill="#3C2415" d="M95 115.45V123l-5-2.677v-8.226c0-.567.18-.921.458-1.16.572-.194 1.224-.258 1.551-.6l.18-.337.061.249h.007c.479 1.443 2.743 3.187 2.743 5.2"/>
        <path fill="#AC804F" d="M125 122l-5-3.22V115l5 3.227V122M95 104l-5-3.232V97l5 3.215V104"/>
    </g>
</svg>
