<svg xmlns="http://www.w3.org/2000/svg" width="491" height="229" viewBox="0 0 491 229">
    <g fill="none" fill-rule="evenodd">
        <path fill="#DAD6C4" d="M299.383 124a.936.936 0 0 1-.814-.479.961.961 0 0 1 .345-1.303l8.675-5.09a.936.936 0 0 1 1.285.348.963.963 0 0 1-.346 1.306l-8.675 5.09-.47.128zm-16.424 9.333a.937.937 0 0 1-.814-.478.963.963 0 0 1 .345-1.303l8.678-5.09a.935.935 0 0 1 1.282.348.965.965 0 0 1-.343 1.306l-8.677 5.09-.471.127zm-17.594 9.334a.943.943 0 0 1-.817-.479.963.963 0 0 1 .346-1.303l8.677-5.09a.936.936 0 0 1 1.285.348.966.966 0 0 1-.346 1.306l-8.677 5.09-.468.128zM248.94 152a.937.937 0 0 1-.815-.478.962.962 0 0 1 .344-1.304l8.677-5.09a.938.938 0 0 1 1.285.349.965.965 0 0 1-.345 1.305l-8.678 5.09-.468.128zM239.383 84a.936.936 0 0 1-.814-.479.961.961 0 0 1 .345-1.303l8.675-5.09a.936.936 0 0 1 1.285.348.963.963 0 0 1-.346 1.306l-8.675 5.09-.47.128zm-16.424 9.333a.937.937 0 0 1-.814-.478.963.963 0 0 1 .345-1.303l8.678-5.09a.935.935 0 0 1 1.282.348.965.965 0 0 1-.343 1.306l-8.677 5.09-.471.127zm-17.594 9.334a.943.943 0 0 1-.817-.479.963.963 0 0 1 .346-1.303l8.677-5.09a.936.936 0 0 1 1.285.348.966.966 0 0 1-.346 1.306l-8.677 5.09-.468.128zM188.94 112a.937.937 0 0 1-.815-.478.962.962 0 0 1 .344-1.304l8.677-5.09a.938.938 0 0 1 1.285.349.965.965 0 0 1-.345 1.305l-8.678 5.09-.468.128zM230.383 163a.936.936 0 0 1-.814-.479.961.961 0 0 1 .345-1.303l8.675-5.09a.936.936 0 0 1 1.285.348.963.963 0 0 1-.346 1.306l-8.675 5.09-.47.128zm-16.424 9.333a.937.937 0 0 1-.814-.478.963.963 0 0 1 .345-1.303l8.678-5.09a.935.935 0 0 1 1.282.348.965.965 0 0 1-.343 1.306l-8.677 5.09-.471.127zm-17.594 9.334a.943.943 0 0 1-.817-.479.963.963 0 0 1 .346-1.303l8.677-5.09a.936.936 0 0 1 1.285.348.966.966 0 0 1-.346 1.306l-8.677 5.09-.468.128zM179.94 191a.937.937 0 0 1-.815-.478.962.962 0 0 1 .344-1.304l8.677-5.09a.938.938 0 0 1 1.285.349.965.965 0 0 1-.345 1.305l-8.678 5.09-.468.128zM161.383 201a.936.936 0 0 1-.814-.479.961.961 0 0 1 .345-1.303l8.675-5.09a.936.936 0 0 1 1.285.348.963.963 0 0 1-.346 1.306l-8.675 5.09-.47.128zm-16.424 9.333a.937.937 0 0 1-.814-.478.963.963 0 0 1 .345-1.303l8.678-5.09a.935.935 0 0 1 1.282.348.965.965 0 0 1-.343 1.306l-8.677 5.09-.471.127zm-17.594 9.334a.943.943 0 0 1-.817-.479.963.963 0 0 1 .346-1.303l8.677-5.09a.936.936 0 0 1 1.285.348.966.966 0 0 1-.346 1.306l-8.677 5.09-.468.128zM110.94 229a.937.937 0 0 1-.815-.478.962.962 0 0 1 .344-1.304l8.677-5.09a.938.938 0 0 1 1.285.349.965.965 0 0 1-.345 1.305l-8.678 5.09-.468.128z"/>
        <path fill="#000" fill-opacity=".147" d="M421.667 164.05l-.474-.128-8.719-5.127a.971.971 0 0 1-.347-1.315.939.939 0 0 1 1.292-.351l8.718 5.127c.454.266.61.853.348 1.312a.941.941 0 0 1-.818.482zm16.508 9.4l-.473-.128-8.722-5.127a.973.973 0 0 1-.345-1.315.936.936 0 0 1 1.289-.351l8.722 5.127a.97.97 0 0 1 .347 1.312.941.941 0 0 1-.818.482zm17.684 10.575l-.47-.128-8.722-5.128a.97.97 0 0 1-.347-1.312.936.936 0 0 1 1.291-.351l8.722 5.127a.97.97 0 0 1 .347 1.313.95.95 0 0 1-.82.479zm17.688 9.4l-.47-.128-8.723-5.129a.97.97 0 0 1-.347-1.313.94.94 0 0 1 1.291-.351l8.722 5.129a.97.97 0 0 1 .345 1.312.944.944 0 0 1-.818.48zM490.055 204l-.473-.128-8.72-5.128a.969.969 0 0 1-.347-1.313.937.937 0 0 1 1.291-.352l8.72 5.129c.453.264.609.854.347 1.313a.944.944 0 0 1-.818.479zM181.667 108.05l-.474-.128-8.719-5.127a.971.971 0 0 1-.347-1.315.939.939 0 0 1 1.292-.351l8.718 5.127c.454.266.61.853.348 1.312a.941.941 0 0 1-.818.482zm16.508 9.4l-.473-.128-8.722-5.127a.973.973 0 0 1-.345-1.315.936.936 0 0 1 1.289-.351l8.722 5.127a.97.97 0 0 1 .347 1.312.941.941 0 0 1-.818.482zm17.684 10.575l-.47-.128-8.722-5.128a.97.97 0 0 1-.347-1.312.936.936 0 0 1 1.291-.351l8.722 5.127a.97.97 0 0 1 .347 1.313.95.95 0 0 1-.82.479zm17.688 9.4l-.47-.128-8.723-5.129a.97.97 0 0 1-.347-1.313.94.94 0 0 1 1.291-.351l8.722 5.129a.97.97 0 0 1 .345 1.312.944.944 0 0 1-.818.48zM250.055 148l-.473-.128-8.72-5.128a.969.969 0 0 1-.347-1.313.937.937 0 0 1 1.291-.352l8.72 5.129c.453.264.609.854.347 1.313a.944.944 0 0 1-.818.479zM95.667 57.05l-.474-.128-8.719-5.127a.971.971 0 0 1-.347-1.315.939.939 0 0 1 1.292-.351l8.718 5.127c.454.266.61.853.348 1.312a.941.941 0 0 1-.818.482zm16.508 9.4l-.473-.128-8.722-5.127a.973.973 0 0 1-.345-1.315.936.936 0 0 1 1.289-.351l8.722 5.127a.97.97 0 0 1 .347 1.312.941.941 0 0 1-.818.482zm17.684 10.575l-.47-.128-8.722-5.128a.97.97 0 0 1-.347-1.312.936.936 0 0 1 1.291-.351l8.722 5.127a.97.97 0 0 1 .347 1.313.95.95 0 0 1-.82.479zm17.688 9.4l-.47-.128-8.723-5.129a.97.97 0 0 1-.347-1.313.94.94 0 0 1 1.291-.351l8.722 5.129a.97.97 0 0 1 .345 1.312.944.944 0 0 1-.818.48zM164.055 97l-.473-.128-8.72-5.128a.969.969 0 0 1-.347-1.313.937.937 0 0 1 1.291-.352l8.72 5.129c.453.264.609.854.347 1.313a.944.944 0 0 1-.818.479zM9.667 7.05l-.474-.128L.474 1.795A.971.971 0 0 1 .127.48.939.939 0 0 1 1.419.129l8.718 5.127c.454.266.61.853.348 1.312a.941.941 0 0 1-.818.482zm16.508 9.4l-.473-.128-8.722-5.127a.973.973 0 0 1-.345-1.315.936.936 0 0 1 1.289-.351l8.722 5.127a.97.97 0 0 1 .347 1.312.941.941 0 0 1-.818.482zM43.86 27.025l-.47-.128-8.722-5.128a.97.97 0 0 1-.347-1.312.936.936 0 0 1 1.291-.351l8.722 5.127a.97.97 0 0 1 .347 1.313.95.95 0 0 1-.82.479zm17.688 9.4l-.47-.128-8.723-5.129a.97.97 0 0 1-.347-1.313.94.94 0 0 1 1.291-.351l8.722 5.129a.97.97 0 0 1 .345 1.312.944.944 0 0 1-.818.48zM78.055 47l-.473-.128-8.72-5.128a.969.969 0 0 1-.347-1.313.937.937 0 0 1 1.291-.352l8.72 5.129c.453.264.609.854.347 1.313a.944.944 0 0 1-.818.479z"/>
        <path fill="#FA5932" d="M401.501 154c-2.183 0-4.248-.475-5.819-1.332-1.729-.945-2.682-2.258-2.682-3.69 0-1.433.953-2.746 2.682-3.691 3.14-1.716 8.499-1.716 11.636 0 1.729.945 2.682 2.258 2.682 3.69 0 1.433-.953 2.746-2.682 3.691-1.569.857-3.633 1.332-5.817 1.332z"/>
    </g>
</svg>
