<svg xmlns="http://www.w3.org/2000/svg" xmlns:xlink="http://www.w3.org/1999/xlink" width="1265" height="193" viewBox="0 0 1265 193">
    <defs>
        <path id="a" d="M32.035 56.215L.295 38.091 65.842.627l31.742 18.125z"/>
    </defs>
    <g fill="none" fill-rule="evenodd">
        <path fill="#000" fill-opacity=".147" d="M1124.667 98.05l-.474-.128-8.719-5.127a.971.971 0 0 1-.347-1.315.939.939 0 0 1 1.292-.351l8.718 5.127c.454.266.61.853.348 1.312a.941.941 0 0 1-.818.482zm16.508 9.4l-.473-.128-8.722-5.127a.973.973 0 0 1-.345-1.315.936.936 0 0 1 1.289-.351l8.722 5.127a.97.97 0 0 1 .347 1.312.941.941 0 0 1-.818.482zm17.684 10.575l-.47-.128-8.722-5.128a.97.97 0 0 1-.347-1.312.936.936 0 0 1 1.291-.351l8.722 5.127a.97.97 0 0 1 .347 1.313.95.95 0 0 1-.82.479zm17.688 9.4l-.47-.128-8.723-5.129a.97.97 0 0 1-.347-1.313.94.94 0 0 1 1.291-.351l8.722 5.129a.97.97 0 0 1 .345 1.312.944.944 0 0 1-.818.48zM1193.055 138l-.473-.128-8.72-5.128a.969.969 0 0 1-.347-1.313.937.937 0 0 1 1.291-.352l8.72 5.129c.453.264.609.854.347 1.313a.944.944 0 0 1-.818.479zM964.667 128.05l-.474-.128-8.719-5.127a.971.971 0 0 1-.347-1.315.939.939 0 0 1 1.292-.351l8.718 5.127c.454.266.61.853.348 1.312a.941.941 0 0 1-.818.482zm16.508 9.4l-.473-.128-8.722-5.127a.973.973 0 0 1-.345-1.315.936.936 0 0 1 1.289-.351l8.722 5.127a.97.97 0 0 1 .347 1.312.941.941 0 0 1-.818.482zm17.684 10.575l-.47-.128-8.722-5.128a.97.97 0 0 1-.347-1.312.936.936 0 0 1 1.291-.351l8.722 5.127a.97.97 0 0 1 .347 1.313.95.95 0 0 1-.82.479zm17.688 9.4l-.47-.128-8.723-5.129a.97.97 0 0 1-.347-1.313.94.94 0 0 1 1.291-.351l8.722 5.129a.97.97 0 0 1 .345 1.312.944.944 0 0 1-.818.48zM1033.055 168l-.473-.128-8.72-5.128a.969.969 0 0 1-.347-1.313.937.937 0 0 1 1.291-.352l8.72 5.129c.453.264.609.854.347 1.313a.944.944 0 0 1-.818.479zM879.667 78.05l-.474-.128-8.719-5.127a.971.971 0 0 1-.347-1.315.939.939 0 0 1 1.292-.351l8.718 5.127c.454.266.61.853.348 1.312a.941.941 0 0 1-.818.482zm16.508 9.4l-.473-.128-8.722-5.127a.973.973 0 0 1-.345-1.315.936.936 0 0 1 1.289-.351l8.722 5.127a.97.97 0 0 1 .347 1.312.941.941 0 0 1-.818.482zm17.684 10.575l-.47-.128-8.722-5.128a.97.97 0 0 1-.347-1.312.936.936 0 0 1 1.291-.351l8.722 5.127a.97.97 0 0 1 .347 1.313.95.95 0 0 1-.82.479zm17.688 9.4l-.47-.128-8.723-5.129a.97.97 0 0 1-.347-1.313.94.94 0 0 1 1.291-.351l8.722 5.129a.97.97 0 0 1 .345 1.312.944.944 0 0 1-.818.48zM948.055 118l-.473-.128-8.72-5.128a.969.969 0 0 1-.347-1.313.937.937 0 0 1 1.291-.352l8.72 5.129c.453.264.609.854.347 1.313a.944.944 0 0 1-.818.479z"/>
        <path fill="#DAD6C4" d="M1128.383 120a.936.936 0 0 1-.814-.479.961.961 0 0 1 .345-1.303l8.675-5.09a.936.936 0 0 1 1.285.348.963.963 0 0 1-.346 1.306l-8.675 5.09-.47.128zm-16.424 9.333a.937.937 0 0 1-.814-.478.963.963 0 0 1 .345-1.303l8.678-5.09a.935.935 0 0 1 1.282.348.965.965 0 0 1-.343 1.306l-8.677 5.09-.471.127zm-17.594 9.334a.943.943 0 0 1-.817-.479.963.963 0 0 1 .346-1.303l8.677-5.09a.936.936 0 0 1 1.285.348.966.966 0 0 1-.346 1.306l-8.677 5.09-.468.128zM1077.94 148a.937.937 0 0 1-.815-.478.962.962 0 0 1 .344-1.304l8.677-5.09a.938.938 0 0 1 1.285.349.965.965 0 0 1-.345 1.305l-8.678 5.09-.468.128zM1060.383 158a.936.936 0 0 1-.814-.479.961.961 0 0 1 .345-1.303l8.675-5.09a.936.936 0 0 1 1.285.348.963.963 0 0 1-.346 1.306l-8.675 5.09-.47.128zm-16.424 9.333a.937.937 0 0 1-.814-.478.963.963 0 0 1 .345-1.303l8.678-5.09a.935.935 0 0 1 1.282.348.965.965 0 0 1-.343 1.306l-8.677 5.09-.471.127zm-17.594 9.334a.943.943 0 0 1-.817-.479.963.963 0 0 1 .346-1.303l8.677-5.09a.936.936 0 0 1 1.285.348.966.966 0 0 1-.346 1.306l-8.677 5.09-.468.128zM1009.94 186a.937.937 0 0 1-.815-.478.962.962 0 0 1 .344-1.304l8.677-5.09a.938.938 0 0 1 1.285.349.965.965 0 0 1-.345 1.305l-8.678 5.09-.468.128zM85.383 57a.936.936 0 0 1-.814-.479.961.961 0 0 1 .345-1.303l8.675-5.09a.936.936 0 0 1 1.285.348.963.963 0 0 1-.346 1.306l-8.675 5.09-.47.128zm-16.424 9.333a.937.937 0 0 1-.814-.478.963.963 0 0 1 .345-1.303l8.678-5.09a.935.935 0 0 1 1.282.348.965.965 0 0 1-.343 1.306l-8.677 5.09-.471.127zm-17.594 9.334a.943.943 0 0 1-.817-.479.963.963 0 0 1 .346-1.303l8.677-5.09a.936.936 0 0 1 1.285.348.966.966 0 0 1-.346 1.306l-8.677 5.09-.468.128zM34.94 85a.937.937 0 0 1-.815-.478.962.962 0 0 1 .344-1.304l8.677-5.09a.938.938 0 0 1 1.285.349.965.965 0 0 1-.345 1.305l-8.678 5.09-.468.128zM17.383 95a.936.936 0 0 1-.814-.479.961.961 0 0 1 .345-1.303l8.675-5.09a.936.936 0 0 1 1.285.348.963.963 0 0 1-.346 1.306l-8.675 5.09-.47.128zM.959 104.333a.937.937 0 0 1-.814-.478.963.963 0 0 1 .345-1.303l8.678-5.09a.935.935 0 0 1 1.282.348.965.965 0 0 1-.343 1.306l-8.677 5.09-.471.127zm-17.594 9.334a.943.943 0 0 1-.817-.479.963.963 0 0 1 .346-1.303l8.677-5.09a.936.936 0 0 1 1.285.348.966.966 0 0 1-.346 1.306l-8.677 5.09-.468.128zM-33.06 123a.937.937 0 0 1-.815-.478.962.962 0 0 1 .344-1.304l8.677-5.09a.938.938 0 0 1 1.285.349.965.965 0 0 1-.345 1.305l-8.678 5.09-.468.128z"/>
        <path fill="#000" fill-opacity=".147" d="M1039.667 48.05l-.474-.128-8.719-5.127a.971.971 0 0 1-.347-1.315.939.939 0 0 1 1.292-.351l8.718 5.127c.454.266.61.853.348 1.312a.941.941 0 0 1-.818.482zm16.508 9.4l-.473-.128-8.722-5.127a.973.973 0 0 1-.345-1.315.936.936 0 0 1 1.289-.351l8.722 5.127a.97.97 0 0 1 .347 1.312.941.941 0 0 1-.818.482zm17.684 10.575l-.47-.128-8.722-5.128a.97.97 0 0 1-.347-1.312.936.936 0 0 1 1.291-.351l8.722 5.127a.97.97 0 0 1 .347 1.313.95.95 0 0 1-.82.479zm17.688 9.4l-.47-.128-8.723-5.129a.97.97 0 0 1-.347-1.313.94.94 0 0 1 1.291-.351l8.722 5.129a.97.97 0 0 1 .345 1.312.944.944 0 0 1-.818.48zM1108.055 88l-.473-.128-8.72-5.128a.969.969 0 0 1-.347-1.313.937.937 0 0 1 1.291-.352l8.72 5.129c.453.264.609.854.347 1.313a.944.944 0 0 1-.818.479z"/>
        <path fill="#FCCDA5" d="M1182.736 24.185s1.099 5.125 0 6.68c-1.094 1.554-2.736 3.88-2.736 3.88l5.44 8.71 7.295 7.545h7.7l2.565-7.015-.795-9.863-4.544-9.344-8.625-3.778-4.93.732-1.37 2.453"/>
        <path fill="#F0B380" d="M1182 24.052s.68 1.23 2.304.97c1.962 7.722 11.696 6.957 11.696 6.957L1187.553 23 1182 24.052"/>
        <path fill="#F0B380" d="M1194.701 28c2.132 4.523-.282 8-.282 8s.448-3.505.282-8"/>
        <path fill="#FCCDA5" d="M1182.527 79.09c-1.582 3.66-4.508 6.612-5.193 7.98-1.06 3.15.744 5.672.744 5.672L1191.074 94l10.293-.558L1212 81.872s.12-7.594-2.273-7.385c-2.39.225-5.227-1.487-5.227-1.487s-20.596 1.05-21.972 6.09"/>
        <path fill="#000" d="M1191.052 165l-1.052 1.579s15.418 13.14 19.735 11.231c4.125-1.838 1.891-5.234-.971-7.961L1191.052 165"/>
        <path fill="#FCCDA5" d="M1208 170.022c-.263-.296-7.388-5.16-7.425-7.826 0-3.417-6.11-1.826-6.11-1.826s-3.978 4.492-3.41 5.014c15.293 11.368 16.945 4.638 16.945 4.638"/>
        <path fill="#000" d="M1178.712 178.396s-2.642 5.1-2.711 9.723c-.065 4.625 4.5 6.047 6.349 3.906 2.032-2.393 1.552-9.242 2.31-11.456.764-2.207 0-5.569 0-5.569l-5.948 3.396"/>
        <path fill="#FCCDA5" d="M1184 174.992l-.676-5.331s-5.994-1.584-5.877.153c.917 2.665.444 8.59.444 8.59s-2.785 7.037 1.494 7.584c3.39.431 4.615-10.996 4.615-10.996"/>
        <path fill="#FA5932" d="M1176 159.581c.883 5.412.788 10.419.788 10.419s72.53-7.785 88.212-74.208c-.852-3.303-2.221-26.792-2.221-26.792s-86.418 88.954-86.779 90.581"/>
        <path fill="#FFC900" d="M1175.187 151.512c-.698 4.677.782 10.488.782 10.488s73.147-10.97 89.031-81.258c-.843-3.316-2.74-19.742-2.74-19.742s-86.716 88.868-87.073 90.512"/>
        <path fill="#FA5932" d="M1175 144.109V152s78.59-13.452 89-86.487c-.846-3.274-1.748-20.513-1.748-20.513L1175 144.109"/>
        <path fill="#FFC900" d="M1262.252 26s.263 13.3 1.748 19.49c-15.602 95.498-89 100.51-89 100.51l1.753-8.717L1262.252 26"/>
        <path fill="#FA5932" d="M1177.973 85.696c1.814 1.514 12.235 8.8 24.898.744 8.83-5.408 5-13.81 5-13.81s14.258-11.528 22.487-24.735c8.226-13.21 15.011-32.594 21.702-36.725 4.114-2.5 6.384-.482 9.083 1.307 3.122.581 1.364 6.168 1.364 13.526 0 19.19-21.5 111.33-85.599 109.982.161-1.325.113-1.664.161-3.292.041-12.032-2.61-15.414-1.916-27.61-.558-2.617-3.457-12.814 2.82-19.387"/>
        <path fill="#FCCDA5" d="M1247 10.63s3.997-1.836 7.908-1.61c3.905.221 7.378 2.895 7.073 3.655-.312.76-6.947-.555-6.979.827-.042 1.389 4.524 3.31 4.068 4.297-.454.985-9.544-1.936-10.4-2.633-.854-.69-1.67-4.535-1.67-4.535"/>
        <path fill="#CE4422" d="M1237.085 13.59s5.215-2.626 9.39-2.59c4.893 4.501 1.653 13.212-1.153 12.996-2.807-.213-4.621-3.73-7.7-3.927-.937-1.976-.537-6.48-.537-6.48"/>
        <path fill="#FA5932" d="M1198.645 26.976c2.684-1.165 9.295-1.301 9.295-1.301s11.959-4.631 16.273-6.34c4.859-3.115 12.467-5.07 13.422-5.29 1.791-.543 4.012 3.915.526 6.52-2.861 2.068-7.821 5.327-10.99 5.87-5.179 4.127-19.442 9.889-19.442 9.889L1202.444 42 1196 30.235s-.036-2.09 2.645-3.259"/>
        <path fill="#FA5932" d="M1174.117 40.841l5.527-6.328s12.646 13.945 18.525 13.38c3.811-8.27-4.218-19.893-4.218-19.893s2.463.265 4.978 0c5.873 12.887 14.302 17.654 12.92 26.617-.346 3.09-4.422 4.901-4.422 4.901l-.21 13.73s-4.078 5.455-14.717 7.418c-3.593.927-8.431-.136-9.331-2.448-2.142-6.654-8.778-14.08-9.882-25.28-.97-1.711.83-12.097.83-12.097"/>
        <path fill="#000" d="M1182 4a4 4 0 1 1-8 0 4 4 0 1 1 8 0"/>
        <path fill="#FCCDA5" d="M1199.27 6.666c2.543 2.734 2.543 7.267 2.336 9.103.62.901.422 11.84.002 13.42-.422 1.59-1.458 2.664-3.19 2.81-6.301.075-9.638-3.028-10.912-4.139-1.277-1.116-2.213-4.214-2.213-4.214s-1.794.33-2.525-.498c-.725-.828-2.768-3.168-2.768-3.168v-7.124l4.259-6.19L1193.505 4s5.09 2.09 5.765 2.666"/>
        <path fill="#000" d="M1180.994 18.308c1.616-1.105 2.6 2.92 5.131 2.845 2.532-2.845 2.677-6.798 3.732-8.181 1.053-1.386 8.858-.068 9.14-5.344.281-4.018-15.964-12.134-21.732-.968-2.882 4.786-2.671 8.876-1.263 12.902 1.405 3.537 6.184 4.438 6.184 4.438s-2.81-4.578-1.192-5.692"/>
        <path fill="#A62626" d="M1127.176 43.011c-12.708.708-5.127 23.337-2.879 19.565 2.525-4.27 8.703-11.954 8.703-11.954l-.937-4.976s-3.555-2.845-4.887-2.635"/>
        <path fill="#FA5932" d="M1122.501 10.409C1108.068 2.168 1101 8.008 1101 8.008v.002l21.478 32.937v.023l.023.01.026.02v-.025l21.473-8.42s-7.068-13.908-21.499-22.146"/>
        <path fill="#292929" d="M1122.5 21.637c-6.186-3.728-11.01-4.717-14.5-4.632l6.052 9.808c2.462.697 5.277 1.888 8.448 3.8 3.173 1.917 5.986 4.115 8.446 6.387l6.054-2.503c-3.49-4.3-8.316-9.13-14.5-12.86"/>
        <path fill="#FCCDA5" d="M1128.978 41.712l-2.735-.271s-.41-1.625-1.365-2.297c.049-.885-.481-2.375-.614-3.866-.14-1.493-.752-4.467-3.142-4.269-2.398.2-3.352 1.899-3.076 6.977.313 5.762 5.944 7.792 5.944 7.792s5.326 1.825 7.238 1.014c1.915-.814-.337-2.842-.337-2.842l-1.913-2.238"/>
        <path fill="#CE4422" d="M1136.93 41s-10.438.461-9.966.461c5.167 6.499.863 11.296-2.964 19.539 5.746-6.965 10.164-11.262 11.945-11.675 8.509-2.398.985-8.325.985-8.325M1183 49.365c0 3.629-2.895.084-5.612.084S1173 51.755 1173 48.124c0-3.63.2-7.124 2.92-7.124 2.72 0 6.909 1.28 7.08 8.365"/>
        <path fill="#FA5932" d="M1181.383 44.75c-3.05-6.23-13.46-2.933-15.124-2.431-2.132-.1-4.682-.237-9.785 0-5.724.367-10.407-1.023-18.528-.453-.108.658 3.128 5.31-.946 8.35 4.517 1.236 9.906 2.182 14.896 1.66 15.715 0 21.336 3.711 22.948 3.832 4.597 3.22 11.257.727 6.54-10.958"/>
        <path fill="#CE4422" d="M1184 62c3.446 10.207 12 4.3 12 4.3s-7.667 2.662-12-4.3M1170 45c7.743.925 13 10 13 10s-6.702-7.947-13-10"/>
        <path fill="#FFC900" d="M1234.501 170c-2.183 0-4.248-.475-5.819-1.332-1.729-.945-2.682-2.258-2.682-3.69 0-1.433.953-2.746 2.682-3.691 3.14-1.716 8.499-1.716 11.636 0 1.729.945 2.682 2.258 2.682 3.69 0 1.433-.953 2.746-2.682 3.691-1.569.857-3.633 1.332-5.817 1.332z"/>
        <path fill="#000" fill-opacity=".147" d="M374.667 146.05l-.474-.128-8.719-5.127a.971.971 0 0 1-.347-1.315.939.939 0 0 1 1.292-.351l8.718 5.127c.454.266.61.853.348 1.312a.941.941 0 0 1-.818.482zm16.508 9.4l-.473-.128-8.722-5.127a.973.973 0 0 1-.345-1.315.936.936 0 0 1 1.289-.351l8.722 5.127a.97.97 0 0 1 .347 1.312.941.941 0 0 1-.818.482zm17.684 10.575l-.47-.128-8.722-5.128a.97.97 0 0 1-.347-1.312.936.936 0 0 1 1.291-.351l8.722 5.127a.97.97 0 0 1 .347 1.313.95.95 0 0 1-.82.479zm17.688 9.4l-.47-.128-8.723-5.129a.97.97 0 0 1-.347-1.313.94.94 0 0 1 1.291-.351l8.722 5.129a.97.97 0 0 1 .345 1.312.944.944 0 0 1-.818.48zM443.055 186l-.473-.128-8.72-5.128a.969.969 0 0 1-.347-1.313.937.937 0 0 1 1.291-.352l8.72 5.129c.453.264.609.854.347 1.313a.944.944 0 0 1-.818.479z"/>
        <path fill="#FFC900" d="M355.501 137c-2.183 0-4.248-.475-5.819-1.332-1.729-.945-2.682-2.258-2.682-3.69 0-1.433.953-2.746 2.682-3.691 3.14-1.716 8.499-1.716 11.636 0 1.729.945 2.682 2.258 2.682 3.69 0 1.433-.953 2.746-2.682 3.691-1.569.857-3.633 1.332-5.817 1.332z"/>
        <g>
            <g transform="translate(228 111)">
                <mask id="b" fill="#fff">
                    <use xlink:href="#a"/>
                </mask>
                <path fill="#952828" d="M.294 56.215h97.29V.627H.295z" mask="url(#b)"/>
            </g>
            <path fill="#FA5932" d="M261.347 164c-23.054-6.157-32.103-20.18-32.347-20.478L292.656 107s5.772 6.847 15.714 12.553c9.982 5.73 15.657 5.484 15.714 5.48l.916 2.443c-.249.015-63.653 36.524-63.653 36.524"/>
            <path fill="#CD310C" d="M244.501 158.112c-10.388-6.16-16.258-13.38-16.501-13.684l.91-1.426-.456.712.452-.714c.058.069 5.733 7.023 15.595 12.87 9.906 5.875 15.535 5.624 15.592 5.62l.907 2.505c-.245.014-6.114.275-16.499-5.883"/>
            <path fill="#FFB537" d="M241.415 150a7.41 7.41 0 0 1-6.413-3.68c-2.055-3.53-.85-8.048 2.694-10.095l59.18-34.228c3.539-2.045 8.073-.843 10.12 2.682a7.367 7.367 0 0 1-2.687 10.093l-59.181 34.23a7.417 7.417 0 0 1-3.713.998"/>
            <path fill="#EC8713" d="M241.722 150a7.36 7.36 0 0 1-6.384-3.709c-2.045-3.556 5.716 2.824 9.24.762l60.7-34.955c3.521-2.063.942-9.779 1.723-7.766 2.047 3.556.848 8.109-2.675 10.17l-58.91 34.492a7.314 7.314 0 0 1-3.694 1.006"/>
            <path fill="#FFF" d="M279.87 122.5c0-.177-.165-.321-.37-.321-.202 0-.37.143-.37.321 0 .178.168.322.37.322.206 0 .37-.145.37-.322M282.5 121.17c-.171 0-.311.147-.311.331 0 .182.14.329.311.329a.32.32 0 0 0 .311-.329c0-.184-.138-.331-.311-.331M284.5 120.403c-.225 0-.408.043-.408.096 0 .055.183.098.408.098.225 0 .408-.043.408-.098 0-.053-.183-.096-.408-.096M287.5 119.305a.195.195 0 0 0-.195.194.194.194 0 1 0 .195-.194M290.499 117.17c-.169 0-.31.147-.31.331 0 .182.141.329.31.329a.32.32 0 0 0 .312-.329.32.32 0 0 0-.312-.331M292.501 116.189c-.258 0-.468.138-.468.311 0 .171.21.311.468.311s.465-.14.465-.311c0-.173-.207-.311-.465-.311M299.502 111.305c-.156 0-.282.087-.282.195 0 .107.126.194.282.194.151 0 .277-.087.277-.194 0-.108-.126-.195-.277-.195M303.501 111.403l-.157.097.157.097.154-.097-.154-.097M302.501 111.305a.193.193 0 0 0-.195.195c0 .107.085.194.195.194a.193.193 0 0 0 .193-.194.194.194 0 0 0-.193-.195M274.5 127.209c-.203 0-.368.13-.368.29 0 .162.165.293.368.293.204 0 .369-.132.369-.293 0-.16-.165-.29-.37-.29"/>
            <path fill="#FFF" d="M306.676 104.686a7.359 7.359 0 0 0-10.075-2.687l-58.923 34.289a7.402 7.402 0 0 0-3.669 6.776c4.025 3.09 9.017-2.55 9.624-1.499.63 1.09 1.378.449 2.246-.557l-.012.128c0 .366.295.66.658.66a.658.658 0 0 0 .656-.66.658.658 0 0 0-.656-.658l-.238.044c.928-1.114 1.987-2.396 3.177-2.396 1.262 0 8.009-2.293 12.696-4.932.46-.258.905-.528 1.33-.803a.69.69 0 0 0 .556.288.687.687 0 0 0 .58-1.055c1.612-1.143 3.1-2.421 4.765-3.817a.855.855 0 0 0-.084.369c0 .395.268.716.597.716.328 0 .596-.32.596-.716 0-.395-.268-.716-.596-.716l-.108.012c1.757-1.466 3.728-3.06 6.258-4.774 6.348-4.3 9.35-2.703 11.854-6.018 1.834-2.429 3.253-2.287 5.527-2.89.003.423.27.766.6.766.332 0 .598-.346.598-.774l-.065-.344c.541-.193 1.128-.44 1.771-.774l.087-.043c.06.221.27.386.525.386.3 0 .54-.23.54-.516l-.124-.328c2.224-1.035 5.088-2.111 7.115-3.347.032.163.214.292.442.292.252 0 .458-.154.458-.344 0-.153-.135-.277-.318-.323 1.592-1.095 2.443-2.32 1.612-3.755"/>
            <path fill="#FFF" d="M272.5 127.322c-.13 0-.233.08-.233.177 0 .1.103.179.233.179.129 0 .234-.079.234-.179 0-.097-.105-.177-.234-.177M276.5 124.208a.292.292 0 0 0 0 .584.291.291 0 0 0 0-.584M260.498 135.306a.193.193 0 0 0-.193.194.195.195 0 0 0 .389 0 .195.195 0 0 0-.196-.194M256.004 137a1.001 1.001 0 1 0-.005 2.002 1.001 1.001 0 0 0 .005-2.002M252.501 138.267a.235.235 0 0 0-.235.233.234.234 0 1 0 .235-.233M248.501 140.228a.271.271 0 0 0-.273.272.271.271 0 1 0 .543 0 .271.271 0 0 0-.27-.272M241.501 144.023a.477.477 0 1 0 0 .954.477.477 0 0 0 0-.954M244.499 144.209a.29.29 0 0 0 0 .582c.16 0 .293-.13.293-.291a.292.292 0 0 0-.293-.291M250.5 140.228a.271.271 0 1 0 0 .543.271.271 0 0 0 0-.543M268.501 131.091a.41.41 0 0 0 0 .817.407.407 0 0 0 .406-.409.407.407 0 0 0-.406-.408M280.5 124.073a.428.428 0 1 0-.001.856.428.428 0 0 0 .001-.856"/>
            <path fill="#FFB537" d="M247.414 156a7.411 7.411 0 0 1-6.414-3.68 7.375 7.375 0 0 1 2.691-10.094l59.18-34.23c3.541-2.043 8.074-.843 10.126 2.683 2.056 3.529.85 8.047-2.69 10.094l-59.183 34.228a7.407 7.407 0 0 1-3.71.999"/>
            <path fill="#EC8713" d="M247.722 156a7.36 7.36 0 0 1-6.385-3.709c-2.041-3.556 5.717 2.824 9.239.763l60.702-34.957c3.522-2.062.94-9.779 1.723-7.765 2.047 3.556.847 8.11-2.678 10.172l-58.909 34.49a7.303 7.303 0 0 1-3.692 1.006"/>
            <path fill="#FFF" d="M285.868 128.5c0-.177-.163-.321-.367-.321-.205 0-.368.144-.368.32 0 .179.163.323.368.323.204 0 .367-.144.367-.322M288.498 127.17c-.171 0-.309.147-.309.33 0 .183.138.33.309.33a.32.32 0 0 0 .313-.33.32.32 0 0 0-.313-.33M290.501 126.402c-.227 0-.409.044-.409.097 0 .054.182.099.409.099.225 0 .407-.045.407-.099 0-.053-.182-.097-.407-.097M293.501 124.305a.195.195 0 0 0 0 .389.194.194 0 0 0 .193-.194.193.193 0 0 0-.193-.194M296.501 123.17a.321.321 0 0 0-.312.33c0 .182.14.33.312.33.17 0 .31-.148.31-.33 0-.183-.14-.33-.31-.33M298.5 121.189c-.258 0-.466.138-.466.31 0 .173.208.312.466.312.257 0 .467-.139.467-.312 0-.172-.21-.31-.467-.31M305.501 117.305c-.155 0-.278.087-.278.195 0 .107.123.194.278.194.154 0 .276-.087.276-.194 0-.108-.122-.195-.276-.195M309.499 116.404l-.155.097.155.095.157-.095-.157-.098M308.502 117.305a.196.196 0 0 0-.197.195.195.195 0 0 0 .39 0 .195.195 0 0 0-.193-.195M280.498 133.208c-.204 0-.369.132-.369.292 0 .161.165.292.37.292s.372-.131.372-.292c0-.16-.167-.292-.372-.292"/>
            <path fill="#FFF" d="M312.677 110.685A7.367 7.367 0 0 0 302.596 108l-58.92 34.29a7.403 7.403 0 0 0-3.667 6.775c4.024 3.09 9.018-2.551 9.63-1.5.626 1.09 1.372.45 2.24-.558l-.01.13a.654.654 0 1 0 1.311 0 .658.658 0 0 0-.656-.66l-.238.047c.93-1.114 1.987-2.397 3.184-2.397 1.252 0 8.002-2.295 12.69-4.933.46-.258.902-.527 1.332-.804.123.174.325.29.553.29a.687.687 0 0 0 .58-1.056c1.611-1.143 3.103-2.42 4.772-3.818a.815.815 0 0 0-.091.37c0 .397.268.717.597.717.33 0 .599-.32.599-.717 0-.395-.27-.715-.599-.715l-.11.012c1.759-1.466 3.731-3.06 6.261-4.773 6.344-4.301 9.349-2.705 11.855-6.023 1.833-2.427 3.249-2.285 5.524-2.887.002.423.27.767.599.767.33 0 .602-.347.602-.775l-.067-.342c.54-.195 1.127-.443 1.77-.778l.085-.042c.063.222.272.39.525.39.3 0 .544-.233.544-.517l-.13-.33c2.23-1.035 5.09-2.11 7.118-3.347.034.164.216.29.444.29.253 0 .458-.151.458-.342 0-.152-.136-.277-.318-.323 1.587-1.096 2.446-2.32 1.614-3.755"/>
            <path fill="#FFF" d="M278.502 133.322c-.13 0-.235.08-.235.176 0 .1.104.18.235.18.127 0 .23-.08.23-.18 0-.097-.103-.176-.23-.176M282.498 130.208c-.16 0-.29.131-.29.292a.291.291 0 1 0 .29-.292M266.498 141.305a.194.194 0 1 0 .196.195.194.194 0 0 0-.196-.195M262.003 143a1 1 0 1 0-.006 2 1 1 0 0 0 .006-2M258.5 144.267a.233.233 0 1 0 0 .467.233.233 0 0 0 0-.467M254.5 146.228a.273.273 0 0 0-.272.271.273.273 0 0 0 .544 0 .273.273 0 0 0-.272-.271M247.498 150.023a.478.478 0 1 0 .006.955.478.478 0 0 0-.006-.956M250.5 149.21a.29.29 0 0 0-.29.29c0 .161.127.29.29.29a.29.29 0 0 0 .29-.29.29.29 0 0 0-.29-.29M256.502 146.228a.273.273 0 0 0-.273.271c0 .151.123.273.273.273a.27.27 0 0 0 .27-.273.27.27 0 0 0-.27-.271M274.5 137.091a.408.408 0 1 0 .002.816.408.408 0 0 0-.002-.816M285.5 130.073a.425.425 0 0 0-.426.427.426.426 0 1 0 .853 0 .426.426 0 0 0-.427-.427"/>
            <path fill="#FFB537" d="M256.416 162a7.407 7.407 0 0 1-6.416-3.68 7.374 7.374 0 0 1 2.693-10.093l59.18-34.23c3.54-2.044 8.075-.844 10.125 2.682a7.373 7.373 0 0 1-2.69 10.095l-59.182 34.229a7.394 7.394 0 0 1-3.71.997"/>
            <path fill="#EC8713" d="M256.723 162a7.356 7.356 0 0 1-6.386-3.707c-2.041-3.556 5.716 2.825 9.24.763l60.7-34.96c3.523-2.06.945-9.778 1.726-7.764 2.043 3.556.847 8.11-2.678 10.172l-58.91 34.491a7.29 7.29 0 0 1-3.692 1.005"/>
            <path fill="#FFF" d="M294.868 133.5c0-.178-.164-.321-.367-.321-.205 0-.368.143-.368.321 0 .177.163.321.368.321.203 0 .367-.144.367-.321M296.501 132.17c-.174 0-.312.147-.312.33 0 .182.138.33.312.33.17 0 .31-.148.31-.33 0-.184-.14-.33-.31-.33M299.5 132.403c-.227 0-.408.044-.408.097 0 .054.181.098.408.098.224 0 .407-.044.407-.098 0-.053-.183-.097-.407-.097M302.5 130.306a.194.194 0 1 0 0 .388.195.195 0 0 0 .195-.194.195.195 0 0 0-.195-.194M304.5 129.17c-.173 0-.311.147-.311.33 0 .182.138.33.311.33.172 0 .311-.148.311-.33a.32.32 0 0 0-.311-.33M307.498 127.19c-.257 0-.465.138-.465.31s.208.31.465.31c.261 0 .469-.138.469-.31s-.208-.31-.469-.31M314.5 123.305c-.153 0-.279.088-.279.196 0 .106.126.193.279.193.153 0 .279-.087.279-.193 0-.108-.126-.196-.279-.196M318.501 122.403l-.157.098.157.096.154-.096-.154-.098M316.5 123.305a.195.195 0 1 0 0 .39.195.195 0 0 0 0-.39M289.5 138.209c-.202 0-.368.13-.368.293 0 .16.166.29.368.29.205 0 .369-.13.369-.29 0-.162-.164-.293-.37-.293"/>
            <path fill="#FFF" d="M321.678 116.685A7.366 7.366 0 0 0 311.597 114l-58.918 34.29a7.403 7.403 0 0 0-3.67 6.775c4.024 3.09 9.02-2.551 9.627-1.498.63 1.088 1.376.447 2.245-.56l-.013.13a.657.657 0 1 0 1.313 0 .658.658 0 0 0-.655-.66l-.24.047c.931-1.114 1.99-2.398 3.184-2.398 1.255 0 8.005-2.294 12.69-4.932a25.54 25.54 0 0 0 1.333-.804.677.677 0 0 0 .553.288.687.687 0 0 0 .58-1.054c1.613-1.145 3.1-2.42 4.771-3.815a.789.789 0 0 0-.093.366c0 .397.27.718.602.718.328 0 .594-.321.594-.718 0-.396-.266-.716-.594-.716l-.112.014c1.758-1.466 3.732-3.06 6.26-4.773 6.345-4.301 9.351-2.705 11.855-6.023 1.834-2.427 3.252-2.285 5.526-2.887.001.423.267.767.598.767.333 0 .6-.347.6-.775l-.064-.344a13.96 13.96 0 0 0 1.769-.776l.088-.04c.06.222.27.386.522.386.302 0 .546-.23.546-.517l-.13-.327c2.225-1.036 5.088-2.112 7.116-3.348.036.164.215.29.445.29.253 0 .457-.151.457-.342 0-.152-.135-.277-.32-.323 1.59-1.095 2.445-2.32 1.616-3.755"/>
            <path fill="#FFF" d="M286.5 139.322c-.13 0-.234.08-.234.178 0 .098.103.177.234.177.13 0 .233-.079.233-.177 0-.099-.104-.178-.233-.178M291.499 136.208a.292.292 0 1 0 .002.584.292.292 0 0 0-.002-.584M275.499 146.305a.194.194 0 0 0 0 .39.195.195 0 1 0 0-.39M271.002 149c-.552 0-1.002.45-1.002 1s.45 1 1.002 1c.548 0 .998-.45.998-1s-.45-1-.998-1M266.5 150.267a.233.233 0 1 0 0 0M262.502 152.227a.273.273 0 1 0-.003.546.273.273 0 0 0 .002-.546M256.502 156.023a.478.478 0 1 0-.002.956.478.478 0 0 0 .002-.957M258.498 155.209c-.163 0-.29.13-.29.29a.29.29 0 0 0 .29.293.292.292 0 0 0 0-.583M265.501 152.227a.272.272 0 1 0-.001.545.272.272 0 0 0 .001-.544M283.5 143.091a.41.41 0 0 0 0 .817.406.406 0 0 0 .407-.408.407.407 0 0 0-.407-.409M294.5 136.072a.426.426 0 0 0-.426.43c0 .234.189.425.426.425a.428.428 0 0 0 0-.854"/>
            <path fill="#FFB537" d="M246.418 142a7.407 7.407 0 0 1-6.416-3.68c-2.055-3.528-.848-8.047 2.689-10.092l59.185-34.23c3.538-2.046 8.074-.846 10.123 2.682a7.372 7.372 0 0 1-2.69 10.093l-59.181 34.23a7.39 7.39 0 0 1-3.71.997"/>
            <path fill="#EC8713" d="M246.725 142a7.356 7.356 0 0 1-6.387-3.709c-2.045-3.554 5.716 2.826 9.237.763l60.702-34.958c3.523-2.06.943-9.778 1.726-7.764 2.043 3.555.846 8.11-2.677 10.17l-58.909 34.493a7.288 7.288 0 0 1-3.692 1.005"/>
            <path fill="#FFF" d="M285.868 113.499c0-.176-.164-.32-.368-.32-.205 0-.369.144-.369.32 0 .179.164.322.37.322.204 0 .368-.143.368-.322M287.499 112.17c-.17 0-.31.147-.31.33 0 .181.14.33.31.33.174 0 .312-.148.312-.33a.32.32 0 0 0-.312-.33M290.5 112.403c-.226 0-.409.042-.409.097 0 .054.183.098.41.098.225 0 .408-.045.408-.098 0-.055-.183-.098-.408-.098M293.5 110.306a.194.194 0 1 0 0 .388.195.195 0 0 0 .195-.195.195.195 0 0 0-.195-.193M295.5 109.17c-.172 0-.31.146-.31.33 0 .181.138.33.31.33s.31-.148.31-.33c0-.184-.138-.33-.31-.33M298.5 107.19c-.259 0-.468.138-.468.31 0 .171.209.31.468.31.258 0 .468-.139.468-.31 0-.172-.21-.31-.468-.31M305.5 103.306c-.153 0-.278.087-.278.194 0 .107.125.194.278.194.154 0 .279-.087.279-.194 0-.107-.125-.194-.28-.194M309.501 102.403l-.156.098.156.096.154-.096-.154-.098M307.5 103.306a.194.194 0 1 0 0 .389.194.194 0 0 0 0-.389M279.499 118.209c-.202 0-.368.13-.368.291 0 .162.166.292.368.292.205 0 .37-.13.37-.292 0-.16-.165-.291-.37-.291"/>
            <path fill="#FFF" d="M312.678 96.686A7.36 7.36 0 0 0 302.599 94l-58.924 34.289a7.407 7.407 0 0 0-3.666 6.776c4.027 3.088 9.018-2.552 9.627-1.499.63 1.087 1.375.447 2.243-.56l-.012.13a.658.658 0 1 0 .66-.659l-.236.046c.922-1.115 1.982-2.397 3.18-2.397 1.253 0 8.001-2.295 12.69-4.933.459-.258.899-.525 1.331-.802a.684.684 0 0 0 1.134-.769c1.61-1.143 3.102-2.418 4.767-3.814a.825.825 0 0 0-.088.368c0 .396.268.717.6.717.33 0 .596-.32.596-.717 0-.396-.266-.717-.596-.717l-.11.013c1.757-1.465 3.73-3.06 6.258-4.773 6.347-4.3 9.35-2.704 11.858-6.022 1.833-2.427 3.246-2.284 5.525-2.888 0 .424.267.766.597.766.332 0 .598-.345.598-.773l-.061-.344c.538-.192 1.126-.44 1.77-.773l.087-.044a.531.531 0 0 0 .522.386.531.531 0 0 0 .543-.516l-.128-.328c2.227-1.035 5.086-2.11 7.116-3.347.035.164.216.292.444.292.253 0 .46-.155.46-.345 0-.152-.138-.278-.32-.322 1.589-1.096 2.443-2.32 1.614-3.755"/>
            <path fill="#FFF" d="M277.502 119.322c-.129 0-.235.08-.235.178 0 .098.106.178.235.178.127 0 .231-.08.231-.178 0-.098-.104-.178-.231-.178M281.501 116.209a.29.29 0 1 0 .29.292.29.29 0 0 0-.29-.293M266.5 126.305a.194.194 0 1 0 0 0M261.998 129a1 1 0 1 0 .005 2.001 1 1 0 0 0-.005-2.001M257.502 130.267a.233.233 0 1 0-.004.466.233.233 0 0 0 .004-.466M253.499 132.227a.272.272 0 1 0 .002.545.272.272 0 0 0-.002-.544M247.498 136.023a.477.477 0 1 0 .002.954.477.477 0 0 0-.002-.954M249.501 135.209a.29.29 0 1 0 0 .583.29.29 0 0 0 .29-.292.29.29 0 0 0-.29-.291M256.5 132.227a.272.272 0 1 0 .272.272.272.272 0 0 0-.272-.272M274.499 123.091a.406.406 0 0 0-.406.41.408.408 0 1 0 .406-.409M285.502 116.073a.427.427 0 1 0-.003.854.427.427 0 0 0 .003-.854"/>
            <path fill="#FFB537" d="M256.417 150a7.414 7.414 0 0 1-6.418-3.68 7.374 7.374 0 0 1 2.694-10.094l59.18-34.228c3.541-2.047 8.075-.844 10.126 2.682a7.372 7.372 0 0 1-2.69 10.093l-59.182 34.231a7.415 7.415 0 0 1-3.71.996"/>
            <path fill="#EC8713" d="M256.724 150a7.363 7.363 0 0 1-6.388-3.709c-2.04-3.554 5.718 2.826 9.24.764l60.701-34.96c3.522-2.06.941-9.776 1.726-7.763 2.043 3.554.846 8.108-2.677 10.17l-58.91 34.495a7.312 7.312 0 0 1-3.692 1.003"/>
            <path fill="#FFF" d="M295.87 121.5c0-.177-.166-.321-.37-.321-.203 0-.37.143-.37.321 0 .178.166.322.37.322s.37-.145.37-.322M297.501 120.17c-.173 0-.311.148-.311.33 0 .184.138.33.311.33.172 0 .309-.146.309-.33 0-.181-.137-.33-.309-.33M300.5 120.403c-.226 0-.407.044-.407.098 0 .053.181.096.407.096.226 0 .407-.043.407-.096 0-.054-.181-.098-.407-.098M302.502 118.305a.194.194 0 1 0 0 .39.195.195 0 0 0 0-.39M305.5 116.17c-.172 0-.311.148-.311.33 0 .184.139.33.311.33.171 0 .311-.146.311-.33 0-.181-.14-.33-.311-.33M308.5 115.19c-.257 0-.466.138-.466.31 0 .171.209.31.466.31s.467-.139.467-.31c0-.172-.21-.31-.467-.31M315.5 111.306c-.154 0-.278.088-.278.194 0 .108.124.194.278.194.154 0 .279-.086.279-.194 0-.106-.125-.194-.28-.194M319.503 110.403l-.158.096.158.099.152-.098-.152-.097M317.5 111.306a.194.194 0 1 0 0 .388.194.194 0 0 0 0-.388M289.5 126.209c-.204 0-.37.13-.37.29 0 .163.166.293.37.293.202 0 .37-.13.37-.293 0-.16-.167-.29-.37-.29"/>
            <path fill="#FFF" d="M321.679 104.687A7.364 7.364 0 0 0 311.598 102l-58.92 34.288a7.406 7.406 0 0 0-3.669 6.776c4.029 3.09 9.02-2.552 9.628-1.499.628 1.09 1.375.449 2.244-.559l-.016.13a.66.66 0 1 0 .66-.66l-.238.048c.93-1.114 1.986-2.4 3.183-2.4 1.256 0 8.003-2.292 12.69-4.93.462-.26.9-.527 1.33-.804a.688.688 0 0 0 .554.288.69.69 0 0 0 .584-1.055c1.61-1.144 3.1-2.418 4.767-3.816a.817.817 0 0 0-.088.37c0 .395.268.715.597.715.33 0 .597-.32.597-.716 0-.395-.268-.717-.597-.717l-.109.012c1.758-1.465 3.73-3.058 6.258-4.773 6.347-4.3 9.353-2.703 11.857-6.02 1.832-2.43 3.247-2.286 5.522-2.89.003.425.27.767.6.767.333 0 .602-.346.602-.773l-.066-.345c.54-.192 1.127-.44 1.77-.773l.085-.044a.544.544 0 0 0 .525.388.53.53 0 0 0 .542-.517l-.126-.329c2.225-1.034 5.089-2.108 7.116-3.347.034.166.216.293.442.293.252 0 .46-.155.46-.343 0-.154-.137-.28-.32-.324 1.59-1.094 2.445-2.32 1.617-3.754"/>
            <path fill="#FFF" d="M287.5 127.322c-.129 0-.233.08-.233.177 0 .098.104.178.233.178.128 0 .232-.08.232-.178 0-.097-.104-.177-.232-.177M291.499 124.208a.292.292 0 0 0 0 .584.291.291 0 0 0 .292-.292.29.29 0 0 0-.292-.292M276.5 134.305a.194.194 0 0 0 0 .39.193.193 0 0 0 .193-.195.194.194 0 0 0-.193-.195M272.002 137a1 1 0 1 0-.005 2 1 1 0 0 0 .005-2M267.5 138.267a.234.234 0 0 0 0 .467.233.233 0 1 0 0-.467M263.5 140.227a.273.273 0 0 0 0 .545.272.272 0 1 0 0-.545M256.502 144.023a.479.479 0 0 0 0 .955.477.477 0 0 0 0-.956M259.5 143.208a.292.292 0 1 0 0 .584.292.292 0 0 0 0-.584M266.5 140.227a.273.273 0 1 0 0 .546.273.273 0 0 0 0-.546M283.5 131.093a.407.407 0 1 0 .407.407.407.407 0 0 0-.407-.407M295.5 124.072a.429.429 0 1 0 .429.429.43.43 0 0 0-.43-.429"/>
            <path fill="#EC8713" d="M313.5 157c-2.944 0-5.886-.635-8.132-1.903-4.49-2.538-4.49-6.654 0-9.194 2.246-1.268 5.188-1.903 8.132-1.903s5.886.635 8.132 1.903c4.49 2.54 4.49 6.656 0 9.194-2.246 1.268-5.188 1.903-8.132 1.903"/>
            <path fill="#FFC900" d="M329 139c0 8.283-6.717 15-15.002 15-8.282 0-14.998-6.717-14.998-15h30"/>
            <path fill="#E0D7B4" d="M324.605 145.51c-5.854 3.32-15.357 3.32-21.213 0-5.856-3.316-5.856-8.702 0-12.023 5.856-3.316 15.36-3.316 21.213 0 5.86 3.321 5.86 8.707 0 12.023"/>
            <path fill="#BDB497" d="M326.784 140c-.475-1.48-1.722-2.894-3.742-4.034-5.273-2.977-13.818-2.977-19.088 0-2.02 1.138-3.265 2.553-3.736 4.028-.765-2.379.482-4.925 3.736-6.76 5.27-2.978 13.815-2.978 19.088 0 3.254 1.838 4.503 4.383 3.742 6.766"/>
            <path fill="#603913" d="M327 140.505a5.861 5.861 0 0 1-1.047 1.908c-.663.82-1.577 1.59-2.75 2.269-5.365 3.09-14.05 3.09-19.406 0-1.173-.679-2.088-1.45-2.749-2.269a5.765 5.765 0 0 1-1.048-1.914c.478-1.531 1.743-3 3.797-4.182 5.356-3.09 14.041-3.09 19.4 0 2.053 1.184 3.32 2.652 3.803 4.188"/>
            <path fill="#754C29" d="M320.775 138.658a.61.61 0 0 1-.549 0c-.152-.087-.152-.229 0-.316a.604.604 0 0 1 .55 0c.15.087.15.23 0 .316M316.708 136.746c-.391.134-1.024.134-1.413 0-.393-.136-.393-.355 0-.491.39-.135 1.022-.135 1.413 0 .39.136.39.355 0 .49M318.706 140.745c-.39.135-1.024.135-1.414 0-.39-.136-.39-.354 0-.49.39-.135 1.025-.135 1.414 0 .392.136.392.354 0 .49M323.79 141.667a.64.64 0 0 1-.58 0c-.16-.093-.16-.24 0-.335a.646.646 0 0 1 .58 0c.161.094.161.242 0 .335M306.707 139.779c-.39.154-1.022.154-1.414 0-.39-.154-.39-.403 0-.558.392-.153 1.024-.153 1.414 0 .39.155.39.404 0 .558M310.854 143.705a.792.792 0 0 1-.71 0c-.192-.114-.192-.297 0-.41a.786.786 0 0 1 .71 0c.195.113.195.296 0 .41M312.741 139.64a.536.536 0 0 1-.484 0c-.133-.078-.133-.203 0-.28a.53.53 0 0 1 .484 0c.135.077.135.202 0 .28M306.706 142.72c-.39.122-1.023.122-1.412 0-.392-.121-.392-.32 0-.44.39-.121 1.023-.121 1.412 0 .392.12.392.319 0 .44M311.707 136.783c-.392.154-1.026.154-1.416 0-.388-.157-.388-.409 0-.565.39-.156 1.024-.156 1.416 0 .39.156.39.408 0 .565M317.56 144.706c-.584.392-1.535.392-2.122 0-.584-.39-.584-1.023 0-1.412.587-.392 1.538-.392 2.122 0 .587.39.587 1.023 0 1.412M324.706 138.767c-.388.147-1.024.147-1.412 0-.392-.148-.392-.387 0-.533.388-.149 1.024-.149 1.412 0 .392.146.392.385 0 .533"/>
        </g>
    </g>
</svg>
