<svg xmlns="http://www.w3.org/2000/svg" width="320" height="79" viewBox="0 0 320 79">
    <g fill="none" fill-rule="evenodd">
        <path fill="#DAD6C4" d="M22.371 32.9l.276-.07 5.077-2.837a.523.523 0 0 0 .202-.727.562.562 0 0 0-.752-.195l-5.077 2.836a.521.521 0 0 0-.202.726.554.554 0 0 0 .476.267zm-9.612 5.2l.275-.07 5.08-2.837a.523.523 0 0 0 .2-.727.56.56 0 0 0-.75-.195l-5.08 2.836a.522.522 0 0 0-.202.726.554.554 0 0 0 .477.267zM2.462 43.95l.274-.07 5.078-2.837a.522.522 0 0 0 .202-.726.56.56 0 0 0-.752-.195L2.186 42.96a.522.522 0 0 0-.202.726.56.56 0 0 0 .478.265zm-10.3 5.2l.275-.07 5.078-2.838a.522.522 0 0 0 .203-.726.563.563 0 0 0-.752-.195l-5.08 2.837a.522.522 0 0 0-.2.727c.103.17.287.265.476.265zM-17.45 55l.276-.07 5.077-2.838a.521.521 0 0 0 .202-.726.561.561 0 0 0-.752-.194l-5.077 2.837a.521.521 0 0 0-.202.726c.103.17.287.265.476.265zM74.371 3.9l.276-.07L79.724.992a.523.523 0 0 0 .202-.727.562.562 0 0 0-.752-.195l-5.077 2.836a.521.521 0 0 0-.202.726.554.554 0 0 0 .476.267zM64.76 9.1l.275-.07 5.08-2.837a.523.523 0 0 0 .2-.727.56.56 0 0 0-.75-.195l-5.08 2.836a.522.522 0 0 0-.202.726.554.554 0 0 0 .477.267zm-10.297 5.85l.274-.07 5.078-2.837a.522.522 0 0 0 .202-.726.56.56 0 0 0-.752-.195l-5.078 2.837a.522.522 0 0 0-.202.726.56.56 0 0 0 .478.265zm-10.3 5.2l.275-.07 5.078-2.838a.522.522 0 0 0 .203-.726.563.563 0 0 0-.752-.195l-5.08 2.837a.522.522 0 0 0-.2.727c.103.17.287.265.476.265zM34.55 26l.276-.07 5.077-2.838a.521.521 0 0 0 .202-.726.561.561 0 0 0-.752-.194l-5.077 2.837a.521.521 0 0 0-.202.726c.103.17.287.265.476.265zM234.518 19a.548.548 0 0 0 .269-1.018l-4.977-2.91a.538.538 0 0 0-.738.2.55.55 0 0 0 .199.746l4.977 2.91.27.072zm9.424 5.333a.538.538 0 0 0 .467-.273.549.549 0 0 0-.198-.745l-4.98-2.909a.537.537 0 0 0-.735.2.55.55 0 0 0 .197.746l4.979 2.909.27.072zm10.095 5.334a.542.542 0 0 0 .468-.274.55.55 0 0 0-.198-.744l-4.979-2.91a.538.538 0 0 0-.737.2.55.55 0 0 0 .198.746l4.979 2.909.269.073zM263.46 35a.538.538 0 0 0 .467-.273.549.549 0 0 0-.196-.745l-4.98-2.909a.54.54 0 0 0-.737.2.55.55 0 0 0 .199.745l4.979 2.91.268.072zM3.518 12a.548.548 0 0 0 .269-1.018l-4.977-2.91a.538.538 0 0 0-.738.2.55.55 0 0 0 .199.746l4.977 2.91.27.072zm9.424 5.333a.538.538 0 0 0 .467-.273.549.549 0 0 0-.198-.745l-4.98-2.909a.537.537 0 0 0-.735.2.55.55 0 0 0 .197.746l4.979 2.909.27.072zm10.095 5.334a.542.542 0 0 0 .468-.274.55.55 0 0 0-.198-.744l-4.979-2.91a.538.538 0 0 0-.737.2.55.55 0 0 0 .198.746l4.979 2.909.269.073zM32.46 28a.538.538 0 0 0 .467-.273.549.549 0 0 0-.196-.745l-4.98-2.909a.54.54 0 0 0-.737.2.55.55 0 0 0 .199.745l4.979 2.91.268.072zM216.702 9.429a.589.589 0 0 0 .485-.235c.153-.223.062-.508-.205-.638l-5.146-2.494c-.266-.128-.606-.052-.762.171-.153.225-.062.51.205.64l5.146 2.493.277.063zm10.223 4.337c.154-.224.062-.509-.204-.639l-5.145-2.493c-.26-.128-.604-.054-.763.17-.153.225-.062.51.205.64l5.146 2.494.278.062a.584.584 0 0 0 .483-.234z"/>
        <path fill="#FA5932" d="M268 41c1.284 0 2.498-.238 3.422-.666 1.017-.473 1.578-1.13 1.578-1.845 0-.716-.56-1.373-1.578-1.846-1.846-.857-5-.857-6.844 0-1.017.473-1.578 1.13-1.578 1.846 0 .716.56 1.372 1.578 1.845.922.428 2.137.666 3.421.666z"/>
        <path fill="#CF7C00" d="M263 62v1.875L260.9 65l-.9-.382V62.74l3-.74"/>
        <path fill="#F5B400" d="M262.1 63l.9.251-2.1.749-.9-.255 2.1-.745"/>
        <path fill="#CF7C00" d="M261 62v3.129L258.9 67l-.9-.631v-3.13L261 62"/>
        <path fill="#F5B400" d="M260.099 63l.901.252-2.1.748-.9-.252 2.099-.748"/>
        <path fill="#CF7C00" d="M256 66v1.876L253.9 69l-.9-.38v-1.876l3-.744"/>
        <path fill="#F5B400" d="M255.104 63l.896.759L253.9 66l-.9-.754L255.104 63"/>
        <path fill="#CF7C00" d="M256 67v1.88L253.9 70l-.9-.377v-1.878l3-.745"/>
        <path fill="#F5B400" d="M255.1 66l.9.251-2.1.749-.9-.252 2.1-.748"/>
        <path fill="#CF7C00" d="M253 69v3.131L250.9 74l-.9-.635v-3.13L253 69"/>
        <path fill="#F5B400" d="M252.1 67l.9.757L250.9 70l-.9-.763L252.1 67"/>
        <path fill="#CF7C00" d="M252 70v1.88L249.9 73l-.9-.38v-1.874l3-.746"/>
        <path fill="#F5B400" d="M251.1 68l.9.753L249.9 71l-.9-.758L251.1 68"/>
        <path fill="#754C29" d="M326 55.646v-8.38h-6.48c-1.764-1.152-3.2-1.82-3.2-1.82s-15.838-10.747-31.305-2.046c-1.602.9-2.87 1.925-3.859 3.025h-3.152v8.27c-.129 5.654 2.78 10.737 2.78 10.737s26.426 4.791 39.174-2.378c4.49-2.529 6.066-5.07 6.042-7.408"/>
        <path fill="#FFA34D" d="M280.785 56.432s26.424 4.791 39.172-2.377c15.467-8.702-3.639-17.609-3.639-17.609s-15.835-10.748-31.302-2.046c-12.746 7.17-4.23 22.032-4.23 22.032"/>
        <path fill="#CF7C00" d="M285.928 45.466c3.905-1.955 10.238-1.955 14.143 0 3.905 1.949 3.905 5.117.001 7.068-3.906 1.955-10.239 1.955-14.144 0-3.904-1.951-3.904-5.12 0-7.068"/>
        <path fill="#754C29" d="M299.967 49c-.146-1.024-.818-2.014-2.017-2.795-2.734-1.78-7.166-1.78-9.9 0-1.197.781-1.871 1.771-2.019 2.795-.189-1.31.483-2.66 2.02-3.663 2.733-1.783 7.165-1.783 9.899 0 1.538 1.002 2.212 2.354 2.017 3.663"/>
        <path fill="#000" d="M300 49c-.147.99-.822 1.949-2.027 2.705-2.746 1.727-7.199 1.727-9.944 0-1.204-.756-1.88-1.716-2.029-2.705.148-.992.825-1.95 2.03-2.707 2.744-1.724 7.197-1.724 9.943 0 1.205.756 1.88 1.715 2.027 2.707"/>
        <path fill="#3C2415" d="M292 54.7s-7.357-.65-7.382-1.7L267 63.452 273.335 67l12.336-6.523-.037-1.63 6.366-3.35V54.7"/>
        <path fill="#603913" d="M266.74 63.887l-3.1-.887L245 73.257v2.317l.58.311v.962c-.015.418.348.894 1.052 1.273 1.155.625 2.783.757 3.635.298l1.084.582 20.898-10.09.751-1.644V64.95l-6.26-1.064"/>
        <path fill="#754C29" d="M263.319 62.955l-14.479 8.82c-.395.24-.344.639.116.888.46.248 1.154.252 1.555.009l14.477-8.814c.396-.245.346-.645-.113-.894-.462-.245-1.157-.249-1.556-.009zM251.86 74.12c-.417.228-.41.626.017.887.424.262 1.107.288 1.525.065l15.118-8.23c.419-.228.41-.62-.019-.883-.425-.263-1.103-.291-1.521-.064l-15.12 8.225zm11.833-12.69L266.74 61l3.128 1.789L273 64.577l-.751 1.739L251.35 77l-1.084-.62c-.852.485-2.48.344-3.635-.314-1.155-.66-1.398-1.591-.547-2.077L245 73.37l18.694-11.942z"/>
        <path fill="#3C2415" d="M267.07 61l-1.07.42 6.928 2.718V66l1.072-.42v-1.862L267.07 61"/>
        <path fill="#603913" d="M286.808 52.908c-1.435-.802-2.165-1.855-2.19-2.908L267 60.452 273.335 64 292 54.133c-1.883-.015-3.756-.422-5.192-1.225"/>
        <path fill="#A7A9AC" d="M272 58l5 2.623v.218l-.268.159L272 58.213V58"/>
        <path fill="#D1D3D4" d="M272.268 58L277 60.835l-.268.165L272 58.16l.268-.16"/>
        <path fill="#414042" d="M316 47.64l-.653.36-20.376-11.28-3.321 1.846-.65-.36L294.97 36 316 47.64"/>
        <path fill="#000" d="M314 49.034L310.633 51 290 38.97l3.363-1.97L314 49.034"/>
        <path fill="#A7A9AC" d="M301 43l9 3.547v.732l-1.301.721L301 43.733V43"/>
        <path fill="#D1D3D4" d="M302.298 40L310 44.28l-1.301.72L301 40.722l1.298-.722"/>
        <path fill="#A7A9AC" d="M318.997 40.61H319v-1.19L310 36v1.182c-.002.175.182.378.533.546l6.49 3.023c.568.263 1.356.329 1.752.143.157-.07.225-.173.222-.284"/>
        <path fill="#D1D3D4" d="M310.224 35.124c.4-.218 1.187-.142 1.751.172l6.492 3.604c.566.32.703.755.307.977-.397.217-1.184.14-1.752-.175l-6.49-3.603c-.56-.313-.703-.75-.308-.975"/>
        <path fill="#CF7C00" d="M273 68.958V67l-3 .594v1.958l.76.448 2.24-1.042"/>
        <path fill="#F5B400" d="M273 67.3l-.758-.3-2.242.699.76.301 2.24-.7"/>
        <path fill="#CF7C00" d="M267 69.96V68l-3 .595v1.96l.76.445 2.24-1.04"/>
        <path fill="#F5B400" d="M267 69.3l-.757-.3-2.243.7.76.3 2.24-.7"/>
        <path fill="#CF7C00" d="M265 71.957V70l-3 .594v1.96l.758.446L265 71.957"/>
        <path fill="#F5B400" d="M265 70.301l-.76-.301-2.24.7.758.3 2.242-.699"/>
        <path fill="#CF7C00" d="M263 73.958V72l-3 .593v1.962l.759.445L263 73.958"/>
        <path fill="#F5B400" d="M263 71.3l-.757-.3-2.243.698.759.302 2.241-.7"/>
        <path fill="#CF7C00" d="M261 73.958V72l-3 .594v1.959l.758.447L261 73.958"/>
        <path fill="#F5B400" d="M261 73.301l-.76-.301-2.24.7.758.3 2.242-.699"/>
        <path fill="#CF7C00" d="M258 76.96V75l-3 .594v1.962l.76.444 2.24-1.04"/>
        <path fill="#F5B400" d="M258 75.3l-.76-.3-2.24.699.76.301 2.24-.7"/>
        <path fill="#A7A9AC" d="M271 61l5 2.624v.216l-.268.16L271 61.214V61"/>
        <path fill="#D1D3D4" d="M271.268 61L276 63.837l-.268.163L271 61.16l.268-.16"/>
        <path fill="#A7A9AC" d="M275 57l5 2.63v.212l-.267.158L275 57.217V57"/>
        <path fill="#D1D3D4" d="M275.27 54l4.73 2.842-.267.158L275 54.162l.27-.162"/>
        <path fill="#A7A9AC" d="M275 57l5 2.624v.217l-.268.159L275 57.214V57"/>
        <path fill="#D1D3D4" d="M275.267 57L280 59.837l-.268.163L275 57.162l.267-.162"/>
        <path fill="#A7A9AC" d="M280 53l5 2.627v.216l-.268.157L280 53.217V53"/>
        <path fill="#D1D3D4" d="M280.27 53l4.73 2.84-.268.16L280 53.163l.27-.163"/>
        <path fill="#A7A9AC" d="M276 54l5 4.378v.356l-.268.266L276 54.36V54"/>
        <path fill="#D1D3D4" d="M276.27 53l4.73 4.734-.268.266L276 53.27l.27-.27"/>
        <path fill="#A7A9AC" d="M283 53l5 2.624v.217l-.268.159L283 53.214V53"/>
        <path fill="#D1D3D4" d="M283.268 53L288 55.836l-.268.164L283 53.16l.268-.16"/>
        <path fill="#A7A9AC" d="M284 52l5 4.377v.36l-.268.263L284 52.36V52"/>
        <path fill="#D1D3D4" d="M284.27 51l4.73 2.837-.268.163L284 51.16l.27-.16"/>
        <path fill="#A7A9AC" d="M282 53l5 2.626v.216l-.27.158-4.73-2.786V53"/>
        <path fill="#D1D3D4" d="M282.268 53L287 55.837l-.27.163-4.73-2.838.268-.162"/>
        <path fill="#FFF" d="M274.085 63l-.085-.05.038-.137L316.867 38l.133.036-.038.137-42.829 24.812-.048.015M267.084 62l-.084-.047.033-.133L309.867 37l.133.037-.035.13-42.83 24.82-.05.013M270.085 62l-.085-.05.035-.133L312.865 37l.135.037-.037.13-42.83 24.818-.048.015M271.089 62l-.089-.046.038-.136L313.868 37l.132.037-.035.135-42.828 24.817-.048.011"/>
        <path fill="#FFF" d="M271.084 62l-.084-.046.035-.133L313.868 37l.132.038-.035.134-42.83 24.818-.051.01M272.084 62l-.084-.05.035-.133L314.867 37l.133.037-.035.132-42.828 24.814-.053.017"/>
        <path fill="#FFF" d="M271.084 62l-.084-.05.035-.133L313.863 37l.137.033-.035.135-42.833 24.822-.048.01"/>
    </g>
</svg>
