<svg xmlns="http://www.w3.org/2000/svg" width="589" height="272" viewBox="0 0 589 272">
    <g fill="none" fill-rule="evenodd">
        <path fill="#DAD6C4" d="M9.667 7.05l-.474-.128L.474 1.795A.971.971 0 0 1 .127.48.939.939 0 0 1 1.419.129l8.718 5.127c.454.266.61.853.348 1.312a.941.941 0 0 1-.818.482zm16.508 9.4l-.473-.128-8.722-5.127a.973.973 0 0 1-.345-1.315.936.936 0 0 1 1.289-.351l8.722 5.127a.97.97 0 0 1 .347 1.312.941.941 0 0 1-.818.482zM43.86 27.025l-.47-.128-8.722-5.128a.97.97 0 0 1-.347-1.312.936.936 0 0 1 1.291-.351l8.722 5.127a.97.97 0 0 1 .347 1.313.95.95 0 0 1-.82.479zm17.688 9.4l-.47-.128-8.723-5.129a.97.97 0 0 1-.347-1.313.94.94 0 0 1 1.291-.351l8.722 5.129a.97.97 0 0 1 .345 1.312.944.944 0 0 1-.818.48zM78.055 47l-.473-.128-8.72-5.128a.969.969 0 0 1-.347-1.313.937.937 0 0 1 1.291-.352l8.72 5.129c.453.264.609.854.347 1.313a.944.944 0 0 1-.818.479zM382.667 92.05l-.474-.128-8.719-5.127a.971.971 0 0 1-.347-1.315.939.939 0 0 1 1.292-.351l8.718 5.127c.454.266.61.853.348 1.312a.941.941 0 0 1-.818.482zm16.508 9.4l-.473-.128-8.722-5.127a.973.973 0 0 1-.345-1.315.936.936 0 0 1 1.289-.351l8.722 5.127a.97.97 0 0 1 .347 1.312.941.941 0 0 1-.818.482zm17.684 10.575l-.47-.128-8.722-5.128a.97.97 0 0 1-.347-1.312.936.936 0 0 1 1.291-.351l8.722 5.127a.97.97 0 0 1 .347 1.313.95.95 0 0 1-.82.479zm17.688 9.4l-.47-.128-8.723-5.129a.97.97 0 0 1-.347-1.313.94.94 0 0 1 1.291-.351l8.722 5.129a.97.97 0 0 1 .345 1.312.944.944 0 0 1-.818.48zM235.667 77.05l-.474-.128-8.719-5.127a.971.971 0 0 1-.347-1.315.939.939 0 0 1 1.292-.351l8.718 5.127c.454.266.61.853.348 1.312a.941.941 0 0 1-.818.482zm16.508 9.4l-.473-.128-8.722-5.127a.973.973 0 0 1-.345-1.315.936.936 0 0 1 1.289-.351l8.722 5.127a.97.97 0 0 1 .347 1.312.941.941 0 0 1-.818.482zm17.684 10.575l-.47-.128-8.722-5.128a.97.97 0 0 1-.347-1.312.936.936 0 0 1 1.291-.351l8.722 5.127a.97.97 0 0 1 .347 1.313.95.95 0 0 1-.82.479zm17.688 9.4l-.47-.128-8.723-5.129a.97.97 0 0 1-.347-1.313.94.94 0 0 1 1.291-.351l8.722 5.129a.97.97 0 0 1 .345 1.312.944.944 0 0 1-.818.48zM304.055 117l-.473-.128-8.72-5.128a.969.969 0 0 1-.347-1.313.937.937 0 0 1 1.291-.352l8.72 5.129c.453.264.609.854.347 1.313a.944.944 0 0 1-.818.479zM95.667 57.05l-.474-.128-8.719-5.127a.971.971 0 0 1-.347-1.315.939.939 0 0 1 1.292-.351l8.718 5.127c.454.266.61.853.348 1.312a.941.941 0 0 1-.818.482zm16.508 9.4l-.473-.128-8.722-5.127a.973.973 0 0 1-.345-1.315.936.936 0 0 1 1.289-.351l8.722 5.127a.97.97 0 0 1 .347 1.312.941.941 0 0 1-.818.482zm17.684 10.575l-.47-.128-8.722-5.128a.97.97 0 0 1-.347-1.312.936.936 0 0 1 1.291-.351l8.722 5.127a.97.97 0 0 1 .347 1.313.95.95 0 0 1-.82.479zm17.688 9.4l-.47-.128-8.723-5.129a.97.97 0 0 1-.347-1.313.94.94 0 0 1 1.291-.351l8.722 5.129a.97.97 0 0 1 .345 1.312.944.944 0 0 1-.818.48zM164.055 97l-.473-.128-8.72-5.128a.969.969 0 0 1-.347-1.313.937.937 0 0 1 1.291-.352l8.72 5.129c.453.264.609.854.347 1.313a.944.944 0 0 1-.818.479zM235.383 126a.936.936 0 0 1-.814-.479.961.961 0 0 1 .345-1.303l8.675-5.09a.936.936 0 0 1 1.285.348.963.963 0 0 1-.346 1.306l-8.675 5.09-.47.128zm-16.424 9.333a.937.937 0 0 1-.814-.478.963.963 0 0 1 .345-1.303l8.678-5.09a.935.935 0 0 1 1.282.348.965.965 0 0 1-.343 1.306l-8.677 5.09-.471.127zm-17.594 9.334a.943.943 0 0 1-.817-.479.963.963 0 0 1 .346-1.303l8.677-5.09a.936.936 0 0 1 1.285.348.966.966 0 0 1-.346 1.306l-8.677 5.09-.468.128zM184.94 154a.937.937 0 0 1-.815-.478.962.962 0 0 1 .344-1.304l8.677-5.09a.938.938 0 0 1 1.285.349.965.965 0 0 1-.345 1.305l-8.678 5.09-.468.128z"/>
        <path fill="#DAD6C4" d="M215.383 68a.936.936 0 0 1-.814-.479.961.961 0 0 1 .345-1.303l8.675-5.09a.936.936 0 0 1 1.285.348.963.963 0 0 1-.346 1.306l-8.675 5.09-.47.128zm-16.424 9.333a.937.937 0 0 1-.814-.478.963.963 0 0 1 .345-1.303l8.678-5.09a.935.935 0 0 1 1.282.348.965.965 0 0 1-.343 1.306l-8.677 5.09-.471.127zm-17.594 9.334a.943.943 0 0 1-.817-.479.963.963 0 0 1 .346-1.303l8.677-5.09a.936.936 0 0 1 1.285.348.966.966 0 0 1-.346 1.306l-8.677 5.09-.468.128zM164.94 96a.937.937 0 0 1-.815-.478.962.962 0 0 1 .344-1.304l8.677-5.09a.938.938 0 0 1 1.285.349.965.965 0 0 1-.345 1.305l-8.678 5.09-.468.128zM271.365 106.667a.943.943 0 0 1-.817-.479.963.963 0 0 1 .346-1.303l8.677-5.09a.936.936 0 0 1 1.285.348.966.966 0 0 1-.346 1.306l-8.677 5.09-.468.128zm-17.239 8.855a.962.962 0 0 1 .344-1.304l8.677-5.09a.938.938 0 0 1 1.285.349.965.965 0 0 1-.345 1.305l-8.678 5.09-.468.128a.937.937 0 0 1-.815-.478zM360.383 92a.936.936 0 0 1-.814-.479.961.961 0 0 1 .345-1.303l8.675-5.09a.936.936 0 0 1 1.285.348.963.963 0 0 1-.346 1.306l-8.675 5.09-.47.128zm-16.424 9.333a.937.937 0 0 1-.814-.478.963.963 0 0 1 .345-1.303l8.678-5.09a.935.935 0 0 1 1.282.348.965.965 0 0 1-.343 1.306l-8.677 5.09-.471.127zm-17.594 9.334a.943.943 0 0 1-.817-.479.963.963 0 0 1 .346-1.303l8.677-5.09a.936.936 0 0 1 1.285.348.966.966 0 0 1-.346 1.306l-8.677 5.09-.468.128zM309.94 120a.937.937 0 0 1-.815-.478.962.962 0 0 1 .344-1.304l8.677-5.09a.938.938 0 0 1 1.285.349.965.965 0 0 1-.345 1.305l-8.678 5.09-.468.128zM178.432 265.477a.965.965 0 0 1-.345 1.305l-8.678 5.09-.468.128a.937.937 0 0 1-.815-.478.962.962 0 0 1 .344-1.304l8.677-5.09a.938.938 0 0 1 1.285.349zm16.424-9.334a.966.966 0 0 1-.346 1.306l-8.677 5.09-.468.128a.943.943 0 0 1-.817-.479.963.963 0 0 1 .346-1.303l8.677-5.09a.936.936 0 0 1 1.285.348zm17.594-9.333a.965.965 0 0 1-.343 1.306l-8.677 5.09-.471.127a.937.937 0 0 1-.814-.478.963.963 0 0 1 .345-1.303l8.678-5.09a.935.935 0 0 1 1.282.348zm16.424-9.334a.963.963 0 0 1-.346 1.306l-8.675 5.09-.47.128a.936.936 0 0 1-.814-.479.961.961 0 0 1 .345-1.303l8.675-5.09a.936.936 0 0 1 1.285.348zm16.558-10a.965.965 0 0 1-.345 1.306l-8.678 5.09-.468.128a.937.937 0 0 1-.815-.478.962.962 0 0 1 .344-1.304l8.677-5.09a.938.938 0 0 1 1.285.349zm16.424-9.333a.966.966 0 0 1-.346 1.306l-8.677 5.09-.468.128a.943.943 0 0 1-.817-.479.963.963 0 0 1 .346-1.303l8.677-5.09a.936.936 0 0 1 1.285.348zm17.594-9.333a.965.965 0 0 1-.343 1.306l-8.677 5.09-.471.127a.937.937 0 0 1-.814-.478.963.963 0 0 1 .345-1.303l8.678-5.09a.935.935 0 0 1 1.282.348zm16.424-9.334a.963.963 0 0 1-.346 1.306l-8.675 5.09-.47.128a.936.936 0 0 1-.814-.479.961.961 0 0 1 .345-1.303l8.675-5.09a.936.936 0 0 1 1.285.348zm17.558-11a.965.965 0 0 1-.345 1.306l-8.678 5.09-.468.128a.937.937 0 0 1-.815-.478.962.962 0 0 1 .344-1.304l8.677-5.09a.938.938 0 0 1 1.285.349zm16.424-9.333a.966.966 0 0 1-.346 1.306l-8.677 5.09-.468.128a.943.943 0 0 1-.817-.479.963.963 0 0 1 .346-1.303l8.677-5.09a.936.936 0 0 1 1.285.348zm17.594-9.333a.965.965 0 0 1-.343 1.306l-8.677 5.09-.471.127a.937.937 0 0 1-.814-.478.963.963 0 0 1 .345-1.303l8.678-5.09a.935.935 0 0 1 1.282.348zm16.424-9.334a.963.963 0 0 1-.346 1.306l-8.675 5.09-.47.128a.936.936 0 0 1-.814-.479.961.961 0 0 1 .345-1.303l8.675-5.09a.936.936 0 0 1 1.285.348zm17.558-10a.965.965 0 0 1-.345 1.306l-8.678 5.09-.468.128a.937.937 0 0 1-.815-.478.962.962 0 0 1 .344-1.304l8.677-5.09a.938.938 0 0 1 1.285.349zm16.424-9.333a.966.966 0 0 1-.346 1.306l-8.677 5.09-.468.128a.943.943 0 0 1-.817-.479.963.963 0 0 1 .346-1.303l8.677-5.09a.936.936 0 0 1 1.285.348zm17.594-9.333a.965.965 0 0 1-.343 1.306l-8.677 5.09-.471.127a.937.937 0 0 1-.814-.478.963.963 0 0 1 .345-1.303l8.678-5.09a.935.935 0 0 1 1.282.348zm16.424-9.334a.963.963 0 0 1-.346 1.306l-8.675 5.09-.47.128a.936.936 0 0 1-.814-.479.961.961 0 0 1 .345-1.303l8.675-5.09a.936.936 0 0 1 1.285.348zm17.805-12.045a.97.97 0 0 1-.248 1.246l-.1.067-8.719 5.128-.473.128a.944.944 0 0 1-.818-.48.97.97 0 0 1 .248-1.246l.1-.066 8.719-5.129a.937.937 0 0 1 1.291.352zm16.509-10.576a.973.973 0 0 1-.249 1.247l-.099.066-8.722 5.129-.471.128a.944.944 0 0 1-.818-.48.972.972 0 0 1 .246-1.246l.099-.066 8.722-5.13a.94.94 0 0 1 1.292.352zm17.686-9.398a.973.973 0 0 1-.248 1.246l-.1.066-8.72 5.128-.471.128a.95.95 0 0 1-.821-.48.973.973 0 0 1 .248-1.246l.1-.066 8.72-5.127a.936.936 0 0 1 1.292.35zM501.68 79.43a.97.97 0 0 1-.248 1.246l-.1.067-8.719 5.128-.473.128a.944.944 0 0 1-.818-.48.97.97 0 0 1 .248-1.246l.1-.066 8.719-5.129a.937.937 0 0 1 1.291.352zm16.509-10.576a.973.973 0 0 1-.249 1.247l-.099.066-8.722 5.129-.471.128a.944.944 0 0 1-.818-.48.972.972 0 0 1 .246-1.246l.099-.066 8.722-5.13a.94.94 0 0 1 1.292.352zm17.686-9.398a.973.973 0 0 1-.248 1.246l-.1.066-8.72 5.128-.471.128a.95.95 0 0 1-.821-.48.973.973 0 0 1 .248-1.246l.1-.066 8.72-5.127a.936.936 0 0 1 1.292.35zm17.514-10.378a.937.937 0 0 1 1.291.352.969.969 0 0 1-.347 1.313l-8.72 5.128-.473.128a.944.944 0 0 1-.818-.48.969.969 0 0 1 .347-1.312zm16.508-10.575a.94.94 0 0 1 1.292.351.97.97 0 0 1-.348 1.313l-8.722 5.129-.471.128a.944.944 0 0 1-.818-.48.97.97 0 0 1 .345-1.312zm17.687-9.398a.936.936 0 0 1 1.291.35.97.97 0 0 1-.347 1.313l-8.721 5.128-.471.128a.95.95 0 0 1-.821-.48.97.97 0 0 1 .347-1.312zM275.383 238a.936.936 0 0 1-.814-.479.961.961 0 0 1 .345-1.303l8.675-5.09a.936.936 0 0 1 1.285.348.963.963 0 0 1-.346 1.306l-8.675 5.09-.47.128zm-16.424 9.333a.937.937 0 0 1-.814-.478.963.963 0 0 1 .345-1.303l8.678-5.09a.935.935 0 0 1 1.282.348.965.965 0 0 1-.343 1.306l-8.677 5.09-.471.127zm-17.594 9.334a.943.943 0 0 1-.817-.479.963.963 0 0 1 .346-1.303l8.677-5.09a.936.936 0 0 1 1.285.348.966.966 0 0 1-.346 1.306l-8.677 5.09-.468.128zM224.94 266a.937.937 0 0 1-.815-.478.962.962 0 0 1 .344-1.304l8.677-5.09a.938.938 0 0 1 1.285.349.965.965 0 0 1-.345 1.305l-8.678 5.09-.468.128zM317.383 10a.936.936 0 0 1-.814-.479.961.961 0 0 1 .345-1.303l8.675-5.09a.936.936 0 0 1 1.285.348.963.963 0 0 1-.346 1.306l-8.675 5.09-.47.128zm-16.424 9.333a.937.937 0 0 1-.814-.478.963.963 0 0 1 .345-1.303l8.678-5.09a.935.935 0 0 1 1.282.348.965.965 0 0 1-.343 1.306l-8.677 5.09-.471.127zm-17.594 9.334a.943.943 0 0 1-.817-.479.963.963 0 0 1 .346-1.303l8.677-5.09a.936.936 0 0 1 1.285.348.966.966 0 0 1-.346 1.306l-8.677 5.09-.468.128zM266.94 38a.937.937 0 0 1-.815-.478.962.962 0 0 1 .344-1.304l8.677-5.09a.938.938 0 0 1 1.285.349.965.965 0 0 1-.345 1.305l-8.678 5.09-.468.128zM248.365 48.667a.943.943 0 0 1-.817-.479.963.963 0 0 1 .346-1.303l8.677-5.09a.936.936 0 0 1 1.285.348.966.966 0 0 1-.346 1.306l-8.677 5.09-.468.128zm-17.239 8.855a.962.962 0 0 1 .344-1.304l8.677-5.09a.938.938 0 0 1 1.285.349.965.965 0 0 1-.345 1.305l-8.678 5.09-.468.128a.937.937 0 0 1-.815-.478z"/>
        <path fill="#FA5932" d="M172.501 167c-2.183 0-4.248-.475-5.819-1.332-1.729-.945-2.682-2.258-2.682-3.69 0-1.433.953-2.746 2.682-3.691 3.14-1.716 8.499-1.716 11.636 0 1.729.945 2.682 2.258 2.682 3.69 0 1.433-.953 2.746-2.682 3.691-1.569.857-3.633 1.332-5.817 1.332z"/>
        <path fill="#CF7C00" d="M153 171v3.75l2.8 2.25 1.2-.764v-3.755L153 171"/>
        <path fill="#F5B400" d="M154.2 170l-1.2.754 2.8 2.246 1.2-.766-2.8-2.234"/>
        <path fill="#CF7C00" d="M156 173v4.38l3.5 2.62 1.5-.884v-4.382L156 173"/>
        <path fill="#F5B400" d="M157.502 173l-1.502.757 3.5 2.243 1.5-.757-3.498-2.243"/>
        <path fill="#CF7C00" d="M161 176v3.753l2.8 2.247 1.2-.762v-3.75L161 176"/>
        <path fill="#F5B400" d="M162.195 175L161 176.012l2.8 2.988 1.2-1.006-2.805-2.994"/>
        <path fill="#CF7C00" d="M164 179v3.761l3.5 2.239 1.5-.753v-3.757l-5-1.49"/>
        <path fill="#F5B400" d="M165.5 178l-1.5.503 3.5 1.497 1.5-.504-3.5-1.496"/>
        <path fill="#CF7C00" d="M169 181v4.384l3.5 2.616 1.5-.889v-4.383L169 181"/>
        <path fill="#F5B400" d="M170.501 180L169 181.009l3.5 2.991 1.5-1.018-3.499-2.982"/>
        <path fill="#CF7C00" d="M173 184v3.762l2.8 2.238 1.2-.76v-3.748L173 184"/>
        <path fill="#F5B400" d="M174.2 183l-1.2 1.004 2.8 2.996 1.2-1.01-2.8-2.99"/>
        <path fill="#754C29" d="M44 158.394v-15.206h11.204c3.05-2.092 5.536-3.305 5.536-3.305s27.384-19.504 54.13-3.713c2.77 1.635 4.962 3.493 6.672 5.49h5.45v15.008c.224 10.262-4.806 19.487-4.806 19.487s-45.694 8.695-67.738-4.317c-7.763-4.588-10.49-9.2-10.448-13.444"/>
        <path fill="#FFA34D" d="M122.184 162.155s-45.692 8.695-67.734-4.315c-26.746-15.791 6.291-31.956 6.291-31.956s27.383-19.506 54.127-3.713c22.04 13.012 7.316 39.984 7.316 39.984"/>
        <path fill="#CF7C00" d="M112.169 141.785c-6.443-3.713-16.893-3.713-23.336 0-6.444 3.703-6.444 9.722-.002 13.43 6.445 3.713 16.895 3.713 23.338 0 6.441-3.708 6.441-9.727 0-13.43"/>
        <path fill="#754C29" d="M88.059 150c.261-1.638 1.46-3.222 3.602-4.472 4.882-2.847 12.797-2.847 17.677 0 2.14 1.25 3.343 2.834 3.607 4.472.337-2.095-.863-4.257-3.607-5.861-4.88-2.852-12.795-2.852-17.677 0-2.747 1.604-3.95 3.766-3.602 5.861"/>
        <path fill="#000" d="M88 149.5c.262 1.608 1.467 3.166 3.619 4.396 4.904 2.805 12.855 2.805 17.758 0 2.149-1.23 3.358-2.788 3.623-4.395-.265-1.612-1.474-3.17-3.623-4.4-4.903-2.801-12.854-2.801-17.758 0-2.152 1.23-3.357 2.788-3.619 4.4"/>
        <path fill="#3C2415" d="M101 155.914s12.065-1.113 12.106-2.914L142 170.918 131.61 177l-20.23-11.181.06-2.797L101 157.28v-1.366"/>
        <path fill="#603913" d="M143.507 172.553l5.205-1.553L180 188.95v4.055l-.973.544v1.683c.025.732-.585 1.565-1.766 2.228-1.938 1.093-4.673 1.324-6.102.52L169.34 199l-35.08-17.656-1.26-2.879v-4.05l10.507-1.862"/>
        <path fill="#754C29" d="M149.25 171.3l24.304 14.883c.663.404.577 1.077-.194 1.497-.772.42-1.938.427-2.61.016l-24.301-14.873c-.666-.413-.582-1.088.19-1.508.775-.414 1.941-.42 2.612-.016zm19.234 18.839c.7.384.686 1.056-.029 1.496-.712.443-1.858.487-2.56.11l-25.377-13.889c-.702-.384-.69-1.047.032-1.49.713-.443 1.852-.49 2.554-.107l25.38 13.88zm-19.863-21.416l-5.114-.723-5.251 3.018-5.256 3.018 1.26 2.935L169.34 195l1.82-1.047c1.428.82 4.163.582 6.101-.53 1.94-1.113 2.347-2.685.918-3.505l1.821-1.042-31.38-20.153z"/>
        <path fill="#3C2415" d="M142.26 167l1.74.926-11.257 5.978V178l-1.743-.924v-4.096l11.26-5.98"/>
        <path fill="#603913" d="M109.514 153.985c2.355-1.374 3.55-3.18 3.592-4.985L142 166.918 131.61 173 101 156.086c3.088-.027 6.16-.724 8.514-2.1"/>
        <path fill="#A7A9AC" d="M136 164l-11 4.371v.365l.59.264 10.41-4.645V164"/>
        <path fill="#D1D3D4" d="M135.41 163L125 168.67l.59.33 10.41-5.679-.59-.321"/>
        <path fill="#414042" d="M61 146.4l1.044.6 32.603-18.8 5.313 3.077 1.04-.601L94.647 127 61 146.4"/>
        <path fill="#000" d="M63 146.77l5.332 3.23L101 130.235 95.675 127 63 146.77"/>
        <path fill="#A7A9AC" d="M86 135l-14 4.966v1.024l2.024 1.01L86 136.026V135"/>
        <path fill="#D1D3D4" d="M83.98 134L72 140.849 74.024 142 86 135.155 83.98 134"/>
        <path fill="#A7A9AC" d="M56.005 131.299H56v-2.142L70 123v2.128c.002.314-.283.68-.83.982l-10.096 5.442c-.882.473-2.108.592-2.724.258-.244-.128-.35-.312-.345-.511"/>
        <path fill="#D1D3D4" d="M69.652 122.199c-.624-.349-1.847-.228-2.725.275L56.83 128.24c-.88.513-1.093 1.209-.477 1.565.616.346 1.842.223 2.724-.28l10.096-5.766c.873-.5 1.094-1.2.48-1.559"/>
        <path fill="#CF7C00" d="M137 183.263V180l5 .99v3.264l-1.266.746-3.734-1.737"/>
        <path fill="#F5B400" d="M137 179.599l1.263-.599 3.737 1.398-1.266.602-3.734-1.401"/>
        <path fill="#CF7C00" d="M142 185.92V182l4 1.19v3.921l-1.013.889-2.987-2.08"/>
        <path fill="#F5B400" d="M142 181.9l1.01-.9 2.99 2.1-1.013.9-2.987-2.1"/>
        <path fill="#CF7C00" d="M146 188.262V185l6 .99v3.267l-1.516.743-4.484-1.738"/>
        <path fill="#F5B400" d="M146 184.904l1.519-.904 4.481 2.103-1.516.897-4.484-2.096"/>
        <path fill="#CF7C00" d="M151 190.916V187l5 1.186v3.923l-1.265.891-3.735-2.084"/>
        <path fill="#F5B400" d="M151 186.599l1.262-.599 3.738 1.396-1.265.604-3.735-1.401"/>
        <path fill="#CF7C00" d="M155 192.916V189l6 1.187v3.919l-1.517.894-4.483-2.084"/>
        <path fill="#F5B400" d="M155 188.904l1.52-.904 4.48 2.098-1.517.902-4.483-2.096"/>
        <path fill="#CF7C00" d="M160 194.92V191l5 1.189v3.922l-1.267.889-3.733-2.08"/>
        <path fill="#F5B400" d="M160 191.898l1.267-.898 3.733 2.097-1.267.903-3.733-2.102"/>
        <path fill="#A7A9AC" d="M138 165l-9 5.248v.433l.483.319 8.517-5.571V165"/>
        <path fill="#D1D3D4" d="M137.517 165L129 170.674l.483.326 8.517-5.679-.483-.321"/>
        <path fill="#A7A9AC" d="M130 160l-10 5.26v.425l.534.315 9.466-5.566V160"/>
        <path fill="#D1D3D4" d="M129.461 159L120 164.683l.534.317 9.466-5.676-.539-.324"/>
        <path fill="#A7A9AC" d="M132 162l-9 5.248v.435l.483.317 8.517-5.571V162"/>
        <path fill="#D1D3D4" d="M131.519 161L123 166.674l.483.326 8.517-5.677-.481-.323"/>
        <path fill="#A7A9AC" d="M123 157l-9 5.254v.431l.483.315 8.517-5.567V157"/>
        <path fill="#D1D3D4" d="M122.515 156L114 161.679l.483.321 8.517-5.675-.485-.325"/>
        <path fill="#A7A9AC" d="M127 158l-11 6.13v.497l.59.373 10.41-6.497V158"/>
        <path fill="#D1D3D4" d="M126.407 157L116 163.628l.59.372 10.41-6.623-.593-.377"/>
        <path fill="#A7A9AC" d="M118 153l-10 5.248v.435l.537.317 9.463-5.571V153"/>
        <path fill="#D1D3D4" d="M117.463 153L108 157.727l.537.273 9.463-4.732-.537-.268"/>
        <path fill="#A7A9AC" d="M115 151l-10 6.127v.506l.536.367 9.464-6.495V151"/>
        <path fill="#D1D3D4" d="M114.461 151L105 156.674l.536.326 9.464-5.681-.539-.319"/>
        <path fill="#A7A9AC" d="M121 155l-10 5.252v.433l.54.315 9.46-5.571V155"/>
        <path fill="#D1D3D4" d="M120.464 155L111 159.729l.54.271 9.46-4.73-.536-.27"/>
        <path fill="#FFF" d="M134.849 173l.151-.086-.067-.236L59.236 130l-.236.062.067.236 75.697 42.676.085.026M142.855 169l.145-.082-.057-.235L69.229 125l-.229.064.06.231 73.71 43.68.085.025M140.854 169l.146-.085-.061-.23L67.23 126l-.231.063.063.226 73.708 42.685.083.026M137.847 171l.153-.08-.065-.24L64.227 127l-.227.065.061.237 73.704 43.678.082.02M139.854 170l.146-.079-.062-.23L65.23 127l-.23.066.062.23 74.704 42.687.088.017M135.854 173l.146-.09-.062-.232L61.232 129l-.232.065.062.233 74.7 43.673.092.029M137.854 172l.146-.087-.062-.235L63.238 128l-.238.058.062.237 74.708 43.687.084.018"/>
        <path fill="#DAD6C4" d="M320.667 127.05l-.474-.128-8.719-5.127a.971.971 0 0 1-.347-1.315.939.939 0 0 1 1.292-.351l8.718 5.127c.454.266.61.853.348 1.312a.941.941 0 0 1-.818.482zm16.508 9.4l-.473-.128-8.722-5.127a.973.973 0 0 1-.345-1.315.936.936 0 0 1 1.289-.351l8.722 5.127a.97.97 0 0 1 .347 1.312.941.941 0 0 1-.818.482zm17.684 10.575l-.47-.128-8.722-5.128a.97.97 0 0 1-.347-1.312.936.936 0 0 1 1.291-.351l8.722 5.127a.97.97 0 0 1 .347 1.313.95.95 0 0 1-.82.479zm17.688 9.4l-.47-.128-8.723-5.129a.97.97 0 0 1-.347-1.313.94.94 0 0 1 1.291-.351l8.722 5.129a.97.97 0 0 1 .345 1.312.944.944 0 0 1-.818.48z"/>
    </g>
</svg>
