<svg xmlns="http://www.w3.org/2000/svg" width="75" height="56" viewBox="0 0 75 56">
    <g fill="none" fill-rule="nonzero">
        <path fill="#FFA600" d="M15.735 8.47a.98.98 0 0 1 .307 1.26c-2.278 4.242-4.954 8.47-7.527 11.235 1.566 2.31 3.371 4.572 5.38 6.42a4.965 4.965 0 0 0 6.335.33 50.935 50.935 0 0 0 7.919-7.274c-2.432-2.685-4.928-6.757-7.07-10.754a1.116 1.116 0 0 1 .263-1.39c3.296-2.682 1.5-7.95-2.621-8.206-4.648-.289-6.742 5.689-2.986 8.378z"/>
        <path fill="#D57922" fill-opacity=".299" d="M20.25 17.532a79.68 79.68 0 0 0 2.873-4.214 95.765 95.765 0 0 1-2.045-3.635 1.113 1.113 0 0 1 .264-1.387c3.296-2.681 1.5-7.948-2.62-8.205-4.648-.289-6.742 5.688-2.987 8.378a.98.98 0 0 1 .307 1.261c-2.278 4.241-4.954 8.47-7.527 11.234 1.566 2.311 3.371 4.573 5.38 6.42a4.965 4.965 0 0 0 6.335.33c.217-.16.445-.331.679-.51a53.162 53.162 0 0 1-.369-.438 7.493 7.493 0 0 1-.29-9.234z"/>
        <path fill="#FFA600" d="M52.982 8.067c.544.515.69 1.32.33 1.977-2.085 3.816-4.488 7.754-6.835 10.352a50.92 50.92 0 0 0 7.96 7.318 4.966 4.966 0 0 0 6.334-.329c1.995-1.834 3.789-4.077 5.347-6.37-2.542-2.723-5.187-6.894-7.452-11.059a1.253 1.253 0 0 1 .32-1.587C62.38 5.747 60.65.352 56.455.09a4.626 4.626 0 0 0-3.474 7.976z"/>
        <path fill="#D57922" fill-opacity=".299" d="M59.222 16.347a67.592 67.592 0 0 0 1.631-2.583 90.744 90.744 0 0 1-2.188-3.808 1.267 1.267 0 0 1 .342-1.604c3.366-2.629 1.635-8-2.55-8.26a4.626 4.626 0 0 0-3.467 7.982c.537.507.688 1.301.334 1.95-2.089 3.822-4.496 7.77-6.847 10.372a50.92 50.92 0 0 0 7.96 7.319 4.966 4.966 0 0 0 6.334-.33c.44-.404.868-.828 1.287-1.268a50.309 50.309 0 0 1-1.795-1.55c-2.332-2.11-2.783-5.604-1.04-8.22z"/>
        <path fill="#FFC900" d="M.574 10.196C2.539 14.172 1.753 4.102 2 18v34.217h71V16.151c0-2.59.33-4.256 1.115-6.006 1.202-2.676.259-7.386-2.234-7.386-2.13 0-3.197 3.484-2.626 6.168.267 1.248 1.302 2.845.428 5.353-2.086 3.97-5.144 8.889-8.912 12.354a4.966 4.966 0 0 1-6.334.33c-3.751-2.759-10.034-8.28-14.64-16.95-.297-.56-.125-1.244.379-1.628C43.685 5.71 41.795.054 37.344.082h-.022c-4.452-.028-6.361 5.665-2.796 8.33.487.365.649 1.025.364 1.563-4.608 8.693-10.904 14.226-14.66 16.988a4.966 4.966 0 0 1-6.334-.33C10.128 23.17 7.07 18.25 4.984 14.28c-.488-1.4-.432-2.944.128-4.348 1.198-3-.07-7.172-2.326-7.172-2.488 0-3.518 4.79-2.212 7.436z"/>
        <path fill="#FFA600" fill-opacity=".5" d="M9 21.48c-1.75-2.414-2.838-4.958-4.016-7.2-.488-1.4-.432-2.944.128-4.348 1.198-3-.07-7.172-2.326-7.172-2.488 0-3.518 4.79-2.213 7.436C2.54 14.173 1.753 6.102 2 20v32l7 .218v-20.86c-.073-4.131-.032-7.325 0-9.878z"/>
        <circle cx="56.161" cy="38.05" r="3.386" fill="#F02422"/>
        <path fill="#D70E0C" d="M56.16 38.05a3.384 3.384 0 0 1 0-3.386 3.386 3.386 0 1 0 2.932 5.078 3.384 3.384 0 0 1-2.932-1.692z"/>
        <ellipse cx="37.333" cy="38.113" fill="#F02422" rx="5.159" ry="6.153"/>
        <path fill="#D70E0C" d="M40.789 42.512c-2.85 0-5.16-2.754-5.16-6.153 0-1.722.594-3.278 1.55-4.395-2.778.097-5.005 2.812-5.005 6.148 0 3.398 2.31 6.153 5.16 6.153 1.404 0 2.678-.67 3.608-1.758-.05.003-.102.005-.153.005z"/>
        <path fill="#FFA600" d="M72.638 51H2.028C.908 51 0 52.12 0 53.5S.908 56 2.028 56h70.61c1.12 0 2.029-1.12 2.029-2.5s-.908-2.5-2.029-2.5z"/>
        <path fill="#F3980A" d="M7.512 53.5c0-1.38.908-2.5 2.029-2.5H2.028C.908 51 0 52.12 0 53.5S.908 56 2.028 56h7.513c-1.12 0-2.029-1.12-2.029-2.5z"/>
        <circle cx="18.142" cy="38.05" r="3.386" fill="#F02422"/>
        <path fill="#D70E0C" d="M18.142 38.05a3.384 3.384 0 0 1 0-3.386 3.386 3.386 0 1 0 2.932 5.078 3.384 3.384 0 0 1-2.932-1.692z"/>
    </g>
</svg>
