<svg xmlns="http://www.w3.org/2000/svg" width="32" height="48" viewBox="0 0 32 48">
    <g fill="#FFF" fill-rule="evenodd">
        <path fill-rule="nonzero" d="M16 0c8.837 0 16 7.163 16 16v16c0 8.837-7.163 16-16 16S0 40.837 0 32V16C0 7.163 7.163 0 16 0zm0 2C8.268 2 2 8.268 2 16v16c0 7.732 6.268 14 14 14s14-6.268 14-14V16c0-7.732-6.268-14-14-14z" opacity=".45"/>
        <path d="M16 18.24c.55 0 .996.446.996.996v15.26l3.403-3.348a1 1 0 0 1 1.402 0l.003.002a.973.973 0 0 1 .011 1.376l-.01.01-4.228 4.162a.996.996 0 0 1-.59.28.997.997 0 0 1-1.974 0 .99.99 0 0 1-.59-.28l-4.227-4.161a.973.973 0 0 1-.011-1.376l.014-.013a1 1 0 0 1 1.402 0l3.404 3.349V19.236c0-.55.445-.996.995-.996zm0-5.257c.541 0 .98.446.98.996s-.439.996-.98.996a.988.988 0 0 1-.98-.996c0-.55.439-.996.98-.996zM16 9c.541 0 .98.446.98.996s-.439.996-.98.996a.988.988 0 0 1-.98-.996c0-.55.439-.996.98-.996z"/>
    </g>
</svg>
