<svg xmlns="http://www.w3.org/2000/svg" width="56" height="56" viewBox="0 0 56 56">
    <g fill="none" fill-rule="nonzero">
        <path fill="#F02422" d="M43.75 0h-31.5C5.484 0 0 5.484 0 12.25v31.5C0 50.516 5.484 56 12.25 56h31.5C50.516 56 56 50.516 56 43.75v-31.5C56 5.484 50.516 0 43.75 0z"/>
        <path fill="#FFD250" d="M0 12h56v32H0z"/>
        <path fill="#C8414B" d="M24.4 28.045l.903-3.682c.084-.34-.201-.66-.584-.66h-.636c-.384 0-.668.32-.585.66l.903 3.682z"/>
        <path fill="#F5F5F5" d="M23.335 26.114h2.13v8.203h-2.13z"/>
        <path fill="#FAB446" d="M22.804 25.15h3.195v1h-3.195z"/>
        <g fill="#C8414B">
            <path d="M20.672 28.045h5.324v1h-5.323zM25.998 31.905l-3.195-.965v-.965l3.195.965zM8.427 28.045l.903-3.682c.083-.34-.202-.66-.585-.66H8.11c-.383 0-.668.32-.585.66l.903 3.682z"/>
        </g>
        <path fill="#F5F5F5" d="M12.154 25.15c-.588 0-1.065.432-1.065.965v6.273c0 1.173 1.208 3.378 5.325 3.378s5.324-2.206 5.324-3.378v-6.273c0-.533-.476-.965-1.064-.965h-8.52z"/>
        <g fill="#C8414B">
            <path d="M16.414 29.975h-5.325v-3.811c0-.56.454-1.014 1.014-1.014h4.31v4.825zM16.414 29.975h5.324v2.291c0 1.4-1.134 2.535-2.534 2.535h-.256a2.534 2.534 0 0 1-2.534-2.535v-2.29z"/>
        </g>
        <path fill="#FAB446" d="M11.09 29.975h5.324v2.291c0 1.4-1.135 2.535-2.535 2.535h-.255a2.534 2.534 0 0 1-2.535-2.535v-2.29z"/>
        <g fill="#C8414B">
            <path d="M15.349 34.307v-4.332h-1.065v4.777a2.771 2.771 0 0 0 1.065-.445zM13.22 34.752v-4.777h-1.066v4.332a2.77 2.77 0 0 0 1.065.445z"/>
        </g>
        <path fill="#FFB441" d="M12.154 28.045h3.195v1h-3.195z"/>
        <g fill="#FAB446">
            <path d="M12.154 26.114h3.195v1h-3.195z"/>
            <path d="M12.687 26.688h2.13v1.748h-2.13z"/>
        </g>
        <path fill="#F5F5F5" d="M7.362 26.114h2.13v8.203h-2.13z"/>
        <g fill="#FAB446">
            <path d="M6.83 33.835h3.194v1H6.83zM6.83 25.15h3.194v1H6.83z"/>
        </g>
        <path fill="#5064AA" d="M6.297 34.801h4.26v1h-4.26z"/>
        <path fill="#FAB446" d="M23.335 33.835h3.195v1h-3.195z"/>
        <path fill="#5064AA" d="M22.271 34.801h4.26v1h-4.26z"/>
        <path fill="#FAB446" d="M13.219 24.185h6.39v1h-6.39z"/>
        <path fill="#FFB441" d="M15.881 21.29h1.065v2.895h-1.065z"/>
        <g fill="#F5F5F5">
            <path d="M15.349 22.737c-.88 0-1.597-.65-1.597-1.447 0-.799.716-1.448 1.597-1.448.88 0 1.597.65 1.597 1.448 0 .798-.716 1.447-1.597 1.447zm0-1.93c-.294 0-.533.216-.533.483 0 .266.24.482.533.482.294 0 .532-.216.532-.482 0-.267-.238-.483-.532-.483z"/>
            <path d="M17.479 22.737c-.881 0-1.598-.65-1.598-1.447 0-.799.717-1.448 1.598-1.448.88 0 1.597.65 1.597 1.448 0 .798-.716 1.447-1.597 1.447zm0-1.93c-.294 0-.533.216-.533.483 0 .266.239.482.533.482.293 0 .532-.216.532-.482 0-.267-.239-.483-.532-.483z"/>
            <path d="M19.609 23.702c-.881 0-1.598-.65-1.598-1.447 0-.799.717-1.448 1.598-1.448.88 0 1.597.65 1.597 1.448 0 .798-.717 1.447-1.597 1.447zm0-1.93c-.294 0-.533.216-.533.483 0 .266.239.482.533.482.293 0 .532-.216.532-.482 0-.267-.239-.483-.532-.483zM13.22 23.702c-.882 0-1.598-.65-1.598-1.447 0-.799.716-1.448 1.597-1.448.88 0 1.597.65 1.597 1.448 0 .798-.716 1.447-1.597 1.447zm0-1.93c-.295 0-.533.216-.533.483 0 .266.238.482.532.482.294 0 .533-.216.533-.482 0-.267-.24-.483-.533-.483z"/>
        </g>
        <path fill="#FAB446" d="M19.609 31.905v.483c0 .266-.24.482-.533.482-.293 0-.532-.216-.532-.482v-.483h1.065zm1.064-.965H17.48v1.448c0 .798.716 1.447 1.597 1.447.88 0 1.597-.65 1.597-1.447V30.94z"/>
        <path fill="#FFA0D2" d="M19.127 29.01h-.102c-.56 0-1.014-.454-1.014-1.014v-.867c0-.56.454-1.014 1.014-1.014h.102c.56 0 1.014.454 1.014 1.014v.867c0 .56-.454 1.014-1.014 1.014z"/>
        <ellipse cx="16.414" cy="29.975" fill="#5064AA" rx="1.597" ry="1.448"/>
        <path fill="#FAB446" d="M15.881 19.359h1.065v2.895h-1.065z"/>
        <path fill="#C8414B" d="M13.22 24.185l-1.066-.965.624-.566c.964-.874 2.272-1.364 3.636-1.364 1.363 0 2.671.49 3.636 1.364l.623.566-1.064.965h-6.39z"/>
        <g fill="#FFD250" transform="translate(13.672 22.64)">
            <ellipse cx="2.742" cy=".673" rx="1" ry="1"/>
            <ellipse cx=".613" cy=".673" rx="1" ry="1"/>
            <ellipse cx="4.872" cy=".673" rx="1" ry="1"/>
        </g>
        <g fill="#C8414B">
            <path d="M6.83 28.045h5.323v1H6.83zM6.83 31.905l3.194-.965v-.965l-3.194.965z"/>
        </g>
    </g>
</svg>
