<svg xmlns="http://www.w3.org/2000/svg" width="373" height="296" viewBox="0 0 373 296">
    <g fill="none" fill-rule="evenodd">
        <path fill="#FCCDA5" d="M321.217 25.729c1.268 4.16 0 8.466 0 8.466s-4.876 5.97-7.217 9.952c-4.959 2.23-6 6.77-6 6.77l3.473 3.382L328.556 56l13.366-4.578L348 44.147s-1.02-9.853-2.36-11.95c-1.347-2.095-4.214-2.876-4.214-2.876L326.5 21l-5.653 2.482s-.474.662.369 2.247"/>
        <path fill="#F0B380" d="M340.749 29.52c.857 2.23.272 9.412-14.16 2.644-1.858-1.195-2.068-2.56-2.176-4.444-1.012.416-2.392.887-3.396-1.832-.48-1.98 9.595-1.887 9.595-1.887s9.813 5.018 10.137 5.519M351.497 56.63s.23 16.747-.03 17.588c-.254.84 2.17 2.782 2.17 2.782l1.864-.86s6.515-25 5.362-27.947c-1.147-2.94-7.712-8.193-7.712-8.193L350 44.89l1.497 11.74"/>
        <path fill="#DE995F" d="M352 51.3c3.64 2.199 6-2.214 6-2.214s-3.067 2.076-6 2.214"/>
        <path fill="#CE4422" d="M310.125 101.598c1.978 17.583-15.007 52.347 8.348 44.179 33.432-23.04 24.422-41.972 24.422-41.972s-34.324-6.812-32.77-2.207"/>
        <path fill="#000" d="M296.67 168c-.398.827-.69 1.707-.669 2.939.034 2.236 2.306 3.723 2.306 3.723s5.804 15.412 14.48 10.298c.744-.437-.572-3.189-2.214-6.36L296.67 168"/>
        <path fill="#FCCDA5" d="M311.233 179.093c-.796-1.435-3.915-6.935-4.391-8.938-1.506-25.193 9.09-31.72 9.02-34.488 2.76-4.557 12.138-14.478 12.138-14.478L320.415 103l-10.318 1.686s-3.189 21.544-5.195 26.085c-2 4.542-4.08 4.26-5.584 8.944-1.502 4.686 1.503 15.006-.642 25.335-.34 1.615-1.11 2.615-1.676 3.743 0 0 10.018 17.975 14.233 10.3"/>
        <path fill="#CE4422" d="M309.8 105s-2.145 10.82-2.8 14.923c7.657 1.089 11-9.729 11-9.729L309.8 105"/>
        <path fill="#000" d="M352.45 178.284c3.427 2.35 6.789 5.108 5.1 7.61-3.06 3.84-11.633-3.43-13.819-5.006-2.83-.424-6.974-2.43-7.583-4.644-.263-.937-.134-1.55.068-2.244l16.235 4.284"/>
        <path fill="#F0B380" d="M335.768 173.821c.305-.943.772-2.033.58-4.274C336.349 164.183 332 150 332 150l11.833 6.727s-.265 13.023 3.238 17.02c.56 1.04 4.611 3.34 6.121 4.344 5.326 8.477-17.424-4.27-17.424-4.27"/>
        <path fill="#FA5932" d="M310.155 105.551c6.557 12.68 3.913 57.066 43.845 53.213-3.033-7.286-2.836-31.283-2.836-31.283s-44.099-26.606-41.009-21.93"/>
        <path fill="#232323" d="M310.153 104.55c6.462 12.663 7.064 45.77 41.847 35.506-.26-6.318-1.432-13.606-1.432-13.606s-43.46-26.57-40.415-21.9"/>
        <path fill="#181818" d="M337.868 138c5.365 0 10.185-1.826 13.132-2.425-.012-.359-.022-.71-.032-1.057-4.543 1.131-8.428 1.634-11.77 1.634-18.605 0-20.45-15.62-25.773-25.897A31.07 31.07 0 0 1 311 107c.997 2.033 2.722 5.616 3.078 6.821 5.976 19.843 15.528 24.179 23.79 24.179"/>
        <path fill="#FA5932" d="M310.063 104.05c10.175 10.621 6.382 39.572 41.783 30.06.226-2.649.183-8.746 0-14.65-.332-10.946-1.547-19.46-1.547-19.46s-42.153 2.78-40.236 4.05"/>
        <path fill="#232323" d="M310.064 105.024c9.626 17.474 30.39 19.068 42.936 15.307-1.44-10.138-2.122-19.331-2.122-19.331s-42.758 2.762-40.814 4.024"/>
        <path fill="#AB7E00" d="M351.296 113c-.468-9.635-1.593-13-1.593-13s.9 5.048 1.497 12.348c.03.217.063.432.096.652"/>
        <path fill="#952828" d="M351.248 113c-.597-7.685-1.497-13-1.497-13s.486 5.619 1.497 13"/>
        <path fill="#181818" d="M340.9 118c4.713 0 8.73-1.054 11.1-3.266-.017-.53-.037-1.044-.054-1.542-.027-.223-.054-.441-.078-.662-.826-7.114-1.223-12.53-1.223-12.53s-40.625 2.66-40.645 3.97c0 .03.02.06.064.087 6.94 8.92 20.543 13.943 30.836 13.943"/>
        <path fill="#FA5932" d="M315.016 89.567s-5.05 7.74-5.016 15.018c11.017 7.424 22.809 16.382 41.967 10.525.423-8.704-3.368-29.042-3.368-29.042L332.622 82l-17.606 7.567"/>
        <path fill="#232323" d="M312 60.734s10.28 15.307 10.28 18.278c0 2.966-7.496 12.151-6.818 11.094-1.75 3.747 5.557 15.618 26.64 3.747 7.863-4.029 6.815-7.212 6.815-7.212s-.654-22.547 0-23.744c1.353-1.148 4.402-3.226 5.036-7.016.627-3.796-5.208-10.881-5.208-10.881l-8.217 8.991L312 60.734"/>
        <path fill="#000" d="M325 63c.813 11.617 13 5.27 13 5.27s-9.602 3.24-13-5.27"/>
        <path fill="#FCCDA5" d="M301.501 62.696S291.005 77.08 291 81.27c-.005 5.763 22.551 16.686 22.551 16.686s10.888 8.207 15.372 1.241c.981-3.6-7.697-5.307-7.697-5.307s1.182-1.707-1.427-3.282c-1.823-.96-5.642 1.789-5.642 1.789s-9.87-11.558-12.656-13.904c.73-.769 12.52-13.15 13.93-15.796 1.402-2.651-5.575-4.696-5.575-4.696l-8.355 4.696M338.112 10.852c4.566 6.591 2.438 20.079 2.091 21.714-.34 1.635-1.575 2.272-3.018 2.412-5.557.285-9.167-2.238-10.28-3.317-1.112-1.082-1.937-4.209-1.937-4.209s-1.923.853-3.532-.988L319 23.974l1.918-7.667L327.095 8l8.714.708s.756.878 2.303 2.144"/>
        <path fill="#000" d="M321 6.004A5.999 5.999 0 0 1 314.997 12 6 6 0 1 1 321 6.004"/>
        <path fill="#000" d="M320.743 25.82s-2.223-3.935-.532-5.102c1.698-1.168 2.225 2.55 4.553 2.656 2.328.107 3.594-8.176 3.594-8.176s9.95-2.234 9.635-5.739c-.32-3.506-14.819-14.446-22.859-.745-1.583 2.126-3.493 8.713-.742 13.595 2.748 4.89 6.351 3.512 6.351 3.512"/>
        <path fill="#FA5932" d="M308.43 50.845c1.195.413 21.39 6.554 32.152-.9 9.485-10.003 5.029-16.493 4.926-17.77-.107-1.276 4.676 4.774 9.492 7.784-1.699 1.415 2.56 18.514-13.257 11.633-4.845 24.343-31.522 7.453-39.743 10.645 3.161-5.02 5.23-11.797 6.43-11.392"/>
        <path fill="#232323" d="M340 49.013s5.549-3.208 5.25-16.681c-.596-1.62 5.697 3.22 5.697 3.22S352.353 48.17 340.71 50l-.711-.987"/>
        <path fill="#FA5932" d="M339.268 51c-9.886 4.805-29.496 1.144-31.737.483-2.243-.66-2.961 3.979-4.531 5.91 25.802 8.204 37.81-5.575 37.81-5.575s.987.227-1.542-.818"/>
        <path fill="#A62626" d="M343.475 49.641c.746 1.303.69 2.732-.123 3.209-.813.47-2.075-.2-2.824-1.497-.748-1.295-.695-2.727.118-3.202.813-.472 2.08.197 2.829 1.49"/>
        <path fill="#F0B380" d="M349.012 77.594c0 1.45.115 3.57.115 3.57s-4.488 6.129-2.71 9.672c.381.771 4.652-1.287 6.46-3.79 1.81-2.503 3.123-11.139 3.123-11.139s-2.255-2.16-3.858-1.882c-1.598.283-3.13 2.114-3.13 3.57"/>
        <path fill="#FA5932" d="M329.996 15.007A1.582 1.582 0 0 0 331 13.538a1.58 1.58 0 0 0-1.271-1.543l.005-.035a1.585 1.585 0 0 0-2.303-1.4c-.29-.34-.719-.56-1.21-.56a1.58 1.58 0 0 0-1.588 1.578l.026.244a1.578 1.578 0 0 0-1.193-.54c-.881 0-1.592.706-1.592 1.577 0 .548.283 1.03.71 1.309A1.59 1.59 0 0 0 321 15.75c0 .866.713 1.575 1.59 1.575.247 0 .476-.06.685-.16l.026.027a1.522 1.522 0 0 0-.263.851 1.59 1.59 0 0 0 2.94.83c.207.65.805 1.126 1.524 1.126.879 0 1.59-.709 1.59-1.578l-.064-.427.385.05c.881 0 1.587-.704 1.587-1.576 0-.664-.413-1.234-1.004-1.462"/>
        <path fill="#A62626" d="M327 12.69c2.53-1.626 3 2.037 3 2.037s-.964-2.427-3-2.037M329 15.552c-.163 3.126-3 1.443-3 1.443s2.217.546 3-1.443M327.622 15.97c-3.108.385-2.082-2.97-2.082-2.97s-.05 2.484 2.082 2.97"/>
        <path fill="#A62626" d="M326.78 15.348c-.69-1.791 1.571-1.695 1.571-1.695s-1.572.35-1.572 1.695M328.216 14.348c1.674.954-.141 2.304-.141 2.304s.993-1.263.14-2.304"/>
        <path fill="#DAD6C4" d="M203.333 146.111l.474.128 8.719 5.127c.453.267.609.854.347 1.315a.939.939 0 0 1-1.292.351l-8.718-5.126a.969.969 0 0 1-.348-1.313.941.941 0 0 1 .818-.482zm-16.508-9.4l.473.128 8.722 5.127c.451.267.607.854.345 1.315a.936.936 0 0 1-1.289.351l-8.722-5.126a.97.97 0 0 1-.347-1.313.941.941 0 0 1 .818-.482zm-17.684-10.575l.47.128 8.722 5.128a.97.97 0 0 1 .347 1.313.936.936 0 0 1-1.291.35l-8.722-5.127a.97.97 0 0 1-.347-1.312.95.95 0 0 1 .82-.48zm-17.688-9.4l.47.129 8.723 5.128a.97.97 0 0 1 .347 1.313.94.94 0 0 1-1.291.351l-8.722-5.128a.97.97 0 0 1-.345-1.313.944.944 0 0 1 .818-.48zm-16.508-10.575l.473.129 8.72 5.128c.453.264.609.854.347 1.313a.937.937 0 0 1-1.291.35l-8.72-5.127a.969.969 0 0 1-.347-1.313.944.944 0 0 1 .818-.48zM80.333 182.111l.474.128 8.719 5.127c.453.267.609.854.347 1.315a.939.939 0 0 1-1.292.351l-8.718-5.126a.969.969 0 0 1-.348-1.313.941.941 0 0 1 .818-.482zm-16.508-9.4l.473.128 8.722 5.127c.451.267.607.854.345 1.315a.936.936 0 0 1-1.289.351l-8.722-5.126a.97.97 0 0 1-.347-1.313.941.941 0 0 1 .818-.482zM46.14 162.136l.47.128 8.722 5.128a.97.97 0 0 1 .347 1.313.936.936 0 0 1-1.291.35l-8.722-5.127a.97.97 0 0 1-.347-1.312.95.95 0 0 1 .82-.48zm-17.688-9.4l.47.129 8.723 5.128a.97.97 0 0 1 .347 1.313.94.94 0 0 1-1.291.351l-8.722-5.128a.97.97 0 0 1-.345-1.313.944.944 0 0 1 .818-.48zm-16.508-10.575l.473.129 8.72 5.128c.453.264.609.854.347 1.313a.937.937 0 0 1-1.291.35l-8.72-5.127a.969.969 0 0 1-.347-1.313.944.944 0 0 1 .818-.48zM-4.667 132.111l.474.128 8.719 5.127c.453.267.609.854.347 1.315a.939.939 0 0 1-1.292.351l-8.718-5.126a.969.969 0 0 1-.348-1.313.941.941 0 0 1 .818-.482zm-16.508-9.4l.473.128 8.722 5.127c.451.267.607.854.345 1.315a.936.936 0 0 1-1.289.351l-8.722-5.126a.97.97 0 0 1-.347-1.313.941.941 0 0 1 .818-.482zm-17.684-10.575l.47.128 8.722 5.128a.97.97 0 0 1 .347 1.313.936.936 0 0 1-1.291.35l-8.722-5.127a.97.97 0 0 1-.347-1.312.95.95 0 0 1 .82-.48zm-17.688-9.4l.47.129 8.723 5.128a.97.97 0 0 1 .347 1.313.94.94 0 0 1-1.291.351l-8.722-5.128a.97.97 0 0 1-.345-1.313.944.944 0 0 1 .818-.48zm-16.508-10.575l.473.129 8.72 5.128c.453.264.609.854.347 1.313a.937.937 0 0 1-1.291.35l-8.72-5.127a.969.969 0 0 1-.347-1.313.944.944 0 0 1 .818-.48zM291.333 198.111l.474.128 8.719 5.127c.453.267.609.854.347 1.315a.939.939 0 0 1-1.292.351l-8.718-5.126a.969.969 0 0 1-.348-1.313.941.941 0 0 1 .818-.482zm-16.508-9.4l.473.128 8.722 5.127c.451.267.607.854.345 1.315a.936.936 0 0 1-1.289.351l-8.722-5.126a.97.97 0 0 1-.347-1.313.941.941 0 0 1 .818-.482zm-17.684-10.575l.47.128 8.722 5.128a.97.97 0 0 1 .347 1.313.936.936 0 0 1-1.291.35l-8.722-5.127a.97.97 0 0 1-.347-1.312.95.95 0 0 1 .82-.48zm-17.688-9.4l.47.129 8.723 5.128a.97.97 0 0 1 .347 1.313.94.94 0 0 1-1.291.351l-8.722-5.128a.97.97 0 0 1-.345-1.313.944.944 0 0 1 .818-.48zm-16.508-10.575l.473.129 8.72 5.128c.453.264.609.854.347 1.313a.937.937 0 0 1-1.291.35l-8.72-5.127a.969.969 0 0 1-.347-1.313.944.944 0 0 1 .818-.48zM362.825 239.711l.473.128 8.722 5.127c.451.267.607.854.345 1.315a.936.936 0 0 1-1.289.351l-8.722-5.126a.97.97 0 0 1-.347-1.313.941.941 0 0 1 .818-.482zm-17.684-10.575l.47.128 8.722 5.128a.97.97 0 0 1 .347 1.313.936.936 0 0 1-1.291.35l-8.722-5.127a.97.97 0 0 1-.347-1.312.95.95 0 0 1 .82-.48zm-17.688-9.4l.47.129 8.723 5.128a.97.97 0 0 1 .347 1.313.94.94 0 0 1-1.291.351l-8.722-5.128a.97.97 0 0 1-.345-1.313.944.944 0 0 1 .818-.48zm-16.035-10.446l8.72 5.128c.453.264.609.854.347 1.313a.937.937 0 0 1-1.291.35l-8.72-5.127a.969.969 0 0 1-.347-1.313.944.944 0 0 1 .818-.48l.473.129zM65.333 257.211l.474-.128 8.719-5.127a.971.971 0 0 0 .347-1.315.939.939 0 0 0-1.292-.35l-8.718 5.126a.969.969 0 0 0-.348 1.312c.176.31.494.482.818.482zm-16.508 9.4l.473-.128 8.722-5.127a.973.973 0 0 0 .345-1.315.936.936 0 0 0-1.289-.35l-8.722 5.126a.97.97 0 0 0-.347 1.312c.176.31.493.482.818.482zM31.14 277.186l.47-.128 8.722-5.127a.97.97 0 0 0 .347-1.313.936.936 0 0 0-1.291-.351l-8.722 5.127a.97.97 0 0 0-.347 1.313.95.95 0 0 0 .82.48zm-17.688 9.4l.47-.128 8.723-5.129a.97.97 0 0 0 .347-1.312.94.94 0 0 0-1.291-.352l-8.722 5.129a.97.97 0 0 0-.345 1.313c.176.308.493.48.818.48zm-16.508 10.575l.473-.128 8.72-5.128a.969.969 0 0 0 .347-1.313.937.937 0 0 0-1.291-.351l-8.72 5.128a.969.969 0 0 0-.347 1.313c.176.308.493.48.818.48zM263.333 111.111l.474.128 8.719 5.127c.453.267.609.854.347 1.315a.939.939 0 0 1-1.292.351l-8.718-5.126a.969.969 0 0 1-.348-1.313.941.941 0 0 1 .818-.482zm-16.508-9.4l.473.128 8.722 5.127c.451.267.607.854.345 1.315a.936.936 0 0 1-1.289.351l-8.722-5.126a.97.97 0 0 1-.347-1.313.941.941 0 0 1 .818-.482zM229.14 91.136l.47.128 8.722 5.128a.97.97 0 0 1 .347 1.313.936.936 0 0 1-1.291.35l-8.722-5.127a.97.97 0 0 1-.347-1.312.95.95 0 0 1 .82-.48zm-17.688-9.4l.47.129 8.723 5.128a.97.97 0 0 1 .347 1.313.94.94 0 0 1-1.291.351l-8.722-5.128a.97.97 0 0 1-.345-1.313.944.944 0 0 1 .818-.48zm-16.508-10.575l.473.129 8.72 5.128c.453.264.609.854.347 1.313a.937.937 0 0 1-1.291.35l-8.72-5.127a.969.969 0 0 1-.347-1.313.944.944 0 0 1 .818-.48z"/>
        <path fill="#DAD6C4" d="M142.333 288.95l.474.128 8.719 5.127c.453.267.609.854.347 1.315a.939.939 0 0 1-1.292.351l-8.718-5.127a.969.969 0 0 1-.348-1.312.941.941 0 0 1 .818-.482zm-16.508-9.4l.473.128 8.722 5.127c.451.267.607.854.345 1.315a.936.936 0 0 1-1.289.351l-8.722-5.127a.97.97 0 0 1-.347-1.312.941.941 0 0 1 .818-.482zm-17.684-10.575l.47.128 8.722 5.128a.97.97 0 0 1 .347 1.312.936.936 0 0 1-1.291.351l-8.722-5.127a.97.97 0 0 1-.347-1.313.95.95 0 0 1 .82-.479zm-17.688-9.4l.47.128 8.723 5.129a.97.97 0 0 1 .347 1.313.94.94 0 0 1-1.291.351l-8.722-5.129a.97.97 0 0 1-.345-1.312.944.944 0 0 1 .818-.48zM73.945 249l.473.128 8.72 5.128c.453.265.609.854.347 1.313a.937.937 0 0 1-1.291.352l-8.72-5.129a.969.969 0 0 1-.347-1.313.944.944 0 0 1 .818-.479zM52.333 237.95l.474.128 8.719 5.127c.453.267.609.854.347 1.315a.939.939 0 0 1-1.292.351l-8.718-5.127a.969.969 0 0 1-.348-1.312.941.941 0 0 1 .818-.482zm-16.508-9.4l.473.128 8.722 5.127c.451.267.607.854.345 1.315a.936.936 0 0 1-1.289.351l-8.722-5.127a.97.97 0 0 1-.347-1.312.941.941 0 0 1 .818-.482zM18.14 217.975l.47.128 8.722 5.128a.97.97 0 0 1 .347 1.312.936.936 0 0 1-1.291.351l-8.722-5.127a.97.97 0 0 1-.347-1.313.95.95 0 0 1 .82-.479zm-17.688-9.4l.47.128 8.723 5.129a.97.97 0 0 1 .347 1.313.94.94 0 0 1-1.291.351l-8.722-5.129a.97.97 0 0 1-.345-1.312.944.944 0 0 1 .818-.48zM-16.055 198l.473.128 8.72 5.128c.453.265.609.854.347 1.313a.937.937 0 0 1-1.291.352l-8.72-5.129a.969.969 0 0 1-.347-1.313.944.944 0 0 1 .818-.479zM75.617 138.16c.324 0 .639.17.814.479a.961.961 0 0 1-.345 1.303l-8.675 5.09a.936.936 0 0 1-1.285-.348.963.963 0 0 1 .346-1.306l8.675-5.09.47-.128zm16.424-9.333c.323 0 .64.17.814.478a.963.963 0 0 1-.345 1.303l-8.678 5.09a.935.935 0 0 1-1.282-.348.965.965 0 0 1 .343-1.305l8.677-5.09.471-.128zm17.594-9.333c.323 0 .639.17.817.478a.963.963 0 0 1-.346 1.303l-8.677 5.091a.936.936 0 0 1-1.285-.349.966.966 0 0 1 .346-1.305l8.677-5.091.468-.127zm16.424-9.334c.324 0 .64.17.815.479a.962.962 0 0 1-.344 1.303l-8.677 5.09a.938.938 0 0 1-1.285-.348.965.965 0 0 1 .345-1.306l8.678-5.09.468-.128zM6.617 176.16c.324 0 .639.17.814.479a.961.961 0 0 1-.345 1.303l-8.675 5.09a.936.936 0 0 1-1.285-.348.963.963 0 0 1 .346-1.306l8.675-5.09.47-.128zm16.424-9.333c.323 0 .64.17.814.478a.963.963 0 0 1-.345 1.303l-8.678 5.09a.935.935 0 0 1-1.282-.348.965.965 0 0 1 .343-1.305l8.677-5.09.471-.128zm17.594-9.333c.323 0 .639.17.817.478a.963.963 0 0 1-.346 1.303l-8.677 5.091a.936.936 0 0 1-1.285-.349.966.966 0 0 1 .346-1.305l8.677-5.091.468-.127zm16.424-9.334c.324 0 .64.17.815.479a.962.962 0 0 1-.344 1.303l-8.677 5.09a.938.938 0 0 1-1.285-.348.965.965 0 0 1 .345-1.306l8.678-5.09.468-.128zM143.617 99.16c.324 0 .639.17.814.479a.961.961 0 0 1-.345 1.303l-8.675 5.09a.936.936 0 0 1-1.285-.348.963.963 0 0 1 .346-1.306l8.675-5.09.47-.128zm16.424-9.333c.323 0 .64.17.814.478a.963.963 0 0 1-.345 1.303l-8.678 5.09a.935.935 0 0 1-1.282-.348.965.965 0 0 1 .343-1.305l8.677-5.09.471-.128zm17.594-9.333c.323 0 .639.17.817.478a.963.963 0 0 1-.346 1.303l-8.677 5.091a.936.936 0 0 1-1.285-.349.966.966 0 0 1 .346-1.305l8.677-5.091.468-.127zm16.424-9.334c.324 0 .64.17.815.479a.962.962 0 0 1-.344 1.303l-8.677 5.09a.938.938 0 0 1-1.285-.348.965.965 0 0 1 .345-1.306l8.678-5.09.468-.128zM162.617 179.16c.324 0 .639.17.814.479a.961.961 0 0 1-.345 1.303l-8.675 5.09a.936.936 0 0 1-1.285-.348.963.963 0 0 1 .346-1.306l8.675-5.09.47-.128zm16.424-9.333c.323 0 .64.17.814.478a.963.963 0 0 1-.345 1.303l-8.678 5.09a.935.935 0 0 1-1.282-.348.965.965 0 0 1 .343-1.305l8.677-5.09.471-.128zm17.594-9.333c.323 0 .639.17.817.478a.963.963 0 0 1-.346 1.303l-8.677 5.091a.936.936 0 0 1-1.285-.349.966.966 0 0 1 .346-1.305l8.677-5.091.468-.127zm16.424-9.334c.324 0 .64.17.815.479a.962.962 0 0 1-.344 1.303l-8.677 5.09a.938.938 0 0 1-1.285-.348.965.965 0 0 1 .345-1.306l8.678-5.09.468-.128zM36.617 216.16c.324 0 .639.17.814.479a.961.961 0 0 1-.345 1.303l-8.675 5.09a.936.936 0 0 1-1.285-.348.963.963 0 0 1 .346-1.306l8.675-5.09.47-.128zm16.424-9.333c.323 0 .64.17.814.478a.963.963 0 0 1-.345 1.303l-8.678 5.09a.935.935 0 0 1-1.282-.348.965.965 0 0 1 .343-1.305l8.677-5.09.471-.128zm17.594-9.333c.323 0 .639.17.817.478a.963.963 0 0 1-.346 1.303l-8.677 5.091a.936.936 0 0 1-1.285-.349.966.966 0 0 1 .346-1.305l8.677-5.091.468-.127zm16.424-9.334c.324 0 .64.17.815.479a.962.962 0 0 1-.344 1.303l-8.677 5.09a.938.938 0 0 1-1.285-.348.965.965 0 0 1 .345-1.306l8.678-5.09.468-.128z"/>
        <path fill="#FA5932" d="M281.499 120c2.44 0 4.75.567 6.503 1.596 1.932 1.134 2.998 2.71 2.998 4.43 0 1.722-1.066 3.295-2.998 4.43-3.506 2.059-9.501 2.059-13.004 0-1.932-1.135-2.995-2.708-2.998-4.43.003-1.72 1.066-3.296 2.998-4.43 1.75-1.029 4.06-1.596 6.5-1.596z"/>
    </g>
</svg>
