<svg xmlns="http://www.w3.org/2000/svg" width="247" height="314" viewBox="0 0 247 314">
    <g fill="none" fill-rule="evenodd">
        <path fill="#D9945B" d="M128.429 20.399L130 23.624l-5.734 7.475-8.186.901-4.08-3.665 4.544-5.837L121.597 19l6.832 1.399"/>
        <path fill="#000" d="M115.342 136s1.48 3.963 0 6.228c-1.482 2.262-4.752 3.006-5.984 4.047-1.466 1.25-6.356 7.498-10.47 6.645-3.04-.627-1.82-4.638-.42-6.786 1.397-2.152 6.344-4.382 8.36-6.879 2.264-2.8 8.514-3.255 8.514-3.255"/>
        <path fill="#FFF" d="M116.535 115.325s.696 1.596.385 4.326c-.307 2.73-2.161 5.91-1.778 15.7-.232 1.94-7.218 9.596-9.76 7.183-1.625-1.579 2.435-4.737 2.84-5.786.876-4.106-1.123-18.514-.72-23.279 1.302-1.723 9.033 1.856 9.033 1.856"/>
        <path fill="#000" d="M138.61 138.834s8.901 16.253 1.354 19.01c-5.1 1.18-5.266-4.755-5.266-4.755s-.061-3.963-.48-5.424c-.415-1.462-.775-1.406-1.11-3.43-.334-2.025.21-6.235.21-6.235l5.291.834"/>
        <path fill="#FFF" d="M140.51 115.455c.972 4.632-1.497 19.841-1.147 23.31.298 1.335 3.739 7.442-.35 8.19-3.379.614-4.163-5.166-4.842-7.941-1.025-5.454-4-15.702-4.169-21.326-.173-5.62 9.787-3.47 10.508-2.233"/>
        <path fill="#232323" d="M130.028 113.934c-7.368-6.064-7.614-24.354-8.635-23.718-1.694 2.824-.338 19.756-4.066 21.694v3.541c-1.524 2.692-9.447.928-9.823-1.517 0 0-.438-1.78-.068-4.298-2.117-.249-4.899-24.68-2.528-36.138.679-1.126 30.43-.113 31.5.784 5.136 8.567 3.449 37.147 3.449 37.147s.925 2.424 1.097 3.604c.844 3.87-10.109 5.139-10.416 2.775l-.51-3.874"/>
        <path fill="#FFF" d="M130.55 23.923s-6.411 5.29-8.76 5.29c-2.345 0-4.974-6.213-4.974-6.213h-4.082L110 65.177 128.952 67 133 26.617l-2.45-2.694"/>
        <path fill="#FFF" d="M121 28.973s-.773-3.638-2.221-4.446c-1.448-.81-3.521-.445-3.521-.445s-1.808.633-1.09 2.967c.713 2.327 6.832 1.924 6.832 1.924"/>
        <path fill="#FFF" d="M120 28.612c0-1.463 1.795-3.15 1.795-3.15C128.15 24.791 130 20 130 20l-.247 3.589s-2.81 7.124-9.753 5.023"/>
        <path fill="#FA5932" d="M133.609 60.236s.67 9.072 2.391 14.05c-9.334 6.75-30.111 2.77-31 0 .458-2.725 2.69-11.964 2.555-15.286 11.335 4.668 26.054 1.236 26.054 1.236"/>
        <path fill="#F0B380" d="M102.695 62s4.657 1.11 4.657 2.439c0 1.323-.325.677-.325 3.42 0 2.735 4.74 5.73 2.25 8.853-.343.43-5.337 1.155-7.865-4.447-2.533-5.605-2.411-8.725-2.411-8.725l3.694-1.54"/>
        <path fill="#000" d="M104.997 38.474s-7.906 6.272-10.354 6.495c2.115 2.236 5.008 10.409 9.195 18.242C101.99 66.236 97.644 67 97.644 67S82.951 52.356 84.06 41.155c.453-2.904 18.219-16.065 20.381-16.15 2.158-.083 3.559.905 3.559.905l-3.003 12.564"/>
        <path fill="#232323" d="M115 22c-.028 1.584-1.503 29.226-.811 43-5.74-.277-9.577-4.444-9.577-4.444s-3.627-26.223 0-37.498c2.757-1.123 6.763-.023 10.388-1.058"/>
        <path fill="#000" d="M113.515 22.989s-.18 4.199-1.938 5.263c-1.88 1.135-11.292 1.961-11.577-5.227 3.207 8.143 13.053 3.616 12.021-1.025l1.979.543-.485.446"/>
        <path fill="#232323" d="M112.196 21.483s-.178 3.773-1.95 4.73c-1.774.96-10.97 2.324-11.246-4.693-.055-1.163 13.196-1.52 13.196-1.52s.635-.012.804 1.427l-.804.056M139 28.97s-3.08-1.912-8.85-4.97c-9.983 8.742-7.987 41.908-7.987 41.908s12.21 1.179 13.253-4.903c1.045-6.083 2.287-13.347 2.287-13.347L139 28.97"/>
        <path fill="#F0B380" d="M113.906 8.86s-2.039 5.532 0 17.103c.79 1.467 3.505 2.09 4.774 2.033 6.983-2.03 9.7-7.962 9.7-7.962l2.431-.504L132 14.619l-3.903-5.828-4.392-4.674L118.598 2l-4.692 3.185V8.86"/>
        <path fill="#000" d="M116.797 10.664c.984.465 4.393-.92 6.03 0 1.634.926 2.068 7.146 2.728 7.032.657-.115 2.815-2.767 3.905-1.153 1.098 1.612-1.936 3.917-1.936 3.917s.984 2.652 1.64 2.536c1.047-.068 1.087-1.987 1.703-3.113.897-1.638 2.133-2.747 2.133-3.572-1.202-14.98-6.954-15.15-8.321-15.093-4.215-3.63-10.455 1.955-11.168 2.534-1.15 1.094 0 5.302 0 5.302s.457-2.694.765-2.075c.31.618 1.533 3.224 2.521 3.685"/>
        <path fill="#232323" d="M125 2c-4.527.163-7 7-7 7s3.589-6.072 7-7"/>
        <path fill="#F0B380" d="M148.397 89.641s-1.478 8.354 1.27 9.047c1.321.265.718-3.881 2.414-3.618 2.808.433 1.142 6.937 3.269 6.913 2.35.374 2.866-5.372 2.578-7.337-.286-1.973-3.9-5.646-3.9-5.646l-5.631.641"/>
        <path fill="#000" d="M139.64 27.023c-4.774 10.97-1.48 17.717-2.14 19.91 5.428 24.3 7.24 26.658 9.598 40.497 1.646 4.05 8.96 3.227 8.83-1.858-.13-5.084 1.317-11.811-4.443-29.356-5.758-13.67-2.057-29.91-11.845-29.193M121.352 28.162L122 38.616l-1.296.384L120 28l1.352.162"/>
        <path fill="#000" d="M120.007 29L116 36.38l1.277.62L121 29.482l-.993-.482M115 111.785c-4.206.995-8-1.785-8-1.785s4.503 1.852 8 1.785M139 112s-3.069 2.82-7 1.763c3.606 0 7-1.763 7-1.763"/>
        <path fill="#F5B400" d="M103.858 144.6l-2.334-1.156 1.522-1.157 2.333 1.157-1.52 1.156zM101 143.5l3.022 1.5 1.978-1.5-3.027-1.5-1.973 1.5zM137.33 147.573l3.02-.303.26 2.204-3.202.258-.078-2.159zm-.33-.2l.097 2.627 3.903-.309-.313-2.691-3.687.373z"/>
        <path fill="#FA5932" d="M152.798 94.003c4.506.22 9.465 38.047 10.14 44.14.679 6.09-4.422 5.652-4.422 5.652S156.744 151 152.503 151c-5.587 0-8.666-3.01-8.598-9.187.078-7.107.777-17.293.777-17.293s-4.274-1.478-2.031-9.024c2.246-7.546 5.637-21.719 10.147-21.493"/>
        <path fill="#CE4422" d="M157.919 144c-.88-.509-1.919-30-1.919-30s2.474 30.014 1.919 30M144.156 124c1.135-4.108 3.844-20 3.844-20s-4.93 19.238-3.844 20M152.876 98s1.036 15 .168 15c-.866 0-.168-15-.168-15"/>
        <path fill="#DAD6C4" d="M133.565 237.114a.738.738 0 0 1-.632-.35.683.683 0 0 1 .267-.952l6.71-3.722a.754.754 0 0 1 .993.255c.2.335.081.763-.267.955l-6.71 3.721-.361.093zm-13.42 7.443a.732.732 0 0 1-.63-.35.682.682 0 0 1 .265-.952l6.711-3.722c.347-.186.793-.076.994.255a.683.683 0 0 1-.267.955l-6.711 3.721-.363.093zm-14.048 7.093a.683.683 0 0 1 .267-.953l6.71-3.721a.751.751 0 0 1 .99.255.684.684 0 0 1-.264.955l-6.71 3.721-.364.093a.732.732 0 0 1-.63-.35z"/>
        <path fill="#FFC900" d="M118.5 161c-1.669 0-3.25-.378-4.449-1.064-1.322-.756-2.051-1.807-2.051-2.953 0-1.148.729-2.197 2.051-2.953 2.399-1.373 6.501-1.373 8.898 0 1.322.756 2.05 1.805 2.051 2.953-.002 1.146-.729 2.197-2.051 2.953-1.198.686-2.778 1.064-4.448 1.064z"/>
        <path fill="#DAD6C4" d="M147.831 237.7l-.383-.104-7.064-4.145a.784.784 0 0 1-.281-1.063.761.761 0 0 1 1.046-.284l7.064 4.145c.367.216.493.69.281 1.061-.143.251-.4.39-.663.39zm13.374 7.6l-.383-.104-7.066-4.145a.785.785 0 0 1-.28-1.063.76.76 0 0 1 1.045-.284l7.066 4.145c.367.216.491.69.281 1.061-.143.251-.4.39-.663.39zm14.327 8.55l-.382-.104-7.065-4.145a.784.784 0 0 1-.282-1.061.759.759 0 0 1 1.047-.284l7.065 4.145c.367.214.492.69.282 1.061a.77.77 0 0 1-.665.388zm14.329 7.6l-.382-.104-7.066-4.146a.784.784 0 0 1-.281-1.062.762.762 0 0 1 1.046-.284l7.066 4.147c.366.213.492.69.28 1.061a.765.765 0 0 1-.663.388zm13.373 8.55l-.383-.104-7.064-4.146a.782.782 0 0 1-.281-1.061.76.76 0 0 1 1.046-.284l7.064 4.146c.367.213.493.69.281 1.061a.765.765 0 0 1-.663.388zM256.903 301l-3.95-2.332a.801.801 0 0 1-.286-1.081.77.77 0 0 1 1.06-.29L260 301h-3.097zm-38.972-22.194l-.389-.106-7.153-4.222a.801.801 0 0 1-.285-1.083.769.769 0 0 1 1.06-.289l7.153 4.222a.8.8 0 0 1 .285 1.081.772.772 0 0 1-.671.397zm13.544 7.741l-.389-.105-7.156-4.223a.803.803 0 0 1-.283-1.083.767.767 0 0 1 1.058-.289l7.156 4.222c.372.22.498.703.285 1.081a.772.772 0 0 1-.671.397zm14.508 8.709l-.386-.106-7.155-4.222a.8.8 0 0 1-.285-1.081.766.766 0 0 1 1.06-.29l7.154 4.223a.8.8 0 0 1 .285 1.081.78.78 0 0 1-.673.395zM45.831 223.7l-.383-.104-7.064-4.145a.784.784 0 0 1-.281-1.063.761.761 0 0 1 1.046-.284l7.064 4.145c.367.216.493.69.281 1.061-.143.251-.4.39-.663.39zm13.374 7.6l-.383-.104-7.066-4.145a.785.785 0 0 1-.28-1.063.76.76 0 0 1 1.045-.284l7.066 4.145c.367.216.491.69.281 1.061-.143.251-.4.39-.663.39zm14.327 8.55l-.382-.104-7.065-4.145a.784.784 0 0 1-.282-1.061.759.759 0 0 1 1.047-.284l7.065 4.145c.367.214.492.69.282 1.061a.77.77 0 0 1-.665.388zm14.329 7.6l-.382-.104-7.066-4.146a.784.784 0 0 1-.281-1.062.762.762 0 0 1 1.046-.284l7.066 4.147c.366.213.492.69.28 1.061a.765.765 0 0 1-.663.388zm13.373 8.55l-.383-.104-7.064-4.146a.782.782 0 0 1-.281-1.061.76.76 0 0 1 1.046-.284l7.064 4.146c.367.213.493.69.281 1.061a.765.765 0 0 1-.663.388zM42.117 291.6a.77.77 0 0 1-.667-.383.759.759 0 0 1 .283-1.042l7.11-4.073a.778.778 0 0 1 1.053.279.76.76 0 0 1-.283 1.045l-7.11 4.072-.386.102zm-13.462 7.467a.771.771 0 0 1-.668-.383.76.76 0 0 1 .284-1.043l7.112-4.072a.776.776 0 0 1 1.052.279.761.761 0 0 1-.282 1.045l-7.112 4.072-.386.102zm-14.422 7.466a.777.777 0 0 1-.669-.382.76.76 0 0 1 .283-1.043l7.113-4.073a.777.777 0 0 1 1.053.28.762.762 0 0 1-.284 1.044l-7.112 4.073-.384.101zM.771 314a.771.771 0 0 1-.667-.383.76.76 0 0 1 .281-1.042l7.113-4.073a.779.779 0 0 1 1.053.28.762.762 0 0 1-.283 1.044l-7.113 4.072-.384.102zM95.117 261.6a.77.77 0 0 1-.667-.383.759.759 0 0 1 .283-1.042l7.11-4.073a.778.778 0 0 1 1.053.279.76.76 0 0 1-.283 1.045l-7.11 4.072-.386.102zm-13.462 7.467a.771.771 0 0 1-.668-.383.76.76 0 0 1 .284-1.043l7.112-4.072a.776.776 0 0 1 1.052.279.761.761 0 0 1-.282 1.045l-7.112 4.072-.386.102zm-14.422 7.466a.777.777 0 0 1-.669-.382.76.76 0 0 1 .283-1.043l7.113-4.073a.777.777 0 0 1 1.053.28.762.762 0 0 1-.284 1.044l-7.112 4.073-.384.101zM53.771 284a.771.771 0 0 1-.667-.383.76.76 0 0 1 .281-1.042l7.113-4.073a.779.779 0 0 1 1.053.28.762.762 0 0 1-.283 1.044l-7.113 4.072-.384.102zM82.812 180a.691.691 0 0 1-.601-.37.76.76 0 0 1 .255-1.004l2.492-1.53a.68.68 0 0 1 .95.271.764.764 0 0 1-.256 1.007l-2.492 1.528-.348.098zm-14.476 9a.78.78 0 0 1-.674-.41c-.213-.391-.087-.893.286-1.118l7.18-4.365a.763.763 0 0 1 1.061.299.842.842 0 0 1-.284 1.12l-7.18 4.365-.39.109zm-14.557 8a.78.78 0 0 1-.675-.41c-.214-.391-.087-.893.286-1.118l7.179-4.365a.766.766 0 0 1 1.063.299.845.845 0 0 1-.286 1.12l-7.18 4.365-.387.109z"/>
        <path fill="#DAD6C4" d="M111.812 163a.691.691 0 0 1-.601-.37.76.76 0 0 1 .255-1.004l2.492-1.53a.68.68 0 0 1 .95.271.764.764 0 0 1-.256 1.007l-2.492 1.528-.348.098zm-14.476 9a.78.78 0 0 1-.674-.41c-.213-.391-.087-.893.286-1.118l7.18-4.365a.763.763 0 0 1 1.061.299.842.842 0 0 1-.284 1.12l-7.18 4.365-.39.109zm-14.557 8a.78.78 0 0 1-.675-.41c-.214-.391-.087-.893.286-1.118l7.179-4.365a.766.766 0 0 1 1.063.299.845.845 0 0 1-.286 1.12l-7.18 4.365-.387.109zM218.98 224.745a.838.838 0 0 1-.72-.41.814.814 0 0 1 .306-1.121l.184-.105a.842.842 0 0 1 1.139.302.814.814 0 0 1-.306 1.12l-.185.105-.417.11zm-15.38 8.752a.841.841 0 0 1-.724-.411.814.814 0 0 1 .307-1.12l7.691-4.376a.852.852 0 0 1 1.14.3.816.816 0 0 1-.307 1.122l-7.691 4.376-.416.109zm-15.385 8.751a.835.835 0 0 1-.721-.41.813.813 0 0 1 .304-1.121l7.694-4.376a.852.852 0 0 1 1.139.3.814.814 0 0 1-.307 1.122l-7.693 4.376-.416.11zM172.833 251a.835.835 0 0 1-.722-.411.814.814 0 0 1 .306-1.12l7.692-4.376a.849.849 0 0 1 1.137.3.815.815 0 0 1-.305 1.122l-7.69 4.376-.418.109z"/>
        <path fill="#DAD6C4" d="M264.98 197.745a.838.838 0 0 1-.72-.41.814.814 0 0 1 .306-1.121l.184-.105a.842.842 0 0 1 1.139.302.814.814 0 0 1-.306 1.12l-.185.105-.417.11zm-15.38 8.752a.841.841 0 0 1-.724-.411.814.814 0 0 1 .307-1.12l7.691-4.376a.852.852 0 0 1 1.14.3.816.816 0 0 1-.307 1.122l-7.691 4.376-.416.109zm-15.385 8.751a.835.835 0 0 1-.721-.41.813.813 0 0 1 .304-1.121l7.694-4.376a.852.852 0 0 1 1.139.3.814.814 0 0 1-.307 1.122l-7.693 4.376-.416.11zM218.833 224a.835.835 0 0 1-.722-.411.814.814 0 0 1 .306-1.12l7.692-4.376a.849.849 0 0 1 1.137.3.815.815 0 0 1-.305 1.122l-7.69 4.376-.418.109z"/>
    </g>
</svg>
