<svg xmlns="http://www.w3.org/2000/svg" width="319" height="386" viewBox="0 0 319 386">
    <g fill="none" fill-rule="evenodd">
        <path fill="#D9945B" d="M158.08 24.721l1.92 3.97-7.008 9.2L142.987 39 138 34.489l5.554-7.184L149.73 23l8.35 1.721"/>
        <path fill="#000" d="M141.203 167s1.793 4.895 0 7.693c-1.793 2.794-5.751 3.714-7.243 5-1.775 1.544-7.694 9.262-12.674 8.209-3.68-.775-2.204-5.73-.51-8.384 1.692-2.658 7.68-5.413 10.122-8.497 2.74-3.46 10.305-4.021 10.305-4.021"/>
        <path fill="#FFF" d="M143.418 141.867s.87 1.97.482 5.336c-.384 3.367-2.702 7.289-2.222 19.363-.29 2.394-9.023 11.836-12.2 8.86-2.031-1.948 3.043-5.843 3.55-7.137 1.095-5.063-1.404-22.834-.9-28.71 1.627-2.126 11.29 2.288 11.29 2.288"/>
        <path fill="#000" d="M170.731 171s10.683 19.505 1.626 22.814c-6.12 1.416-6.32-5.707-6.32-5.707s-.073-4.756-.576-6.509c-.498-1.755-.93-1.687-1.33-4.115-.402-2.43.25-7.483.25-7.483l6.35 1"/>
        <path fill="#FFF" d="M172.42 141.808c1.15 5.754-1.768 24.651-1.355 28.962.353 1.657 4.419 9.244-.413 10.174-3.994.763-4.92-6.419-5.723-9.866-1.211-6.777-4.727-19.509-4.926-26.496-.205-6.983 11.566-4.31 12.418-2.774"/>
        <path fill="#232323" d="M159.656 139.833c-8.961-7.383-9.26-29.648-10.502-28.874-2.061 3.438-.411 24.051-4.945 26.41v4.31c-1.854 3.278-11.49 1.13-11.947-1.846 0 0-.533-2.166-.083-5.233-2.575-.303-5.958-30.046-3.074-43.994.825-1.37 37.008-.137 38.31.954 6.247 10.43 4.195 45.223 4.195 45.223s1.124 2.95 1.334 4.388c1.027 4.711-12.295 6.255-12.668 3.378l-.62-4.716"/>
        <path fill="#FFF" d="M160.018 29.132s-7.806 6.493-10.665 6.493c-2.854 0-6.055-7.625-6.055-7.625h-4.97L135 79.763 158.072 82 163 32.438l-2.982-3.306"/>
        <path fill="#FFF" d="M149 35.968s-.883-4.365-2.538-5.336c-1.655-.972-4.025-.533-4.025-.533s-2.065.759-1.244 3.56c.814 2.792 7.807 2.31 7.807 2.31"/>
        <path fill="#FFF" d="M148 35.526c0-1.788 2.154-3.851 2.154-3.851C157.78 30.857 160 25 160 25l-.297 4.386s-3.372 8.708-11.703 6.14"/>
        <path fill="#FA5932" d="M164.069 74.496s.82 10.982 2.931 17.007c-11.442 8.172-36.91 3.353-38 0 .561-3.298 3.297-14.482 3.132-18.503 13.894 5.651 31.937 1.496 31.937 1.496"/>
        <path fill="#F0B380" d="M125.702 77s5.928 1.332 5.928 2.927c0 1.587-.413.812-.413 4.104 0 3.282 6.031 6.877 2.863 10.623-.436.517-6.793 1.386-10.01-5.336-3.224-6.726-3.069-10.47-3.069-10.47L125.702 77"/>
        <path fill="#000" d="M128.37 46.682s-9.552 7.765-12.51 8.041c2.555 2.769 6.052 12.887 11.111 22.586-2.234 3.746-7.484 4.691-7.484 4.691s-17.754-18.13-16.415-32c.548-3.594 22.015-19.888 24.628-19.994 2.607-.103 4.3 1.12 4.3 1.12l-3.63 15.556"/>
        <path fill="#232323" d="M142 27c-.035 1.953-1.879 36.023-1.014 53-7.174-.342-11.971-5.477-11.971-5.477s-4.533-32.321 0-46.219C132.46 26.92 137.469 28.276 142 27"/>
        <path fill="#000" d="M139.41 28.271s-.217 5.399-2.352 6.767c-2.284 1.46-13.712 2.522-14.058-6.72 3.894 10.47 15.85 4.65 14.597-1.318l2.403.698-.59.573"/>
        <path fill="#232323" d="M138.024 26.907s-.217 4.85-2.367 6.08c-2.155 1.235-13.321 2.989-13.657-6.033C121.933 25.46 138.024 25 138.024 25s.771-.016.976 1.835l-.976.072M171 35.154s-3.804-2.368-10.931-6.154c-12.333 10.823-9.868 51.886-9.868 51.886s15.084 1.46 16.372-6.07c1.29-7.532 2.825-16.525 2.825-16.525L171 35.154"/>
        <path fill="#F0B380" d="M140.097 10.443s-2.468 6.809 0 21.05c.955 1.805 4.243 2.572 5.779 2.503 8.453-2.5 11.741-9.8 11.741-9.8l2.944-.62L162 17.53l-4.724-7.172-5.317-5.753L145.776 2l-5.68 3.92v4.523"/>
        <path fill="#000" d="M143.746 12.983c1.23.566 5.492-1.12 7.537 0 2.043 1.127 2.585 8.699 3.41 8.56.823-.14 3.52-3.369 4.882-1.404 1.373 1.963-2.42 4.769-2.42 4.769s1.23 3.228 2.05 3.088c1.309-.083 1.359-2.42 2.129-3.79 1.12-1.995 2.666-3.345 2.666-4.349-1.503-18.236-8.693-18.443-10.402-18.375-5.268-4.418-13.068 2.381-13.959 3.086-1.438 1.33 0 6.454 0 6.454s.572-3.28.955-2.526c.39.753 1.918 3.925 3.152 4.487"/>
        <path fill="#232323" d="M154 2c-5.82.21-9 9-9 9s4.614-7.807 9-9"/>
        <path fill="#F0B380" d="M182.476 109.79s-1.773 10.28 1.525 11.133c1.585.327.86-4.776 2.896-4.452 3.37.533 1.37 8.537 3.923 8.508 2.82.46 3.439-6.612 3.093-9.03-.343-2.429-4.68-6.949-4.68-6.949l-6.757.79"/>
        <path fill="#000" d="M171.196 34.028c-5.78 13.407-1.793 21.654-2.59 24.334 6.57 29.7 8.763 32.583 11.618 49.497 1.993 4.95 10.846 3.945 10.69-2.271-.16-6.213 1.593-14.436-5.38-35.88-6.97-16.707-2.49-36.556-14.338-35.68M149.028 34.207L150 47.51l-1.944.489L147 34l2.028.207"/>
        <path fill="#000" d="M147.808 35L143 44.225l1.532.775L149 35.603 147.808 35M141 137.677c-5.257 1.493-10-2.677-10-2.677s5.629 2.778 10 2.677M171 137s-3.946 4.23-9 2.644c4.637 0 9-2.644 9-2.644"/>
        <path fill="#F5B400" d="M127.43 177.467l-2.802-1.541 1.828-1.543 2.799 1.543-1.825 1.54zM124 176l3.626 2 2.374-2-3.633-2-2.367 2zM168.412 181.764l3.775-.404.326 2.939-4.002.343-.099-2.878zm-.412-.266l.122 3.502 4.878-.411-.391-3.589-4.609.498z"/>
        <path fill="#FA5932" d="M187.369 116.003c5.579.27 11.718 46.726 12.554 54.207.84 7.48-5.475 6.942-5.475 6.942S192.254 186 187.004 186c-6.917 0-10.73-3.697-10.645-11.283.097-8.727.962-21.237.962-21.237s-5.292-1.814-2.516-11.081c2.781-9.268 6.98-26.673 12.564-26.396"/>
        <path fill="#CE4422" d="M193.878 177c-1.32-.627-2.878-37-2.878-37s3.711 37.017 2.878 37M177.195 153c1.419-5.135 4.805-25 4.805-25s-6.162 24.047-4.805 25M187.313 121s1.554 18 .252 18c-1.299 0-.252-18-.252-18"/>
        <path fill="#DAD6C4" d="M164.575 291.247a.892.892 0 0 1-.769-.44.876.876 0 0 1 .326-1.201l8.172-4.688a.901.901 0 0 1 1.21.32c.243.423.1.962-.325 1.203l-8.172 4.689-.442.117zm-16.346 9.376a.886.886 0 0 1-.767-.44.875.875 0 0 1 .323-1.2l8.175-4.689a.9.9 0 0 1 1.21.321c.245.422.1.96-.326 1.203l-8.174 4.688-.441.117zm-17.111 8.936a.876.876 0 0 1 .326-1.2l8.172-4.688a.897.897 0 0 1 1.207.32c.246.423.1.96-.323 1.203l-8.172 4.689-.443.117a.886.886 0 0 1-.767-.44z"/>
        <path fill="#FFC900" d="M146.001 198c-2.055 0-4-.473-5.477-1.33-1.627-.945-2.524-2.259-2.524-3.691 0-1.435.897-2.746 2.524-3.692 2.953-1.716 8.002-1.716 10.952 0 1.627.946 2.522 2.257 2.524 3.692-.002 1.432-.897 2.746-2.524 3.691-1.474.857-3.42 1.33-5.475 1.33z"/>
        <path fill="#DAD6C4" d="M181.667 291.885l-.474-.128-8.719-5.127a.971.971 0 0 1-.347-1.315.939.939 0 0 1 1.292-.35l8.718 5.126c.454.266.61.853.348 1.312a.941.941 0 0 1-.818.482zm16.508 9.4l-.473-.128-8.722-5.127a.973.973 0 0 1-.345-1.315.936.936 0 0 1 1.289-.35l8.722 5.126a.97.97 0 0 1 .347 1.312.941.941 0 0 1-.818.482zm17.684 10.575l-.47-.128-8.722-5.127a.97.97 0 0 1-.347-1.313.936.936 0 0 1 1.291-.351l8.722 5.127a.97.97 0 0 1 .347 1.313.95.95 0 0 1-.82.48zm17.688 9.4l-.47-.128-8.723-5.129a.97.97 0 0 1-.347-1.313.94.94 0 0 1 1.291-.35l8.722 5.128a.97.97 0 0 1 .345 1.313.944.944 0 0 1-.818.48zm16.508 10.575l-.473-.128-8.72-5.128a.969.969 0 0 1-.347-1.313.937.937 0 0 1 1.291-.351l8.72 5.128c.453.264.609.854.347 1.313a.944.944 0 0 1-.818.48zM315.17 370l-4.816-2.832a.97.97 0 0 1-.347-1.313.94.94 0 0 1 1.291-.351l7.647 4.496h-3.775zm-47.503-26.95l-.474-.128-8.719-5.127a.971.971 0 0 1-.347-1.315.939.939 0 0 1 1.292-.351l8.718 5.127c.454.266.61.853.348 1.312a.941.941 0 0 1-.818.482zm16.508 9.4l-.473-.128-8.722-5.127a.973.973 0 0 1-.345-1.315.936.936 0 0 1 1.289-.351l8.722 5.127a.97.97 0 0 1 .347 1.312.941.941 0 0 1-.818.482zm17.684 10.575l-.47-.128-8.722-5.128a.97.97 0 0 1-.347-1.312.936.936 0 0 1 1.291-.351l8.722 5.127a.97.97 0 0 1 .347 1.313.95.95 0 0 1-.82.479zM56.667 274.885l-.474-.128-8.719-5.127a.971.971 0 0 1-.347-1.315.939.939 0 0 1 1.292-.35l8.718 5.126c.454.266.61.853.348 1.312a.941.941 0 0 1-.818.482zm16.508 9.4l-.473-.128-8.722-5.127a.973.973 0 0 1-.345-1.315.936.936 0 0 1 1.289-.35l8.722 5.126a.97.97 0 0 1 .347 1.312.941.941 0 0 1-.818.482zM90.86 294.86l-.47-.128-8.722-5.127a.97.97 0 0 1-.347-1.313.936.936 0 0 1 1.291-.351l8.722 5.127a.97.97 0 0 1 .347 1.313.95.95 0 0 1-.82.48zm17.688 9.4l-.47-.128-8.723-5.129a.97.97 0 0 1-.347-1.313.94.94 0 0 1 1.291-.35l8.722 5.128a.97.97 0 0 1 .345 1.313.944.944 0 0 1-.818.48zm16.508 10.575l-.473-.128-8.72-5.128a.969.969 0 0 1-.347-1.313.937.937 0 0 1 1.291-.351l8.72 5.128c.453.264.609.854.347 1.313a.944.944 0 0 1-.818.48zM51.383 357.835a.936.936 0 0 1-.814-.478.961.961 0 0 1 .345-1.304l8.675-5.09a.936.936 0 0 1 1.285.348.963.963 0 0 1-.346 1.306l-8.675 5.091-.47.127zm-16.424 9.334a.937.937 0 0 1-.814-.479.963.963 0 0 1 .345-1.303l8.678-5.09a.935.935 0 0 1 1.282.348.965.965 0 0 1-.343 1.306l-8.677 5.09-.471.128zm-17.594 9.333a.943.943 0 0 1-.817-.479.963.963 0 0 1 .346-1.303l8.677-5.09a.936.936 0 0 1 1.285.348.966.966 0 0 1-.346 1.306l-8.677 5.09-.468.128zM.94 385.835a.937.937 0 0 1-.815-.478.962.962 0 0 1 .344-1.303l8.677-5.09a.938.938 0 0 1 1.285.348.965.965 0 0 1-.345 1.306l-8.678 5.09-.468.127z"/>
        <path fill="#DAD6C4" d="M116.383 320.835a.936.936 0 0 1-.814-.478.961.961 0 0 1 .345-1.304l8.675-5.09a.936.936 0 0 1 1.285.348.963.963 0 0 1-.346 1.306l-8.675 5.091-.47.127zm-16.424 9.334a.937.937 0 0 1-.814-.479.963.963 0 0 1 .345-1.303l8.678-5.09a.935.935 0 0 1 1.282.348.965.965 0 0 1-.343 1.306l-8.677 5.09-.471.128zm-17.594 9.333a.943.943 0 0 1-.817-.479.963.963 0 0 1 .346-1.303l8.677-5.09a.936.936 0 0 1 1.285.348.966.966 0 0 1-.346 1.306l-8.677 5.09-.468.128zm-16.424 9.333a.937.937 0 0 1-.815-.478.962.962 0 0 1 .344-1.303l8.677-5.09a.938.938 0 0 1 1.285.348.965.965 0 0 1-.345 1.306l-8.678 5.09-.468.127zM101.136 221.6a.839.839 0 0 1-.729-.443.906.906 0 0 1 .31-1.206l3.02-1.836a.828.828 0 0 1 1.15.325.911.911 0 0 1-.309 1.21l-3.02 1.832-.422.118zM83.59 232.4a.947.947 0 0 1-.816-.492c-.259-.47-.106-1.072.346-1.341l8.703-5.239a.93.93 0 0 1 1.286.359 1.005 1.005 0 0 1-.344 1.344l-8.703 5.238-.472.131zM65.945 242a.948.948 0 0 1-.82-.492c-.258-.47-.105-1.072.347-1.341l8.702-5.239a.933.933 0 0 1 1.289.359 1.008 1.008 0 0 1-.347 1.344l-8.702 5.238-.47.131z"/>
        <path fill="#DAD6C4" d="M137.136 200.6a.839.839 0 0 1-.729-.443.906.906 0 0 1 .31-1.206l3.02-1.836a.828.828 0 0 1 1.15.325.911.911 0 0 1-.309 1.21l-3.02 1.832-.422.118zm-17.547 10.8a.947.947 0 0 1-.816-.492c-.259-.47-.106-1.072.346-1.341l8.703-5.239a.93.93 0 0 1 1.286.359 1.005 1.005 0 0 1-.344 1.344l-8.703 5.238-.472.131zm-17.644 9.6a.948.948 0 0 1-.82-.492c-.258-.47-.105-1.072.347-1.341l8.702-5.239a.933.933 0 0 1 1.289.359 1.008 1.008 0 0 1-.347 1.344l-8.702 5.238-.47.131zM268.747 276.017a1.026 1.026 0 0 1-.51-1.914l.226-.132a1.026 1.026 0 0 1 1.024 1.778l-.227.131-.513.137zm-18.905 10.94a1.026 1.026 0 0 1-.513-1.914l9.454-5.47a1.038 1.038 0 0 1 1.4.374 1.029 1.029 0 0 1-.377 1.403l-9.454 5.47-.51.136zm-18.91 10.939a1.025 1.025 0 0 1-.513-1.914l9.456-5.47a1.037 1.037 0 0 1 1.4.374 1.027 1.027 0 0 1-.377 1.403l-9.456 5.47-.51.137zm-18.909 10.94a1.026 1.026 0 0 1-.51-1.914l9.454-5.47a1.033 1.033 0 0 1 1.397.374 1.029 1.029 0 0 1-.373 1.403l-9.454 5.47-.514.136z"/>
        <path fill="#DAD6C4" d="M325.747 243.017a1.026 1.026 0 0 1-.51-1.914l.226-.132a1.026 1.026 0 0 1 1.024 1.778l-.227.131-.513.137zm-18.905 10.94a1.026 1.026 0 0 1-.513-1.914l9.454-5.47a1.038 1.038 0 0 1 1.4.374 1.029 1.029 0 0 1-.377 1.403l-9.454 5.47-.51.136zm-18.91 10.939a1.025 1.025 0 0 1-.513-1.914l9.456-5.47a1.037 1.037 0 0 1 1.4.374 1.027 1.027 0 0 1-.377 1.403l-9.456 5.47-.51.137zm-18.909 10.94a1.026 1.026 0 0 1-.51-1.914l9.454-5.47a1.033 1.033 0 0 1 1.397.374 1.029 1.029 0 0 1-.373 1.403l-9.454 5.47-.514.136z"/>
    </g>
</svg>
