<svg xmlns="http://www.w3.org/2000/svg" width="242" height="258" viewBox="0 0 242 258">
    <g fill="none" fill-rule="evenodd">
        <path fill="#FCCDA5" d="M203.913 19.513c.95 3.09 0 6.29 0 6.29s-3.657 4.434-5.413 7.392c-3.72 1.656-4.5 5.03-4.5 5.03l2.605 2.512L209.417 42l10.024-3.4L224 33.194s-.764-7.32-1.77-8.877c-1.01-1.557-3.16-2.137-3.16-2.137L207.874 16l-4.24 1.844s-.355.492.278 1.669"/>
        <path fill="#F0B380" d="M218.812 22.014c.643 1.623.203 6.845-10.62 1.924-1.394-.87-1.552-1.862-1.632-3.233-.76.303-1.794.646-2.548-1.332-.36-1.44 7.197-1.373 7.197-1.373s7.36 3.65 7.603 4.014M227.089 42.585s.167 12.673-.022 13.31c-.185.635 1.579 2.105 1.579 2.105l1.355-.65s4.738-18.92 3.9-21.15c-.835-2.225-5.61-6.2-5.61-6.2L226 33.7l1.089 8.885"/>
        <path fill="#DE995F" d="M228 38.533c2.427 1.466 4-1.476 4-1.476s-2.045 1.384-4 1.476"/>
        <path fill="#CE4422" d="M196.04 76.19c1.457 13.093-11.058 38.981 6.15 32.9 24.634-17.159 17.996-31.257 17.996-31.257s-25.291-5.072-24.146-1.643"/>
        <path fill="#000" d="M185.512 126c-.304.597-.528 1.233-.511 2.122.026 1.615 1.763 2.69 1.763 2.69s4.438 11.13 11.073 7.437c.569-.316-.437-2.303-1.693-4.594L185.512 126"/>
        <path fill="#FCCDA5" d="M196.56 133.582c-.59-1.067-2.905-5.157-3.258-6.646-1.117-18.734 6.744-23.588 6.693-25.645C202.042 97.903 209 90.525 209 90.525L203.372 77l-7.655 1.254s-2.366 16.02-3.854 19.396c-1.485 3.378-3.028 3.167-4.143 6.65-1.115 3.486 1.115 11.16-.476 18.84-.252 1.2-.825 1.944-1.244 2.783 0 0 7.432 13.366 10.56 7.66"/>
        <path fill="#CE4422" d="M196.036 79s-1.56 7.935-2.036 10.944c5.57.798 8-7.135 8-7.135L196.036 79"/>
        <path fill="#000" d="M227.964 133.295c2.492 1.809 4.937 3.93 3.708 5.854-2.224 2.955-8.46-2.638-10.05-3.85-2.058-.327-5.071-1.87-5.514-3.573-.192-.72-.098-1.192.05-1.726l11.806 3.295"/>
        <path fill="#F0B380" d="M215.74 129.674c.222-.7.562-1.509.423-3.172C216.163 122.522 213 112 213 112l8.606 4.991s-.193 9.663 2.355 12.627c.407.772 3.353 2.479 4.451 3.224 3.874 6.289-12.672-3.168-12.672-3.168"/>
        <path fill="#FA5932" d="M196.116 79.408c4.918 9.393 2.935 42.271 32.884 39.417-2.275-5.397-2.127-23.172-2.127-23.172s-33.074-19.709-30.757-16.245"/>
        <path fill="#232323" d="M196.113 78.406c4.77 9.33 5.214 33.724 30.887 26.161-.192-4.655-1.057-10.025-1.057-10.025s-32.078-19.577-29.83-16.136"/>
        <path fill="#181818" d="M217.151 103c4.023 0 7.639-1.355 9.849-1.8-.01-.265-.016-.526-.024-.783-3.407.839-6.32 1.212-8.827 1.212-13.954 0-15.338-11.59-19.33-19.214A23.071 23.071 0 0 1 197 80c.748 1.508 2.042 4.167 2.309 5.06C203.79 99.784 210.954 103 217.15 103"/>
        <path fill="#FA5932" d="M196.047 78.038c7.51 7.965 4.71 29.679 30.84 22.545.166-1.987.134-6.56 0-10.989C226.64 81.385 225.744 75 225.744 75s-31.112 2.085-29.697 3.038"/>
        <path fill="#232323" d="M196.048 78.066C203.21 91.379 218.663 92.594 228 89.729A255.649 255.649 0 0 1 226.42 75s-31.82 2.104-30.372 3.066"/>
        <path fill="#AB7E00" d="M226.531 85c-.312-7.412-1.062-10-1.062-10s.6 3.883.998 9.498c.02.167.042.333.064.502"/>
        <path fill="#952828" d="M226.499 85c-.398-5.911-.998-10-.998-10s.324 4.322.998 10"/>
        <path fill="#181818" d="M218.807 88c3.479 0 6.444-.761 8.193-2.359l-.04-1.114c-.02-.16-.04-.318-.058-.478C226.292 78.911 226 75 226 75s-29.986 1.922-30 2.867c0 .022.014.043.047.063C201.17 84.372 211.21 88 218.807 88"/>
        <path fill="#FA5932" d="M199.703 66.621s-3.728 5.75-3.703 11.157c8.131 5.514 16.835 12.17 30.976 7.818.312-6.465-2.487-21.574-2.487-21.574L212.697 61l-12.994 5.621"/>
        <path fill="#232323" d="M198 45.655s7.588 11.339 7.588 13.54c0 2.196-5.533 9-5.033 8.217-1.292 2.775 4.102 11.569 19.663 2.775 5.804-2.984 5.03-5.342 5.03-5.342s-.482-16.702 0-17.588c1-.85 3.249-2.39 3.717-5.197.463-2.812-3.844-8.06-3.844-8.06l-6.065 6.66L198 45.655"/>
        <path fill="#000" d="M207 47c.625 8.298 10 3.764 10 3.764s-7.386 2.315-10-3.764"/>
        <path fill="#FCCDA5" d="M189.738 46.522S182.004 57.31 182 60.452c-.004 4.322 16.617 12.514 16.617 12.514s8.022 6.155 11.326.931c.723-2.7-5.671-3.98-5.671-3.98s.87-1.28-1.052-2.462c-1.343-.72-4.157 1.342-4.157 1.342s-7.273-8.669-9.325-10.428c.538-.576 9.225-9.862 10.264-11.847 1.033-1.988-4.108-3.522-4.108-3.522l-6.156 3.522M216.9 8.113c3.32 4.882 1.773 14.873 1.52 16.084-.246 1.211-1.145 1.683-2.195 1.786-4.041.212-6.667-1.657-7.476-2.456-.809-.802-1.409-3.118-1.409-3.118s-1.398.632-2.568-.732c-.82-.852-1.772-1.845-1.772-1.845l1.395-5.678L208.888 6l6.337.524s.55.65 1.675 1.589"/>
        <path fill="#000" d="M204 4.503A4.499 4.499 0 0 1 199.498 9 4.5 4.5 0 1 1 204 4.503"/>
        <path fill="#000" d="M203.885 18.866s-1.69-2.952-.405-3.828c1.29-.875 1.692 1.913 3.46 1.992 1.77.081 2.732-6.132 2.732-6.132s7.562-1.675 7.322-4.303c-.243-2.63-11.262-10.835-17.372-.56-1.203 1.595-2.655 6.535-.564 10.197 2.088 3.667 4.827 2.634 4.827 2.634"/>
        <path fill="#FA5932" d="M194.853 38.277c.902.312 16.143 4.965 24.266-.682 7.158-7.578 3.795-12.495 3.717-13.463-.08-.966 3.529 3.617 7.164 5.898-1.282 1.072 1.932 14.025-10.005 8.813-3.657 18.44-23.79 5.646-29.995 8.064 2.386-3.803 3.947-8.938 4.853-8.63"/>
        <path fill="#232323" d="M218 36.287s4.035-2.317 3.818-12.047c-.434-1.17 4.143 2.325 4.143 2.325s1.023 9.113-7.444 10.435l-.517-.713"/>
        <path fill="#FA5932" d="M217.724 38c-7.285 3.737-21.734.89-23.385.375-1.653-.512-2.182 3.095-3.339 4.597 19.012 6.381 27.86-4.336 27.86-4.336s.728.177-1.136-.636"/>
        <path fill="#A62626" d="M220.606 37.313c.56 1.042.518 2.186-.092 2.567-.61.376-1.557-.16-2.118-1.198-.561-1.036-.521-2.181.089-2.56s1.56.157 2.121 1.191"/>
        <path fill="#F0B380" d="M225.108 57.749c0 1.109.08 2.73.08 2.73s-3.14 4.686-1.897 7.395c.268.59 3.257-.984 4.523-2.898C229.08 63.063 230 56.46 230 56.46s-1.578-1.653-2.7-1.44c-1.12.217-2.192 1.617-2.192 2.73"/>
        <path fill="#FA5932" d="M210.297 11.505c.414-.166.703-.562.703-1.028 0-.533-.382-.978-.89-1.08l.004-.025a1.11 1.11 0 0 0-1.613-.98 1.105 1.105 0 0 0-.847-.392c-.615 0-1.11.493-1.11 1.104l.017.172a1.104 1.104 0 0 0-.835-.379c-.617 0-1.114.494-1.114 1.104 0 .384.198.721.497.917A1.113 1.113 0 0 0 204 12.025a1.11 1.11 0 0 0 1.593.99l.017.02a1.065 1.065 0 0 0-.183.596 1.113 1.113 0 0 0 2.058.58c.144.455.563.789 1.066.789a1.11 1.11 0 0 0 1.113-1.104l-.044-.3.269.035c.617 0 1.111-.492 1.111-1.103 0-.465-.289-.864-.703-1.023"/>
        <path fill="#A62626" d="M209 9.46c1.686-1.084 2 1.358 2 1.358s-.643-1.618-2-1.358M210 11.368c-.109 2.084-2 .962-2 .962s1.478.364 2-.962"/>
        <path fill="#A62626" d="M208.748 11.98c-2.072.257-1.388-1.98-1.388-1.98s-.034 1.656 1.388 1.98M208.52 11.565c-.46-1.194 1.048-1.13 1.048-1.13s-1.048.234-1.048 1.13M209.81 11.232c1.117.636-.093 1.536-.093 1.536s.662-.842.094-1.536"/>
        <path fill="#DAD6C4" d="M115.78 109.75l.354.095 6.512 3.818a.722.722 0 0 1 .26.98.702.702 0 0 1-.965.261l-6.512-3.818a.72.72 0 0 1-.26-.977.703.703 0 0 1 .612-.359zm-12.329-7l.354.095 6.514 3.818a.723.723 0 0 1 .258.98.7.7 0 0 1-.963.261l-6.514-3.818a.722.722 0 0 1-.26-.977.703.703 0 0 1 .611-.359zm-13.207-7.875l.352.095 6.513 3.819a.722.722 0 0 1 .26.977.7.7 0 0 1-.965.262l-6.513-3.819a.722.722 0 0 1-.26-.977.71.71 0 0 1 .613-.357zm-13.21-7l.352.095 6.514 3.82a.722.722 0 0 1 .26.977.703.703 0 0 1-.965.262l-6.514-3.82a.721.721 0 0 1-.258-.977.705.705 0 0 1 .611-.357zM64.706 80l.353.095 6.512 3.82a.72.72 0 0 1 .26.977.7.7 0 0 1-.965.262l-6.512-3.82a.72.72 0 0 1-.26-.977.705.705 0 0 1 .612-.357zM133.78 252.75l.354.095 6.512 3.818a.722.722 0 0 1 .26.98.702.702 0 0 1-.965.261l-6.512-3.818a.72.72 0 0 1-.26-.977.703.703 0 0 1 .612-.359zm-12.329-7l.354.095 6.514 3.818a.723.723 0 0 1 .258.98.7.7 0 0 1-.963.261l-6.514-3.818a.722.722 0 0 1-.26-.977.703.703 0 0 1 .611-.359zm-13.207-7.875l.352.095 6.513 3.819a.722.722 0 0 1 .26.977.7.7 0 0 1-.965.262l-6.513-3.819a.722.722 0 0 1-.26-.977.71.71 0 0 1 .613-.357zm-13.21-7l.352.095 6.514 3.82a.722.722 0 0 1 .26.977.703.703 0 0 1-.965.262l-6.514-3.82a.721.721 0 0 1-.258-.977.705.705 0 0 1 .611-.357zM82.706 223l.353.095 6.512 3.82a.72.72 0 0 1 .26.977.7.7 0 0 1-.965.262l-6.512-3.82a.72.72 0 0 1-.26-.977.705.705 0 0 1 .612-.357zM181.78 147.75l.354.095 6.512 3.818a.722.722 0 0 1 .26.98.702.702 0 0 1-.965.261l-6.512-3.818a.72.72 0 0 1-.26-.977.703.703 0 0 1 .612-.359zm-12.329-7l.354.095 6.514 3.818a.723.723 0 0 1 .258.98.7.7 0 0 1-.963.261l-6.514-3.818a.722.722 0 0 1-.26-.977.703.703 0 0 1 .611-.359zm-13.207-7.875l.352.095 6.513 3.819a.722.722 0 0 1 .26.977.7.7 0 0 1-.965.262l-6.513-3.819a.722.722 0 0 1-.26-.977.71.71 0 0 1 .613-.357zm-13.21-7l.352.095 6.514 3.82a.722.722 0 0 1 .26.977.703.703 0 0 1-.965.262l-6.514-3.82a.721.721 0 0 1-.258-.977.705.705 0 0 1 .611-.357zM130.706 118l.353.095 6.512 3.82a.72.72 0 0 1 .26.977.7.7 0 0 1-.965.262l-6.512-3.82a.72.72 0 0 1-.26-.977.705.705 0 0 1 .612-.357zM234.729 178.75l.356.095 6.56 3.818a.72.72 0 0 1 .26.98.708.708 0 0 1-.97.261l-6.56-3.818a.72.72 0 0 1-.261-.977.71.71 0 0 1 .615-.359zm-13.3-7.875l.354.095 6.56 3.819c.34.196.455.635.26.977a.707.707 0 0 1-.97.262l-6.56-3.819a.716.716 0 1 1 .356-1.334zm-13.303-7l.354.095 6.56 3.82c.341.196.457.636.262.977a.71.71 0 0 1-.972.262l-6.56-3.82a.718.718 0 0 1-.26-.977.711.711 0 0 1 .616-.357zm-12.06-7.78l6.558 3.82c.341.196.459.635.262.977a.708.708 0 0 1-.972.262l-6.557-3.82a.717.717 0 0 1-.261-.977.71.71 0 0 1 .615-.357l.356.095zM12.78 192.25l.354-.095 6.512-3.818a.722.722 0 0 0 .26-.98.702.702 0 0 0-.965-.261l-6.512 3.818a.72.72 0 0 0-.26.977.703.703 0 0 0 .612.359zm-12.329 7l.354-.095 6.514-3.818a.723.723 0 0 0 .258-.98.7.7 0 0 0-.963-.261L.1 197.914a.722.722 0 0 0-.26.977.703.703 0 0 0 .611.359zm-13.207 7.875l.352-.095 6.513-3.819a.722.722 0 0 0 .26-.977.7.7 0 0 0-.965-.262l-6.513 3.819a.722.722 0 0 0-.26.977.71.71 0 0 0 .613.357zm-13.21 7l.352-.095 6.514-3.82a.722.722 0 0 0 .26-.977.703.703 0 0 0-.965-.262l-6.514 3.82a.721.721 0 0 0-.258.977c.132.23.369.357.611.357zM-38.294 222l.353-.095 6.512-3.82a.72.72 0 0 0 .26-.977.7.7 0 0 0-.965-.262l-6.512 3.82a.72.72 0 0 0-.26.977c.132.23.37.357.612.357zM160.78 82.75l.354.095 6.512 3.818a.722.722 0 0 1 .26.98.702.702 0 0 1-.965.261l-6.512-3.818a.72.72 0 0 1-.26-.977.703.703 0 0 1 .612-.359zm-12.329-7l.354.095 6.514 3.818a.723.723 0 0 1 .258.98.7.7 0 0 1-.963.261l-6.514-3.818a.722.722 0 0 1-.26-.977.703.703 0 0 1 .611-.359zm-13.207-7.875l.352.095 6.513 3.819a.722.722 0 0 1 .26.977.7.7 0 0 1-.965.262l-6.513-3.819a.722.722 0 0 1-.26-.977.71.71 0 0 1 .613-.357zm-13.21-7l.352.095 6.514 3.82a.722.722 0 0 1 .26.977.703.703 0 0 1-.965.262l-6.514-3.82a.721.721 0 0 1-.258-.977.705.705 0 0 1 .611-.357zM109.706 53l.353.095 6.512 3.82a.72.72 0 0 1 .26.977.7.7 0 0 1-.965.262l-6.512-3.82a.72.72 0 0 1-.26-.977.705.705 0 0 1 .612-.357z"/>
        <path fill="#DAD6C4" d="M69.78 215.75l.354.095 6.512 3.818a.722.722 0 0 1 .26.98.702.702 0 0 1-.965.261l-6.512-3.818a.72.72 0 0 1-.26-.977.703.703 0 0 1 .612-.359zm-12.329-7l.354.095 6.514 3.818a.723.723 0 0 1 .258.98.7.7 0 0 1-.963.261l-6.514-3.818a.722.722 0 0 1-.26-.977.703.703 0 0 1 .611-.359zm-13.207-7.875l.352.095 6.513 3.819a.722.722 0 0 1 .26.977.7.7 0 0 1-.965.262l-6.513-3.819a.722.722 0 0 1-.26-.977.71.71 0 0 1 .613-.357zm-13.21-7l.352.095 6.514 3.82a.722.722 0 0 1 .26.977.703.703 0 0 1-.965.262l-6.514-3.82a.721.721 0 0 1-.258-.977.705.705 0 0 1 .611-.357zM18.706 186l.353.095 6.512 3.82a.72.72 0 0 1 .26.977.7.7 0 0 1-.965.262l-6.512-3.82a.72.72 0 0 1-.26-.977.705.705 0 0 1 .612-.357zM2.78 177.75l.354.095 6.512 3.818a.722.722 0 0 1 .26.98.702.702 0 0 1-.965.261l-6.512-3.818a.72.72 0 0 1-.26-.977.703.703 0 0 1 .612-.359zm-12.329-7l.354.095 6.514 3.818a.723.723 0 0 1 .258.98.7.7 0 0 1-.963.261l-6.514-3.818a.722.722 0 0 1-.26-.977.703.703 0 0 1 .611-.359zm-13.207-7.875l.352.095 6.513 3.819a.722.722 0 0 1 .26.977.7.7 0 0 1-.965.262l-6.513-3.819a.722.722 0 0 1-.26-.977.71.71 0 0 1 .613-.357zm-13.21-7l.352.095 6.514 3.82a.722.722 0 0 1 .26.977.703.703 0 0 1-.965.262l-6.514-3.82a.721.721 0 0 1-.258-.977.705.705 0 0 1 .611-.357zM-48.294 148l.353.095 6.512 3.82a.72.72 0 0 1 .26.977.7.7 0 0 1-.965.262l-6.512-3.82a.72.72 0 0 1-.26-.977.705.705 0 0 1 .612-.357zM20.253 103.8a.708.708 0 0 1 .353 1.324l-6.542 3.781a.71.71 0 0 1-.708-1.23l6.541-3.78.356-.095zm12.385-6.933a.708.708 0 0 1 .353 1.323l-6.544 3.782a.71.71 0 0 1-.967-.26.71.71 0 0 1 .259-.97l6.544-3.78.355-.095zm13.267-6.934a.71.71 0 0 1 .355 1.324l-6.543 3.782a.711.711 0 0 1-.969-.26.711.711 0 0 1 .26-.97l6.544-3.781.353-.095zM58.291 83a.708.708 0 0 1 .355 1.324l-6.544 3.781a.713.713 0 0 1-.97-.26.711.711 0 0 1 .262-.969l6.543-3.781.354-.095zM-31.747 131.8a.708.708 0 0 1 .353 1.324l-6.542 3.781a.71.71 0 0 1-.708-1.23l6.541-3.78.356-.095zm12.385-6.933a.708.708 0 0 1 .353 1.323l-6.544 3.782a.71.71 0 0 1-.967-.26.71.71 0 0 1 .259-.97l6.544-3.78.355-.095zm13.267-6.934a.71.71 0 0 1 .355 1.324l-6.543 3.782a.711.711 0 0 1-.969-.26.711.711 0 0 1 .26-.97l6.544-3.781.353-.095zM6.291 111a.708.708 0 0 1 .355 1.324l-6.544 3.781a.713.713 0 0 1-.97-.26.711.711 0 0 1 .262-.969l6.543-3.781.354-.095zM71.253 73.8a.708.708 0 0 1 .353 1.324l-6.542 3.781a.71.71 0 0 1-.708-1.23l6.541-3.78.356-.095zm12.385-6.933a.708.708 0 0 1 .353 1.323l-6.544 3.782a.71.71 0 0 1-.967-.26.71.71 0 0 1 .259-.97l6.544-3.78.355-.095zm13.267-6.934a.71.71 0 0 1 .355 1.324l-6.543 3.782a.711.711 0 0 1-.969-.26.711.711 0 0 1 .26-.97l6.544-3.781.353-.095zM109.291 53a.708.708 0 0 1 .355 1.324l-6.544 3.781a.713.713 0 0 1-.97-.26.711.711 0 0 1 .262-.969l6.543-3.781.354-.095zM118.253 153.8a.708.708 0 0 1 .353 1.324l-6.542 3.781a.71.71 0 0 1-.708-1.23l6.541-3.78.356-.095zm12.385-6.933a.708.708 0 0 1 .353 1.323l-6.544 3.782a.71.71 0 0 1-.967-.26.71.71 0 0 1 .259-.97l6.544-3.78.355-.095zm13.267-6.934a.71.71 0 0 1 .355 1.324l-6.543 3.782a.711.711 0 0 1-.969-.26.711.711 0 0 1 .26-.97l6.544-3.781.353-.095zM156.291 133a.708.708 0 0 1 .355 1.324l-6.544 3.781a.713.713 0 0 1-.97-.26.711.711 0 0 1 .262-.969l6.543-3.781.354-.095zM115.253 233.8a.708.708 0 0 1 .353 1.324l-6.542 3.781a.71.71 0 0 1-.708-1.23l6.541-3.78.356-.095zm12.385-6.933a.708.708 0 0 1 .353 1.323l-6.544 3.782a.71.71 0 0 1-.967-.26.71.71 0 0 1 .259-.97l6.544-3.78.355-.095zm13.267-6.934a.71.71 0 0 1 .355 1.324l-6.543 3.782a.711.711 0 0 1-.969-.26.711.711 0 0 1 .26-.97l6.544-3.781.353-.095zM153.291 213a.708.708 0 0 1 .355 1.324l-6.544 3.781a.713.713 0 0 1-.97-.26.711.711 0 0 1 .262-.969l6.543-3.781.354-.095z"/>
        <path fill="#FA5932" d="M175.999 89c1.798 0 3.5.426 4.792 1.197 1.424.85 2.209 2.033 2.209 3.322 0 1.292-.785 2.472-2.209 3.323-2.583 1.544-7 1.544-9.582 0-1.424-.851-2.207-2.031-2.209-3.323.002-1.29.785-2.471 2.209-3.322 1.29-.771 2.992-1.197 4.79-1.197z"/>
    </g>
</svg>
