<svg xmlns="http://www.w3.org/2000/svg" width="36" height="36" viewBox="0 0 36 36">
    <g fill="none" fill-rule="evenodd">
        <path fill="#FFF" d="M18 0C8.075 0 0 8.075 0 18s8.075 18 18 18 18-8.075 18-18S27.925 0 18 0z"/>
        <circle cx="18" cy="4" r="1" fill="#331710"/>
        <circle cx="18" cy="32" r="1" fill="#331710"/>
        <circle cx="4" cy="19" r="1" fill="#331710"/>
        <circle cx="32" cy="19" r="1" fill="#331710"/>
        <circle cx="18" cy="19" r="3" fill="#331710"/>
        <path fill="#331710" d="M25.985 11.793l-6.93 5.704a2.331 2.331 0 0 0-2.11 0l-4.93-3.704c-.655-.35-1.481-.123-1.845.508-.363.632-.127 1.428.529 1.778l5.07 3.78c.204 1.008 1.125 1.77 2.23 1.77 1.107 0 2.027-.762 2.232-1.77l7.07-5.78c.655-.35.891-1.146.528-1.778-.363-.631-1.189-.859-1.844-.508z"/>
    </g>
</svg>
