<svg xmlns="http://www.w3.org/2000/svg" width="51" height="49" viewBox="0 0 51 47">
    <defs>
        <linearGradient id="a" x1="62.209%" x2="62.209%" y1="100%" y2="0%">
            <stop offset="0%" stop-color="#FA5932"/>
            <stop offset="100%" stop-color="#CD141D"/>
        </linearGradient>
        <linearGradient id="b" x1="50%" x2="50%" y1="0%" y2="100%">
            <stop offset="0%" stop-color="#E0660E"/>
            <stop offset="100%" stop-color="#FFAF33"/>
        </linearGradient>
        <linearGradient id="c" x1="50%" x2="50%" y1="0%" y2="100%">
            <stop offset="0%" stop-color="#E0660E"/>
            <stop offset="100%" stop-color="#FFAF33"/>
        </linearGradient>
        <linearGradient id="d" x1="50%" x2="50%" y1="0%" y2="100%">
            <stop offset="0%" stop-color="#FA0"/>
            <stop offset="100%" stop-color="#FFC900"/>
        </linearGradient>
    </defs>
    <g fill="none" fill-rule="nonzero">
        <path fill="url(#a)" d="M47.178 21.16H3.822a.82.82 0 0 0-.822.817v25.365a.82.82 0 0 0 .822.818h43.356a.82.82 0 0 0 .822-.818V21.977a.82.82 0 0 0-.822-.817z"/>
        <path fill="#B0161E" d="M47.178 21H3.822a.811.811 0 0 0-.822.8V25h45v-3.2c0-.442-.368-.8-.822-.8z"/>
        <path fill="#FFC900" d="M29.263 21h-7.526c-.407 0-.737.366-.737.817v25.366c0 .451.33.817.737.817h7.526c.407 0 .737-.366.737-.817V21.818c0-.452-.33-.818-.737-.818z"/>
        <path fill="#F5BA3D" d="M29.263 21h-7.526c-.407 0-.737.36-.737.803V25h9v-3.197c0-.443-.33-.803-.737-.803z"/>
        <path fill="#FFC900" d="M45.531 6.163c-.796-2.074-2.052-4.1-3.36-5.42-.48-.484-1.126-.73-1.861-.714-2.438.057-6.41 3.116-11.805 9.092a.811.811 0 0 0-.21.544v4.294c0 .449.364.812.812.812h12.488c2.782 0 3.93-1.354 4.404-2.49.631-1.513.465-3.686-.468-6.118z"/>
        <path fill="url(#b)" d="M45.996 7.578a.81.81 0 0 0-.106-.235c-1.226-1.853-3.875-1.16-5.881-.251-5.828 2.638-8.235 6.272-8.335 6.425a.812.812 0 0 0 .681 1.254h9.24c1.77 0 3.083-.543 3.902-1.615.973-1.273 1.146-3.202.499-5.578z"/>
        <path fill="#FA0" d="M22.91 9.121C17.513 3.145 13.541.086 11.103.03c-.737-.016-1.381.23-1.861.714-1.308 1.32-2.564 3.346-3.36 5.42-.933 2.432-1.099 4.605-.468 6.119.474 1.136 1.622 2.49 4.404 2.49h12.488a.812.812 0 0 0 .812-.813V9.665a.81.81 0 0 0-.21-.544z"/>
        <path fill="url(#c)" d="M19.74 13.517c-.1-.153-2.506-3.787-8.335-6.425-2.006-.909-4.654-1.602-5.88.251a.813.813 0 0 0-.106.235c-.647 2.376-.475 4.305.498 5.578.819 1.071 2.132 1.615 3.903 1.615h9.24a.812.812 0 0 0 .68-1.254z"/>
        <path fill="url(#d)" d="M29.133 8h-7.266c-.479 0-.867.325-.867.725v4.55c0 .4.388.725.867.725h7.266c.479 0 .867-.325.867-.725v-4.55c0-.4-.388-.725-.867-.725z"/>
        <path fill="#FA5932" d="M50.195 13H.805C.36 13 0 13.34 0 13.758v7.484c0 .419.36.758.805.758h49.39c.445 0 .805-.34.805-.758v-7.484c0-.419-.36-.758-.805-.758z"/>
        <path fill="#FFDB54" d="M20 13h11v9H20z"/>
    </g>
</svg>
