<svg xmlns="http://www.w3.org/2000/svg" width="200" height="201" viewBox="0 0 200 201">
    <g fill="none" fill-rule="nonzero">
        <path fill="#FFB400" d="M100.455 200.922C52.66 200.885 11.5 167.15 2.01 120.238-7.479 73.325 17.327 26.207 61.338 7.544c50.978-20.922 109.272 3.15 130.713 53.975 21.44 50.826-1.964 109.465-52.478 131.486a99.735 99.735 0 0 1-39.118 7.917z"/>
        <path fill="#F3E6C1" d="M132.403 56.845s9.141-12.537-3.37-24.587c0 0 8.975 1.74 12.773 10.387 3.09 7.046-1.614 15.42-1.614 15.42l-7.79-1.22zM118.894 31.336c-.535.05-12.563 18.52-1.05 28.365l-7.537 3.893s-6.63-6.74-4.972-17.597c1.906-12.425 13.559-14.66 13.559-14.66z"/>
        <path fill="#301610" d="M112.442 152.537l4.903 2.302c3.483-7.259 9.844-22.12 9.844-22.12s-2.974 1.346-8.17 3.037l-6.577 16.78z"/>
        <path fill="#F3E6C1" d="M110.6 155.723s3.617 1.472 4.325 1.876c.178.102.995-1.538 2.126-4.05l-4.776-2.397-1.676 4.571z"/>
        <path fill="#301610" d="M72.294 163.134l6.047-1.551-4.403-19.745c-3.96-.073-8.032-.338-12.187-.824l10.543 22.12z"/>
        <path fill="#F3E6C1" d="M74.09 167.742l5.173-.573-1.258-5.879-6.116 1.636zM43.318 167.462l6.68 1.202.693-5.145-7.26-1.307c-.072 3.268-.113 5.25-.113 5.25zM132.121 156.682l4.767-.876.44-6.497-6.452 1.458z"/>
        <path fill="#301610" d="M152.442 84.466l1.475-24.802c-13.18-2.375-30.288-4.626-40.615-2.74C94.7 60.324 90.876 84.94 90.876 84.94s-43.5 18.682-44.945 22.922c-1.185 3.484-2.265 41.535-2.613 55.02l7.505 1.173 3.586-23.082c2.308.407 4.597.74 6.865.999 4.104.475 8.12.724 12.038.795 19.417.345 36.016-3.747 45.387-6.708 5.197-1.644 8.174-2.932 8.174-2.932l3.735 18.08 6.207-1.432 4.234-64.09 11.393-1.22z"/>
        <path fill="#F3E6C1" d="M174.194 62.958s-1.202-.164-2.174-.394c.11-2.715-.064-6.417-1.809-6.601-1.854-.196-3.914 3.023-4.168 5.332-1.06-.227-.868-.224-2.139-.481-.332-2.426-1.144-5.894-2.97-5.48-1.91.43-2.928 2.804-3.375 4.241a387.77 387.77 0 0 0-3.055-.553l-1.509 24.849 18.183-1.907 3.016-19.006z"/>
        <path fill="#301610" d="M105.683 60.735c3.233-4.903-20.044-18.339-20.044-18.339S82.032 52.14 89.71 59.11c6.002 5.449 14.725 3.51 15.972 1.626zM142.858 57.627c-.144 2.522 16.08-6.267 17.51-15.806 0 .005-16.372-4.098-17.51 15.806z"/>
        <path fill="#F3E6C1" d="M123.134 61.751a24.39 24.39 0 0 1 1.482 2.635c.225.453.436.914.625 1.385.188.471.377.948.528 1.439.156.497.283 1.002.38 1.514.104.528.14 1.068.107 1.606a3.15 3.15 0 0 1-.549 1.629 3.816 3.816 0 0 1-.312.336c-.116.1-.24.188-.37.266l-.2.103-.1.049-.055.018h-.034l-.044.012a1.595 1.595 0 0 1-.189.045c-.091.01-.184.019-.277.022a1.178 1.178 0 0 1-.24-.015c-.073-.01-.15-.017-.221-.03-.135-.039-.28-.068-.407-.116-.253-.09-.5-.198-.737-.325a9.237 9.237 0 0 1-1.301-.842 24.722 24.722 0 0 1-2.277-1.987 45.405 45.405 0 0 1-2.061-2.187c-.65-.76-1.301-1.515-1.911-2.323l.42.027c-.635.561-1.274 1.11-1.918 1.65-.645.538-1.295 1.074-1.952 1.606.566-.63 1.14-1.253 1.72-1.87a130.97 130.97 0 0 1 1.756-1.83l.201-.209.217.236a78.072 78.072 0 0 0 2.03 2.156c.693.7 1.382 1.405 2.103 2.068a24.324 24.324 0 0 0 2.215 1.886c.376.284.769.542 1.178.772.195.107.397.2.605.278.1.04.197.057.296.09.049.01.093.011.14.02.04.008.082.012.123.011a.404.404 0 0 1 .09 0c.055-.01.11-.022.162-.038l.044-.012h.033l-.044.015.063-.034.13-.062a2.06 2.06 0 0 0 .236-.155c.07-.06.132-.133.199-.2.242-.341.386-.746.415-1.168.09-.909-.069-1.898-.303-2.85a26.47 26.47 0 0 0-.883-2.85 42.29 42.29 0 0 0-1.113-2.77zM129.032 62.257c.678.754 1.36 1.495 2.048 2.223l1.041 1.09 1.066 1.062c.357.351.723.692 1.095 1.023.373.331.745.66 1.135.97.382.303.783.583 1.202.838.382.248.804.434 1.25.55.18.042.369.049.552.019a.851.851 0 0 0 .403-.25c.24-.229.325-.628.322-1.056a4.994 4.994 0 0 0-.24-1.334 11.84 11.84 0 0 0-.493-1.346 20.532 20.532 0 0 0-.63-1.32c-.222-.436-.456-.871-.703-1.293a49.593 49.593 0 0 0-1.558-2.53l-.17-.245.272-.067a88.813 88.813 0 0 1 2.938-.683 88.29 88.29 0 0 1-2.81 1.068l.107-.312c.339.388.638.787.943 1.192.305.406.601.808.88 1.235.571.84 1.08 1.72 1.523 2.628.226.464.422.94.586 1.427.172.508.272 1.036.298 1.569.007.142.002.284-.013.425a2.41 2.41 0 0 1-.25.877c-.08.144-.18.279-.294.4l-.066.067-.034.034v.01l-.039.035-.027.02c-.073.05-.147.1-.222.147a.882.882 0 0 1-.24.114c-.085.03-.17.06-.256.084a2.37 2.37 0 0 1-.982-.025 5.195 5.195 0 0 1-1.548-.69c-.443-.29-.865-.609-1.263-.954a21.872 21.872 0 0 1-2.183-2.165 31.222 31.222 0 0 1-.988-1.155c-.32-.39-.635-.787-.934-1.192a34.85 34.85 0 0 1-1.718-2.49z"/>
        <ellipse cx="118.471" cy="82.172" fill="#A65354" rx="3.901" ry="3.902" transform="rotate(-35.93 118.471 82.172)"/>
        <path fill="#A65354" d="M160.356 58.989c-.986-.144-2.817 6.046-1.17 6.432 1.647.386 3.13-6.149 1.17-6.432z"/>
        <path fill="#301610" d="M47.926 105.99s-10.897 7.702-14.746 30.174l1.537.242s6.907-21.859 13.01-25.673l.2-4.742z"/>
        <path fill="#F3E6C1" d="M31.574 156.682s-5.013-3.686-4.842-9.876c.21-7.578 6.29-10.4 6.29-10.4l1.56.24s3.982 4.321 3.07 10.13c-.91 5.81-6.078 9.906-6.078 9.906zM149.309 81.989l-.215.015c-.14.008-.338.021-.608.023-.27.002-.58 0-.945-.011a14.637 14.637 0 0 1-1.224-.083l-.698-.068-.742-.106c-.507-.068-1.044-.176-1.597-.283l-.835-.196c-.282-.066-.57-.129-.845-.22-.566-.166-1.146-.331-1.709-.538l-.845-.312-.823-.346c-.272-.116-.542-.227-.803-.356l-.762-.39c-.247-.133-.499-.248-.73-.388l-.676-.416-.636-.396c-.2-.133-.383-.28-.566-.41-.36-.266-.688-.51-.97-.738-.282-.227-.507-.457-.693-.632-.38-.355-.59-.562-.59-.562s.264.147.707.412c.221.133.492.294.792.486l1.057.574c.192.103.387.222.6.332l.657.33.691.342.736.331.76.332.793.314.803.322.826.288c.543.212 1.104.377 1.651.553.548.176 1.094.331 1.621.484.534.127 1.041.29 1.533.402.492.113.955.235 1.386.331a65.19 65.19 0 0 0 2.1.443l.593.114.206.023z"/>
        <path fill="#A65354" d="M168.587 59.934c-1.25-.513-2.683 6.66-1 7.306 1.682.645 2.979-6.492 1-7.306z"/>
        <path fill="#E7AB5D" d="M159.345 63.594c-2.029 1.117-3.874 13.334 4.21 13.815 6.937.412 5.986-11.93 5.986-11.93l-2.041.206s1.093 10.289-4.565 9.552c-5.658-.737-2.363-10.807-2.363-10.807l-1.227-.836z"/>
        <path fill="#E3A85B" d="M67.974 128.118l-.214-18.37 3.208-.992-.193 22.923-4.727 1.04-7.062-20.334 3.475-1.033zM84.793 129.025l-3.023.514-.964-3.642-3.74.596.057 3.877-2.658.506-.732-21.704 5.07-.416 5.99 20.27zm-7.776-5.437l3.003-.435-3.244-10.416.241 10.851zM92.768 121.682l.213-15.118 4.423-.573 3.978 20.392-3.459.576-2.656-14.703.111 15.131-3.508.596-4.594-14.355 1.798 14.835-3.284.57-1.919-21.231 4.543-.624zM102.373 108.828c-.401-3.545.95-5.882 3.85-6.423 2.902-.541 4.701 1.124 5.06 4.473l1.109 10.741c.337 3.259-1.012 5.608-3.822 6.53-2.81.923-4.542-.503-4.922-3.952l-1.275-11.37zm4.168 10.712c.169 1.512.798 1.909 1.71 1.625.912-.284 1.429-1.023 1.273-2.51l-1.207-11.368c-.169-1.513-.816-1.983-1.752-1.793-.937.19-1.46.904-1.287 2.455l1.263 11.59zM116.327 99.684c3.13-.66 5.113.965 5.768 4.378l.129.67-3.034.633-.17-.884c-.292-1.523-.987-1.98-2.012-1.767-1.024.213-1.498.914-1.205 2.438.833 4.391 7.28 3.896 8.454 10 .654 3.413-.61 5.704-3.769 6.362-3.158.658-5.17-.952-5.826-4.365l-.25-1.32 3.036-.628.293 1.525c.292 1.524 1.04 1.938 2.059 1.725 1.018-.213 1.56-.896 1.266-2.42-.842-4.388-7.283-3.901-8.458-9.996-.644-3.42.59-5.7 3.72-6.351z"/>
        <path fill="#A65354" d="M120.22 97.249l3.083-4.38.725.511-3.083 4.381zM102.416 98.166l1.364-4.236.844.272-1.363 4.237zM79.88 99.335l.876-.147.643 3.842-.875.147zM53.47 107.967l.506-.729 3.369 2.345-.506.729zM56.332 131.37l4.662-2.097.364.81-4.662 2.097zM73.827 139.746l1.655-4.167.826.329-1.656 4.167zM91.154 132.872l.874-.158.712 3.95-.874.158zM107.043 131.977l.772-.437 1.865 3.304-.773.437zM119.635 126.576l.454-.764 4.59 2.74-.455.763zM130.21 117.05l-.256-.923c4.188-1.163 4.332-.989 4.548-.729l.06.55-.862-.43.432.216-.415.215a.425.425 0 0 0 .307.212c-.31-.009-2.23.45-3.813.89z"/>
        <path fill="#FFF" d="M17.813 80.29c.1-.082.23-.119.356-.102l1.002.173c.185.033.184.151.042.225-1.337.696-2.271 2.012-2.515 3.54-.437 2.821 1.399 5.48 4.116 5.964 2.703.48 5.343-1.403 5.812-4.208a4.984 4.984 0 0 0-1.254-4.207c-.11-.12-.075-.229.097-.2l1.002.174a.51.51 0 0 1 .319.223 6.182 6.182 0 0 1 .774 4.173c-.43 2.715-2.534 4.812-5.17 5.152-2.635.339-5.17-1.16-6.23-3.684-1.058-2.523-.386-5.468 1.651-7.233l-.002.01z"/>
        <path fill="#FFF" d="M22.589 91.244c-2.517.015-4.773-1.607-5.637-4.055-.863-2.449-.15-5.195 1.783-6.864.13-.11.298-.159.463-.135l.979.17c.207.035.248.16.254.212a.277.277 0 0 1-.173.277c-1.266.657-2.15 1.903-2.38 3.35a4.96 4.96 0 0 0 .825 3.654c1.526 2.212 4.488 2.736 6.637 1.174a4.833 4.833 0 0 0 1.957-3.16 4.7 4.7 0 0 0-1.186-3.976.285.285 0 0 1-.076-.324c.022-.046.084-.16.293-.114l.979.17a.652.652 0 0 1 .4.276 6.233 6.233 0 0 1 .782 4.181c-.496 2.976-2.984 5.153-5.9 5.162v.002zm-3.474-10.773a.348.348 0 0 0-.19.069c-1.923 1.684-2.55 4.476-1.54 6.865 1.008 2.39 3.413 3.81 5.912 3.492 2.5-.317 4.501-2.296 4.923-4.867a5.923 5.923 0 0 0-.746-3.97.357.357 0 0 0-.215-.15l-.89-.158a4.983 4.983 0 0 1 1.198 4.168 5.133 5.133 0 0 1-2.076 3.348c-2.273 1.654-5.409 1.098-7.021-1.244a5.263 5.263 0 0 1-.875-3.87c.244-1.51 1.159-2.814 2.471-3.52l-.907-.16-.044-.003zM27.506 73.459l-1.692 5.359c-.062.196-.02.256.193.309a2.694 2.694 0 0 0 1.957-.224c.66-.344 1.203-.85 1.434-1.576.23-.727.083-1.575-.206-2.022-.29-.447-.365-.687-.07-.947a.475.475 0 0 1 .73.17c.046.073.088.149.126.226a3.57 3.57 0 0 1 .254 2.839 3.706 3.706 0 0 1-1.822 2.175c-.87.454-1.885.54-2.82.242a3.723 3.723 0 0 1-2.536-3.229 3.73 3.73 0 0 1 1.967-3.607 3.188 3.188 0 0 1 2.06-.31c.218.035.549.202.425.595zm-1.372.309c-.24.048-.469.137-.679.261-.68.353-1.182.872-1.407 1.585-.215.71-.13 1.477.234 2.123.127.246.282.476.462.686.154.155.185.09.255-.134l1.364-4.31c.09-.288-.063-.245-.23-.211z"/>
        <path fill="#FFF" d="M26.728 80.184a3.714 3.714 0 0 1-3.674-3.406 3.719 3.719 0 0 1 1.968-3.598 3.2 3.2 0 0 1 2.069-.316c.192.03.363.137.474.298.077.136.09.3.035.447l-1.634 5.164a.214.214 0 0 0-.018.097c.036.018.074.03.113.039.604.163 1.247.09 1.8-.204.687-.358 1.132-.844 1.322-1.446.208-.657.07-1.451-.183-1.84s-.43-.745-.045-1.077a.565.565 0 0 1 .471-.125.64.64 0 0 1 .428.323c.044.069.084.14.12.213a3.55 3.55 0 0 1 .258 2.837 3.574 3.574 0 0 1-1.811 2.17 3.687 3.687 0 0 1-1.693.424zm-.223-7.116c-.476 0-.945.115-1.367.337a3.455 3.455 0 0 0-1.849 3.353 3.45 3.45 0 0 0 2.378 3c.87.278 1.815.197 2.626-.224a3.448 3.448 0 0 0 1.698-2.021 3.32 3.32 0 0 0-.233-2.64 2.294 2.294 0 0 0-.116-.205.397.397 0 0 0-.259-.206.297.297 0 0 0-.26.07c-.187.164-.2.29.092.746.293.456.446 1.3.214 2.056-.212.67-.698 1.205-1.447 1.594a2.73 2.73 0 0 1-1.974.227.405.405 0 0 1-.28-.164.365.365 0 0 1 0-.298l1.635-5.166a.282.282 0 0 0-.014-.239.445.445 0 0 0-.297-.173 3.215 3.215 0 0 0-.547-.047zm-1.572 5.498a.327.327 0 0 1-.214-.12 3.553 3.553 0 0 1-.465-.69 2.741 2.741 0 0 1-.233-2.145c.217-.687.692-1.225 1.42-1.602.214-.125.447-.214.69-.263l.024.125-.03-.124.03.124-.017-.127c.115-.025.245-.06.335.036.065.1.073.226.02.332l-1.316 4.155c-.043.137-.082.266-.204.298l-.04.001zm1.338-4.59l-.072.016h-.018a2.02 2.02 0 0 0-.615.237c-.668.347-1.104.835-1.3 1.454a2.51 2.51 0 0 0 .217 1.95c.118.228.262.442.428.637.012-.032.022-.069.028-.085l1.315-4.155a.562.562 0 0 0 .012-.053h.005zM30.068 65.758l3.749 1.583c.242.107.35.372.244.6l-.012.026a.515.515 0 0 1-.648.227l-3.7-1.559c-1.42-.598-2.526.142-2.974 1.06-.593 1.211-.29 2.046.9 2.545l3.96 1.667c.242.107.35.373.243.601l-.02.039a.515.515 0 0 1-.647.227l-6.003-2.512a.456.456 0 0 1-.248-.253.414.414 0 0 1 .02-.34l.027-.053a.449.449 0 0 1 .262-.234.495.495 0 0 1 .363.015l.043.018c.071.03.118-.03.095-.088-.333-.683-.11-1.475.144-1.995.592-1.212 1.97-2.51 4.202-1.574z"/>
        <path fill="#FFF" d="M32.227 71.89a.668.668 0 0 1-.251-.05l-5.822-2.425a.526.526 0 0 1-.29-.736l.025-.05a.594.594 0 0 1 .682-.316c-.285-.757.039-1.568.198-1.894.661-1.35 2.122-2.478 4.252-1.583l3.645 1.528c.304.13.44.46.305.744a.6.6 0 0 1-.342.315.668.668 0 0 1-.482-.007l-3.59-1.505c-1.268-.533-2.276.095-2.701.96-.273.551-.342 1.02-.207 1.394.136.374.465.667 1.013.894.16.071 3.84 1.61 3.84 1.61.304.13.439.46.304.744l-.021.04a.62.62 0 0 1-.558.329v.007zm-5.803-3.34a.315.315 0 0 0-.283.177l-.026.05a.309.309 0 0 0-.013.245c.03.07.087.128.161.16l5.837 2.426a.347.347 0 0 0 .258 0 .329.329 0 0 0 .185-.16l.021-.041c.072-.156-.003-.337-.17-.41 0 0-3.68-1.532-3.84-1.603-.613-.256-1.003-.61-1.16-1.042-.159-.434-.083-.968.217-1.58.467-.947 1.624-1.692 3.062-1.087l3.588 1.505a.36.36 0 0 0 .257.011.327.327 0 0 0 .19-.16.3.3 0 0 0 .018-.25.333.333 0 0 0-.18-.186l-3.645-1.528c-2.436-1.027-3.592.856-3.885 1.455-.161.314-.474 1.12-.14 1.823a.189.189 0 0 1-.045.221.216.216 0 0 1-.23.032l-.04-.018a.376.376 0 0 0-.137-.04zm.252-.187l-.013.118.056-.116a.08.08 0 0 0-.043-.002zM31.61 57.95l.028.016a.52.52 0 0 1 .183.692l-.359.658c-.076.142-.073.2.05.273l5.112 3.033c.229.142.31.447.182.692l-.016.03a.488.488 0 0 1-.665.188l-5.1-3.02c-.108-.063-.187-.053-.249.06l-.375.692a.488.488 0 0 1-.665.192l-.028-.018a.531.531 0 0 1-.183-.692s.306-.557.366-.67c.06-.115.013-.22-.123-.302l-2.796-1.659a.53.53 0 0 1-.184-.692l.015-.027a.488.488 0 0 1 .664-.19l2.837 1.682a.176.176 0 0 0 .152.035.183.183 0 0 0 .12-.1l.366-.671a.488.488 0 0 1 .668-.203z"/>
        <path fill="#FFF" d="M36.236 64.515a.583.583 0 0 1-.302-.082l-4.954-2.87a.109.109 0 0 0-.047-.019c-.061.119-.371.675-.371.675a.628.628 0 0 1-.544.325.627.627 0 0 1-.547-.318.654.654 0 0 1-.004-.642s.297-.527.357-.636c0-.038-.014-.066-.07-.097l-2.716-1.593a.634.634 0 0 1-.23-.853.626.626 0 0 1 .373-.313c.16-.05.333-.031.48.051l2.756 1.61c.06.037.06.019.075-.01l.357-.638a.614.614 0 0 1 .37-.294.601.601 0 0 1 .466.06l.026.015a.634.634 0 0 1 .231.853l-.349.626a.436.436 0 0 0-.027.054l.024.015c.118.07 4.967 2.887 4.967 2.887a.634.634 0 0 1 .23.853.638.638 0 0 1-.385.33.65.65 0 0 1-.166.011zm-5.303-3.262a.368.368 0 0 1 .184.057l4.954 2.879c.078.045.17.057.257.033a.336.336 0 0 0 .202-.165l.018-.031a.348.348 0 0 0-.128-.468l-4.967-2.887a.295.295 0 0 1-.162-.204.393.393 0 0 1 .065-.249l.349-.625a.335.335 0 0 0 .032-.259.35.35 0 0 0-.161-.21l-.028-.016a.335.335 0 0 0-.458.129l-.357.637a.303.303 0 0 1-.452.119l-2.757-1.604a.335.335 0 0 0-.46.13.363.363 0 0 0-.047.286c.023.09.081.165.161.208l2.717 1.58c.098.048.172.136.207.241a.322.322 0 0 1-.034.239l-.357.637a.355.355 0 0 0-.032.26.356.356 0 1 0 .646.096l.364-.659a.304.304 0 0 1 .181-.156.24.24 0 0 1 .063.002zM34.477 53.94c.037 1.427-.107 2.233 1.295 3.178l2.729 1.859a.494.494 0 0 1 .126.676l-.017.027a.468.468 0 0 1-.661.15l-5.476-3.69a.514.514 0 0 1-.139-.687l.02-.027a.49.49 0 0 1 .681-.156l.406.283c.117.079.143-.019.117-.093-.107-.36-.258-1.058-.225-1.4.027-.272.306-.62.615-.603a.096.096 0 0 0 .058 0c.179.013.47.194.471.483z"/>
        <path fill="#FFF" d="M38.089 60.83a.556.556 0 0 1-.317-.099l-5.248-3.522a.62.62 0 0 1-.17-.839l.018-.027a.634.634 0 0 1 .395-.268.578.578 0 0 1 .444.084l.255.17a4.411 4.411 0 0 1-.177-1.25c.03-.332.379-.73.732-.7h.064c.306.04.545.29.572.604v.394c.016 1.129.026 1.755 1.174 2.526l2.618 1.775a.59.59 0 0 1 .249.374.625.625 0 0 1-.092.466.633.633 0 0 1-.517.311zm-5.197-4.502a.533.533 0 0 0-.071 0 .355.355 0 0 0-.224.162l-.019.026a.346.346 0 0 0 .095.464l5.25 3.522a.313.313 0 0 0 .44-.098.366.366 0 0 0 .068-.284.312.312 0 0 0-.133-.199l-2.618-1.774c-1.269-.852-1.278-1.614-1.294-2.754 0-.125 0-.255-.008-.39 0-.181-.2-.307-.317-.323a.253.253 0 0 1-.078 0c-.217 0-.415.269-.433.451-.028.297.11.94.21 1.291a.227.227 0 0 1-.057.258.208.208 0 0 1-.259-.014l-.388-.26a.315.315 0 0 0-.164-.078zM42.844 48.725a3.687 3.687 0 1 1-4.582 5.776 3.687 3.687 0 0 1 4.582-5.776zm-.591.745c-1.185-.948-2.954-.794-3.902.39-.948 1.184-.711 2.945.475 3.892 1.186.948 2.961.784 3.898-.39.937-1.173.713-2.947-.471-3.892z"/>
        <path fill="#FFF" d="M39.617 55.3a3.691 3.691 0 0 1-3.667-3.49 3.69 3.69 0 0 1 5.985-3.079 3.686 3.686 0 0 1 1.173 4.104 3.697 3.697 0 0 1-3.49 2.465zm.023-7.12a3.47 3.47 0 0 0-2.702 1.296 3.423 3.423 0 0 0 .552 4.811 3.439 3.439 0 0 0 4.822-.543 3.423 3.423 0 0 0-.536-4.813 3.406 3.406 0 0 0-2.136-.75zm.032 6.23c-.648 0-1.278-.22-1.786-.621-1.201-.96-1.423-2.767-.48-3.943a2.74 2.74 0 0 1 1.893-1.01 2.843 2.843 0 0 1 2.066.613 2.804 2.804 0 0 1 .478 3.941 2.738 2.738 0 0 1-2.17 1.02zm-.093-5.334a2.574 2.574 0 0 0-1.974.929c-.858 1.07-.655 2.711.439 3.585a2.639 2.639 0 0 0 1.922.55 2.472 2.472 0 0 0 1.679-.908 2.555 2.555 0 0 0-.438-3.585 2.6 2.6 0 0 0-1.628-.57zM53.91 37.567l-4.338 3.522c-.154.127-.154.2-.008.36a2.72 2.72 0 0 0 1.762.886c.739.076 1.468-.046 2.058-.525.589-.479.923-1.26.932-1.788.01-.528.068-.768.462-.823a.476.476 0 0 1 .517.54c0 .093-.01.176-.016.257a3.55 3.55 0 0 1-1.337 2.493 3.699 3.699 0 0 1-5.207-.54 3.69 3.69 0 0 1-.36-4.069 3.709 3.709 0 0 1 3.613-1.918c.71.07 1.376.376 1.893.867.161.163.346.482.029.738zm-1.32-.488a2.242 2.242 0 0 0-.71-.153c-.76-.079-1.462.078-2.039.546-.577.468-.884 1.132-.963 1.89-.03.272-.028.548.008.82.041.21.106.175.288.027l3.49-2.83c.238-.19.087-.241-.074-.3z"/>
        <path fill="#FFF" d="M51.638 43.318c-.13 0-.265 0-.401-.02a3.682 3.682 0 0 1-3.29-4.041A3.734 3.734 0 0 1 52 35.961a3.219 3.219 0 0 1 1.9.871c.144.13.23.31.237.504a.531.531 0 0 1-.214.393l-4.19 3.405c-.06.047-.067.068-.067.07.02.035.046.067.075.095a2.47 2.47 0 0 0 1.615.815c.768.081 1.406-.082 1.894-.478.53-.43.85-1.169.853-1.634.002-.464.044-.85.55-.92.17-.025.342.03.466.148.13.134.195.317.178.502 0 .072-.005.144-.013.215v.035a3.687 3.687 0 0 1-3.646 3.336zm-.05-7.127a3.44 3.44 0 0 0-2.642 5.6 3.433 3.433 0 0 0 6.084-1.827v-.027c0-.064.011-.13.011-.202a.393.393 0 0 0-.102-.312.308.308 0 0 0-.257-.084c-.247.034-.324.13-.325.67-.002.538-.34 1.336-.95 1.829-.54.445-1.245.619-2.08.534a2.749 2.749 0 0 1-1.775-.89.407.407 0 0 1-.149-.298.37.37 0 0 1 .162-.245l4.19-3.404a.28.28 0 0 0 .119-.207.445.445 0 0 0-.156-.307 2.972 2.972 0 0 0-1.752-.805 3.808 3.808 0 0 0-.385-.024l.008-.001zm-2.516 4.236a.19.19 0 0 1-.062-.01.282.282 0 0 1-.149-.236 3.37 3.37 0 0 1-.01-.83c.084-.811.411-1.456.976-1.913.564-.457 1.246-.638 2.062-.557.247.015.49.068.72.16l-.049.116.057-.114c.111.04.238.086.258.212.021.127-.075.219-.163.29l-3.37 2.738a.481.481 0 0 1-.27.144zm2.453-3.311a2.378 2.378 0 0 0-1.54.517 2.493 2.493 0 0 0-.883 1.743c-.027.253-.024.509.009.762.028-.02.058-.045.073-.055l3.369-2.738.045-.04-.067-.026h-.018a2.053 2.053 0 0 0-.645-.148 3.379 3.379 0 0 0-.343-.015zM60.671 38.192c-1.07.704-2.07.63-3.025.137-.031-.016-.438-.293-.204-.709.286-.506.806-.136 1.027-.056a1.72 1.72 0 0 0 1.689-.164c.585-.384.692-1.278.4-1.813-.27-.495-.706-.623-1.562-.62-.76.012-1.266.288-1.891.249a1.826 1.826 0 0 1-1.48-.86 1.927 1.927 0 0 1-.225-1.686c.209-.514.61-.925 1.118-1.146.559-.2 1.33-.275 1.757-.05a.478.478 0 0 1 .226.6c-.147.433-.67.233-.954.195-.207-.031-.376-.089-.78.177a.99.99 0 0 0-.267 1.334c.266.406.78.366.942.355.436-.045 2.453-.416 3.262.138 1.193.83 1.598 2.848-.033 3.92z"/>
        <path fill="#FFF" d="M59.051 38.71c-.5-.008-.99-.136-1.43-.374a.75.75 0 0 1-.316-.409.602.602 0 0 1 .065-.464c.289-.516.789-.28 1.038-.16.036.02.074.036.112.05.568.216 1.028.175 1.5-.137.471-.312.588-1.113.339-1.571-.215-.398-.544-.527-1.355-.527h-.025c-.304.01-.605.054-.9.13-.3.079-.612.116-.923.11a1.89 1.89 0 0 1-1.52-.892 2.007 2.007 0 0 1-.232-1.75c.096-.243.235-.466.411-.658.208-.227.461-.408.743-.531.54-.194 1.328-.29 1.795-.042.268.142.389.465.279.75-.158.453-.622.357-.91.302a1.815 1.815 0 0 0-.158-.027l-.05-.008c-.17-.029-.295-.05-.606.159a.822.822 0 0 0-.216 1.099c.188.288.538.3.776.281.054 0 .13-.015.225-.028.682-.092 2.276-.309 2.997.184a2.561 2.561 0 0 1 1.061 2.071 2.304 2.304 0 0 1-1.104 1.925 2.877 2.877 0 0 1-1.596.517zm-1.178-1.305a.298.298 0 0 0-.273.185.369.369 0 0 0 .145.498c.969.504 1.874.46 2.76-.13.59-.357.958-.995.975-1.69a2.273 2.273 0 0 0-.946-1.851c-.631-.436-2.156-.23-2.806-.139-.098.013-.176.024-.232.029-.492.043-.834-.102-1.03-.402a1.102 1.102 0 0 1 .294-1.476c.402-.264.604-.231.798-.2l.046.009c.045 0 .102.017.157.028.36.072.533.072.603-.127a.33.33 0 0 0-.158-.417c-.375-.197-1.077-.12-1.577.06a1.915 1.915 0 0 0-.99 1.022 1.732 1.732 0 0 0 .2 1.506c.285.462.78.75 1.318.77.286.008.57-.027.846-.105.31-.08.626-.126.946-.137h.027c.788 0 1.293.113 1.594.67.301.557.192 1.517-.429 1.93a1.79 1.79 0 0 1-1.735.158 1.386 1.386 0 0 1-.134-.059 1.046 1.046 0 0 0-.399-.132zM68.692 28.917c.482.954.565 2.06.229 3.075a4.03 4.03 0 0 1-2.02 2.335 3.712 3.712 0 0 1-3.127.167c-.05-.028-.168 0-.084.15l1.246 2.423a.48.48 0 0 1-.22.65l-.03.014a.47.47 0 0 1-.644-.206l-4.076-7.903a.48.48 0 0 1 .202-.657l.027-.015a.506.506 0 0 1 .673.215c.096.183.204.396.212.41.096.184.2.077.22-.024.197-.977.973-1.876 1.954-2.378a4.045 4.045 0 0 1 5.438 1.744zm-.91.465c-.758-1.472-2.616-2.115-4.092-1.36-1.476.756-2.036 2.637-1.277 4.11a3.034 3.034 0 0 0 4.05 1.342 3.058 3.058 0 0 0 1.314-4.092h.005z"/>
        <path fill="#FFF" d="M64.453 37.788a.598.598 0 0 1-.526-.332L59.98 29.76a.619.619 0 0 1-.045-.466.585.585 0 0 1 .3-.36.625.625 0 0 1 .86.254l.164.327c.233-.948.97-1.828 1.96-2.334a4.045 4.045 0 0 1 5.462 1.759c.495.957.58 2.074.237 3.096a4.112 4.112 0 0 1-2.033 2.364 3.751 3.751 0 0 1-2.999.227c.261.515 1.153 2.255 1.153 2.255a.588.588 0 0 1 .034.469.624.624 0 0 1-.309.353.7.7 0 0 1-.31.085zm-3.918-8.665a.338.338 0 0 0-.154.038.342.342 0 0 0-.163.468l3.95 7.7a.327.327 0 0 0 .189.163.364.364 0 0 0 .43-.49l-1.209-2.361a.236.236 0 0 1 .018-.302.217.217 0 0 1 .255-.03 3.444 3.444 0 0 0 2.903-.163 3.827 3.827 0 0 0 1.895-2.203 3.7 3.7 0 0 0-.218-2.88 3.778 3.778 0 0 0-5.09-1.635c-.945.49-1.644 1.337-1.822 2.22a.276.276 0 0 1-.215.23c-.058.01-.175 0-.26-.163l-.206-.4a.346.346 0 0 0-.197-.164.364.364 0 0 0-.1-.028h-.006zm4.563 4.777a3.112 3.112 0 0 1-2.758-1.7 3.152 3.152 0 0 1-.204-2.369 2.99 2.99 0 0 1 3.858-1.983c.778.26 1.423.815 1.796 1.545a3.108 3.108 0 0 1-1.34 4.179 2.95 2.95 0 0 1-1.345.333l-.007-.005zm-.104-5.939c-.428 0-.848.102-1.228.298-.66.342-1.153.94-1.362 1.654a2.87 2.87 0 0 0 .185 2.16 2.79 2.79 0 0 0 3.74 1.25 2.832 2.832 0 0 0 1.221-3.802 2.9 2.9 0 0 0-2.556-1.56zM73.418 24.023c.957-.35 2.053-.304 2.839.19.067.055.22.047.155-.136 0-.014-.084-.24-.144-.408a.474.474 0 0 1 .276-.592l.028-.011a.464.464 0 0 1 .583.28l2.08 5.887a.465.465 0 0 1-.274.592l-.028.011a.464.464 0 0 1-.585-.28l-.155-.42c-.06-.17-.148-.106-.155-.054a3.44 3.44 0 0 1-2.087 2.027c-1.928.71-4.059-.299-4.76-2.253-.7-1.955.296-4.115 2.224-4.825l.003-.008zm2.237 6.234c1.435-.547 2.168-2.163 1.644-3.623-.517-1.462-2.14-2.286-3.583-1.761-1.443.524-2.175 2.205-1.662 3.668.536 1.474 2.14 2.238 3.601 1.716z"/>
        <path fill="#FFF" d="M74.187 31.336c-2.012.004-3.734-1.316-4.08-3.126-.344-1.81.788-3.584 2.682-4.201 1.077-.352 2.26-.29 3.113.152l-.132-.334c-.118-.302.053-.634.383-.744a.71.71 0 0 1 .516.014.596.596 0 0 1 .325.328l2.238 5.698c.106.304-.071.63-.4.738-.33.108-.694-.042-.824-.338l-.127-.32c-.43.894-1.248 1.585-2.258 1.906-.46.151-.947.228-1.436.227zm-1.3-7.088c-2.001.664-3.034 2.683-2.307 4.51.727 1.826 2.937 2.769 4.937 2.105.99-.307 1.781-1 2.159-1.89a.21.21 0 0 1 .19-.137h.014c.065 0 .167.027.235.19l.168.41c.066.165.265.25.446.192a.356.356 0 0 0 .216-.162.304.304 0 0 0 .025-.255l-2.239-5.697c-.067-.164-.264-.249-.445-.192a.36.36 0 0 0-.216.163.308.308 0 0 0-.026.255l.157.392a.222.222 0 0 1-.072.298c-.1.057-.229.05-.32-.018-.766-.434-1.895-.5-2.916-.164h-.007zm1.348 6.212a3.458 3.458 0 0 1-1.367-.284c-1.157-.5-1.874-1.584-1.82-2.752.054-1.169.868-2.194 2.067-2.603 1.597-.524 3.45.291 4.037 1.784a2.684 2.684 0 0 1-.097 2.199c-.341.695-.98 1.232-1.767 1.487a3.38 3.38 0 0 1-1.053.17zm-.117-5.538a2.902 2.902 0 0 0-.914.152c-1.493.508-2.255 2.023-1.702 3.388.547 1.362 2.191 2.07 3.691 1.59.711-.231 1.287-.72 1.593-1.349a2.452 2.452 0 0 0 .09-2.001c-.422-1.061-1.522-1.77-2.758-1.78zM85.763 23.37l.863 3.605a.445.445 0 0 1-.349.522h-.03a.475.475 0 0 1-.555-.33l-.85-3.544c-.326-1.359-1.565-1.718-2.574-1.504-1.328.283-1.837.982-1.562 2.122.038.165.909 3.792.909 3.792a.445.445 0 0 1-.35.52l-.045.01a.475.475 0 0 1-.555-.33l-1.392-5.738a.406.406 0 0 1 .064-.323.456.456 0 0 1 .29-.185l.056-.012a.466.466 0 0 1 .341.052c.102.06.173.156.197.267.011.041 0 .013.011.041.016.068.092.067.127.016.37-.627 1.142-.935 1.712-1.056 1.329-.281 3.18-.053 3.692 2.076z"/>
        <path fill="#FFF" d="M81.179 28.571a.592.592 0 0 1-.565-.484l-1.338-6.23a.628.628 0 0 1 .078-.457.565.565 0 0 1 .362-.261l.055-.015a.542.542 0 0 1 .644.344c.456-.723 1.3-.997 1.658-1.082 1.473-.354 3.228.079 3.716 2.361l.833 3.913c.07.33-.125.657-.436.732a.58.58 0 0 1-.465-.072.623.623 0 0 1-.256-.384l-.819-3.854c-.29-1.37-1.38-1.76-2.325-1.53-1.217.29-1.658.968-1.409 2.142l.877 4.122c.068.33-.126.656-.435.733l-.043.01a.6.6 0 0 1-.132.012zm-1.283-7.187a.36.36 0 0 0-.072.008l-.055.015a.304.304 0 0 0-.2.138.339.339 0 0 0-.043.249l1.348 6.239a.333.333 0 0 0 .139.212.299.299 0 0 0 .24.042l.043-.01a.305.305 0 0 0 .196-.148.356.356 0 0 0 .043-.254l-.877-4.123c-.281-1.318.259-2.149 1.605-2.471 1.044-.252 2.307.192 2.638 1.74l.818 3.852a.34.34 0 0 0 .142.211.312.312 0 0 0 .239.044.32.32 0 0 0 .217-.143.359.359 0 0 0 .05-.265l-.832-3.913c-.558-2.62-2.747-2.31-3.404-2.154-.344.083-1.182.352-1.566 1.081a.196.196 0 0 1-.211.108.204.204 0 0 1-.152-.161l.117-.074-.127.03a.297.297 0 0 0-.292-.253h-.004zM95.832 22.655a3.687 3.687 0 1 1-4.048-3.28 3.694 3.694 0 0 1 4.048 3.28zm-.945.097a2.79 2.79 0 0 0-3.017-2.506c-1.496.153-2.598 1.559-2.443 3.078.156 1.52 1.524 2.659 3.019 2.505a2.79 2.79 0 0 0 2.441-3.079v.002z"/>
        <path fill="#FFF" d="M92.15 26.728a3.687 3.687 0 1 1 3.684-4.066 3.698 3.698 0 0 1-3.684 4.066zm.009-7.117a3.437 3.437 0 0 0-1.402 6.573 3.444 3.444 0 0 0 4.831-3.495 3.444 3.444 0 0 0-3.43-3.078zm.018 6.268a2.86 2.86 0 0 1-2.791-2.55 2.829 2.829 0 0 1 .609-2.07 2.728 2.728 0 0 1 1.866-1.042c1.523-.17 2.898.98 3.059 2.531.08.741-.134 1.484-.596 2.068a2.731 2.731 0 0 1-1.873 1.043c-.096.016-.186.02-.274.02zm-.036-5.42a2.481 2.481 0 0 0-1.948.959 2.593 2.593 0 0 0-.555 1.884c.149 1.394 1.432 2.45 2.78 2.31a2.481 2.481 0 0 0 1.7-.945 2.598 2.598 0 0 0-.375-3.616 2.487 2.487 0 0 0-1.602-.593zM100.169 16.13l.292 10.119c0 .258-.322.47-.728.48h-.068c-.407 0-.74-.205-.755-.462l-.292-10.12c0-.257.32-.469.725-.479h.07c.407 0 .74.204.756.462z"/>
        <path fill="#FFF" d="M99.674 26.728a.892.892 0 0 1-.568-.174.607.607 0 0 1-.25-.456l-.238-10.696c-.007-.356.336-.649.768-.655h.016a.894.894 0 0 1 .567.174.61.61 0 0 1 .252.454l.24 10.695a.58.58 0 0 1-.22.455.868.868 0 0 1-.546.198l-.02.005zm-.237-11.69a.507.507 0 0 0-.336.107.316.316 0 0 0-.119.25l.238 10.693c.01.188.197.337.426.338a.501.501 0 0 0 .338-.11.316.316 0 0 0 .118-.25l-.237-10.691c-.013-.188-.2-.335-.428-.338zM80.264 20.276c-.26-1.043.144-1.71.803-1.879.4-.102.736-.043 1.446.131.54.13.933.229 1.286.138.354-.09.442-.433.33-1.008l.572-.146c.296 1.176-.172 1.719-.762 1.87-.38.096-.75.057-1.48-.11-.5-.13-.9-.261-1.244-.169-.345.093-.499.405-.386 1.042l-.565.131z"/>
        <path fill="#FFF" d="M79.395 20.276l-.036-.118c-.16-.499-.12-.941.114-1.279.2-.285.528-.485.906-.551.487-.096.897-.038 1.706.116l.049.01c.574.108.986.183 1.348.114.117-.024.427-.085.263-.747l-.031-.124.929-.185.04.118c.173.526.14.96-.085 1.29-.2.276-.523.468-.893.531-.491.095-.972.042-1.746-.098l-.214-.043c-.46-.095-.826-.174-1.134-.11-.131.026-.48.096-.329.778l.03.12-.917.178zm1.469-1.74c-.141 0-.282.013-.419.041a1.11 1.11 0 0 0-.718.434c-.18.295-.222.64-.118.96l.36-.071c-.105-.668.25-.888.576-.954.369-.076.79.012 1.267.11l.21.043c.85.15 1.228.178 1.617.098a1.1 1.1 0 0 0 .704-.414c.173-.243.196-.569.089-.971l-.37.075c.119.657-.208.87-.52.93-.417.08-.865 0-1.476-.114l-.048-.01a6.408 6.408 0 0 0-1.154-.156z"/>
    </g>
</svg>
