<svg xmlns="http://www.w3.org/2000/svg" width="36" height="36" viewBox="0 0 36 36">
    <defs>
        <linearGradient id="a" x1="50%" x2="50%" y1="0%" y2="100%">
            <stop offset="0%" stop-color="#FFE47F"/>
            <stop offset="100%" stop-color="#FFC900"/>
        </linearGradient>
    </defs>
    <g fill="none" fill-rule="evenodd">
        <path fill="url(#a)" d="M36 17.536c0 9.686-7.912 17.537-17.673 17.537-3.099 0-6.01-.792-8.543-2.182L0 36l3.19-9.409a17.352 17.352 0 0 1-2.536-9.055C.654 7.851 8.566 0 18.327 0 28.09 0 36 7.851 36 17.536z"/>
        <path fill="#381808" d="M27.276 21.617c-.111-.175-.406-.281-.849-.492-.443-.212-2.62-1.234-3.026-1.374-.406-.141-.702-.212-.997.21-.294.424-1.143 1.375-1.402 1.656-.259.283-.517.318-.96.107-.442-.211-1.869-.658-3.56-2.096-1.317-1.12-2.206-2.502-2.464-2.925-.258-.423-.027-.651.194-.862.2-.19.443-.493.664-.74.222-.246.296-.422.443-.704.148-.282.074-.529-.037-.74-.11-.212-.997-2.29-1.366-3.136-.369-.846-.737-.705-.996-.705-.258 0-.554-.035-.849-.035-.295 0-.775.106-1.181.528-.406.423-1.55 1.445-1.55 3.523 0 2.08 1.587 4.088 1.809 4.369.22.281 3.062 4.686 7.565 6.377 4.502 1.691 4.502 1.127 5.314 1.056.812-.07 2.62-1.021 2.99-2.007.368-.988.368-1.833.258-2.01z"/>
    </g>
</svg>
