<svg xmlns="http://www.w3.org/2000/svg" width="109" height="185" viewBox="0 0 109 185">
    <g fill="none" fill-rule="evenodd">
        <path fill="#A62626" d="M3.083 21.828c0 .747-.603 1.358-1.35 1.358-.743 0-1.348-.61-1.348-1.358 0-.75.605-1.356 1.348-1.356.747 0 1.35.606 1.35 1.356M3.582 18.796a1.35 1.35 0 0 1-1.348 1.356 1.352 1.352 0 0 1-1.346-1.356c0-.75.605-1.362 1.346-1.362.747 0 1.348.613 1.348 1.362M61.827 21.875a1.35 1.35 0 1 1-2.698 0c0-.747.603-1.356 1.348-1.356.745 0 1.35.609 1.35 1.356"/>
        <path fill="#A62626" d="M60.693 19.334a1.35 1.35 0 0 1-1.348 1.36 1.355 1.355 0 0 1-1.348-1.36 1.347 1.347 0 1 1 2.696 0"/>
        <path fill="#A62626" d="M60.161 23.457l-.047-3.305-.173.746v2.575a1.377 1.377 0 0 0-1.151 1.36c0 .764.614 1.384 1.371 1.384.761 0 1.374-.62 1.374-1.384 0-.654-.463-1.372-1.374-1.376M2.112 23.457l.049-3.305.175.746v2.575a1.38 1.38 0 0 1-.225 2.744 1.38 1.38 0 0 1-1.373-1.384c0-.654.463-1.372 1.374-1.376"/>
        <path fill="#000" d="M2.058 17.98v1.986c0 4.314 2.84 8.638 8.515 11.933 11.342 6.587 29.735 6.587 41.08 0 5.67-3.295 8.508-7.619 8.508-11.933v-1.987H2.058"/>
        <path fill="#D63A3A" d="M59.954 18.451c.067.333.12.662.16.996-.404 3.979-3.232 7.892-8.461 10.936-11.343 6.59-29.738 6.59-41.08 0-5.241-3.044-8.061-6.957-8.461-10.936.031-.334.088-.663.155-.996h-.209v1.115c0 4.314 2.84 8.632 8.515 11.927 11.342 6.586 29.735 6.586 41.08 0 5.67-3.295 8.508-7.613 8.508-11.927V18.45h-.207"/>
        <path fill="#000" d="M60.114 18.975c-.402-3.983-3.226-7.895-8.461-10.938-11.343-6.587-29.738-6.587-41.08 0C5.33 11.08 2.51 14.992 2.112 18.975c-.474-4.64 2.353-9.38 8.46-12.921 11.343-6.59 29.738-6.59 41.08 0 6.105 3.541 8.93 8.281 8.462 12.92"/>
        <path fill="#232323" d="M60.114 18.975c-.404 3.979-3.232 7.892-8.461 10.936-11.343 6.592-29.738 6.592-41.08 0-5.241-3.044-8.061-6.957-8.461-10.936.398-3.983 3.218-7.895 8.46-10.938 11.343-6.587 29.738-6.587 41.08 0 5.236 3.043 8.06 6.955 8.462 10.938"/>
        <path fill="#000" d="M16.582 8.697v9.181c0 2.163 1.415 4.318 4.251 5.968 5.68 3.295 14.877 3.295 20.553 0 2.84-1.65 4.261-3.805 4.261-5.968V8.697H16.582"/>
        <path fill="#232323" d="M41.386 14.665c-5.676 3.303-14.872 3.303-20.553 0-5.674-3.292-5.674-8.639 0-11.934 5.68-3.299 14.877-3.299 20.553 0 5.675 3.295 5.675 8.642 0 11.934"/>
        <path fill="#D63A3A" d="M41.386 19.228c-5.676 3.296-14.872 3.296-20.553 0-2.836-1.647-4.25-3.808-4.25-5.967v3.051c0 2.157 1.414 4.314 4.25 5.97 5.68 3.29 14.877 3.29 20.553 0 2.84-1.656 4.261-3.813 4.261-5.97v-3.051c0 2.159-1.42 4.32-4.26 5.967"/>
        <path fill="#D63A3A" d="M39.705 23.118s1.437 2.13.867 8.75l3.006-.96c.61-5.843-1.277-10.214-1.277-10.214l-2.596 2.424M44.128 18.796s4.872 3.202 8.997 3.032c-.388.83-.899 1.89-1.08 2.44-5.909.306-9.744-3.574-9.744-3.574l1.827-1.898M32.23 37.649v-1.715h-.521v1.699a1.378 1.378 0 0 0-1.151 1.358c0 .761.613 1.382 1.372 1.382.76 0 1.371-.62 1.371-1.382 0-.656-.457-1.207-1.072-1.342M35.529 37.455v-1.707h-.52v1.7a1.374 1.374 0 0 0-1.148 1.359c0 .761.615 1.38 1.366 1.38.76 0 1.376-.619 1.376-1.38 0-.662-.457-1.212-1.074-1.352M38.865 37.012V35.3h-.518v1.702a1.378 1.378 0 0 0 .22 2.738c.76 0 1.375-.617 1.375-1.382 0-.66-.462-1.208-1.077-1.345M42.242 36.334V34.62h-.519v1.7a1.382 1.382 0 0 0-1.15 1.36c0 .76.612 1.38 1.371 1.38a1.379 1.379 0 0 0 .298-2.725M45.505 35.426v-1.713h-.516v1.701a1.376 1.376 0 0 0-1.153 1.359c0 .76.613 1.381 1.372 1.381a1.38 1.38 0 0 0 1.374-1.381c0-.665-.46-1.21-1.077-1.347M48.657 34.35v-1.72h-.518v1.704a1.38 1.38 0 0 0 .223 2.74 1.379 1.379 0 0 0 .295-2.724M51.771 33.021v-1.714h-.516v1.705c-.653.103-1.15.67-1.15 1.356 0 .759.612 1.38 1.37 1.38.76 0 1.368-.621 1.368-1.38 0-.663-.453-1.21-1.072-1.347M54.794 31.275v-2.588h-.516v2.576a1.382 1.382 0 0 0-1.153 1.36c0 .761.615 1.38 1.374 1.38.757 0 1.37-.619 1.37-1.38 0-.662-.46-1.211-1.075-1.348M57.54 28.908v-2.592h-.52v2.58a1.376 1.376 0 0 0-1.151 1.356c0 .765.615 1.384 1.371 1.384a1.381 1.381 0 1 0 .3-2.728"/>
        <path fill="#D63A3A" d="M59.403 26.47v-3.243l-.519.657v2.577a1.376 1.376 0 0 0-1.15 1.356c0 .765.612 1.382 1.37 1.382.758 0 1.373-.617 1.373-1.382 0-.656-.46-1.205-1.074-1.346M2.602 25.8v-3.24l.515.652v2.579c.654.105 1.153.67 1.153 1.356 0 .761-.613 1.38-1.372 1.38a1.377 1.377 0 0 1-1.372-1.38c0-.656.463-1.211 1.076-1.346M28.215 37.649v-1.715h.522v1.699a1.379 1.379 0 0 1-.22 2.74c-.762 0-1.375-.62-1.375-1.382 0-.656.462-1.207 1.073-1.342M24.88 37.199v-1.715h.52v1.701c.65.109 1.15.674 1.15 1.358 0 .765-.616 1.38-1.375 1.38a1.376 1.376 0 0 1-1.371-1.38c0-.656.463-1.207 1.076-1.344M21.507 36.517v-1.713h.519v1.7a1.38 1.38 0 0 1 1.15 1.363c0 .76-.616 1.378-1.373 1.378a1.376 1.376 0 0 1-1.372-1.378c0-.66.462-1.211 1.076-1.35M18.238 35.61v-1.706h.522V35.6c.65.109 1.153.674 1.153 1.36 0 .761-.615 1.378-1.372 1.378a1.376 1.376 0 0 1-1.374-1.378c0-.658.462-1.21 1.07-1.35M15.092 34.534V32.82h.514v1.703a1.372 1.372 0 0 1 1.152 1.358c0 .76-.615 1.378-1.372 1.378a1.378 1.378 0 0 1-.294-2.724M11.978 33.206v-1.71h.514v1.702a1.368 1.368 0 0 1 1.153 1.356 1.373 1.373 0 0 1-2.746 0c0-.662.462-1.207 1.079-1.348M8.953 32.314v-2.59h.518V32.3c.646.11 1.149.674 1.149 1.356 0 .765-.613 1.386-1.37 1.386a1.38 1.38 0 0 1-1.374-1.386c0-.658.464-1.207 1.077-1.342M6.21 30.513v-2.589h.52v2.578c.65.105 1.146.672 1.146 1.358a1.374 1.374 0 1 1-2.745 0c0-.66.461-1.212 1.078-1.347"/>
        <path fill="#D63A3A" d="M3.972 28.18v-3.246l.518.659v2.575c.657.11 1.157.67 1.157 1.356 0 .767-.622 1.384-1.377 1.384a1.375 1.375 0 0 1-1.372-1.384c0-.652.463-1.205 1.074-1.344"/>
        <path fill="#939598" d="M3.203 67.749c.245-.153.367-.361.355-.575h.002v-.409h-.227l-.057-.057c-.488-.387-1.399-.48-2.042-.216l-.39.252-.187.021v.409h.004c.008.174.1.347.294.498.42.335 1.155.432 1.76.287l.961.753.483-.2v-.432l-.956-.331"/>
        <path fill="#BCBEC0" d="M.955 67.24c.42.334 1.155.428 1.76.285l.961.753.483-.198-.956-.76c.434-.279.497-.713.073-1.046-.488-.383-1.399-.478-2.042-.21-.642.265-.766.795-.28 1.175"/>
        <path fill="#CF7C00" d="M106.076 28.46c-2.186-1.704-4.23-2.851-4.75-3.13-1.596-.998-19.325-11.655-34.146-3.24-10.346 5.874-6.92 12.123-10.858 14.361-1.141.653-2.728 1.004-4.462 1.394v-1.14l-10.186.17.004 9.079h.004c.004 5.466 7.773 9.398 7.773 9.398s10.923 7.331 24.331 3.39c5.856-2.308 5.385-5.637 8.233-7.312 3.863-2.28 14.622-.274 24.773-6.257 4.083-2.413 5.577-4.96 5.573-7.405v-9.309h-6.289"/>
        <path fill="#F5B400" d="M56.322 27.214c-2.9 1.644-8.625 1.364-12.616 4.757-6.83 7.774 5.75 14.146 5.75 14.146s10.922 7.323 24.33 3.388c5.856-2.316 5.385-5.643 8.233-7.314 3.863-2.28 14.622-.274 24.773-6.261 14.54-8.579-3.757-18.912-5.466-19.84-1.596-.995-19.325-11.652-34.146-3.238-10.346 5.873-6.92 12.126-10.858 14.362"/>
        <path fill="#939598" d="M11.006 64.3c.249-.163.37-.37.357-.58h.004v-.41h-.225l-.06-.06c-.486-.382-1.398-.476-2.039-.212l-.392.254-.187.018v.41h.006c.006.173.096.347.291.496.418.335 1.151.436 1.76.287l.96.756.485-.2v-.437l-.96-.323"/>
        <path fill="#BCBEC0" d="M8.761 63.782c.418.337 1.151.432 1.76.287l.96.757.485-.204-.96-.757c.436-.282.499-.708.075-1.043-.485-.383-1.397-.478-2.038-.218-.642.268-.77.795-.282 1.178"/>
        <path fill="#754C29" d="M60.98 39.534c3.67 2.1 9.454 2.142 12.917.1 3.463-2.047 3.293-5.401-.375-7.503-3.666-2.097-9.446-2.14-12.917-.095-3.463 2.04-3.296 5.399.374 7.498"/>
        <path fill="#603913" d="M68.56 40.125v-.408l-8.028-2.488-12.642 8.646-33.153 18.807 5.714 3.329 34.84-17.84-.04-1.358 13.308-8.688"/>
        <path fill="#3C2415" d="M20.451 68.01v-1.79l-.727.547v1.79l.727-.546"/>
        <path fill="#754C29" d="M68.56 39.717l-8.028-4.675-45.795 27.847 5.714 3.331 48.108-26.503"/>
        <path fill="#939598" d="M63.9 40.865v-.284l-5.686-2.95v.282l5.373 3.138.313-.186"/>
        <path fill="#BCBEC0" d="M63.9 40.581l-5.375-3.13-.31.18 5.372 3.135.313-.185"/>
        <path fill="#939598" d="M55.557 45.694v-.28l-5.688-2.953v.281l5.377 3.133.311-.18"/>
        <path fill="#BCBEC0" d="M55.557 45.415l-5.373-3.133-.315.179 5.377 3.13.311-.176"/>
        <path fill="#939598" d="M47.214 50.53v-.288l-5.686-2.95v.282l5.373 3.134.313-.178"/>
        <path fill="#BCBEC0" d="M47.214 50.242l-5.374-3.128-.312.178 5.373 3.133.313-.183"/>
        <path fill="#939598" d="M38.871 55.352v-.28l-5.69-2.95v.281l5.377 3.131.313-.182"/>
        <path fill="#BCBEC0" d="M38.871 55.072l-5.374-3.13-.316.18 5.377 3.13.313-.18"/>
        <path fill="#939598" d="M22.183 65.01v-.28l-5.682-2.95v.279l5.367 3.136.315-.184"/>
        <path fill="#BCBEC0" d="M22.183 64.73L16.81 61.6l-.308.18 5.367 3.132.315-.183"/>
        <path fill="#CF7C00" d="M73.85 36.283c-.119-.922-.807-1.844-2.062-2.566-2.669-1.522-6.859-1.556-9.378-.069-1.086.64-1.687 1.467-1.793 2.312-.123-1.033.463-2.09 1.793-2.873 2.519-1.481 6.71-1.447 9.378.07 1.512.86 2.201 2.012 2.061 3.126"/>
        <path fill="#1F1F1F" d="M73.85 36.283c-.109.854-.71 1.681-1.794 2.318-2.517 1.483-6.713 1.45-9.376-.076-1.257-.716-1.945-1.637-2.063-2.565.106-.845.707-1.672 1.793-2.312 2.519-1.487 6.71-1.453 9.378.07 1.255.721 1.943 1.643 2.061 2.565"/>
        <path fill="#FF9800" d="M96.1 26.796l-13.23-7.704-2.861 1.653 13.22 7.714 2.87-1.663"/>
        <path fill="#939598" d="M7.218 65.98c.249-.162.367-.37.353-.579h.008v-.408h-.225l-.06-.061c-.488-.383-1.404-.48-2.04-.209l-.391.248-.187.022v.408h.006c.004.173.092.347.291.498.418.33 1.153.43 1.762.284l.952.755.485-.204v-.428l-.954-.326"/>
        <path fill="#BCBEC0" d="M4.973 65.465c.418.331 1.153.432 1.762.283l.952.758.485-.2-.954-.758c.434-.29.497-.718.075-1.047-.487-.384-1.403-.483-2.04-.216-.646.266-.77.793-.28 1.18"/>
        <path fill="#CF7C00" d="M15.823 69.57l-5.532 3.613c-.428.278-1.167.306-1.65.054l-.016-.01c-.48-.248-.522-.678-.096-.958l5.538-3.606c.428-.28 1.17-.307 1.65-.056l.014.006c.48.256.524.68.092.958zm-11.16 1.347l-.017-.01c-.426-.28-.38-.708.1-.953l6.235-3.208c.479-.242 1.218-.222 1.645.061l.012.01c.43.282.387.708-.096.956l-6.232 3.2c-.483.247-1.222.226-1.646-.056zm8.768-6.89L2.979 69.305c-.34.15-.61.331-.842.522h-.702v1.885c0 .397.182.797.556 1.166l1.628 1.554 2.679.952c1.71.597 3.922.355 5.136-.561l8.29-6.265v-1.79l-6.293-2.74z"/>
        <path fill="#FFAD42" d="M4.747 68.75l6.234-3.2c.479-.25 1.218-.22 1.645.056l.012.012c.43.281.387.703-.096.953L6.31 69.777c-.483.248-1.222.216-1.646-.06l-.018-.01c-.426-.279-.38-.71.1-.957zm9.32-1.289c.428-.277 1.17-.301 1.65-.057l.014.012c.48.248.524.676.092.955l-5.532 3.615c-.428.275-1.167.3-1.65.047l-.016-.006c-.48-.244-.522-.678-.096-.96l5.538-3.606zM1.991 71.084l1.628 1.56 2.679.952c1.71.596 3.922.356 5.136-.563l8.29-6.266-5.93-3.457-10.815 4.794c-1.589.706-2.013 1.984-.988 2.98z"/>
        <path fill="#939598" d="M15.873 73.945l-.42-.262c-.576-.238-1.352-.407-1.831-.15l-1.62-.485v.433l1.208.505.002.39c.02.26.22.506.619.67.668.278 1.572.197 2.018-.184l.25-.473v-.444h-.226"/>
        <path fill="#BCBEC0" d="M13.312 73.592c-.244.356-.06.785.519 1.023.668.273 1.572.194 2.018-.183.453-.376.276-.91-.396-1.183-.576-.242-1.317-.199-1.798.061l-1.314-.545-.34.283 1.311.544"/>
        <path fill="#939598" d="M18.95 71.625l-.425-.258c-.575-.244-1.352-.402-1.836-.149l-1.617-.483v.432l1.212.501.002.393c.016.258.221.508.617.672.67.274 1.573.194 2.023-.184l.244-.476v-.448h-.22"/>
        <path fill="#BCBEC0" d="M16.385 71.278c-.246.357-.06.781.518 1.019.67.281 1.573.196 2.023-.178.445-.38.27-.914-.4-1.184-.576-.238-1.317-.2-1.8.057l-1.317-.539-.337.282 1.313.543"/>
        <path fill="#939598" d="M30.528 60.185v-.283l-5.688-2.956v.285l5.377 3.13.311-.176"/>
        <path fill="#BCBEC0" d="M30.528 59.902l-5.376-3.133-.312.177 5.377 3.138.311-.182"/>
        <path fill="#3C2415" d="M20.451 66.22l-5.714-3.33-.944.42 5.93 3.457.728-.547"/>
        <path fill="#603913" d="M93.37 26.29v-1.195L82.82 20v1.203l9.642 5.617.907-.53"/>
        <path fill="#754C29" d="M93.37 25.095l-9.638-5.623-.91.528 9.64 5.616.908-.521"/>
        <path fill="#FFF" d="M90.167 24.998l-.215-.125-70.05 41.03.218.129 70.047-41.034M89.201 24.439l-.215-.125L18.94 65.342l.22.133L89.2 24.439M88.235 23.876l-.21-.125-70.051 41.034.22.123 70.041-41.032M87.277 23.315l-.218-.127-70.051 41.034.219.125 70.05-41.032M86.31 22.756l-.215-.13-70.047 41.03.217.126L86.31 22.756M85.348 22.194l-.217-.132-70.049 41.036.221.123 70.045-41.027"/>
        <path fill="#939598" d="M21.835 69.44l-.418-.266c-.58-.238-1.356-.402-1.843-.15l-1.618-.48v.432l1.214.504v.388c.016.258.22.506.619.668.672.278 1.57.199 2.02-.178l.248-.478h.002v-.44h-.224"/>
        <path fill="#BCBEC0" d="M19.27 69.083c-.246.361-.055.785.519 1.023.672.28 1.57.19 2.02-.18.451-.377.276-.908-.392-1.188-.58-.236-1.317-.192-1.802.064l-1.318-.544-.341.286 1.314.54"/>
        <path fill="#DADADA" d="M101.37 101.447a.745.745 0 0 1-.374-1.387l6.887-3.963a.745.745 0 1 1 .745 1.29l-6.887 3.963-.372.097zM87.6 109.372a.744.744 0 0 1-.374-1.387l6.886-3.963a.753.753 0 0 1 1.017.274.745.745 0 0 1-.272 1.016l-6.885 3.963-.372.097zm-13.772 7.926a.745.745 0 0 1-.374-1.387l6.885-3.963a.751.751 0 0 1 1.018.273.741.741 0 0 1-.272 1.017L74.2 117.2l-.371.097zm-13.77 7.925a.743.743 0 0 1-.374-1.387l6.885-3.962a.751.751 0 0 1 1.018.273.743.743 0 0 1-.273 1.016l-6.885 3.963-.372.097zm-13.771 7.926a.743.743 0 0 1-.374-1.387l6.886-3.963a.751.751 0 0 1 1.017.274.743.743 0 0 1-.272 1.016l-6.885 3.963-.372.097zm-13.77 7.925a.743.743 0 0 1-.374-1.387l6.885-3.962a.751.751 0 0 1 1.018.273.745.745 0 0 1-.272 1.017l-6.886 3.962-.371.097zM18.748 149a.744.744 0 0 1-.374-1.387l6.883-3.963a.744.744 0 1 1 .745 1.29l-6.883 3.963-.372.097zM143.37 137.447a.745.745 0 0 1-.374-1.387l6.887-3.963a.745.745 0 1 1 .745 1.29l-6.887 3.963-.372.097zm-13.769 7.925a.744.744 0 0 1-.374-1.387l6.886-3.963a.753.753 0 0 1 1.017.274.745.745 0 0 1-.272 1.016l-6.885 3.963-.372.097zm-13.772 7.926a.745.745 0 0 1-.374-1.387l6.885-3.963a.751.751 0 0 1 1.018.273.741.741 0 0 1-.272 1.017L116.2 153.2l-.371.097zm-13.77 7.925a.743.743 0 0 1-.374-1.387l6.885-3.962a.751.751 0 0 1 1.018.273.743.743 0 0 1-.273 1.016l-6.885 3.963-.372.097zm-13.771 7.926a.743.743 0 0 1-.374-1.387l6.886-3.963a.751.751 0 0 1 1.017.274.743.743 0 0 1-.272 1.016l-6.885 3.963-.372.097zm-13.77 7.925a.743.743 0 0 1-.374-1.387l6.885-3.962a.751.751 0 0 1 1.018.273.745.745 0 0 1-.272 1.017l-6.886 3.962-.371.097zM60.748 185a.744.744 0 0 1-.374-1.387l6.883-3.963a.744.744 0 1 1 .745 1.29l-6.883 3.963-.372.097z"/>
        <path fill="#DAD6C4" d="M37.524 92.404l-.367-.098-6.79-3.933a.737.737 0 0 1 .736-1.278l6.79 3.933a.738.738 0 1 1-.368 1.376zm13.581 7.866l-.366-.099-6.792-3.932a.737.737 0 0 1 .735-1.278l6.792 3.932a.737.737 0 1 1-.368 1.376zm13.58 7.865l-.367-.099-6.792-3.932a.738.738 0 0 1 .735-1.278l6.792 3.932a.74.74 0 0 1 .269 1.01.732.732 0 0 1-.637.367zM78.264 116l-.367-.098-6.79-3.933a.74.74 0 0 1-.27-1.007.742.742 0 0 1 1.006-.271l6.79 3.933a.74.74 0 0 1 .268 1.008.732.732 0 0 1-.637.368z"/>
        <path fill="#FA5932" d="M22 85c-1.796 0-3.499-.378-4.79-1.064-1.425-.758-2.21-1.807-2.21-2.953 0-1.148.785-2.196 2.21-2.955 2.585-1.37 6.997-1.37 9.583 0 1.424.759 2.207 1.807 2.207 2.955 0 1.146-.783 2.195-2.207 2.953C25.5 84.622 23.798 85 22 85z"/>
    </g>
</svg>
