<svg xmlns="http://www.w3.org/2000/svg" width="299" height="250" viewBox="0 0 299 250">
    <g fill="none" fill-rule="evenodd">
        <path fill="#A62626" d="M4.693 33.029a2.056 2.056 0 0 1-2.055 2.055 2.053 2.053 0 1 1 2.055-2.055M5.452 28.442A2.05 2.05 0 0 1 3.4 30.494a2.052 2.052 0 0 1-2.049-2.052A2.06 2.06 0 0 1 3.4 26.38c1.137 0 2.052.927 2.052 2.06M94.108 33.1a2.049 2.049 0 0 1-2.055 2.047 2.046 2.046 0 0 1-2.052-2.046 2.053 2.053 0 0 1 4.107 0"/>
        <path fill="#A62626" d="M92.383 29.255a2.049 2.049 0 0 1-2.052 2.058 2.052 2.052 0 1 1 0-4.107c1.143 0 2.052.918 2.052 2.049"/>
        <path fill="#A62626" d="M91.573 35.495l-.072-5.001-.264 1.128v3.897a2.087 2.087 0 0 0-1.752 2.058c0 1.155.936 2.094 2.088 2.094a2.091 2.091 0 0 0 2.091-2.094c0-.99-.705-2.076-2.091-2.082M3.214 35.495l.075-5.001.267 1.128v3.897a2.09 2.09 0 1 1-2.433 2.058c0-.99.705-2.076 2.091-2.082"/>
        <path fill="#000" d="M3.133 27.206v3.006c0 6.528 4.323 13.07 12.96 18.057 17.265 9.966 45.261 9.966 62.529 0 8.631-4.986 12.951-11.53 12.951-18.057v-3.006H3.133"/>
        <path fill="#D63A3A" d="M91.258 27.92c.102.504.183 1.002.243 1.506-.615 6.02-4.92 11.943-12.879 16.548-17.265 9.972-45.264 9.972-62.529 0-7.977-4.605-12.27-10.527-12.879-16.548.048-.504.135-1.002.237-1.506h-.318v1.686c0 6.528 4.323 13.062 12.96 18.048 17.265 9.966 45.261 9.966 62.529 0 8.631-4.986 12.951-11.52 12.951-18.048V27.92h-.315"/>
        <path fill="#000" d="M91.501 28.712c-.612-6.027-4.911-11.946-12.879-16.551-17.265-9.966-45.264-9.966-62.529 0C8.113 16.766 3.82 22.685 3.214 28.71c-.72-7.02 3.582-14.192 12.879-19.55 17.265-9.972 45.264-9.972 62.529 0 9.291 5.358 13.59 12.53 12.879 19.55"/>
        <path fill="#232323" d="M91.501 28.712c-.615 6.02-4.92 11.943-12.879 16.548-17.265 9.975-45.264 9.975-62.529 0-7.977-4.605-12.27-10.527-12.879-16.548.606-6.027 4.899-11.946 12.879-16.551 17.265-9.966 45.264-9.966 62.529 0 7.968 4.605 12.267 10.524 12.879 16.55"/>
        <path fill="#000" d="M25.24 13.16v13.893c0 3.273 2.154 6.534 6.471 9.03 8.646 4.986 22.644 4.986 31.284 0 4.323-2.496 6.486-5.757 6.486-9.03V13.16H25.24"/>
        <path fill="#232323" d="M62.995 22.19c-8.64 4.998-22.638 4.998-31.284 0-8.637-4.98-8.637-13.071 0-18.057 8.646-4.992 22.644-4.992 31.284 0 8.637 4.986 8.637 13.077 0 18.057"/>
        <path fill="#D63A3A" d="M62.995 29.096c-8.64 4.986-22.638 4.986-31.284 0-4.317-2.493-6.471-5.763-6.471-9.03v4.617c0 3.264 2.154 6.528 6.471 9.033 8.646 4.98 22.644 4.98 31.284 0 4.323-2.505 6.486-5.77 6.486-9.033v-4.617c0 3.267-2.163 6.537-6.486 9.03"/>
        <path fill="#D63A3A" d="M60.436 34.982s2.187 3.222 1.32 13.239l4.575-1.452c.93-8.841-1.944-15.456-1.944-15.456l-3.951 3.669M67.168 28.442s7.416 4.845 13.695 4.587c-.591 1.257-1.368 2.859-1.644 3.693-8.994.462-14.832-5.41-14.832-5.41l2.781-2.87M49.057 56.969v-2.595h-.792v2.57A2.09 2.09 0 0 0 46.513 59a2.088 2.088 0 0 0 4.176 0c0-.993-.696-1.827-1.632-2.031M54.079 56.675v-2.583h-.792v2.574a2.082 2.082 0 0 0-1.746 2.055c0 1.152.936 2.088 2.079 2.088a2.09 2.09 0 0 0 2.094-2.088 2.095 2.095 0 0 0-1.635-2.046M59.158 56.006v-2.592h-.789v2.574a2.087 2.087 0 0 0-1.755 2.052 2.09 2.09 0 1 0 4.182 0c0-1-.702-1.827-1.638-2.034M64.297 54.98v-2.595h-.789v2.57a2.094 2.094 0 0 0-1.752 2.059c0 1.152.933 2.088 2.088 2.088a2.093 2.093 0 0 0 2.094-2.088 2.081 2.081 0 0 0-1.641-2.034M69.265 53.606v-2.592h-.786v2.574a2.086 2.086 0 0 0 .333 4.146 2.095 2.095 0 0 0 2.091-2.091 2.08 2.08 0 0 0-1.638-2.037M74.062 51.977v-2.601h-.789v2.577a2.086 2.086 0 0 0 .339 4.146 2.093 2.093 0 0 0 2.088-2.094c0-.996-.705-1.83-1.638-2.028M78.802 49.967v-2.595h-.786v2.58a2.074 2.074 0 0 0-1.749 2.052 2.084 2.084 0 0 0 4.167 0c0-1.002-.69-1.83-1.632-2.037M83.404 47.324v-3.915h-.786v3.897a2.094 2.094 0 0 0-1.755 2.058 2.087 2.087 0 1 0 4.176 0 2.086 2.086 0 0 0-1.635-2.04M87.583 43.742V39.82h-.792v3.903a2.087 2.087 0 0 0 .336 4.146 2.091 2.091 0 0 0 2.091-2.094c0-.993-.705-1.827-1.635-2.034"/>
        <path fill="#D63A3A" d="M90.418 40.055v-4.908l-.789.993v3.9a2.085 2.085 0 0 0 .336 4.143 2.088 2.088 0 0 0 .453-4.128M3.961 39.04v-4.904l.783.987v3.903a2.079 2.079 0 0 1 1.755 2.052 2.088 2.088 0 1 1-2.538-2.037M42.946 56.969v-2.595h.795v2.57A2.084 2.084 0 0 1 45.493 59a2.092 2.092 0 0 1-2.088 2.09A2.09 2.09 0 0 1 41.314 59c0-.993.702-1.827 1.632-2.031M37.87 56.288v-2.595h.792v2.574a2.089 2.089 0 0 1 1.749 2.055 2.086 2.086 0 0 1-2.091 2.088 2.088 2.088 0 0 1-2.088-2.088c0-.993.705-1.827 1.638-2.034M32.737 55.256v-2.592h.789v2.574a2.093 2.093 0 0 1 1.752 2.06 2.089 2.089 0 1 1-4.179 0c0-.998.702-1.832 1.638-2.042M27.76 53.885v-2.583h.795v2.568a2.095 2.095 0 0 1 1.755 2.058 2.087 2.087 0 0 1-2.088 2.085 2.088 2.088 0 0 1-2.091-2.085c0-.996.702-1.83 1.629-2.043M22.972 52.256V49.66h.783v2.577a2.08 2.08 0 0 1 1.752 2.055 2.089 2.089 0 0 1-4.179 0c0-1.002.705-1.83 1.644-2.037M18.232 50.246V47.66h.783v2.574a2.074 2.074 0 0 1 1.755 2.052 2.088 2.088 0 0 1-2.091 2.088 2.084 2.084 0 0 1-2.088-2.088c0-1.002.702-1.827 1.641-2.04M13.627 48.896v-3.918h.789v3.897c.984.168 1.749 1.02 1.749 2.052a2.09 2.09 0 0 1-2.085 2.097 2.094 2.094 0 0 1-2.091-2.097c0-.996.705-1.827 1.638-2.031M9.451 46.172v-3.918h.792v3.9a2.08 2.08 0 0 1 1.746 2.055 2.085 2.085 0 0 1-2.091 2.082 2.086 2.086 0 0 1-2.088-2.082c0-1 .702-1.833 1.641-2.037"/>
        <path fill="#D63A3A" d="M6.046 42.64v-4.91l.789.996v3.897a2.086 2.086 0 0 1 1.761 2.052 2.098 2.098 0 0 1-2.097 2.094 2.087 2.087 0 0 1-2.088-2.094 2.1 2.1 0 0 1 1.635-2.034"/>
        <path fill="#939598" d="M4.876 102.515c.372-.231.558-.546.54-.87h.003v-.618h-.345l-.087-.087c-.744-.585-2.13-.726-3.108-.327l-.594.38-.285.034v.618h.006c.012.264.153.525.447.753.639.507 1.758.654 2.679.435l1.464 1.14.735-.303v-.654l-1.455-.501"/>
        <path fill="#BCBEC0" d="M1.453 101.744c.639.507 1.758.648 2.679.432l1.464 1.14.735-.3-1.455-1.15c.66-.422.756-1.08.111-1.583-.744-.58-2.13-.723-3.108-.318-.978.402-1.167 1.203-.426 1.779"/>
        <path fill="#CF7C00" d="M161.461 43.064c-3.327-2.577-6.438-4.314-7.23-4.734-2.43-1.512-29.415-17.637-51.975-4.905-15.747 8.889-10.533 18.345-16.527 21.732-1.737.987-4.152 1.518-6.792 2.109V55.54l-15.504.258.006 13.737h.006c.006 8.27 11.832 14.22 11.832 14.22s16.626 11.094 37.035 5.13c8.913-3.492 8.196-8.53 12.531-11.064 5.88-3.45 22.257-.414 37.707-9.468 6.216-3.651 8.49-7.506 8.484-11.205V43.064h-9.573"/>
        <path fill="#F5B400" d="M85.729 41.18c-4.413 2.487-13.128 2.064-19.203 7.197-10.395 11.763 8.751 21.405 8.751 21.405s16.626 11.082 37.035 5.127c8.913-3.504 8.196-8.538 12.531-11.067 5.88-3.45 22.257-.414 37.707-9.474 22.131-12.981-5.718-28.617-8.319-30.021-2.43-1.506-29.415-17.631-51.975-4.9-15.747 8.887-10.533 18.349-16.527 21.733"/>
        <path fill="#939598" d="M16.753 97.295c.378-.246.564-.558.543-.876h.006v-.621h-.342l-.093-.09c-.738-.58-2.127-.72-3.102-.321l-.597.384-.285.027v.62h.009c.009.262.147.526.444.75.636.508 1.752.66 2.679.436l1.461 1.143.738-.303v-.66l-1.461-.49"/>
        <path fill="#BCBEC0" d="M13.336 96.512c.636.51 1.752.654 2.679.435l1.461 1.146.738-.31-1.461-1.145c.663-.426.759-1.071.114-1.578-.738-.58-2.127-.723-3.102-.33-.978.405-1.173 1.203-.429 1.782"/>
        <path fill="#754C29" d="M92.818 59.822c5.586 3.177 14.391 3.24 19.662.15 5.271-3.096 5.013-8.172-.57-11.352-5.58-3.174-14.379-3.24-19.662-.144-5.271 3.087-5.016 8.169.57 11.346"/>
        <path fill="#603913" d="M104.356 60.716v-.618l-12.219-3.765-19.242 13.083-50.463 28.458 8.697 5.037L84.16 75.917l-.06-2.055 20.256-13.146"/>
        <path fill="#3C2415" d="M31.129 102.91v-2.708l-1.107.828v2.709l1.107-.828"/>
        <path fill="#754C29" d="M104.356 60.098l-12.219-7.074-69.705 42.138 8.697 5.04 73.227-40.104"/>
        <path fill="#939598" d="M97.264 61.835v-.43l-8.655-4.463v.426l8.178 4.749.477-.282"/>
        <path fill="#BCBEC0" d="M97.264 61.406l-8.181-4.737-.474.273 8.178 4.743.477-.28"/>
        <path fill="#939598" d="M84.565 69.143v-.423l-8.658-4.47v.426l8.184 4.74.474-.273"/>
        <path fill="#BCBEC0" d="M84.565 68.72l-8.178-4.74-.48.27 8.184 4.737.474-.267"/>
        <path fill="#939598" d="M71.866 76.46v-.435l-8.655-4.464v.426l8.178 4.743.477-.27"/>
        <path fill="#BCBEC0" d="M71.866 76.025l-8.181-4.734-.474.27 8.178 4.74.477-.276"/>
        <path fill="#939598" d="M59.167 83.756v-.423l-8.661-4.464v.426l8.184 4.737.477-.276"/>
        <path fill="#BCBEC0" d="M59.167 83.333l-8.181-4.737-.48.273 8.184 4.737.477-.273"/>
        <path fill="#939598" d="M33.766 98.372v-.426l-8.649-4.464v.423l8.169 4.746.48-.28"/>
        <path fill="#BCBEC0" d="M33.766 97.946l-8.181-4.734-.468.27 8.169 4.74.48-.276"/>
        <path fill="#CF7C00" d="M112.408 54.902c-.18-1.395-1.227-2.79-3.138-3.882-4.062-2.304-10.44-2.355-14.274-.105-1.653.969-2.568 2.22-2.73 3.498-.186-1.563.705-3.162 2.73-4.347 3.834-2.241 10.212-2.19 14.274.105 2.301 1.302 3.351 3.045 3.138 4.73"/>
        <path fill="#1F1F1F" d="M112.408 54.902c-.165 1.293-1.08 2.544-2.73 3.507-3.831 2.244-10.218 2.196-14.271-.114-1.914-1.083-2.961-2.478-3.141-3.882.162-1.278 1.077-2.53 2.73-3.498 3.834-2.25 10.212-2.2 14.274.105 1.911 1.092 2.958 2.487 3.138 3.882"/>
        <path fill="#FF9800" d="M146.275 40.547l-20.136-11.658-4.356 2.502 20.124 11.673 4.368-2.517"/>
        <path fill="#939598" d="M10.987 99.839c.378-.246.558-.561.537-.876h.012v-.618h-.342l-.093-.093c-.741-.58-2.136-.726-3.105-.315l-.594.375-.285.033v.618h.009c.006.26.141.525.444.753.636.498 1.755.65 2.682.429l1.449 1.143.738-.31v-.647l-1.452-.492"/>
        <path fill="#BCBEC0" d="M7.57 99.059c.636.5 1.755.654 2.682.429l1.449 1.146.738-.303-1.452-1.146c.66-.438.756-1.086.114-1.584-.741-.582-2.136-.732-3.105-.327-.984.402-1.173 1.2-.426 1.785"/>
        <path fill="#CF7C00" d="M24.085 105.272l-8.421 5.466c-.651.42-1.776.462-2.511.08l-.024-.014c-.732-.375-.795-1.026-.147-1.45l8.43-5.456c.651-.423 1.782-.465 2.511-.084l.021.009c.732.387.798 1.029.141 1.449zm-16.986 2.037l-.027-.015c-.648-.423-.579-1.071.153-1.443l9.489-4.854c.729-.366 1.854-.336 2.505.093l.018.015c.654.426.588 1.07-.147 1.446l-9.486 4.842c-.735.375-1.86.342-2.505-.084zm13.344-10.425L4.534 104.87a5.556 5.556 0 0 0-1.281.789H2.185v2.853c0 .6.276 1.206.846 1.764l2.478 2.352 4.077 1.44c2.604.903 5.97.537 7.818-.85l12.618-9.48v-2.708l-9.579-4.146z"/>
        <path fill="#FFAD42" d="M7.225 104.03l9.489-4.842c.729-.378 1.854-.333 2.505.084l.018.018c.654.426.588 1.065-.147 1.443l-9.486 4.85c-.735.376-1.86.328-2.505-.09l-.027-.014c-.648-.423-.579-1.074.153-1.45zm14.187-1.95c.651-.42 1.782-.456 2.511-.087l.021.018c.732.375.798 1.023.141 1.446l-8.421 5.469c-.651.417-1.776.453-2.511.072l-.024-.01c-.732-.368-.795-1.025-.147-1.451l8.43-5.457zm-18.381 5.48l2.478 2.362 4.077 1.44c2.604.903 5.97.54 7.818-.852l12.618-9.48-9.027-5.232-16.461 7.254c-2.418 1.068-3.063 3.003-1.503 4.509z"/>
        <path fill="#939598" d="M24.16 111.89l-.639-.396c-.876-.36-2.058-.615-2.787-.228l-2.466-.732v.654l1.839.765.003.59c.03.394.336.766.942 1.015 1.017.42 2.394.297 3.072-.28l.381-.716v-.672h-.345"/>
        <path fill="#BCBEC0" d="M20.263 111.356c-.372.54-.093 1.188.789 1.548 1.017.414 2.394.294 3.072-.276.69-.57.42-1.377-.603-1.791-.876-.366-2.004-.3-2.736.093l-2.001-.825-.516.429 1.995.822"/>
        <path fill="#939598" d="M28.843 108.38l-.645-.39c-.876-.37-2.058-.61-2.796-.225l-2.46-.732v.654l1.845.759.003.594c.024.39.336.768.939 1.017 1.02.414 2.394.294 3.078-.28l.372-.72v-.677h-.336"/>
        <path fill="#BCBEC0" d="M24.94 107.855c-.375.54-.09 1.182.789 1.542 1.02.426 2.394.297 3.078-.27.678-.573.411-1.383-.609-1.791-.876-.36-2.004-.303-2.739.087l-2.004-.816-.513.426 1.998.822"/>
        <path fill="#939598" d="M46.468 91.07v-.43l-8.658-4.472v.432l8.184 4.737.474-.267"/>
        <path fill="#BCBEC0" d="M46.468 90.64l-8.184-4.74-.474.268 8.184 4.749.474-.276"/>
        <path fill="#3C2415" d="M31.129 100.202l-8.697-5.04-1.437.636 9.027 5.232 1.107-.828"/>
        <path fill="#603913" d="M142.12 39.782v-1.81l-16.056-7.71v1.822l14.676 8.499 1.38-.801"/>
        <path fill="#754C29" d="M142.12 37.973l-14.67-8.508-1.386.798 14.676 8.499 1.38-.79"/>
        <path fill="#FFF" d="M137.245 37.826l-.327-.19L30.292 99.723l.333.195 106.62-62.091M135.775 36.98l-.327-.19-106.62 62.083.333.2L135.775 36.98M134.305 36.128l-.321-.19L27.358 98.03l.336.186 106.611-62.088M132.847 35.279l-.333-.192-106.626 62.09.333.19 106.626-62.088M131.374 34.433l-.327-.195-106.62 62.085.33.189 106.617-62.08M129.91 33.584l-.33-.201L22.957 95.477l.336.186 106.617-62.08"/>
        <path fill="#939598" d="M33.235 105.074l-.636-.402c-.882-.36-2.064-.61-2.805-.228l-2.463-.726v.654l1.848.762v.588c.024.39.336.765.942 1.01 1.023.42 2.391.3 3.075-.27l.378-.722h.003v-.666h-.342"/>
        <path fill="#BCBEC0" d="M29.332 104.534c-.375.546-.084 1.188.789 1.548 1.023.423 2.391.288 3.075-.273.687-.57.42-1.374-.597-1.797-.882-.357-2.004-.291-2.742.096l-2.007-.822-.519.432 2.001.816"/>
        <path fill="#DADADA" d="M153.832 154.296a1.125 1.125 0 0 1-.564-2.1l10.395-6a1.132 1.132 0 0 1 1.536.414 1.13 1.13 0 0 1-.411 1.54l-10.395 6-.561.146zm-20.781 12a1.13 1.13 0 0 1-.978-.56 1.128 1.128 0 0 1 .414-1.54l10.392-6c.54-.3 1.227-.123 1.536.414a1.13 1.13 0 0 1-.411 1.54l-10.392 6-.561.146zm-20.787 12c-.387 0-.765-.2-.975-.56a1.13 1.13 0 0 1 .411-1.54l10.392-6c.54-.3 1.227-.126 1.536.414.312.54.129 1.227-.411 1.54l-10.392 6-.561.146zm-20.784 12c-.39 0-.768-.2-.975-.56a1.127 1.127 0 0 1 .411-1.54l10.392-6a1.127 1.127 0 0 1 1.125 1.953l-10.392 6-.561.147zm-20.784 12c-.39 0-.768-.2-.975-.56a1.127 1.127 0 0 1 .411-1.54l10.392-6a1.127 1.127 0 0 1 1.125 1.953l-10.392 6-.561.147zm-20.784 12c-.39 0-.768-.2-.975-.56a1.127 1.127 0 0 1 .411-1.54l10.392-6c.54-.3 1.227-.126 1.536.414a1.13 1.13 0 0 1-.411 1.54l-10.392 6-.561.146zm-20.784 12a1.13 1.13 0 0 1-.978-.56 1.128 1.128 0 0 1 .414-1.54l10.389-6a1.134 1.134 0 0 1 1.539.414c.309.54.126 1.227-.414 1.54l-10.389 6-.561.146zM262.832 177.296a1.125 1.125 0 0 1-.564-2.1l10.395-6a1.132 1.132 0 0 1 1.536.414 1.13 1.13 0 0 1-.411 1.54l-10.395 6-.561.146zm-20.781 12a1.13 1.13 0 0 1-.978-.56 1.128 1.128 0 0 1 .414-1.54l10.392-6c.54-.3 1.227-.123 1.536.414a1.13 1.13 0 0 1-.411 1.54l-10.392 6-.561.146zm-20.787 12c-.387 0-.765-.2-.975-.56a1.13 1.13 0 0 1 .411-1.54l10.392-6c.54-.3 1.227-.126 1.536.414.312.54.129 1.227-.411 1.54l-10.392 6-.561.146zm-20.784 12c-.39 0-.768-.2-.975-.56a1.127 1.127 0 0 1 .411-1.54l10.392-6a1.127 1.127 0 0 1 1.125 1.953l-10.392 6-.561.147zm-20.784 12c-.39 0-.768-.2-.975-.56a1.127 1.127 0 0 1 .411-1.54l10.392-6a1.127 1.127 0 0 1 1.125 1.953l-10.392 6-.561.147zm-20.784 12c-.39 0-.768-.2-.975-.56a1.127 1.127 0 0 1 .411-1.54l10.392-6c.54-.3 1.227-.126 1.536.414a1.13 1.13 0 0 1-.411 1.54l-10.392 6-.561.146zm-20.784 12a1.13 1.13 0 0 1-.978-.56 1.128 1.128 0 0 1 .414-1.54l10.389-6a1.134 1.134 0 0 1 1.539.414c.309.54.126 1.227-.414 1.54l-10.389 6-.561.146zM298.832 71.296a1.125 1.125 0 0 1-.564-2.1l10.395-6a1.132 1.132 0 0 1 1.536.414 1.13 1.13 0 0 1-.411 1.54l-10.395 6-.561.146zm-20.781 12a1.13 1.13 0 0 1-.978-.56 1.128 1.128 0 0 1 .414-1.54l10.392-6c.54-.3 1.227-.123 1.536.414a1.13 1.13 0 0 1-.411 1.54l-10.392 6-.561.146zm-20.787 12c-.387 0-.765-.2-.975-.56a1.13 1.13 0 0 1 .411-1.54l10.392-6c.54-.3 1.227-.126 1.536.414.312.54.129 1.227-.411 1.54l-10.392 6-.561.146zm-20.784 12c-.39 0-.768-.2-.975-.56a1.127 1.127 0 0 1 .411-1.54l10.392-6a1.127 1.127 0 0 1 1.125 1.953l-10.392 6-.561.147zm-20.784 12c-.39 0-.768-.2-.975-.56a1.127 1.127 0 0 1 .411-1.54l10.392-6a1.127 1.127 0 0 1 1.125 1.953l-10.392 6-.561.147zm-20.784 12c-.39 0-.768-.2-.975-.56a1.127 1.127 0 0 1 .411-1.54l10.392-6c.54-.3 1.227-.126 1.536.414a1.13 1.13 0 0 1-.411 1.54l-10.392 6-.561.146zm-20.784 12a1.13 1.13 0 0 1-.978-.56 1.128 1.128 0 0 1 .414-1.54l10.389-6a1.134 1.134 0 0 1 1.539.414c.309.54.126 1.227-.414 1.54l-10.389 6-.561.146z"/>
        <path fill="#DAD6C4" d="M56.515 139.245l-.56-.15-10.393-6a1.123 1.123 0 0 1-.41-1.536 1.134 1.134 0 0 1 1.535-.414l10.392 6c.54.312.723 1 .414 1.54a1.13 1.13 0 0 1-.978.56zm20.787 12l-.56-.15-10.396-6a1.123 1.123 0 0 1-.41-1.536 1.134 1.134 0 0 1 1.535-.414l10.395 6c.537.312.72 1 .411 1.54-.21.36-.588.56-.975.56zm20.784 12l-.56-.15-10.396-6a1.125 1.125 0 0 1 1.125-1.95l10.395 6a1.127 1.127 0 0 1-.564 2.1zm20.784 12l-.56-.15-10.393-6a1.126 1.126 0 0 1-.414-1.536 1.137 1.137 0 0 1 1.54-.414l10.391 6a1.127 1.127 0 0 1-.564 2.1zM211.515 135.245l-.56-.15-10.393-6a1.123 1.123 0 0 1-.41-1.536 1.134 1.134 0 0 1 1.535-.414l10.392 6c.54.312.723 1 .414 1.54a1.13 1.13 0 0 1-.978.56zm20.787 12l-.56-.15-10.396-6a1.123 1.123 0 0 1-.41-1.536 1.134 1.134 0 0 1 1.535-.414l10.395 6c.537.312.72 1 .411 1.54-.21.36-.588.56-.975.56zm20.784 12l-.56-.15-10.396-6a1.125 1.125 0 0 1 1.125-1.95l10.395 6a1.127 1.127 0 0 1-.564 2.1zm20.784 12l-.56-.15-10.393-6a1.126 1.126 0 0 1-.414-1.536 1.137 1.137 0 0 1 1.54-.414l10.391 6a1.127 1.127 0 0 1-.564 2.1z"/>
        <path fill="#FA5932" d="M33.323 129.816c-2.649 0-5.16-.606-7.065-1.704-2.1-1.215-3.258-2.895-3.258-4.731 0-1.839 1.158-3.519 3.258-4.734 3.813-2.196 10.32-2.196 14.133 0 2.1 1.215 3.255 2.895 3.255 4.734 0 1.836-1.155 3.516-3.255 4.731-1.905 1.098-4.416 1.704-7.068 1.704z"/>
    </g>
</svg>
