<svg xmlns="http://www.w3.org/2000/svg" width="341" height="144" viewBox="0 0 341 144">
    <g fill="none" fill-rule="evenodd">
        <path fill="#CF7C00" d="M314 55v3.75l2.8 2.25 1.2-.764v-3.755L314 55"/>
        <path fill="#F5B400" d="M315.2 54l-1.2.754L316.8 57l1.2-.766L315.2 54"/>
        <path fill="#CF7C00" d="M317 57v4.38l3.5 2.62 1.5-.884v-4.382L317 57"/>
        <path fill="#F5B400" d="M318.502 57l-1.502.757L320.5 60l1.5-.757L318.502 57"/>
        <path fill="#CF7C00" d="M322 60v3.753L324.8 66l1.2-.762v-3.75L322 60"/>
        <path fill="#F5B400" d="M323.195 59L322 60.012 324.8 63l1.2-1.006L323.195 59"/>
        <path fill="#CF7C00" d="M325 63v3.761L328.5 69l1.5-.753V64.49L325 63"/>
        <path fill="#F5B400" d="M326.5 62l-1.5.503L328.5 64l1.5-.504L326.5 62"/>
        <path fill="#CF7C00" d="M330 65v4.384L333.5 72l1.5-.889v-4.383L330 65"/>
        <path fill="#F5B400" d="M331.501 64L330 65.009 333.5 68l1.5-1.018L331.501 64"/>
        <path fill="#CF7C00" d="M334 68v3.762L336.8 74l1.2-.76v-3.748L334 68"/>
        <path fill="#F5B400" d="M335.2 67l-1.2 1.004L336.8 71l1.2-1.01-2.8-2.99"/>
        <path fill="#754C29" d="M205 42.394V27.188h11.204c3.05-2.092 5.536-3.305 5.536-3.305s27.384-19.504 54.13-3.713c2.77 1.635 4.962 3.493 6.672 5.49h5.45v15.008c.224 10.262-4.806 19.487-4.806 19.487s-45.694 8.695-67.738-4.317c-7.763-4.588-10.49-9.2-10.448-13.444"/>
        <path fill="#FFA34D" d="M283.184 46.155s-45.692 8.695-67.734-4.315c-26.746-15.791 6.291-31.956 6.291-31.956s27.383-19.506 54.127-3.713c22.04 13.012 7.316 39.984 7.316 39.984"/>
        <path fill="#CF7C00" d="M273.169 25.785c-6.443-3.713-16.893-3.713-23.336 0-6.444 3.703-6.444 9.722-.002 13.43 6.445 3.713 16.895 3.713 23.338 0 6.441-3.708 6.441-9.727 0-13.43"/>
        <path fill="#754C29" d="M249.059 34c.261-1.638 1.46-3.222 3.602-4.472 4.882-2.847 12.797-2.847 17.677 0 2.14 1.25 3.343 2.834 3.607 4.472.337-2.095-.863-4.257-3.607-5.861-4.88-2.852-12.795-2.852-17.677 0-2.747 1.604-3.95 3.766-3.602 5.861"/>
        <path fill="#000" d="M249 33.5c.262 1.608 1.467 3.166 3.619 4.396 4.904 2.805 12.855 2.805 17.758 0 2.149-1.23 3.358-2.788 3.623-4.395-.265-1.612-1.474-3.17-3.623-4.4-4.903-2.801-12.854-2.801-17.758 0-2.152 1.23-3.357 2.788-3.619 4.4"/>
        <path fill="#3C2415" d="M262 39.914s12.065-1.113 12.106-2.914L303 54.918 292.61 61l-20.23-11.181.06-2.797L262 41.28v-1.366"/>
        <path fill="#603913" d="M304.507 56.553L309.712 55 341 72.95v4.055l-.973.544v1.683c.025.732-.585 1.565-1.766 2.228-1.938 1.093-4.673 1.324-6.102.52L330.34 83l-35.08-17.656-1.26-2.879v-4.05l10.507-1.862"/>
        <path fill="#754C29" d="M310.25 55.3l24.304 14.883c.663.404.577 1.077-.194 1.497-.772.42-1.938.427-2.61.016L307.45 56.823c-.666-.413-.582-1.088.19-1.508.775-.414 1.941-.42 2.612-.016zm19.234 18.839c.7.384.686 1.056-.029 1.496-.712.443-1.858.487-2.56.11l-25.377-13.889c-.702-.384-.69-1.047.032-1.49.713-.443 1.852-.49 2.554-.107l25.38 13.88zM309.62 52.723L304.507 52l-5.251 3.018L294 58.036l1.26 2.935L330.34 79l1.82-1.047c1.428.82 4.163.582 6.101-.53 1.94-1.113 2.347-2.685.918-3.505L341 72.876l-31.38-20.153z"/>
        <path fill="#3C2415" d="M303.26 51l1.74.926-11.257 5.978V62L292 61.076V56.98L303.26 51"/>
        <path fill="#603913" d="M270.514 37.985c2.355-1.374 3.55-3.18 3.592-4.985L303 50.918 292.61 57 262 40.086c3.088-.027 6.16-.724 8.514-2.1"/>
        <path fill="#A7A9AC" d="M297 48l-11 4.371v.365l.59.264L297 48.355V48"/>
        <path fill="#D1D3D4" d="M296.41 47L286 52.67l.59.33L297 47.321l-.59-.321"/>
        <path fill="#414042" d="M222 30.4l1.044.6 32.603-18.8 5.313 3.077 1.04-.601L255.647 11 222 30.4"/>
        <path fill="#000" d="M224 30.77l5.332 3.23L262 14.235 256.675 11 224 30.77"/>
        <path fill="#A7A9AC" d="M247 19l-14 4.966v1.024l2.024 1.01L247 20.026V19"/>
        <path fill="#D1D3D4" d="M244.98 18L233 24.849 235.024 26 247 19.155 244.98 18"/>
        <path fill="#A7A9AC" d="M217.005 15.299H217v-2.142L231 7v2.128c.002.314-.283.68-.83.982l-10.096 5.442c-.882.473-2.108.592-2.724.258-.244-.128-.35-.312-.345-.511"/>
        <path fill="#D1D3D4" d="M230.652 6.199c-.624-.349-1.847-.228-2.725.275L217.83 12.24c-.88.513-1.093 1.209-.477 1.565.616.346 1.842.223 2.724-.28l10.096-5.766c.873-.5 1.094-1.2.48-1.559"/>
        <path fill="#CF7C00" d="M298 67.263V64l5 .99v3.264l-1.266.746L298 67.263"/>
        <path fill="#F5B400" d="M298 63.599l1.263-.599L303 64.398l-1.266.602L298 63.599"/>
        <path fill="#CF7C00" d="M303 69.92V66l4 1.19v3.921l-1.013.889L303 69.92"/>
        <path fill="#F5B400" d="M303 65.9l1.01-.9 2.99 2.1-1.013.9L303 65.9"/>
        <path fill="#CF7C00" d="M307 72.262V69l6 .99v3.267l-1.516.743L307 72.262"/>
        <path fill="#F5B400" d="M307 68.904l1.519-.904L313 70.103l-1.516.897L307 68.904"/>
        <path fill="#CF7C00" d="M312 74.916V71l5 1.186v3.923l-1.265.891L312 74.916"/>
        <path fill="#F5B400" d="M312 70.599l1.262-.599L317 71.396l-1.265.604L312 70.599"/>
        <path fill="#CF7C00" d="M316 76.916V73l6 1.187v3.919l-1.517.894L316 76.916"/>
        <path fill="#F5B400" d="M316 72.904l1.52-.904 4.48 2.098-1.517.902L316 72.904"/>
        <path fill="#CF7C00" d="M321 78.92V75l5 1.189v3.922l-1.267.889L321 78.92"/>
        <path fill="#F5B400" d="M321 75.898l1.267-.898L326 77.097l-1.267.903L321 75.898"/>
        <path fill="#A7A9AC" d="M299 49l-9 5.248v.433l.483.319L299 49.429V49"/>
        <path fill="#D1D3D4" d="M298.517 49L290 54.674l.483.326L299 49.321l-.483-.321"/>
        <path fill="#A7A9AC" d="M291 44l-10 5.26v.425l.534.315L291 44.434V44"/>
        <path fill="#D1D3D4" d="M290.461 43L281 48.683l.534.317L291 43.324l-.539-.324"/>
        <path fill="#A7A9AC" d="M293 46l-9 5.248v.435l.483.317L293 46.429V46"/>
        <path fill="#D1D3D4" d="M292.519 45L284 50.674l.483.326L293 45.323l-.481-.323"/>
        <path fill="#A7A9AC" d="M284 41l-9 5.254v.431l.483.315L284 41.433V41"/>
        <path fill="#D1D3D4" d="M283.515 40L275 45.679l.483.321L284 40.325l-.485-.325"/>
        <path fill="#A7A9AC" d="M288 42l-11 6.13v.497l.59.373L288 42.503V42"/>
        <path fill="#D1D3D4" d="M287.407 41L277 47.628l.59.372L288 41.377l-.593-.377"/>
        <path fill="#A7A9AC" d="M279 37l-10 5.248v.435l.537.317L279 37.429V37"/>
        <path fill="#D1D3D4" d="M278.463 37L269 41.727l.537.273L279 37.268l-.537-.268"/>
        <path fill="#A7A9AC" d="M276 35l-10 6.127v.506l.536.367L276 35.505V35"/>
        <path fill="#D1D3D4" d="M275.461 35L266 40.674l.536.326L276 35.319l-.539-.319"/>
        <path fill="#A7A9AC" d="M282 39l-10 5.252v.433l.54.315 9.46-5.571V39"/>
        <path fill="#D1D3D4" d="M281.464 39L272 43.729l.54.271 9.46-4.73-.536-.27"/>
        <path fill="#FFF" d="M295.849 57l.151-.086-.067-.236L220.236 14l-.236.062.067.236 75.697 42.676.085.026M303.855 53l.145-.082-.057-.235L230.229 9l-.229.064.06.231 73.71 43.68.085.025M301.854 53l.146-.085-.061-.23L228.23 10l-.231.063.063.226 73.708 42.685.083.026M298.847 55l.153-.08-.065-.24L225.227 11l-.227.065.061.237 73.704 43.678.082.02M300.854 54l.146-.079-.062-.23L226.23 11l-.23.066.062.23 74.704 42.687.088.017M296.854 57l.146-.09-.062-.232L222.232 13l-.232.065.062.233 74.7 43.673.092.029M298.854 56l.146-.087-.062-.235L224.238 12l-.238.058.062.237 74.708 43.687.084.018"/>
        <path fill="#DAD6C4" d="M209.447 62.357c-.336 0-.661-.143-.84-.4-.266-.382-.108-.87.355-1.093l1.583-.756c.468-.222 1.06-.09 1.326.29.266.383.108.874-.357 1.094l-1.584.758-.483.107zm-16.46 10.607a.94.94 0 0 1-.818-.48.983.983 0 0 1 .343-1.321l8.687-5.144a.932.932 0 0 1 1.283.355.98.98 0 0 1-.343 1.32l-8.687 5.144-.466.126zm-17.612 9.429a.933.933 0 0 1-.815-.481.983.983 0 0 1 .344-1.32l8.687-5.146a.935.935 0 0 1 1.284.355.983.983 0 0 1-.344 1.32l-8.687 5.146-.469.126zM158.941 93a.933.933 0 0 1-.814-.481.98.98 0 0 1 .343-1.32l8.684-5.145a.936.936 0 0 1 1.286.355.981.981 0 0 1-.346 1.32l-8.684 5.145-.469.126zM68.447 58.357c-.336 0-.661-.143-.84-.4-.266-.382-.108-.87.355-1.093l1.583-.756c.468-.222 1.06-.09 1.326.29.266.383.108.874-.357 1.094l-1.584.758-.483.107zm-16.46 10.607a.94.94 0 0 1-.818-.48.983.983 0 0 1 .343-1.321l8.687-5.144a.932.932 0 0 1 1.283.355.98.98 0 0 1-.343 1.32l-8.687 5.144-.466.126zm-17.612 9.429a.933.933 0 0 1-.815-.481.983.983 0 0 1 .344-1.32l8.687-5.146a.935.935 0 0 1 1.284.355.983.983 0 0 1-.344 1.32l-8.687 5.146-.469.126zM17.941 89a.933.933 0 0 1-.814-.481.98.98 0 0 1 .343-1.32l8.684-5.145a.936.936 0 0 1 1.286.355.981.981 0 0 1-.346 1.32l-8.684 5.145-.469.126z"/>
        <path fill="#FFC900" d="M10.323 104.815c-2.649 0-5.16-.606-7.065-1.704C1.158 101.9 0 100.216 0 98.381c0-1.84 1.158-3.52 3.258-4.732 3.81-2.199 10.32-2.199 14.133 0 2.1 1.212 3.255 2.892 3.255 4.731 0 1.836-1.155 3.52-3.255 4.731-1.905 1.098-4.416 1.704-7.068 1.704z"/>
        <path fill="#DAD6C4" d="M81.515 64.245l-.56-.15-10.393-6a1.123 1.123 0 0 1-.41-1.536 1.134 1.134 0 0 1 1.535-.414l10.392 6c.54.312.723 1 .414 1.54a1.13 1.13 0 0 1-.978.56zm20.787 12l-.56-.15-10.396-6a1.123 1.123 0 0 1-.41-1.536 1.134 1.134 0 0 1 1.535-.414l10.395 6c.537.312.72 1 .411 1.54-.21.36-.588.56-.975.56zm20.784 12l-.56-.15-10.396-6a1.125 1.125 0 0 1 1.125-1.95l10.395 6a1.127 1.127 0 0 1-.564 2.1zm20.784 12l-.56-.15-10.393-6a1.126 1.126 0 0 1-.414-1.536 1.137 1.137 0 0 1 1.54-.414l10.391 6a1.127 1.127 0 0 1-.564 2.1z"/>
        <path fill="#DAD6C4" d="M174.447 83.357c-.336 0-.661-.143-.84-.4-.266-.382-.108-.87.355-1.093l1.583-.756c.468-.222 1.06-.09 1.326.29.266.383.108.874-.357 1.094l-1.584.758-.483.107zm-16.46 10.607a.94.94 0 0 1-.818-.48.983.983 0 0 1 .343-1.321l8.687-5.144a.932.932 0 0 1 1.283.355.98.98 0 0 1-.343 1.32l-8.687 5.144-.466.126zm-17.612 9.429a.933.933 0 0 1-.815-.481.983.983 0 0 1 .344-1.32l8.687-5.146a.935.935 0 0 1 1.284.355.983.983 0 0 1-.344 1.32l-8.687 5.146-.469.126zM123.941 114a.933.933 0 0 1-.814-.481.98.98 0 0 1 .343-1.32l8.684-5.145a.936.936 0 0 1 1.286.355.981.981 0 0 1-.346 1.32l-8.684 5.145-.469.126z"/>
        <path fill="#DAD6C4" d="M124.447 113.357c-.336 0-.661-.143-.84-.4-.266-.382-.108-.87.355-1.093l1.583-.756c.468-.222 1.06-.09 1.326.29.266.383.108.874-.357 1.094l-1.584.758-.483.107zm-16.46 10.607a.94.94 0 0 1-.818-.48.983.983 0 0 1 .343-1.321l8.687-5.144a.932.932 0 0 1 1.283.355.98.98 0 0 1-.343 1.32l-8.687 5.144-.466.126zm-17.612 9.429a.933.933 0 0 1-.815-.481.983.983 0 0 1 .344-1.32l8.687-5.146a.935.935 0 0 1 1.284.355.983.983 0 0 1-.344 1.32l-8.687 5.146-.469.126zM73.941 144a.933.933 0 0 1-.814-.481.98.98 0 0 1 .343-1.32l8.684-5.145a.936.936 0 0 1 1.286.355.981.981 0 0 1-.346 1.32l-8.684 5.145-.469.126z"/>
    </g>
</svg>
