<svg xmlns="http://www.w3.org/2000/svg" width="185" height="99" viewBox="0 0 185 99">
    <g fill="none" fill-rule="evenodd">
        <path fill="#CF7C00" d="M164.353 41.747v2.847l2.141 1.707.918-.58v-2.85l-3.06-1.124"/>
        <path fill="#F5B400" d="M165.27 40.988l-.917.573 2.141 1.704.918-.581-2.142-1.696"/>
        <path fill="#CF7C00" d="M166.647 43.265v3.325l2.677 1.988 1.147-.67V44.58l-3.824-1.316"/>
        <path fill="#F5B400" d="M167.796 43.265l-1.149.575 2.677 1.702 1.147-.575-2.675-1.702"/>
        <path fill="#CF7C00" d="M170.47 45.542v2.849l2.141 1.705.918-.578v-2.847l-3.058-1.129"/>
        <path fill="#F5B400" d="M171.384 44.783l-.913.768 2.14 2.268.918-.763-2.145-2.273"/>
        <path fill="#CF7C00" d="M172.765 47.82v2.854l2.676 1.7 1.147-.572V48.95l-3.823-1.132"/>
        <path fill="#F5B400" d="M173.912 47.06l-1.147.382 2.676 1.136 1.147-.383-2.676-1.135"/>
        <path fill="#CF7C00" d="M176.588 49.337v3.328l2.677 1.986 1.147-.675v-3.327l-3.824-1.312"/>
        <path fill="#F5B400" d="M177.736 48.578l-1.148.766 2.677 2.27 1.147-.772-2.676-2.264"/>
        <path fill="#CF7C00" d="M179.647 51.614v2.856l2.141 1.699.918-.577v-2.845l-3.059-1.133"/>
        <path fill="#F5B400" d="M180.565 50.855l-.918.763 2.141 2.274.918-.767-2.141-2.27"/>
        <path fill="#754C29" d="M81 32.179V20.636h8.568C91.9 19.05 93.8 18.128 93.8 18.128s20.941-14.804 41.393-2.818c2.119 1.24 3.795 2.651 5.103 4.167h4.168v11.391c.17 7.79-3.676 14.792-3.676 14.792s-34.942 6.6-51.799-3.277C83.053 38.901 80.969 35.4 81 32.18"/>
        <path fill="#FFA34D" d="M140.787 35.033s-34.94 6.6-51.796-3.275c-20.453-11.986 4.81-24.256 4.81-24.256s20.94-14.806 41.392-2.818c16.854 9.877 5.594 30.35 5.594 30.35"/>
        <path fill="#CF7C00" d="M133.13 19.572c-4.928-2.819-12.919-2.819-17.846 0-4.927 2.81-4.927 7.38-.002 10.193 4.93 2.82 12.92 2.82 17.847 0 4.926-2.814 4.926-7.382 0-10.193"/>
        <path fill="#754C29" d="M114.692 25.807c.2-1.243 1.117-2.445 2.755-3.394 3.733-2.161 9.786-2.161 13.517 0 1.636.949 2.557 2.15 2.758 3.394.258-1.59-.659-3.231-2.758-4.449-3.731-2.164-9.784-2.164-13.517 0-2.101 1.218-3.022 2.86-2.755 4.45"/>
        <path fill="#000" d="M114.647 25.428c.2 1.22 1.122 2.403 2.767 3.336 3.75 2.13 9.831 2.13 13.58 0 1.644-.933 2.568-2.116 2.77-3.336-.202-1.223-1.126-2.406-2.77-3.34-3.749-2.126-9.83-2.126-13.58 0-1.645.934-2.566 2.117-2.767 3.34"/>
        <path fill="#3C2415" d="M124.588 30.296s9.226-.844 9.258-2.212l22.095 13.601-7.944 4.616-15.47-8.487.044-2.123-7.983-4.358v-1.037"/>
        <path fill="#603913" d="M157.094 42.926l3.98-1.179L185 55.371v3.079l-.744.413v1.277c.019.555-.447 1.188-1.35 1.691-1.483.83-3.574 1.005-4.667.395l-1.39.774-26.826-13.402-.964-2.185v-3.075l8.035-1.412"/>
        <path fill="#754C29" d="M161.486 41.974l18.585 11.297c.507.307.441.818-.149 1.137-.59.319-1.481.324-1.995.012L159.343 43.13c-.509-.314-.445-.826.145-1.145.594-.314 1.485-.32 1.998-.012zm14.707 14.3c.535.291.525.801-.021 1.136-.545.336-1.422.37-1.958.083L154.808 46.95c-.537-.291-.527-.795.024-1.13.545-.337 1.417-.373 1.953-.082l19.408 10.535zM161.004 40.02l-3.91-.55-4.016 2.292-4.02 2.29.965 2.228 26.825 13.685 1.391-.795c1.093.622 3.184.442 4.667-.402 1.482-.845 1.794-2.038.701-2.66l1.393-.792-23.996-15.296z"/>
        <path fill="#3C2415" d="M156.14 38.71l1.33.704-8.608 4.537v3.11l-1.333-.702V43.25l8.61-4.54"/>
        <path fill="#603913" d="M131.099 28.832c1.8-1.043 2.715-2.413 2.747-3.784l22.095 13.6-7.944 4.617-23.409-12.838c2.362-.02 4.71-.55 6.511-1.595"/>
        <path fill="#A7A9AC" d="M151.353 36.434l-8.412 3.318v.276l.452.2 7.96-3.525v-.27"/>
        <path fill="#D1D3D4" d="M150.901 35.675l-7.96 4.303.452.25 7.96-4.31-.452-.243"/>
        <path fill="#414042" d="M94 23.075l.799.455 24.93-14.27 4.064 2.336.795-.457-4.858-2.79L94 23.075"/>
        <path fill="#000" d="M95.53 23.355l4.077 2.452 24.981-15.002-4.072-2.456L95.53 23.355"/>
        <path fill="#A7A9AC" d="M113.118 14.422l-10.706 3.769v.778l1.548.766 9.158-4.534v-.78"/>
        <path fill="#D1D3D4" d="M111.573 13.663l-9.161 5.198 1.548.874 9.158-5.195-1.545-.877"/>
        <path fill="#A7A9AC" d="M90.18 11.612h-.004V9.987l10.706-4.674v1.615c.002.239-.216.516-.634.746l-7.72 4.13c-.675.36-1.612.45-2.084.196-.187-.097-.268-.236-.264-.388"/>
        <path fill="#D1D3D4" d="M100.616 4.705c-.477-.265-1.412-.173-2.083.21L90.81 9.29c-.673.39-.837.917-.365 1.187.471.263 1.408.17 2.083-.212l7.72-4.376c.668-.38.836-.912.367-1.184"/>
        <path fill="#CF7C00" d="M152.118 51.055v-2.477l3.823.752v2.477l-.968.566-2.855-1.318"/>
        <path fill="#F5B400" d="M152.118 48.274l.966-.455 2.857 1.061-.968.457-2.855-1.063"/>
        <path fill="#CF7C00" d="M155.941 53.071v-2.975L159 51v2.977l-.774.675-2.285-1.58"/>
        <path fill="#F5B400" d="M155.941 50.02l.772-.683L159 50.932l-.774.682-2.285-1.594"/>
        <path fill="#CF7C00" d="M159 54.85v-2.477l4.588.752v2.48l-1.16.564-3.428-1.32"/>
        <path fill="#F5B400" d="M159 52.301l1.161-.687 3.427 1.596-1.16.682L159 52.3"/>
        <path fill="#CF7C00" d="M162.824 56.864v-2.972l3.823.9v2.978l-.967.676-2.856-1.582"/>
        <path fill="#F5B400" d="M162.824 53.587l.965-.454 2.858 1.06-.967.458-2.856-1.064"/>
        <path fill="#CF7C00" d="M165.882 58.382V55.41l4.589.9v2.975l-1.16.679-3.429-1.582"/>
        <path fill="#F5B400" d="M165.882 55.337l1.162-.686 3.427 1.592-1.16.685-3.429-1.591"/>
        <path fill="#CF7C00" d="M169.706 59.903v-2.975l3.823.902v2.977l-.968.675-2.855-1.579"/>
        <path fill="#F5B400" d="M169.706 57.61l.969-.682 2.854 1.591-.968.686-2.855-1.595"/>
        <path fill="#A7A9AC" d="M152.882 37.193L146 41.176v.329l.37.242 6.512-4.229v-.325"/>
        <path fill="#D1D3D4" d="M152.513 37.193L146 41.5l.37.247 6.512-4.31-.369-.244"/>
        <path fill="#A7A9AC" d="M146.765 33.398l-7.647 3.992v.322l.408.24 7.239-4.225v-.33"/>
        <path fill="#D1D3D4" d="M146.353 32.639l-7.235 4.313.408.24 7.239-4.308-.412-.245"/>
        <path fill="#A7A9AC" d="M148.294 34.916l-6.882 3.983v.33l.37.24 6.512-4.228v-.325"/>
        <path fill="#D1D3D4" d="M147.926 34.157l-6.514 4.307.37.247 6.512-4.309-.368-.245"/>
        <path fill="#A7A9AC" d="M141.412 31.12l-6.883 3.989v.327l.37.239 6.513-4.226v-.329"/>
        <path fill="#D1D3D4" d="M141.041 30.361l-6.512 4.311.37.244 6.513-4.308-.37-.247"/>
        <path fill="#A7A9AC" d="M144.47 31.88l-8.411 4.652v.378l.451.283 7.96-4.932v-.381"/>
        <path fill="#D1D3D4" d="M144.017 31.12l-7.958 5.031.451.283 7.96-5.027-.453-.287"/>
        <path fill="#A7A9AC" d="M137.588 28.084l-7.647 3.983v.33l.41.242 7.237-4.23v-.325"/>
        <path fill="#D1D3D4" d="M137.178 28.084l-7.237 3.588.41.208 7.237-3.593-.41-.203"/>
        <path fill="#A7A9AC" d="M135.294 26.566l-7.647 4.651v.384l.41.279 7.237-4.93v-.384"/>
        <path fill="#D1D3D4" d="M134.882 26.566l-7.235 4.307.41.247 7.237-4.312-.412-.242"/>
        <path fill="#A7A9AC" d="M139.882 29.602l-7.647 3.987v.328l.414.24 7.233-4.23v-.325"/>
        <path fill="#D1D3D4" d="M139.472 29.602l-7.237 3.59.414.206 7.233-3.591-.41-.205"/>
        <path fill="#FFF" d="M150.473 43.265l.115-.065-.05-.18L92.65 10.628l-.18.046.05.18 57.887 32.392.065.02M156.595 40.229l.11-.062-.043-.179-56.37-33.157-.174.05.045.174L156.53 40.21l.066.019M155.065 40.229l.111-.065-.046-.174-56.365-32.4-.177.049.049.17L155 40.21l.064.02M152.766 41.747l.116-.061-.05-.182L96.468 8.35l-.174.05.047.18 56.361 33.153.064.015M154.3 40.988l.112-.06-.048-.174-57.13-32.405-.175.05.047.175 57.127 32.4.067.014M151.241 43.265l.112-.068-.047-.177L94.177 9.867l-.177.05.047.176 57.123 33.15.071.022M152.77 42.506l.112-.066-.047-.179L95.712 9.108l-.183.045.048.18 57.13 33.16.064.013"/>
        <path fill="#DAD6C4" d="M85.062 47.786c-.255 0-.502-.109-.638-.303-.202-.29-.082-.66.269-.828l1.203-.573c.355-.169.804-.068 1.006.22.202.29.082.662-.27.828l-1.203.575-.367.08zM72.564 55.82a.714.714 0 0 1-.62-.364.744.744 0 0 1 .26-1l6.595-3.897a.709.709 0 0 1 .974.269c.198.35.08.797-.26 1l-6.595 3.897-.354.095zm-13.372 7.143a.708.708 0 0 1-.618-.364.744.744 0 0 1 .26-1l6.596-3.898a.711.711 0 0 1 .975.269c.196.35.08.797-.261 1l-6.596 3.898-.356.095zM46.715 71a.708.708 0 0 1-.619-.364.742.742 0 0 1 .26-1l6.594-3.898a.712.712 0 0 1 .977.27c.196.35.08.796-.263.999l-6.593 3.898-.356.095zM-13.248 49.336l-.426-.115-7.899-4.61a.868.868 0 0 1-.312-1.181.857.857 0 0 1 1.168-.318l7.898 4.61c.41.24.55.768.314 1.183a.857.857 0 0 1-.743.431zm15.799 9.221l-.426-.115-7.901-4.61a.868.868 0 0 1-.312-1.18.857.857 0 0 1 1.167-.319l7.9 4.61c.409.24.548.768.313 1.183a.856.856 0 0 1-.741.431zm15.796 9.222l-.426-.116-7.9-4.61a.87.87 0 0 1-.313-1.18.855.855 0 0 1 1.167-.319l7.901 4.611c.408.24.55.768.312 1.183a.85.85 0 0 1-.74.43zM34.144 77l-.427-.115-7.898-4.61a.87.87 0 0 1-.314-1.181.86.86 0 0 1 1.17-.318l7.898 4.61c.408.24.549.768.312 1.183a.85.85 0 0 1-.741.431z"/>
        <path fill="#DAD6C4" d="M58.062 63.786c-.255 0-.502-.109-.638-.303-.202-.29-.082-.66.269-.828l1.203-.573c.355-.169.804-.068 1.006.22.202.29.082.662-.27.828l-1.203.575-.367.08zM45.564 71.82a.714.714 0 0 1-.62-.364.744.744 0 0 1 .26-1l6.595-3.897a.709.709 0 0 1 .974.269c.198.35.08.797-.26 1l-6.595 3.897-.354.095zm-13.372 7.143a.708.708 0 0 1-.618-.364.744.744 0 0 1 .26-1l6.596-3.898a.711.711 0 0 1 .975.269c.196.35.08.797-.261 1l-6.596 3.898-.356.095zM19.715 87a.708.708 0 0 1-.619-.364.742.742 0 0 1 .26-1l6.594-3.898a.712.712 0 0 1 .977.27c.196.35.08.796-.263.999l-6.593 3.898-.356.095z"/>
        <path fill="#DAD6C4" d="M20.062 86.786c-.255 0-.502-.109-.638-.303-.202-.29-.082-.66.269-.828l1.203-.573c.355-.169.804-.068 1.006.22.202.29.082.662-.27.828l-1.203.575-.367.08zM7.564 94.82a.714.714 0 0 1-.62-.364.744.744 0 0 1 .26-1l6.595-3.897a.709.709 0 0 1 .974.269c.198.35.08.797-.26 1l-6.595 3.897-.354.095zm-13.372 7.143a.708.708 0 0 1-.618-.364.744.744 0 0 1 .26-1L.43 96.702a.711.711 0 0 1 .975.269c.196.35.08.797-.261 1l-6.596 3.898-.356.095zM-18.285 110a.708.708 0 0 1-.619-.364.742.742 0 0 1 .26-1l6.594-3.898a.712.712 0 0 1 .977.27c.196.35.08.796-.263.999l-6.593 3.898-.356.095z"/>
    </g>
</svg>
