<svg xmlns="http://www.w3.org/2000/svg" xmlns:xlink="http://www.w3.org/1999/xlink" width="121" height="89" viewBox="0 0 121 89">
    <defs>
        <path id="a" d="M38.379 67.347L.353 45.633 78.88.751l38.028 21.714z"/>
    </defs>
    <g fill="none" fill-rule="evenodd">
        <path d="M-10-10h150v150H-10z"/>
        <g transform="translate(0 21.564)">
            <mask id="b" fill="#fff">
                <use xlink:href="#a"/>
            </mask>
            <path fill="#952828" d="M.353 67.347h116.556V.75H.353z" mask="url(#b)"/>
        </g>
        <path fill="#FA5932" d="M39.95 85.06C12.33 77.683 1.49 60.882 1.198 60.526L77.46 16.772s6.915 8.203 18.825 15.04c11.958 6.863 18.757 6.568 18.826 6.565l1.097 2.926c-.298.018-76.258 43.756-76.258 43.756"/>
        <path fill="#CD310C" d="M19.77 78.006C7.322 70.626.29 61.976 0 61.612l1.09-1.71-.546.855.541-.856c.07.083 6.868 8.414 18.684 15.42 11.867 7.036 18.61 6.736 18.679 6.73l1.087 3.003c-.294.016-7.325.329-19.766-7.048"/>
        <path fill="#FFB537" d="M16.072 68.287a8.878 8.878 0 0 1-7.683-4.41c-2.462-4.227-1.018-9.64 3.226-12.093l70.9-41.005c4.24-2.45 9.67-1.01 12.124 3.213 2.464 4.228 1.021 9.641-3.22 12.092L20.52 67.09a8.886 8.886 0 0 1-4.447 1.196"/>
        <path fill="#EC8713" d="M16.439 68.287a8.816 8.816 0 0 1-7.648-4.443c-2.45-4.26 6.848 3.383 11.069.912L92.58 22.88c4.219-2.472 1.129-11.715 2.064-9.304 2.453 4.26 1.017 9.714-3.204 12.184L20.866 67.082a8.762 8.762 0 0 1-4.427 1.205"/>
        <path fill="#FFF" d="M62.142 35.342c0-.213-.198-.386-.445-.386-.242 0-.443.173-.443.386 0 .212.201.385.443.385.247 0 .445-.173.445-.385M65.292 33.748c-.205 0-.373.176-.373.397 0 .218.168.394.373.394a.383.383 0 0 0 .373-.394c0-.22-.166-.397-.373-.397M67.688 32.83c-.27 0-.489.05-.489.114 0 .066.22.118.49.118.269 0 .488-.052.488-.118 0-.063-.22-.115-.489-.115M71.283 31.515a.234.234 0 0 0-.234.232.233.233 0 1 0 .234-.232M74.875 28.956c-.202 0-.371.176-.371.397 0 .218.169.394.371.394a.384.384 0 0 0 .374-.394.384.384 0 0 0-.374-.397M77.274 27.78c-.309 0-.56.166-.56.373 0 .205.251.373.56.373.31 0 .557-.168.557-.373 0-.207-.248-.372-.557-.372M85.661 21.93c-.186 0-.337.105-.337.234 0 .128.15.232.337.232.181 0 .332-.104.332-.232 0-.13-.15-.234-.332-.234M90.452 22.047l-.188.116.188.117.185-.117-.185-.116M89.254 21.93a.232.232 0 0 0-.234.234c0 .128.102.232.234.232a.232.232 0 0 0 .23-.232.232.232 0 0 0-.23-.234M55.707 40.982c-.243 0-.44.157-.44.35 0 .192.197.349.44.349.245 0 .442-.157.442-.35 0-.192-.197-.349-.442-.349"/>
        <path fill="#FFF" d="M94.256 14c-2.443-4.232-7.85-5.674-12.07-3.219L11.593 51.86a8.868 8.868 0 0 0-4.395 8.118c4.821 3.701 10.802-3.056 11.53-1.796.754 1.305 1.65.538 2.69-.668l-.013.154c0 .438.352.792.787.792a.789.789 0 0 0 .786-.792.788.788 0 0 0-.786-.789l-.285.054c1.112-1.335 2.38-2.871 3.806-2.871 1.512 0 9.595-2.747 15.21-5.909.552-.31 1.084-.633 1.594-.962a.827.827 0 0 0 .666.345.824.824 0 0 0 .696-1.264c1.93-1.37 3.713-2.9 5.707-4.572-.061.129-.1.279-.1.441 0 .474.32.858.715.858.393 0 .714-.384.714-.858 0-.473-.32-.857-.714-.857l-.13.014c2.106-1.757 4.467-3.666 7.498-5.72 7.605-5.15 11.202-3.238 14.2-7.21 2.198-2.909 3.899-2.74 6.623-3.462.003.507.322.92.719.92.396 0 .715-.416.715-.929l-.077-.412a16.71 16.71 0 0 0 2.121-.928l.104-.051a.644.644 0 0 0 .63.463.63.63 0 0 0 .646-.619l-.148-.392c2.665-1.24 6.095-2.53 8.524-4.01.038.196.257.35.53.35.301 0 .548-.184.548-.412 0-.184-.162-.333-.38-.388 1.906-1.311 2.926-2.78 1.93-4.498"/>
        <path fill="#FFF" d="M53.311 41.118c-.155 0-.279.096-.279.212 0 .12.124.215.28.215.154 0 .28-.095.28-.215 0-.116-.126-.212-.28-.212M58.105 37.388a.35.35 0 0 0 0 .7.35.35 0 0 0 0-.7M38.934 50.683a.232.232 0 0 0-.231.233c0 .128.103.232.23.232.131 0 .236-.104.236-.232a.233.233 0 0 0-.235-.233M33.55 52.713a1.199 1.199 0 1 0 0 0M29.353 54.23a.281.281 0 0 0-.281.28c0 .154.128.28.281.28a.28.28 0 0 0 0-.56M24.561 56.58a.325.325 0 0 0-.327.326.325.325 0 1 0 .65 0 .325.325 0 0 0-.323-.326M16.175 61.126a.572.572 0 1 0-.001 1.144.572.572 0 0 0 .001-1.144M19.766 61.35a.348.348 0 0 0 0 .697.35.35 0 0 0 .35-.349.35.35 0 0 0-.35-.349M26.955 56.58a.325.325 0 1 0 0 .65.325.325 0 0 0 0-.65M48.521 45.634a.49.49 0 0 0 0 .98c.27 0 .486-.221.486-.49a.487.487 0 0 0-.486-.49M62.896 37.225a.513.513 0 1 0-.001 1.027.513.513 0 0 0 .001-1.027"/>
        <path fill="#FFB537" d="M23.259 75.475a8.879 8.879 0 0 1-7.685-4.41c-2.456-4.227-1.014-9.64 3.225-12.09l70.898-41.008c4.242-2.45 9.672-1.012 12.13 3.213 2.464 4.227 1.02 9.64-3.222 12.093L27.703 74.28a8.873 8.873 0 0 1-4.444 1.196"/>
        <path fill="#EC8713" d="M23.627 75.475a8.817 8.817 0 0 1-7.65-4.443c-2.444-4.26 6.85 3.384 11.07.914l72.721-41.88c4.22-2.47 1.128-11.714 2.065-9.302 2.452 4.26 1.015 9.715-3.208 12.186L28.051 74.27a8.75 8.75 0 0 1-4.424 1.205"/>
        <path fill="#FFF" d="M69.326 42.53c0-.213-.195-.385-.44-.385s-.44.172-.44.384c0 .213.195.386.44.386s.44-.173.44-.386M72.478 40.937c-.205 0-.37.175-.37.395 0 .218.165.394.37.394a.384.384 0 0 0 .375-.394.383.383 0 0 0-.375-.395M74.877 40.016c-.272 0-.49.053-.49.116 0 .065.218.12.49.12.27 0 .488-.055.488-.12 0-.063-.218-.116-.488-.116M78.471 37.505a.233.233 0 0 0 0 .466.233.233 0 0 0 .232-.234.232.232 0 0 0-.232-.232M82.066 36.144a.385.385 0 0 0-.374.396c0 .218.167.395.374.395.203 0 .37-.177.37-.395 0-.22-.167-.396-.37-.396M84.46 33.771c-.31 0-.558.165-.558.371 0 .208.249.374.558.374.308 0 .56-.166.56-.374 0-.206-.252-.371-.56-.371M92.848 29.118c-.186 0-.333.105-.333.234 0 .128.147.232.333.232.184 0 .33-.104.33-.232 0-.13-.146-.234-.33-.234M97.637 28.038l-.186.116.186.115.19-.115-.19-.116M96.443 29.118a.234.234 0 0 0-.236.234.234.234 0 0 0 .467 0 .233.233 0 0 0-.231-.234M62.894 48.17c-.244 0-.442.158-.442.35 0 .193.198.35.442.35.246 0 .446-.157.446-.35 0-.192-.2-.35-.446-.35"/>
        <path fill="#FFF" d="M101.444 21.187a8.825 8.825 0 0 0-12.077-3.218L18.78 59.049a8.87 8.87 0 0 0-4.393 8.116c4.821 3.703 10.804-3.056 11.537-1.795.75 1.304 1.644.537 2.683-.67l-.01.155c0 .439.345.792.784.792a.787.787 0 0 0 .786-.792c0-.435-.351-.79-.786-.79l-.286.057c1.114-1.335 2.38-2.873 3.815-2.873 1.5 0 9.586-2.748 15.203-5.909.55-.309 1.08-.63 1.595-.963.148.209.39.346.663.346a.823.823 0 0 0 .694-1.263c1.931-1.37 3.718-2.9 5.718-4.575a.977.977 0 0 0-.11.444c0 .475.321.859.716.859.395 0 .717-.384.717-.86 0-.473-.322-.856-.717-.856l-.132.014c2.107-1.755 4.47-3.666 7.5-5.718 7.6-5.153 11.2-3.24 14.203-7.216 2.196-2.907 3.893-2.738 6.619-3.459.001.508.322.92.717.92.394 0 .72-.416.72-.929l-.079-.41c.647-.233 1.35-.53 2.12-.931l.102-.051a.65.65 0 0 0 .63.466c.359 0 .651-.277.651-.618l-.155-.396c2.67-1.24 6.097-2.528 8.527-4.01.04.197.259.349.532.349.303 0 .548-.182.548-.41 0-.182-.162-.332-.38-.387 1.9-1.313 2.93-2.779 1.932-4.499"/>
        <path fill="#FFF" d="M60.503 48.307c-.157 0-.282.095-.282.211 0 .119.125.214.282.214.152 0 .276-.095.276-.214 0-.116-.124-.21-.276-.21M65.29 44.576a.349.349 0 0 0-.347.35.349.349 0 1 0 .347-.35M46.121 57.87a.233.233 0 1 0 .235.234.233.233 0 0 0-.235-.233M40.736 59.901a1.198 1.198 0 1 0-.007 2.396 1.198 1.198 0 0 0 .007-2.396M36.54 61.419a.28.28 0 1 0-.001.56.28.28 0 0 0 .001-.56M31.747 63.768a.327.327 0 0 0-.326.325.327.327 0 0 0 .653 0 .327.327 0 0 0-.327-.325M23.358 68.314a.573.573 0 1 0 .008 1.145.573.573 0 0 0-.008-1.145M26.956 67.34a.346.346 0 0 0-.349.348c0 .194.154.348.349.348a.346.346 0 0 0 .347-.348.347.347 0 0 0-.347-.348M34.145 63.768a.327.327 0 0 0-.327.325c0 .18.148.327.327.327.18 0 .324-.146.324-.327a.324.324 0 0 0-.324-.325M55.708 52.822a.489.489 0 1 0 .002.978.489.489 0 0 0-.002-.978M68.886 44.414a.51.51 0 0 0-.51.512.51.51 0 1 0 1.021 0 .51.51 0 0 0-.511-.512"/>
        <path fill="#FFB537" d="M34.043 82.663c-3.062 0-6.04-1.577-7.687-4.407-2.456-4.228-1.014-9.64 3.227-12.093l70.898-41.008c4.243-2.45 9.674-1.011 12.131 3.213a8.833 8.833 0 0 1-3.223 12.094L38.487 81.469a8.858 8.858 0 0 1-4.444 1.194"/>
        <path fill="#EC8713" d="M34.411 82.663a8.812 8.812 0 0 1-7.651-4.441c-2.445-4.26 6.848 3.385 11.069.914l72.72-41.883c4.221-2.468 1.133-11.713 2.069-9.3 2.447 4.26 1.014 9.714-3.209 12.186l-70.574 41.32a8.735 8.735 0 0 1-4.424 1.204"/>
        <path fill="#FFF" d="M80.109 48.52c0-.213-.197-.385-.44-.385-.246 0-.441.172-.441.385 0 .212.195.384.44.384.244 0 .44-.172.44-.384M82.066 46.926c-.209 0-.374.176-.374.396 0 .218.165.396.374.396.203 0 .37-.178.37-.396 0-.22-.167-.396-.37-.396M85.659 47.205c-.272 0-.489.053-.489.116 0 .065.217.118.489.118.268 0 .488-.053.488-.118 0-.063-.22-.116-.488-.116M89.252 44.693a.232.232 0 1 0 0 .465.234.234 0 0 0 .233-.232.234.234 0 0 0-.233-.233M91.649 43.332c-.208 0-.373.176-.373.395 0 .218.165.397.373.397.206 0 .372-.179.372-.397a.384.384 0 0 0-.372-.395M95.24 40.96c-.308 0-.557.165-.557.371s.25.373.557.373c.313 0 .562-.167.562-.373s-.25-.371-.562-.371M103.629 36.307c-.184 0-.335.105-.335.234 0 .127.151.232.335.232.183 0 .334-.105.334-.232 0-.129-.151-.234-.334-.234M108.423 35.225l-.189.118.189.115.184-.115-.184-.118M106.025 36.307a.233.233 0 1 0 0 .466.233.233 0 0 0 0-.466M73.678 54.16c-.242 0-.441.158-.441.352 0 .191.199.347.44.347.246 0 .443-.156.443-.347 0-.194-.197-.351-.442-.351"/>
        <path fill="#FFF" d="M112.228 28.375a8.825 8.825 0 0 0-12.077-3.218l-70.585 41.08c-2.964 1.721-4.555 4.907-4.397 8.117 4.821 3.703 10.805-3.057 11.533-1.795.754 1.303 1.65.536 2.69-.671l-.015.157a.787.787 0 0 0 1.574 0 .789.789 0 0 0-.787-.792l-.287.057c1.116-1.335 2.384-2.873 3.815-2.873 1.503 0 9.59-2.748 15.203-5.909.55-.309 1.082-.63 1.597-.963.15.209.387.345.662.345a.822.822 0 0 0 .695-1.262c1.933-1.372 3.714-2.9 5.716-4.571a.945.945 0 0 0-.111.438c0 .476.324.861.72.861.393 0 .712-.385.712-.86s-.319-.858-.712-.858l-.134.016c2.106-1.755 4.47-3.666 7.5-5.718 7.601-5.153 11.203-3.24 14.202-7.215 2.197-2.908 3.896-2.738 6.62-3.46.002.508.32.92.717.92.399 0 .72-.416.72-.928l-.078-.412a16.723 16.723 0 0 0 2.12-.93l.105-.05a.641.641 0 0 0 .626.464c.361 0 .654-.276.654-.62l-.155-.391c2.664-1.241 6.095-2.53 8.524-4.011.043.196.258.348.533.348.303 0 .548-.182.548-.41 0-.182-.163-.332-.383-.387 1.903-1.312 2.929-2.779 1.935-4.499"/>
        <path fill="#FFF" d="M70.085 55.495c-.157 0-.28.095-.28.214 0 .117.123.212.28.212.154 0 .279-.095.279-.212 0-.12-.125-.214-.28-.214M76.073 51.764a.35.35 0 1 0 .003.7.35.35 0 0 0-.003-.7M56.905 63.861a.233.233 0 0 0 0 .466.233.233 0 1 0 0-.466M51.517 67.09c-.662 0-1.2.538-1.2 1.197 0 .66.538 1.198 1.2 1.198a1.2 1.2 0 0 0 1.196-1.198 1.2 1.2 0 0 0-1.196-1.198M46.124 68.607a.28.28 0 1 0 0 0M41.333 70.956a.327.327 0 1 0-.003.653.327.327 0 0 0 .003-.653M34.145 75.502a.573.573 0 1 0-.002 1.146.573.573 0 0 0 .002-1.146M36.538 74.527a.346.346 0 0 0-.348.349c0 .193.153.35.348.35a.35.35 0 0 0 0-.698M44.927 70.956a.326.326 0 1 0-.001.653.326.326 0 0 0 0-.653M66.49 60.01a.49.49 0 0 0 0 .98c.273 0 .488-.22.488-.49s-.215-.49-.487-.49M79.668 51.602a.51.51 0 0 0-.51.514c0 .281.226.51.51.51a.513.513 0 0 0 0-1.024"/>
        <path fill="#FFB537" d="M22.066 58.703a8.873 8.873 0 0 1-7.687-4.41c-2.462-4.225-1.016-9.639 3.221-12.09L88.505 1.195c4.239-2.45 9.672-1.012 12.127 3.214 2.459 4.225 1.018 9.64-3.223 12.091l-70.9 41.008a8.854 8.854 0 0 1-4.443 1.195"/>
        <path fill="#EC8713" d="M22.432 58.703a8.812 8.812 0 0 1-7.65-4.443c-2.451-4.259 6.847 3.385 11.065.914l72.722-41.881c4.222-2.468 1.13-11.714 2.069-9.301 2.447 4.258 1.013 9.715-3.208 12.185L26.856 57.499a8.731 8.731 0 0 1-4.424 1.204"/>
        <path fill="#FFF" d="M69.328 24.558c0-.21-.197-.383-.441-.383-.246 0-.442.172-.442.383 0 .215.196.386.442.386.244 0 .44-.171.44-.386M71.281 22.965c-.204 0-.371.178-.371.396 0 .218.167.396.371.396.208 0 .374-.178.374-.396a.384.384 0 0 0-.374-.396M74.877 23.245c-.27 0-.49.051-.49.117 0 .063.22.116.49.116s.489-.053.489-.116c0-.066-.22-.117-.49-.117M78.47 20.733a.232.232 0 1 0 0 .465.234.234 0 0 0 .233-.234.233.233 0 0 0-.233-.231M80.866 19.371c-.206 0-.371.176-.371.396 0 .218.165.396.371.396s.372-.178.372-.396c0-.22-.166-.396-.372-.396M84.46 17c-.31 0-.56.166-.56.37 0 .207.25.373.56.373.31 0 .561-.166.561-.372 0-.205-.252-.372-.56-.372M92.846 12.347c-.183 0-.333.104-.333.232s.15.233.333.233c.184 0 .334-.105.334-.233s-.15-.232-.334-.232M97.64 11.265l-.187.117.187.115.184-.115-.184-.117M95.243 12.347a.233.233 0 1 0-.001.466.233.233 0 0 0 .001-.466M61.697 30.2c-.242 0-.441.157-.441.35 0 .193.199.349.44.349.246 0 .444-.156.444-.349 0-.193-.198-.35-.443-.35"/>
        <path fill="#FFF" d="M101.445 4.416C99.001.183 93.592-1.258 89.372 1.197l-70.594 41.08c-2.958 1.721-4.551 4.908-4.39 8.118 4.824 3.7 10.803-3.058 11.532-1.796.756 1.303 1.648.536 2.687-.672l-.014.158a.789.789 0 1 0 .79-.79l-.282.054c1.105-1.336 2.375-2.872 3.81-2.872 1.5 0 9.585-2.748 15.203-5.909.55-.309 1.076-.629 1.595-.961a.82.82 0 0 0 .666.344c.454 0 .819-.369.819-.825a.823.823 0 0 0-.127-.44c1.93-1.37 3.716-2.897 5.711-4.57a.989.989 0 0 0-.106.44c0 .476.321.86.72.86.394 0 .713-.384.713-.86 0-.473-.319-.858-.714-.858l-.132.016c2.106-1.755 4.469-3.666 7.498-5.718 7.603-5.152 11.201-3.24 14.206-7.215 2.195-2.908 3.889-2.736 6.618-3.46 0 .508.321.918.716.918.398 0 .717-.413.717-.926l-.074-.412c.645-.23 1.35-.527 2.12-.926l.105-.053c.07.267.321.463.626.463.358 0 .65-.278.65-.619l-.153-.392c2.668-1.24 6.093-2.528 8.525-4.01.042.196.259.35.532.35.303 0 .55-.186.55-.414 0-.182-.164-.332-.383-.386 1.904-1.313 2.927-2.78 1.933-4.498"/>
        <path fill="#FFF" d="M59.304 31.534c-.154 0-.281.096-.281.214 0 .117.127.213.281.213.153 0 .277-.096.277-.213 0-.118-.124-.214-.277-.214M64.095 27.804a.348.348 0 1 0 .347.35.348.348 0 0 0-.347-.35M46.124 39.9a.233.233 0 1 0 0 0M40.73 43.129a1.199 1.199 0 1 0 .006 2.397 1.199 1.199 0 0 0-.006-2.397M35.344 44.647a.28.28 0 1 0-.005.558.28.28 0 0 0 .005-.558M30.548 46.995a.326.326 0 1 0 .002.652.326.326 0 0 0-.002-.652M23.359 51.542a.571.571 0 0 0 0 1.143.572.572 0 1 0 0-1.143M25.76 50.567a.348.348 0 1 0 0 .698.346.346 0 0 0 .345-.35.347.347 0 0 0-.346-.348M34.144 46.995a.326.326 0 1 0 .326.326.326.326 0 0 0-.326-.326M55.707 36.05c-.271 0-.487.22-.487.49a.489.489 0 1 0 .486-.49M68.89 27.641a.512.512 0 1 0-.005 1.024.512.512 0 0 0 .004-1.024"/>
        <path fill="#FFB537" d="M34.044 68.287a8.882 8.882 0 0 1-7.688-4.41c-2.455-4.225-1.016-9.638 3.226-12.091l70.9-41.006c4.242-2.453 9.674-1.011 12.13 3.213 2.459 4.226 1.018 9.64-3.223 12.092l-70.9 41.01a8.883 8.883 0 0 1-4.445 1.192"/>
        <path fill="#EC8713" d="M34.412 68.287a8.82 8.82 0 0 1-7.653-4.443c-2.443-4.258 6.85 3.385 11.07.916l72.72-41.883c4.22-2.468 1.128-11.712 2.069-9.301 2.447 4.258 1.013 9.713-3.208 12.184L38.836 67.085a8.76 8.76 0 0 1-4.424 1.202"/>
        <path fill="#FFF" d="M81.309 34.144c0-.213-.199-.386-.443-.386-.243 0-.442.173-.442.386 0 .212.199.385.442.385.244 0 .443-.173.443-.385M83.264 32.55c-.208 0-.373.178-.373.396 0 .22.165.395.373.395.206 0 .37-.176.37-.395 0-.218-.164-.396-.37-.396M86.856 32.83c-.27 0-.487.052-.487.117 0 .063.217.115.487.115.271 0 .488-.052.488-.115 0-.065-.217-.118-.488-.118M89.255 30.316a.233.233 0 1 0 0 .467.233.233 0 0 0 0-.467M92.847 27.758c-.207 0-.373.178-.373.396 0 .22.166.395.373.395.204 0 .372-.176.372-.395 0-.218-.168-.396-.372-.396M96.44 26.583c-.308 0-.558.167-.558.372 0 .206.25.372.558.372.308 0 .56-.166.56-.372 0-.205-.252-.372-.56-.372M104.826 21.931c-.184 0-.333.105-.333.232 0 .13.149.233.333.233.185 0 .334-.103.334-.233 0-.127-.15-.232-.334-.232M109.622 20.849l-.189.116.19.117.182-.117-.183-.116M107.223 21.931a.232.232 0 1 0 0 .465.233.233 0 0 0 0-.465M73.679 39.784c-.245 0-.443.156-.443.35 0 .193.198.349.443.349.242 0 .442-.156.442-.35 0-.193-.2-.349-.442-.349"/>
        <path fill="#FFF" d="M112.229 14c-2.446-4.23-7.854-5.675-12.077-3.218L29.566 51.86c-2.964 1.723-4.555 4.908-4.397 8.118 4.826 3.701 10.807-3.058 11.535-1.796.752 1.305 1.647.538 2.689-.67l-.02.156a.79.79 0 1 0 .791-.79l-.285.057c1.113-1.335 2.379-2.875 3.813-2.875 1.505 0 9.587-2.746 15.203-5.907a30.235 30.235 0 0 0 1.593-.963c.15.207.393.345.664.345a.827.827 0 0 0 .7-1.264c1.93-1.37 3.712-2.897 5.71-4.571a.979.979 0 0 0-.105.442c0 .474.32.857.715.857.395 0 .716-.383.716-.857s-.321-.86-.716-.86l-.13.015c2.105-1.755 4.468-3.664 7.497-5.718 7.604-5.152 11.205-3.238 14.204-7.213 2.196-2.91 3.89-2.738 6.617-3.461.003.509.322.919.719.919.398 0 .72-.415.72-.926l-.079-.414c.647-.23 1.35-.527 2.122-.926l.1-.053a.652.652 0 0 0 .629.465c.36 0 .65-.278.65-.619l-.151-.394c2.666-1.24 6.096-2.526 8.524-4.01.041.2.26.351.53.351.302 0 .55-.185.55-.412 0-.184-.163-.334-.382-.387 1.905-1.311 2.929-2.78 1.937-4.498"/>
        <path fill="#FFF" d="M71.283 41.119c-.155 0-.28.096-.28.212 0 .117.125.213.28.213.153 0 .278-.096.278-.213 0-.116-.125-.212-.278-.212M76.073 37.388a.35.35 0 0 0 0 .7c.195 0 .35-.157.35-.35a.348.348 0 0 0-.35-.35M58.105 49.485a.233.233 0 0 0 0 .466.232.232 0 0 0 .23-.233.232.232 0 0 0-.23-.233M52.715 52.713a1.198 1.198 0 1 0 0 2.396c.665 0 1.196-.536 1.196-1.198 0-.662-.53-1.198-1.196-1.198M47.321 54.23a.28.28 0 0 0 0 .56.28.28 0 1 0 0-.56M42.53 56.58a.327.327 0 0 0 0 .652.326.326 0 0 0 0-.653M34.146 61.126a.574.574 0 0 0-.574.573.57.57 0 1 0 1.143 0 .571.571 0 0 0-.569-.573M37.738 60.15a.35.35 0 1 0 0 .7.35.35 0 0 0 0-.7M46.124 56.58a.327.327 0 1 0 0 .653.327.327 0 0 0 0-.654M66.49 45.636a.487.487 0 1 0 .488.488c0-.272-.219-.488-.487-.488M80.866 37.225a.514.514 0 1 0 .514.514.515.515 0 0 0-.514-.514"/>
        <path fill="#EC8713" d="M102.43 76.673c-3.526 0-7.05-.76-9.741-2.28-5.38-3.04-5.38-7.972 0-11.014 2.69-1.52 6.215-2.28 9.742-2.28 3.526 0 7.051.76 9.741 2.28 5.381 3.042 5.381 7.974 0 11.014-2.69 1.52-6.215 2.28-9.741 2.28"/>
        <path fill="#FFC900" d="M121 55.109c0 9.923-8.047 17.97-17.973 17.97-9.922 0-17.968-8.047-17.968-17.97H121"/>
        <path fill="#E0D7B4" d="M115.734 62.908c-7.012 3.977-18.397 3.977-25.413 0-7.016-3.972-7.016-10.425 0-14.404 7.016-3.972 18.401-3.972 25.413 0 7.021 3.98 7.021 10.432 0 14.404"/>
        <path fill="#BDB497" d="M118.345 56.307c-.569-1.773-2.063-3.467-4.482-4.833-6.317-3.566-16.555-3.566-22.869 0-2.42 1.363-3.911 3.059-4.475 4.826-.917-2.85.578-5.9 4.475-8.1 6.314-3.567 16.552-3.567 22.869 0 3.897 2.203 5.393 5.252 4.482 8.107"/>
        <path fill="#603913" d="M118.604 56.912c-.245.78-.665 1.554-1.254 2.286-.795.981-1.89 1.905-3.295 2.718-6.427 3.703-16.832 3.703-23.249 0-1.405-.813-2.501-1.737-3.293-2.718-.592-.732-1.013-1.507-1.256-2.294.573-1.834 2.089-3.594 4.55-5.01 6.416-3.7 16.82-3.7 23.241 0 2.459 1.42 3.978 3.178 4.556 5.018"/>
        <path fill="#754C29" d="M111.147 54.7a.73.73 0 0 1-.658 0c-.182-.105-.182-.275 0-.379a.723.723 0 0 1 .658 0c.18.104.18.274 0 .379M106.274 52.408c-.469.161-1.227.161-1.693 0-.47-.163-.47-.425 0-.588.466-.162 1.224-.162 1.693 0 .466.163.466.425 0 .588M108.668 57.2c-.467.161-1.227.161-1.694 0-.467-.163-.467-.424 0-.589.467-.16 1.227-.16 1.694 0 .469.165.469.426 0 .589M114.758 58.304a.767.767 0 0 1-.696 0c-.191-.111-.191-.289 0-.401a.774.774 0 0 1 .696 0c.193.112.193.29 0 .401M94.293 56.042c-.468.184-1.225.184-1.695 0-.467-.185-.467-.483 0-.669.47-.183 1.227-.183 1.695 0 .467.186.467.484 0 .669M99.26 60.746a.95.95 0 0 1-.85 0c-.23-.137-.23-.356 0-.491a.942.942 0 0 1 .85 0c.234.135.234.354 0 .491M101.522 55.876a.642.642 0 0 1-.58 0c-.16-.093-.16-.243 0-.335a.635.635 0 0 1 .58 0c.161.092.161.242 0 .335M94.29 59.566c-.465.145-1.224.145-1.69 0-.47-.146-.47-.383 0-.528.466-.145 1.225-.145 1.69 0 .471.145.471.382 0 .528M100.282 52.453c-.468.185-1.229.185-1.696 0-.465-.188-.465-.49 0-.677.467-.187 1.228-.187 1.696 0 .469.187.469.49 0 .677M107.295 61.945c-.7.47-1.84.47-2.542 0-.7-.467-.7-1.225 0-1.692.702-.47 1.842-.47 2.542 0 .702.467.702 1.225 0 1.692M115.856 54.83c-.465.176-1.227.176-1.692 0-.47-.177-.47-.464 0-.638.465-.179 1.227-.179 1.692 0 .47.174.47.46 0 .638"/>
    </g>
</svg>
