<svg xmlns="http://www.w3.org/2000/svg" width="140" height="73" viewBox="0 0 140 73">
    <g fill="none" fill-rule="evenodd">
        <path d="M1-10h150v150H1z"/>
        <g fill-rule="nonzero">
            <path fill="#A8A1A4" d="M30.678 15.351c-.61.122-1.815-2.857-3.256-7.773l-.562-1.93a5.698 5.698 0 0 0-.537-1.538c-.081-.113-.114-.09-.154-.105-.041-.017-.139 0-.318 0-.6.02-1.194.125-1.766.309a56.057 56.057 0 0 0-9.849 3.581 66.612 66.612 0 0 0-4.794 2.572 62.9 62.9 0 0 0-2.19 1.376c-.342.244-.7.464-1.033.708l-.521.326-.26.146c-.044.039-.09.074-.14.106a1.628 1.628 0 0 0-.414 1.93c.069.157.162.302.276.43.068.077.141.148.22.212l.407.31 1.539 1.139c4.07 2.865 6.853 4.38 6.617 4.981-.236.603-3.484.074-8.245-2.254a37.616 37.616 0 0 1-1.84-.977l-.472-.269a8.675 8.675 0 0 1-.643-.447 5.405 5.405 0 0 1-.187-8.14l.35-.277.26-.211.521-.415c.35-.285.725-.554 1.09-.814a64.062 64.062 0 0 1 2.329-1.628 47.77 47.77 0 0 1 5.185-2.882A44.865 44.865 0 0 1 23.165.252a9.255 9.255 0 0 1 3.126-.187 4.64 4.64 0 0 1 1.904.749 4.07 4.07 0 0 1 1.368 1.57 8.14 8.14 0 0 1 .66 2.622c.097.684.186 1.351.276 1.986.667 5.038.781 8.237.179 8.36z"/>
            <path fill="#C1BCBE" d="M139.365 32.233c0-13.61-29.807-24.639-66.565-24.639-36.758 0-66.573 11.03-66.573 24.639 0 8.465 14.692 24.37 18.086 28 4.607 4.883 21.708 12.16 48.487 12.16 26.78 0 43.693-7.472 48.48-12.16 4.19-4.152 18.085-19.535 18.085-28z"/>
            <ellipse cx="72.8" cy="32.233" fill="#DBD8D9" rx="63.423" ry="22.164"/>
            <path fill="#A8A1A4" d="M52.907 57.872c-7.554-.895-15.604-1.424-23.605-5.095 3.126 4.346 6.691 9.767 9.825 14.993a98.277 98.277 0 0 0 17.85 3.695 279.534 279.534 0 0 1-4.07-13.593z"/>
            <path fill="#EE9E41" d="M135.637 33.095a1.547 1.547 0 0 0-1.375-.398 2.849 2.849 0 0 0-.513-.473 8.042 8.042 0 0 0-1.628-.903 4.566 4.566 0 0 0 0-.668 11.973 11.973 0 0 0-.456-1.627 1.79 1.79 0 0 0-2.718-.993 7.944 7.944 0 0 0-.7-1.059 1.376 1.376 0 0 0-2.133.245 3.622 3.622 0 0 0-1.701-1.441 1.823 1.823 0 0 0-1.946.684 2.58 2.58 0 0 0-.333-.171 5.51 5.51 0 0 0-.969-.277 5.25 5.25 0 0 0-1.042-1.823c-.814-.944-2.19-1.775-3.483-1.246a1.93 1.93 0 0 0-1.18 1.156 2.06 2.06 0 0 0-.636-.57 5.42 5.42 0 0 0-2.75-.708 5.974 5.974 0 0 0-1.327.155 9.914 9.914 0 0 0-3.207-3.256 1.23 1.23 0 0 0-1.856.993 6.324 6.324 0 0 0-2.23-1.294 2.165 2.165 0 0 0-2.442.993 2.222 2.222 0 0 0-.236 1.465 5.77 5.77 0 0 0-1.848-1.717 4.786 4.786 0 0 0-1.254-.627 6.797 6.797 0 0 0-1.416-.13c-.283 0-.561.067-.814.195a11.908 11.908 0 0 0-3.5-3.02 1.367 1.367 0 0 0-1.408 0 1.93 1.93 0 0 0-.244.187 1.36 1.36 0 0 0-.358 1.36 5.283 5.283 0 0 0-1.213.594 6.056 6.056 0 0 0-.863.708l-.098.106a2.914 2.914 0 0 0-.96-1.148 5.169 5.169 0 0 0-.814-.594c-.31-.155-.619-.244-.936-.383a1.156 1.156 0 0 0-1.237.09 1.107 1.107 0 0 0-.399 1.164c.2.555.43 1.099.692 1.628a1.783 1.783 0 0 0-.318-.236 3.956 3.956 0 0 0-1.09-.472 2.442 2.442 0 0 0-2.93-2.597c-.72.14-1.428.335-2.117.586a1.954 1.954 0 0 0-.146-.211 5.274 5.274 0 0 0-1.628-1.262c-.521-.293-1.18-.602-1.506-.765a1.913 1.913 0 0 0-2.442.488c-.573.759-.51 1.82.147 2.507.105.114.236.285.382.464-.114-.065-.22-.13-.342-.187l-.26-.114h-.073l-.318-.17-.155-.082c.147.122.13.114 0 0s-.113-.057 0 0l-.284-.228-.253-.106-.211-.09.211.082a1.628 1.628 0 0 0-1.758-.31c-.608.25-1.006.841-1.01 1.498 0 .204 0 .423.082.635.013.326.112.643.285.92.064.13.137.255.22.374l-1.71.05c.196-1.043-.512-1.914-1.098-2.728l-.05-.081c-.097-.147-.186-.293-.276-.44-.252-.39-.366-.496-.586-.814a1.49 1.49 0 0 0-2.686.35c-.076.267-.13.54-.163.814a20.943 20.943 0 0 0-4.07-1.391 1.905 1.905 0 0 0-2.441 1.448c-.074-.179-.147-.35-.228-.52.07.173.07.14 0-.098-.082-.277-.163-.554-.228-.814a1.913 1.913 0 0 0-2.149-1.416 1.953 1.953 0 0 0-1.677 1.896c-.07.82-.002 1.645.204 2.442a6.862 6.862 0 0 0-2.987-1.294c-.904-.139-2.174.618-1.718 1.717.153.418.344.821.57 1.205l.138.17c-.26-.097-.513-.186-.757-.26h-.049c.004-.065.004-.13 0-.195-.39-1.53-2.572-2.442-4.029-2.442a1.302 1.302 0 0 0-1.115 1.945c.228.49.552.93.953 1.295-.024.071-.04.145-.05.22a6.04 6.04 0 0 0-3.939.748 1.628 1.628 0 0 0-.684 1.864l-.602.147a3.158 3.158 0 0 0-.187-.61c0-.09 0-.18-.049-.27a1.262 1.262 0 0 0-2.116-.878l-.082.097a1.351 1.351 0 0 0-.407-1.628 1.376 1.376 0 0 0-1.807.106c-.974.866-1.799 1.886-2.441 3.02h-1.018a1.449 1.449 0 0 0-.716 2.67l-.562.195c-.3-.587-.64-1.153-1.017-1.693a1.498 1.498 0 0 0-2.768.749c.001.78.061 1.557.18 2.328l-.497.211a15.31 15.31 0 0 0-1.913-.748 6.048 6.048 0 0 0-2.678-.407 1.71 1.71 0 0 0-1.457 2.531c.232.437.534.833.896 1.172-.407.244-.814.48-1.189.724.044-.244.092-.488.147-.732a.985.985 0 0 0-1.433-1.099 4.33 4.33 0 0 0-1.628 1.815 5.698 5.698 0 0 1-.586-1.351c-.179-.724-1.424-.814-1.546 0a8.864 8.864 0 0 0-.22 2.336 1.717 1.717 0 0 0-.871.13 1.888 1.888 0 0 0-1.115 1.628 3.931 3.931 0 0 0 .912 2.996 3.744 3.744 0 0 0 1.75 1.237c8.505 8.742 32.175 15.034 60.053 15.034 29.644 0 54.535-7.114 61.478-16.72l-.212-.268c.137-.1.268-.208.391-.325a8.01 8.01 0 0 0 1.408-2.23 1.498 1.498 0 0 0-.228-1.759zM101.37 23.06l.13.147c.039.073.082.144.13.211l-.31-.057a1.92 1.92 0 0 0-.08-.463l.13.162zm-16.442-1.628h-.18a2.442 2.442 0 0 0-.08-.26c.082.073.169.14.26.203v.057zm-31.81.684c.005-.065.005-.13 0-.195h.115v.154l-.114.041z"/>
            <path fill="#D67C14" d="M103.372 37.963c.92 0 2.165 0 2.955-.53a.7.7 0 0 0 .138-1.074c-1.01-.814-2.442-.504-3.532 0-.814.367-.383 1.628.44 1.628v-.024zM107.906 39.753c.692.326 1.758.725 2.385.057a.643.643 0 0 0 0-.895c-.594-.488-1.36-.293-2.076-.317a.627.627 0 0 0-.31 1.155zM111.227 42.985c.635.57 1.953 1.213 2.54.22a.928.928 0 0 0-.188-1.14c-.285-.285-.724-.244-.977-.456a1.001 1.001 0 0 0-1.375 0 .977.977 0 0 0 0 1.376zM116.957 44.173c.432.277.95.384 1.457.301.522-.096.905-.544.92-1.074a.619.619 0 0 0-.448-.586c.122.049-.415-.163-.244-.114a1.294 1.294 0 0 0-.586 0c-.16.037-.328.037-.489 0a.814.814 0 0 0-.61 1.457v.016z"/>
            <path fill="#D29C3F" d="M113.18 39.778c.75.31 2.06.407 2.336-.57a.627.627 0 0 0-.285-.708c-.488-.358-1.115 0-1.628-.122a.726.726 0 1 0-.382 1.4h-.04zM112.13 38.11c.456-.155 1.01-.082 1.351-.473a.749.749 0 0 0 .114-.887 1.628 1.628 0 0 0-1.929-.317c-1.058.35-.602 2.026.464 1.676z"/>
            <path fill="#D67C14" d="M121.41 31.02c.96-.489 1.627.317 2.506.26a4.73 4.73 0 0 1 1.815.13c.505.147.888.473 1.425.277a.44.44 0 0 0 .293-.39c.081-.814-.765-1.156-1.44-1.27a2.393 2.393 0 0 0-1.197.122c-.464.187-.692.594-1.132.814l.293.22c.244-1.628-2.173-1.466-3.003-.741-.326.277.09.74.44.57v.008zM130.281 35.814c.88-.098 1.77-.081 2.646.049a.895.895 0 0 0 .236-1.75c-1.221-.432-2.287.13-3.256.814a.505.505 0 0 0 .39.92l-.016-.033zM117.21 27.674a4.884 4.884 0 0 0 1.717.188.814.814 0 0 0 .578-.668.814.814 0 0 0-.383-.814 1.726 1.726 0 0 0-2.165.318.578.578 0 0 0 .252.976zM92.92 50.465c.913-.464 1.222.171 1.97.399.452.096.923.018 1.32-.22a3.81 3.81 0 0 1 1.985-.415 1.49 1.49 0 0 0 1.303-.35.57.57 0 0 0 .146-.562c-.342-1.627-2.661-.927-3.597-.341-.4.252-.587.455-1.042.333a5.77 5.77 0 0 0-.92-.293 2.19 2.19 0 0 0-1.783.66c-.44.398.122 1.041.619.814v-.025zM106.205 49.57c.285-.26.659-.212 1.009-.269.952-.138.814-1.628 0-1.807a2.28 2.28 0 0 0-2.36 1.034.814.814 0 0 0 .22 1.107.88.88 0 0 0 1.13-.065zM85.156 42.52c.308-.203.659-.333 1.025-.382.367 0 .717.196 1.132.065a.944.944 0 0 0 .651-1.139c-.171-.88-1.245-1.074-1.986-.92-.682.221-1.28.648-1.71 1.221a.74.74 0 0 0 .888 1.156zM89.12 46.469c.496-.139 1.025 0 1.497-.139a.814.814 0 0 0 .342-1.278c-.675-.626-1.685-.358-2.442 0-.757.358-.227 1.677.603 1.433v-.016zM71.669 46.24c.504-.154 1.798-.585 2.043.286a.863.863 0 0 0 1.245.504c1.034-.464 2.067-.187 3.126-.057 1.058.13 1.375-1.465.52-1.92a4.314 4.314 0 0 0-4.533.528l1.245.505c-.749-1.929-2.564-1.628-4.118-.855-.562.285-.171 1.205.439 1.026l.033-.016zM75.323 50.376a2.442 2.442 0 0 1 1.807-.123 1.115 1.115 0 0 0 1.286-.602 1.09 1.09 0 0 0-.447-1.36 3.101 3.101 0 0 0-3.606.872c-.603.627.17 1.734.96 1.237v-.024zM72.84 41.967c.341-.039.686-.017 1.018.066.188.04.382.04.57 0 .203-.082.22-.098.057 0a.586.586 0 0 0 .236-.05.448.448 0 0 0 .293-.528.814.814 0 0 0-.155-.326c.13.228-.097-.195-.13-.22a1.628 1.628 0 0 0-.814-.342 2.662 2.662 0 0 0-1.579.293c-.66.302-.163 1.213.464 1.1l.04.007z"/>
            <path fill="#D29C3F" d="M74.233 35.814a1.79 1.79 0 0 1 .879.04c.179.05.341.139.512.188.231.049.47.049.7 0a.814.814 0 0 0 .546-.96c-.48-1.327-2.198-1.213-3.256-.692-.814.415-.236 1.627.61 1.448l.009-.024z"/>
            <path fill="#D67C14" d="M56.358 38.394c.269-.195-.138 0 .106-.073.106 0 .212 0 .326-.065.175-.047.355-.077.537-.09.359-.037.72.04 1.033.22a1.034 1.034 0 0 0 1.246-1.628 2.54 2.54 0 0 0-2.442-.578 1.986 1.986 0 0 0-1.44 1.685c-.066.358.309.765.675.521l-.04.008zM59.093 34.292a4.526 4.526 0 0 1 2.149.814.92.92 0 0 0 1.245-1.246 2.531 2.531 0 0 0-1.92-1.212 2.214 2.214 0 0 0-1.905.618.627.627 0 0 0 .431 1.058v-.032zM61.226 29.302c.903-.325 1.693.065 2.596.09a.944.944 0 0 0 .66-1.628 2.523 2.523 0 0 0-2.076-.635 2.898 2.898 0 0 0-1.872.96c-.472.48 0 1.425.692 1.18v.033zM52.33 36.522c.512-.488.919 0 1.212.407a.993.993 0 0 0 1.79-.228c.09-.194.22-.366.383-.504a.676.676 0 0 0 .106-.814.423.423 0 0 0-.106-.139.692.692 0 0 0-.814-.106 1.783 1.783 0 0 1-.814.35l1.262.953a2.23 2.23 0 0 0-1.856-2.043 2.303 2.303 0 0 0-2.36 1.212.757.757 0 0 0 1.18.912h.016zM55.17 33.063a20.813 20.813 0 0 1 2.54-.39.88.88 0 0 0 .21-1.629 3.044 3.044 0 0 0-3.385.904c-.448.44 0 1.359.643 1.115h-.008z"/>
            <path fill="#D29C3F" d="M53.827 27.674c.675.22 1.359-.179 2.035 0 .548.217 1.17.12 1.628-.252a.627.627 0 0 0-.277-1.042c-.212 0-.497-.423-.733-.529a2.287 2.287 0 0 0-1.237-.138 2.198 2.198 0 0 0-1.807 1.318.52.52 0 0 0 .358.627l.033.016z"/>
            <path fill="#D67C14" d="M53.965 24.695c.7-.146 1.53.293 2.173-.146a.814.814 0 0 0 .163-1.237 1.628 1.628 0 0 0-1.563-.293 3.68 3.68 0 0 0-1.196.667.553.553 0 0 0 .423 1.01zM61.99 21.545c.709-.154 1.393 0 2.1-.073a.895.895 0 0 0 .644-.757.92.92 0 0 0-.432-.903c-.911-.684-2.27-.196-3.068.423a.814.814 0 0 0-.122.928.814.814 0 0 0 .879.366v.016zM82.73 23.49c.489-.374 1.205 0 1.677.107.485.127.989-.123 1.18-.587.19-.46.018-.991-.407-1.253a2.165 2.165 0 0 0-1.961-.13 2.23 2.23 0 0 0-.741.447c-.19.205-.352.435-.48.684-.277.423.3 1.058.732.733z"/>
            <path fill="#D29C3F" d="M88.827 21.057a.863.863 0 0 1 .244-.081h-.049c.207.055.411.123.61.203.416.163.815.35 1.246.472.814.244 1.677-.968.912-1.563a2.849 2.849 0 0 0-2.003-.708c-.63.054-1.19.417-1.497.969-.204.325.138.87.537.7v.008z"/>
            <path fill="#D67C14" d="M89.535 29.302c.6-.08 1.21-.066 1.807.041a2.067 2.067 0 0 0 1.677-.155.619.619 0 0 0 .268-.667c-.325-1.905-3.215-1.164-4.273-.456a.684.684 0 0 0 .52 1.237z"/>
            <path fill="#D29C3F" d="M94.419 27.097l.244.154-.318-.317c.313.444.797.74 1.335.814a2.116 2.116 0 0 0 1.889-.489 1.18 1.18 0 0 0-.513-1.961 2.922 2.922 0 0 0-1.449.105 2.58 2.58 0 0 0-1.123.489l.626-.26h-.293a.814.814 0 0 0-.398 1.456v.009z"/>
            <path fill="#D67C14" d="M73.5 29.774c-.001.75.545 1.39 1.286 1.506.377.063.763.043 1.131-.057.362-.05.715-.15 1.05-.293a1.026 1.026 0 0 0-.577-1.904c-.401.02-.797.102-1.173.244h-.154-.049a.53.53 0 0 1 .301.293.928.928 0 0 0-1.815.252v-.04z"/>
            <path fill="#D29C3F" d="M78.205 32.29a1.44 1.44 0 0 1 .52-.074c.19.047.384.083.578.106a.708.708 0 0 0 .766-.667c0-1.034-1.628-.985-2.255-.814-.895.285-.513 1.7.39 1.416v.033z"/>
            <path fill="#D67C14" d="M70.31 33.095c.4.147.825.221 1.253.22a6.17 6.17 0 0 1 .944 0c.87.236 1.75-1.01.952-1.628a1.92 1.92 0 0 0-1.709-.277 3.94 3.94 0 0 0-1.628.53.651.651 0 0 0 .155 1.18l.032-.025z"/>
            <path fill="#D29C3F" d="M68.958 39.51a1.148 1.148 0 0 0-.814-.815 1.978 1.978 0 0 0-1.066-.048c-.749.162-1.628.765-1.392 1.627.14.417.53.699.969.7a3.06 3.06 0 0 0 1-.268 4.02 4.02 0 0 0 .815-.326c.195-.132.343-.323.423-.545 0 .122 0 .106.049-.057a.627.627 0 0 0 0-.301l.016.032zM68.144 45.516c.375-.179.896.244 1.115.513a1.042 1.042 0 0 0 1.555.285.7.7 0 0 0 .106-.814c-.203-.265-.441-.5-.708-.7a1.685 1.685 0 0 0-.928-.464 1.628 1.628 0 0 0-1.514.814c-.18.236.154.464.366.366h.008z"/>
            <path fill="#D67C14" d="M66.899 52.402a2.247 2.247 0 0 1 2.222.188c.879.447 1.994-.814 1.123-1.457a3.199 3.199 0 0 0-4.07.097c-.667.513-.097 1.628.684 1.172h.04z"/>
            <path fill="#D29C3F" d="M76.056 52.907c.27.018.543.018.814 0 .244-.02.489-.02.732 0 .554 0 .904-.88.31-1.148a2.002 2.002 0 0 0-1.27-.13c-.401.078-.742.34-.92.708a.423.423 0 0 0 .366.643l-.032-.073z"/>
            <path fill="#D67C14" d="M84.033 52.337c.443.054.883.133 1.318.236a.814.814 0 0 0 .765-1.294 1.71 1.71 0 0 0-1.31-.545c-.466.005-.908.21-1.213.561a.627.627 0 0 0 .44 1.058v-.016zM90.088 52.15c.667-.04 1.336-.04 2.003 0a.928.928 0 0 0 .244-1.815 7.18 7.18 0 0 0-2.247-.122 1.017 1.017 0 0 0-.985.985c.01.54.445.976.985.985v-.033zM110.86 49.31c.155-.074.31 0 .497 0a5.43 5.43 0 0 0 .74-.155c.456-.114.912-.204 1.36-.334a.912.912 0 0 0-.244-1.783 2.727 2.727 0 0 0-1.799.48c-.247.16-.46.368-.627.611-.195.285-.146.554-.285.814a.26.26 0 0 0 .358.35v.016zM114.54 47.34a4.965 4.965 0 0 0 2.287.179.814.814 0 1 0 0-1.628 5.08 5.08 0 0 0-2.287.179.643.643 0 0 0 0 1.229v.04zM43.84 46.338c.35-.22.75-.346 1.163-.366.587-.114 1.059-.635.717-1.237-.342-.602-1.148-.497-1.693-.366-.519.139-1 .392-1.408.74a.87.87 0 0 0 0 1.23.887.887 0 0 0 1.22 0zM50.148 43.498c.276-.245 1.155.464 1.44.57.485.133.992.166 1.49.097a7.643 7.643 0 0 1 1.628 0c.513.082.814.252 1.294.049a.53.53 0 0 0 .358-.635c-.407-1.538-2.368-.96-3.435-.684-1.066.277-2.442-1.017-3.37.171-.284.367.302.75.611.472l-.016-.04zM48.984 47.616c.52-.285 1.009 0 1.449.253.362.18.775.234 1.172.154.96-.122 2.246-.333 2.8-1.18a.708.708 0 0 0-.415-1.026 2.076 2.076 0 0 0-1.628.245 2.833 2.833 0 0 1-1.075.35 2.89 2.89 0 0 1-.814-.204 1.628 1.628 0 0 0-1.961.895.35.35 0 0 0 .48.48l-.008.033zM47.6 51.019c.48-.253 1.026-.204 1.498-.44a.545.545 0 0 0 0-.944 2.116 2.116 0 0 0-2.133.562c-.48.382.138 1.082.635.813v.009zM51.133 51.597c1.627-.456 3.402 1.188 5.005.179a.814.814 0 0 0-.407-1.498c-.56 0-1.121-.041-1.676-.122a7.855 7.855 0 0 0-1.433-.236 2.23 2.23 0 0 0-1.986 1.033.44.44 0 0 0 .497.644z"/>
            <path fill="#D29C3F" d="M47.348 38.988c.456.197.93.35 1.416.456.502.106 1.02.106 1.522 0 .749-.187.814-1.49 0-1.628a5.893 5.893 0 0 0-1.416 0c-.464.05-.936.204-1.392.244a.472.472 0 0 0-.13.92v.008z"/>
            <path fill="#D67C14" d="M37.881 45.744c.627.562 1.938 1.132 2.703.578a.684.684 0 0 0 .114-1.05c-.578-.74-2.003-.553-2.751-.195a.431.431 0 0 0-.09.667h.024zM30.426 44.767c.595.521 1.294.91 2.05 1.14.747.33 1.598.33 2.345 0a.627.627 0 0 0 .13-.977 3.19 3.19 0 0 0-2.002-.65 11.94 11.94 0 0 0-2.287-.066c-.26 0-.48.374-.236.57v-.017zM24.174 41.772c.676.057 1.303-.244 1.962.073.66.318 1.058.814 1.807.717a.74.74 0 0 0 .643-.367c.456-1-1.156-1.693-1.888-1.961-1.026-.367-2.58-.244-2.971.944a.472.472 0 0 0 .447.594zM17.297 39.827a4.745 4.745 0 0 0 1.627.106 4.884 4.884 0 0 1 1.759.44c1.074.471 2.026-1.043.944-1.629-1.23-.651-3.94-1.058-4.583.619a.383.383 0 0 0 .253.447v.017zM20.894 35c.392-.107.81-.054 1.164.147a.423.423 0 0 0 .407-.7 1.677 1.677 0 0 0-1.848-.106.358.358 0 0 0 .277.659zM28.7 31.272a1.986 1.986 0 0 1 1.09 0c.3.11.626.13.937.057a.244.244 0 0 0 .17-.301c-.195-1.026-1.717-.74-2.384-.464-.407.163-.26.814.187.676v.032zM34.243 28.912a3.614 3.614 0 0 0 2.076.122.757.757 0 0 0-.204-1.482 3.598 3.598 0 0 0-1.986.521.464.464 0 0 0 .114.814v.025z"/>
            <path fill="#D29C3F" d="M34.357 26.673a1.05 1.05 0 0 0 .399-.52.26.26 0 0 0-.244-.326 1.18 1.18 0 0 0-.652.203c-.504.244 0 1.058.497.643z"/>
            <path fill="#D67C14" d="M34.805 33.543c.28-.009.557-.073.814-.187a.74.74 0 0 0 0-1.27 2.165 2.165 0 0 0-.814-.187c-1.058-.082-1.058 1.725 0 1.628v.016z"/>
            <path fill="#C37100" d="M110.543 42.024c3.508-.179 6.512 1.262 9.873 1.685 2.841.358 7.098-.097 9.287-2.018a.814.814 0 0 0-.35-1.343 14.18 14.18 0 0 0-5.55.203 16.93 16.93 0 0 1-5.625.196c-.431-.05-.855 0-1.286 0-1.628-.057-2.808-.27-4.314-.35-1.376-.066-1.628.056-2.328 1.13a.342.342 0 0 0 .293.522v-.025zM90.406 43.953c.464.994 1.229 1.71 1.774 2.662.28.657.6 1.296.96 1.913a2.816 2.816 0 0 0 2.85 1.115c.732-.09 1.375-.635 2.091-.708.717-.073 1.539.358 2.328.431a12.576 12.576 0 0 0 5.022-1c.497-.188.863-.92.35-1.328-1-.814-1.522-.814-2.808-.537-1.709.358-3.256-.154-4.883 0-.643.073-1.335.602-1.946.635-1.506.065-1.432-.814-2.002-1.701a5.21 5.21 0 0 0-2.922-2.572.74.74 0 0 0-.814 1.066v.024zM109.38 46.322c.162-.073.601.163.756.22a2.63 2.63 0 0 0 1.115.195c.92-.057 1.628-.651 1.473-1.628a.814.814 0 0 0-.757-.578h-.447l-.334.05c-.366 0-.708 0-1.066.089-.654.072-1.2.532-1.384 1.164a.44.44 0 0 0 .643.496v-.008zM108.606 44.507c.757.179 1.628.163 1.953-.66a.57.57 0 0 0-.26-.642c-.432-.334-.985-.171-1.49-.204a.814.814 0 0 0-.203 1.506zM100.385 34.544c1.831 1.823 4.884.651 7.179 1.303 1.823.52 4.07.74 5.453-.814a.537.537 0 0 0-.227-.88c-.97-.382-1.775-.154-2.792-.17a16.751 16.751 0 0 1-2.988-.603 16.572 16.572 0 0 0-3.59.139c-.998-.094-2.006.028-2.954.358a.431.431 0 0 0-.081.675v-.008zM75.25 40.364c-2.133.814.53 2.849 1.367 3.37 1.205.749 1.303 1.807 2.239 2.743.244.244.724.431.863.708.138.277-.18 1.473-.196 1.888 0 1.091 1.368 1.294 1.913.513.528-1 .654-2.166.35-3.256-.358-.911-1.36-.936-1.92-1.628-.563-.692-.733-1.505-1.507-2.083-.504-.375-1.14-.546-1.628-.92-.488-.375-.814-.887-1.278-1.27a.18.18 0 0 0-.187-.049l-.016-.016zM83.617 50.351c.5.435 1.13.693 1.791.733a1.905 1.905 0 0 0 1.905-.887.895.895 0 0 0-.53-1.295c-.862-.333-2.018.236-2.889.407a.627.627 0 0 0-.277 1.042zM54.47 47.966c-2.694 1.115.106 4.16 1.92 4.469 1.987.342 3.761-.7 5.698.065 1.124.44 1.995.88 3.012 0a.317.317 0 0 0 .016-.407 6.642 6.642 0 0 0-3.996-2.124 10.386 10.386 0 0 0-2.694.317c-.684.114-1.905.35-2.54-.098-.48-.333-.724-1.335-.879-1.888a.431.431 0 0 0-.521-.293l-.016-.04zM67.623 49.147c.334.056.684.146 1.018.17.314.004.624-.068.903-.211a.195.195 0 0 0 0-.334 1.823 1.823 0 0 0-.903-.212c-.342 0-.684.114-1.018.163a.22.22 0 0 0 0 .424zM66.948 44.027a4.151 4.151 0 0 0 3.54 0 .814.814 0 0 0-.195-1.539 3.256 3.256 0 0 0-1.766.082 4.526 4.526 0 0 0-1.58.561.52.52 0 0 0 0 .88v.016zM67.428 37.385A2.092 2.092 0 0 0 70 38.899a3.166 3.166 0 0 0 1.628-1.164c.48-.521.593-1.283.285-1.921a.415.415 0 0 0-.489-.285c-.322.023-.634.13-.903.31-.334.244-.554.594-.871.862-.317.269-1.14.692-1.506.236-.366-.456-.814 0-.716.415v.033zM73.834 34.487c.618-.049 1.213.423 1.782.627a4.436 4.436 0 0 0 1.628.26c.936 0 2.377-.814 1.766-1.945-.44-.814-1.538-.35-2.27-.423a5.38 5.38 0 0 0-3.2.293c-.577.252-.292 1.237.326 1.188h-.032zM38.345 45.736c1.23-.179 2.214-.944 3.321-1.473a6.788 6.788 0 0 1 4.151-.757c1.498.106 4.518-.073 4.33-2.222a.448.448 0 0 0-.317-.415c-1.066-.326-2.254.228-3.353.236-1.1.008-2.198-.293-3.313 0-1.864.537-4.94 1.945-5.388 4.02a.472.472 0 0 0 .57.578v.033zM49.651 39.37c.448-.618 2.214-.325 2.865-.276 1.01.082 2.076.285 2.825-.545a.757.757 0 0 0-.326-1.246 6.316 6.316 0 0 0-2.108-.17 5.885 5.885 0 0 0-1.888.114c-1.083.317-1.384 1.025-1.702 1.986-.065.211.22.3.334.138zM20.349 37.727c1.099 0 1.53-.082 2.564.716.308.298.64.57.993.814 1.09.594 2.393.667 3.54 1.237 1.571.773 3.411 1.49 4.461-.374a.497.497 0 0 0-.293-.717c-1.197-.447-2.328-.968-3.476-1.513-1.147-.546-2.523-.814-3.662-1.514-1.628-1.01-2.841-1.433-4.534-.188a.814.814 0 0 0 .407 1.514v.025zM46.436 32.216a4.81 4.81 0 0 0 6.316-1.807c.253-.366-.162-.814-.537-.7-1.742.358-3.54 1.832-5.364 1.514-.561-.097-1.017.708-.415.993zM55.853 26.95c.88.081 1.742-.18 2.605-.073.863.106 1.36.757 2.206.773a1.05 1.05 0 0 0 1.042-1.042c-.163-1.278-1.278-1.856-2.442-2.06a3.712 3.712 0 0 0-1.766.099c-.643.195-1.172.675-1.807.862a.74.74 0 0 0 .195 1.441h-.033zM53.273 23.222c.76.16 1.535.247 2.312.26a2.792 2.792 0 0 0 2.035-.642.53.53 0 0 0 0-.904 2.849 2.849 0 0 0-.88-.496 5.177 5.177 0 0 0-1.009-.066h-2.214c-1.009 0-1.318 1.628-.244 1.832v.016zM88.452 20.349c.279.172.57.321.871.448.338.09.68.161 1.026.211.654.24 1.38.171 1.978-.187a.643.643 0 0 0 .285-.7 1.888 1.888 0 0 0-1.791-1.27 4.615 4.615 0 0 0-1.254 0 2.727 2.727 0 0 0-1.115.48.61.61 0 0 0 0 1.05v-.032zM71.57 53.819a25.68 25.68 0 0 1 3.436-.26c.627 0 1.506-.294 1.4-1.075-.13-1.026-1.522-1.091-2.336-1.042a6.17 6.17 0 0 0-3.11.952.814.814 0 0 0 .603 1.425h.008zM24.988 45.5c.904.676 1.571.374 2.597.7 1.025.326 1.628 1.09 2.442 1.506 1.237.578 2.783.529 3.256-.977a.35.35 0 0 0-.334-.44c-1.416.139-2.597-1.058-3.752-1.627a3.573 3.573 0 0 0-1.75-.48c-.814 0-1.466.52-2.223.553a.44.44 0 0 0-.22.814l-.016-.049zM40.698 48.927c.544-.002 1.088.034 1.628.106a.912.912 0 0 0 .814-.44v-.04l-.27.268.09-.057a.66.66 0 0 0 .237-.887.887.887 0 0 0-.627-.619 4.786 4.786 0 0 0-1.872-.049.87.87 0 0 0 0 1.734v-.016zM11.615 37.393c.814.578 1.921-.31 2.63-.643l-.62.163c-.439-.366-.545-.383-.292-.057.063.119.14.23.227.334.195.238.43.442.692.602.863.586 1.701-.375 1.571-1.213-.187-1.302-1.538-2.751-2.897-1.864-.676.44-2.442 1.848-1.31 2.678zM19.453 42.252c.267.211.597.326.937.326.911 0 .879-1.31 0-1.4a2.792 2.792 0 0 1-.456-.057.627.627 0 0 0-.48 1.131z"/>
            <path fill="#F02422" d="M73.557 37.947a23.792 23.792 0 0 0 3.826 6.82c.976 1.091 2.157 1.97 3.117 3.085a6.715 6.715 0 0 0 3.142 2.377c.832.223 1.72-.01 2.336-.61 3.467-3.142-.277-6.772-2.947-8.628-2.67-1.856-3.068-5.128-6.129-6.382-1.84-.749-4.07 1.522-3.345 3.346v-.008zM83.699 27.153c1.213.53 2.206.05 3.451-.3 2.865-.815 5.624-.815 8.58-1.05 2.954-.237 7.658-1.23 7.65-4.958a.887.887 0 0 0-.65-.854c-2.077-.472-4.25.48-6.342.692-2.808.284-5.632.065-8.383.887-1.075.317-7.432 4.208-4.306 5.583zM50.595 20.064c2.04.626 3.994 1.5 5.82 2.605 1.897 1.318 3.516 2.962 5.6 4.004a2.198 2.198 0 0 0 2.654-3.435c-1.872-2.043-4.884-4.558-7.554-5.47-2.67-.911-4.599 0-6.699 1.629-.26.211-.073.577.18.675v-.008z"/>
            <path fill="#302E39" d="M67.599 42.44l-2.035-7.505c-.163-.619-.53-1.384-1.164-1.319-.33.078-.62.275-.814.554-.651.74-6.512 6.927-8.75 10.036a5.803 5.803 0 0 0-1.115 2.23 4.29 4.29 0 0 0 2.23 4.216 10.72 10.72 0 0 0 4.884 1.189c2.238.13 4.778 0 6.267-1.701a5.453 5.453 0 0 0 1.221-3.745 16.124 16.124 0 0 0-.724-3.955z"/>
            <path fill="#46444E" d="M64.93 37.27c.546.321 1.002.775 1.326 1.32l.488.683c-.396-1.449-.79-2.895-1.18-4.338-.163-.619-.53-1.384-1.164-1.319-.33.078-.62.275-.814.554-.537.61-4.623 4.883-7.277 8.14 2.141-1.393 3.712-3.598 5.991-4.754a3.044 3.044 0 0 1 2.63-.285z"/>
            <path fill="#0D0B18" d="M56.847 47.25a4.672 4.672 0 0 1-2.564-2.198c-.27.424-.46.893-.562 1.384a4.29 4.29 0 0 0 2.23 4.216 10.72 10.72 0 0 0 4.884 1.189c2.238.13 4.778 0 6.267-1.701a5.128 5.128 0 0 0 1.18-2.98 14.31 14.31 0 0 1-2.295.814c-3.043.781-6.259.526-9.14-.724z"/>
            <path fill="#DF7C29" d="M65.002 40.453c-.08-.187-.19-.36-.325-.512a1.197 1.197 0 0 0-1.767-1.107c-1.937.879-4.159 4.778-1.92 6.39 2.75 1.985 4.94-2.565 4.012-4.77z"/>
            <path fill="#302E39" d="M99.408 23.751a871.028 871.028 0 0 0-5.16 5.698c-.424.472-.88 1.148-.538 1.514.239.162.53.229.814.187.896 0 8.612.106 12.136-.317a6.764 6.764 0 0 0 2.32-.61 4.688 4.688 0 0 0 2.442-3.883 6.902 6.902 0 0 0-1.278-3.793c-.92-1.498-2.206-3.012-4.249-2.98a6.512 6.512 0 0 0-3.59 1.425 19.73 19.73 0 0 0-2.897 2.76z"/>
            <path fill="#46444E" d="M96.43 28.488a3.492 3.492 0 0 1 .463-1.628c.114-.236.22-.472.334-.716l-2.98 3.256c-.423.472-.878 1.148-.537 1.514.239.162.53.23.814.187.741 0 6.08.065 9.923-.138-2.109-.546-4.616-.253-6.602-1.018a1.953 1.953 0 0 1-1.416-1.457z"/>
            <path fill="#0D0B18" d="M108.256 27.748a4.07 4.07 0 0 1-.61 2.914c.48-.084.946-.238 1.383-.456a4.688 4.688 0 0 0 2.442-3.883 6.902 6.902 0 0 0-1.278-3.793c-.92-1.497-2.206-3.011-4.249-2.979a5.958 5.958 0 0 0-2.954.993 8.84 8.84 0 0 1 5.266 7.204z"/>
            <path fill="#DF7C29" d="M98.985 26.56a2.035 2.035 0 0 0-.269.504c-.814.52-.814 1.449-.097 1.766 1.628.717 5.787-.154 6.072-2.523.35-2.898-4.33-1.612-5.706.252zm3.256.878h-.057c.154-.073.163-.057.09 0h-.033z"/>
            <path fill="#302E39" d="M67.224 21.431l1.856 5.055c.137.522.6.893 1.14.912.3-.028.584-.148.814-.342.675-.464 6.707-4.363 8.953-6.357a3.606 3.606 0 0 0 1.156-1.44c.35-1.1-.7-2.247-2.133-2.874a15.123 15.123 0 0 0-4.883-.952c-2.239-.171-4.778-.155-6.308.911a2.93 2.93 0 0 0-1.295 2.442 7.57 7.57 0 0 0 .7 2.645z"/>
            <path fill="#46444E" d="M69.772 24.956a3.484 3.484 0 0 1-1.294-.92c-.155-.155-.31-.317-.472-.472l1.074 2.922c.137.522.6.893 1.14.912.3-.028.584-.148.814-.342.553-.383 4.729-3.085 7.464-5.144-2.174.814-3.793 2.262-6.105 2.946-.843.3-1.758.335-2.62.098z"/>
            <path fill="#0D0B18" d="M78.083 18.607a4.713 4.713 0 0 1 2.498 1.555c.257-.257.457-.565.586-.904.35-1.099-.7-2.246-2.132-2.873a15.123 15.123 0 0 0-4.884-.952c-2.238-.171-4.778-.155-6.308.911a2.898 2.898 0 0 0-1.245 1.93c.76-.202 1.532-.357 2.311-.465a20.91 20.91 0 0 1 9.174.798z"/>
            <path fill="#DF7C29" d="M69.772 22.84c.084.135.191.253.318.35-.066.618.813 1.033 1.733.813 1.962-.52 4.265-3.027 2.068-4.175-2.703-1.425-4.965 1.522-4.119 3.012zm3.427-1.31h-.082s.074-.066.082 0z"/>
            <path fill="#302E39" d="M107.637 43.58c.082-2.337-2.246-3.623-4.281-4.461-4.518-1.88-9.849-3.647-14.782-5.177a1.44 1.44 0 0 0-1.7 2.051 135.843 135.843 0 0 0 4.069 7.057c1.294 2.084 2.816 4.273 5.144 5.055 1.75.586 3.655.268 5.462-.074 1.807-.341 3.622-.724 4.973-2.05a3.59 3.59 0 0 0 1.115-2.402z"/>
            <path fill="#46444E" d="M97.064 37.067c.39 0 .814.05 1.172.082-3.174-1.14-6.512-2.222-9.662-3.207a1.44 1.44 0 0 0-1.7 2.051c.618 1.15 1.247 2.285 1.888 3.402.354-.35.744-.66 1.164-.928 2.091-1.294 4.68-1.514 7.138-1.4z"/>
            <path fill="#0D0B18" d="M107.442 42.448a13.17 13.17 0 0 1-9.93 2.962 13.381 13.381 0 0 1-7.163-3.402c.203.342.407.7.618 1.042 1.295 2.084 2.817 4.273 5.145 5.055 1.75.586 3.654.268 5.461-.074 1.807-.341 3.622-.724 4.974-2.05a3.59 3.59 0 0 0 1.115-2.443 3.199 3.199 0 0 0-.22-1.09z"/>
            <path fill="#DF7C29" d="M96.185 42.92c.206.006.412-.02.61-.073a1.197 1.197 0 0 0 1.758-1.116c0-2.132-2.523-5.811-4.94-4.484-2.98 1.627.203 5.534 2.572 5.673zm-.48-3.972v.081s-.098-.114 0-.081z"/>
            <path fill="#302E39" d="M36.945 18.835c1.767-1.522 4.225-.505 6.154.553 4.29 2.36 8.953 5.421 13.275 8.31a1.44 1.44 0 0 1-.537 2.614c-2.67.493-5.353.903-8.05 1.229-2.442.293-5.103.472-7.163-.863-1.546-.993-2.49-2.678-3.353-4.306-.863-1.628-1.701-3.256-1.506-5.16a3.63 3.63 0 0 1 1.18-2.377z"/>
            <path fill="#46444E" d="M48.634 23.027c-.26-.293-.53-.586-.814-.871 2.873 1.766 5.795 3.687 8.538 5.543a1.44 1.44 0 0 1-.537 2.613c-1.278.236-2.556.447-3.842.65a6.512 6.512 0 0 0 0-1.489c-.277-2.442-1.726-4.599-3.345-6.446z"/>
            <path fill="#0D0B18" d="M37.922 18.257a13.21 13.21 0 0 0 3.89 9.605 13.455 13.455 0 0 0 7.172 3.516l-1.197.163c-2.442.293-5.103.472-7.163-.863-1.546-.993-2.49-2.678-3.353-4.306-.863-1.628-1.701-3.256-1.506-5.16a3.63 3.63 0 0 1 1.18-2.377c.287-.252.618-.448.977-.578z"/>
            <path fill="#DF7C29" d="M44.613 27.365a1.978 1.978 0 0 1-.326-.52 1.197 1.197 0 0 1-.228-2.068c1.628-1.36 6.113-1.628 6.593 1.058.627 3.337-4.452 3.296-6.04 1.53zm3.41-2.132l-.057.057c.13.04.13.024.057-.057z"/>
            <path fill="#CA411C" d="M95.86 33.51c1.896.44 3.809.155 5.697.562 2.279.48 4.444 1.23 6.78 1.506 3.663.44 9.621.977 11.518-2.947.497-.902.2-2.036-.676-2.58-2.14-1.449-4.143-.7-6.56-.448-2.782.22-5.58.04-8.31-.537-3.15-.578-7.79-1.35-9.353 2.28a1.498 1.498 0 0 0 .879 2.164h.024z"/>
            <path fill="#FA5932" d="M21.228 26.86a9.898 9.898 0 0 0 .651 6.374 13.967 13.967 0 0 0 9.312 7.773c4.2.897 8.525-.833 10.947-4.38 2.605-3.947 1.335-7.854-1.79-11.126a1.465 1.465 0 0 0-2.1.212c-1.1 1.953-.505 4.07-1.36 6.072a3.923 3.923 0 0 1-4.07 1.945c-1.733-.431-2.889-2.49-3.37-3.85-.7-1.986-.813-4.306-1.228-6.34-.26-1.148-6.447 1.05-6.992 3.32z"/>
            <path fill="#D8683E" d="M10.581 31.647c1.97-1.002 3.622-2.385 5.609-3.37a21.724 21.724 0 0 1 8.229-2.15c.138 0 .138-.17 0-.186a16.548 16.548 0 0 0-13.838 5.697v.009z"/>
            <path fill="#D8683E" d="M10.272 26.315c5.852-2.255 11.46-2.14 17.402-.138a.106.106 0 0 0 .098-.18 19.462 19.462 0 0 0-17.622.098c-.163.082 0 .285.147.22h-.025z"/>
            <path fill="#D24F1E" d="M30.01 33.234a.342.342 0 0 0-.496-.44c-1.188.578-1.978 1.571-3.11 2.206a6.316 6.316 0 0 1-2.987.814c.228.301.473.602.725.887a7.594 7.594 0 0 0 5.868-3.467zM33.063 34.707a.431.431 0 0 0-.773-.187c-.814 1.09-.928 2.442-1.75 3.557a5.803 5.803 0 0 1-2.28 1.807c.363.193.735.367 1.116.52 2.254-1.057 3.931-3.776 3.687-5.697zM36.473 33.917c-.203-.146-.594-.081-.57.196.114 1.294.814 2.442.627 3.801a6.658 6.658 0 0 1-1.424 3.174c.498-.083.99-.2 1.473-.35 1.612-2.059 2.092-5.266-.106-6.82zM38.72 32.876a19.95 19.95 0 0 0 2.035 1.725 6.862 6.862 0 0 1 1.57 1.758c.24-.375.447-.77.62-1.18a10.937 10.937 0 0 0-.611-.765 5.364 5.364 0 0 0-3.256-2.043c-.293-.033-.521.301-.358.505zM24.32 28.578a.619.619 0 0 0-.194.187.423.423 0 0 0-.13.448.863.863 0 0 0 1.098.48.61.61 0 0 0 .48-.537c.05-.562-.757-.896-1.253-.578z"/>
            <path fill="#FA5932" d="M110.763 23.8a9.865 9.865 0 0 0-1.766 6.153 13.984 13.984 0 0 0 5.77 10.688 10.581 10.581 0 0 0 11.786 0c3.883-2.694 4.16-6.797 2.483-10.989a1.473 1.473 0 0 0-2.035-.594c-1.742 1.4-1.978 3.59-3.516 5.136a3.948 3.948 0 0 1-4.518.277c-1.448-1.05-1.75-3.394-1.693-4.827.09-2.108.88-4.29 1.23-6.349.162-1.107-6.39-1.375-7.741.505z"/>
            <path fill="#D8683E" d="M99.083 24.297c2.197-.196 4.257-.863 6.462-1.042a21.814 21.814 0 0 1 8.408 1.066c.13.04.188-.106.074-.171a16.531 16.531 0 0 0-14.977.098l.033.049z"/>
            <path fill="#D8683E" d="M100.792 19.234c6.275.081 11.395 2.287 16.181 6.349a.106.106 0 0 0 .155-.139 19.47 19.47 0 0 0-16.385-6.511c-.187 0-.13.26.049.26v.04z"/>
            <path fill="#D24F1E" d="M116.534 33.006a.342.342 0 0 0-.293-.594c-1.31.065-2.442.724-3.72.895a6.422 6.422 0 0 1-3.06-.374c.09.369.202.733.333 1.09a7.602 7.602 0 0 0 6.74-1.017zM118.837 35.52a.44.44 0 0 0-.643-.471c-1.147.716-1.782 1.929-2.954 2.653a5.91 5.91 0 0 1-2.792.814c.26.31.545.603.814.896 2.49-.13 5.054-1.97 5.575-3.891zM122.272 36.05c-.13-.203-.52-.293-.602 0-.383 1.245-.204 2.572-.814 3.76a6.512 6.512 0 0 1-2.499 2.442c.493.113.993.19 1.498.228 2.238-1.367 3.866-4.167 2.417-6.43zM124.747 35.92c.36.806.777 1.586 1.245 2.336a7.04 7.04 0 0 1 .814 2.206c.35-.254.679-.534.985-.839a9.914 9.914 0 0 0-.285-.936 5.34 5.34 0 0 0-2.247-3.11c-.26-.13-.586.099-.512.343zM112.985 26.567a.651.651 0 0 0-.252.098.431.431 0 0 0-.285.366.87.87 0 0 0 .814.863.602.602 0 0 0 .643-.325c.285-.505-.334-1.107-.92-1.002z"/>
            <path fill="#FA5932" d="M87.093 33.942a9.89 9.89 0 0 0-1.44-6.268 13.984 13.984 0 0 0-10.224-6.511 10.581 10.581 0 0 0-10.313 5.697c-2.075 4.241-.317 7.96 3.191 10.81a1.473 1.473 0 0 0 2.067-.48c.814-2.076 0-4.07.57-6.195a3.923 3.923 0 0 1 3.801-2.442c1.783.204 3.191 2.1 3.842 3.387.944 1.88 1.319 4.167 2.019 6.137.39 1.131 6.243-1.832 6.487-4.135z"/>
            <path fill="#D8683E" d="M97.064 27.82c-1.823 1.238-3.256 2.825-5.136 4.07a21.773 21.773 0 0 1-7.871 3.183c-.138 0-.114.18 0 .18a16.531 16.531 0 0 0 13.023-7.391s0-.041 0 0l-.016-.041z"/>
            <path fill="#D8683E" d="M98.04 33.07c-5.518 2.98-11.093 3.582-17.223 2.345a.106.106 0 0 0-.065.195 19.47 19.47 0 0 0 17.46-2.336c.154-.105 0-.293-.171-.203z"/>
            <path fill="#D24F1E" d="M77.586 28.724a.342.342 0 0 0 .545.375c1.107-.692 1.759-1.815 2.809-2.597a6.324 6.324 0 0 1 2.897-1.164c-.26-.276-.545-.537-.814-.814-2.393.375-4.835 2.475-5.437 4.2zM74.363 27.674a.44.44 0 0 0 .814.09c.65-1.18.61-2.556 1.278-3.752a5.926 5.926 0 0 1 2.035-2.1c-.381-.154-.77-.287-1.164-.4-2.125 1.352-3.443 4.241-2.963 6.162zM71.09 28.863c.212.114.595 0 .538-.269-.277-1.27-1.075-2.336-1.099-3.687a6.512 6.512 0 0 1 1.001-3.33c-.484.143-.957.32-1.416.53-1.343 2.246-1.4 5.486.977 6.756zM68.99 30.181a19.926 19.926 0 0 0-2.246-1.457 6.845 6.845 0 0 1-1.758-1.546 8.433 8.433 0 0 0-.464 1.253c.236.253.488.48.708.676a5.348 5.348 0 0 0 3.476 1.628c.293-.016.48-.375.285-.554zM83.837 32.615a.676.676 0 0 0 .171-.212.407.407 0 0 0 .065-.455.863.863 0 0 0-1.147-.35.627.627 0 0 0-.407.594c.008.57.846.798 1.318.423z"/>
            <path fill="#F02422" d="M35.106 46.314c1.88.562 2.832-.602 4.151-1.799a18.249 18.249 0 0 1 6.642-3.948c2.442-.927 9.556-4.664 7.228-8.481-1.783-2.922-6.626.586-8.547 1.449-4.883 2.173-8.57 3.923-10.72 9.149a2.597 2.597 0 0 0 .057 2.588c.35.448.619.88 1.189 1.042z"/>
            <path fill="#A8A1A4" d="M104.707 54.397c.301 0 .74.472 1.628 1.53.887 1.058 2.1 2.613 3.59 4.566l1.163 1.53c.22.301.367.448.546.66a5.551 5.551 0 0 0 3.703 1.71 5.201 5.201 0 0 0 1.758-.205l.424-.146.423-.187 1.172-.562c1.579-.765 3.207-1.563 4.884-2.442 1.676-.879 3.255-1.628 4.737-2.507.749-.415 1.465-.814 2.149-1.261a16.686 16.686 0 0 0 1.554-1.067 1.628 1.628 0 0 0-.105-2.287c-.196-.17-.513-.407-.757-.594l-1.523-1.042c-3.89-2.8-6.56-4.314-6.324-4.884.236-.57 3.362-.065 7.96 2.206.57.285 1.164.594 1.767.944.317.18.586.326.952.562.46.297.867.669 1.205 1.099a5.372 5.372 0 0 1 1.156 3.256 5.502 5.502 0 0 1-1.156 3.5c-.388.42-.829.79-1.31 1.098-.359.285-.725.546-1.1.814a41.11 41.11 0 0 1-2.295 1.49c-1.57.952-3.256 1.848-4.932 2.719-1.677.87-3.395 1.627-5.03 2.376l-1.23.537-.814.302-.814.228a9.06 9.06 0 0 1-8.359-2.41 8.473 8.473 0 0 1-.87-1.017 9.767 9.767 0 0 1-.652-1.026l-.936-1.717a35.53 35.53 0 0 1-2.442-5.437 6.292 6.292 0 0 1-.35-1.628c-.032-.44.081-.692.228-.708z"/>
        </g>
    </g>
</svg>
