<svg xmlns="http://www.w3.org/2000/svg" width="112" height="149" viewBox="0 0 112 149">
    <g fill="none" fill-rule="evenodd">
        <path d="M-19-1h150v150H-19z"/>
        <g fill-rule="nonzero">
            <path fill="#986232" d="M97.64 14.79L88.14 11c-6.73 14.36-41.48 40.54-55.06 48.74-5.62 3.4-11.123 6.99-16.51 10.77C11.07 74.37 5.44 78.76 3 85a34.33 34.33 0 0 0-1.81 9.61 316.13 316.13 0 0 0-1 37.06c.11 3.88.37 8 2.52 11.21 3.05 4.57 9.16 6.16 14.64 5.74 10.14-.76 19-6.89 27.19-12.89 10.9-8 21.78-16.22 30.4-26.61 8.62-10.39 14.88-23.27 15-36.77.06-5.51-.88-11-1.24-16.5a77.14 77.14 0 0 1 8.94-41.06z"/>
            <path fill="#BF8D7F" d="M79.74 27c-4.57 0-17.25 20.33-59.93 46.6-3.45 2.1-7.5 3.4-10.34 6.24C6.63 82.68 5 87.26 6.72 90.93c1.3 2.79 4.16 4.47 6.85 6 3.38 1.89 6.91 3.82 10.78 4.09 5.82.41 11.18-3 15.74-6.66C55.17 82.25 66.72 66.22 75.6 49.07 78.67 43.16 84.31 27 79.74 27z"/>
            <path fill="#B40F0D" d="M55.79 70.35c-.76 1-.94 2.36-1.87 3.18-1.65 1.44-4.86.4-6 2.31a7.87 7.87 0 0 0-.5 2 5.54 5.54 0 0 1-3.36 3.52 21.86 21.86 0 0 1-4.9 1.15c-2.44.43-5 1.13-6.75 2.84s-2.54 4.73-1.08 6.72c.34.47.78.86 1.07 1.35a4.64 4.64 0 0 1 .33 3 65.63 65.63 0 0 0 6-4.61A119.07 119.07 0 0 0 60.57 68.6c-1.82.2-3.69.4-4.78 1.75zM72.39 49.28a32.38 32.38 0 0 0-9 4.29c-3.87 2.79-6.9 7.1-7.07 11.86a26.14 26.14 0 0 1 10.21-5.81c2-3.24 3.87-6.55 5.61-9.9l.25-.44z"/>
            <path fill="#B40F0D" d="M27.32 94c-.7-2.88-2.26-6-.94-8.6a7.54 7.54 0 0 1 2.87-2.79c4-2.5 8.61-3.75 13.14-5.06a1.75 1.75 0 0 0 1.21-.77 2.44 2.44 0 0 0 0-1.26c-.21-2.19 2-3.81 4-4.71 2-.9 4.35-1.77 5.16-3.81.81-2.04-.25-4.23-.11-6.37.24-3.62 3.67-6.1 6.87-7.8 5.04-2.63 10.48-4.72 15.1-8.05l.23-.17c3.19-6.19 6.84-14 3.63-14-4.25 0-15.59 19.19-55.2 43.57-3.21 2-7.77 4.34-10.41 7a23.2 23.2 0 0 1-.81.81c.09.64.87 1 1.52 1.14l5.76 1.5c-1.48 1.33-3.49 1.89-5.18 2.94a9.06 9.06 0 0 0-3.28 3.56 20.56 20.56 0 0 0 4.85 3.41c3.15 1.75 6.42 3.55 10 3.8.632.05 1.268.05 1.9 0a13.64 13.64 0 0 0-.31-4.34z"/>
            <path fill="#B08E84" d="M26.71 82.66A5.61 5.61 0 0 1 28 80.57a13.14 13.14 0 0 1 5.39-3.93c1.28-.52 2.8-1 3.27-2.38.14-.35.25-.74.4-1.17a7.27 7.27 0 0 1 .62-1.25 8 8 0 0 1 2-2c1.53-1.16 3.33-2 5-3 .78-.46 1.52-1.17 1.44-1.82a4.15 4.15 0 0 0-.55-1.24 3.62 3.62 0 0 1-.3-1.84 5.89 5.89 0 0 1 1.5-3.08c.7-.79 1.48-1.504 2.33-2.13 1.58-1.24 3.117-2.407 4.61-3.5 3-2.18 5.72-4.05 8.07-5.56 2.35-1.51 4.22-2.67 5.59-3.46a9 9 0 0 1 2.17-1.08 10.71 10.71 0 0 1-1.94 1.45l-5.43 3.73c-2.28 1.59-5 3.51-7.89 5.73a184.618 184.618 0 0 0-4.55 3.53 14.09 14.09 0 0 0-2.16 2A4.78 4.78 0 0 0 46.34 62c-.045.43.024.865.2 1.26a4.84 4.84 0 0 1 .64 1.61 2.45 2.45 0 0 1-.67 1.81 5.5 5.5 0 0 1-1.31 1.05c-1.77 1-3.54 1.81-5 2.86a7.22 7.22 0 0 0-1.77 1.76 6.13 6.13 0 0 0-.54 1.05c-.14.37-.26.77-.44 1.18a3.57 3.57 0 0 1-.73 1.15 4.53 4.53 0 0 1-1 .77 15.59 15.59 0 0 1-2.09.85 13.59 13.59 0 0 0-5.34 3.48c-1.05 1.17-1.5 1.88-1.58 1.83z"/>
            <path fill="#B08E84" d="M20.5 94c-.05-.08.37-.32.85-1a3.67 3.67 0 0 0 .58-3c-.19-.65-.68-1.31-1-2.27a5.79 5.79 0 0 1 .07-3.1 16.39 16.39 0 0 1 2.89-6 17 17 0 0 1 5-4.4c1.72-1.06 3.31-1.88 4.51-2.74a16.33 16.33 0 0 0 3.42-3.33s0 .13-.05.35a4.74 4.74 0 0 1-.42.91 10 10 0 0 1-2.47 2.71c-2.38 2-6.44 3.52-9.1 7.17A16.66 16.66 0 0 0 22 84.89a5.06 5.06 0 0 0-.19 2.55c.19.76.66 1.49.85 2.32a3.84 3.84 0 0 1-.11 2.24 4.05 4.05 0 0 1-.87 1.39c-.68.61-1.16.71-1.18.61zM40.69 85.51c.14.27-1 1.19-2.66 2-1.66.81-3 1.31-3.19 1-.19-.31 1-1.18 2.66-2 1.66-.82 3.04-1.27 3.19-1zM41.69 86.3c.18.25-1.08 1.44-2.82 2.64-1.74 1.2-3.28 2-3.46 1.73-.18-.27 1.09-1.44 2.82-2.67 1.73-1.23 3.29-2 3.46-1.7zM62.28 58.46c-.23-.2.5-1.4 1.63-2.68 1.13-1.28 2.23-2.14 2.46-1.93.23.21-.49 1.4-1.62 2.68-1.13 1.28-2.24 2.14-2.47 1.93z"/>
            <path fill="#B08E84" d="M63.48 58.7c-.22-.21.35-1.19 1.28-2.2.93-1.01 1.87-1.65 2.1-1.44.23.21-.34 1.2-1.28 2.2-.94 1-1.87 1.65-2.1 1.44zM18.42 82.15c-.3 0-.33-1.43.41-2.93.74-1.5 1.87-2.32 2.08-2.11.21.21-.42 1.27-1.07 2.61-.65 1.34-1.11 2.48-1.42 2.43zM15.13 92.81c-.3 0-.44-1.18-.06-2.52s1.09-2.25 1.37-2.12c.28.13 0 1.19-.3 2.42s-.7 2.25-1.01 2.22z"/>
            <path fill="#804817" d="M97.64 14.79L88.14 11a43.35 43.35 0 0 1-6.84 9.6 5.41 5.41 0 0 0 1.44 2.23c1 .89 2.25 1.43 3.12 2.43 1.84 2.11 1.26 5.31.58 8-1.61 7-3.664 13.89-6.15 20.63C73 72.55 59.35 87.9 46.19 103c-1.27 1.46-2.6 3-2.91 5-.31 2 .84 4.21 2.78 4.36 2.1.17 4.69-2 6-.28a2.68 2.68 0 0 1 .26 2.17c-.94 4.36-5 7.25-8.94 9.35a75.42 75.42 0 0 1-14 5.78C23.63 131 17 132.6 14.2 137.83c-1.53 2.8-1.61 6.13-2.35 9.23-.1.42-.22.83-.35 1.25a21.44 21.44 0 0 0 5.81.34c10.14-.76 19-6.89 27.19-12.89 10.9-8 21.78-16.22 30.4-26.61 8.62-10.39 14.88-23.27 15-36.77.06-5.51-.88-11-1.24-16.5a77.14 77.14 0 0 1 8.98-41.09z"/>
            <path fill="#AA794E" d="M7 129.43a6.58 6.58 0 0 1-.49-3.29c.36-1.77 2.06-2.9 3.62-3.83 3.493-2.06 6.977-4.127 10.45-6.2 1.81-1.08 3.78-2.34 4.36-4.37.62-2.19-.67-4.56-2.5-5.92a18.75 18.75 0 0 0-6.29-2.54 30.29 30.29 0 0 1-9.12-3.8 12.09 12.09 0 0 1-5.43-8v-.64c-.17 1.25-.29 2.51-.4 3.77a316.13 316.13 0 0 0-1 37.06c.11 3.88.37 8 2.52 11.21a11.47 11.47 0 0 0 3.52 3.35 13 13 0 0 0 2.7-6.91c.22-3.32-.85-6.67-1.94-9.89z"/>
            <path fill="#453C3F" d="M110.42 1.58a17.06 17.06 0 0 0-10.2-1.31 3 3 0 0 0-1.49.6 3.62 3.62 0 0 0-.79 1.31 19.07 19.07 0 0 1-4.82 6.63 22.86 22.86 0 0 0-2.63-5.34 55.26 55.26 0 0 0-4.85 12.4c1.29 1.29 6.1 3.64 7.91 3.8.49.075.99.016 1.45-.17a3.16 3.16 0 0 0 1-.87 187.28 187.28 0 0 1 14.7-15.06c.32-.29.67-.65.62-1.08-.05-.43-.5-.72-.9-.91z"/>
            <path fill="#2D2326" d="M94.44 10.64a1.75 1.75 0 0 0 .79-.31 13 13 0 0 0 3.83-3.56 13.78 13.78 0 0 1 2.22-2.86 7.73 7.73 0 0 1 3.59-1.44 24.12 24.12 0 0 1 6.35-.29 1.86 1.86 0 0 0-.8-.6 17.06 17.06 0 0 0-10.2-1.31 3 3 0 0 0-1.49.6 3.62 3.62 0 0 0-.79 1.31 19 19 0 0 1-4.79 6.6v.08c-.02.82.47 1.83 1.29 1.78z"/>
        </g>
    </g>
</svg>
