<svg xmlns="http://www.w3.org/2000/svg" width="257" height="158" viewBox="0 0 257 158">
    <g fill="none" fill-rule="evenodd">
        <path fill="#DAD6C4" d="M169.383 110a.936.936 0 0 1-.814-.479.961.961 0 0 1 .345-1.303l8.675-5.09a.936.936 0 0 1 1.285.348.963.963 0 0 1-.346 1.306l-8.675 5.09-.47.128zm-16.424 9.333a.937.937 0 0 1-.814-.478.963.963 0 0 1 .345-1.303l8.678-5.09a.935.935 0 0 1 1.282.348.965.965 0 0 1-.343 1.306l-8.677 5.09-.471.127zm-17.594 9.334a.943.943 0 0 1-.817-.479.963.963 0 0 1 .346-1.303l8.677-5.09a.936.936 0 0 1 1.285.348.966.966 0 0 1-.346 1.306l-8.677 5.09-.468.128zM118.94 138a.937.937 0 0 1-.815-.478.962.962 0 0 1 .344-1.304l8.677-5.09a.938.938 0 0 1 1.285.349.965.965 0 0 1-.345 1.305l-8.678 5.09-.468.128z"/>
        <path fill="#CF7C00" d="M109 55v3.75l2.8 2.25 1.2-.764v-3.755L109 55"/>
        <path fill="#F5B400" d="M110.2 54l-1.2.754L111.8 57l1.2-.766L110.2 54"/>
        <path fill="#CF7C00" d="M112 57v4.38l3.5 2.62 1.5-.884v-4.382L112 57"/>
        <path fill="#F5B400" d="M113.502 57l-1.502.757L115.5 60l1.5-.757L113.502 57"/>
        <path fill="#CF7C00" d="M117 60v3.753L119.8 66l1.2-.762v-3.75L117 60"/>
        <path fill="#F5B400" d="M118.195 59L117 60.012 119.8 63l1.2-1.006L118.195 59"/>
        <path fill="#CF7C00" d="M120 63v3.761L123.5 69l1.5-.753V64.49L120 63"/>
        <path fill="#F5B400" d="M121.5 62l-1.5.503L123.5 64l1.5-.504L121.5 62"/>
        <path fill="#CF7C00" d="M125 65v4.384L128.5 72l1.5-.889v-4.383L125 65"/>
        <path fill="#F5B400" d="M126.501 64L125 65.009 128.5 68l1.5-1.018L126.501 64"/>
        <path fill="#CF7C00" d="M129 68v3.762L131.8 74l1.2-.76v-3.748L129 68"/>
        <path fill="#F5B400" d="M130.2 67l-1.2 1.004L131.8 71l1.2-1.01-2.8-2.99"/>
        <path fill="#754C29" d="M0 42.394V27.188h11.204c3.05-2.092 5.536-3.305 5.536-3.305S44.124 4.379 70.87 20.17c2.77 1.635 4.962 3.493 6.672 5.49h5.45v15.008c.224 10.262-4.806 19.487-4.806 19.487s-45.694 8.695-67.738-4.317C2.685 51.25-.042 46.638 0 42.394"/>
        <path fill="#FFA34D" d="M78.184 46.155S32.492 54.85 10.45 41.84C-16.296 26.049 16.74 9.884 16.74 9.884S44.124-9.622 70.868 6.17c22.04 13.012 7.316 39.984 7.316 39.984"/>
        <path fill="#CF7C00" d="M68.169 25.785c-6.443-3.713-16.893-3.713-23.336 0-6.444 3.703-6.444 9.722-.002 13.43 6.445 3.713 16.895 3.713 23.338 0 6.441-3.708 6.441-9.727 0-13.43"/>
        <path fill="#754C29" d="M44.059 34c.261-1.638 1.46-3.222 3.602-4.472 4.882-2.847 12.797-2.847 17.677 0 2.14 1.25 3.343 2.834 3.607 4.472.337-2.095-.863-4.257-3.607-5.861-4.88-2.852-12.795-2.852-17.677 0-2.747 1.604-3.95 3.766-3.602 5.861"/>
        <path fill="#000" d="M44 33.5c.262 1.608 1.467 3.166 3.619 4.396 4.904 2.805 12.855 2.805 17.758 0 2.149-1.23 3.358-2.788 3.623-4.395-.265-1.612-1.474-3.17-3.623-4.4-4.903-2.801-12.854-2.801-17.758 0-2.152 1.23-3.357 2.788-3.619 4.4"/>
        <path fill="#3C2415" d="M57 39.914S69.065 38.801 69.106 37L98 54.918 87.61 61 67.38 49.819l.06-2.797L57 41.28v-1.366"/>
        <path fill="#603913" d="M99.507 56.553L104.712 55 136 72.95v4.055l-.973.544v1.683c.025.732-.585 1.565-1.766 2.228-1.938 1.093-4.673 1.324-6.102.52L125.34 83 90.26 65.344 89 62.465v-4.05l10.507-1.862"/>
        <path fill="#754C29" d="M105.25 55.3l24.304 14.883c.663.404.577 1.077-.194 1.497-.772.42-1.938.427-2.61.016L102.45 56.823c-.666-.413-.582-1.088.19-1.508.775-.414 1.941-.42 2.612-.016zm19.234 18.839c.7.384.686 1.056-.029 1.496-.712.443-1.858.487-2.56.11L96.518 61.855c-.702-.384-.69-1.047.032-1.49.713-.443 1.852-.49 2.554-.107l25.38 13.88zM104.62 52.723L99.507 52l-5.251 3.018L89 58.036l1.26 2.935L125.34 79l1.82-1.047c1.428.82 4.163.582 6.101-.53 1.94-1.113 2.347-2.685.918-3.505L136 72.876l-31.38-20.153z"/>
        <path fill="#3C2415" d="M98.26 51l1.74.926-11.257 5.978V62L87 61.076V56.98L98.26 51"/>
        <path fill="#603913" d="M65.514 37.985c2.355-1.374 3.55-3.18 3.592-4.985L98 50.918 87.61 57 57 40.086c3.088-.027 6.16-.724 8.514-2.1"/>
        <path fill="#A7A9AC" d="M92 48l-11 4.371v.365l.59.264L92 48.355V48"/>
        <path fill="#D1D3D4" d="M91.41 47L81 52.67l.59.33L92 47.321 91.41 47"/>
        <path fill="#414042" d="M17 30.4l1.044.6 32.603-18.8 5.313 3.077 1.04-.601L50.647 11 17 30.4"/>
        <path fill="#000" d="M19 30.77L24.332 34 57 14.235 51.675 11 19 30.77"/>
        <path fill="#A7A9AC" d="M42 19l-14 4.966v1.024L30.024 26 42 20.026V19"/>
        <path fill="#D1D3D4" d="M39.98 18L28 24.849 30.024 26 42 19.155 39.98 18"/>
        <path fill="#A7A9AC" d="M12.005 15.299H12v-2.142L26 7v2.128c.002.314-.283.68-.83.982l-10.096 5.442c-.882.473-2.108.592-2.724.258-.244-.128-.35-.312-.345-.511"/>
        <path fill="#D1D3D4" d="M25.652 6.199c-.624-.349-1.847-.228-2.725.275L12.83 12.24c-.88.513-1.093 1.209-.477 1.565.616.346 1.842.223 2.724-.28l10.096-5.766c.873-.5 1.094-1.2.48-1.559"/>
        <path fill="#CF7C00" d="M93 67.263V64l5 .99v3.264L96.734 69 93 67.263"/>
        <path fill="#F5B400" d="M93 63.599L94.263 63 98 64.398 96.734 65 93 63.599"/>
        <path fill="#CF7C00" d="M98 69.92V66l4 1.19v3.921l-1.013.889L98 69.92"/>
        <path fill="#F5B400" d="M98 65.9l1.01-.9 2.99 2.1-1.013.9L98 65.9"/>
        <path fill="#CF7C00" d="M102 72.262V69l6 .99v3.267l-1.516.743L102 72.262"/>
        <path fill="#F5B400" d="M102 68.904l1.519-.904L108 70.103l-1.516.897L102 68.904"/>
        <path fill="#CF7C00" d="M107 74.916V71l5 1.186v3.923l-1.265.891L107 74.916"/>
        <path fill="#F5B400" d="M107 70.599l1.262-.599L112 71.396l-1.265.604L107 70.599"/>
        <path fill="#CF7C00" d="M111 76.916V73l6 1.187v3.919l-1.517.894L111 76.916"/>
        <path fill="#F5B400" d="M111 72.904l1.52-.904 4.48 2.098-1.517.902L111 72.904"/>
        <path fill="#CF7C00" d="M116 78.92V75l5 1.189v3.922l-1.267.889L116 78.92"/>
        <path fill="#F5B400" d="M116 75.898l1.267-.898L121 77.097l-1.267.903L116 75.898"/>
        <path fill="#A7A9AC" d="M94 49l-9 5.248v.433l.483.319L94 49.429V49"/>
        <path fill="#D1D3D4" d="M93.517 49L85 54.674l.483.326L94 49.321 93.517 49"/>
        <path fill="#A7A9AC" d="M86 44l-10 5.26v.425l.534.315L86 44.434V44"/>
        <path fill="#D1D3D4" d="M85.461 43L76 48.683l.534.317L86 43.324 85.461 43"/>
        <path fill="#A7A9AC" d="M88 46l-9 5.248v.435l.483.317L88 46.429V46"/>
        <path fill="#D1D3D4" d="M87.519 45L79 50.674l.483.326L88 45.323 87.519 45"/>
        <path fill="#A7A9AC" d="M79 41l-9 5.254v.431l.483.315L79 41.433V41"/>
        <path fill="#D1D3D4" d="M78.515 40L70 45.679l.483.321L79 40.325 78.515 40"/>
        <path fill="#A7A9AC" d="M83 42l-11 6.13v.497l.59.373L83 42.503V42"/>
        <path fill="#D1D3D4" d="M82.407 41L72 47.628l.59.372L83 41.377 82.407 41"/>
        <path fill="#A7A9AC" d="M74 37l-10 5.248v.435l.537.317L74 37.429V37"/>
        <path fill="#D1D3D4" d="M73.463 37L64 41.727l.537.273L74 37.268 73.463 37"/>
        <path fill="#A7A9AC" d="M71 35l-10 6.127v.506l.536.367L71 35.505V35"/>
        <path fill="#D1D3D4" d="M70.461 35L61 40.674l.536.326L71 35.319 70.461 35"/>
        <path fill="#A7A9AC" d="M77 39l-10 5.252v.433l.54.315L77 39.429V39"/>
        <path fill="#D1D3D4" d="M76.464 39L67 43.729l.54.271L77 39.27l-.536-.27"/>
        <path fill="#FFF" d="M90.849 57l.151-.086-.067-.236L15.236 14l-.236.062.067.236 75.697 42.676.085.026M98.855 53l.145-.082-.057-.235L25.229 9 25 9.064l.06.231 73.71 43.68.085.025M96.854 53l.146-.085-.061-.23L23.23 10l-.231.063.063.226 73.708 42.685.083.026M93.847 55l.153-.08-.065-.24L20.227 11l-.227.065.061.237L93.765 54.98l.082.02M95.854 54l.146-.079-.062-.23L21.23 11l-.23.066.062.23 74.704 42.687.088.017M91.854 57l.146-.09-.062-.232L17.232 13l-.232.065.062.233 74.7 43.673.092.029M93.854 56l.146-.087-.062-.235L19.238 12l-.238.058.062.237L93.77 55.982l.084.018"/>
        <path fill="#DAD6C4" d="M100.383 149a.936.936 0 0 1-.814-.479.961.961 0 0 1 .345-1.303l8.675-5.09a.936.936 0 0 1 1.285.348.963.963 0 0 1-.346 1.306l-8.675 5.09-.47.128zm-16.424 9.333a.937.937 0 0 1-.814-.478.963.963 0 0 1 .345-1.303l8.678-5.09a.935.935 0 0 1 1.282.348.965.965 0 0 1-.343 1.306l-8.677 5.09-.471.127zm-17.594 9.334a.943.943 0 0 1-.817-.479.963.963 0 0 1 .346-1.303l8.677-5.09a.936.936 0 0 1 1.285.348.966.966 0 0 1-.346 1.306l-8.677 5.09-.468.128zM49.94 177a.937.937 0 0 1-.815-.478.962.962 0 0 1 .344-1.304l8.677-5.09a.938.938 0 0 1 1.285.349.965.965 0 0 1-.345 1.305l-8.678 5.09-.468.128z"/>
        <path fill="#000" fill-opacity=".147" d="M51.667 94.05l-.474-.128-8.719-5.127a.971.971 0 0 1-.347-1.315.939.939 0 0 1 1.292-.351l8.718 5.127c.454.266.61.853.348 1.312a.941.941 0 0 1-.818.482zm16.508 9.4l-.473-.128-8.722-5.127a.973.973 0 0 1-.345-1.315.936.936 0 0 1 1.289-.351l8.722 5.127a.97.97 0 0 1 .347 1.312.941.941 0 0 1-.818.482zm17.684 10.575l-.47-.128-8.722-5.128a.97.97 0 0 1-.347-1.312.936.936 0 0 1 1.291-.351l8.722 5.127a.97.97 0 0 1 .347 1.313.95.95 0 0 1-.82.479zm17.688 9.4l-.47-.128-8.723-5.129a.97.97 0 0 1-.347-1.313.94.94 0 0 1 1.291-.351l8.722 5.129a.97.97 0 0 1 .345 1.312.944.944 0 0 1-.818.48zM120.055 134l-.473-.128-8.72-5.128a.969.969 0 0 1-.347-1.313.937.937 0 0 1 1.291-.352l8.72 5.129c.453.264.609.854.347 1.313a.944.944 0 0 1-.818.479zM187.667 111.05l-.474-.128-8.719-5.127a.971.971 0 0 1-.347-1.315.939.939 0 0 1 1.292-.351l8.718 5.127c.454.266.61.853.348 1.312a.941.941 0 0 1-.818.482zm16.508 9.4l-.473-.128-8.722-5.127a.973.973 0 0 1-.345-1.315.936.936 0 0 1 1.289-.351l8.722 5.127a.97.97 0 0 1 .347 1.312.941.941 0 0 1-.818.482zm17.684 10.575l-.47-.128-8.722-5.128a.97.97 0 0 1-.347-1.312.936.936 0 0 1 1.291-.351l8.722 5.127a.97.97 0 0 1 .347 1.313.95.95 0 0 1-.82.479zm17.688 9.4l-.47-.128-8.723-5.129a.97.97 0 0 1-.347-1.313.94.94 0 0 1 1.291-.351l8.722 5.129a.97.97 0 0 1 .345 1.312.944.944 0 0 1-.818.48zM256.055 151l-.473-.128-8.72-5.128a.969.969 0 0 1-.347-1.313.937.937 0 0 1 1.291-.352l8.72 5.129c.453.264.609.854.347 1.313a.944.944 0 0 1-.818.479z"/>
    </g>
</svg>
