<svg xmlns="http://www.w3.org/2000/svg" xmlns:xlink="http://www.w3.org/1999/xlink" width="186" height="66" viewBox="0 0 186 66">
    <defs>
        <path id="a" d="M19.848 34.829L.182 23.599 40.794.39 60.46 11.617z"/>
    </defs>
    <g fill="none" fill-rule="evenodd">
        <path fill="#DAD6C4" d="M.448 2.479l-.347-.093-6.439-3.718a.696.696 0 0 1-.254-.951.703.703 0 0 1 .951-.257L.798 1.177a.699.699 0 0 1 .256.954.7.7 0 0 1-.606.348zm12.88 7.434l-.348-.093-6.44-3.717a.696.696 0 0 1-.255-.952.703.703 0 0 1 .951-.256l6.44 3.717a.7.7 0 0 1 .255.954.7.7 0 0 1-.604.347zm12.876 7.435l-.347-.093-6.44-3.717a.697.697 0 0 1 .696-1.208l6.44 3.717a.698.698 0 0 1-.349 1.301zm12.877 7.435l-.347-.093-6.439-3.717a.698.698 0 0 1-.256-.952.705.705 0 0 1 .953-.257l6.439 3.718a.698.698 0 0 1-.35 1.3zM52.273 33.25l-.348-.093-6.438-3.717a.696.696 0 0 1-.255-.952.7.7 0 0 1 .952-.257l6.438 3.718a.698.698 0 0 1-.349 1.3zm12.879 7.435l-.35-.093-6.438-3.718a.696.696 0 0 1-.255-.951.702.702 0 0 1 .952-.257l6.439 3.718a.698.698 0 0 1-.348 1.3zm12.877 7.434l-.348-.092-6.44-3.718a.698.698 0 0 1 .697-1.208l6.44 3.717a.697.697 0 1 1-.35 1.301h.001zM108.738 36.109a.698.698 0 0 1-.35-1.301l6.438-3.718a.697.697 0 1 1 .697 1.208l-6.437 3.718-.348.093zM95.86 43.543a.697.697 0 0 1-.349-1.3l6.439-3.718a.7.7 0 0 1 .951.256.696.696 0 0 1-.254.952l-6.439 3.717-.348.093zm-12.877 7.435a.698.698 0 0 1-.35-1.301l6.44-3.717a.7.7 0 0 1 .951.256.696.696 0 0 1-.254.952l-6.439 3.717-.348.093z"/>
        <path fill="#FFC900" d="M128.58 27.864c-1.64 0-3.196-.376-4.377-1.056-1.3-.75-2.018-1.794-2.018-2.931 0-1.14.717-2.18 2.018-2.931 2.36-1.363 6.394-1.363 8.757 0 1.3.75 2.016 1.792 2.016 2.93 0 1.138-.715 2.181-2.016 2.932-1.18.68-2.736 1.056-4.38 1.056z"/>
        <g transform="translate(123.424 31.076)">
            <mask id="b" fill="#fff">
                <use xlink:href="#a"/>
            </mask>
            <path fill="#952828" d="M.182 34.829H60.46V.389H.182z" mask="url(#b)"/>
        </g>
        <path fill="#FA5932" d="M144.084 63.913c-14.283-3.814-19.89-12.503-20.04-12.687l39.439-22.628s3.576 4.242 9.736 7.777c6.184 3.55 9.7 3.398 9.735 3.396l.568 1.513c-.154.01-39.438 22.629-39.438 22.629"/>
        <path fill="#CD310C" d="M133.648 60.265c-6.437-3.816-10.074-8.29-10.224-8.478l.564-.884-.283.442.28-.443c.036.043 3.552 4.352 9.663 7.974 6.137 3.64 9.624 3.484 9.66 3.482l.562 1.552c-.153.008-3.789.17-10.222-3.645"/>
        <path fill="#FFB537" d="M131.736 55.24a4.591 4.591 0 0 1-3.974-2.281 4.566 4.566 0 0 1 1.669-6.254l36.666-21.207a4.594 4.594 0 0 1 6.27 1.662 4.564 4.564 0 0 1-1.665 6.253L134.036 54.62a4.595 4.595 0 0 1-2.3.62"/>
        <path fill="#EC8713" d="M131.925 55.24a4.56 4.56 0 0 1-3.955-2.299c-1.267-2.203 3.542 1.75 5.725.472l37.607-21.657c2.182-1.278.584-6.058 1.068-4.811 1.268 2.203.526 5.024-1.657 6.3l-36.498 21.37a4.532 4.532 0 0 1-2.29.624"/>
        <path fill="#FFF" d="M155.561 38.201c0-.11-.102-.2-.23-.2-.125 0-.229.09-.229.2 0 .11.104.2.23.2.127 0 .23-.09.23-.2M157.19 37.377c-.106 0-.192.091-.192.205 0 .113.086.204.192.204a.198.198 0 0 0 .193-.204c0-.114-.086-.205-.193-.205M158.43 36.902c-.14 0-.253.026-.253.06 0 .033.113.06.252.06.14 0 .253-.027.253-.06 0-.034-.113-.06-.253-.06M160.288 36.222a.12.12 0 0 0-.12.12c0 .067.054.12.12.12a.12.12 0 0 0 0-.24M162.146 34.899c-.105 0-.192.09-.192.205 0 .113.087.204.192.204a.198.198 0 0 0 .193-.204.199.199 0 0 0-.193-.205M163.387 34.291c-.16 0-.29.086-.29.193 0 .106.13.192.29.192.16 0 .288-.086.288-.192 0-.107-.128-.193-.288-.193M167.724 31.265c-.096 0-.174.054-.174.121 0 .066.078.12.174.12.094 0 .172-.054.172-.12 0-.067-.078-.12-.172-.12M170.202 31.326l-.097.06.097.06.095-.06-.095-.06M169.582 31.265a.12.12 0 0 0-.12.121.12.12 0 1 0 .24 0 .12.12 0 0 0-.12-.12M152.233 41.118c-.125 0-.228.081-.228.18 0 .1.103.182.228.182.127 0 .229-.082.229-.181 0-.1-.102-.18-.229-.18"/>
        <path fill="#FFF" d="M172.169 27.164a4.56 4.56 0 0 0-6.242-1.664L129.42 46.743a4.586 4.586 0 0 0-2.273 4.199c2.493 1.914 5.586-1.58 5.963-.929.39.675.854.278 1.391-.345l-.007.08c0 .226.182.409.407.409a.408.408 0 0 0 0-.817l-.147.027c.575-.69 1.23-1.485 1.968-1.485.782 0 4.962-1.42 7.866-3.055.286-.16.56-.328.824-.498a.428.428 0 0 0 .345.179.426.426 0 0 0 .36-.654c.998-.708 1.92-1.5 2.951-2.365a.53.53 0 0 0-.052.229c0 .245.166.443.37.443s.37-.198.37-.443-.166-.444-.37-.444l-.067.008c1.089-.909 2.31-1.896 3.878-2.958 3.933-2.664 5.793-1.675 7.344-3.73 1.136-1.504 2.016-1.416 3.424-1.79.002.263.167.476.372.476s.37-.215.37-.48l-.04-.213c.336-.12.7-.273 1.097-.48l.054-.027c.037.137.168.24.325.24a.326.326 0 0 0 .335-.32l-.077-.203c1.378-.642 3.153-1.308 4.408-2.074.02.101.133.18.275.18.155 0 .283-.094.283-.212 0-.095-.084-.172-.197-.2.986-.679 1.514-1.438.999-2.327"/>
        <path fill="#FFF" d="M150.994 41.189c-.08 0-.144.05-.144.11 0 .061.064.11.144.11.08 0 .145-.049.145-.11 0-.06-.065-.11-.145-.11M153.473 39.26a.181.181 0 0 0 0 .361.18.18 0 0 0 0-.362M143.559 46.135a.12.12 0 0 0-.12.12.12.12 0 1 0 .241 0 .12.12 0 0 0-.121-.12M140.774 47.185a.62.62 0 1 0-.003 1.24.62.62 0 0 0 .003-1.24M138.604 47.97a.146.146 0 0 0-.145.144c0 .08.066.145.145.145a.145.145 0 0 0 0-.29M136.126 49.185a.168.168 0 0 0-.17.168.168.168 0 1 0 .337 0 .168.168 0 0 0-.167-.168M131.789 51.536a.296.296 0 1 0 0 .591.296.296 0 0 0 0-.591M133.646 51.651a.18.18 0 0 0 0 .36c.1 0 .181-.08.181-.18 0-.1-.081-.18-.181-.18M137.364 49.185a.168.168 0 1 0 0 .336.168.168 0 0 0 0-.336M148.517 43.524a.253.253 0 0 0 0 .506c.14 0 .251-.114.251-.253a.252.252 0 0 0-.251-.253M155.951 39.175a.265.265 0 1 0 0 .531.265.265 0 0 0 0-.53"/>
        <path fill="#FFB537" d="M135.452 58.957a4.592 4.592 0 0 1-3.974-2.28 4.57 4.57 0 0 1 1.668-6.254l36.665-21.208a4.6 4.6 0 0 1 6.274 1.662 4.565 4.565 0 0 1-1.667 6.254l-36.667 21.207a4.589 4.589 0 0 1-2.299.619"/>
        <path fill="#EC8713" d="M135.643 58.957a4.56 4.56 0 0 1-3.956-2.298c-1.265-2.203 3.542 1.75 5.724.472l37.609-21.658c2.182-1.277.583-6.058 1.068-4.81 1.268 2.202.524 5.023-1.66 6.301l-36.498 21.37c-.72.42-1.51.623-2.287.623"/>
        <path fill="#FFF" d="M159.277 41.918c0-.11-.101-.199-.228-.199s-.228.09-.228.2c0 .11.101.199.228.199s.228-.09.228-.2M160.906 41.095c-.106 0-.191.09-.191.204 0 .113.085.204.191.204a.198.198 0 0 0 .194-.204.198.198 0 0 0-.194-.204M162.147 40.619c-.14 0-.253.027-.253.06s.113.061.253.061.253-.028.253-.061-.113-.06-.253-.06M164.006 39.32a.12.12 0 0 0 0 .241.12.12 0 0 0 .12-.121.12.12 0 0 0-.12-.12M165.865 38.616a.199.199 0 0 0-.194.205.2.2 0 0 0 .194.204c.105 0 .192-.092.192-.204 0-.114-.087-.205-.192-.205M167.103 37.389c-.16 0-.289.085-.289.192s.13.193.289.193c.16 0 .29-.086.29-.193 0-.107-.13-.192-.29-.192M171.44 34.983c-.095 0-.171.054-.171.12 0 .067.076.12.172.12.095 0 .17-.053.17-.12 0-.066-.075-.12-.17-.12M173.918 34.424l-.096.06.096.06.097-.06-.097-.06M173.3 34.983a.121.121 0 0 0-.122.12.121.121 0 0 0 .242 0 .12.12 0 0 0-.12-.12M155.95 44.835c-.126 0-.228.082-.228.181 0 .1.102.181.228.181.127 0 .23-.08.23-.18 0-.1-.103-.182-.23-.182"/>
        <path fill="#FFF" d="M175.887 30.881a4.564 4.564 0 0 0-6.246-1.664L133.136 50.46a4.587 4.587 0 0 0-2.272 4.198c2.494 1.915 5.587-1.58 5.966-.929.389.675.85.278 1.388-.346l-.005.08a.405.405 0 1 0 .812 0 .408.408 0 0 0-.407-.408l-.147.029c.576-.69 1.23-1.486 1.973-1.486.775 0 4.957-1.42 7.862-3.055.284-.16.559-.327.825-.499a.42.42 0 0 0 .342.18.426.426 0 0 0 .36-.654c.998-.708 1.922-1.5 2.957-2.366a.505.505 0 0 0-.057.23c0 .246.166.444.37.444s.37-.198.37-.444c0-.245-.166-.444-.37-.444l-.068.008c1.09-.908 2.312-1.896 3.879-2.957 3.93-2.665 5.792-1.676 7.345-3.732 1.135-1.504 2.013-1.416 3.423-1.789 0 .263.166.476.37.476.205 0 .373-.215.373-.48l-.04-.212c.334-.121.697-.275 1.095-.482l.053-.027c.04.138.169.242.326.242a.33.33 0 0 0 .337-.32l-.08-.205c1.38-.64 3.153-1.307 4.41-2.073.02.101.133.18.274.18.157 0 .284-.094.284-.212 0-.094-.084-.172-.197-.2.983-.68 1.515-1.437 1-2.327"/>
        <path fill="#FFF" d="M154.714 44.906c-.082 0-.146.05-.146.11s.064.11.146.11c.078 0 .142-.05.142-.11s-.064-.11-.142-.11M157.19 42.977a.18.18 0 0 0-.18.18.18.18 0 1 0 .18-.18M147.276 49.852a.12.12 0 1 0 .121.12.12.12 0 0 0-.121-.12M144.49 50.902a.62.62 0 1 0-.003 1.24.62.62 0 0 0 .004-1.24M142.321 51.687a.145.145 0 1 0 0 .29.145.145 0 0 0 0-.29M139.842 52.902a.169.169 0 0 0-.168.168.17.17 0 0 0 .337 0 .17.17 0 0 0-.169-.168M135.504 55.253a.296.296 0 1 0 .004.592.296.296 0 0 0-.004-.592M137.364 54.75a.18.18 0 0 0-.18.179c0 .1.08.18.18.18a.18.18 0 1 0 0-.36M141.082 52.902a.17.17 0 0 0-.169.168c0 .094.077.17.17.17a.168.168 0 0 0 .167-.17.168.168 0 0 0-.168-.168M152.234 47.241a.253.253 0 1 0 0 .506.253.253 0 0 0 0-.506M159.049 42.893a.263.263 0 0 0-.264.265.264.264 0 1 0 .528 0 .264.264 0 0 0-.264-.265"/>
        <path fill="#FFB537" d="M141.03 62.674a4.59 4.59 0 0 1-3.976-2.28 4.569 4.569 0 0 1 1.669-6.253l36.666-21.208a4.6 4.6 0 0 1 6.273 1.662 4.568 4.568 0 0 1-1.667 6.254l-36.667 21.207a4.581 4.581 0 0 1-2.299.618"/>
        <path fill="#EC8713" d="M141.22 62.674a4.557 4.557 0 0 1-3.957-2.297c-1.265-2.203 3.541 1.75 5.724.473l37.608-21.66c2.183-1.277.586-6.058 1.07-4.81 1.265 2.203.525 5.024-1.66 6.302l-36.497 21.37a4.517 4.517 0 0 1-2.288.622"/>
        <path fill="#FFF" d="M164.853 45.016c0-.11-.102-.199-.228-.199-.127 0-.228.089-.228.2 0 .109.101.198.228.198.126 0 .228-.089.228-.199M165.865 44.192c-.108 0-.194.091-.194.205 0 .113.086.205.194.205.105 0 .192-.092.192-.205 0-.114-.087-.205-.192-.205M167.723 44.336c-.14 0-.253.028-.253.06 0 .034.112.061.253.061.139 0 .252-.027.252-.06s-.113-.06-.252-.06M169.581 43.037a.12.12 0 1 0 0 .24.12.12 0 0 0 .121-.12.12.12 0 0 0-.12-.12M170.82 42.333c-.107 0-.192.091-.192.205 0 .112.085.205.193.205.106 0 .192-.093.192-.205a.198.198 0 0 0-.192-.205M172.678 41.107c-.16 0-.288.085-.288.192 0 .106.129.192.288.192.162 0 .29-.086.29-.192 0-.107-.128-.192-.29-.192M177.016 38.7c-.094 0-.173.055-.173.122 0 .065.079.12.173.12.095 0 .173-.055.173-.12 0-.067-.078-.122-.173-.122M179.495 38.141l-.097.06.097.06.096-.06-.096-.06M178.255 38.7a.12.12 0 1 0 0 .242.12.12 0 0 0 0-.242M161.527 47.934c-.125 0-.228.08-.228.181 0 .1.103.18.228.18.127 0 .228-.08.228-.18 0-.1-.101-.181-.228-.181"/>
        <path fill="#FFF" d="M181.463 34.599a4.564 4.564 0 0 0-6.245-1.665l-36.504 21.245a4.586 4.586 0 0 0-2.274 4.197c2.494 1.915 5.588-1.58 5.965-.927.39.673.853.277 1.391-.348l-.008.082a.408.408 0 1 0 .814 0 .408.408 0 0 0-.407-.41l-.148.03c.577-.69 1.233-1.486 1.973-1.486.777 0 4.959-1.422 7.862-3.056.284-.16.56-.326.826-.498a.42.42 0 0 0 .342.178.425.425 0 0 0 .36-.653c.999-.709 1.92-1.5 2.956-2.364a.489.489 0 0 0-.058.227c0 .246.168.445.373.445.203 0 .368-.199.368-.445 0-.245-.165-.443-.368-.443l-.07.008c1.09-.908 2.312-1.896 3.879-2.957 3.931-2.665 5.794-1.676 7.345-3.731 1.136-1.504 2.015-1.416 3.423-1.79.001.263.166.476.371.476.206 0 .372-.215.372-.48l-.04-.213c.334-.12.699-.273 1.096-.48l.055-.026c.037.138.168.24.323.24a.329.329 0 0 0 .339-.32l-.08-.204c1.377-.641 3.151-1.308 4.408-2.074.022.102.133.18.275.18.157 0 .284-.094.284-.212 0-.094-.084-.172-.198-.2.984-.678 1.514-1.437 1-2.326"/>
        <path fill="#FFF" d="M159.669 48.624c-.081 0-.145.049-.145.11 0 .06.064.11.145.11.08 0 .144-.05.144-.11 0-.061-.064-.11-.144-.11M162.766 46.694a.181.181 0 1 0 .001.362.181.181 0 0 0-.001-.362M152.853 52.95a.12.12 0 0 0 0 .241.12.12 0 1 0 0-.24M150.066 54.62a.621.621 0 0 0-.62.62c0 .34.278.619.62.619a.62.62 0 0 0 0-1.24M147.277 55.405a.145.145 0 1 0 0 0M144.8 56.62a.169.169 0 1 0-.002.337.169.169 0 0 0 .002-.338M141.082 58.97a.296.296 0 1 0 0 .593.296.296 0 0 0 0-.593M142.32 58.466c-.101 0-.18.08-.18.18 0 .1.079.181.18.181.1 0 .181-.08.181-.18a.18.18 0 0 0-.181-.18M146.658 56.62a.169.169 0 1 0 0 .337.169.169 0 0 0 0-.338M157.81 50.959a.254.254 0 0 0 0 .506c.14 0 .252-.113.252-.253a.252.252 0 0 0-.252-.253M164.625 46.61a.264.264 0 0 0-.264.266c0 .146.117.264.264.264a.265.265 0 0 0 0-.53"/>
        <path fill="#FFB537" d="M134.835 50.283a4.589 4.589 0 0 1-3.975-2.28 4.566 4.566 0 0 1 1.666-6.253l36.669-21.208a4.596 4.596 0 0 1 6.272 1.662 4.567 4.567 0 0 1-1.667 6.253l-36.666 21.208a4.58 4.58 0 0 1-2.299.618"/>
        <path fill="#EC8713" d="M135.025 50.283a4.557 4.557 0 0 1-3.957-2.298c-1.267-2.202 3.542 1.75 5.723.472L174.4 26.798c2.183-1.276.584-6.057 1.07-4.81 1.265 2.203.523 5.025-1.66 6.302l-36.497 21.37a4.515 4.515 0 0 1-2.288.623"/>
        <path fill="#FFF" d="M159.277 32.624c0-.109-.101-.198-.228-.198s-.228.09-.228.198c0 .111.101.2.228.2s.228-.089.228-.2M160.287 31.8c-.105 0-.192.092-.192.205 0 .113.087.205.192.205.108 0 .194-.092.194-.205a.199.199 0 0 0-.194-.204M162.147 31.945c-.14 0-.253.027-.253.06 0 .034.113.06.253.06s.253-.026.253-.06c0-.033-.114-.06-.253-.06M164.005 30.646a.12.12 0 1 0 0 .24c.066 0 .12-.053.12-.12a.12.12 0 0 0-.12-.12M165.245 29.942c-.107 0-.192.091-.192.204 0 .113.085.206.192.206.106 0 .192-.093.192-.206 0-.113-.086-.204-.192-.204M167.103 28.715c-.16 0-.29.086-.29.192 0 .107.13.193.29.193.16 0 .29-.086.29-.193 0-.106-.13-.192-.29-.192M171.44 26.31c-.095 0-.172.053-.172.12 0 .066.077.12.172.12.095 0 .173-.054.173-.12 0-.067-.078-.12-.173-.12M173.92 25.75l-.098.06.097.06.096-.06-.096-.06M172.68 26.31a.12.12 0 1 0-.001.24.12.12 0 0 0 0-.24M155.33 35.542c-.124 0-.227.081-.227.181 0 .1.103.18.228.18.127 0 .23-.08.23-.18 0-.1-.103-.18-.23-.18"/>
        <path fill="#FFF" d="M175.887 22.208a4.56 4.56 0 0 0-6.244-1.665l-36.508 21.245a4.589 4.589 0 0 0-2.27 4.198c2.494 1.913 5.586-1.581 5.964-.929.39.674.852.277 1.39-.347l-.008.081a.408.408 0 1 0 .408-.408l-.145.028c.571-.691 1.228-1.485 1.97-1.485.776 0 4.957-1.422 7.862-3.056.285-.16.557-.326.825-.497a.424.424 0 0 0 .703-.477c.998-.708 1.922-1.498 2.953-2.363a.511.511 0 0 0-.055.228c0 .246.166.444.372.444.204 0 .37-.198.37-.444 0-.245-.166-.444-.37-.444l-.068.008c1.089-.908 2.31-1.896 3.877-2.957 3.933-2.665 5.793-1.676 7.347-3.731 1.136-1.504 2.011-1.415 3.423-1.79 0 .263.166.475.37.475.206 0 .37-.214.37-.479l-.037-.213a8.732 8.732 0 0 0 1.096-.479l.054-.027a.33.33 0 0 0 .324.24.329.329 0 0 0 .336-.32l-.079-.204c1.38-.641 3.151-1.307 4.409-2.074.022.102.134.181.275.181.157 0 .284-.096.284-.214 0-.094-.084-.171-.197-.199.984-.68 1.513-1.438 1-2.326"/>
        <path fill="#FFF" d="M154.094 36.232c-.08 0-.146.05-.146.11 0 .061.066.11.146.11.078 0 .143-.049.143-.11 0-.06-.065-.11-.143-.11M156.571 34.303a.18.18 0 1 0 .18.18c0-.1-.08-.18-.18-.18M147.277 40.559a.12.12 0 1 0 0 0M144.488 42.228a.62.62 0 1 0 .003 1.24.62.62 0 0 0-.003-1.24M141.702 43.013a.144.144 0 1 0-.002.289.144.144 0 0 0 .002-.289M139.222 44.228a.169.169 0 1 0 .001.337.169.169 0 0 0-.001-.337M135.504 46.58a.295.295 0 1 0 .001.59.295.295 0 0 0 0-.59M136.745 46.075a.18.18 0 1 0 0 .361c.1 0 .18-.08.18-.18 0-.1-.08-.181-.18-.181M141.082 44.228a.168.168 0 1 0 .169.169.169.169 0 0 0-.17-.17M152.233 38.568a.252.252 0 0 0-.251.253c0 .14.111.253.251.253a.253.253 0 1 0 0-.506M159.05 34.219a.265.265 0 1 0-.001.53.265.265 0 0 0 .001-.53"/>
        <path fill="#FFB537" d="M141.03 55.24a4.594 4.594 0 0 1-3.976-2.281 4.569 4.569 0 0 1 1.669-6.254L175.389 25.5a4.598 4.598 0 0 1 6.273 1.662 4.568 4.568 0 0 1-1.666 6.253l-36.668 21.208a4.594 4.594 0 0 1-2.298.617"/>
        <path fill="#EC8713" d="M141.22 55.24a4.562 4.562 0 0 1-3.957-2.299c-1.264-2.202 3.542 1.751 5.724.474l37.609-21.66c2.182-1.277.583-6.057 1.07-4.81 1.265 2.202.523 5.023-1.66 6.301l-36.498 21.372a4.53 4.53 0 0 1-2.288.621"/>
        <path fill="#FFF" d="M165.473 37.582c0-.11-.102-.2-.229-.2-.126 0-.228.09-.228.2 0 .11.102.199.228.199.127 0 .23-.09.23-.2M166.484 36.757c-.107 0-.192.093-.192.205 0 .114.085.205.192.205s.192-.091.192-.205c0-.112-.085-.205-.192-.205M168.342 36.902c-.14 0-.252.027-.252.06s.112.06.252.06.253-.027.253-.06-.113-.06-.253-.06M169.583 35.602a.12.12 0 1 0 0 .241.12.12 0 0 0 0-.24M171.44 34.279c-.106 0-.192.092-.192.205 0 .113.086.204.192.204.106 0 .193-.09.193-.204 0-.113-.087-.205-.193-.205M173.299 33.672c-.16 0-.29.086-.29.192 0 .106.13.193.29.193.159 0 .289-.087.289-.193 0-.106-.13-.192-.29-.192M177.636 31.266c-.096 0-.173.054-.173.12 0 .067.077.12.173.12.095 0 .172-.053.172-.12 0-.066-.077-.12-.172-.12M180.116 30.706l-.098.06.098.06.094-.06-.094-.06M178.875 31.266a.12.12 0 1 0 0 .24.12.12 0 0 0 0-.24M161.527 40.499c-.126 0-.229.08-.229.18 0 .1.103.181.23.181.125 0 .228-.08.228-.181 0-.1-.103-.18-.229-.18"/>
        <path fill="#FFF" d="M181.464 27.165a4.562 4.562 0 0 0-6.246-1.665l-36.504 21.244a4.589 4.589 0 0 0-2.274 4.198c2.496 1.914 5.59-1.581 5.965-.929.39.675.853.278 1.391-.346l-.01.08a.408.408 0 1 0 .41-.409l-.148.03c.575-.69 1.23-1.486 1.972-1.486.778 0 4.958-1.42 7.862-3.055.286-.161.558-.327.824-.498a.426.426 0 0 0 .77-.249.436.436 0 0 0-.065-.227c.998-.708 1.92-1.498 2.953-2.364a.506.506 0 0 0-.054.229c0 .245.166.443.37.443s.37-.198.37-.443-.166-.444-.37-.444l-.068.007c1.09-.908 2.311-1.895 3.878-2.957 3.932-2.665 5.794-1.675 7.345-3.73 1.136-1.505 2.012-1.417 3.422-1.79.002.263.167.475.372.475.206 0 .373-.215.373-.48l-.041-.213a8.74 8.74 0 0 0 1.097-.479l.052-.027c.038.138.171.24.325.24a.328.328 0 0 0 .336-.32l-.078-.204c1.379-.64 3.153-1.306 4.409-2.074.02.103.134.182.274.182.156 0 .284-.096.284-.213 0-.095-.085-.173-.198-.2.985-.678 1.515-1.438 1.002-2.326"/>
        <path fill="#FFF" d="M160.288 41.189c-.08 0-.144.05-.144.11s.064.11.144.11c.08 0 .144-.05.144-.11s-.064-.11-.144-.11M162.766 39.26a.18.18 0 0 0 0 .361.18.18 0 0 0 .18-.18c0-.101-.08-.182-.18-.182M153.473 45.515a.12.12 0 0 0 0 .241.12.12 0 0 0 .12-.12.12.12 0 0 0-.12-.12M150.686 47.185a.62.62 0 1 0-.003 1.238.62.62 0 0 0 .003-1.238M147.896 47.97a.145.145 0 0 0 0 .29c.08-.001.145-.067.145-.146a.145.145 0 0 0-.145-.145M145.418 49.184a.17.17 0 0 0 0 .338.169.169 0 1 0 0-.338M141.083 51.536a.297.297 0 0 0 0 .592.295.295 0 0 0 0-.592M142.94 51.031a.18.18 0 1 0 0 .362.18.18 0 0 0 0-.362M147.277 49.184a.169.169 0 1 0 0 .338.169.169 0 0 0 0-.338M157.81 43.525a.252.252 0 1 0 .252.252.252.252 0 0 0-.252-.252M165.244 39.175a.266.266 0 1 0 .266.266.267.267 0 0 0-.266-.266"/>
        <path fill="#EC8713" d="M176.397 59.576c-1.824 0-3.647-.393-5.038-1.18-2.783-1.572-2.783-4.122 0-5.695 1.391-.786 3.214-1.18 5.038-1.18 1.824 0 3.646.394 5.038 1.18 2.782 1.573 2.782 4.123 0 5.696-1.392.786-3.214 1.18-5.038 1.18"/>
        <path fill="#FFC900" d="M186 48.424c0 5.132-4.162 9.293-9.295 9.293-5.131 0-9.292-4.161-9.292-9.293H186"/>
        <path fill="#E0D7B4" d="M183.277 52.457c-3.627 2.057-9.515 2.057-13.143 0-3.628-2.054-3.628-5.391 0-7.449 3.628-2.054 9.516-2.054 13.143 0 3.63 2.058 3.63 5.395 0 7.45"/>
        <path fill="#BDB497" d="M184.627 49.043c-.294-.916-1.067-1.792-2.318-2.5-3.267-1.843-8.562-1.843-11.827 0-1.252.706-2.023 1.583-2.314 2.497-.474-1.474.299-3.052 2.314-4.189 3.265-1.845 8.56-1.845 11.827 0 2.016 1.14 2.79 2.716 2.318 4.192"/>
        <path fill="#603913" d="M184.76 49.356a3.631 3.631 0 0 1-.648 1.182c-.41.508-.977.986-1.704 1.406-3.324 1.915-8.704 1.915-12.023 0-.727-.42-1.294-.898-1.703-1.406a3.572 3.572 0 0 1-.65-1.186c.297-.948 1.08-1.859 2.353-2.59 3.319-1.914 8.7-1.914 12.02 0 1.271.733 2.057 1.643 2.356 2.594"/>
        <path fill="#754C29" d="M180.904 48.212a.378.378 0 0 1-.34 0c-.094-.054-.094-.142 0-.196a.374.374 0 0 1 .34 0c.093.054.093.142 0 .196M178.384 47.027a1.57 1.57 0 0 1-.875 0c-.244-.084-.244-.22 0-.304.241-.084.633-.084.875 0s.242.22 0 .304M179.622 49.505a1.56 1.56 0 0 1-.876 0c-.241-.084-.241-.22 0-.304.242-.083.635-.083.876 0 .243.085.243.22 0 .304M182.772 50.076a.396.396 0 0 1-.36 0c-.099-.057-.099-.149 0-.207a.4.4 0 0 1 .36 0c.1.058.1.15 0 .207M172.188 48.906a1.377 1.377 0 0 1-.876 0c-.242-.095-.242-.25 0-.345.243-.095.634-.095.876 0 .242.096.242.25 0 .345M174.757 51.34a.49.49 0 0 1-.44 0c-.118-.071-.118-.185 0-.255a.487.487 0 0 1 .44 0c.121.07.121.184 0 .254M175.927 48.82a.332.332 0 0 1-.3 0c-.083-.048-.083-.125 0-.173a.328.328 0 0 1 .3 0c.083.048.083.125 0 .174M172.187 50.729c-.24.075-.633.075-.874 0-.243-.076-.243-.198 0-.273.24-.075.633-.075.874 0 .243.075.243.197 0 .273M175.286 47.05a1.38 1.38 0 0 1-.877 0c-.24-.097-.24-.253 0-.35.241-.096.634-.096.877 0 .242.097.242.253 0 .35M178.912 51.96c-.362.242-.951.242-1.314 0-.362-.242-.362-.634 0-.876.363-.242.952-.242 1.314 0 .364.242.364.634 0 .875M183.34 48.28c-.24.09-.635.09-.876 0-.242-.092-.242-.24 0-.33.241-.093.635-.093.876 0 .242.09.242.238 0 .33"/>
        <path fill="#DAD6C4" d="M35.961 35.233a.697.697 0 0 1-.35-1.301l6.441-3.717a.701.701 0 0 1 .952.256.7.7 0 0 1-.255.954l-6.44 3.717-.348.091zm-12.875 7.435a.7.7 0 0 1-.606-.348.699.699 0 0 1 .257-.953l6.438-3.718a.703.703 0 0 1 .952.257.7.7 0 0 1-.255.953l-6.438 3.718-.348.09zm-12.879 7.435a.7.7 0 0 1-.604-.348.7.7 0 0 1 .255-.953l6.438-3.718a.701.701 0 0 1 .952.257c.193.334.08.76-.255.953l-6.438 3.718-.348.09zM-2.67 57.537a.698.698 0 0 1-.35-1.301l6.44-3.717a.698.698 0 0 1 .697 1.21l-6.44 3.717-.347.091zm-12.877 7.435a.698.698 0 0 1-.35-1.301l6.44-3.717a.698.698 0 0 1 .697 1.21l-6.44 3.717-.347.091zm-12.877 7.435a.698.698 0 0 1-.35-1.301l6.439-3.717a.701.701 0 0 1 .952.256.7.7 0 0 1-.255.954l-6.438 3.717-.348.091zm-12.877 7.435a.7.7 0 0 1-.606-.348.699.699 0 0 1 .256-.953l6.437-3.718a.703.703 0 0 1 .954.257.699.699 0 0 1-.257.953l-6.437 3.718-.347.09z"/>
    </g>
</svg>
