<svg xmlns="http://www.w3.org/2000/svg" width="142" height="115" viewBox="0 0 142 115">
    <g fill="none" fill-rule="evenodd">
        <path fill="#DAD6C4" d="M110.066 71.479a.608.608 0 0 1-.53-.311.624.624 0 0 1 .225-.847l5.637-3.308c.29-.17.664-.07.835.226a.626.626 0 0 1-.224.849l-5.637 3.308-.306.083zm-10.673 6.064a.609.609 0 0 1-.529-.31.626.626 0 0 1 .225-.847l5.639-3.308a.607.607 0 0 1 .833.227.627.627 0 0 1-.223.848L99.7 77.461l-.306.082zm-11.432 6.065a.613.613 0 0 1-.53-.31.626.626 0 0 1 .224-.848l5.638-3.308a.608.608 0 0 1 .835.227.627.627 0 0 1-.225.849l-5.638 3.308-.304.082zm-10.673 6.065a.609.609 0 0 1-.529-.31.625.625 0 0 1 .223-.848l5.639-3.307a.61.61 0 0 1 .835.226.627.627 0 0 1-.225.849l-5.638 3.307-.305.083z"/>
        <path fill="#CF7C00" d="M70.829 35.74v2.436l1.82 1.462.779-.496v-2.44l-2.6-.963"/>
        <path fill="#F5B400" d="M71.608 35.09l-.78.49 1.82 1.459.78-.498-1.82-1.452"/>
        <path fill="#CF7C00" d="M72.778 37.039v2.846l2.275 1.703.974-.575v-2.848l-3.249-1.126"/>
        <path fill="#F5B400" d="M73.754 37.039l-.976.492 2.275 1.457.974-.492-2.273-1.457"/>
        <path fill="#CF7C00" d="M76.027 38.988v2.439l1.82 1.46.78-.495v-2.437l-2.6-.967"/>
        <path fill="#F5B400" d="M76.804 38.339l-.777.657 1.82 1.942.78-.654-1.823-1.945"/>
        <path fill="#CF7C00" d="M77.977 40.938v2.444l2.274 1.455.975-.49v-2.44l-3.25-.97"/>
        <path fill="#F5B400" d="M78.952 40.288l-.975.327 2.274.973.975-.328-2.274-.972"/>
        <path fill="#CF7C00" d="M81.226 42.237v2.849l2.275 1.7.974-.578V43.36l-3.25-1.123"/>
        <path fill="#F5B400" d="M82.201 41.588l-.975.655 2.275 1.944.974-.662-2.274-1.937"/>
        <path fill="#CF7C00" d="M83.825 44.187v2.444l1.82 1.455.78-.494v-2.436l-2.6-.97"/>
        <path fill="#F5B400" d="M84.605 43.537l-.78.653 1.82 1.946.78-.656-1.82-1.943"/>
        <path fill="#754C29" d="M0 27.548v-9.881h7.28c1.983-1.36 3.598-2.148 3.598-2.148S28.672 2.846 46.05 13.107c1.8 1.062 3.225 2.27 4.336 3.567h3.542v9.752c.145 6.668-3.123 12.663-3.123 12.663s-29.693 5.65-44.017-2.805C1.745 33.303-.027 30.305 0 27.548"/>
        <path fill="#FFA34D" d="M50.804 29.992s-29.69 5.65-44.014-2.804c-17.38-10.261 4.088-20.766 4.088-20.766S28.672-6.253 46.05 4.01c14.322 8.455 4.754 25.982 4.754 25.982"/>
        <path fill="#CF7C00" d="M44.297 16.755c-4.187-2.413-10.977-2.413-15.164 0-4.187 2.407-4.187 6.318-.002 8.727 4.189 2.413 10.979 2.413 15.166 0 4.185-2.41 4.185-6.32 0-8.727"/>
        <path fill="#754C29" d="M28.63 22.093c.17-1.064.949-2.093 2.34-2.905 3.173-1.85 8.316-1.85 11.487 0 1.39.812 2.172 1.84 2.344 2.905.219-1.36-.56-2.766-2.344-3.808-3.171-1.853-8.314-1.853-11.487 0-1.785 1.042-2.567 2.447-2.34 3.808"/>
        <path fill="#000" d="M28.591 21.769c.171 1.044.954 2.057 2.352 2.856 3.187 1.823 8.354 1.823 11.54 0 1.396-.799 2.182-1.812 2.354-2.856-.172-1.048-.958-2.06-2.355-2.86-3.185-1.82-8.352-1.82-11.539 0-1.398.8-2.181 1.812-2.352 2.86"/>
        <path fill="#3C2415" d="M37.039 25.936s7.84-.723 7.867-1.893L63.68 35.686l-6.751 3.952-13.146-7.266.039-1.817-6.784-3.73v-.889"/>
        <path fill="#603913" d="M64.66 36.748l3.382-1.009 20.332 11.664v2.635l-.633.354v1.093c.016.476-.38 1.018-1.147 1.448-1.26.71-3.037.86-3.965.339l-1.182.662L58.652 42.46l-.82-1.87v-2.633l6.828-1.21"/>
        <path fill="#754C29" d="M68.392 35.934l15.793 9.671c.43.263.375.7-.126.973-.502.273-1.26.278-1.696.01l-15.791-9.664c-.433-.269-.378-.707.123-.98.504-.269 1.262-.273 1.697-.01zM80.89 48.176c.455.25.446.686-.018.972-.463.288-1.208.316-1.664.071l-16.49-9.025c-.456-.25-.448-.68.02-.968.464-.287 1.204-.319 1.66-.07l16.492 9.02zM67.983 34.26l-3.323-.47-3.412 1.961-3.415 1.961.819 1.907 22.795 11.716 1.182-.68c.928.532 2.705.377 3.965-.345 1.26-.723 1.525-1.745.596-2.277l1.184-.678-20.39-13.095z"/>
        <path fill="#3C2415" d="M63.85 33.14l1.13.602-7.315 3.884v2.662l-1.132-.6v-2.662l7.317-3.886"/>
        <path fill="#603913" d="M42.571 24.683c1.53-.893 2.308-2.066 2.335-3.24L63.68 33.088l-6.751 3.952-19.891-10.991c2.007-.017 4.002-.47 5.532-1.365"/>
        <path fill="#A7A9AC" d="M59.782 31.19l-7.148 2.841v.237l.384.172 6.764-3.018v-.231"/>
        <path fill="#D1D3D4" d="M59.398 30.54l-6.764 3.685.384.215 6.764-3.69-.384-.21"/>
        <path fill="#414042" d="M11.047 19.755l.678.389L32.911 7.928l3.452 1.999.676-.39-4.128-2.39-21.864 12.608"/>
        <path fill="#000" d="M12.346 19.994l3.465 2.1L37.039 9.25l-3.46-2.102-21.233 12.846"/>
        <path fill="#A7A9AC" d="M27.292 12.346l-9.097 3.227v.666l1.315.656 7.782-3.882v-.667"/>
        <path fill="#D1D3D4" d="M25.98 11.696l-7.785 4.45 1.315.749 7.782-4.448-1.313-.75"/>
        <path fill="#A7A9AC" d="M7.8 9.941h-.002V8.55l9.097-4.001V5.93c.001.204-.184.442-.54.639l-6.56 3.536c-.573.307-1.37.384-1.77.167-.159-.083-.227-.202-.224-.332"/>
        <path fill="#D1D3D4" d="M16.669 4.028c-.406-.227-1.2-.148-1.77.18L8.336 7.952c-.572.333-.711.785-.31 1.017.4.225 1.196.145 1.77-.182l6.56-3.747c.567-.325.71-.78.312-1.013"/>
        <path fill="#CF7C00" d="M60.432 43.708v-2.12l3.249.643v2.12l-.822.486-2.427-1.13"/>
        <path fill="#F5B400" d="M60.432 41.327l.82-.39 2.429.91-.822.39-2.427-.91"/>
        <path fill="#CF7C00" d="M63.68 45.434v-2.547l2.6.773v2.548l-.658.578-1.941-1.352"/>
        <path fill="#F5B400" d="M63.68 42.822l.657-.585 1.943 1.365-.658.585-1.941-1.365"/>
        <path fill="#CF7C00" d="M66.28 46.956v-2.12l3.899.644v2.123l-.985.483-2.914-1.13"/>
        <path fill="#F5B400" d="M66.28 44.775l.987-.588 2.912 1.366-.985.583-2.914-1.361"/>
        <path fill="#CF7C00" d="M69.53 48.681v-2.545l3.248.77v2.55l-.822.579-2.427-1.354"/>
        <path fill="#F5B400" d="M69.53 45.876l.82-.39 2.428.908-.822.392-2.427-.91"/>
        <path fill="#CF7C00" d="M72.128 49.98v-2.544l3.9.771v2.547l-.986.58-2.914-1.353"/>
        <path fill="#F5B400" d="M72.128 47.373l.988-.587 2.911 1.364-.985.585-2.914-1.362"/>
        <path fill="#CF7C00" d="M75.377 51.283v-2.548l3.25.773v2.549l-.824.577-2.426-1.351"/>
        <path fill="#F5B400" d="M75.377 49.32l.824-.585 2.425 1.363-.823.587-2.426-1.366"/>
        <path fill="#A7A9AC" d="M61.082 31.84l-5.849 3.41v.282l.314.207 5.535-3.62v-.279"/>
        <path fill="#D1D3D4" d="M60.768 31.84l-5.535 3.688.314.211 5.535-3.69-.314-.209"/>
        <path fill="#A7A9AC" d="M55.883 28.591l-6.498 3.418v.276l.347.205 6.151-3.617v-.282"/>
        <path fill="#D1D3D4" d="M55.533 27.942l-6.148 3.693.347.205 6.151-3.688-.35-.21"/>
        <path fill="#A7A9AC" d="M57.183 29.891l-5.848 3.41v.283l.314.206 5.534-3.62v-.279"/>
        <path fill="#D1D3D4" d="M56.87 29.241l-5.535 3.688.314.211 5.534-3.689-.313-.21"/>
        <path fill="#A7A9AC" d="M51.335 26.642l-5.849 3.414v.28l.314.205 5.535-3.618v-.281"/>
        <path fill="#D1D3D4" d="M51.02 25.992l-5.534 3.69.314.21 5.535-3.688-.315-.212"/>
        <path fill="#A7A9AC" d="M53.934 27.292l-7.148 3.983v.323l.384.242 6.764-4.221v-.327"/>
        <path fill="#D1D3D4" d="M53.549 26.642l-6.763 4.307.384.242 6.764-4.304-.385-.245"/>
        <path fill="#A7A9AC" d="M48.086 24.043l-6.498 3.41v.283l.348.206 6.15-3.62v-.28"/>
        <path fill="#D1D3D4" d="M47.737 24.043l-6.15 3.071.35.178 6.149-3.075-.35-.174"/>
        <path fill="#A7A9AC" d="M46.136 22.743l-6.498 3.982v.328l.349.239 6.15-4.22v-.329"/>
        <path fill="#D1D3D4" d="M45.786 22.743l-6.148 3.687.349.212 6.15-3.692-.35-.207"/>
        <path fill="#A7A9AC" d="M50.035 25.342l-6.498 3.413v.281l.351.205 6.147-3.62v-.279"/>
        <path fill="#D1D3D4" d="M49.686 25.342l-6.149 3.073.351.176 6.147-3.074-.349-.175"/>
        <path fill="#FFF" d="M59.034 37.039l.098-.056-.043-.153L9.9 9.097l-.153.04.043.154 49.19 27.73.054.018M64.236 34.44l.095-.054-.037-.153-47.9-28.385-.149.042.039.15L64.18 34.424l.055.016M62.936 34.44l.095-.056-.04-.149L15.096 6.498l-.15.041.04.147 47.896 27.737.054.017M60.983 35.74l.099-.053-.043-.156L13.143 7.148l-.147.042.04.154 47.893 28.382.054.013M62.287 35.09l.094-.052-.04-.149L13.795 7.148l-.15.042.041.15L62.23 35.078l.058.011M59.687 37.039l.095-.058-.04-.151L11.197 8.447l-.15.043.04.15 48.54 28.38.06.019M60.987 36.39l.095-.058-.04-.152-48.54-28.382-.156.037.04.155 48.546 28.387.055.012"/>
        <path fill="#DAD6C4" d="M65.23 96.821a.608.608 0 0 1-.53-.31.624.624 0 0 1 .225-.848l5.637-3.308c.29-.17.664-.07.834.227a.626.626 0 0 1-.224.848l-5.637 3.308-.306.083zm-10.673 6.065a.609.609 0 0 1-.53-.311.626.626 0 0 1 .225-.847l5.64-3.308a.607.607 0 0 1 .833.227.627.627 0 0 1-.223.848l-5.64 3.308-.305.083zm-11.433 6.065a.613.613 0 0 1-.53-.311.626.626 0 0 1 .224-.847l5.639-3.308a.608.608 0 0 1 .834.226.627.627 0 0 1-.224.849l-5.639 3.308-.304.083zm-10.672 6.065a.609.609 0 0 1-.53-.311.625.625 0 0 1 .224-.847l5.638-3.308a.61.61 0 0 1 .836.227.627.627 0 0 1-.225.848l-5.639 3.308-.304.083z"/>
        <path fill="#000" fill-opacity=".147" d="M33.573 61.114l-.307-.083L27.6 57.7a.631.631 0 0 1-.226-.855c.172-.3.55-.4.84-.228l5.665 3.331a.63.63 0 0 1 .226.853.612.612 0 0 1-.532.313zm10.728 6.108l-.308-.083-5.668-3.331a.632.632 0 0 1-.224-.855c.17-.3.55-.4.838-.228l5.668 3.331a.63.63 0 0 1 .225.853.612.612 0 0 1-.531.313zm11.49 6.872l-.305-.083-5.667-3.332a.63.63 0 0 1-.226-.853.608.608 0 0 1 .84-.228l5.666 3.332a.63.63 0 0 1 .226.853.618.618 0 0 1-.533.311zm11.494 6.108l-.306-.083-5.667-3.333a.63.63 0 0 1-.226-.853.61.61 0 0 1 .84-.228l5.667 3.332a.63.63 0 0 1 .224.854.613.613 0 0 1-.532.311zm10.727 6.872l-.307-.083-5.666-3.333a.63.63 0 0 1-.226-.853.609.609 0 0 1 .84-.228l5.665 3.332a.63.63 0 0 1 .226.853.613.613 0 0 1-.532.312zM121.947 72.16l-.308-.082-5.665-3.332a.631.631 0 0 1-.226-.854c.172-.3.55-.4.84-.229l5.665 3.332a.63.63 0 0 1 .226.853.612.612 0 0 1-.532.313zm10.727 6.11l-.307-.084-5.668-3.332a.632.632 0 0 1-.224-.854c.17-.3.55-.4.837-.228l5.668 3.331a.63.63 0 0 1 .226.853.612.612 0 0 1-.532.313zm11.491 6.87l-.306-.083-5.667-3.331a.63.63 0 0 1-.225-.853.608.608 0 0 1 .839-.229l5.667 3.332a.63.63 0 0 1 .226.853.618.618 0 0 1-.534.312zm11.494 6.109l-.306-.083-5.668-3.333a.63.63 0 0 1-.226-.853.61.61 0 0 1 .84-.228l5.668 3.332a.63.63 0 0 1 .224.853.613.613 0 0 1-.532.312zm10.727 6.872l-.308-.084-5.665-3.332a.63.63 0 0 1-.226-.853.609.609 0 0 1 .839-.228l5.666 3.332a.63.63 0 0 1 .225.853.613.613 0 0 1-.531.312z"/>
    </g>
</svg>
