<svg xmlns="http://www.w3.org/2000/svg" xmlns:xlink="http://www.w3.org/1999/xlink" width="368" height="134" viewBox="0 0 368 134">
    <defs>
        <path id="a" d="M32.035 56.215L.295 38.091 65.842.627l31.742 18.125z"/>
    </defs>
    <g fill="none" fill-rule="evenodd">
        <path fill="#DAD6C4" d="M68.513 8.843l-.561-.15-10.392-6a1.123 1.123 0 0 1-.411-1.536 1.134 1.134 0 0 1 1.536-.414l10.392 6c.54.312.723.999.414 1.539a1.13 1.13 0 0 1-.978.56zm20.787 12l-.561-.15-10.395-6a1.123 1.123 0 0 1-.411-1.536 1.134 1.134 0 0 1 1.536-.414l10.395 6c.537.312.72.999.411 1.539-.21.36-.588.56-.975.56zm20.784 12l-.561-.15-10.395-6a1.125 1.125 0 0 1 1.125-1.95l10.395 6a1.127 1.127 0 0 1-.564 2.1zm20.784 12l-.561-.15-10.392-6a1.126 1.126 0 0 1-.414-1.536 1.137 1.137 0 0 1 1.539-.414l10.392 6a1.127 1.127 0 0 1-.564 2.1zM152.16 58.509l-.561-.15-10.392-6a1.123 1.123 0 0 1-.411-1.536 1.13 1.13 0 0 1 1.536-.414l10.392 6a1.126 1.126 0 0 1-.564 2.1zm20.787 12l-.564-.15-10.392-6a1.123 1.123 0 0 1-.411-1.536 1.132 1.132 0 0 1 1.536-.414l10.392 6c.54.309.723.999.414 1.539-.21.36-.588.56-.975.56zm20.784 12l-.561-.15-10.395-6a1.126 1.126 0 0 1 1.125-1.95l10.395 6a1.125 1.125 0 1 1-.564 2.1z"/>
        <path fill="#DAD6C4" d="M50.694 6.268a1.127 1.127 0 0 1-.564-2.1l5.235-3.021a1.132 1.132 0 0 1 1.536.414 1.13 1.13 0 0 1-.41 1.539l-5.236 3.02-.56.148zM29.91 18.27a1.127 1.127 0 0 1-.564-2.1l10.392-6c.54-.3 1.227-.126 1.536.414.312.54.126 1.227-.41 1.536l-10.393 6-.56.15zm-20.784 12a1.127 1.127 0 0 1-.564-2.1l10.392-6a1.132 1.132 0 0 1 1.536.414c.312.54.126 1.227-.41 1.536l-10.393 6-.56.15zM243.297 63.123a1.13 1.13 0 0 1-.978-.561 1.127 1.127 0 0 1 .414-1.54l10.389-6a1.124 1.124 0 1 1 1.125 1.95l-10.389 6-.561.15zm-20.787 12a1.125 1.125 0 0 1-.564-2.1l10.392-6a1.129 1.129 0 0 1 1.536.414 1.123 1.123 0 0 1-.411 1.536l-10.392 6-.561.15zm-20.784 12a1.126 1.126 0 0 1-.564-2.1l10.392-6a1.129 1.129 0 0 1 1.536.414 1.123 1.123 0 0 1-.411 1.536l-10.392 6-.561.15z"/>
        <path fill="#FFC900" d="M275.323 49.815c-2.649 0-5.16-.606-7.065-1.704-2.1-1.212-3.258-2.895-3.258-4.73 0-1.84 1.158-3.52 3.258-4.732 3.81-2.199 10.32-2.199 14.133 0 2.1 1.212 3.255 2.892 3.255 4.731 0 1.836-1.155 3.52-3.255 4.731-1.905 1.098-4.416 1.704-7.068 1.704z"/>
        <g transform="translate(267 55)">
            <mask id="b" fill="#fff">
                <use xlink:href="#a"/>
            </mask>
            <path fill="#952828" d="M.294 56.215h97.29V.627H.295z" mask="url(#b)"/>
        </g>
        <path fill="#FA5932" d="M300.347 108c-23.054-6.157-32.103-20.18-32.347-20.478L331.656 51s5.772 6.847 15.714 12.553c9.982 5.73 15.657 5.484 15.714 5.48l.916 2.443c-.249.015-63.653 36.524-63.653 36.524"/>
        <path fill="#CD310C" d="M283.501 102.112c-10.388-6.16-16.258-13.38-16.501-13.684l.91-1.426-.456.712.452-.714c.058.069 5.733 7.023 15.595 12.87 9.906 5.875 15.535 5.624 15.592 5.62l.907 2.505c-.245.014-6.114.275-16.499-5.883"/>
        <path fill="#FFB537" d="M280.415 94a7.41 7.41 0 0 1-6.413-3.68c-2.055-3.53-.85-8.048 2.694-10.095l59.18-34.228c3.539-2.045 8.073-.843 10.12 2.682a7.367 7.367 0 0 1-2.687 10.093l-59.181 34.23a7.417 7.417 0 0 1-3.713.998"/>
        <path fill="#EC8713" d="M280.722 94a7.36 7.36 0 0 1-6.384-3.709c-2.045-3.556 5.716 2.824 9.24.762l60.7-34.955c3.521-2.063.942-9.779 1.723-7.766 2.047 3.556.848 8.109-2.675 10.17l-58.91 34.492A7.314 7.314 0 0 1 280.723 94"/>
        <path fill="#FFF" d="M318.87 66.5c0-.177-.165-.321-.37-.321-.202 0-.37.143-.37.321 0 .178.168.322.37.322.206 0 .37-.145.37-.322M321.5 65.17c-.171 0-.311.147-.311.331 0 .182.14.329.311.329a.32.32 0 0 0 .311-.329c0-.184-.138-.331-.311-.331M323.5 64.403c-.225 0-.408.043-.408.096 0 .055.183.098.408.098.225 0 .408-.043.408-.098 0-.053-.183-.096-.408-.096M326.5 63.305a.195.195 0 0 0-.195.194.194.194 0 1 0 .195-.194M329.499 61.17c-.169 0-.31.147-.31.331 0 .182.141.329.31.329a.32.32 0 0 0 .312-.329.32.32 0 0 0-.312-.331M331.501 60.189c-.258 0-.468.138-.468.311 0 .171.21.311.468.311s.465-.14.465-.311c0-.173-.207-.311-.465-.311M338.502 55.305c-.156 0-.282.087-.282.195 0 .107.126.194.282.194.151 0 .277-.087.277-.194 0-.108-.126-.195-.277-.195M342.501 55.403l-.157.097.157.097.154-.097-.154-.097M341.501 55.305a.193.193 0 0 0-.195.195c0 .107.085.194.195.194a.193.193 0 0 0 .193-.194.194.194 0 0 0-.193-.195M313.5 71.209c-.203 0-.368.13-.368.29 0 .162.165.293.368.293.204 0 .369-.132.369-.293 0-.16-.165-.29-.37-.29"/>
        <path fill="#FFF" d="M345.676 48.686a7.359 7.359 0 0 0-10.075-2.687l-58.923 34.289a7.402 7.402 0 0 0-3.669 6.776c4.025 3.09 9.017-2.55 9.624-1.499.63 1.09 1.378.449 2.246-.557l-.012.128c0 .366.295.66.658.66a.658.658 0 0 0 .656-.66.658.658 0 0 0-.656-.658l-.238.044c.928-1.114 1.987-2.396 3.177-2.396 1.262 0 8.009-2.293 12.696-4.932.46-.258.905-.528 1.33-.803a.69.69 0 0 0 .556.288.687.687 0 0 0 .58-1.055c1.612-1.143 3.1-2.421 4.765-3.817a.855.855 0 0 0-.084.369c0 .395.268.716.597.716.328 0 .596-.32.596-.716 0-.395-.268-.716-.596-.716l-.108.012c1.757-1.466 3.728-3.06 6.258-4.774 6.348-4.3 9.35-2.703 11.854-6.018 1.834-2.429 3.253-2.287 5.527-2.89.003.423.27.766.6.766.332 0 .598-.346.598-.774l-.065-.344c.541-.193 1.128-.44 1.771-.774l.087-.043c.06.221.27.386.525.386.3 0 .54-.23.54-.516l-.124-.328c2.224-1.035 5.088-2.111 7.115-3.347.032.163.214.292.442.292.252 0 .458-.154.458-.344 0-.153-.135-.277-.318-.323 1.592-1.095 2.443-2.32 1.612-3.755"/>
        <path fill="#FFF" d="M311.5 71.322c-.13 0-.233.08-.233.177 0 .1.103.179.233.179.129 0 .234-.079.234-.179 0-.097-.105-.177-.234-.177M315.5 68.208a.292.292 0 0 0 0 .584.291.291 0 0 0 0-.584M299.498 79.306a.193.193 0 0 0-.193.194.195.195 0 0 0 .389 0 .195.195 0 0 0-.196-.194M295.004 81a1.001 1.001 0 1 0-.005 2.002 1.001 1.001 0 0 0 .005-2.002M291.502 82.267a.235.235 0 0 0-.235.233c0 .129.107.234.235.234a.234.234 0 0 0 0-.467M287.502 84.228a.271.271 0 0 0-.273.272.271.271 0 1 0 .543 0 .271.271 0 0 0-.27-.272M280.502 88.023a.477.477 0 1 0-.002.954.477.477 0 0 0 .002-.954M283.498 88.209a.29.29 0 0 0 0 .582c.161 0 .293-.13.293-.291a.292.292 0 0 0-.293-.291M289.5 84.228a.271.271 0 1 0 0 .543.271.271 0 0 0 0-.543M307.501 75.091a.41.41 0 0 0 0 .817.407.407 0 0 0 .406-.409.407.407 0 0 0-.406-.408M319.5 68.073a.428.428 0 1 0-.001.856.428.428 0 0 0 .001-.856"/>
        <path fill="#FFB537" d="M286.414 100A7.411 7.411 0 0 1 280 96.32a7.375 7.375 0 0 1 2.691-10.094l59.18-34.23c3.541-2.043 8.074-.843 10.126 2.683 2.056 3.529.85 8.047-2.69 10.094l-59.183 34.228a7.407 7.407 0 0 1-3.71.999"/>
        <path fill="#EC8713" d="M286.722 100a7.36 7.36 0 0 1-6.385-3.709c-2.041-3.556 5.717 2.824 9.239.763l60.702-34.957c3.522-2.062.94-9.779 1.723-7.765 2.047 3.556.847 8.11-2.678 10.172l-58.909 34.49a7.303 7.303 0 0 1-3.692 1.006"/>
        <path fill="#FFF" d="M324.868 72.5c0-.178-.163-.322-.367-.322-.205 0-.368.145-.368.322 0 .178.163.322.368.322.204 0 .367-.145.367-.323M327.498 71.17c-.171 0-.309.147-.309.33 0 .183.138.33.309.33a.32.32 0 0 0 .313-.33.32.32 0 0 0-.313-.33M329.501 70.402c-.227 0-.409.044-.409.097 0 .054.182.099.409.099.225 0 .407-.045.407-.099 0-.053-.182-.097-.407-.097M332.501 68.305a.195.195 0 0 0 0 .389.194.194 0 0 0 .193-.194.193.193 0 0 0-.193-.194M335.501 67.17a.321.321 0 0 0-.312.33c0 .182.14.33.312.33.17 0 .31-.148.31-.33 0-.183-.14-.33-.31-.33M337.5 65.189c-.258 0-.466.138-.466.31 0 .173.208.312.466.312.257 0 .467-.139.467-.312 0-.172-.21-.31-.467-.31M344.501 61.305c-.155 0-.278.087-.278.195 0 .107.123.194.278.194.154 0 .276-.087.276-.194 0-.108-.122-.195-.276-.195M348.499 60.404l-.155.096.155.097.157-.096-.157-.097M347.502 61.305a.196.196 0 0 0-.197.195.195.195 0 0 0 .39 0 .195.195 0 0 0-.193-.195M319.498 77.208c-.204 0-.369.132-.369.292 0 .161.165.292.37.292s.372-.131.372-.292c0-.16-.167-.292-.372-.292"/>
        <path fill="#FFF" d="M351.677 54.685A7.367 7.367 0 0 0 341.596 52l-58.92 34.29a7.403 7.403 0 0 0-3.667 6.775c4.024 3.09 9.018-2.551 9.63-1.5.626 1.09 1.372.45 2.24-.558l-.01.13a.654.654 0 1 0 1.311 0 .658.658 0 0 0-.656-.66l-.238.047c.93-1.114 1.987-2.397 3.184-2.397 1.252 0 8.002-2.295 12.69-4.933.46-.258.902-.527 1.332-.804.123.174.325.29.553.29a.687.687 0 0 0 .58-1.056c1.611-1.143 3.103-2.42 4.772-3.818a.815.815 0 0 0-.091.37c0 .397.268.717.597.717.33 0 .599-.32.599-.717 0-.395-.27-.715-.599-.715l-.11.012c1.759-1.466 3.731-3.06 6.261-4.773 6.344-4.301 9.349-2.705 11.855-6.023 1.833-2.427 3.249-2.285 5.524-2.887.002.423.27.767.599.767.33 0 .602-.347.602-.775l-.067-.342c.54-.195 1.127-.443 1.77-.778l.085-.042c.063.222.272.39.525.39.3 0 .544-.233.544-.517l-.13-.33c2.23-1.035 5.09-2.11 7.118-3.347.034.164.216.29.444.29.253 0 .458-.151.458-.342 0-.152-.136-.277-.318-.323 1.587-1.096 2.446-2.32 1.614-3.755"/>
        <path fill="#FFF" d="M317.502 77.322c-.13 0-.235.08-.235.176 0 .1.104.18.235.18.127 0 .23-.08.23-.18 0-.097-.103-.176-.23-.176M321.498 74.208c-.16 0-.29.131-.29.292a.291.291 0 1 0 .29-.292M305.498 85.305a.194.194 0 1 0 .196.195.194.194 0 0 0-.196-.195M301.003 87a1 1 0 1 0-.006 2 1 1 0 0 0 .006-2M297.5 88.267a.233.233 0 1 0 0 .467.233.233 0 0 0 0-.467M293.5 90.228a.273.273 0 0 0-.272.271.273.273 0 0 0 .545 0 .273.273 0 0 0-.273-.271M286.498 94.023a.478.478 0 1 0 .006.955.478.478 0 0 0-.007-.955M289.5 93.21a.29.29 0 0 0-.29.29c0 .161.128.29.29.29a.29.29 0 0 0 .29-.29.29.29 0 0 0-.29-.29M295.502 90.228a.273.273 0 0 0-.273.271c0 .151.123.273.273.273a.27.27 0 0 0 .27-.273.27.27 0 0 0-.27-.271M313.5 81.091a.408.408 0 1 0 .002.816.408.408 0 0 0-.002-.816M324.5 74.073a.425.425 0 0 0-.426.427.426.426 0 1 0 .853 0 .426.426 0 0 0-.427-.427"/>
        <path fill="#FFB537" d="M295.416 106a7.407 7.407 0 0 1-6.416-3.68 7.374 7.374 0 0 1 2.693-10.093l59.18-34.23c3.54-2.044 8.075-.844 10.125 2.682a7.373 7.373 0 0 1-2.69 10.095l-59.182 34.229a7.394 7.394 0 0 1-3.71.997"/>
        <path fill="#EC8713" d="M295.723 106a7.356 7.356 0 0 1-6.386-3.707c-2.041-3.556 5.716 2.825 9.24.763l60.7-34.96c3.523-2.06.945-9.778 1.726-7.764 2.043 3.556.847 8.11-2.678 10.172l-58.91 34.491a7.29 7.29 0 0 1-3.692 1.005"/>
        <path fill="#FFF" d="M333.868 77.5c0-.178-.164-.321-.367-.321-.205 0-.368.143-.368.321 0 .177.163.321.368.321.203 0 .367-.144.367-.321M335.501 76.17c-.174 0-.312.146-.312.33 0 .182.138.33.312.33.17 0 .31-.148.31-.33 0-.184-.14-.33-.31-.33M338.5 76.403c-.227 0-.408.043-.408.096 0 .055.181.099.408.099.224 0 .407-.044.407-.099 0-.052-.183-.096-.407-.096M341.5 74.306a.194.194 0 1 0 0 .388.195.195 0 0 0 .195-.194.195.195 0 0 0-.195-.194M343.5 73.17c-.173 0-.311.146-.311.33 0 .181.138.33.311.33.172 0 .311-.148.311-.33a.32.32 0 0 0-.311-.33M346.498 71.19c-.257 0-.465.138-.465.31s.208.31.465.31c.261 0 .469-.138.469-.31s-.208-.31-.469-.31M353.5 67.305c-.153 0-.279.088-.279.196 0 .106.126.193.279.193.153 0 .279-.087.279-.193 0-.108-.126-.196-.279-.196M357.501 66.403l-.157.098.157.096.154-.096-.154-.098M355.5 67.305a.195.195 0 1 0 0 .39.195.195 0 0 0 0-.39M328.5 82.209c-.202 0-.368.13-.368.292 0 .16.166.29.368.29.205 0 .369-.13.369-.29 0-.162-.164-.293-.37-.293"/>
        <path fill="#FFF" d="M360.678 60.685A7.366 7.366 0 0 0 350.597 58l-58.918 34.29a7.403 7.403 0 0 0-3.67 6.775c4.024 3.09 9.02-2.551 9.627-1.498.63 1.088 1.376.447 2.245-.56l-.013.13a.657.657 0 1 0 1.313 0 .658.658 0 0 0-.655-.66l-.24.047c.931-1.114 1.99-2.398 3.184-2.398 1.255 0 8.005-2.294 12.69-4.932a25.54 25.54 0 0 0 1.333-.804.677.677 0 0 0 .553.288.687.687 0 0 0 .58-1.054c1.613-1.145 3.1-2.42 4.771-3.815a.789.789 0 0 0-.093.366c0 .397.27.718.602.718.328 0 .594-.321.594-.718 0-.396-.266-.716-.594-.716l-.112.014c1.758-1.466 3.732-3.06 6.26-4.773 6.345-4.301 9.351-2.705 11.855-6.023 1.834-2.427 3.252-2.285 5.526-2.887.001.423.267.767.598.767.333 0 .6-.347.6-.775l-.064-.344a13.96 13.96 0 0 0 1.769-.776l.088-.04c.06.222.27.386.522.386.302 0 .546-.23.546-.517l-.13-.327c2.225-1.036 5.088-2.112 7.116-3.348.036.164.215.29.445.29.253 0 .457-.151.457-.342 0-.152-.135-.277-.32-.323 1.59-1.095 2.445-2.32 1.616-3.755"/>
        <path fill="#FFF" d="M325.5 83.322c-.13 0-.234.08-.234.178 0 .098.103.177.234.177.13 0 .233-.079.233-.177 0-.099-.104-.178-.233-.178M330.499 80.208a.292.292 0 1 0 .002.584.292.292 0 0 0-.002-.584M314.499 90.305a.194.194 0 0 0 0 .39.195.195 0 1 0 0-.39M310.002 93c-.552 0-1.002.45-1.002 1s.45 1 1.002 1c.548 0 .998-.45.998-1s-.45-1-.998-1M305.5 94.267a.233.233 0 1 0 0 0M301.502 96.227a.273.273 0 1 0-.003.546.273.273 0 0 0 .002-.546M295.502 100.023a.478.478 0 1 0-.002.956.478.478 0 0 0 .002-.956M297.498 99.209c-.163 0-.29.13-.29.29a.29.29 0 0 0 .29.293.292.292 0 0 0 0-.583M304.501 96.227a.272.272 0 1 0-.001.545.272.272 0 0 0 .001-.545M322.5 87.091a.41.41 0 0 0 0 .817.406.406 0 0 0 .407-.408.407.407 0 0 0-.407-.409M333.5 80.072a.426.426 0 0 0-.426.43c0 .234.189.425.426.425a.428.428 0 0 0 0-.855"/>
        <path fill="#FFB537" d="M285.418 86a7.407 7.407 0 0 1-6.416-3.68c-2.055-3.528-.848-8.047 2.689-10.092l59.185-34.23c3.538-2.046 8.074-.846 10.123 2.682a7.372 7.372 0 0 1-2.69 10.093l-59.181 34.23a7.39 7.39 0 0 1-3.71.997"/>
        <path fill="#EC8713" d="M285.725 86a7.356 7.356 0 0 1-6.387-3.709c-2.045-3.554 5.716 2.826 9.237.763l60.702-34.958c3.523-2.06.943-9.778 1.726-7.764 2.043 3.555.846 8.11-2.677 10.17l-58.909 34.493A7.288 7.288 0 0 1 285.725 86"/>
        <path fill="#FFF" d="M324.868 57.499c0-.176-.164-.32-.368-.32-.205 0-.369.144-.369.32 0 .179.164.322.37.322.204 0 .368-.143.368-.322M326.499 56.17c-.17 0-.31.147-.31.33 0 .181.14.33.31.33.174 0 .312-.148.312-.33a.32.32 0 0 0-.312-.33M329.5 56.403c-.226 0-.409.043-.409.098 0 .053.183.097.41.097.225 0 .408-.044.408-.097 0-.055-.183-.098-.408-.098M332.5 54.306a.194.194 0 1 0 0 .388.195.195 0 0 0 .195-.195.195.195 0 0 0-.195-.193M334.5 53.17c-.172 0-.31.146-.31.33 0 .181.138.33.31.33s.31-.148.31-.33c0-.184-.138-.33-.31-.33M337.5 51.19c-.259 0-.468.139-.468.31 0 .171.209.31.468.31.258 0 .468-.139.468-.31 0-.172-.21-.31-.468-.31M344.5 47.306c-.153 0-.278.087-.278.194 0 .107.125.194.278.194.154 0 .279-.087.279-.194 0-.107-.125-.194-.28-.194M348.501 46.403l-.156.098.156.096.154-.096-.154-.098M346.5 47.306a.194.194 0 1 0 0 .389.194.194 0 0 0 0-.389M318.499 62.209c-.202 0-.368.13-.368.291 0 .162.166.292.368.292.205 0 .37-.13.37-.292 0-.16-.165-.291-.37-.291"/>
        <path fill="#FFF" d="M351.678 40.686A7.36 7.36 0 0 0 341.599 38l-58.924 34.289a7.407 7.407 0 0 0-3.666 6.776c4.027 3.088 9.018-2.552 9.627-1.499.63 1.087 1.375.447 2.243-.56l-.012.13a.658.658 0 1 0 .66-.659l-.236.046c.922-1.115 1.982-2.397 3.18-2.397 1.253 0 8.001-2.295 12.69-4.933.459-.258.899-.525 1.331-.802a.684.684 0 0 0 1.134-.769c1.61-1.143 3.102-2.418 4.767-3.814a.825.825 0 0 0-.088.368c0 .396.268.717.6.717.33 0 .596-.32.596-.717 0-.396-.266-.717-.596-.717l-.11.013c1.757-1.465 3.73-3.06 6.258-4.773 6.347-4.3 9.35-2.704 11.858-6.022 1.833-2.427 3.246-2.284 5.525-2.888 0 .424.267.766.597.766.332 0 .598-.345.598-.773l-.061-.344c.538-.192 1.126-.44 1.77-.773l.087-.044a.531.531 0 0 0 .522.386.531.531 0 0 0 .543-.516l-.128-.328c2.227-1.035 5.086-2.11 7.116-3.347.035.164.216.292.444.292.253 0 .46-.155.46-.345 0-.152-.138-.278-.32-.322 1.589-1.096 2.443-2.32 1.614-3.755"/>
        <path fill="#FFF" d="M316.502 63.322c-.129 0-.235.08-.235.178 0 .098.106.178.235.178.127 0 .231-.08.231-.178 0-.098-.104-.178-.231-.178M320.501 60.209a.29.29 0 1 0 .29.292.29.29 0 0 0-.29-.292M305.5 70.305a.194.194 0 1 0 0 0M300.998 73a1 1 0 1 0 .005 2.001 1 1 0 0 0-.005-2.001M296.502 74.267a.233.233 0 1 0-.004.466.233.233 0 0 0 .004-.466M292.498 76.227a.272.272 0 1 0 .003.545.272.272 0 0 0-.002-.545M286.498 80.023a.477.477 0 1 0 .002.954.477.477 0 0 0-.002-.954M288.502 79.209a.29.29 0 1 0 0 .582.29.29 0 0 0 .289-.291.29.29 0 0 0-.29-.291M295.5 76.227a.272.272 0 1 0 .272.272.272.272 0 0 0-.272-.272M313.499 67.091a.406.406 0 0 0-.406.41.408.408 0 1 0 .406-.409M324.502 60.073a.427.427 0 1 0-.003.854.427.427 0 0 0 .003-.854"/>
        <path fill="#FFB537" d="M295.417 94a7.414 7.414 0 0 1-6.418-3.68 7.374 7.374 0 0 1 2.694-10.094l59.18-34.228c3.541-2.047 8.075-.844 10.126 2.682a7.372 7.372 0 0 1-2.69 10.093l-59.182 34.231a7.415 7.415 0 0 1-3.71.996"/>
        <path fill="#EC8713" d="M295.724 94a7.363 7.363 0 0 1-6.388-3.709c-2.04-3.554 5.718 2.826 9.24.764l60.701-34.96c3.522-2.06.941-9.776 1.726-7.763 2.043 3.554.846 8.108-2.677 10.17l-58.91 34.495A7.312 7.312 0 0 1 295.725 94"/>
        <path fill="#FFF" d="M334.87 65.5c0-.177-.166-.321-.37-.321-.203 0-.37.143-.37.321 0 .178.166.322.37.322s.37-.145.37-.322M336.501 64.17c-.173 0-.311.148-.311.33 0 .184.138.33.311.33.172 0 .309-.146.309-.33 0-.181-.137-.33-.309-.33M339.5 64.403c-.226 0-.407.044-.407.098 0 .053.181.096.407.096.226 0 .407-.043.407-.096 0-.054-.181-.098-.407-.098M341.502 62.305a.194.194 0 1 0 0 .39.195.195 0 0 0 0-.39M344.5 60.17c-.172 0-.311.148-.311.33 0 .184.139.33.311.33.171 0 .311-.146.311-.33 0-.181-.14-.33-.311-.33M347.5 59.19c-.257 0-.466.138-.466.31 0 .171.209.31.466.31s.467-.139.467-.31c0-.172-.21-.31-.467-.31M354.5 55.306c-.154 0-.278.088-.278.194 0 .108.124.194.278.194.154 0 .279-.086.279-.194 0-.106-.125-.194-.28-.194M358.503 54.403l-.158.097.158.098.152-.098-.152-.097M356.5 55.306a.194.194 0 1 0 0 .388.194.194 0 0 0 0-.388M328.5 70.209c-.204 0-.37.13-.37.29 0 .163.166.293.37.293.202 0 .37-.13.37-.293 0-.16-.167-.29-.37-.29"/>
        <path fill="#FFF" d="M360.679 48.687A7.364 7.364 0 0 0 350.598 46l-58.92 34.288a7.406 7.406 0 0 0-3.669 6.776c4.029 3.09 9.02-2.552 9.628-1.499.628 1.09 1.375.449 2.244-.559l-.016.13a.66.66 0 1 0 .66-.66l-.238.048c.93-1.114 1.986-2.4 3.183-2.4 1.256 0 8.003-2.292 12.69-4.93.462-.26.9-.527 1.33-.804a.688.688 0 0 0 .554.288.69.69 0 0 0 .584-1.055c1.61-1.144 3.1-2.418 4.767-3.816a.817.817 0 0 0-.088.37c0 .395.268.715.597.715.33 0 .597-.32.597-.716 0-.395-.268-.717-.597-.717l-.109.012c1.758-1.465 3.73-3.058 6.258-4.773 6.347-4.3 9.353-2.703 11.857-6.02 1.832-2.43 3.247-2.286 5.522-2.89.003.425.27.767.6.767.333 0 .602-.346.602-.773l-.066-.345c.54-.192 1.127-.44 1.77-.773l.085-.044a.544.544 0 0 0 .525.388.53.53 0 0 0 .542-.517l-.126-.329c2.225-1.034 5.089-2.108 7.116-3.347.034.166.216.293.442.293.252 0 .46-.155.46-.343 0-.154-.137-.28-.32-.324 1.59-1.094 2.445-2.32 1.617-3.754"/>
        <path fill="#FFF" d="M326.5 71.322c-.129 0-.233.08-.233.177 0 .098.104.178.233.178.128 0 .232-.08.232-.178 0-.097-.104-.177-.232-.177M330.499 68.208a.292.292 0 0 0 0 .584.291.291 0 0 0 .292-.292.29.29 0 0 0-.292-.292M315.5 78.305a.194.194 0 0 0 0 .39.193.193 0 0 0 .193-.195.194.194 0 0 0-.193-.195M311.002 81a1 1 0 1 0-.005 2 1 1 0 0 0 .005-2M306.5 82.267a.234.234 0 0 0 0 .467.233.233 0 1 0 0-.467M302.5 84.227a.273.273 0 0 0 0 .545.272.272 0 1 0 0-.545M295.502 88.023a.479.479 0 0 0 0 .955.477.477 0 0 0 0-.956M298.5 87.208a.292.292 0 1 0 0 .584.292.292 0 0 0 0-.584M305.5 84.227a.273.273 0 1 0 0 .546.273.273 0 0 0 0-.546M322.5 75.093a.407.407 0 1 0 .407.407.407.407 0 0 0-.407-.407M334.5 68.072a.429.429 0 1 0 .429.429.43.43 0 0 0-.43-.429"/>
        <path fill="#EC8713" d="M352.5 101c-2.944 0-5.886-.635-8.132-1.903-4.49-2.538-4.49-6.654 0-9.194C346.614 88.635 349.556 88 352.5 88s5.886.635 8.132 1.903c4.49 2.54 4.49 6.656 0 9.194-2.246 1.268-5.188 1.903-8.132 1.903"/>
        <path fill="#FFC900" d="M368 83c0 8.283-6.717 15-15.002 15C344.716 98 338 91.283 338 83h30"/>
        <path fill="#E0D7B4" d="M363.605 89.51c-5.854 3.32-15.357 3.32-21.213 0-5.856-3.316-5.856-8.702 0-12.023 5.856-3.316 15.36-3.316 21.213 0 5.86 3.321 5.86 8.707 0 12.023"/>
        <path fill="#BDB497" d="M365.784 84c-.475-1.48-1.722-2.894-3.742-4.034-5.273-2.977-13.818-2.977-19.088 0-2.02 1.138-3.265 2.553-3.736 4.028-.765-2.379.482-4.925 3.736-6.76 5.27-2.978 13.815-2.978 19.088 0 3.254 1.838 4.503 4.383 3.742 6.766"/>
        <path fill="#603913" d="M366 84.505a5.861 5.861 0 0 1-1.047 1.908c-.663.82-1.577 1.59-2.75 2.269-5.365 3.09-14.05 3.09-19.406 0-1.173-.679-2.088-1.45-2.749-2.269A5.765 5.765 0 0 1 339 84.499c.478-1.531 1.743-3 3.797-4.182 5.356-3.09 14.041-3.09 19.4 0 2.053 1.184 3.32 2.652 3.803 4.188"/>
        <path fill="#754C29" d="M359.775 82.658a.61.61 0 0 1-.549 0c-.152-.087-.152-.229 0-.316a.604.604 0 0 1 .55 0c.15.087.15.23 0 .316M355.708 80.746c-.391.134-1.024.134-1.413 0-.393-.136-.393-.355 0-.491.39-.135 1.022-.135 1.413 0 .39.136.39.355 0 .49M357.706 84.745c-.39.135-1.024.135-1.414 0-.39-.136-.39-.354 0-.49.39-.135 1.025-.135 1.414 0 .392.136.392.354 0 .49M362.79 85.667a.64.64 0 0 1-.58 0c-.16-.093-.16-.24 0-.335a.646.646 0 0 1 .58 0c.161.094.161.242 0 .335M345.707 83.779c-.39.154-1.022.154-1.414 0-.39-.154-.39-.403 0-.558.392-.153 1.024-.153 1.414 0 .39.155.39.404 0 .558M349.854 87.705a.792.792 0 0 1-.71 0c-.192-.114-.192-.297 0-.41a.786.786 0 0 1 .71 0c.195.113.195.296 0 .41M351.741 83.64a.536.536 0 0 1-.484 0c-.133-.078-.133-.203 0-.28a.53.53 0 0 1 .484 0c.135.077.135.202 0 .28M345.706 86.72c-.39.122-1.023.122-1.412 0-.392-.121-.392-.32 0-.44.39-.122 1.023-.122 1.412 0 .392.12.392.319 0 .44M350.707 80.783c-.392.154-1.026.154-1.416 0-.388-.157-.388-.409 0-.565.39-.156 1.024-.156 1.416 0 .39.156.39.408 0 .565M356.56 88.706c-.584.392-1.535.392-2.122 0-.584-.39-.584-1.023 0-1.412.587-.392 1.538-.392 2.122 0 .587.39.587 1.023 0 1.412M363.706 82.767c-.388.147-1.024.147-1.412 0-.392-.148-.392-.387 0-.533.388-.149 1.024-.149 1.412 0 .392.146.392.385 0 .533"/>
        <path fill="#DAD6C4" d="M125.832 61.71a1.125 1.125 0 0 1-.564-2.1l10.395-6a1.132 1.132 0 0 1 1.536.414 1.13 1.13 0 0 1-.411 1.539l-10.395 6-.561.147zm-20.781 12a1.13 1.13 0 0 1-.978-.561 1.128 1.128 0 0 1 .414-1.54l10.392-6c.54-.3 1.227-.122 1.536.415a1.13 1.13 0 0 1-.411 1.539l-10.392 6-.561.147zm-20.787 12c-.387 0-.765-.201-.975-.561a1.13 1.13 0 0 1 .411-1.54l10.392-6c.54-.3 1.227-.125 1.536.415.312.54.129 1.227-.411 1.539l-10.392 6-.561.147zm-20.784 12a1.127 1.127 0 0 1-.564-2.1l10.392-6a1.127 1.127 0 0 1 1.125 1.953l-10.392 6-.561.147zm-20.784 12a1.127 1.127 0 0 1-.564-2.1l10.392-6a1.127 1.127 0 0 1 1.125 1.953l-10.392 6-.561.147zm-20.784 12a1.127 1.127 0 0 1-.564-2.1l10.392-6c.54-.3 1.227-.126 1.536.414a1.13 1.13 0 0 1-.411 1.539l-10.392 6-.561.147zm-20.784 12a1.13 1.13 0 0 1-.978-.561 1.128 1.128 0 0 1 .414-1.54l10.389-6a1.134 1.134 0 0 1 1.539.415c.309.54.126 1.227-.414 1.539l-10.389 6-.561.147z"/>
    </g>
</svg>
