<svg xmlns="http://www.w3.org/2000/svg" width="18" height="18" viewBox="0 0 18 18">
    <path fill="#FFF" fill-rule="nonzero" d="M14.52 0C16.44 0 18 1.56 18 3.479V14.52c0 1.92-1.56 3.48-3.479 3.48H3.48A3.482 3.482 0 0 1 0 14.52V3.48A3.482 3.482 0 0 1 3.479 0H14.52zM4.44 7H2v7.521C2 15.474 2.526 16 3.478 16H14.52c.95 0 1.48-.526 1.48-1.479V7h-2.443c.234.57.366 1.347.366 2A4.929 4.929 0 0 1 9 13.921 4.928 4.928 0 0 1 4.078 9c0-.652.13-1.43.362-1.999zM9 5.831a3.167 3.167 0 0 0-2.57 1.321A3.153 3.153 0 0 0 5.834 9a3.17 3.17 0 0 0 3.166 3.168c1.746 0 3.17-1.42 3.17-3.168 0-.69-.226-1.326-.6-1.846A3.164 3.164 0 0 0 9.002 5.83zm6.916-3.758l-.397.001L13 2.073V5h2.907l.01-2.532v-.395z"/>
</svg>
