<svg xmlns="http://www.w3.org/2000/svg" width="28" height="18" viewBox="0 0 28 18">
    <g fill="none" fill-rule="nonzero">
        <path fill="#E2574C" d="M16.98 8.99c0 4.927-3.78 8.92-8.443 8.92S.095 13.915.095 8.99 3.875.07 8.537.07c4.663 0 8.443 3.994 8.443 8.92z"/>
        <path fill="#F4B459" d="M18.677.07c-1.894 0-3.637.667-5.045 1.779h.006c.277.284.583.482.819.808l-1.757.03a9.06 9.06 0 0 0-.763.944h3.098c.236.299.454.558.651.888h-4.31a9.084 9.084 0 0 0-.432.89h5.233c.137.306.26.537.363.86h-5.906a8.98 8.98 0 0 0-.234.944h6.388c.062.309.11.594.143.885h-6.658a9.435 9.435 0 0 0-.042.892h6.748c0 .316-.02.608-.051.892h-6.655c.029.302.07.6.127.892h6.377c-.065.289-.141.58-.237.881h-5.925c.09.305.198.601.317.89h5.245c-.145.325-.31.584-.491.888H11.36c.17.313.359.61.563.896l3.111.049c-.265.336-.605.539-.915.833.017.014-.496-.002-1.505-.019 1.535 1.674 3.681 2.717 6.062 2.717 4.664 0 8.445-3.993 8.445-8.92 0-4.925-3.78-8.919-8.445-8.919z"/>
    </g>
</svg>
