<svg xmlns="http://www.w3.org/2000/svg" width="50" height="15" viewBox="0 0 50 15">
    <defs>
        <linearGradient id="a" x1="0%" y1="50%" y2="50%">
            <stop offset="0%" stop-color="#00A0E5"/>
            <stop offset="100%" stop-color="#0077C3"/>
        </linearGradient>
    </defs>
    <g fill="none" fill-rule="evenodd">
        <path fill="#37A72E" d="M35.675 6.94v7.675h4.264v-4.548h4.833a4.728 4.728 0 0 0 4.413-3.127h-13.51z"/>
        <path fill="url(#a)" d="M35.107 0c.248 3.137 3.216 5.614 6.84 5.614h7.415A4.726 4.726 0 0 0 44.755 0h-9.648z" transform="translate(0 .615)"/>
        <path fill="#37A72E" d="M28.796 6.155l.003-.007a.256.256 0 0 1 .48.117v8.28h4.264V.614H29.28c-.54.018-1.151.415-1.379.902l-3.393 7.277a.283.283 0 0 1-.038.083l-.001.002a.284.284 0 0 1-.519-.162V.615h-4.264v13.93h4.264v-.002c.535-.028 1.132-.42 1.355-.9l3.483-7.47a.255.255 0 0 1 .009-.018zM12.874 6.393l-2.492 8.151H7.314L4.821 6.388a.28.28 0 0 0-.557.055v8.101H0V.615h4.75c.784 0 1.607.61 1.836 1.36L8.66 8.761c.103.337.27.337.374 0l2.075-6.788c.23-.75 1.052-1.359 1.836-1.359h4.75v13.93H13.43V6.442v-.004a.28.28 0 0 0-.557-.046z"/>
    </g>
</svg>
