<svg xmlns="http://www.w3.org/2000/svg" width="44" height="16" viewBox="0 0 44 16">
    <g fill="none" fill-rule="nonzero">
        <path fill="#059BCE" d="M17.674.836l-2.17 14.263h3.469L21.142.836h-3.468zm10.463 5.81c-1.212-.632-1.955-1.06-1.955-1.706.015-.588.628-1.19 1.998-1.19a5.762 5.762 0 0 1 2.584.528l.315.149.471-2.984a8.346 8.346 0 0 0-3.113-.588c-3.425 0-5.837 1.88-5.852 4.57-.029 1.986 1.727 3.087 3.04 3.748 1.342.678 1.799 1.118 1.799 1.72-.015.925-1.085 1.351-2.084 1.351-1.384 0-2.127-.22-3.255-.735l-.457-.22-.485 3.102c.815.382 2.313.719 3.869.736 3.64 0 6.009-1.852 6.039-4.72.011-1.572-.914-2.777-2.914-3.761zM40.443.88h-2.684c-.827 0-1.455.251-1.813 1.148l-5.153 13.07h3.64l1.003-2.83h4.073l.52 2.842h3.21L40.444.88zm-3.997 8.533c.07.007 1.397-4.62 1.397-4.62l1.057 4.62h-2.454zM12.606.836l-3.399 9.69-.37-1.91C8.21 6.41 6.24 4.013 4.04 2.823l3.112 12.26h3.67L16.276.838h-3.67V.836z"/>
        <path fill="#EFC75E" d="M7.694 2.675C7.429 1.588 6.584.855 5.438.84H.055L0 1.103c4.198 1.093 7.722 4.457 8.866 7.62L7.694 2.675z"/>
    </g>
</svg>
