<svg xmlns="http://www.w3.org/2000/svg" width="22" height="16" viewBox="0 0 22 16">
    <path fill="#FFF" fill-rule="nonzero" d="M2.392.721a2.757 2.757 0 0 0-1.939 1.94C-.018 4.38 0 7.97 0 7.97s0 3.57.453 5.291a2.756 2.756 0 0 0 1.94 1.94c1.568.412 7.424.449 8.452.452h.31c1.025-.003 6.868-.041 8.453-.47a2.757 2.757 0 0 0 1.939-1.94c.396-1.49.446-4.424.452-5.134v-.314c-.006-.707-.056-3.628-.452-5.135a2.812 2.812 0 0 0-1.94-1.957C18.078.3 12.468.256 11.239.251h-.477C9.533.256 3.922.302 2.392.72zm6.848 3.71l5.28 3.52-5.28 3.522V4.43z"/>
</svg>
